# Blender 5.2.0 LTS
# www.blender.org
mtllib Massachusetts.mtl
o Plane.019
v 1.441337 4.700695 -12.915298
v 1.441337 4.819162 -13.516986
v 1.441337 5.071685 -13.766391
v 1.441337 4.865926 -13.897328
v 1.441337 4.694461 -13.794450
v 1.441337 4.638345 -13.781980
v 1.441337 4.585346 -13.810037
v 1.441337 4.582229 -13.900445
v 1.441337 4.557288 -14.000207
v 1.441337 4.301648 -14.152966
v 1.441337 4.298531 -14.296374
v 1.441337 4.326589 -14.336902
v 1.441337 4.379587 -14.439780
v 1.441337 4.382705 -14.492778
v 1.441337 4.317236 -14.492778
v 1.441337 4.229944 -14.474072
v 1.441337 4.220592 -14.421075
v 1.441337 4.229944 -14.340018
v 1.441337 4.208121 -14.343135
v 1.441337 4.167593 -14.305724
v 1.441337 4.102124 -14.177905
v 1.441337 4.105242 -14.140494
v 1.441337 4.136417 -14.124907
v 1.441337 4.161358 -14.046969
v 1.441337 4.136417 -14.015794
v 1.441337 4.008597 -14.000207
v 1.441337 3.958717 -13.894210
v 1.441337 4.236179 -13.713391
v 1.441337 4.304766 -13.713391
v 1.441337 4.348412 -13.669745
v 1.441337 4.307883 -13.622983
v 1.441337 4.077184 -12.625363
v 1.441337 4.139535 -12.868533
v 1.441337 4.258002 -13.410989
v 1.441337 4.064713 -12.510015
v 1.441337 4.622756 -12.469487
v 2.441337 4.700695 -12.915298
v 2.441337 4.819162 -13.516986
v 2.441337 5.071685 -13.766391
v 2.441337 4.865926 -13.897328
v 2.441337 4.694461 -13.794450
v 2.441337 4.638345 -13.781980
v 2.441337 4.585346 -13.810037
v 2.441337 4.582229 -13.900445
v 2.441337 4.557288 -14.000207
v 2.441337 4.301648 -14.152966
v 2.441337 4.298531 -14.296374
v 2.441337 4.326589 -14.336902
v 2.441337 4.379587 -14.439780
v 2.441337 4.382705 -14.492778
v 2.441337 4.317236 -14.492778
v 2.441337 4.229944 -14.474072
v 2.441337 4.220592 -14.421075
v 2.441337 4.229944 -14.340018
v 2.441337 4.208121 -14.343135
v 2.441337 4.167593 -14.305724
v 2.441337 4.102124 -14.177905
v 2.441337 4.105242 -14.140494
v 2.441337 4.136417 -14.124907
v 2.441337 4.161358 -14.046969
v 2.441337 4.136417 -14.015794
v 2.441337 4.008597 -14.000207
v 2.441337 3.958717 -13.894210
v 2.441337 4.236179 -13.713391
v 2.441337 4.304766 -13.713391
v 2.441337 4.348412 -13.669745
v 2.441337 4.307883 -13.622983
v 2.441337 4.077184 -12.625363
v 2.441337 4.139535 -12.868533
v 2.441337 4.258002 -13.410989
v 2.441337 4.064713 -12.510015
v 2.441337 4.622756 -12.469487
vn -1.0000 -0.0000 -0.0000
vn 1.0000 -0.0000 -0.0000
vn -0.0000 0.9851 0.1722
vn -0.0000 0.9812 0.1932
vn -0.0000 0.7027 0.7115
vn -0.0000 0.5369 -0.8437
vn -0.0000 -0.5145 -0.8575
vn -0.0000 -0.2169 -0.9762
vn -0.0000 0.4679 -0.8838
vn -0.0000 0.9994 -0.0345
vn -0.0000 0.9701 -0.2425
vn -0.0000 0.5130 -0.8584
vn -0.0000 0.9998 -0.0217
vn -0.0000 0.8222 0.5692
vn -0.0000 0.8890 0.4580
vn -0.0000 0.9983 0.0587
vn -0.0000 -0.0000 -1.0000
vn -0.0000 -0.2095 -0.9778
vn -0.0000 -0.9848 -0.1738
vn -0.0000 -0.9934 0.1146
vn -0.0000 0.1414 -0.9900
vn -0.0000 -0.6783 -0.7348
vn -0.0000 -0.8900 -0.4559
vn -0.0000 -0.9965 0.0830
vn -0.0000 -0.4472 0.8944
vn -0.0000 -0.9524 0.3048
vn -0.0000 -0.7809 -0.6247
vn -0.0000 -0.1210 -0.9926
vn -0.0000 -0.9048 -0.4258
vn -0.0000 -0.5460 0.8378
vn -0.0000 -0.0000 1.0000
vn -0.0000 -0.7071 0.7071
vn -0.0000 -0.7557 -0.6549
vn -0.0000 -0.9734 -0.2290
vn -0.0000 -0.9942 -0.1075
vn -0.0000 -0.9687 -0.2484
vn -0.0000 -0.9770 -0.2134
vn -0.0000 -0.0724 0.9974
vn -1.0000 -0.0001 -0.0000
vn 1.0000 0.0001 -0.0000
vn 1.0000 0.0003 -0.0000
vt 0.000000 0.000000
s 0
f 18/1/1 30/1/1 1/1/1
f 56/1/2 54/1/2 47/1/2
f 36/1/3 37/1/3 1/1/3
f 1/1/4 38/1/4 2/1/4
f 2/1/5 39/1/5 3/1/5
f 3/1/6 40/1/6 4/1/6
f 4/1/7 41/1/7 5/1/7
f 5/1/8 42/1/8 6/1/8
f 6/1/9 43/1/9 7/1/9
f 7/1/10 44/1/10 8/1/10
f 8/1/11 45/1/11 9/1/11
f 9/1/12 46/1/12 10/1/12
f 10/1/13 47/1/13 11/1/13
f 11/1/14 48/1/14 12/1/14
f 12/1/15 49/1/15 13/1/15
f 13/1/16 50/1/16 14/1/16
f 14/1/17 51/1/17 15/1/17
f 15/1/18 52/1/18 16/1/18
f 16/1/19 53/1/19 17/1/19
f 17/1/20 54/1/20 18/1/20
f 18/1/21 55/1/21 19/1/21
f 19/1/22 56/1/22 20/1/22
f 20/1/23 57/1/23 21/1/23
f 21/1/24 58/1/24 22/1/24
f 22/1/25 59/1/25 23/1/25
f 23/1/26 60/1/26 24/1/26
f 24/1/27 61/1/27 25/1/27
f 25/1/28 62/1/28 26/1/28
f 26/1/29 63/1/29 27/1/29
f 27/1/30 64/1/30 28/1/30
f 28/1/31 65/1/31 29/1/31
f 29/1/32 66/1/32 30/1/32
f 30/1/33 67/1/33 31/1/33
f 31/1/34 70/1/34 34/1/34
f 32/1/35 71/1/35 35/1/35
f 33/1/36 68/1/36 32/1/36
f 34/1/37 69/1/37 33/1/37
f 35/1/38 72/1/38 36/1/38
f 3/1/1 4/1/1 5/1/1
f 3/1/1 5/1/1 6/1/1
f 2/1/1 3/1/1 6/1/1
f 7/1/1 8/1/1 9/1/1
f 2/1/1 6/1/1 7/1/1
f 35/1/1 36/1/1 1/1/1
f 1/1/1 2/1/1 7/1/1
f 7/1/1 9/1/1 10/1/1
f 11/1/1 12/1/1 13/1/1
f 1/1/1 7/1/1 10/1/1
f 11/1/1 13/1/1 14/1/1
f 11/1/1 14/1/1 15/1/1
f 15/1/1 16/1/1 17/1/1
f 18/1/1 19/1/1 20/1/1
f 15/1/1 17/1/1 18/1/1
f 11/1/1 15/1/1 18/1/1
f 18/1/1 20/1/1 21/1/1
f 21/1/1 22/1/1 23/1/1
f 18/1/1 21/1/1 23/1/1
f 10/1/1 11/1/1 18/1/1
f 32/1/1 35/1/1 1/1/1
f 31/1/39 34/1/39 33/1/39
f 33/1/1 32/1/1 1/1/1
f 1/1/1 10/1/1 18/1/1
f 18/1/1 23/1/1 24/1/1
f 25/1/1 26/1/1 27/1/1
f 25/1/1 27/1/1 28/1/1
f 25/1/1 28/1/1 29/1/1
f 24/1/1 25/1/1 29/1/1
f 30/1/1 31/1/1 33/1/1
f 24/1/1 29/1/1 30/1/1
f 30/1/1 33/1/1 1/1/1
f 18/1/1 24/1/1 30/1/1
f 41/1/2 40/1/2 39/1/2
f 41/1/2 39/1/2 38/1/2
f 42/1/2 41/1/2 38/1/2
f 37/1/2 72/1/2 71/1/2
f 42/1/2 38/1/2 37/1/2
f 45/1/2 44/1/2 43/1/2
f 43/1/2 42/1/2 37/1/2
f 37/1/2 71/1/2 68/1/2
f 69/1/2 70/1/2 67/1/2
f 37/1/2 68/1/2 69/1/2
f 45/1/2 43/1/2 37/1/2
f 46/1/2 45/1/2 37/1/2
f 37/1/2 69/1/2 67/1/2
f 37/1/2 67/1/2 66/1/2
f 46/1/2 37/1/2 66/1/2
f 65/1/2 64/1/2 63/1/2
f 46/1/2 66/1/2 65/1/2
f 49/1/40 48/1/40 47/1/40
f 47/1/41 46/1/41 65/1/41
f 65/1/2 63/1/2 62/1/2
f 65/1/2 62/1/2 61/1/2
f 50/1/2 49/1/2 47/1/2
f 65/1/2 61/1/2 60/1/2
f 59/1/2 58/1/2 57/1/2
f 65/1/2 60/1/2 59/1/2
f 51/1/2 50/1/2 47/1/2
f 47/1/2 65/1/2 59/1/2
f 59/1/2 57/1/2 56/1/2
f 56/1/2 55/1/2 54/1/2
f 54/1/2 53/1/2 52/1/2
f 52/1/2 51/1/2 47/1/2
f 47/1/2 59/1/2 56/1/2
f 54/1/2 52/1/2 47/1/2
f 36/1/3 72/1/3 37/1/3
f 1/1/4 37/1/4 38/1/4
f 2/1/5 38/1/5 39/1/5
f 3/1/6 39/1/6 40/1/6
f 4/1/7 40/1/7 41/1/7
f 5/1/8 41/1/8 42/1/8
f 6/1/9 42/1/9 43/1/9
f 7/1/10 43/1/10 44/1/10
f 8/1/11 44/1/11 45/1/11
f 9/1/12 45/1/12 46/1/12
f 10/1/13 46/1/13 47/1/13
f 11/1/14 47/1/14 48/1/14
f 12/1/15 48/1/15 49/1/15
f 13/1/16 49/1/16 50/1/16
f 14/1/17 50/1/17 51/1/17
f 15/1/18 51/1/18 52/1/18
f 16/1/19 52/1/19 53/1/19
f 17/1/20 53/1/20 54/1/20
f 18/1/21 54/1/21 55/1/21
f 19/1/22 55/1/22 56/1/22
f 20/1/23 56/1/23 57/1/23
f 21/1/24 57/1/24 58/1/24
f 22/1/25 58/1/25 59/1/25
f 23/1/26 59/1/26 60/1/26
f 24/1/27 60/1/27 61/1/27
f 25/1/28 61/1/28 62/1/28
f 26/1/29 62/1/29 63/1/29
f 27/1/30 63/1/30 64/1/30
f 28/1/31 64/1/31 65/1/31
f 29/1/32 65/1/32 66/1/32
f 30/1/33 66/1/33 67/1/33
f 31/1/34 67/1/34 70/1/34
f 32/1/35 68/1/35 71/1/35
f 33/1/36 69/1/36 68/1/36
f 34/1/37 70/1/37 69/1/37
f 35/1/38 71/1/38 72/1/38
