# Blender 5.2.0 LTS
# www.blender.org
mtllib Vermont.mtl
o Plane.020
v 1.441337 6.243196 -12.066947
v 1.441337 5.933738 -12.129338
v 1.441337 5.858656 -12.206395
v 1.441337 5.504984 -12.196517
v 1.441337 5.335063 -12.311114
v 1.441337 5.271837 -12.243936
v 1.441337 5.222442 -12.239984
v 1.441337 5.196755 -12.297282
v 1.441337 5.198731 -12.358533
v 1.441337 4.967561 -12.465228
v 1.441337 4.622756 -12.469487
v 1.441337 4.700695 -12.915298
v 1.441337 4.791104 -12.893476
v 1.441337 4.869043 -12.924651
v 1.441337 4.950100 -12.934003
v 1.441337 5.021804 -12.890357
v 1.441337 5.196387 -12.871652
v 1.441337 5.495672 -12.862300
v 1.441337 5.551788 -12.921533
v 1.441337 5.685843 -12.837359
v 1.441337 5.804311 -12.849830
v 1.441337 5.953954 -12.946473
v 1.441337 6.050598 -13.049352
v 1.441337 6.134772 -13.049352
v 1.441337 6.296885 -13.002589
v 1.441337 6.371706 -12.980767
v 1.441337 6.518231 -12.980767
v 2.441337 6.243196 -12.066947
v 2.441337 5.933738 -12.129338
v 2.441337 5.858656 -12.206395
v 2.441337 5.504984 -12.196517
v 2.441337 5.335063 -12.311114
v 2.441337 5.271837 -12.243936
v 2.441337 5.222442 -12.239984
v 2.441337 5.196755 -12.297282
v 2.441337 5.198731 -12.358533
v 2.441337 4.967561 -12.465228
v 2.441337 4.622756 -12.469487
v 2.441337 4.700695 -12.915298
v 2.441337 4.791104 -12.893476
v 2.441337 4.869043 -12.924651
v 2.441337 4.950100 -12.934003
v 2.441337 5.021804 -12.890357
v 2.441337 5.196387 -12.871652
v 2.441337 5.495672 -12.862300
v 2.441337 5.551788 -12.921533
v 2.441337 5.685843 -12.837359
v 2.441337 5.804311 -12.849830
v 2.441337 5.953954 -12.946473
v 2.441337 6.050598 -13.049352
v 2.441337 6.134772 -13.049352
v 2.441337 6.296885 -13.002589
v 2.441337 6.371706 -12.980767
v 2.441337 6.518231 -12.980767
vn -1.0000 -0.0000 -0.0000
vn 1.0000 -0.0000 -0.0000
vn -0.0000 -0.1976 0.9803
vn -0.0000 -0.7162 0.6979
vn -0.0000 0.0279 0.9996
vn -0.0000 -0.5591 0.8291
vn -0.0000 0.7282 0.6854
vn -0.0000 0.0798 0.9968
vn -0.0000 -0.9125 0.4091
vn -0.0000 -0.9995 -0.0322
vn -0.0000 -0.4191 0.9080
vn -0.0000 -0.0124 0.9999
vn -0.0000 -0.9851 -0.1722
vn -0.0000 0.2346 -0.9721
vn -0.0000 -0.3714 -0.9285
vn -0.0000 -0.1146 -0.9934
vn -0.0000 0.5199 -0.8542
vn -0.0000 0.1065 -0.9943
vn -0.0000 0.0312 -0.9995
vn -0.0000 -0.7259 -0.6878
vn -0.0000 0.5318 -0.8469
vn -0.0000 -0.1047 -0.9945
vn -0.0000 -0.5425 -0.8400
vn -0.0000 -0.7288 -0.6847
vn -0.0000 -0.0000 -1.0000
vn -0.0000 0.2772 -0.9608
vn -0.0000 0.2800 -0.9600
vn -0.0000 0.9576 0.2882
vn 1.0000 0.0004 -0.0000
vt 0.000000 0.000000
s 0
f 20/1/1 17/1/1 3/1/1
f 30/1/2 44/1/2 47/1/2
f 2/1/3 28/1/3 1/1/3
f 3/1/4 29/1/4 2/1/4
f 4/1/5 30/1/5 3/1/5
f 5/1/6 31/1/6 4/1/6
f 6/1/7 32/1/7 5/1/7
f 7/1/8 33/1/8 6/1/8
f 8/1/9 34/1/9 7/1/9
f 9/1/10 35/1/10 8/1/10
f 10/1/11 36/1/11 9/1/11
f 11/1/12 37/1/12 10/1/12
f 12/1/13 38/1/13 11/1/13
f 13/1/14 39/1/14 12/1/14
f 14/1/15 40/1/15 13/1/15
f 15/1/16 41/1/16 14/1/16
f 16/1/17 42/1/17 15/1/17
f 17/1/18 43/1/18 16/1/18
f 18/1/19 44/1/19 17/1/19
f 19/1/20 45/1/20 18/1/20
f 20/1/21 46/1/21 19/1/21
f 21/1/22 47/1/22 20/1/22
f 22/1/23 48/1/23 21/1/23
f 23/1/24 49/1/24 22/1/24
f 24/1/25 50/1/25 23/1/25
f 25/1/26 51/1/26 24/1/26
f 26/1/27 52/1/27 25/1/27
f 27/1/25 53/1/25 26/1/25
f 1/1/28 54/1/28 27/1/28
f 1/1/1 27/1/1 26/1/1
f 26/1/1 25/1/1 24/1/1
f 24/1/1 23/1/1 22/1/1
f 24/1/1 22/1/1 21/1/1
f 1/1/1 26/1/1 24/1/1
f 3/1/1 2/1/1 1/1/1
f 5/1/1 4/1/1 3/1/1
f 7/1/1 6/1/1 5/1/1
f 9/1/1 8/1/1 7/1/1
f 12/1/1 11/1/1 10/1/1
f 9/1/1 7/1/1 5/1/1
f 12/1/1 10/1/1 9/1/1
f 15/1/1 14/1/1 13/1/1
f 13/1/1 12/1/1 9/1/1
f 9/1/1 5/1/1 3/1/1
f 3/1/1 1/1/1 24/1/1
f 3/1/1 24/1/1 21/1/1
f 13/1/1 9/1/1 3/1/1
f 16/1/1 15/1/1 13/1/1
f 17/1/1 16/1/1 13/1/1
f 3/1/1 21/1/1 20/1/1
f 20/1/1 19/1/1 18/1/1
f 17/1/1 13/1/1 3/1/1
f 20/1/1 18/1/1 17/1/1
f 53/1/2 54/1/2 28/1/2
f 28/1/2 29/1/2 30/1/2
f 30/1/2 31/1/2 32/1/2
f 32/1/2 33/1/2 34/1/2
f 34/1/2 35/1/2 36/1/2
f 37/1/2 38/1/2 39/1/2
f 32/1/2 34/1/2 36/1/2
f 36/1/2 37/1/2 39/1/2
f 40/1/2 41/1/2 42/1/2
f 36/1/2 39/1/2 40/1/2
f 30/1/2 32/1/2 36/1/2
f 53/1/2 28/1/2 30/1/2
f 51/1/29 52/1/29 53/1/29
f 49/1/2 50/1/2 51/1/2
f 48/1/2 49/1/2 51/1/2
f 51/1/2 53/1/2 30/1/2
f 30/1/2 36/1/2 40/1/2
f 40/1/2 42/1/2 43/1/2
f 40/1/2 43/1/2 44/1/2
f 48/1/2 51/1/2 30/1/2
f 45/1/2 46/1/2 47/1/2
f 47/1/2 48/1/2 30/1/2
f 30/1/2 40/1/2 44/1/2
f 44/1/2 45/1/2 47/1/2
f 2/1/3 29/1/3 28/1/3
f 3/1/4 30/1/4 29/1/4
f 4/1/5 31/1/5 30/1/5
f 5/1/6 32/1/6 31/1/6
f 6/1/7 33/1/7 32/1/7
f 7/1/8 34/1/8 33/1/8
f 8/1/9 35/1/9 34/1/9
f 9/1/10 36/1/10 35/1/10
f 10/1/11 37/1/11 36/1/11
f 11/1/12 38/1/12 37/1/12
f 12/1/13 39/1/13 38/1/13
f 13/1/14 40/1/14 39/1/14
f 14/1/15 41/1/15 40/1/15
f 15/1/16 42/1/16 41/1/16
f 16/1/17 43/1/17 42/1/17
f 17/1/18 44/1/18 43/1/18
f 18/1/19 45/1/19 44/1/19
f 19/1/20 46/1/20 45/1/20
f 20/1/21 47/1/21 46/1/21
f 21/1/22 48/1/22 47/1/22
f 22/1/23 49/1/23 48/1/23
f 23/1/24 50/1/24 49/1/24
f 24/1/25 51/1/25 50/1/25
f 25/1/26 52/1/26 51/1/26
f 26/1/27 53/1/27 52/1/27
f 27/1/25 54/1/25 53/1/25
f 1/1/28 28/1/28 54/1/28
