# Blender 5.2.0 LTS
# www.blender.org
mtllib Alabama.mtl
o Plane.001
v 2.441337 -2.469327 -6.554568
v 2.441336 -3.693769 -6.886966
v 2.441336 -3.880318 -6.910708
v 2.441336 -4.212715 -7.093865
v 2.441336 -4.307686 -7.178660
v 2.441336 -4.426399 -7.185445
v 2.441336 -4.579030 -7.070123
v 2.441336 -4.670609 -7.066731
v 2.441336 -5.192947 -7.226146
v 2.441336 -5.318444 -7.243104
v 2.441336 -5.504993 -5.564160
v 2.441336 -5.589788 -5.564160
v 2.441336 -5.664408 -5.676089
v 2.441336 -5.732244 -5.733750
v 2.441336 -5.806864 -5.740535
v 2.441336 -5.959496 -5.740535
v 2.441336 -6.040898 -5.587903
v 2.441336 -6.081600 -5.462407
v 2.441336 -6.068033 -5.448840
v 2.441336 -6.027331 -5.459016
v 2.441336 -5.990022 -5.509892
v 2.441336 -5.952712 -5.523459
v 2.441336 -5.820432 -5.442056
v 2.441336 -5.745811 -5.367436
v 2.441336 -5.745811 -5.336909
v 2.441336 -5.810256 -5.282640
v 2.441336 -5.901835 -5.272464
v 2.441336 -5.959496 -5.255506
v 2.441336 -5.956104 -5.119834
v 2.441336 -5.491426 -5.102876
v 2.441336 -5.386281 -5.001122
v 2.441336 -4.751984 -4.936519
v 2.441336 -4.405470 -4.954139
v 2.441336 -4.100067 -5.012870
v 2.441337 -2.508452 -5.018743
v 2.441337 -2.382073 -6.523797
v 1.441337 -2.469327 -6.554568
v 1.441337 -3.693769 -6.886966
v 1.441337 -3.880318 -6.910708
v 1.441337 -4.212715 -7.093865
v 1.441336 -4.307686 -7.178660
v 1.441336 -4.426399 -7.185445
v 1.441336 -4.579030 -7.070123
v 1.441336 -4.670609 -7.066731
v 1.441336 -5.192947 -7.226146
v 1.441336 -5.318444 -7.243104
v 1.441336 -5.504993 -5.564160
v 1.441336 -5.589788 -5.564160
v 1.441336 -5.664408 -5.676089
v 1.441336 -5.732244 -5.733750
v 1.441336 -5.806864 -5.740535
v 1.441336 -5.959496 -5.740535
v 1.441336 -6.040898 -5.587903
v 1.441336 -6.081600 -5.462407
v 1.441336 -6.068033 -5.448840
v 1.441336 -6.027331 -5.459016
v 1.441336 -5.990022 -5.509892
v 1.441336 -5.952712 -5.523459
v 1.441336 -5.820432 -5.442056
v 1.441336 -5.745811 -5.367436
v 1.441336 -5.745811 -5.336909
v 1.441336 -5.810256 -5.282640
v 1.441336 -5.901835 -5.272464
v 1.441336 -5.959496 -5.255506
v 1.441336 -5.956104 -5.119834
v 1.441336 -5.491426 -5.102876
v 1.441336 -5.386281 -5.001122
v 1.441336 -4.751984 -4.936519
v 1.441336 -4.405470 -4.954139
v 1.441337 -4.100067 -5.012870
v 1.441337 -2.508452 -5.018743
v 1.441337 -2.382073 -6.523797
vn 1.0000 -0.0000 -0.0000
vn -1.0000 -0.0000 -0.0000
vn -0.0000 0.3326 -0.9431
vn -0.0000 0.2620 -0.9651
vn -0.0000 0.1263 -0.9920
vn -0.0000 0.4826 -0.8758
vn -0.0000 0.6660 -0.7459
vn -0.0000 0.0571 -0.9984
vn -0.0000 -0.6028 -0.7979
vn -0.0000 -0.0370 -0.9993
vn -0.0000 0.2919 -0.9564
vn -0.0000 0.1339 -0.9910
vn -0.0000 -0.9939 -0.1104
vn -0.0000 -0.0000 -1.0000
vn -0.0000 0.8320 -0.5547
vn -0.0000 0.6476 -0.7619
vn -0.0000 0.0905 -0.9959
vn -0.0000 -0.8824 -0.4706
vn -0.0000 -0.9512 -0.3085
vn -0.0000 -0.7071 0.7071
vn -0.0000 0.2425 0.9701
vn -0.0000 0.8064 0.5914
vn -0.0000 0.3417 0.9398
vn -0.0000 -0.5241 0.8517
vn -0.0000 -1.0000 -0.0000
vn -0.0000 -0.6441 -0.7649
vn -0.0000 -0.1104 -0.9939
vn -0.0000 -0.2822 -0.9594
vn -0.0000 -0.9997 0.0250
vn -0.0000 -0.0365 0.9993
vn -0.0000 -0.6954 0.7186
vn -0.0000 -0.1013 0.9949
vn -0.0000 0.0508 0.9987
vn -0.0000 0.1888 0.9820
vn -0.0000 0.0037 1.0000
vn -0.0000 0.9965 0.0837
vn -0.0000 0.8321 -0.5547
vn -0.0000 0.6477 -0.7619
vt 0.000000 0.000000
s 0
f 22/1/1 17/1/1 12/1/1
f 48/1/2 50/1/2 58/1/2
f 1/1/3 72/1/3 36/1/3
f 2/1/4 37/1/4 1/1/4
f 3/1/5 38/1/5 2/1/5
f 4/1/6 39/1/6 3/1/6
f 5/1/7 40/1/7 4/1/7
f 6/1/8 41/1/8 5/1/8
f 7/1/9 42/1/9 6/1/9
f 8/1/10 43/1/10 7/1/10
f 9/1/11 44/1/11 8/1/11
f 10/1/12 45/1/12 9/1/12
f 11/1/13 46/1/13 10/1/13
f 12/1/14 47/1/14 11/1/14
f 13/1/15 48/1/15 12/1/15
f 14/1/16 49/1/16 13/1/16
f 15/1/17 50/1/17 14/1/17
f 16/1/14 51/1/14 15/1/14
f 17/1/18 52/1/18 16/1/18
f 18/1/19 53/1/19 17/1/19
f 19/1/20 54/1/20 18/1/20
f 20/1/21 55/1/21 19/1/21
f 21/1/22 56/1/22 20/1/22
f 22/1/23 57/1/23 21/1/23
f 23/1/24 58/1/24 22/1/24
f 24/1/20 59/1/20 23/1/20
f 25/1/25 60/1/25 24/1/25
f 26/1/26 61/1/26 25/1/26
f 27/1/27 62/1/27 26/1/27
f 28/1/28 63/1/28 27/1/28
f 29/1/29 64/1/29 28/1/29
f 30/1/30 65/1/30 29/1/30
f 31/1/31 66/1/31 30/1/31
f 32/1/32 67/1/32 31/1/32
f 33/1/33 68/1/33 32/1/33
f 34/1/34 69/1/34 33/1/34
f 35/1/35 70/1/35 34/1/35
f 36/1/36 71/1/36 35/1/36
f 1/1/1 36/1/1 35/1/1
f 34/1/1 33/1/1 32/1/1
f 1/1/1 35/1/1 34/1/1
f 3/1/1 2/1/1 1/1/1
f 6/1/1 5/1/1 4/1/1
f 3/1/1 1/1/1 34/1/1
f 6/1/1 4/1/1 3/1/1
f 7/1/1 6/1/1 3/1/1
f 3/1/1 34/1/1 32/1/1
f 32/1/1 31/1/1 30/1/1
f 30/1/1 29/1/1 28/1/1
f 28/1/1 27/1/1 26/1/1
f 30/1/1 28/1/1 26/1/1
f 3/1/1 32/1/1 30/1/1
f 8/1/1 7/1/1 3/1/1
f 10/1/1 9/1/1 8/1/1
f 11/1/1 10/1/1 8/1/1
f 8/1/1 3/1/1 30/1/1
f 30/1/1 26/1/1 25/1/1
f 30/1/1 25/1/1 24/1/1
f 11/1/1 8/1/1 30/1/1
f 14/1/1 13/1/1 12/1/1
f 12/1/1 11/1/1 30/1/1
f 12/1/1 30/1/1 24/1/1
f 15/1/1 14/1/1 12/1/1
f 17/1/1 16/1/1 15/1/1
f 19/1/1 18/1/1 17/1/1
f 21/1/1 20/1/1 19/1/1
f 21/1/1 19/1/1 17/1/1
f 17/1/1 15/1/1 12/1/1
f 12/1/1 24/1/1 23/1/1
f 22/1/1 21/1/1 17/1/1
f 12/1/1 23/1/1 22/1/1
f 71/1/2 72/1/2 37/1/2
f 37/1/2 38/1/2 39/1/2
f 40/1/2 41/1/2 42/1/2
f 71/1/2 37/1/2 39/1/2
f 39/1/2 40/1/2 42/1/2
f 39/1/2 42/1/2 43/1/2
f 70/1/2 71/1/2 39/1/2
f 68/1/2 69/1/2 70/1/2
f 66/1/2 67/1/2 68/1/2
f 64/1/2 65/1/2 66/1/2
f 62/1/2 63/1/2 64/1/2
f 62/1/2 64/1/2 66/1/2
f 66/1/2 68/1/2 70/1/2
f 70/1/2 39/1/2 43/1/2
f 44/1/2 45/1/2 46/1/2
f 70/1/2 43/1/2 44/1/2
f 62/1/2 66/1/2 70/1/2
f 61/1/2 62/1/2 70/1/2
f 70/1/2 44/1/2 46/1/2
f 70/1/2 46/1/2 47/1/2
f 60/1/2 61/1/2 70/1/2
f 59/1/2 60/1/2 70/1/2
f 70/1/2 47/1/2 48/1/2
f 48/1/2 49/1/2 50/1/2
f 50/1/2 51/1/2 52/1/2
f 52/1/2 53/1/2 54/1/2
f 54/1/2 55/1/2 56/1/2
f 54/1/2 56/1/2 57/1/2
f 50/1/2 52/1/2 54/1/2
f 59/1/2 70/1/2 48/1/2
f 50/1/2 54/1/2 57/1/2
f 58/1/2 59/1/2 48/1/2
f 50/1/2 57/1/2 58/1/2
f 1/1/3 37/1/3 72/1/3
f 2/1/4 38/1/4 37/1/4
f 3/1/5 39/1/5 38/1/5
f 4/1/6 40/1/6 39/1/6
f 5/1/7 41/1/7 40/1/7
f 6/1/8 42/1/8 41/1/8
f 7/1/9 43/1/9 42/1/9
f 8/1/10 44/1/10 43/1/10
f 9/1/11 45/1/11 44/1/11
f 10/1/12 46/1/12 45/1/12
f 11/1/13 47/1/13 46/1/13
f 12/1/14 48/1/14 47/1/14
f 13/1/37 49/1/37 48/1/37
f 14/1/38 50/1/38 49/1/38
f 15/1/17 51/1/17 50/1/17
f 16/1/14 52/1/14 51/1/14
f 17/1/18 53/1/18 52/1/18
f 18/1/19 54/1/19 53/1/19
f 19/1/20 55/1/20 54/1/20
f 20/1/21 56/1/21 55/1/21
f 21/1/22 57/1/22 56/1/22
f 22/1/23 58/1/23 57/1/23
f 23/1/24 59/1/24 58/1/24
f 24/1/20 60/1/20 59/1/20
f 25/1/25 61/1/25 60/1/25
f 26/1/26 62/1/26 61/1/26
f 27/1/27 63/1/27 62/1/27
f 28/1/28 64/1/28 63/1/28
f 29/1/29 65/1/29 64/1/29
f 30/1/30 66/1/30 65/1/30
f 31/1/31 67/1/31 66/1/31
f 32/1/32 68/1/32 67/1/32
f 33/1/33 69/1/33 68/1/33
f 34/1/34 70/1/34 69/1/34
f 35/1/35 71/1/35 70/1/35
f 36/1/36 72/1/36 71/1/36
