# Blender 5.2.0 LTS
# www.blender.org
mtllib Colorado.mtl
o Plane.042
v 1.441337 0.376054 3.275949
v 1.441337 -1.040209 3.326132
v 1.441337 -1.033368 3.941826
v 1.441337 -1.006004 4.584885
v 1.441337 -0.896547 5.768385
v 1.441337 2.307886 7.068197
v 1.441337 -0.663952 7.485488
v 1.441337 1.949328 3.209834
v 1.441337 2.010898 4.318084
v 1.441337 1.149012 3.233771
v 2.441337 0.376054 3.275949
v 2.441337 -1.040209 3.326132
v 2.441337 -1.033368 3.941826
v 2.441337 -1.006004 4.584885
v 2.441337 -0.896547 5.768385
v 2.441337 2.307886 7.068197
v 2.441337 -0.663952 7.485488
v 2.441337 1.949328 3.209834
v 2.441337 2.010898 4.318084
v 2.441337 1.149012 3.233771
vn -1.0000 -0.0000 -0.0000
vn 1.0000 -0.0000 -0.0000
vn -0.0000 0.9942 -0.1074
vn -0.0000 0.9985 -0.0555
vn -0.0000 -0.0299 -0.9996
vn -0.0000 -0.0354 -0.9994
vn -0.0000 -0.9999 0.0111
vn -0.0000 -0.9991 0.0425
vn -0.0000 -0.9958 0.0921
vn -0.0000 -0.9909 0.1342
vn -0.0000 0.1391 0.9903
vn -0.0000 -0.0545 -0.9985
vt 0.000000 0.000000
s 0
f 9/1/1 3/1/1 5/1/1
f 14/1/2 11/1/2 19/1/2
f 6/1/3 19/1/3 9/1/3
f 9/1/4 18/1/4 8/1/4
f 8/1/5 20/1/5 10/1/5
f 1/1/6 12/1/6 2/1/6
f 2/1/7 13/1/7 3/1/7
f 3/1/8 14/1/8 4/1/8
f 4/1/9 15/1/9 5/1/9
f 5/1/10 17/1/10 7/1/10
f 7/1/11 16/1/11 6/1/11
f 10/1/12 11/1/12 1/1/12
f 7/1/1 6/1/1 9/1/1
f 9/1/1 8/1/1 10/1/1
f 1/1/1 2/1/1 3/1/1
f 9/1/1 10/1/1 1/1/1
f 5/1/1 7/1/1 9/1/1
f 3/1/1 4/1/1 5/1/1
f 9/1/1 1/1/1 3/1/1
f 19/1/2 16/1/2 17/1/2
f 17/1/2 15/1/2 14/1/2
f 14/1/2 13/1/2 12/1/2
f 11/1/2 20/1/2 18/1/2
f 14/1/2 12/1/2 11/1/2
f 19/1/2 17/1/2 14/1/2
f 11/1/2 18/1/2 19/1/2
f 6/1/3 16/1/3 19/1/3
f 9/1/4 19/1/4 18/1/4
f 8/1/5 18/1/5 20/1/5
f 1/1/6 11/1/6 12/1/6
f 2/1/7 12/1/7 13/1/7
f 3/1/8 13/1/8 14/1/8
f 4/1/9 14/1/9 15/1/9
f 5/1/10 15/1/10 17/1/10
f 7/1/11 17/1/11 16/1/11
f 10/1/12 20/1/12 11/1/12
