# Blender 5.2.0 LTS
# www.blender.org
mtllib Connecticut.mtl
o Plane.023
v 1.441337 3.631373 -13.258227
v 1.441337 3.593962 -13.036881
v 1.441337 3.469260 -12.877887
v 1.441337 3.313382 -12.659657
v 1.441337 3.335205 -12.578601
v 1.441337 3.787251 -12.591071
v 1.441337 4.064713 -12.510015
v 1.441337 4.077184 -12.625363
v 1.441337 4.139535 -12.868533
v 1.441337 4.258002 -13.410989
v 1.441337 4.127065 -13.504516
v 1.441337 3.924423 -13.504516
v 1.441337 3.821544 -13.541926
v 1.441337 3.765428 -13.563748
v 1.441337 3.712430 -13.389165
v 2.441337 3.631373 -13.258227
v 2.441337 3.593962 -13.036881
v 2.441337 3.469260 -12.877887
v 2.441337 3.313382 -12.659657
v 2.441337 3.335205 -12.578601
v 2.441337 3.787251 -12.591071
v 2.441337 4.064713 -12.510015
v 2.441337 4.077184 -12.625363
v 2.441337 4.139535 -12.868533
v 2.441337 4.258002 -13.410989
v 2.441337 4.127065 -13.504516
v 2.441337 3.924423 -13.504516
v 2.441337 3.821544 -13.541926
v 2.441337 3.765428 -13.563748
v 2.441337 3.712430 -13.389165
vn -1.0000 -0.0000 -0.0000
vn 1.0000 -0.0000 -0.0000
vn -0.0000 -0.9569 -0.2905
vn -0.0000 -0.8503 -0.5264
vn -0.0000 -0.9860 -0.1667
vn -0.0000 -0.7869 -0.6171
vn -0.0000 -0.8137 -0.5812
vn -0.0000 -0.9656 0.2600
vn -0.0000 0.0276 0.9996
vn -0.0000 -0.2804 0.9599
vn -0.0000 0.9942 0.1075
vn -0.0000 0.9687 0.2484
vn -0.0000 0.9770 0.2134
vn -0.0000 0.5812 -0.8137
vn -0.0000 -0.0000 -1.0000
vn -0.0000 0.3417 -0.9398
vn -0.0000 0.3624 -0.9320
vt 0.000000 0.000000
s 0
f 12/1/1 2/1/1 6/1/1
f 21/1/2 17/1/2 27/1/2
f 14/1/3 30/1/3 15/1/3
f 15/1/4 16/1/4 1/1/4
f 1/1/5 17/1/5 2/1/5
f 2/1/6 18/1/6 3/1/6
f 3/1/7 19/1/7 4/1/7
f 4/1/8 20/1/8 5/1/8
f 5/1/9 21/1/9 6/1/9
f 6/1/10 22/1/10 7/1/10
f 7/1/11 23/1/11 8/1/11
f 8/1/12 24/1/12 9/1/12
f 9/1/13 25/1/13 10/1/13
f 10/1/14 26/1/14 11/1/14
f 11/1/15 27/1/15 12/1/15
f 12/1/16 28/1/16 13/1/16
f 13/1/17 29/1/17 14/1/17
f 10/1/1 11/1/1 12/1/1
f 13/1/1 14/1/1 15/1/1
f 9/1/1 10/1/1 12/1/1
f 12/1/1 13/1/1 15/1/1
f 15/1/1 1/1/1 2/1/1
f 2/1/1 3/1/1 4/1/1
f 4/1/1 5/1/1 6/1/1
f 6/1/1 7/1/1 8/1/1
f 8/1/1 9/1/1 12/1/1
f 12/1/1 15/1/1 2/1/1
f 2/1/1 4/1/1 6/1/1
f 6/1/1 8/1/1 12/1/1
f 27/1/2 26/1/2 25/1/2
f 25/1/2 24/1/2 23/1/2
f 23/1/2 22/1/2 21/1/2
f 21/1/2 20/1/2 19/1/2
f 19/1/2 18/1/2 17/1/2
f 17/1/2 16/1/2 30/1/2
f 30/1/2 29/1/2 28/1/2
f 27/1/2 25/1/2 23/1/2
f 30/1/2 28/1/2 27/1/2
f 21/1/2 19/1/2 17/1/2
f 17/1/2 30/1/2 27/1/2
f 27/1/2 23/1/2 21/1/2
f 14/1/3 29/1/3 30/1/3
f 15/1/4 30/1/4 16/1/4
f 1/1/5 16/1/5 17/1/5
f 2/1/6 17/1/6 18/1/6
f 3/1/7 18/1/7 19/1/7
f 4/1/8 19/1/8 20/1/8
f 5/1/9 20/1/9 21/1/9
f 6/1/10 21/1/10 22/1/10
f 7/1/11 22/1/11 23/1/11
f 8/1/12 23/1/12 24/1/12
f 9/1/13 24/1/13 25/1/13
f 10/1/14 25/1/14 26/1/14
f 11/1/15 26/1/15 27/1/15
f 12/1/16 27/1/16 28/1/16
f 13/1/17 28/1/17 29/1/17
