# Blender 5.2.0 LTS
# www.blender.org
mtllib Delaware.mtl
o Plane.012
v 2.441337 2.086674 -11.678487
v 2.441337 2.121875 -11.703832
v 2.441337 2.173972 -11.765784
v 2.441337 2.186644 -11.819289
v 2.441337 2.162708 -11.846042
v 2.441337 2.112019 -11.847449
v 2.441337 2.076818 -11.831962
v 2.441337 2.003601 -11.796762
v 2.441337 1.923343 -11.812249
v 2.441337 1.868430 -11.853082
v 2.441337 1.836046 -11.879834
v 2.441337 1.793804 -11.926299
v 2.441337 1.755787 -11.976989
v 2.441337 1.609353 -11.999516
v 2.441337 1.530503 -12.058654
v 2.441337 1.510791 -12.136096
v 2.441337 1.460102 -12.223393
v 2.441337 1.402372 -12.267043
v 2.441337 1.232001 -12.276898
v 2.441337 1.202712 -11.893209
v 2.441337 1.747492 -11.726260
v 2.441337 2.069674 -11.647180
v 1.441337 2.086674 -11.678487
v 1.441337 2.121875 -11.703832
v 1.441337 2.173972 -11.765784
v 1.441337 2.186644 -11.819289
v 1.441337 2.162708 -11.846042
v 1.441337 2.112019 -11.847449
v 1.441337 2.076818 -11.831962
v 1.441337 2.003601 -11.796762
v 1.441337 1.923343 -11.812249
v 1.441337 1.868430 -11.853082
v 1.441337 1.836046 -11.879834
v 1.441337 1.793804 -11.926299
v 1.441337 1.755787 -11.976989
v 1.441337 1.609353 -11.999516
v 1.441337 1.530503 -12.058654
v 1.441337 1.510791 -12.136096
v 1.441337 1.460102 -12.223393
v 1.441337 1.402372 -12.267043
v 1.441337 1.232001 -12.276898
v 1.441337 1.202712 -11.893209
v 1.441337 1.747492 -11.726260
v 1.441337 2.069674 -11.647180
vn 1.0000 -0.0000 -0.0000
vn -1.0000 -0.0000 -0.0000
vn -0.0000 0.8788 0.4772
vn -0.0000 0.5843 0.8115
vn -0.0000 0.7654 0.6436
vn -0.0000 0.9731 0.2305
vn -0.0000 0.7452 -0.6668
vn -0.0000 0.0278 -0.9996
vn -0.0000 -0.4027 -0.9153
vn -0.0000 -0.4333 -0.9013
vn -0.0000 0.1895 -0.9819
vn -0.0000 0.5967 -0.8025
vn -0.0000 0.6369 -0.7710
vn -0.0000 0.7399 -0.6727
vn -0.0000 0.8000 -0.6000
vn -0.0000 0.1521 -0.9884
vn -0.0000 0.6000 -0.8000
vn -0.0000 0.9691 -0.2467
vn -0.0000 0.8648 -0.5021
vn -0.0000 0.6031 -0.7977
vn -0.0000 0.0577 -0.9983
vn -0.0000 -0.9971 -0.0761
vn -0.0000 -0.2930 0.9561
vn -0.0000 -0.2384 0.9712
vn 1.0000 0.0001 -0.0000
vt 0.000000 0.000000
s 0
f 21/1/1 9/1/1 8/1/1
f 33/1/2 34/1/2 42/1/2
f 1/1/3 44/1/3 22/1/3
f 2/1/4 23/1/4 1/1/4
f 3/1/5 24/1/5 2/1/5
f 4/1/6 25/1/6 3/1/6
f 5/1/7 26/1/7 4/1/7
f 6/1/8 27/1/8 5/1/8
f 7/1/9 28/1/9 6/1/9
f 8/1/10 29/1/10 7/1/10
f 9/1/11 30/1/11 8/1/11
f 10/1/12 31/1/12 9/1/12
f 11/1/13 32/1/13 10/1/13
f 12/1/14 33/1/14 11/1/14
f 13/1/15 34/1/15 12/1/15
f 14/1/16 35/1/16 13/1/16
f 15/1/17 36/1/17 14/1/17
f 16/1/18 37/1/18 15/1/18
f 17/1/19 38/1/19 16/1/19
f 18/1/20 39/1/20 17/1/20
f 19/1/21 40/1/21 18/1/21
f 20/1/22 41/1/22 19/1/22
f 21/1/23 42/1/23 20/1/23
f 22/1/24 43/1/24 21/1/24
f 1/1/1 22/1/1 21/1/1
f 21/1/1 20/1/1 19/1/1
f 19/1/1 18/1/1 17/1/1
f 17/1/1 16/1/1 15/1/1
f 14/1/1 13/1/1 12/1/1
f 19/1/1 17/1/1 15/1/1
f 14/1/1 12/1/1 11/1/1
f 19/1/25 15/1/25 14/1/25
f 2/1/1 1/1/1 21/1/1
f 4/1/1 3/1/1 2/1/1
f 6/1/1 5/1/1 4/1/1
f 8/1/25 7/1/25 6/1/25
f 8/1/1 6/1/1 4/1/1
f 4/1/1 2/1/1 21/1/1
f 21/1/1 19/1/1 14/1/1
f 14/1/1 11/1/1 10/1/1
f 14/1/1 10/1/1 9/1/1
f 8/1/1 4/1/1 21/1/1
f 21/1/1 14/1/1 9/1/1
f 43/1/2 44/1/2 23/1/2
f 23/1/2 24/1/2 25/1/2
f 25/1/2 26/1/2 27/1/2
f 27/1/2 28/1/2 29/1/2
f 27/1/2 29/1/2 30/1/2
f 23/1/2 25/1/2 27/1/2
f 42/1/2 43/1/2 23/1/2
f 40/1/2 41/1/2 42/1/2
f 38/1/2 39/1/2 40/1/2
f 37/1/2 38/1/2 40/1/2
f 23/1/2 27/1/2 30/1/2
f 23/1/2 30/1/2 31/1/2
f 37/1/2 40/1/2 42/1/2
f 34/1/2 35/1/2 36/1/2
f 36/1/2 37/1/2 42/1/2
f 42/1/2 23/1/2 31/1/2
f 42/1/2 31/1/2 32/1/2
f 34/1/2 36/1/2 42/1/2
f 42/1/2 32/1/2 33/1/2
f 1/1/3 23/1/3 44/1/3
f 2/1/4 24/1/4 23/1/4
f 3/1/5 25/1/5 24/1/5
f 4/1/6 26/1/6 25/1/6
f 5/1/7 27/1/7 26/1/7
f 6/1/8 28/1/8 27/1/8
f 7/1/9 29/1/9 28/1/9
f 8/1/10 30/1/10 29/1/10
f 9/1/11 31/1/11 30/1/11
f 10/1/12 32/1/12 31/1/12
f 11/1/13 33/1/13 32/1/13
f 12/1/14 34/1/14 33/1/14
f 13/1/15 35/1/15 34/1/15
f 14/1/16 36/1/16 35/1/16
f 15/1/17 37/1/17 36/1/17
f 16/1/18 38/1/18 37/1/18
f 17/1/19 39/1/19 38/1/19
f 18/1/20 40/1/20 39/1/20
f 19/1/21 41/1/21 40/1/21
f 20/1/22 42/1/22 41/1/22
f 21/1/23 43/1/23 42/1/23
f 22/1/24 44/1/24 43/1/24
