# Blender 5.2.0 LTS
# www.blender.org
mtllib Hawaii.mtl
o Plane.053
v 2.441336 -8.919804 5.288556
v 2.441336 -8.889638 5.182975
v 2.441336 -8.968823 5.352659
v 2.441336 -8.965053 5.416762
v 2.441336 -8.787827 5.627924
v 2.441336 -8.614373 5.627924
v 2.441336 -8.655851 5.533655
v 2.441336 -8.689788 5.439386
v 2.441336 -8.701100 5.281015
v 2.441336 -8.780286 5.216912
v 1.441336 -8.829306 5.782525
v 1.441336 -8.859471 5.854169
v 1.441336 -8.814222 5.940896
v 1.441336 -8.731266 5.744817
v 1.441336 -8.667163 5.756129
v 1.441336 -8.640768 5.805149
v 1.441336 -8.569124 5.752358
v 1.441336 -8.523875 5.692027
v 1.441336 -8.478626 5.733505
v 1.441336 -8.489939 5.805149
v 1.441336 -8.501251 5.888105
v 1.441336 -8.505022 5.959750
v 1.441336 -8.444690 6.027623
v 1.441336 -8.467314 6.091726
v 1.441336 -8.516334 6.110579
v 1.441336 -8.569124 6.095497
v 1.441336 -8.587978 6.057789
v 1.441336 -8.595520 5.880564
v 1.441336 -8.644540 5.857940
v 1.441336 -8.708643 5.922042
v 1.441336 -8.757663 5.929207
v 2.441336 -8.463543 6.385844
v 2.441336 -8.388128 6.672421
v 2.441336 -8.354192 6.378303
v 2.441336 -8.097781 6.566840
v 2.441336 -8.176967 6.778001
v 2.441336 -8.301401 6.781772
v 2.441336 -8.350421 6.762918
v 2.441336 -7.999742 7.671668
v 2.441336 -7.897932 7.818727
v 2.441336 -7.992200 7.592483
v 2.441336 -7.935639 7.509526
v 2.441336 -7.811205 7.509526
v 2.441336 -7.705624 7.524609
v 2.441336 -7.686770 7.671668
v 2.441336 -7.728249 7.799873
v 2.441336 -7.803663 7.814956
v 2.441336 -7.992201 8.207113
v 2.441336 -8.082698 8.150553
v 2.441336 -8.048761 8.203342
v 2.441336 -7.867766 8.075138
v 2.441336 -7.901703 8.007264
v 2.441336 -7.977118 8.044971
v 2.441336 -8.067616 8.120386
v 2.441336 -9.195068 5.013291
v 2.441336 -9.274254 4.949188
v 2.441336 -9.198839 5.133955
v 2.441336 -9.244088 5.141497
v 2.441336 -9.289337 5.096248
v 2.441336 -9.417542 5.084935
v 2.441336 -9.526894 5.198057
v 2.441336 -9.530664 5.243306
v 2.441336 -9.587226 5.243306
v 2.441336 -9.681495 5.179203
v 2.441336 -9.873803 5.084934
v 2.441336 -9.986925 5.137725
v 2.441336 -10.122672 5.039685
v 2.441336 -10.171692 4.930334
v 2.441336 -9.945447 4.787045
v 2.441336 -9.937905 4.617362
v 2.441336 -9.794617 4.342097
v 2.441336 -9.738055 4.327014
v 2.441336 -9.707890 4.334556
v 2.441336 -9.711660 4.425054
v 2.441336 -9.455250 4.590966
v 2.441336 -9.387377 4.681464
v 2.441336 -9.296879 4.885084
v 1.441336 -8.919804 5.288556
v 1.441336 -8.889638 5.182975
v 1.441336 -8.968823 5.352659
v 1.441336 -8.965053 5.416762
v 1.441336 -8.787827 5.627924
v 1.441336 -8.614373 5.627924
v 1.441336 -8.655851 5.533655
v 1.441336 -8.689788 5.439386
v 1.441336 -8.701100 5.281015
v 1.441336 -8.780286 5.216912
v 2.441336 -8.829306 5.782525
v 2.441336 -8.859471 5.854169
v 2.441336 -8.814222 5.940896
v 2.441336 -8.731266 5.744817
v 2.441336 -8.667163 5.756129
v 2.441336 -8.640768 5.805149
v 2.441336 -8.569124 5.752358
v 2.441336 -8.523875 5.692027
v 2.441336 -8.478626 5.733505
v 2.441336 -8.489939 5.805149
v 2.441336 -8.501251 5.888105
v 2.441336 -8.505022 5.959750
v 2.441336 -8.444690 6.027623
v 2.441336 -8.467314 6.091726
v 2.441336 -8.516334 6.110579
v 2.441336 -8.569124 6.095497
v 2.441336 -8.587978 6.057789
v 2.441336 -8.595520 5.880564
v 2.441336 -8.644540 5.857940
v 2.441336 -8.708643 5.922042
v 2.441336 -8.757663 5.929207
v 1.441336 -8.463543 6.385844
v 1.441336 -8.388128 6.672421
v 1.441336 -8.354192 6.378303
v 1.441336 -8.097781 6.566840
v 1.441336 -8.176967 6.778001
v 1.441336 -8.301401 6.781772
v 1.441336 -8.350421 6.762918
v 1.441336 -7.999742 7.671668
v 1.441336 -7.897932 7.818727
v 1.441336 -7.992200 7.592483
v 1.441336 -7.935639 7.509526
v 1.441336 -7.811205 7.509526
v 1.441336 -7.705624 7.524609
v 1.441336 -7.686770 7.671668
v 1.441336 -7.728249 7.799873
v 1.441336 -7.803663 7.814956
v 1.441336 -7.992201 8.207113
v 1.441336 -8.082698 8.150553
v 1.441336 -8.048761 8.203342
v 1.441336 -7.867766 8.075138
v 1.441336 -7.901703 8.007264
v 1.441336 -7.977118 8.044971
v 1.441336 -8.067616 8.120386
v 1.441336 -9.195068 5.013291
v 1.441336 -9.274254 4.949188
v 1.441336 -9.198839 5.133955
v 1.441336 -9.244088 5.141497
v 1.441336 -9.289337 5.096248
v 1.441336 -9.417542 5.084935
v 1.441336 -9.526894 5.198057
v 1.441336 -9.530664 5.243306
v 1.441336 -9.587226 5.243306
v 1.441336 -9.681495 5.179203
v 1.441336 -9.873803 5.084934
v 1.441336 -9.986925 5.137725
v 1.441336 -10.122672 5.039685
v 1.441336 -10.171692 4.930334
v 1.441336 -9.945447 4.787045
v 1.441336 -9.937905 4.617362
v 1.441336 -9.794617 4.342097
v 1.441336 -9.738055 4.327014
v 1.441336 -9.707890 4.334556
v 1.441336 -9.711660 4.425054
v 1.441336 -9.455250 4.590966
v 1.441336 -9.387377 4.681464
v 1.441336 -9.296879 4.885084
vn 1.0000 -0.0000 -0.0000
vn -1.0000 -0.0000 -0.0000
vn -0.0000 -0.7944 -0.6075
vn -0.0000 -0.9615 -0.2747
vn -0.0000 -0.9983 0.0587
vn -0.0000 -0.7660 0.6429
vn -0.0000 -0.0000 1.0000
vn -0.0000 0.9153 -0.4027
vn -0.0000 0.9409 -0.3387
vn -0.0000 0.9975 -0.0712
vn -0.0000 0.6292 -0.7772
vn -0.0000 0.2964 -0.9551
vn -0.0000 -0.3590 -0.9333
vn -0.0000 -0.9216 -0.3881
vn -0.0000 -0.8866 0.4626
vn -0.0000 0.1738 -0.9848
vn -0.0000 0.8805 -0.4741
vn -0.0000 -0.5932 -0.8051
vn -0.0000 -0.8000 -0.6000
vn -0.0000 0.6757 -0.7372
vn -0.0000 0.9878 0.1560
vn -0.0000 0.9908 0.1351
vn -0.0000 0.9986 0.0526
vn -0.0000 0.7474 -0.6644
vn -0.0000 0.9430 0.3328
vn -0.0000 0.3590 0.9333
vn -0.0000 -0.2747 0.9615
vn -0.0000 -0.8944 0.4472
vn -0.0000 -0.9991 0.0425
vn -0.0000 -0.4191 0.9080
vn -0.0000 0.7071 0.7071
vn -0.0000 0.1446 0.9895
vn -0.0000 0.2024 0.9793
vn -0.0000 -0.0688 -0.9976
vn -0.0000 -0.9671 0.2545
vn -0.0000 0.5924 -0.8057
vn -0.0000 0.9363 0.3511
vn -0.0000 0.0303 0.9995
vn -0.0000 -0.3590 0.9333
vn -0.0000 -0.9231 0.3846
vn -0.0000 -0.9955 -0.0948
vn -0.0000 -0.8222 0.5692
vn -0.0000 -0.8262 -0.5633
vn -0.0000 -0.0000 -1.0000
vn -0.0000 0.1414 -0.9899
vn -0.0000 0.9919 -0.1272
vn -0.0000 0.9514 0.3078
vn -0.0000 0.1961 0.9806
vn -0.0000 0.0400 0.9992
vn -0.0000 0.7276 0.6860
vn -0.0000 -0.0665 0.9978
vn -0.0000 -0.8412 0.5408
vn -0.0000 0.8944 -0.4472
vn -0.0000 -0.4472 -0.8944
vn -0.0000 -0.6402 -0.7682
vn -0.0000 -0.8944 -0.4472
vn -0.0000 0.9995 0.0312
vn -0.0000 0.1644 0.9864
vn -0.0000 -0.7071 0.7071
vn -0.0000 -0.0879 0.9961
vn -0.0000 0.7190 0.6950
vn -0.0000 0.9965 0.0830
vn -0.0000 -0.5623 0.8269
vn -0.0000 -0.4402 0.8979
vn -0.0000 0.4229 0.9062
vn -0.0000 -0.5855 0.8107
vn -0.0000 -0.9125 0.4091
vn -0.0000 -0.5351 -0.8448
vn -0.0000 -0.9990 -0.0444
vn -0.0000 -0.8870 -0.4617
vn -0.0000 -0.2577 -0.9662
vn -0.0000 0.2426 -0.9701
vn -0.0000 0.9991 0.0416
vn -0.0000 0.5433 -0.8396
vn -0.0000 0.8000 -0.6000
vn -0.0000 0.9138 -0.4061
vn -0.0000 0.9430 -0.3328
vn -0.0000 -0.7944 -0.6074
vn -0.0000 -0.9216 -0.3880
vn -0.0000 0.6757 -0.7371
vn -0.0000 0.2425 -0.9701
vt 0.000000 0.000000
s 0
f 10/1/1 5/1/1 3/1/1
f 28/1/2 25/1/2 22/1/2
f 34/1/1 36/1/1 38/1/1
f 41/1/1 45/1/1 47/1/1
f 50/1/1 54/1/1 52/1/1
f 60/1/1 64/1/1 69/1/1
f 78/1/2 85/1/2 87/1/2
f 94/1/1 99/1/1 101/1/1
f 110/1/2 114/1/2 112/1/2
f 117/1/2 121/1/2 119/1/2
f 128/1/2 130/1/2 126/1/2
f 141/1/2 138/1/2 137/1/2
f 3/1/3 78/1/3 1/1/3
f 1/1/4 79/1/4 2/1/4
f 4/1/5 80/1/5 3/1/5
f 5/1/6 81/1/6 4/1/6
f 6/1/7 82/1/7 5/1/7
f 7/1/8 83/1/8 6/1/8
f 8/1/9 84/1/9 7/1/9
f 9/1/10 85/1/10 8/1/10
f 10/1/11 86/1/11 9/1/11
f 2/1/12 87/1/12 10/1/12
f 14/1/13 88/1/13 11/1/13
f 11/1/14 89/1/14 12/1/14
f 12/1/15 90/1/15 13/1/15
f 15/1/16 91/1/16 14/1/16
f 16/1/17 92/1/17 15/1/17
f 17/1/18 93/1/18 16/1/18
f 18/1/19 94/1/19 17/1/19
f 19/1/20 95/1/20 18/1/20
f 20/1/21 96/1/21 19/1/21
f 21/1/22 97/1/22 20/1/22
f 22/1/23 98/1/23 21/1/23
f 23/1/24 99/1/24 22/1/24
f 24/1/25 100/1/25 23/1/25
f 25/1/26 101/1/26 24/1/26
f 26/1/27 102/1/27 25/1/27
f 27/1/28 103/1/28 26/1/28
f 28/1/29 104/1/29 27/1/29
f 29/1/30 105/1/30 28/1/30
f 30/1/31 106/1/31 29/1/31
f 31/1/32 107/1/32 30/1/32
f 13/1/33 108/1/33 31/1/33
f 32/1/34 111/1/34 34/1/34
f 33/1/35 109/1/35 32/1/35
f 34/1/36 112/1/36 35/1/36
f 35/1/37 113/1/37 36/1/37
f 36/1/38 114/1/38 37/1/38
f 37/1/39 115/1/39 38/1/39
f 38/1/40 110/1/40 33/1/40
f 39/1/41 118/1/41 41/1/41
f 40/1/42 116/1/42 39/1/42
f 41/1/43 119/1/43 42/1/43
f 42/1/44 120/1/44 43/1/44
f 43/1/45 121/1/45 44/1/45
f 44/1/46 122/1/46 45/1/46
f 45/1/47 123/1/47 46/1/47
f 46/1/48 124/1/48 47/1/48
f 47/1/49 117/1/49 40/1/49
f 51/1/50 125/1/50 48/1/50
f 48/1/51 127/1/51 50/1/51
f 50/1/52 126/1/52 49/1/52
f 52/1/53 128/1/53 51/1/53
f 53/1/54 129/1/54 52/1/54
f 54/1/55 130/1/55 53/1/55
f 49/1/56 131/1/56 54/1/56
f 56/1/11 132/1/11 55/1/11
f 55/1/57 134/1/57 57/1/57
f 57/1/58 135/1/58 58/1/58
f 58/1/59 136/1/59 59/1/59
f 59/1/60 137/1/60 60/1/60
f 60/1/61 138/1/61 61/1/61
f 61/1/62 139/1/62 62/1/62
f 62/1/7 140/1/7 63/1/7
f 63/1/63 141/1/63 64/1/63
f 64/1/64 142/1/64 65/1/64
f 65/1/65 143/1/65 66/1/65
f 66/1/66 144/1/66 67/1/66
f 67/1/67 145/1/67 68/1/67
f 68/1/68 146/1/68 69/1/68
f 69/1/69 147/1/69 70/1/69
f 70/1/70 148/1/70 71/1/70
f 71/1/71 149/1/71 72/1/71
f 72/1/72 150/1/72 73/1/72
f 73/1/73 151/1/73 74/1/73
f 74/1/74 152/1/74 75/1/74
f 75/1/75 153/1/75 76/1/75
f 76/1/76 154/1/76 77/1/76
f 77/1/77 133/1/77 56/1/77
f 1/1/1 2/1/1 10/1/1
f 10/1/1 9/1/1 8/1/1
f 7/1/1 6/1/1 5/1/1
f 10/1/1 8/1/1 7/1/1
f 3/1/1 1/1/1 10/1/1
f 5/1/1 4/1/1 3/1/1
f 10/1/1 7/1/1 5/1/1
f 15/1/2 14/1/2 11/1/2
f 11/1/2 12/1/2 13/1/2
f 31/1/2 30/1/2 29/1/2
f 11/1/2 13/1/2 31/1/2
f 16/1/2 15/1/2 11/1/2
f 19/1/2 18/1/2 17/1/2
f 16/1/2 11/1/2 31/1/2
f 19/1/2 17/1/2 16/1/2
f 20/1/2 19/1/2 16/1/2
f 16/1/2 31/1/2 29/1/2
f 28/1/2 27/1/2 26/1/2
f 16/1/2 29/1/2 28/1/2
f 21/1/2 20/1/2 16/1/2
f 24/1/2 23/1/2 22/1/2
f 22/1/2 21/1/2 16/1/2
f 28/1/2 26/1/2 25/1/2
f 22/1/2 16/1/2 28/1/2
f 25/1/2 24/1/2 22/1/2
f 33/1/1 32/1/1 34/1/1
f 34/1/1 35/1/1 36/1/1
f 36/1/1 37/1/1 38/1/1
f 38/1/1 33/1/1 34/1/1
f 40/1/1 39/1/1 41/1/1
f 41/1/1 42/1/1 43/1/1
f 43/1/1 44/1/1 45/1/1
f 45/1/1 46/1/1 47/1/1
f 47/1/1 40/1/1 41/1/1
f 41/1/1 43/1/1 45/1/1
f 51/1/1 48/1/1 50/1/1
f 50/1/1 49/1/1 54/1/1
f 54/1/1 53/1/1 52/1/1
f 52/1/1 51/1/1 50/1/1
f 56/1/1 55/1/1 57/1/1
f 57/1/1 58/1/1 59/1/1
f 56/1/1 57/1/1 59/1/1
f 76/1/1 77/1/1 56/1/1
f 74/1/1 75/1/1 76/1/1
f 72/1/1 73/1/1 74/1/1
f 70/1/1 71/1/1 72/1/1
f 67/1/1 68/1/1 69/1/1
f 69/1/1 70/1/1 72/1/1
f 74/1/1 76/1/1 56/1/1
f 69/1/1 72/1/1 74/1/1
f 66/1/1 67/1/1 69/1/1
f 65/1/1 66/1/1 69/1/1
f 69/1/1 74/1/1 56/1/1
f 56/1/1 59/1/1 60/1/1
f 61/1/1 62/1/1 63/1/1
f 69/1/1 56/1/1 60/1/1
f 60/1/1 61/1/1 63/1/1
f 64/1/1 65/1/1 69/1/1
f 60/1/1 63/1/1 64/1/1
f 78/1/2 80/1/2 81/1/2
f 81/1/2 82/1/2 83/1/2
f 81/1/2 83/1/2 84/1/2
f 87/1/2 79/1/2 78/1/2
f 78/1/2 81/1/2 84/1/2
f 85/1/2 86/1/2 87/1/2
f 78/1/2 84/1/2 85/1/2
f 88/1/1 91/1/1 92/1/1
f 88/1/1 92/1/1 93/1/1
f 90/1/1 89/1/1 88/1/1
f 106/1/1 107/1/1 108/1/1
f 108/1/1 90/1/1 88/1/1
f 108/1/1 88/1/1 93/1/1
f 106/1/1 108/1/1 93/1/1
f 94/1/1 95/1/1 96/1/1
f 106/1/1 93/1/1 94/1/1
f 103/1/1 104/1/1 105/1/1
f 105/1/1 106/1/1 94/1/1
f 94/1/1 96/1/1 97/1/1
f 94/1/1 97/1/1 98/1/1
f 103/1/1 105/1/1 94/1/1
f 101/1/1 102/1/1 103/1/1
f 99/1/1 100/1/1 101/1/1
f 94/1/1 98/1/1 99/1/1
f 101/1/1 103/1/1 94/1/1
f 111/1/2 109/1/2 110/1/2
f 110/1/2 115/1/2 114/1/2
f 114/1/2 113/1/2 112/1/2
f 112/1/2 111/1/2 110/1/2
f 118/1/2 116/1/2 117/1/2
f 117/1/2 124/1/2 123/1/2
f 123/1/2 122/1/2 121/1/2
f 121/1/2 120/1/2 119/1/2
f 119/1/2 118/1/2 117/1/2
f 117/1/2 123/1/2 121/1/2
f 127/1/2 125/1/2 128/1/2
f 128/1/2 129/1/2 130/1/2
f 130/1/2 131/1/2 126/1/2
f 126/1/2 127/1/2 128/1/2
f 134/1/2 132/1/2 133/1/2
f 133/1/2 154/1/2 153/1/2
f 153/1/2 152/1/2 151/1/2
f 151/1/2 150/1/2 149/1/2
f 149/1/2 148/1/2 147/1/2
f 146/1/2 145/1/2 144/1/2
f 149/1/2 147/1/2 146/1/2
f 133/1/2 153/1/2 151/1/2
f 151/1/2 149/1/2 146/1/2
f 146/1/2 144/1/2 143/1/2
f 146/1/2 143/1/2 142/1/2
f 133/1/2 151/1/2 146/1/2
f 135/1/2 134/1/2 133/1/2
f 136/1/2 135/1/2 133/1/2
f 133/1/2 146/1/2 142/1/2
f 141/1/2 140/1/2 139/1/2
f 133/1/2 142/1/2 141/1/2
f 137/1/2 136/1/2 133/1/2
f 141/1/2 139/1/2 138/1/2
f 137/1/2 133/1/2 141/1/2
f 3/1/78 80/1/78 78/1/78
f 1/1/4 78/1/4 79/1/4
f 4/1/5 81/1/5 80/1/5
f 5/1/6 82/1/6 81/1/6
f 6/1/7 83/1/7 82/1/7
f 7/1/8 84/1/8 83/1/8
f 8/1/9 85/1/9 84/1/9
f 9/1/10 86/1/10 85/1/10
f 10/1/11 87/1/11 86/1/11
f 2/1/12 79/1/12 87/1/12
f 14/1/13 91/1/13 88/1/13
f 11/1/79 88/1/79 89/1/79
f 12/1/15 89/1/15 90/1/15
f 15/1/16 92/1/16 91/1/16
f 16/1/17 93/1/17 92/1/17
f 17/1/18 94/1/18 93/1/18
f 18/1/19 95/1/19 94/1/19
f 19/1/80 96/1/80 95/1/80
f 20/1/21 97/1/21 96/1/21
f 21/1/22 98/1/22 97/1/22
f 22/1/23 99/1/23 98/1/23
f 23/1/24 100/1/24 99/1/24
f 24/1/25 101/1/25 100/1/25
f 25/1/26 102/1/26 101/1/26
f 26/1/27 103/1/27 102/1/27
f 27/1/28 104/1/28 103/1/28
f 28/1/29 105/1/29 104/1/29
f 29/1/30 106/1/30 105/1/30
f 30/1/31 107/1/31 106/1/31
f 31/1/32 108/1/32 107/1/32
f 13/1/33 90/1/33 108/1/33
f 32/1/34 109/1/34 111/1/34
f 33/1/35 110/1/35 109/1/35
f 34/1/36 111/1/36 112/1/36
f 35/1/37 112/1/37 113/1/37
f 36/1/38 113/1/38 114/1/38
f 37/1/39 114/1/39 115/1/39
f 38/1/40 115/1/40 110/1/40
f 39/1/41 116/1/41 118/1/41
f 40/1/42 117/1/42 116/1/42
f 41/1/43 118/1/43 119/1/43
f 42/1/44 119/1/44 120/1/44
f 43/1/45 120/1/45 121/1/45
f 44/1/46 121/1/46 122/1/46
f 45/1/47 122/1/47 123/1/47
f 46/1/48 123/1/48 124/1/48
f 47/1/49 124/1/49 117/1/49
f 51/1/50 128/1/50 125/1/50
f 48/1/51 125/1/51 127/1/51
f 50/1/52 127/1/52 126/1/52
f 52/1/53 129/1/53 128/1/53
f 53/1/54 130/1/54 129/1/54
f 54/1/55 131/1/55 130/1/55
f 49/1/56 126/1/56 131/1/56
f 56/1/11 133/1/11 132/1/11
f 55/1/57 132/1/57 134/1/57
f 57/1/58 134/1/58 135/1/58
f 58/1/59 135/1/59 136/1/59
f 59/1/60 136/1/60 137/1/60
f 60/1/61 137/1/61 138/1/61
f 61/1/62 138/1/62 139/1/62
f 62/1/7 139/1/7 140/1/7
f 63/1/63 140/1/63 141/1/63
f 64/1/64 141/1/64 142/1/64
f 65/1/65 142/1/65 143/1/65
f 66/1/66 143/1/66 144/1/66
f 67/1/67 144/1/67 145/1/67
f 68/1/68 145/1/68 146/1/68
f 69/1/69 146/1/69 147/1/69
f 70/1/70 147/1/70 148/1/70
f 71/1/71 148/1/71 149/1/71
f 72/1/81 149/1/81 150/1/81
f 73/1/73 150/1/73 151/1/73
f 74/1/74 151/1/74 152/1/74
f 75/1/75 152/1/75 153/1/75
f 76/1/76 153/1/76 154/1/76
f 77/1/77 154/1/77 133/1/77
