# Blender 5.2.0 LTS
# www.blender.org
mtllib Idaho.mtl
o Plane.045
v 1.441337 5.995281 10.729816
v 1.441337 5.877417 10.729816
v 1.441337 5.867595 10.837858
v 1.441337 5.734997 10.985189
v 1.441337 5.622044 10.990101
v 1.441337 5.461844 10.905785
v 1.441337 5.326940 10.888922
v 1.441337 5.192036 10.964806
v 1.441337 3.859854 11.318930
v 1.441337 3.505730 9.691645
v 1.441337 6.358697 10.464621
v 1.441337 6.555138 10.444977
v 1.441337 6.707379 10.577575
v 1.441337 7.159193 10.567753
v 1.441337 8.941895 10.160138
v 1.441337 8.833852 9.698502
v 1.441337 8.426237 9.688680
v 1.441337 8.224885 9.816366
v 1.441337 8.107020 9.821278
v 1.441337 7.998978 9.767256
v 1.441337 7.674850 9.772167
v 1.441337 7.512787 9.595369
v 1.441337 7.139549 9.457861
v 1.441337 7.036418 9.315441
v 1.441337 7.006951 9.187756
v 1.441337 6.776134 9.202488
v 1.441337 6.510939 9.325264
v 1.441337 6.348875 9.394018
v 1.441337 6.324320 9.448039
v 1.441337 6.098413 9.335085
v 1.441337 6.191722 9.177933
v 1.441337 6.201544 9.138645
v 1.441337 6.137701 9.045336
v 1.441337 6.054214 9.045336
v 1.441337 5.990370 9.079712
v 1.441337 5.936349 9.089535
v 1.441337 5.725175 8.976581
v 1.441337 5.622044 8.991314
v 1.441337 5.455069 8.799784
v 1.441337 5.243895 8.804695
v 1.441337 5.175140 8.780140
v 1.441337 5.170230 8.735941
v 1.441337 5.258628 8.593521
v 1.441337 5.214429 8.411813
v 1.441337 5.204607 8.072952
v 1.441337 5.273361 7.969821
v 1.441337 5.263539 7.891244
v 1.441337 5.052365 7.768469
v 1.441337 3.245110 8.053308
v 1.441337 3.372797 8.932381
v 2.441337 5.995281 10.729816
v 2.441337 5.877417 10.729816
v 2.441337 5.867595 10.837858
v 2.441337 5.734997 10.985189
v 2.441337 5.622044 10.990101
v 2.441337 5.461844 10.905785
v 2.441337 5.326940 10.888922
v 2.441337 5.192036 10.964806
v 2.441337 3.859854 11.318930
v 2.441337 3.505730 9.691645
v 2.441337 6.358697 10.464621
v 2.441337 6.555138 10.444977
v 2.441337 6.707379 10.577575
v 2.441337 7.159193 10.567753
v 2.441337 8.941895 10.160138
v 2.441337 8.833852 9.698502
v 2.441337 8.426237 9.688680
v 2.441337 8.224885 9.816366
v 2.441337 8.107020 9.821278
v 2.441337 7.998978 9.767256
v 2.441337 7.674850 9.772167
v 2.441337 7.512787 9.595369
v 2.441337 7.139549 9.457861
v 2.441337 7.036418 9.315441
v 2.441337 7.006951 9.187756
v 2.441337 6.776134 9.202488
v 2.441337 6.510939 9.325264
v 2.441337 6.348875 9.394018
v 2.441337 6.324320 9.448039
v 2.441337 6.098413 9.335085
v 2.441337 6.191722 9.177933
v 2.441337 6.201544 9.138645
v 2.441337 6.137701 9.045336
v 2.441337 6.054214 9.045336
v 2.441337 5.990370 9.079712
v 2.441337 5.936349 9.089535
v 2.441337 5.725175 8.976581
v 2.441337 5.622044 8.991314
v 2.441337 5.455069 8.799784
v 2.441337 5.243895 8.804695
v 2.441337 5.175140 8.780140
v 2.441337 5.170230 8.735941
v 2.441337 5.258628 8.593521
v 2.441337 5.214429 8.411813
v 2.441337 5.204607 8.072952
v 2.441337 5.273361 7.969821
v 2.441337 5.263539 7.891244
v 2.441337 5.052365 7.768469
v 2.441337 3.245110 8.053308
v 2.441337 3.372797 8.932381
vn -1.0000 -0.0000 -0.0000
vn 1.0000 -0.0000 -0.0000
vn -0.0000 0.0995 0.9950
vn -0.0000 0.5895 0.8078
vn -0.0000 -0.0000 1.0000
vn -0.0000 0.9959 0.0905
vn -0.0000 0.7433 0.6690
vn -0.0000 0.0434 0.9991
vn -0.0000 -0.4657 0.8849
vn -0.0000 -0.1240 0.9923
vn -0.0000 0.4903 0.8716
vn -0.0000 0.2569 0.9664
vn -0.0000 -0.9771 0.2126
vn -0.0000 -0.6568 0.7541
vn -0.0000 0.0217 0.9998
vn -0.0000 0.2229 0.9748
vn -0.0000 0.9737 -0.2279
vn -0.0000 0.0241 -0.9997
vn -0.0000 -0.5355 -0.8445
vn -0.0000 -0.0416 -0.9991
vn -0.0000 0.4472 -0.8944
vn -0.0000 -0.0151 -0.9999
vn -0.0000 0.7372 -0.6757
vn -0.0000 0.3457 -0.9383
vn -0.0000 0.8099 -0.5865
vn -0.0000 0.9744 -0.2249
vn -0.0000 -0.0637 -0.9980
vn -0.0000 -0.4201 -0.9075
vn -0.0000 -0.3905 -0.9206
vn -0.0000 -0.9104 -0.4138
vn -0.0000 0.8599 0.5105
vn -0.0000 0.9701 0.2425
vn -0.0000 0.8253 -0.5647
vn -0.0000 -0.0000 -1.0000
vn -0.0000 -0.4741 -0.8805
vn -0.0000 -0.1789 -0.9839
vn -0.0000 0.4717 -0.8818
vn -0.0000 -0.1414 -0.9899
vn -0.0000 0.7538 -0.6571
vn -0.0000 -0.0232 -0.9997
vn -0.0000 0.3363 -0.9417
vn -0.0000 0.9939 -0.1104
vn -0.0000 0.8496 0.5274
vn -0.0000 0.9717 -0.2364
vn -0.0000 0.9996 -0.0290
vn -0.0000 0.8321 0.5547
vn -0.0000 0.9923 -0.1240
vn -0.0000 0.5026 -0.8645
vn -0.0000 -0.1557 -0.9878
vn -0.0000 -0.9896 0.1437
vn -0.0000 -0.9850 0.1725
vn 1.0000 -0.0001 -0.0000
vt 0.000000 0.000000
s 0
f 14/1/1 30/1/1 38/1/1
f 80/1/2 79/1/2 62/1/2
f 11/1/3 62/1/3 12/1/3
f 1/1/4 61/1/4 11/1/4
f 2/1/5 51/1/5 1/1/5
f 3/1/6 52/1/6 2/1/6
f 4/1/7 53/1/7 3/1/7
f 5/1/8 54/1/8 4/1/8
f 6/1/9 55/1/9 5/1/9
f 7/1/10 56/1/10 6/1/10
f 8/1/11 57/1/11 7/1/11
f 9/1/12 58/1/12 8/1/12
f 10/1/13 59/1/13 9/1/13
f 12/1/14 63/1/14 13/1/14
f 13/1/15 64/1/15 14/1/15
f 14/1/16 65/1/16 15/1/16
f 15/1/17 66/1/17 16/1/17
f 16/1/18 67/1/18 17/1/18
f 17/1/19 68/1/19 18/1/19
f 18/1/20 69/1/20 19/1/20
f 19/1/21 70/1/21 20/1/21
f 20/1/22 71/1/22 21/1/22
f 21/1/23 72/1/23 22/1/23
f 22/1/24 73/1/24 23/1/24
f 23/1/25 74/1/25 24/1/25
f 24/1/26 75/1/26 25/1/26
f 25/1/27 76/1/27 26/1/27
f 26/1/28 77/1/28 27/1/28
f 27/1/29 78/1/29 28/1/29
f 28/1/30 79/1/30 29/1/30
f 29/1/21 80/1/21 30/1/21
f 30/1/31 81/1/31 31/1/31
f 31/1/32 82/1/32 32/1/32
f 32/1/33 83/1/33 33/1/33
f 33/1/34 84/1/34 34/1/34
f 34/1/35 85/1/35 35/1/35
f 35/1/36 86/1/36 36/1/36
f 36/1/37 87/1/37 37/1/37
f 37/1/38 88/1/38 38/1/38
f 38/1/39 89/1/39 39/1/39
f 39/1/40 90/1/40 40/1/40
f 40/1/41 91/1/41 41/1/41
f 41/1/42 92/1/42 42/1/42
f 42/1/43 93/1/43 43/1/43
f 43/1/44 94/1/44 44/1/44
f 44/1/45 95/1/45 45/1/45
f 45/1/46 96/1/46 46/1/46
f 46/1/47 97/1/47 47/1/47
f 47/1/48 98/1/48 48/1/48
f 48/1/49 99/1/49 49/1/49
f 49/1/50 100/1/50 50/1/50
f 50/1/51 60/1/51 10/1/51
f 50/1/1 10/1/1 9/1/1
f 9/1/1 8/1/1 7/1/1
f 6/1/1 5/1/1 4/1/1
f 50/1/1 9/1/1 7/1/1
f 6/1/1 4/1/1 3/1/1
f 50/1/1 7/1/1 6/1/1
f 48/1/1 49/1/1 50/1/1
f 46/1/1 47/1/1 48/1/1
f 45/1/1 46/1/1 48/1/1
f 50/1/1 6/1/1 3/1/1
f 2/1/1 1/1/1 11/1/1
f 50/1/1 3/1/1 2/1/1
f 45/1/1 48/1/1 50/1/1
f 42/1/1 43/1/1 44/1/1
f 44/1/1 45/1/1 50/1/1
f 50/1/1 2/1/1 11/1/1
f 12/1/1 13/1/1 14/1/1
f 50/1/1 11/1/1 12/1/1
f 42/1/1 44/1/1 50/1/1
f 41/1/1 42/1/1 50/1/1
f 50/1/1 12/1/1 14/1/1
f 14/1/1 15/1/1 16/1/1
f 16/1/1 17/1/1 18/1/1
f 19/1/1 20/1/1 21/1/1
f 14/1/1 16/1/1 18/1/1
f 14/1/1 18/1/1 19/1/1
f 41/1/1 50/1/1 14/1/1
f 38/1/1 39/1/1 40/1/1
f 40/1/1 41/1/1 14/1/1
f 14/1/1 19/1/1 21/1/1
f 21/1/1 22/1/1 23/1/1
f 24/1/1 25/1/1 26/1/1
f 14/1/1 21/1/1 23/1/1
f 23/1/1 24/1/1 26/1/1
f 27/1/1 28/1/1 29/1/1
f 23/1/1 26/1/1 27/1/1
f 38/1/1 40/1/1 14/1/1
f 36/1/1 37/1/1 38/1/1
f 33/1/1 34/1/1 35/1/1
f 32/1/1 33/1/1 35/1/1
f 30/1/1 31/1/1 32/1/1
f 23/1/1 27/1/1 29/1/1
f 30/1/1 32/1/1 35/1/1
f 14/1/1 23/1/1 29/1/1
f 30/1/1 35/1/1 36/1/1
f 14/1/1 29/1/1 30/1/1
f 30/1/1 36/1/1 38/1/1
f 59/1/2 60/1/2 100/1/2
f 100/1/2 99/1/2 98/1/2
f 98/1/2 97/1/2 96/1/2
f 98/1/2 96/1/2 95/1/2
f 59/1/2 100/1/2 98/1/2
f 57/1/2 58/1/2 59/1/2
f 54/1/2 55/1/2 56/1/2
f 57/1/2 59/1/2 98/1/2
f 53/1/2 54/1/2 56/1/2
f 98/1/2 95/1/2 94/1/2
f 94/1/2 93/1/2 92/1/2
f 98/1/2 94/1/2 92/1/2
f 53/1/2 56/1/2 57/1/2
f 61/1/2 51/1/2 52/1/2
f 52/1/2 53/1/2 57/1/2
f 57/1/2 98/1/2 92/1/2
f 57/1/52 92/1/52 91/1/52
f 61/1/2 52/1/2 57/1/2
f 64/1/2 63/1/2 62/1/2
f 61/1/2 57/1/2 91/1/2
f 65/1/2 64/1/2 62/1/2
f 62/1/2 61/1/2 91/1/2
f 90/1/2 89/1/2 88/1/2
f 62/1/2 91/1/2 90/1/2
f 66/1/2 65/1/2 62/1/2
f 68/1/2 67/1/2 66/1/2
f 71/1/2 70/1/2 69/1/2
f 68/1/2 66/1/2 62/1/2
f 69/1/2 68/1/2 62/1/2
f 62/1/2 90/1/2 88/1/2
f 88/1/2 87/1/2 86/1/2
f 85/1/2 84/1/2 83/1/2
f 62/1/2 88/1/2 86/1/2
f 85/1/2 83/1/2 82/1/2
f 62/1/2 86/1/2 85/1/2
f 71/1/2 69/1/2 62/1/2
f 73/1/2 72/1/2 71/1/2
f 76/1/2 75/1/2 74/1/2
f 73/1/2 71/1/2 62/1/2
f 76/1/2 74/1/2 73/1/2
f 79/1/2 78/1/2 77/1/2
f 77/1/2 76/1/2 73/1/2
f 85/1/2 82/1/2 81/1/2
f 85/1/2 81/1/2 80/1/2
f 77/1/2 73/1/2 62/1/2
f 79/1/2 77/1/2 62/1/2
f 62/1/2 85/1/2 80/1/2
f 11/1/3 61/1/3 62/1/3
f 1/1/4 51/1/4 61/1/4
f 2/1/5 52/1/5 51/1/5
f 3/1/6 53/1/6 52/1/6
f 4/1/7 54/1/7 53/1/7
f 5/1/8 55/1/8 54/1/8
f 6/1/9 56/1/9 55/1/9
f 7/1/10 57/1/10 56/1/10
f 8/1/11 58/1/11 57/1/11
f 9/1/12 59/1/12 58/1/12
f 10/1/13 60/1/13 59/1/13
f 12/1/14 62/1/14 63/1/14
f 13/1/15 63/1/15 64/1/15
f 14/1/16 64/1/16 65/1/16
f 15/1/17 65/1/17 66/1/17
f 16/1/18 66/1/18 67/1/18
f 17/1/19 67/1/19 68/1/19
f 18/1/20 68/1/20 69/1/20
f 19/1/21 69/1/21 70/1/21
f 20/1/22 70/1/22 71/1/22
f 21/1/23 71/1/23 72/1/23
f 22/1/24 72/1/24 73/1/24
f 23/1/25 73/1/25 74/1/25
f 24/1/26 74/1/26 75/1/26
f 25/1/27 75/1/27 76/1/27
f 26/1/28 76/1/28 77/1/28
f 27/1/29 77/1/29 78/1/29
f 28/1/30 78/1/30 79/1/30
f 29/1/21 79/1/21 80/1/21
f 30/1/31 80/1/31 81/1/31
f 31/1/32 81/1/32 82/1/32
f 32/1/33 82/1/33 83/1/33
f 33/1/34 83/1/34 84/1/34
f 34/1/35 84/1/35 85/1/35
f 35/1/36 85/1/36 86/1/36
f 36/1/37 86/1/37 87/1/37
f 37/1/38 87/1/38 88/1/38
f 38/1/39 88/1/39 89/1/39
f 39/1/40 89/1/40 90/1/40
f 40/1/41 90/1/41 91/1/41
f 41/1/42 91/1/42 92/1/42
f 42/1/43 92/1/43 93/1/43
f 43/1/44 93/1/44 94/1/44
f 44/1/45 94/1/45 95/1/45
f 45/1/46 95/1/46 96/1/46
f 46/1/47 96/1/47 97/1/47
f 47/1/48 97/1/48 98/1/48
f 48/1/49 98/1/49 99/1/49
f 49/1/50 99/1/50 100/1/50
f 50/1/51 100/1/51 60/1/51
