# Blender 5.2.0 LTS
# www.blender.org
mtllib Iowa.mtl
o Plane.034
v 1.441337 1.969393 -3.049136
v 1.441337 2.100986 -2.971995
v 1.441337 2.196278 -2.962920
v 1.441337 2.218966 -3.012836
v 1.441337 2.250730 -3.094514
v 1.441337 2.277956 -3.226108
v 1.441337 2.355097 -3.316861
v 1.441337 2.409549 -3.353162
v 1.441337 2.622821 -3.412152
v 1.441337 2.754414 -3.403077
v 1.441337 2.827017 -3.344087
v 1.441337 2.949535 -3.180730
v 1.441337 3.049364 -3.176192
v 1.441337 1.481419 -2.774478
v 1.441337 1.526220 -2.655009
v 1.441337 1.571021 -2.575362
v 1.441337 1.561065 -2.475804
v 1.441337 1.561065 -2.331445
v 1.441337 1.541153 -2.102462
v 1.441337 3.738806 0.010037
v 1.441337 3.680539 0.103266
v 1.441337 3.641694 0.134342
v 1.441337 3.591195 0.134342
v 1.441337 3.517390 0.103266
v 1.441337 3.478544 0.033344
v 1.441337 3.408623 0.013922
v 1.441337 3.280435 0.021690
v 1.441337 3.194976 0.091612
v 1.441337 3.039595 0.107150
v 1.441337 2.973559 0.044998
v 1.441337 2.857023 0.048882
v 1.441337 2.744373 0.006153
v 1.441337 2.608415 -0.048230
v 1.441337 2.491880 -0.118152
v 1.441337 2.336500 -0.102613
v 1.441337 2.251040 -0.176419
v 1.441337 2.130621 -0.246341
v 1.441337 1.975240 -0.257995
v 1.441337 1.975240 -0.257995
v 1.441337 1.975240 -0.257995
v 1.441337 1.975240 -0.257995
v 1.441337 1.975240 -0.257995
v 1.441337 1.823745 -0.300724
v 1.441337 1.664480 -0.331800
v 1.441337 1.501330 -0.390068
v 1.441337 3.730018 -1.705976
v 1.441337 3.775394 -2.722421
v 1.441337 3.779932 -2.795024
v 1.441337 3.702791 -2.835864
v 1.441337 3.580274 -2.917542
v 1.441337 3.516746 -2.890317
v 1.441337 3.380615 -2.849477
v 1.441337 3.294399 -2.876702
v 1.441337 3.176419 -2.926618
v 1.441337 3.167344 -2.990146
v 1.441337 3.158268 -3.049136
v 1.441337 3.117429 -3.135352
v 1.441337 1.542850 -2.826789
v 1.441337 1.619990 -2.840402
v 1.441337 1.629066 -2.885779
v 1.441337 1.633604 -2.931157
v 1.441337 1.674443 -2.962920
v 1.441337 1.760659 -2.967458
v 1.441337 1.846876 -3.030986
v 2.441337 1.969393 -3.049136
v 2.441337 2.100986 -2.971995
v 2.441337 2.196277 -2.962920
v 2.441337 2.218966 -3.012836
v 2.441337 2.250730 -3.094514
v 2.441337 2.277956 -3.226108
v 2.441337 2.355097 -3.316861
v 2.441337 2.409549 -3.353162
v 2.441337 2.622821 -3.412152
v 2.441337 2.754414 -3.403077
v 2.441337 2.827017 -3.344087
v 2.441337 2.949534 -3.180730
v 2.441337 3.049363 -3.176192
v 2.441337 1.481418 -2.774478
v 2.441337 1.526219 -2.655009
v 2.441337 1.571020 -2.575362
v 2.441337 1.561065 -2.475804
v 2.441337 1.561065 -2.331445
v 2.441337 1.541153 -2.102462
v 2.441337 3.738806 0.010037
v 2.441337 3.680538 0.103266
v 2.441337 3.641693 0.134342
v 2.441337 3.591195 0.134342
v 2.441337 3.517389 0.103266
v 2.441337 3.478544 0.033344
v 2.441337 3.408623 0.013922
v 2.441337 3.280434 0.021690
v 2.441337 3.194975 0.091612
v 2.441337 3.039595 0.107150
v 2.441337 2.973558 0.044998
v 2.441337 2.857023 0.048882
v 2.441337 2.744372 0.006153
v 2.441337 2.608415 -0.048230
v 2.441337 2.491879 -0.118152
v 2.441337 2.336499 -0.102613
v 2.441337 2.251040 -0.176419
v 2.441337 2.130620 -0.246341
v 2.441337 1.975240 -0.257995
v 2.441337 1.975240 -0.257995
v 2.441337 1.975240 -0.257995
v 2.441337 1.975240 -0.257995
v 2.441337 1.975240 -0.257995
v 2.441337 1.823744 -0.300724
v 2.441337 1.664479 -0.331800
v 2.441337 1.501330 -0.390068
v 2.441337 3.730017 -1.705976
v 2.441337 3.775394 -2.722421
v 2.441337 3.779932 -2.795024
v 2.441337 3.702791 -2.835864
v 2.441337 3.580273 -2.917542
v 2.441337 3.516746 -2.890317
v 2.441337 3.380615 -2.849477
v 2.441337 3.294399 -2.876702
v 2.441337 3.176419 -2.926618
v 2.441337 3.167343 -2.990146
v 2.441337 3.158268 -3.049136
v 2.441337 3.117429 -3.135352
v 2.441337 1.542849 -2.826789
v 2.441337 1.619990 -2.840402
v 2.441337 1.629066 -2.885779
v 2.441337 1.633603 -2.931157
v 2.441337 1.674443 -2.962920
v 2.441337 1.760659 -2.967458
v 2.441337 1.846875 -3.030986
vn -1.0000 -0.0000 -0.0000
vn 1.0000 -0.0000 -0.0000
vn -0.0000 -0.0526 -0.9986
vn -0.0000 -0.5932 -0.8051
vn -0.0000 -0.1465 -0.9892
vn -0.0000 0.5057 -0.8627
vn -0.0000 0.0948 -0.9955
vn -0.0000 -0.9104 -0.4138
vn -0.0000 -0.9320 -0.3624
vn -0.0000 -0.9793 -0.2026
vn -0.0000 -0.7619 -0.6476
vn -0.0000 -0.5547 -0.8321
vn -0.0000 -0.2666 -0.9638
vn -0.0000 0.0688 -0.9976
vn -0.0000 0.6306 -0.7761
vn -0.0000 0.8000 -0.6000
vn -0.0000 0.0454 -0.9990
vn -0.0000 -0.9363 0.3511
vn -0.0000 -0.8716 0.4903
vn -0.0000 -0.9950 -0.0995
vn -0.0000 -1.0000 -0.0000
vn -0.0000 -0.9962 -0.0866
vn -0.0000 -0.9997 -0.0232
vn -0.0000 0.8480 0.5300
vn -0.0000 0.6247 0.7809
vn -0.0000 -0.0000 1.0000
vn -0.0000 -0.3881 0.9216
vn -0.0000 -0.8742 0.4856
vn -0.0000 -0.2676 0.9635
vn -0.0000 0.0605 0.9982
vn -0.0000 0.6332 0.7740
vn -0.0000 0.0995 0.9950
vn -0.0000 -0.6854 0.7282
vn -0.0000 0.0333 0.9994
vn -0.0000 -0.3547 0.9350
vn -0.0000 -0.3714 0.9285
vn -0.0000 -0.5145 0.8575
vn -0.0000 -0.6536 0.7568
vn -0.0000 -0.5021 0.8648
vn -0.0000 -0.0748 0.9972
vn -0.0000 -0.2715 0.9624
vn -0.0000 -0.1915 0.9815
vn -0.0000 -0.3363 0.9417
vn -0.0000 1.0000 -0.0051
vn -0.0000 0.9990 0.0446
vn -0.0000 0.9981 0.0624
vn -0.0000 0.4679 -0.8838
vn -0.0000 0.5547 -0.8321
vn -0.0000 -0.3939 -0.9191
vn -0.0000 -0.2874 -0.9578
vn -0.0000 0.3011 -0.9536
vn -0.0000 0.3896 -0.9210
vn -0.0000 0.9899 -0.1414
vn -0.0000 0.9884 -0.1521
vn -0.0000 0.9037 -0.4281
vn -0.0000 0.5145 -0.8575
vn -0.0000 -0.6483 -0.7614
vn -0.0000 -0.1738 -0.9848
vn -0.0000 -0.9806 -0.1961
vn -0.0000 -0.6139 -0.7894
vn 1.0000 0.0007 -0.0000
vn -0.0000 -0.2715 0.9625
vn -0.0000 0.9900 -0.1414
vt 0.000000 0.000000
s 0
f 43/1/1 40/1/1 8/1/1
f 67/1/2 101/1/2 104/1/2
f 63/1/3 126/1/3 62/1/3
f 64/1/4 127/1/4 63/1/4
f 1/1/5 128/1/5 64/1/5
f 1/1/6 66/1/6 65/1/6
f 3/1/7 66/1/7 2/1/7
f 4/1/8 67/1/8 3/1/8
f 5/1/9 68/1/9 4/1/9
f 6/1/10 69/1/10 5/1/10
f 6/1/11 71/1/11 70/1/11
f 7/1/12 72/1/12 71/1/12
f 8/1/13 73/1/13 72/1/13
f 9/1/14 74/1/14 73/1/14
f 11/1/15 74/1/15 10/1/15
f 12/1/16 75/1/16 11/1/16
f 13/1/17 76/1/17 12/1/17
f 14/1/18 79/1/18 15/1/18
f 15/1/19 80/1/19 16/1/19
f 16/1/20 81/1/20 17/1/20
f 17/1/21 82/1/21 18/1/21
f 18/1/22 83/1/22 19/1/22
f 19/1/23 109/1/23 45/1/23
f 21/1/24 84/1/24 20/1/24
f 22/1/25 85/1/25 21/1/25
f 23/1/26 86/1/26 22/1/26
f 24/1/27 87/1/27 23/1/27
f 25/1/28 88/1/28 24/1/28
f 26/1/29 89/1/29 25/1/29
f 27/1/30 90/1/30 26/1/30
f 28/1/31 91/1/31 27/1/31
f 29/1/32 92/1/32 28/1/32
f 30/1/33 93/1/33 29/1/33
f 31/1/34 94/1/34 30/1/34
f 32/1/35 95/1/35 31/1/35
f 33/1/36 96/1/36 32/1/36
f 34/1/37 97/1/37 33/1/37
f 35/1/32 98/1/32 34/1/32
f 36/1/38 99/1/38 35/1/38
f 37/1/39 100/1/39 36/1/39
f 38/1/40 101/1/40 37/1/40
f 38/1/2 103/1/2 102/1/2
f 39/1/2 104/1/2 103/1/2
f 40/1/2 105/1/2 104/1/2
f 41/1/2 106/1/2 105/1/2
f 43/1/41 106/1/41 42/1/41
f 44/1/42 107/1/42 43/1/42
f 45/1/43 108/1/43 44/1/43
f 20/1/44 110/1/44 46/1/44
f 46/1/45 111/1/45 47/1/45
f 47/1/46 112/1/46 48/1/46
f 48/1/47 113/1/47 49/1/47
f 49/1/48 114/1/48 50/1/48
f 50/1/49 115/1/49 51/1/49
f 51/1/50 116/1/50 52/1/50
f 53/1/51 116/1/51 117/1/51
f 54/1/52 117/1/52 118/1/52
f 54/1/53 119/1/53 55/1/53
f 55/1/54 120/1/54 56/1/54
f 57/1/55 120/1/55 121/1/55
f 57/1/56 77/1/56 13/1/56
f 58/1/57 78/1/57 14/1/57
f 59/1/58 122/1/58 58/1/58
f 60/1/59 123/1/59 59/1/59
f 61/1/20 124/1/20 60/1/20
f 62/1/60 125/1/60 61/1/60
f 45/1/1 44/1/1 43/1/1
f 19/1/1 45/1/1 43/1/1
f 16/1/1 17/1/1 18/1/1
f 18/1/1 19/1/1 43/1/1
f 16/1/1 18/1/1 43/1/1
f 14/1/1 15/1/1 16/1/1
f 59/1/1 58/1/1 14/1/1
f 62/1/1 61/1/1 60/1/1
f 59/1/1 14/1/1 16/1/1
f 62/1/1 60/1/1 59/1/1
f 1/1/1 64/1/1 63/1/1
f 63/1/1 62/1/1 59/1/1
f 59/1/1 16/1/1 43/1/1
f 63/1/1 59/1/1 43/1/1
f 2/1/1 1/1/1 63/1/1
f 3/1/1 2/1/1 63/1/1
f 36/1/1 35/1/1 34/1/1
f 34/1/1 33/1/1 32/1/1
f 32/1/1 31/1/1 30/1/1
f 30/1/1 29/1/1 28/1/1
f 30/1/1 28/1/1 27/1/1
f 34/1/1 32/1/1 30/1/1
f 37/1/1 36/1/1 34/1/1
f 37/1/1 34/1/1 30/1/1
f 37/1/1 30/1/1 27/1/1
f 37/1/1 27/1/1 26/1/1
f 25/1/1 24/1/1 23/1/1
f 25/1/1 23/1/1 22/1/1
f 22/1/1 21/1/1 20/1/1
f 22/1/1 20/1/1 46/1/1
f 25/1/1 22/1/1 46/1/1
f 47/1/1 48/1/1 49/1/1
f 25/1/1 46/1/1 47/1/1
f 26/1/1 25/1/1 47/1/1
f 47/1/1 49/1/1 50/1/1
f 47/1/1 50/1/1 51/1/1
f 37/1/1 26/1/1 47/1/1
f 37/1/1 47/1/1 51/1/1
f 37/1/1 51/1/1 52/1/1
f 37/1/1 52/1/1 53/1/1
f 54/1/1 55/1/1 56/1/1
f 37/1/1 53/1/1 54/1/1
f 38/1/1 37/1/1 54/1/1
f 54/1/1 56/1/1 57/1/1
f 57/1/1 13/1/1 12/1/1
f 12/1/1 11/1/1 10/1/1
f 10/1/1 9/1/1 8/1/1
f 8/1/1 7/1/1 6/1/1
f 8/1/1 6/1/1 5/1/1
f 12/1/1 10/1/1 8/1/1
f 54/1/1 57/1/1 12/1/1
f 54/1/1 12/1/1 8/1/1
f 8/1/1 5/1/1 4/1/1
f 3/1/1 63/1/1 43/1/1
f 8/1/1 4/1/1 3/1/1
f 38/1/1 54/1/1 8/1/1
f 8/1/1 3/1/1 43/1/1
f 39/1/2 38/1/2 8/1/2
f 40/1/2 39/1/2 8/1/2
f 42/1/2 41/1/2 40/1/2
f 43/1/2 42/1/2 40/1/2
f 107/1/2 108/1/2 109/1/2
f 109/1/2 83/1/2 82/1/2
f 82/1/2 81/1/2 80/1/2
f 80/1/2 79/1/2 78/1/2
f 78/1/2 122/1/2 123/1/2
f 124/1/2 125/1/2 126/1/2
f 80/1/2 78/1/2 123/1/2
f 123/1/2 124/1/2 126/1/2
f 127/1/2 128/1/2 65/1/2
f 123/1/2 126/1/2 127/1/2
f 82/1/2 80/1/2 123/1/2
f 107/1/2 109/1/2 82/1/2
f 107/1/2 82/1/2 123/1/2
f 123/1/2 127/1/2 65/1/2
f 123/1/2 65/1/2 66/1/2
f 98/1/2 99/1/2 100/1/2
f 96/1/2 97/1/2 98/1/2
f 94/1/2 95/1/2 96/1/2
f 92/1/2 93/1/2 94/1/2
f 91/1/2 92/1/2 94/1/2
f 94/1/2 96/1/2 98/1/2
f 98/1/2 100/1/2 101/1/2
f 94/1/2 98/1/2 101/1/2
f 91/1/2 94/1/2 101/1/2
f 90/1/2 91/1/2 101/1/2
f 87/1/2 88/1/2 89/1/2
f 86/1/2 87/1/2 89/1/2
f 84/1/2 85/1/2 86/1/2
f 110/1/2 84/1/2 86/1/2
f 110/1/2 86/1/2 89/1/2
f 113/1/2 112/1/2 111/1/2
f 111/1/2 110/1/2 89/1/2
f 111/1/2 89/1/2 90/1/2
f 114/1/2 113/1/2 111/1/2
f 115/1/2 114/1/2 111/1/2
f 111/1/2 90/1/2 101/1/2
f 115/1/2 111/1/2 101/1/2
f 116/1/2 115/1/2 101/1/2
f 117/1/2 116/1/2 101/1/2
f 120/1/61 119/1/61 118/1/61
f 118/1/2 117/1/2 101/1/2
f 120/1/2 118/1/2 101/1/2
f 77/1/2 121/1/2 120/1/2
f 74/1/2 75/1/2 76/1/2
f 76/1/2 77/1/2 120/1/2
f 107/1/2 123/1/2 66/1/2
f 107/1/2 66/1/2 67/1/2
f 106/1/2 107/1/2 67/1/2
f 76/1/2 120/1/2 101/1/2
f 73/1/2 74/1/2 76/1/2
f 71/1/2 72/1/2 73/1/2
f 69/1/2 70/1/2 71/1/2
f 68/1/2 69/1/2 71/1/2
f 71/1/2 73/1/2 76/1/2
f 68/1/2 71/1/2 76/1/2
f 67/1/2 68/1/2 76/1/2
f 67/1/2 76/1/2 101/1/2
f 105/1/2 106/1/2 67/1/2
f 104/1/2 105/1/2 67/1/2
f 102/1/2 103/1/2 104/1/2
f 101/1/2 102/1/2 104/1/2
f 63/1/3 127/1/3 126/1/3
f 64/1/4 128/1/4 127/1/4
f 1/1/5 65/1/5 128/1/5
f 1/1/6 2/1/6 66/1/6
f 3/1/7 67/1/7 66/1/7
f 4/1/8 68/1/8 67/1/8
f 5/1/9 69/1/9 68/1/9
f 6/1/10 70/1/10 69/1/10
f 6/1/11 7/1/11 71/1/11
f 7/1/12 8/1/12 72/1/12
f 8/1/13 9/1/13 73/1/13
f 9/1/14 10/1/14 74/1/14
f 11/1/15 75/1/15 74/1/15
f 12/1/16 76/1/16 75/1/16
f 13/1/17 77/1/17 76/1/17
f 14/1/18 78/1/18 79/1/18
f 15/1/19 79/1/19 80/1/19
f 16/1/20 80/1/20 81/1/20
f 17/1/21 81/1/21 82/1/21
f 18/1/22 82/1/22 83/1/22
f 19/1/23 83/1/23 109/1/23
f 21/1/24 85/1/24 84/1/24
f 22/1/25 86/1/25 85/1/25
f 23/1/26 87/1/26 86/1/26
f 24/1/27 88/1/27 87/1/27
f 25/1/28 89/1/28 88/1/28
f 26/1/29 90/1/29 89/1/29
f 27/1/30 91/1/30 90/1/30
f 28/1/31 92/1/31 91/1/31
f 29/1/32 93/1/32 92/1/32
f 30/1/33 94/1/33 93/1/33
f 31/1/34 95/1/34 94/1/34
f 32/1/35 96/1/35 95/1/35
f 33/1/36 97/1/36 96/1/36
f 34/1/37 98/1/37 97/1/37
f 35/1/32 99/1/32 98/1/32
f 36/1/38 100/1/38 99/1/38
f 37/1/39 101/1/39 100/1/39
f 38/1/40 102/1/40 101/1/40
f 38/1/2 39/1/2 103/1/2
f 39/1/2 40/1/2 104/1/2
f 40/1/2 41/1/2 105/1/2
f 41/1/2 42/1/2 106/1/2
f 43/1/62 107/1/62 106/1/62
f 44/1/42 108/1/42 107/1/42
f 45/1/43 109/1/43 108/1/43
f 20/1/44 84/1/44 110/1/44
f 46/1/45 110/1/45 111/1/45
f 47/1/46 111/1/46 112/1/46
f 48/1/47 112/1/47 113/1/47
f 49/1/48 113/1/48 114/1/48
f 50/1/49 114/1/49 115/1/49
f 51/1/50 115/1/50 116/1/50
f 53/1/51 52/1/51 116/1/51
f 54/1/52 53/1/52 117/1/52
f 54/1/63 118/1/63 119/1/63
f 55/1/54 119/1/54 120/1/54
f 57/1/55 56/1/55 120/1/55
f 57/1/56 121/1/56 77/1/56
f 58/1/57 122/1/57 78/1/57
f 59/1/58 123/1/58 122/1/58
f 60/1/59 124/1/59 123/1/59
f 61/1/20 125/1/20 124/1/20
f 62/1/60 126/1/60 125/1/60
