# Blender 5.2.0 LTS
# www.blender.org
mtllib Kansas.mtl
o Plane.038
v 1.441337 -1.040209 3.326132
v 1.441337 0.376054 3.275949
v 1.441337 1.149012 3.233771
v 1.441337 -1.145899 -1.039237
v 1.441337 -1.153470 1.050303
v 1.441337 -1.047479 3.158771
v 1.441337 1.100133 2.127884
v 1.441337 1.106243 0.875360
v 1.441337 1.081804 -0.529911
v 1.441337 1.027421 -0.673637
v 1.441337 0.961384 -0.794057
v 1.441337 0.914770 -0.821248
v 1.441337 0.837080 -0.786287
v 1.441337 0.720545 -0.724135
v 1.441337 0.666162 -0.751327
v 1.441337 0.452514 -0.980513
v 1.441337 -0.149585 -1.034896
v 1.441337 -0.910948 -1.042665
v 2.441337 -1.040209 3.326132
v 2.441337 0.376054 3.275949
v 2.441337 1.149012 3.233771
v 2.441337 -1.145899 -1.039237
v 2.441337 -1.153470 1.050303
v 2.441337 -1.047479 3.158771
v 2.441337 1.100133 2.127884
v 2.441337 1.106243 0.875360
v 2.441337 1.081804 -0.529911
v 2.441337 1.027421 -0.673637
v 2.441337 0.961384 -0.794057
v 2.441337 0.914770 -0.821248
v 2.441337 0.837080 -0.786287
v 2.441337 0.720545 -0.724135
v 2.441337 0.666162 -0.751327
v 2.441337 0.452514 -0.980513
v 2.441337 -0.149585 -1.034896
v 2.441337 -0.910948 -1.042665
vn -1.0000 -0.0000 -0.0000
vn 1.0000 -0.0000 -0.0000
vn -0.0000 0.0354 0.9994
vn -0.0000 0.0545 0.9985
vn -0.0000 -1.0000 -0.0036
vn -0.0000 -0.9987 0.0502
vn -0.0000 -0.9991 0.0434
vn -0.0000 0.9990 -0.0442
vn -0.0000 1.0000 0.0049
vn -0.0000 0.9998 -0.0174
vn -0.0000 0.9353 -0.3539
vn -0.0000 0.8768 -0.4808
vn -0.0000 0.5039 -0.8638
vn -0.0000 -0.4104 -0.9119
vn -0.0000 -0.4706 -0.8824
vn -0.0000 0.4472 -0.8944
vn -0.0000 0.7315 -0.6819
vn -0.0000 0.0900 -0.9959
vn -0.0000 0.0102 -0.9999
vn -0.0000 -0.0146 -0.9999
vt 0.000000 0.000000
s 0
f 7/1/1 14/1/1 17/1/1
f 29/1/2 27/1/2 24/1/2
f 1/1/3 20/1/3 2/1/3
f 2/1/4 21/1/4 3/1/4
f 4/1/5 23/1/5 5/1/5
f 5/1/6 24/1/6 6/1/6
f 6/1/7 19/1/7 1/1/7
f 3/1/8 25/1/8 7/1/8
f 7/1/9 26/1/9 8/1/9
f 8/1/10 27/1/10 9/1/10
f 9/1/11 28/1/11 10/1/11
f 10/1/12 29/1/12 11/1/12
f 11/1/13 30/1/13 12/1/13
f 12/1/14 31/1/14 13/1/14
f 13/1/15 32/1/15 14/1/15
f 14/1/16 33/1/16 15/1/16
f 15/1/17 34/1/17 16/1/17
f 16/1/18 35/1/18 17/1/18
f 17/1/19 36/1/19 18/1/19
f 18/1/20 22/1/20 4/1/20
f 17/1/1 18/1/1 4/1/1
f 4/1/1 5/1/1 6/1/1
f 6/1/1 1/1/1 2/1/1
f 2/1/1 3/1/1 7/1/1
f 7/1/1 8/1/1 9/1/1
f 9/1/1 10/1/1 11/1/1
f 11/1/1 12/1/1 13/1/1
f 11/1/1 13/1/1 14/1/1
f 7/1/1 9/1/1 11/1/1
f 6/1/1 2/1/1 7/1/1
f 17/1/1 4/1/1 6/1/1
f 15/1/1 16/1/1 17/1/1
f 7/1/1 11/1/1 14/1/1
f 14/1/1 15/1/1 17/1/1
f 17/1/1 6/1/1 7/1/1
f 22/1/2 36/1/2 35/1/2
f 35/1/2 34/1/2 33/1/2
f 32/1/2 31/1/2 30/1/2
f 35/1/2 33/1/2 32/1/2
f 23/1/2 22/1/2 35/1/2
f 20/1/2 19/1/2 24/1/2
f 24/1/2 23/1/2 35/1/2
f 32/1/2 30/1/2 29/1/2
f 24/1/2 35/1/2 32/1/2
f 21/1/2 20/1/2 24/1/2
f 27/1/2 26/1/2 25/1/2
f 25/1/2 21/1/2 24/1/2
f 24/1/2 32/1/2 29/1/2
f 29/1/2 28/1/2 27/1/2
f 27/1/2 25/1/2 24/1/2
f 1/1/3 19/1/3 20/1/3
f 2/1/4 20/1/4 21/1/4
f 4/1/5 22/1/5 23/1/5
f 5/1/6 23/1/6 24/1/6
f 6/1/7 24/1/7 19/1/7
f 3/1/8 21/1/8 25/1/8
f 7/1/9 25/1/9 26/1/9
f 8/1/10 26/1/10 27/1/10
f 9/1/11 27/1/11 28/1/11
f 10/1/12 28/1/12 29/1/12
f 11/1/13 29/1/13 30/1/13
f 12/1/14 30/1/14 31/1/14
f 13/1/15 31/1/15 32/1/15
f 14/1/16 32/1/16 33/1/16
f 15/1/17 33/1/17 34/1/17
f 16/1/18 34/1/18 35/1/18
f 17/1/19 35/1/19 36/1/19
f 18/1/20 36/1/20 22/1/20
