# Blender 5.2.0 LTS
# www.blender.org
mtllib Kentucky.mtl
o Plane.007
v 1.441337 0.062994 -8.116895
v 1.441337 -0.125583 -8.264327
v 1.441337 -0.273015 -8.398046
v 1.441337 -0.657026 -7.945462
v 1.441337 -0.794173 -7.938605
v 1.441337 -0.975892 -7.691741
v 1.441337 -1.147326 -6.193414
v 1.441337 -1.226185 -4.955665
v 1.441337 -1.377046 -4.948808
v 1.441337 -1.380475 -4.609370
v 1.441337 -1.421619 -4.472224
v 1.441337 -1.425048 -4.146501
v 1.441337 -1.332474 -4.149930
v 1.441337 -1.332474 -4.191073
v 1.441337 -1.322188 -4.266503
v 1.441337 -1.037608 -4.266503
v 1.441337 0.131567 -8.086038
v 1.441337 0.179569 -8.007178
v 1.441337 0.189855 -7.972892
v 1.441337 0.344145 -7.942035
v 1.441337 0.464148 -7.935178
v 1.441337 0.505292 -7.876891
v 1.441337 0.532722 -7.852891
v 1.441337 0.621867 -7.825461
v 1.441337 0.673297 -7.780889
v 1.441337 0.659582 -7.695172
v 1.441337 0.495006 -7.582026
v 1.441337 0.553293 -7.523740
v 1.441337 0.584151 -7.414023
v 1.441337 0.563579 -7.342021
v 1.441337 0.495006 -7.276875
v 1.441337 0.505292 -7.246018
v 1.441337 0.580723 -7.198016
v 1.441337 0.625295 -7.180873
v 1.441337 0.601295 -7.023154
v 1.441337 0.656153 -6.985438
v 1.441337 0.728155 -6.958009
v 1.441337 0.796729 -6.879149
v 1.441337 0.789871 -6.796861
v 1.441337 0.769299 -6.721431
v 1.441337 0.759013 -6.694001
v 1.441337 0.748728 -6.656285
v 1.441337 0.570437 -6.649428
v 1.441337 0.529293 -6.570569
v 1.441337 0.474434 -6.498567
v 1.441337 0.453862 -6.443707
v 1.441337 0.429861 -6.371705
v 1.441337 0.402432 -6.357991
v 1.441337 0.327001 -6.357991
v 1.441337 0.086995 -6.141986
v 1.441337 -0.012437 -6.083699
v 1.441337 -0.101582 -6.073413
v 1.441337 -0.108439 -5.991124
v 1.441337 -0.111868 -5.901978
v 1.441337 -0.057009 -5.864263
v 1.441337 -0.129011 -5.788833
v 1.441337 -0.146155 -5.737403
v 1.441337 -0.303873 -5.730546
v 1.441337 -0.303873 -5.672259
v 1.441337 -0.245586 -5.620830
v 1.441337 -0.221585 -5.586543
v 1.441337 -0.183870 -5.541970
v 1.441337 -0.262729 -5.463111
v 1.441337 -0.338160 -5.421968
v 1.441337 -0.307302 -5.349965
v 1.441337 -0.290159 -5.195676
v 1.441337 -0.297016 -4.873382
v 1.441337 -0.396447 -4.863095
v 1.441337 -0.519879 -4.811666
v 1.441337 -0.585024 -4.808236
v 1.441337 -0.633026 -4.883666
v 1.441337 -0.660455 -4.791093
v 1.441337 -0.667312 -4.701947
v 1.441337 -0.718742 -4.619658
v 1.441337 -0.787316 -4.588801
v 1.441337 -0.838746 -4.626517
v 1.441337 -0.869604 -4.674520
v 1.441337 -0.910748 -4.684806
v 1.441337 -0.979321 -4.643662
v 1.441337 -0.893604 -4.458514
v 1.441337 -0.879890 -4.379655
v 1.441337 -0.917605 -4.304225
v 1.441337 -0.962178 -4.273368
v 2.441337 0.062994 -8.116895
v 2.441337 -0.125583 -8.264327
v 2.441337 -0.273015 -8.398046
v 2.441337 -0.657026 -7.945462
v 2.441337 -0.794173 -7.938605
v 2.441337 -0.975892 -7.691741
v 2.441337 -1.147325 -6.193414
v 2.441337 -1.226185 -4.955665
v 2.441337 -1.377046 -4.948808
v 2.441337 -1.380475 -4.609370
v 2.441337 -1.421619 -4.472224
v 2.441337 -1.425048 -4.146501
v 2.441337 -1.332474 -4.149930
v 2.441337 -1.332474 -4.191073
v 2.441337 -1.322188 -4.266503
v 2.441337 -1.037608 -4.266503
v 2.441337 0.131568 -8.086038
v 2.441337 0.179569 -8.007178
v 2.441337 0.189855 -7.972892
v 2.441337 0.344145 -7.942035
v 2.441337 0.464148 -7.935178
v 2.441337 0.505292 -7.876891
v 2.441337 0.532722 -7.852891
v 2.441337 0.621867 -7.825461
v 2.441337 0.673297 -7.780889
v 2.441337 0.659582 -7.695172
v 2.441337 0.495006 -7.582026
v 2.441337 0.553294 -7.523740
v 2.441337 0.584152 -7.414023
v 2.441337 0.563580 -7.342021
v 2.441337 0.495006 -7.276875
v 2.441337 0.505292 -7.246018
v 2.441337 0.580723 -7.198016
v 2.441337 0.625296 -7.180873
v 2.441337 0.601295 -7.023154
v 2.441337 0.656154 -6.985438
v 2.441337 0.728156 -6.958009
v 2.441337 0.796729 -6.879149
v 2.441337 0.789872 -6.796861
v 2.441337 0.769300 -6.721431
v 2.441337 0.759014 -6.694001
v 2.441337 0.748728 -6.656285
v 2.441337 0.570437 -6.649428
v 2.441337 0.529293 -6.570569
v 2.441337 0.474434 -6.498567
v 2.441337 0.453862 -6.443707
v 2.441337 0.429862 -6.371705
v 2.441337 0.402432 -6.357991
v 2.441337 0.327002 -6.357991
v 2.441337 0.086995 -6.141986
v 2.441337 -0.012437 -6.083699
v 2.441337 -0.101582 -6.073413
v 2.441337 -0.108439 -5.991124
v 2.441337 -0.111868 -5.901978
v 2.441337 -0.057009 -5.864263
v 2.441337 -0.129011 -5.788833
v 2.441337 -0.146155 -5.737403
v 2.441337 -0.303873 -5.730546
v 2.441337 -0.303873 -5.672259
v 2.441337 -0.245586 -5.620830
v 2.441337 -0.221585 -5.586543
v 2.441337 -0.183870 -5.541970
v 2.441337 -0.262729 -5.463111
v 2.441337 -0.338160 -5.421968
v 2.441337 -0.307302 -5.349965
v 2.441337 -0.290159 -5.195676
v 2.441337 -0.297016 -4.873382
v 2.441337 -0.396447 -4.863095
v 2.441337 -0.519879 -4.811666
v 2.441337 -0.585024 -4.808236
v 2.441337 -0.633025 -4.883666
v 2.441337 -0.660455 -4.791093
v 2.441337 -0.667312 -4.701947
v 2.441337 -0.718742 -4.619658
v 2.441337 -0.787315 -4.588801
v 2.441337 -0.838745 -4.626517
v 2.441337 -0.869603 -4.674520
v 2.441337 -0.910747 -4.684806
v 2.441337 -0.979321 -4.643662
v 2.441337 -0.893604 -4.458514
v 2.441337 -0.879889 -4.379655
v 2.441337 -0.917605 -4.304225
v 2.441337 -0.962177 -4.273368
vn -1.0000 -0.0000 -0.0000
vn 1.0000 -0.0000 -0.0000
vn -0.0000 0.8542 -0.5199
vn -0.0000 0.4104 -0.9119
vn -0.0000 0.6159 -0.7878
vn -0.0000 0.6718 -0.7407
vn -0.0000 -0.7625 -0.6470
vn -0.0000 -0.0499 -0.9988
vn -0.0000 -0.8053 -0.5928
vn -0.0000 -0.9935 -0.1137
vn -0.0000 -0.9980 -0.0636
vn -0.0000 -0.0454 -0.9990
vn -0.0000 -0.9999 -0.0101
vn -0.0000 -0.9578 -0.2873
vn -0.0000 -0.9999 -0.0105
vn -0.0000 0.0370 0.9993
vn -0.0000 1.0000 -0.0000
vn -0.0000 0.9908 0.1351
vn -0.0000 -0.0000 1.0000
vn -0.0000 0.9578 -0.2873
vn -0.0000 0.1961 -0.9806
vn -0.0000 0.0570 -0.9984
vn -0.0000 0.8170 -0.5767
vn -0.0000 0.6585 -0.7526
vn -0.0000 0.2941 -0.9558
vn -0.0000 0.6549 -0.7557
vn -0.0000 0.9874 0.1580
vn -0.0000 0.5665 0.8240
vn -0.0000 0.7071 -0.7071
vn -0.0000 0.9627 -0.2707
vn -0.0000 0.9615 0.2747
vn -0.0000 0.6888 0.7250
vn -0.0000 0.9487 -0.3162
vn -0.0000 0.5369 -0.8437
vn -0.0000 0.3590 -0.9333
vn -0.0000 0.9886 0.1504
vn -0.0000 0.5665 -0.8240
vn -0.0000 0.3560 -0.9345
vn -0.0000 0.7546 -0.6562
vn -0.0000 0.9965 0.0830
vn -0.0000 0.9648 0.2631
vn -0.0000 0.9363 0.3511
vn -0.0000 0.0384 0.9993
vn -0.0000 0.8866 0.4626
vn -0.0000 0.7954 0.6060
vn -0.0000 0.9487 0.3162
vn -0.0000 0.4472 0.8944
vn -0.0000 0.6690 0.7433
vn -0.0000 0.5057 0.8627
vn -0.0000 0.1146 0.9934
vn -0.0000 0.9993 0.0384
vn -0.0000 0.7234 0.6905
vn -0.0000 0.0434 0.9991
vn -0.0000 0.6616 -0.7498
vn -0.0000 0.8192 -0.5735
vn -0.0000 0.7634 -0.6459
vn -0.0000 0.7071 0.7071
vn -0.0000 0.4788 0.8779
vn -0.0000 0.9191 -0.3939
vn -0.0000 0.9939 -0.1104
vn -0.0000 0.9998 0.0213
vn -0.0000 0.1029 0.9947
vn -0.0000 0.3846 0.9231
vn -0.0000 0.0526 0.9986
vn -0.0000 -0.8437 0.5369
vn -0.0000 0.9588 0.2841
vn -0.0000 0.9971 0.0767
vn -0.0000 0.8480 0.5300
vn -0.0000 0.4104 0.9119
vn -0.0000 -0.5914 0.8064
vn -0.0000 -0.8412 0.5408
vn -0.0000 -0.2425 0.9701
vn -0.0000 0.5145 0.8575
vn -0.0000 0.9075 -0.4201
vn -0.0000 0.9852 -0.1713
vn -0.0000 0.8944 0.4472
vn -0.0000 0.5692 0.8222
vn -0.0000 0.0906 0.9959
vn -1.0000 0.0005 -0.0000
vn 1.0000 0.0001 -0.0000
vn -0.0000 -0.9578 -0.2874
vn -0.0000 0.9578 -0.2874
vn -0.0000 -0.8412 0.5407
vt 0.000000 0.000000
s 0
f 58/1/1 52/1/1 19/1/1
f 115/1/2 129/1/2 135/1/2
f 18/1/3 100/1/3 17/1/3
f 17/1/4 84/1/4 1/1/4
f 1/1/5 85/1/5 2/1/5
f 2/1/6 86/1/6 3/1/6
f 3/1/7 87/1/7 4/1/7
f 4/1/8 88/1/8 5/1/8
f 5/1/9 89/1/9 6/1/9
f 6/1/10 90/1/10 7/1/10
f 7/1/11 91/1/11 8/1/11
f 8/1/12 92/1/12 9/1/12
f 9/1/13 93/1/13 10/1/13
f 10/1/14 94/1/14 11/1/14
f 11/1/15 95/1/15 12/1/15
f 12/1/16 96/1/16 13/1/16
f 13/1/17 97/1/17 14/1/17
f 14/1/18 98/1/18 15/1/18
f 15/1/19 99/1/19 16/1/19
f 19/1/20 101/1/20 18/1/20
f 20/1/21 102/1/21 19/1/21
f 21/1/22 103/1/22 20/1/22
f 22/1/23 104/1/23 21/1/23
f 23/1/24 105/1/24 22/1/24
f 24/1/25 106/1/25 23/1/25
f 25/1/26 107/1/26 24/1/26
f 26/1/27 108/1/27 25/1/27
f 27/1/28 109/1/28 26/1/28
f 28/1/29 110/1/29 27/1/29
f 29/1/30 111/1/30 28/1/30
f 30/1/31 112/1/31 29/1/31
f 31/1/32 113/1/32 30/1/32
f 32/1/33 114/1/33 31/1/33
f 33/1/34 115/1/34 32/1/34
f 34/1/35 116/1/35 33/1/35
f 35/1/36 117/1/36 34/1/36
f 36/1/37 118/1/37 35/1/37
f 37/1/38 119/1/38 36/1/38
f 38/1/39 120/1/39 37/1/39
f 39/1/40 121/1/40 38/1/40
f 40/1/41 122/1/41 39/1/41
f 41/1/42 123/1/42 40/1/42
f 42/1/41 124/1/41 41/1/41
f 42/1/43 126/1/43 125/1/43
f 44/1/44 126/1/44 43/1/44
f 45/1/45 127/1/45 44/1/45
f 46/1/42 128/1/42 45/1/42
f 47/1/46 129/1/46 46/1/46
f 48/1/47 130/1/47 47/1/47
f 49/1/19 131/1/19 48/1/19
f 50/1/48 132/1/48 49/1/48
f 51/1/49 133/1/49 50/1/49
f 52/1/50 134/1/50 51/1/50
f 53/1/40 135/1/40 52/1/40
f 54/1/51 136/1/51 53/1/51
f 55/1/37 137/1/37 54/1/37
f 56/1/52 138/1/52 55/1/52
f 57/1/46 139/1/46 56/1/46
f 58/1/53 140/1/53 57/1/53
f 59/1/17 141/1/17 58/1/17
f 60/1/54 142/1/54 59/1/54
f 61/1/55 143/1/55 60/1/55
f 62/1/56 144/1/56 61/1/56
f 63/1/57 145/1/57 62/1/57
f 64/1/58 146/1/58 63/1/58
f 65/1/59 147/1/59 64/1/59
f 66/1/60 148/1/60 65/1/60
f 67/1/61 149/1/61 66/1/61
f 68/1/62 150/1/62 67/1/62
f 69/1/63 151/1/63 68/1/63
f 70/1/64 152/1/64 69/1/64
f 71/1/65 153/1/65 70/1/65
f 72/1/66 154/1/66 71/1/66
f 73/1/67 155/1/67 72/1/67
f 74/1/68 156/1/68 73/1/68
f 75/1/69 157/1/69 74/1/69
f 76/1/70 158/1/70 75/1/70
f 77/1/71 159/1/71 76/1/71
f 78/1/72 160/1/72 77/1/72
f 79/1/73 161/1/73 78/1/73
f 80/1/74 162/1/74 79/1/74
f 81/1/75 163/1/75 80/1/75
f 82/1/76 164/1/76 81/1/76
f 83/1/77 165/1/77 82/1/77
f 16/1/78 166/1/78 83/1/78
f 15/1/1 16/1/1 83/1/1
f 83/1/1 82/1/1 81/1/1
f 81/1/1 80/1/1 79/1/1
f 83/1/1 81/1/1 79/1/1
f 15/1/1 83/1/1 79/1/1
f 12/1/1 13/1/1 14/1/1
f 10/1/1 11/1/1 12/1/1
f 8/1/1 9/1/1 10/1/1
f 6/1/1 7/1/1 8/1/1
f 4/1/1 5/1/1 6/1/1
f 2/1/1 3/1/1 4/1/1
f 18/1/1 17/1/1 1/1/1
f 1/1/1 2/1/1 4/1/1
f 4/1/1 6/1/1 8/1/1
f 8/1/1 10/1/1 12/1/1
f 12/1/1 14/1/1 15/1/1
f 8/1/1 12/1/1 15/1/1
f 1/1/1 4/1/1 8/1/1
f 19/1/1 18/1/1 1/1/1
f 22/1/1 21/1/1 20/1/1
f 19/1/1 1/1/1 8/1/1
f 22/1/1 20/1/1 19/1/1
f 25/1/1 24/1/1 23/1/1
f 23/1/1 22/1/1 19/1/1
f 19/1/1 8/1/1 15/1/1
f 19/1/1 15/1/1 79/1/1
f 25/1/1 23/1/1 19/1/1
f 27/1/1 26/1/1 25/1/1
f 29/1/1 28/1/1 27/1/1
f 31/1/1 30/1/1 29/1/1
f 31/1/1 29/1/1 27/1/1
f 27/1/1 25/1/1 19/1/1
f 19/1/1 79/1/1 78/1/1
f 77/1/1 76/1/1 75/1/1
f 19/1/1 78/1/1 77/1/1
f 31/1/1 27/1/1 19/1/1
f 32/1/1 31/1/1 19/1/1
f 19/1/1 77/1/1 75/1/1
f 75/1/1 74/1/1 73/1/1
f 75/1/1 73/1/1 72/1/1
f 35/1/1 34/1/1 33/1/1
f 38/1/1 37/1/1 36/1/1
f 35/1/1 33/1/1 32/1/1
f 38/1/1 36/1/1 35/1/1
f 40/1/1 39/1/1 38/1/1
f 43/1/1 42/1/1 41/1/1
f 41/1/1 40/1/1 38/1/1
f 35/1/79 32/1/79 19/1/79
f 41/1/1 38/1/1 35/1/1
f 45/1/1 44/1/1 43/1/1
f 43/1/1 41/1/1 35/1/1
f 19/1/1 75/1/1 72/1/1
f 71/1/1 70/1/1 69/1/1
f 19/1/1 72/1/1 71/1/1
f 43/1/1 35/1/1 19/1/1
f 45/1/1 43/1/1 19/1/1
f 19/1/1 71/1/1 69/1/1
f 68/1/1 67/1/1 66/1/1
f 46/1/1 45/1/1 19/1/1
f 48/1/1 47/1/1 46/1/1
f 51/1/1 50/1/1 49/1/1
f 49/1/1 48/1/1 46/1/1
f 69/1/1 68/1/1 66/1/1
f 66/1/1 65/1/1 64/1/1
f 64/1/1 63/1/1 62/1/1
f 61/1/1 60/1/1 59/1/1
f 64/1/1 62/1/1 61/1/1
f 69/1/1 66/1/1 64/1/1
f 49/1/1 46/1/1 19/1/1
f 52/1/1 51/1/1 49/1/1
f 52/1/1 49/1/1 19/1/1
f 64/1/1 61/1/1 59/1/1
f 58/1/1 57/1/1 56/1/1
f 64/1/1 59/1/1 58/1/1
f 56/1/1 55/1/1 54/1/1
f 69/1/1 64/1/1 58/1/1
f 58/1/1 56/1/1 54/1/1
f 58/1/1 54/1/1 53/1/1
f 19/1/1 69/1/1 58/1/1
f 58/1/1 53/1/1 52/1/1
f 166/1/2 99/1/2 98/1/2
f 97/1/2 96/1/2 95/1/2
f 165/1/2 166/1/2 98/1/2
f 98/1/2 97/1/2 95/1/2
f 95/1/2 94/1/2 93/1/2
f 93/1/2 92/1/2 91/1/2
f 91/1/2 90/1/2 89/1/2
f 89/1/2 88/1/2 87/1/2
f 87/1/2 86/1/2 85/1/2
f 84/1/2 100/1/2 101/1/2
f 87/1/2 85/1/2 84/1/2
f 91/1/2 89/1/2 87/1/2
f 95/1/2 93/1/2 91/1/2
f 164/1/2 165/1/2 98/1/2
f 98/1/2 95/1/2 91/1/2
f 91/1/2 87/1/2 84/1/2
f 84/1/2 101/1/2 102/1/2
f 103/1/2 104/1/2 105/1/2
f 91/1/2 84/1/2 102/1/2
f 102/1/2 103/1/2 105/1/2
f 106/1/2 107/1/2 108/1/2
f 102/1/2 105/1/2 106/1/2
f 98/1/2 91/1/2 102/1/2
f 163/1/2 164/1/2 98/1/2
f 162/1/2 163/1/2 98/1/2
f 98/1/2 102/1/2 106/1/2
f 106/1/2 108/1/2 109/1/2
f 110/1/2 111/1/2 112/1/2
f 106/1/2 109/1/2 110/1/2
f 162/1/2 98/1/2 106/1/2
f 161/1/2 162/1/2 106/1/2
f 110/1/2 112/1/2 113/1/2
f 161/1/2 106/1/2 110/1/2
f 158/1/2 159/1/2 160/1/2
f 160/1/2 161/1/2 110/1/2
f 110/1/2 113/1/2 114/1/2
f 160/1/2 110/1/2 114/1/2
f 157/1/2 158/1/2 160/1/2
f 155/1/2 156/1/2 157/1/2
f 152/1/2 153/1/2 154/1/2
f 154/1/2 155/1/2 157/1/2
f 160/1/2 114/1/2 115/1/2
f 116/1/2 117/1/2 118/1/2
f 154/1/2 157/1/2 160/1/2
f 151/1/2 152/1/2 154/1/2
f 149/1/2 150/1/2 151/1/2
f 147/1/2 148/1/2 149/1/2
f 145/1/2 146/1/2 147/1/2
f 142/1/2 143/1/2 144/1/2
f 144/1/2 145/1/2 147/1/2
f 147/1/2 149/1/2 151/1/2
f 147/1/2 151/1/2 154/1/2
f 142/1/2 144/1/2 147/1/2
f 139/1/2 140/1/2 141/1/2
f 141/1/2 142/1/2 147/1/2
f 147/1/2 154/1/2 160/1/2
f 115/1/2 116/1/2 118/1/2
f 119/1/2 120/1/2 121/1/2
f 118/1/80 119/1/80 121/1/80
f 121/1/2 122/1/2 123/1/2
f 124/1/2 125/1/2 126/1/2
f 121/1/2 123/1/2 124/1/2
f 118/1/2 121/1/2 124/1/2
f 126/1/2 127/1/2 128/1/2
f 118/1/2 124/1/2 126/1/2
f 141/1/2 147/1/2 160/1/2
f 138/1/2 139/1/2 141/1/2
f 137/1/2 138/1/2 141/1/2
f 141/1/2 160/1/2 115/1/2
f 115/1/2 118/1/2 126/1/2
f 115/1/2 126/1/2 128/1/2
f 136/1/2 137/1/2 141/1/2
f 133/1/2 134/1/2 135/1/2
f 135/1/2 136/1/2 141/1/2
f 115/1/2 128/1/2 129/1/2
f 129/1/2 130/1/2 131/1/2
f 132/1/2 133/1/2 135/1/2
f 129/1/2 131/1/2 132/1/2
f 135/1/2 141/1/2 115/1/2
f 129/1/2 132/1/2 135/1/2
f 18/1/3 101/1/3 100/1/3
f 17/1/4 100/1/4 84/1/4
f 1/1/5 84/1/5 85/1/5
f 2/1/6 85/1/6 86/1/6
f 3/1/7 86/1/7 87/1/7
f 4/1/8 87/1/8 88/1/8
f 5/1/9 88/1/9 89/1/9
f 6/1/10 89/1/10 90/1/10
f 7/1/11 90/1/11 91/1/11
f 8/1/12 91/1/12 92/1/12
f 9/1/13 92/1/13 93/1/13
f 10/1/81 93/1/81 94/1/81
f 11/1/15 94/1/15 95/1/15
f 12/1/16 95/1/16 96/1/16
f 13/1/17 96/1/17 97/1/17
f 14/1/18 97/1/18 98/1/18
f 15/1/19 98/1/19 99/1/19
f 19/1/82 102/1/82 101/1/82
f 20/1/21 103/1/21 102/1/21
f 21/1/22 104/1/22 103/1/22
f 22/1/23 105/1/23 104/1/23
f 23/1/24 106/1/24 105/1/24
f 24/1/25 107/1/25 106/1/25
f 25/1/26 108/1/26 107/1/26
f 26/1/27 109/1/27 108/1/27
f 27/1/28 110/1/28 109/1/28
f 28/1/29 111/1/29 110/1/29
f 29/1/30 112/1/30 111/1/30
f 30/1/31 113/1/31 112/1/31
f 31/1/32 114/1/32 113/1/32
f 32/1/33 115/1/33 114/1/33
f 33/1/34 116/1/34 115/1/34
f 34/1/35 117/1/35 116/1/35
f 35/1/36 118/1/36 117/1/36
f 36/1/37 119/1/37 118/1/37
f 37/1/38 120/1/38 119/1/38
f 38/1/39 121/1/39 120/1/39
f 39/1/40 122/1/40 121/1/40
f 40/1/41 123/1/41 122/1/41
f 41/1/42 124/1/42 123/1/42
f 42/1/41 125/1/41 124/1/41
f 42/1/43 43/1/43 126/1/43
f 44/1/44 127/1/44 126/1/44
f 45/1/45 128/1/45 127/1/45
f 46/1/42 129/1/42 128/1/42
f 47/1/46 130/1/46 129/1/46
f 48/1/47 131/1/47 130/1/47
f 49/1/19 132/1/19 131/1/19
f 50/1/48 133/1/48 132/1/48
f 51/1/49 134/1/49 133/1/49
f 52/1/50 135/1/50 134/1/50
f 53/1/40 136/1/40 135/1/40
f 54/1/51 137/1/51 136/1/51
f 55/1/37 138/1/37 137/1/37
f 56/1/52 139/1/52 138/1/52
f 57/1/46 140/1/46 139/1/46
f 58/1/53 141/1/53 140/1/53
f 59/1/17 142/1/17 141/1/17
f 60/1/54 143/1/54 142/1/54
f 61/1/55 144/1/55 143/1/55
f 62/1/56 145/1/56 144/1/56
f 63/1/57 146/1/57 145/1/57
f 64/1/58 147/1/58 146/1/58
f 65/1/59 148/1/59 147/1/59
f 66/1/60 149/1/60 148/1/60
f 67/1/61 150/1/61 149/1/61
f 68/1/62 151/1/62 150/1/62
f 69/1/63 152/1/63 151/1/63
f 70/1/64 153/1/64 152/1/64
f 71/1/65 154/1/65 153/1/65
f 72/1/66 155/1/66 154/1/66
f 73/1/67 156/1/67 155/1/67
f 74/1/68 157/1/68 156/1/68
f 75/1/69 158/1/69 157/1/69
f 76/1/70 159/1/70 158/1/70
f 77/1/83 160/1/83 159/1/83
f 78/1/72 161/1/72 160/1/72
f 79/1/73 162/1/73 161/1/73
f 80/1/74 163/1/74 162/1/74
f 81/1/75 164/1/75 163/1/75
f 82/1/76 165/1/76 164/1/76
f 83/1/77 166/1/77 165/1/77
f 16/1/78 99/1/78 166/1/78
