# Blender 5.2.0 LTS
# www.blender.org
mtllib Louisiana.mtl
o Plane.026
v 1.441336 -6.606940 -1.809635
v 1.441336 -6.602539 -1.990106
v 1.441336 -6.650958 -2.263013
v 1.441336 -6.690574 -2.434680
v 1.441336 -6.774206 -2.619552
v 1.441336 -6.774206 -2.738399
v 1.441336 -6.716984 -2.791219
v 1.441336 -6.655360 -2.769210
v 1.441336 -6.598138 -2.738399
v 1.441336 -6.562923 -2.747203
v 1.441336 -6.518907 -2.800023
v 1.441336 -6.571727 -2.888057
v 1.441336 -6.576129 -2.962886
v 1.441336 -6.576129 -3.033313
v 1.441336 -6.628949 -3.090535
v 1.441336 -6.716984 -3.138953
v 1.441336 -6.730189 -3.257800
v 1.441336 -6.743394 -3.315022
v 1.441336 -6.800616 -3.323827
v 1.441336 -6.901856 -3.284211
v 1.441336 -6.959079 -3.301818
v 1.441336 -6.998694 -3.385451
v 1.441336 -7.029507 -3.552716
v 1.441336 -7.033908 -3.697972
v 1.441336 -6.981088 -3.790408
v 1.441336 -6.875446 -3.935664
v 1.441336 -6.994292 -4.006091
v 1.441336 -6.989891 -4.102929
v 1.441336 -6.783010 -4.094125
v 1.441336 -6.738993 -4.133740
v 1.441336 -6.730189 -4.186561
v 1.441336 -6.756599 -4.204167
v 1.441336 -6.879848 -4.314210
v 1.441336 -6.857840 -4.415450
v 1.441336 -6.972284 -4.547502
v 1.441336 -6.972284 -4.604724
v 1.441336 -6.963481 -4.697160
v 1.441336 -6.915062 -4.749980
v 1.441336 -6.875446 -4.723569
v 1.441336 -6.796215 -4.653142
v 1.441336 -6.761001 -4.587115
v 1.441336 -6.743394 -4.446259
v 1.441336 -6.712582 -4.367028
v 1.441336 -6.624547 -4.327413
v 1.441336 -6.554120 -4.318608
v 1.441336 -6.488094 -4.375831
v 1.441336 -6.470488 -4.455062
v 1.441336 -6.466085 -4.507882
v 1.441336 -6.404462 -4.547498
v 1.441336 -6.338436 -4.490275
v 1.441336 -6.303222 -4.441857
v 1.441336 -6.298820 -4.402242
v 1.441336 -6.338436 -4.375831
v 1.441336 -6.386855 -4.349420
v 1.441336 -6.413166 -4.283641
v 1.441336 -6.382469 -4.182780
v 1.441336 -6.325461 -4.156468
v 1.441336 -6.285994 -4.209092
v 1.441336 -6.185133 -4.318725
v 1.441336 -6.163206 -4.331880
v 1.441336 -6.062346 -4.327495
v 1.441336 -5.943943 -4.252946
v 1.441336 -5.821156 -4.165240
v 1.441336 -5.746606 -4.191552
v 1.441336 -5.641359 -4.239791
v 1.441336 -5.579966 -4.209094
v 1.441336 -5.579966 -3.910895
v 1.441336 -5.632588 -3.823190
v 1.441336 -5.615047 -3.020686
v 1.441336 -5.351932 -3.007531
v 1.441336 -5.316849 -3.095237
v 1.441336 -5.163364 -3.099622
v 1.441336 -4.834470 -3.296960
v 1.441336 -4.602050 -3.384665
v 1.441336 -4.391557 -3.226796
v 1.441337 -4.154752 -3.239951
v 1.441337 -4.145982 -1.420063
v 1.441336 -6.623780 -1.617027
v 1.441336 -6.000659 -1.655177
v 1.441336 -5.962509 -1.684850
v 1.441336 -5.865014 -1.756911
v 1.441336 -5.691218 -1.790823
v 1.441336 -5.513184 -1.761150
v 1.441336 -5.360583 -1.718761
v 1.441336 -5.275805 -1.595833
v 1.441336 -5.118965 -1.587355
v 1.441336 -5.055381 -1.578876
v 1.441336 -4.923975 -1.434753
v 1.441336 -4.788329 -1.409320
v 2.441336 -6.606940 -1.809635
v 2.441336 -6.602539 -1.990106
v 2.441336 -6.650958 -2.263013
v 2.441336 -6.690574 -2.434680
v 2.441336 -6.774206 -2.619552
v 2.441336 -6.774206 -2.738399
v 2.441336 -6.716984 -2.791219
v 2.441336 -6.655360 -2.769210
v 2.441336 -6.598138 -2.738399
v 2.441336 -6.562923 -2.747203
v 2.441336 -6.518907 -2.800023
v 2.441336 -6.571727 -2.888057
v 2.441336 -6.576129 -2.962886
v 2.441336 -6.576129 -3.033313
v 2.441336 -6.628949 -3.090535
v 2.441336 -6.716984 -3.138953
v 2.441336 -6.730189 -3.257800
v 2.441336 -6.743394 -3.315022
v 2.441336 -6.800616 -3.323827
v 2.441336 -6.901856 -3.284211
v 2.441336 -6.959079 -3.301818
v 2.441336 -6.998694 -3.385451
v 2.441336 -7.029507 -3.552716
v 2.441336 -7.033908 -3.697972
v 2.441336 -6.981088 -3.790408
v 2.441336 -6.875446 -3.935664
v 2.441336 -6.994292 -4.006091
v 2.441336 -6.989891 -4.102929
v 2.441336 -6.783010 -4.094125
v 2.441336 -6.738993 -4.133740
v 2.441336 -6.730189 -4.186561
v 2.441336 -6.756599 -4.204167
v 2.441336 -6.879848 -4.314210
v 2.441336 -6.857840 -4.415450
v 2.441336 -6.972284 -4.547502
v 2.441336 -6.972284 -4.604724
v 2.441336 -6.963481 -4.697160
v 2.441336 -6.915062 -4.749980
v 2.441336 -6.875446 -4.723569
v 2.441336 -6.796215 -4.653142
v 2.441336 -6.761001 -4.587115
v 2.441336 -6.743394 -4.446259
v 2.441336 -6.712582 -4.367028
v 2.441336 -6.624547 -4.327413
v 2.441336 -6.554120 -4.318608
v 2.441336 -6.488094 -4.375831
v 2.441336 -6.470488 -4.455062
v 2.441336 -6.466085 -4.507882
v 2.441336 -6.404462 -4.547498
v 2.441336 -6.338436 -4.490275
v 2.441336 -6.303222 -4.441857
v 2.441336 -6.298820 -4.402242
v 2.441336 -6.338436 -4.375831
v 2.441336 -6.386855 -4.349420
v 2.441336 -6.413166 -4.283641
v 2.441336 -6.382469 -4.182780
v 2.441336 -6.325461 -4.156468
v 2.441336 -6.285994 -4.209092
v 2.441336 -6.185133 -4.318725
v 2.441336 -6.163206 -4.331880
v 2.441336 -6.062346 -4.327495
v 2.441336 -5.943943 -4.252946
v 2.441336 -5.821156 -4.165240
v 2.441336 -5.746606 -4.191552
v 2.441336 -5.641359 -4.239791
v 2.441336 -5.579966 -4.209094
v 2.441336 -5.579966 -3.910895
v 2.441336 -5.632588 -3.823190
v 2.441336 -5.615047 -3.020686
v 2.441336 -5.351932 -3.007531
v 2.441336 -5.316849 -3.095237
v 2.441336 -5.163364 -3.099622
v 2.441336 -4.834470 -3.296960
v 2.441336 -4.602050 -3.384665
v 2.441336 -4.391557 -3.226796
v 2.441336 -4.154752 -3.239951
v 2.441336 -4.145982 -1.420063
v 2.441336 -6.623780 -1.617027
v 2.441336 -6.000659 -1.655177
v 2.441336 -5.962509 -1.684850
v 2.441336 -5.865014 -1.756911
v 2.441336 -5.691218 -1.790823
v 2.441336 -5.513184 -1.761150
v 2.441336 -5.360583 -1.718761
v 2.441336 -5.275805 -1.595833
v 2.441336 -5.118965 -1.587355
v 2.441336 -5.055381 -1.578876
v 2.441336 -4.923975 -1.434753
v 2.441336 -4.788329 -1.409320
vn -1.0000 -0.0000 -0.0000
vn 1.0000 -0.0000 -0.0000
vn -0.0000 -0.9962 -0.0871
vn -0.0000 -0.9997 -0.0244
vn -0.0000 -0.9846 0.1747
vn -0.0000 -0.9744 0.2249
vn -0.0000 -0.9111 0.4122
vn -0.0000 -1.0000 -0.0000
vn -0.0000 -0.6783 -0.7348
vn -0.0000 0.3363 -0.9417
vn -0.0000 0.4741 -0.8805
vn -0.0000 -0.2426 -0.9701
vn -0.0000 -0.7682 -0.6402
vn -0.0000 -0.8575 0.5145
vn -0.0000 -0.9983 0.0587
vn -0.0000 -0.7348 0.6783
vn -0.0000 -0.4819 0.8762
vn -0.0000 -0.9939 0.1104
vn -0.0000 -0.1521 0.9884
vn -0.0000 0.3644 0.9312
vn -0.0000 -0.2941 0.9558
vn -0.0000 -0.9037 0.4281
vn -0.0000 -0.9835 0.1812
vn -0.0000 -0.9995 0.0303
vn -0.0000 -0.8682 -0.4961
vn -0.0000 -0.8087 -0.5882
vn -0.0000 -0.5098 0.8603
vn -0.0000 -0.9990 -0.0454
vn -0.0000 0.0425 -0.9991
vn -0.0000 -0.6690 -0.7433
vn -0.0000 -0.9864 -0.1644
vn -0.0000 -0.5547 0.8321
vn -0.0000 -0.6660 0.7459
vn -0.0000 -0.9772 -0.2124
vn -0.0000 -0.7557 0.6549
vn -0.0000 -0.9955 -0.0948
vn -0.0000 -0.7372 -0.6757
vn -0.0000 0.5547 -0.8320
vn -0.0000 0.6644 -0.7474
vn -0.0000 0.8824 -0.4706
vn -0.0000 0.9923 -0.1240
vn -0.0000 0.9320 -0.3624
vn -0.0000 0.4104 -0.9119
vn -0.0000 0.1240 -0.9923
vn -0.0000 -0.6549 -0.7557
vn -0.0000 -0.9762 -0.2169
vn -0.0000 -0.9965 -0.0830
vn -0.0000 -0.5408 -0.8412
vn -0.0000 0.6549 -0.7557
vn -0.0000 0.8087 -0.5882
vn -0.0000 0.9939 -0.1104
vn -0.0000 0.5547 0.8320
vn -0.0000 0.4789 0.8779
vn -0.0000 0.9285 0.3714
vn -0.0000 0.9567 -0.2912
vn -0.0000 0.4191 -0.9080
vn -0.0000 -0.8000 -0.6000
vn -0.0000 -0.7359 -0.6771
vn -0.0000 -0.5145 -0.8575
vn -0.0000 0.0434 -0.9991
vn -0.0000 0.5328 -0.8462
vn -0.0000 0.5812 -0.8137
vn -0.0000 -0.3328 -0.9430
vn -0.0000 -0.4167 -0.9091
vn -0.0000 0.4472 -0.8944
vn -0.0000 1.0000 -0.0000
vn -0.0000 0.8575 0.5145
vn -0.0000 0.9998 -0.0219
vn -0.0000 0.0499 -0.9988
vn -0.0000 -0.9285 -0.3714
vn -0.0000 -0.0286 -0.9996
vn -0.0000 -0.3531 -0.9356
vn -0.0000 0.6000 -0.8000
vn -0.0000 -0.0555 -0.9985
vn -0.0000 1.0000 -0.0048
vn -0.0000 0.0611 0.9981
vn -0.0000 0.6139 0.7893
vn -0.0000 0.5944 0.8042
vn -0.0000 0.1915 0.9815
vn -0.0000 -0.1644 0.9864
vn -0.0000 -0.2676 0.9635
vn -0.0000 -0.8232 0.5677
vn -0.0000 -0.0540 0.9985
vn -0.0000 -0.1322 0.9912
vn -0.0000 -0.7390 0.6738
vn -0.0000 -0.1843 0.9829
vn -0.0000 0.0167 0.9999
vn 1.0000 -0.0017 -0.0000
vn -0.0000 -0.9965 -0.0831
vn -0.0000 0.6139 0.7894
vt 0.000000 0.000000
s 0
f 52/1/1 45/1/1 31/1/1
f 134/1/2 145/1/2 158/1/2
f 1/1/3 167/1/3 78/1/3
f 2/1/4 90/1/4 1/1/4
f 3/1/5 91/1/5 2/1/5
f 4/1/6 92/1/6 3/1/6
f 5/1/7 93/1/7 4/1/7
f 6/1/8 94/1/8 5/1/8
f 7/1/9 95/1/9 6/1/9
f 8/1/10 96/1/10 7/1/10
f 9/1/11 97/1/11 8/1/11
f 10/1/12 98/1/12 9/1/12
f 11/1/13 99/1/13 10/1/13
f 12/1/14 100/1/14 11/1/14
f 13/1/15 101/1/15 12/1/15
f 14/1/8 102/1/8 13/1/8
f 15/1/16 103/1/16 14/1/16
f 16/1/17 104/1/17 15/1/17
f 17/1/18 105/1/18 16/1/18
f 18/1/6 106/1/6 17/1/6
f 19/1/19 107/1/19 18/1/19
f 20/1/20 108/1/20 19/1/20
f 21/1/21 109/1/21 20/1/21
f 22/1/22 110/1/22 21/1/22
f 23/1/23 111/1/23 22/1/23
f 24/1/24 112/1/24 23/1/24
f 25/1/25 113/1/25 24/1/25
f 26/1/26 114/1/26 25/1/26
f 27/1/27 115/1/27 26/1/27
f 28/1/28 116/1/28 27/1/28
f 29/1/29 117/1/29 28/1/29
f 30/1/30 118/1/30 29/1/30
f 31/1/31 119/1/31 30/1/31
f 32/1/32 120/1/32 31/1/32
f 33/1/33 121/1/33 32/1/33
f 34/1/34 122/1/34 33/1/34
f 35/1/35 123/1/35 34/1/35
f 36/1/8 124/1/8 35/1/8
f 37/1/36 125/1/36 36/1/36
f 38/1/37 126/1/37 37/1/37
f 39/1/38 127/1/38 38/1/38
f 40/1/39 128/1/39 39/1/39
f 41/1/40 129/1/40 40/1/40
f 42/1/41 130/1/41 41/1/41
f 43/1/42 131/1/42 42/1/42
f 44/1/43 132/1/43 43/1/43
f 45/1/44 133/1/44 44/1/44
f 46/1/45 134/1/45 45/1/45
f 47/1/46 135/1/46 46/1/46
f 48/1/47 136/1/47 47/1/47
f 49/1/48 137/1/48 48/1/48
f 50/1/49 138/1/49 49/1/49
f 51/1/50 139/1/50 50/1/50
f 52/1/51 140/1/51 51/1/51
f 53/1/52 141/1/52 52/1/52
f 54/1/53 142/1/53 53/1/53
f 55/1/54 143/1/54 54/1/54
f 56/1/55 144/1/55 55/1/55
f 57/1/56 145/1/56 56/1/56
f 58/1/57 146/1/57 57/1/57
f 59/1/58 147/1/58 58/1/58
f 60/1/59 148/1/59 59/1/59
f 61/1/60 149/1/60 60/1/60
f 62/1/61 150/1/61 61/1/61
f 63/1/62 151/1/62 62/1/62
f 64/1/63 152/1/63 63/1/63
f 65/1/64 153/1/64 64/1/64
f 66/1/65 154/1/65 65/1/65
f 67/1/66 155/1/66 66/1/66
f 68/1/67 156/1/67 67/1/67
f 69/1/68 157/1/68 68/1/68
f 70/1/69 158/1/69 69/1/69
f 71/1/70 159/1/70 70/1/70
f 72/1/71 160/1/71 71/1/71
f 73/1/59 161/1/59 72/1/59
f 74/1/72 162/1/72 73/1/72
f 75/1/73 163/1/73 74/1/73
f 76/1/74 164/1/74 75/1/74
f 77/1/75 165/1/75 76/1/75
f 78/1/76 168/1/76 79/1/76
f 79/1/77 169/1/77 80/1/77
f 80/1/78 170/1/78 81/1/78
f 81/1/79 171/1/79 82/1/79
f 82/1/80 172/1/80 83/1/80
f 83/1/81 173/1/81 84/1/81
f 84/1/82 174/1/82 85/1/82
f 85/1/83 175/1/83 86/1/83
f 86/1/84 176/1/84 87/1/84
f 87/1/85 177/1/85 88/1/85
f 88/1/86 178/1/86 89/1/86
f 89/1/87 166/1/87 77/1/87
f 1/1/1 78/1/1 79/1/1
f 1/1/1 79/1/1 80/1/1
f 2/1/1 1/1/1 80/1/1
f 2/1/1 80/1/1 81/1/1
f 3/1/1 2/1/1 81/1/1
f 3/1/1 81/1/1 82/1/1
f 6/1/1 5/1/1 4/1/1
f 4/1/1 3/1/1 82/1/1
f 4/1/1 82/1/1 83/1/1
f 7/1/1 6/1/1 4/1/1
f 9/1/1 8/1/1 7/1/1
f 9/1/1 7/1/1 4/1/1
f 4/1/1 83/1/1 84/1/1
f 84/1/1 85/1/1 86/1/1
f 87/1/1 88/1/1 89/1/1
f 84/1/1 86/1/1 87/1/1
f 9/1/1 4/1/1 84/1/1
f 10/1/1 9/1/1 84/1/1
f 87/1/1 89/1/1 77/1/1
f 10/1/1 84/1/1 87/1/1
f 13/1/1 12/1/1 11/1/1
f 11/1/1 10/1/1 87/1/1
f 87/1/1 77/1/1 76/1/1
f 75/1/1 74/1/1 73/1/1
f 87/1/1 76/1/1 75/1/1
f 13/1/1 11/1/1 87/1/1
f 14/1/1 13/1/1 87/1/1
f 87/1/1 75/1/1 73/1/1
f 72/1/1 71/1/1 70/1/1
f 87/1/1 73/1/1 72/1/1
f 15/1/1 14/1/1 87/1/1
f 17/1/1 16/1/1 15/1/1
f 18/1/1 17/1/1 15/1/1
f 87/1/1 72/1/1 70/1/1
f 87/1/1 70/1/1 69/1/1
f 18/1/1 15/1/1 87/1/1
f 21/1/1 20/1/1 19/1/1
f 18/1/1 87/1/1 69/1/1
f 22/1/1 21/1/1 19/1/1
f 18/1/1 69/1/1 68/1/1
f 22/1/1 19/1/1 18/1/1
f 24/1/1 23/1/1 22/1/1
f 26/1/1 25/1/1 24/1/1
f 28/1/1 27/1/1 26/1/1
f 29/1/1 28/1/1 26/1/1
f 26/1/1 24/1/1 22/1/1
f 22/1/1 18/1/1 68/1/1
f 68/1/1 67/1/1 66/1/1
f 66/1/1 65/1/1 64/1/1
f 63/1/1 62/1/1 61/1/1
f 66/1/1 64/1/1 63/1/1
f 22/1/1 68/1/1 66/1/1
f 29/1/1 26/1/1 22/1/1
f 30/1/1 29/1/1 22/1/1
f 22/1/1 66/1/1 63/1/1
f 63/1/1 61/1/1 60/1/1
f 60/1/1 59/1/1 58/1/1
f 60/1/1 58/1/1 57/1/1
f 22/1/1 63/1/1 60/1/1
f 22/1/1 60/1/1 57/1/1
f 22/1/1 57/1/1 56/1/1
f 30/1/1 22/1/1 56/1/1
f 30/1/1 56/1/1 55/1/1
f 33/1/1 32/1/1 31/1/1
f 31/1/1 30/1/1 55/1/1
f 54/1/1 53/1/1 52/1/1
f 31/1/1 55/1/1 54/1/1
f 34/1/1 33/1/1 31/1/1
f 36/1/1 35/1/1 34/1/1
f 38/1/1 37/1/1 36/1/1
f 40/1/1 39/1/1 38/1/1
f 42/1/1 41/1/1 40/1/1
f 42/1/1 40/1/1 38/1/1
f 38/1/1 36/1/1 34/1/1
f 31/1/1 54/1/1 52/1/1
f 52/1/1 51/1/1 50/1/1
f 50/1/1 49/1/1 48/1/1
f 50/1/1 48/1/1 47/1/1
f 38/1/1 34/1/1 31/1/1
f 43/1/1 42/1/1 38/1/1
f 43/1/1 38/1/1 31/1/1
f 52/1/1 50/1/1 47/1/1
f 52/1/1 47/1/1 46/1/1
f 44/1/1 43/1/1 31/1/1
f 52/1/1 46/1/1 45/1/1
f 45/1/1 44/1/1 31/1/1
f 93/1/2 94/1/2 95/1/2
f 95/1/2 96/1/2 97/1/2
f 95/1/2 97/1/2 98/1/2
f 93/1/2 95/1/2 98/1/2
f 93/1/2 98/1/2 99/1/2
f 92/1/2 93/1/2 99/1/2
f 100/1/2 101/1/2 102/1/2
f 92/1/2 99/1/2 100/1/2
f 91/1/2 92/1/2 100/1/2
f 100/1/2 102/1/2 103/1/2
f 104/1/2 105/1/2 106/1/2
f 103/1/2 104/1/2 106/1/2
f 103/1/2 106/1/2 107/1/2
f 90/1/2 91/1/2 100/1/2
f 167/1/88 90/1/88 100/1/88
f 169/1/2 168/1/2 167/1/2
f 170/1/2 169/1/2 167/1/2
f 170/1/2 167/1/2 100/1/2
f 171/1/2 170/1/2 100/1/2
f 171/1/2 100/1/2 103/1/2
f 172/1/2 171/1/2 103/1/2
f 172/1/2 103/1/2 107/1/2
f 175/1/2 174/1/2 173/1/2
f 173/1/2 172/1/2 107/1/2
f 108/1/2 109/1/2 110/1/2
f 175/1/2 173/1/2 107/1/2
f 108/1/2 110/1/2 111/1/2
f 176/1/2 175/1/2 107/1/2
f 107/1/2 108/1/2 111/1/2
f 111/1/2 112/1/2 113/1/2
f 113/1/2 114/1/2 115/1/2
f 115/1/2 116/1/2 117/1/2
f 115/1/2 117/1/2 118/1/2
f 111/1/2 113/1/2 115/1/2
f 107/1/2 111/1/2 115/1/2
f 115/1/2 118/1/2 119/1/2
f 120/1/2 121/1/2 122/1/2
f 107/1/2 115/1/2 119/1/2
f 120/1/2 122/1/2 123/1/2
f 107/1/2 119/1/2 120/1/2
f 178/1/2 177/1/2 176/1/2
f 176/1/2 107/1/2 120/1/2
f 123/1/2 124/1/2 125/1/2
f 176/1/2 120/1/2 123/1/2
f 166/1/2 178/1/2 176/1/2
f 164/1/2 165/1/2 166/1/2
f 162/1/2 163/1/2 164/1/2
f 159/1/2 160/1/2 161/1/2
f 161/1/2 162/1/2 164/1/2
f 164/1/2 166/1/2 176/1/2
f 176/1/2 123/1/2 125/1/2
f 125/1/2 126/1/2 127/1/2
f 127/1/2 128/1/2 129/1/2
f 129/1/2 130/1/2 131/1/2
f 127/1/2 129/1/2 131/1/2
f 161/1/2 164/1/2 176/1/2
f 159/1/2 161/1/2 176/1/2
f 125/1/2 127/1/2 131/1/2
f 125/1/2 131/1/2 132/1/2
f 158/1/2 159/1/2 176/1/2
f 155/1/2 156/1/2 157/1/2
f 158/1/2 176/1/2 125/1/2
f 154/1/2 155/1/2 157/1/2
f 158/1/2 125/1/2 132/1/2
f 158/1/2 132/1/2 133/1/2
f 153/1/2 154/1/2 157/1/2
f 158/1/2 133/1/2 134/1/2
f 153/1/2 157/1/2 158/1/2
f 150/1/2 151/1/2 152/1/2
f 152/1/2 153/1/2 158/1/2
f 136/1/2 137/1/2 138/1/2
f 138/1/2 139/1/2 140/1/2
f 140/1/2 141/1/2 142/1/2
f 140/1/2 142/1/2 143/1/2
f 136/1/2 138/1/2 140/1/2
f 135/1/2 136/1/2 140/1/2
f 135/1/2 140/1/2 143/1/2
f 150/1/2 152/1/2 158/1/2
f 148/1/2 149/1/2 150/1/2
f 146/1/2 147/1/2 148/1/2
f 146/1/2 148/1/2 150/1/2
f 134/1/2 135/1/2 143/1/2
f 134/1/2 143/1/2 144/1/2
f 146/1/2 150/1/2 158/1/2
f 134/1/2 144/1/2 145/1/2
f 145/1/2 146/1/2 158/1/2
f 1/1/3 90/1/3 167/1/3
f 2/1/4 91/1/4 90/1/4
f 3/1/5 92/1/5 91/1/5
f 4/1/6 93/1/6 92/1/6
f 5/1/7 94/1/7 93/1/7
f 6/1/8 95/1/8 94/1/8
f 7/1/9 96/1/9 95/1/9
f 8/1/10 97/1/10 96/1/10
f 9/1/11 98/1/11 97/1/11
f 10/1/12 99/1/12 98/1/12
f 11/1/13 100/1/13 99/1/13
f 12/1/14 101/1/14 100/1/14
f 13/1/15 102/1/15 101/1/15
f 14/1/8 103/1/8 102/1/8
f 15/1/16 104/1/16 103/1/16
f 16/1/17 105/1/17 104/1/17
f 17/1/18 106/1/18 105/1/18
f 18/1/6 107/1/6 106/1/6
f 19/1/19 108/1/19 107/1/19
f 20/1/20 109/1/20 108/1/20
f 21/1/21 110/1/21 109/1/21
f 22/1/22 111/1/22 110/1/22
f 23/1/23 112/1/23 111/1/23
f 24/1/24 113/1/24 112/1/24
f 25/1/25 114/1/25 113/1/25
f 26/1/26 115/1/26 114/1/26
f 27/1/27 116/1/27 115/1/27
f 28/1/28 117/1/28 116/1/28
f 29/1/29 118/1/29 117/1/29
f 30/1/30 119/1/30 118/1/30
f 31/1/31 120/1/31 119/1/31
f 32/1/32 121/1/32 120/1/32
f 33/1/33 122/1/33 121/1/33
f 34/1/34 123/1/34 122/1/34
f 35/1/35 124/1/35 123/1/35
f 36/1/8 125/1/8 124/1/8
f 37/1/36 126/1/36 125/1/36
f 38/1/37 127/1/37 126/1/37
f 39/1/38 128/1/38 127/1/38
f 40/1/39 129/1/39 128/1/39
f 41/1/40 130/1/40 129/1/40
f 42/1/41 131/1/41 130/1/41
f 43/1/42 132/1/42 131/1/42
f 44/1/43 133/1/43 132/1/43
f 45/1/44 134/1/44 133/1/44
f 46/1/45 135/1/45 134/1/45
f 47/1/46 136/1/46 135/1/46
f 48/1/89 137/1/89 136/1/89
f 49/1/48 138/1/48 137/1/48
f 50/1/49 139/1/49 138/1/49
f 51/1/50 140/1/50 139/1/50
f 52/1/51 141/1/51 140/1/51
f 53/1/52 142/1/52 141/1/52
f 54/1/53 143/1/53 142/1/53
f 55/1/54 144/1/54 143/1/54
f 56/1/55 145/1/55 144/1/55
f 57/1/56 146/1/56 145/1/56
f 58/1/57 147/1/57 146/1/57
f 59/1/58 148/1/58 147/1/58
f 60/1/59 149/1/59 148/1/59
f 61/1/60 150/1/60 149/1/60
f 62/1/61 151/1/61 150/1/61
f 63/1/62 152/1/62 151/1/62
f 64/1/63 153/1/63 152/1/63
f 65/1/64 154/1/64 153/1/64
f 66/1/65 155/1/65 154/1/65
f 67/1/66 156/1/66 155/1/66
f 68/1/67 157/1/67 156/1/67
f 69/1/68 158/1/68 157/1/68
f 70/1/69 159/1/69 158/1/69
f 71/1/70 160/1/70 159/1/70
f 72/1/71 161/1/71 160/1/71
f 73/1/59 162/1/59 161/1/59
f 74/1/72 163/1/72 162/1/72
f 75/1/73 164/1/73 163/1/73
f 76/1/74 165/1/74 164/1/74
f 77/1/75 166/1/75 165/1/75
f 78/1/76 167/1/76 168/1/76
f 79/1/90 168/1/90 169/1/90
f 80/1/78 169/1/78 170/1/78
f 81/1/79 170/1/79 171/1/79
f 82/1/80 171/1/80 172/1/80
f 83/1/81 172/1/81 173/1/81
f 84/1/82 173/1/82 174/1/82
f 85/1/83 174/1/83 175/1/83
f 86/1/84 175/1/84 176/1/84
f 87/1/85 176/1/85 177/1/85
f 88/1/86 177/1/86 178/1/86
f 89/1/87 178/1/87 166/1/87
