# Blender 5.2.0 LTS
# www.blender.org
mtllib Maine-1.mtl
o Plane.055
v 1.441337 5.975777 -14.308839
v 1.441337 5.891603 -14.271428
v 1.441337 5.838604 -14.187255
v 1.441337 5.838604 -14.143609
v 1.441337 5.826134 -14.022025
v 1.441337 5.791841 -13.972144
v 1.441337 5.695196 -13.956557
v 1.441337 5.561141 -13.909795
v 1.441337 5.361617 -13.906678
v 1.441337 5.208858 -13.825622
v 1.441337 5.205740 -13.785094
v 1.441337 5.246268 -13.732097
v 1.441337 5.296149 -13.663510
v 1.441337 5.423969 -13.598042
v 1.441337 6.010070 -14.305722
v 1.441337 6.050598 -14.449130
v 1.441337 6.259717 -14.446603
v 1.441337 6.247953 -14.394843
v 1.441337 6.299712 -14.307794
v 1.441337 6.252659 -14.277209
v 1.441337 6.269127 -14.237214
v 1.441337 6.247953 -14.232509
v 1.441337 6.252659 -14.180749
v 1.441337 6.349118 -14.190160
v 1.441337 6.349118 -14.213687
v 1.441337 6.410288 -14.211335
v 1.441337 6.417346 -14.187808
v 1.441337 6.476163 -14.183103
v 1.441337 6.473810 -14.147813
v 1.441337 6.520864 -14.121934
v 1.441337 6.485574 -14.053706
v 1.441337 6.466752 -14.056058
v 1.441337 6.443226 -14.086642
v 1.441337 6.405582 -14.086642
v 1.441337 6.405582 -14.058410
v 1.441337 6.344413 -14.046647
v 1.441337 6.342060 -14.063115
v 1.441337 6.252659 -14.065467
v 1.441337 6.250306 -14.114873
v 1.441337 6.151493 -14.131341
v 1.441337 6.142082 -14.081935
v 1.441337 6.080913 -14.091346
v 1.441337 6.078560 -14.044291
v 1.441337 6.118556 -14.058408
v 1.441337 6.135024 -14.058408
v 1.441337 6.139729 -13.992534
v 1.441337 6.097382 -13.983123
v 1.441337 6.080913 -13.983123
v 1.441337 6.059739 -13.964301
v 1.441337 6.029154 -13.964301
v 1.441337 6.029154 -13.976064
v 1.441337 5.932694 -13.980769
v 1.441337 5.916225 -13.994885
v 1.441337 5.859761 -13.959596
v 1.441337 5.920931 -13.839610
v 1.441337 5.878583 -13.825494
v 1.441337 5.899756 -13.724328
v 1.441337 5.866819 -13.721976
v 1.441337 5.876230 -13.698449
v 1.441337 5.899756 -13.679627
v 1.441337 5.946810 -13.679627
v 1.441337 5.965631 -13.651395
v 1.441337 5.878582 -13.569051
v 1.441337 5.887993 -13.554935
v 1.441337 5.876229 -13.545524
v 1.441337 5.850350 -13.571403
v 1.441337 5.862114 -13.587871
v 1.441337 5.819765 -13.646688
v 1.441337 5.808002 -13.634925
v 1.441337 5.777417 -13.644336
v 1.441337 5.751537 -13.649041
v 1.441337 5.728011 -13.618457
v 1.441337 5.692720 -13.641984
v 1.441337 5.650373 -13.545524
v 1.441337 5.629727 -13.532573
v 2.441337 5.975776 -14.308839
v 2.441337 5.891602 -14.271428
v 2.441337 5.838603 -14.187255
v 2.441337 5.838603 -14.143609
v 2.441337 5.826133 -14.022025
v 2.441337 5.791840 -13.972144
v 2.441337 5.695195 -13.956557
v 2.441337 5.561140 -13.909795
v 2.441337 5.361616 -13.906678
v 2.441337 5.208857 -13.825622
v 2.441337 5.205739 -13.785094
v 2.441337 5.246267 -13.732097
v 2.441337 5.296148 -13.663510
v 2.441337 5.423968 -13.598042
v 2.441337 6.010069 -14.305722
v 2.441337 6.050597 -14.449130
v 2.441337 6.259716 -14.446603
v 2.441337 6.247952 -14.394843
v 2.441337 6.299711 -14.307794
v 2.441337 6.252658 -14.277209
v 2.441337 6.269126 -14.237214
v 2.441337 6.247952 -14.232509
v 2.441337 6.252658 -14.180749
v 2.441337 6.349117 -14.190160
v 2.441337 6.349117 -14.213687
v 2.441337 6.410287 -14.211335
v 2.441337 6.417345 -14.187808
v 2.441337 6.476162 -14.183103
v 2.441337 6.473809 -14.147813
v 2.441337 6.520863 -14.121934
v 2.441337 6.485573 -14.053706
v 2.441337 6.466751 -14.056058
v 2.441337 6.443225 -14.086642
v 2.441337 6.405581 -14.086642
v 2.441337 6.405581 -14.058410
v 2.441337 6.344412 -14.046647
v 2.441337 6.342059 -14.063115
v 2.441337 6.252658 -14.065467
v 2.441337 6.250305 -14.114873
v 2.441337 6.151492 -14.131341
v 2.441337 6.142081 -14.081935
v 2.441337 6.080912 -14.091346
v 2.441337 6.078559 -14.044291
v 2.441337 6.118555 -14.058408
v 2.441337 6.135023 -14.058408
v 2.441337 6.139729 -13.992534
v 2.441337 6.097381 -13.983123
v 2.441337 6.080912 -13.983123
v 2.441337 6.059738 -13.964301
v 2.441337 6.029153 -13.964301
v 2.441337 6.029153 -13.976064
v 2.441337 5.932693 -13.980769
v 2.441337 5.916224 -13.994885
v 2.441337 5.859760 -13.959596
v 2.441337 5.920930 -13.839610
v 2.441337 5.878582 -13.825494
v 2.441337 5.899755 -13.724328
v 2.441337 5.866818 -13.721976
v 2.441337 5.876229 -13.698449
v 2.441337 5.899755 -13.679627
v 2.441337 5.946809 -13.679627
v 2.441337 5.965631 -13.651395
v 2.441337 5.878581 -13.569051
v 2.441337 5.887992 -13.554935
v 2.441337 5.876228 -13.545524
v 2.441337 5.850349 -13.571403
v 2.441337 5.862113 -13.587871
v 2.441337 5.819764 -13.646688
v 2.441337 5.808001 -13.634925
v 2.441337 5.777416 -13.644336
v 2.441337 5.751536 -13.649041
v 2.441337 5.728010 -13.618457
v 2.441337 5.692719 -13.641984
v 2.441337 5.650372 -13.545524
v 2.441337 5.629726 -13.532573
vn -1.0000 -0.0000 -0.0000
vn 1.0000 -0.0000 -0.0000
vn -0.0000 -0.9623 -0.2720
vn -0.0000 0.0905 -0.9959
vn -0.0000 -0.4061 -0.9138
vn -0.0000 -0.8462 -0.5328
vn -0.0000 -1.0000 -0.0000
vn -0.0000 -0.9948 -0.1020
vn -0.0000 -0.8240 -0.5665
vn -0.0000 -0.1592 -0.9872
vn -0.0000 -0.3294 -0.9442
vn -0.0000 -0.0156 -0.9999
vn -0.0000 -0.4687 -0.8833
vn -0.0000 -0.9971 -0.0767
vn -0.0000 -0.7944 0.6075
vn -0.0000 -0.8087 0.5882
vn -0.0000 -0.4559 0.8900
vn -0.0000 0.0121 -0.9999
vn -0.0000 0.9751 0.2216
vn -0.0000 0.8595 -0.5111
vn -0.0000 0.5450 0.8384
vn -0.0000 0.9247 -0.3808
vn -0.0000 0.2169 0.9762
vn -0.0000 0.9959 -0.0905
vn -0.0000 -0.0971 -0.9953
vn -0.0000 0.0384 -0.9993
vn -0.0000 0.9578 -0.2873
vn -0.0000 0.0797 -0.9968
vn -0.0000 0.9978 0.0665
vn -0.0000 0.4819 -0.8762
vn -0.0000 0.8882 0.4594
vn -0.0000 -0.1240 0.9923
vn -0.0000 -0.7926 0.6097
vn -0.0000 -0.0000 1.0000
vn -0.0000 1.0000 -0.0000
vn -0.0000 0.1888 0.9820
vn -0.0000 -0.9899 0.1414
vn -0.0000 -0.0263 0.9997
vn -0.0000 -0.9989 0.0476
vn -0.0000 -0.1644 0.9864
vn -0.0000 0.9823 0.1871
vn -0.0000 -0.1521 0.9884
vn -0.0000 0.9988 0.0499
vn -0.0000 -0.3328 -0.9430
vn -0.0000 -0.0000 -1.0000
vn -0.0000 0.9975 -0.0712
vn -0.0000 0.6644 0.7474
vn -0.0000 -0.0487 0.9988
vn -0.0000 -0.6508 0.7593
vn -0.0000 0.5300 0.8480
vn -0.0000 0.8909 -0.4542
vn -0.0000 0.3162 0.9487
vn -0.0000 0.9788 -0.2049
vn -0.0000 0.0712 0.9975
vn -0.0000 0.9285 -0.3714
vn -0.0000 0.6247 -0.7809
vn -0.0000 0.8321 -0.5547
vn -0.0000 0.6872 0.7265
vn -0.0000 0.6247 0.7809
vn -0.0000 -0.7071 0.7071
vn -0.0000 -0.8137 -0.5813
vn -0.0000 -0.8115 0.5843
vn -0.0000 0.7071 0.7071
vn -0.0000 -0.2941 0.9558
vn -0.0000 -0.1789 0.9839
vn -0.0000 0.7926 0.6097
vn -0.0000 -0.5547 0.8321
vn -0.0000 0.9156 0.4020
vn -0.0000 0.5314 0.8471
vn -0.0000 -0.3032 0.9529
vn -1.0000 0.0001 -0.0000
vn 1.0000 0.0006 -0.0000
vn -0.0000 0.9247 -0.3807
vn -0.0000 -0.6508 0.7592
vn -0.0000 -0.5547 0.8320
vt 0.000000 0.000000
s 0
f 53/1/1 51/1/1 45/1/1
f 120/1/2 123/1/2 126/1/2
f 15/1/3 91/1/3 90/1/3
f 15/1/4 76/1/4 1/1/4
f 1/1/5 77/1/5 2/1/5
f 2/1/6 78/1/6 3/1/6
f 3/1/7 79/1/7 4/1/7
f 4/1/8 80/1/8 5/1/8
f 5/1/9 81/1/9 6/1/9
f 7/1/10 81/1/10 82/1/10
f 7/1/11 83/1/11 8/1/11
f 9/1/12 83/1/12 84/1/12
f 9/1/13 85/1/13 10/1/13
f 10/1/14 86/1/14 11/1/14
f 11/1/15 87/1/15 12/1/15
f 12/1/16 88/1/16 13/1/16
f 13/1/17 89/1/17 14/1/17
f 16/1/18 92/1/18 91/1/18
f 18/1/19 92/1/19 17/1/19
f 19/1/20 93/1/20 18/1/20
f 20/1/21 94/1/21 19/1/21
f 21/1/22 95/1/22 20/1/22
f 22/1/23 96/1/23 21/1/23
f 23/1/24 97/1/24 22/1/24
f 24/1/25 98/1/25 23/1/25
f 25/1/7 99/1/7 24/1/7
f 25/1/26 101/1/26 100/1/26
f 27/1/27 101/1/27 26/1/27
f 28/1/28 102/1/28 27/1/28
f 29/1/29 103/1/29 28/1/29
f 30/1/30 104/1/30 29/1/30
f 31/1/31 105/1/31 30/1/31
f 32/1/32 106/1/32 31/1/32
f 33/1/33 107/1/33 32/1/33
f 34/1/34 108/1/34 33/1/34
f 35/1/35 109/1/35 34/1/35
f 36/1/36 110/1/36 35/1/36
f 37/1/37 111/1/37 36/1/37
f 38/1/38 112/1/38 37/1/38
f 39/1/39 113/1/39 38/1/39
f 40/1/40 114/1/40 39/1/40
f 41/1/41 115/1/41 40/1/41
f 42/1/42 116/1/42 41/1/42
f 43/1/43 117/1/43 42/1/43
f 44/1/44 118/1/44 43/1/44
f 45/1/45 119/1/45 44/1/45
f 46/1/46 120/1/46 45/1/46
f 47/1/23 121/1/23 46/1/23
f 48/1/34 122/1/34 47/1/34
f 49/1/47 123/1/47 48/1/47
f 50/1/34 124/1/34 49/1/34
f 51/1/7 125/1/7 50/1/7
f 52/1/48 126/1/48 51/1/48
f 53/1/49 127/1/49 52/1/49
f 54/1/50 128/1/50 53/1/50
f 55/1/51 129/1/51 54/1/51
f 56/1/52 130/1/52 55/1/52
f 57/1/53 131/1/53 56/1/53
f 58/1/54 132/1/54 57/1/54
f 59/1/55 133/1/55 58/1/55
f 60/1/56 134/1/56 59/1/56
f 61/1/45 135/1/45 60/1/45
f 62/1/57 136/1/57 61/1/57
f 63/1/58 137/1/58 62/1/58
f 64/1/57 138/1/57 63/1/57
f 65/1/59 139/1/59 64/1/59
f 66/1/60 140/1/60 65/1/60
f 67/1/61 141/1/61 66/1/61
f 68/1/62 142/1/62 67/1/62
f 69/1/63 143/1/63 68/1/63
f 70/1/64 144/1/64 69/1/64
f 71/1/65 145/1/65 70/1/65
f 72/1/66 146/1/66 71/1/66
f 73/1/67 147/1/67 72/1/67
f 74/1/68 148/1/68 73/1/68
f 75/1/69 149/1/69 74/1/69
f 14/1/70 150/1/70 75/1/70
f 15/1/1 1/1/1 2/1/1
f 2/1/1 3/1/1 4/1/1
f 2/1/1 4/1/1 5/1/1
f 17/1/1 16/1/1 15/1/1
f 15/1/1 2/1/1 5/1/1
f 6/1/1 7/1/1 8/1/1
f 17/1/1 15/1/1 5/1/1
f 17/1/1 5/1/1 6/1/1
f 20/1/1 19/1/1 18/1/1
f 18/1/1 17/1/1 6/1/1
f 8/1/1 9/1/1 10/1/1
f 20/1/1 18/1/1 6/1/1
f 8/1/1 10/1/1 11/1/1
f 6/1/1 8/1/1 11/1/1
f 12/1/1 13/1/1 14/1/1
f 6/1/1 11/1/1 12/1/1
f 22/1/1 21/1/1 20/1/1
f 22/1/1 20/1/1 6/1/1
f 6/1/1 12/1/1 14/1/1
f 14/1/1 75/1/1 74/1/1
f 73/1/1 72/1/1 71/1/1
f 14/1/1 74/1/1 73/1/1
f 23/1/1 22/1/1 6/1/1
f 26/1/1 25/1/1 24/1/1
f 6/1/1 14/1/1 73/1/1
f 6/1/1 73/1/1 71/1/1
f 27/1/1 26/1/1 24/1/1
f 29/1/1 28/1/1 27/1/1
f 31/1/1 30/1/1 29/1/1
f 33/1/1 32/1/1 31/1/1
f 36/1/1 35/1/1 34/1/1
f 33/1/1 31/1/1 29/1/1
f 37/1/1 36/1/1 34/1/1
f 34/1/1 33/1/1 29/1/1
f 29/1/1 27/1/1 24/1/1
f 6/1/1 71/1/1 70/1/1
f 70/1/1 69/1/1 68/1/1
f 67/1/1 66/1/1 65/1/1
f 6/1/1 70/1/1 68/1/1
f 67/1/1 65/1/1 64/1/1
f 6/1/1 68/1/1 67/1/1
f 29/1/1 24/1/1 23/1/1
f 37/1/1 34/1/1 29/1/1
f 39/1/1 38/1/1 37/1/1
f 42/1/1 41/1/1 40/1/1
f 39/1/1 37/1/1 29/1/1
f 40/1/1 39/1/1 29/1/1
f 67/1/71 64/1/71 63/1/71
f 63/1/1 62/1/1 61/1/1
f 63/1/1 61/1/1 60/1/1
f 6/1/1 67/1/1 63/1/1
f 40/1/1 29/1/1 23/1/1
f 40/1/1 23/1/1 6/1/1
f 63/1/1 60/1/1 59/1/1
f 58/1/1 57/1/1 56/1/1
f 63/1/1 59/1/1 58/1/1
f 42/1/1 40/1/1 6/1/1
f 45/1/1 44/1/1 43/1/1
f 43/1/1 42/1/1 6/1/1
f 6/1/1 63/1/1 58/1/1
f 56/1/1 55/1/1 54/1/1
f 6/1/1 58/1/1 56/1/1
f 45/1/1 43/1/1 6/1/1
f 47/1/1 46/1/1 45/1/1
f 50/1/1 49/1/1 48/1/1
f 48/1/1 47/1/1 45/1/1
f 6/1/1 56/1/1 54/1/1
f 53/1/1 52/1/1 51/1/1
f 6/1/1 54/1/1 53/1/1
f 50/1/1 48/1/1 45/1/1
f 51/1/1 50/1/1 45/1/1
f 45/1/1 6/1/1 53/1/1
f 90/1/2 91/1/2 92/1/2
f 93/1/2 94/1/2 95/1/2
f 90/1/2 92/1/2 93/1/2
f 77/1/2 76/1/2 90/1/2
f 79/1/2 78/1/2 77/1/2
f 80/1/2 79/1/2 77/1/2
f 90/1/2 93/1/2 95/1/2
f 80/1/2 77/1/2 90/1/2
f 83/1/2 82/1/2 81/1/2
f 80/1/2 90/1/2 95/1/2
f 81/1/2 80/1/2 95/1/2
f 95/1/2 96/1/2 97/1/2
f 81/1/2 95/1/2 97/1/2
f 85/1/2 84/1/2 83/1/2
f 81/1/2 97/1/2 98/1/2
f 86/1/2 85/1/2 83/1/2
f 86/1/2 83/1/2 81/1/2
f 89/1/2 88/1/2 87/1/2
f 87/1/2 86/1/2 81/1/2
f 99/1/2 100/1/2 101/1/2
f 102/1/2 103/1/2 104/1/2
f 99/1/2 101/1/2 102/1/2
f 89/1/2 87/1/2 81/1/2
f 149/1/2 150/1/2 89/1/2
f 146/1/2 147/1/2 148/1/2
f 148/1/2 149/1/2 89/1/2
f 98/1/2 99/1/2 102/1/2
f 104/1/2 105/1/2 106/1/2
f 98/1/2 102/1/2 104/1/2
f 148/1/2 89/1/2 81/1/2
f 146/1/2 148/1/2 81/1/2
f 104/1/2 106/1/2 107/1/2
f 104/1/2 107/1/2 108/1/2
f 145/1/2 146/1/2 81/1/2
f 143/1/2 144/1/2 145/1/2
f 140/1/2 141/1/2 142/1/2
f 143/1/2 145/1/2 81/1/2
f 139/1/2 140/1/2 142/1/2
f 142/1/2 143/1/2 81/1/2
f 98/1/2 104/1/2 108/1/2
f 109/1/2 110/1/2 111/1/2
f 98/1/2 108/1/2 109/1/2
f 138/1/2 139/1/2 142/1/2
f 136/1/2 137/1/2 138/1/2
f 135/1/2 136/1/2 138/1/2
f 138/1/2 142/1/2 81/1/2
f 109/1/2 111/1/2 112/1/2
f 112/1/2 113/1/2 114/1/2
f 115/1/2 116/1/2 117/1/2
f 109/1/2 112/1/2 114/1/2
f 98/1/2 109/1/2 114/1/2
f 134/1/2 135/1/2 138/1/2
f 131/1/2 132/1/2 133/1/2
f 133/1/2 134/1/2 138/1/2
f 98/1/2 114/1/2 115/1/2
f 81/1/2 98/1/2 115/1/2
f 133/1/2 138/1/2 81/1/2
f 129/1/2 130/1/2 131/1/2
f 131/1/2 133/1/2 81/1/2
f 81/1/2 115/1/2 117/1/2
f 118/1/2 119/1/2 120/1/2
f 81/1/2 117/1/2 118/1/2
f 129/1/2 131/1/2 81/1/2
f 126/1/2 127/1/2 128/1/2
f 128/1/2 129/1/2 81/1/2
f 81/1/72 118/1/72 120/1/72
f 120/1/2 121/1/2 122/1/2
f 123/1/2 124/1/2 125/1/2
f 120/1/2 122/1/2 123/1/2
f 128/1/2 81/1/2 120/1/2
f 123/1/2 125/1/2 126/1/2
f 126/1/2 128/1/2 120/1/2
f 15/1/3 16/1/3 91/1/3
f 15/1/4 90/1/4 76/1/4
f 1/1/5 76/1/5 77/1/5
f 2/1/6 77/1/6 78/1/6
f 3/1/7 78/1/7 79/1/7
f 4/1/8 79/1/8 80/1/8
f 5/1/9 80/1/9 81/1/9
f 7/1/10 6/1/10 81/1/10
f 7/1/11 82/1/11 83/1/11
f 9/1/12 8/1/12 83/1/12
f 9/1/13 84/1/13 85/1/13
f 10/1/14 85/1/14 86/1/14
f 11/1/15 86/1/15 87/1/15
f 12/1/16 87/1/16 88/1/16
f 13/1/17 88/1/17 89/1/17
f 16/1/18 17/1/18 92/1/18
f 18/1/19 93/1/19 92/1/19
f 19/1/20 94/1/20 93/1/20
f 20/1/21 95/1/21 94/1/21
f 21/1/73 96/1/73 95/1/73
f 22/1/23 97/1/23 96/1/23
f 23/1/24 98/1/24 97/1/24
f 24/1/25 99/1/25 98/1/25
f 25/1/7 100/1/7 99/1/7
f 25/1/26 26/1/26 101/1/26
f 27/1/27 102/1/27 101/1/27
f 28/1/28 103/1/28 102/1/28
f 29/1/29 104/1/29 103/1/29
f 30/1/30 105/1/30 104/1/30
f 31/1/31 106/1/31 105/1/31
f 32/1/32 107/1/32 106/1/32
f 33/1/33 108/1/33 107/1/33
f 34/1/34 109/1/34 108/1/34
f 35/1/35 110/1/35 109/1/35
f 36/1/36 111/1/36 110/1/36
f 37/1/37 112/1/37 111/1/37
f 38/1/38 113/1/38 112/1/38
f 39/1/39 114/1/39 113/1/39
f 40/1/40 115/1/40 114/1/40
f 41/1/41 116/1/41 115/1/41
f 42/1/42 117/1/42 116/1/42
f 43/1/43 118/1/43 117/1/43
f 44/1/44 119/1/44 118/1/44
f 45/1/45 120/1/45 119/1/45
f 46/1/46 121/1/46 120/1/46
f 47/1/23 122/1/23 121/1/23
f 48/1/34 123/1/34 122/1/34
f 49/1/47 124/1/47 123/1/47
f 50/1/34 125/1/34 124/1/34
f 51/1/7 126/1/7 125/1/7
f 52/1/48 127/1/48 126/1/48
f 53/1/74 128/1/74 127/1/74
f 54/1/50 129/1/50 128/1/50
f 55/1/51 130/1/51 129/1/51
f 56/1/52 131/1/52 130/1/52
f 57/1/53 132/1/53 131/1/53
f 58/1/54 133/1/54 132/1/54
f 59/1/55 134/1/55 133/1/55
f 60/1/56 135/1/56 134/1/56
f 61/1/45 136/1/45 135/1/45
f 62/1/57 137/1/57 136/1/57
f 63/1/58 138/1/58 137/1/58
f 64/1/57 139/1/57 138/1/57
f 65/1/59 140/1/59 139/1/59
f 66/1/60 141/1/60 140/1/60
f 67/1/61 142/1/61 141/1/61
f 68/1/62 143/1/62 142/1/62
f 69/1/63 144/1/63 143/1/63
f 70/1/64 145/1/64 144/1/64
f 71/1/65 146/1/65 145/1/65
f 72/1/66 147/1/66 146/1/66
f 73/1/75 148/1/75 147/1/75
f 74/1/68 149/1/68 148/1/68
f 75/1/69 150/1/69 149/1/69
f 14/1/70 89/1/70 150/1/70
