# Blender 5.2.0 LTS
# www.blender.org
mtllib Maine-2.mtl
o Plane.054
v 1.441337 5.698314 -13.510751
v 1.441337 6.727107 -13.183408
v 1.441337 6.259716 -14.446603
v 1.441337 6.332417 -14.471128
v 1.441337 6.398651 -14.438954
v 1.441337 6.433883 -14.503774
v 1.441337 6.418469 -14.514598
v 1.441337 6.326883 -14.586892
v 1.441337 6.628450 -15.028363
v 1.441337 6.572490 -15.012818
v 1.441337 6.460567 -14.907115
v 1.441337 6.488548 -14.885352
v 1.441337 6.479221 -14.844935
v 1.441337 6.407716 -14.851153
v 1.441337 6.361081 -14.891570
v 1.441337 6.336210 -14.776540
v 1.441337 6.398389 -14.733014
v 1.441337 6.445023 -14.751668
v 1.441337 6.476112 -14.739232
v 1.441337 6.488548 -14.708142
v 1.441337 6.417043 -14.664617
v 1.441337 6.305120 -14.705033
v 1.441337 6.214961 -14.677052
v 1.441337 6.208743 -14.655290
v 1.441337 6.255378 -14.611764
v 1.441337 6.305120 -14.614873
v 1.441337 7.456367 -14.950868
v 1.441337 7.462955 -14.817412
v 1.441337 7.525204 -14.773353
v 1.441337 8.500998 -14.461596
v 1.441337 8.656877 -14.181016
v 1.441337 8.438647 -13.959670
v 1.441337 8.429295 -13.919143
v 1.441337 8.435530 -13.856791
v 1.441337 8.550879 -13.735208
v 1.441337 8.532174 -13.672856
v 1.441337 8.133127 -13.579329
v 1.441337 8.052071 -13.507627
v 1.441337 7.880605 -13.507627
v 1.441337 7.677963 -13.510743
v 1.441337 7.593789 -13.432805
v 1.441337 7.394266 -13.442157
v 1.441337 7.288269 -13.513860
v 1.441337 7.054452 -13.339276
v 1.441337 6.823753 -13.323689
v 1.441337 6.761402 -13.326806
v 1.441337 6.761402 -13.308101
v 1.441337 6.776990 -13.283160
v 1.441337 6.653321 -15.093652
v 1.441337 6.594252 -15.149613
v 1.441337 6.640886 -15.171376
v 1.441337 6.684411 -15.115415
v 1.441337 6.706174 -15.168267
v 1.441337 6.762135 -15.202466
v 1.441337 6.799441 -15.177594
v 1.441337 6.836749 -15.233556
v 1.441337 6.787005 -15.249101
v 1.441337 6.746590 -15.249101
v 1.441337 6.771461 -15.277081
v 1.441337 6.954888 -15.392112
v 1.441337 6.985977 -15.357913
v 1.441337 7.066810 -15.295733
v 1.441337 7.169405 -15.214902
v 1.441337 7.178732 -15.165158
v 1.441337 7.119662 -15.137177
v 1.441337 7.200495 -15.034583
v 1.441337 7.240911 -15.031474
v 1.441337 7.303089 -15.034583
v 1.441337 7.343506 -14.981730
v 1.441337 7.365268 -14.981730
v 1.441337 7.374595 -15.009711
v 1.441337 7.439882 -14.991057
v 1.441337 6.247952 -14.394843
v 1.441337 6.299711 -14.307794
v 1.441337 6.252658 -14.277209
v 1.441337 6.269127 -14.237214
v 1.441337 6.247952 -14.232509
v 1.441337 6.252658 -14.180749
v 1.441337 6.349118 -14.190160
v 1.441337 6.349118 -14.213687
v 1.441337 6.410288 -14.211335
v 1.441337 6.417346 -14.187808
v 1.441337 6.476163 -14.183103
v 1.441337 6.473810 -14.147813
v 1.441337 6.520864 -14.121934
v 1.441337 6.485573 -14.053706
v 1.441337 6.466752 -14.056058
v 1.441337 6.443225 -14.086642
v 1.441337 6.405582 -14.086642
v 1.441337 6.405582 -14.058410
v 1.441337 6.344413 -14.046647
v 1.441337 6.342060 -14.063115
v 1.441337 6.252658 -14.065467
v 1.441337 6.250305 -14.114873
v 1.441337 6.151493 -14.131341
v 1.441337 6.142082 -14.081935
v 1.441337 6.080913 -14.091346
v 1.441337 6.078560 -14.044291
v 1.441337 6.118555 -14.058408
v 1.441337 6.135024 -14.058408
v 1.441337 6.139729 -13.992534
v 1.441337 6.097381 -13.983123
v 1.441337 6.080913 -13.983123
v 1.441337 6.059738 -13.964301
v 1.441337 6.029154 -13.964301
v 1.441337 6.029154 -13.976064
v 1.441337 5.932693 -13.980769
v 1.441337 5.916225 -13.994885
v 1.441337 5.859761 -13.959596
v 1.441337 5.920931 -13.839610
v 1.441337 5.878582 -13.825494
v 1.441337 5.899756 -13.724328
v 1.441337 5.866818 -13.721976
v 1.441337 5.876229 -13.698449
v 1.441337 5.899756 -13.679627
v 1.441337 5.946810 -13.679627
v 1.441337 5.965631 -13.651395
v 1.441337 5.878582 -13.569051
v 1.441337 5.887993 -13.554935
v 1.441337 5.876229 -13.545524
v 1.441337 5.850349 -13.571403
v 1.441337 5.862113 -13.587871
v 1.441337 5.819765 -13.646688
v 1.441337 5.808002 -13.634925
v 1.441337 5.777416 -13.644336
v 1.441337 5.751537 -13.649041
v 1.441337 5.728010 -13.618457
v 1.441337 5.692720 -13.641984
v 1.441337 5.650372 -13.545524
v 1.441337 5.629727 -13.532573
v 2.441337 5.698314 -13.510751
v 2.441337 6.727107 -13.183408
v 2.441337 6.259716 -14.446603
v 2.441337 6.332417 -14.471128
v 2.441337 6.398651 -14.438954
v 2.441337 6.433883 -14.503774
v 2.441337 6.418469 -14.514598
v 2.441337 6.326883 -14.586892
v 2.441337 6.628450 -15.028363
v 2.441337 6.572490 -15.012818
v 2.441337 6.460567 -14.907115
v 2.441337 6.488548 -14.885352
v 2.441337 6.479221 -14.844935
v 2.441337 6.407716 -14.851153
v 2.441337 6.361081 -14.891570
v 2.441337 6.336210 -14.776540
v 2.441337 6.398389 -14.733014
v 2.441337 6.445023 -14.751668
v 2.441337 6.476112 -14.739232
v 2.441337 6.488548 -14.708142
v 2.441337 6.417043 -14.664617
v 2.441337 6.305120 -14.705033
v 2.441337 6.214961 -14.677052
v 2.441337 6.208743 -14.655290
v 2.441337 6.255378 -14.611764
v 2.441337 6.305120 -14.614873
v 2.441337 7.456367 -14.950868
v 2.441337 7.462955 -14.817412
v 2.441337 7.525204 -14.773353
v 2.441337 8.500998 -14.461596
v 2.441337 8.656877 -14.181016
v 2.441337 8.438647 -13.959670
v 2.441337 8.429295 -13.919143
v 2.441337 8.435530 -13.856791
v 2.441337 8.550879 -13.735208
v 2.441337 8.532174 -13.672856
v 2.441337 8.133127 -13.579329
v 2.441337 8.052071 -13.507627
v 2.441337 7.880605 -13.507627
v 2.441337 7.677963 -13.510743
v 2.441337 7.593789 -13.432805
v 2.441337 7.394266 -13.442157
v 2.441337 7.288269 -13.513860
v 2.441337 7.054452 -13.339276
v 2.441337 6.823753 -13.323689
v 2.441337 6.761402 -13.326806
v 2.441337 6.761402 -13.308101
v 2.441337 6.776990 -13.283160
v 2.441337 6.653321 -15.093652
v 2.441337 6.594252 -15.149613
v 2.441337 6.640886 -15.171376
v 2.441337 6.684411 -15.115415
v 2.441337 6.706174 -15.168267
v 2.441337 6.762135 -15.202466
v 2.441337 6.799441 -15.177594
v 2.441337 6.836749 -15.233556
v 2.441337 6.787005 -15.249101
v 2.441337 6.746590 -15.249101
v 2.441337 6.771461 -15.277081
v 2.441337 6.954888 -15.392112
v 2.441337 6.985977 -15.357913
v 2.441337 7.066810 -15.295733
v 2.441337 7.169405 -15.214902
v 2.441337 7.178732 -15.165158
v 2.441337 7.119662 -15.137177
v 2.441337 7.200495 -15.034583
v 2.441337 7.240911 -15.031474
v 2.441337 7.303089 -15.034583
v 2.441337 7.343506 -14.981730
v 2.441337 7.365268 -14.981730
v 2.441337 7.374595 -15.009711
v 2.441337 7.439882 -14.991057
v 2.441337 6.247952 -14.394843
v 2.441337 6.299711 -14.307794
v 2.441337 6.252658 -14.277209
v 2.441337 6.269127 -14.237214
v 2.441337 6.247952 -14.232509
v 2.441337 6.252658 -14.180749
v 2.441337 6.349118 -14.190160
v 2.441337 6.349118 -14.213687
v 2.441337 6.410288 -14.211335
v 2.441337 6.417346 -14.187808
v 2.441337 6.476163 -14.183103
v 2.441337 6.473810 -14.147813
v 2.441337 6.520864 -14.121934
v 2.441337 6.485573 -14.053706
v 2.441337 6.466752 -14.056058
v 2.441337 6.443225 -14.086642
v 2.441337 6.405582 -14.086642
v 2.441337 6.405582 -14.058410
v 2.441337 6.344413 -14.046647
v 2.441337 6.342060 -14.063115
v 2.441337 6.252658 -14.065467
v 2.441337 6.250305 -14.114873
v 2.441337 6.151493 -14.131341
v 2.441337 6.142082 -14.081935
v 2.441337 6.080913 -14.091346
v 2.441337 6.078560 -14.044291
v 2.441337 6.118555 -14.058408
v 2.441337 6.135024 -14.058408
v 2.441337 6.139729 -13.992534
v 2.441337 6.097381 -13.983123
v 2.441337 6.080913 -13.983123
v 2.441337 6.059738 -13.964301
v 2.441337 6.029154 -13.964301
v 2.441337 6.029154 -13.976064
v 2.441337 5.932693 -13.980769
v 2.441337 5.916225 -13.994885
v 2.441337 5.859761 -13.959596
v 2.441337 5.920931 -13.839610
v 2.441337 5.878582 -13.825494
v 2.441337 5.899756 -13.724328
v 2.441337 5.866818 -13.721976
v 2.441337 5.876229 -13.698449
v 2.441337 5.899756 -13.679627
v 2.441337 5.946810 -13.679627
v 2.441337 5.965631 -13.651395
v 2.441337 5.878582 -13.569051
v 2.441337 5.887993 -13.554935
v 2.441337 5.876229 -13.545524
v 2.441337 5.850349 -13.571403
v 2.441337 5.862113 -13.587871
v 2.441337 5.819765 -13.646688
v 2.441337 5.808002 -13.634925
v 2.441337 5.777416 -13.644336
v 2.441337 5.751537 -13.649041
v 2.441337 5.728010 -13.618457
v 2.441337 5.692720 -13.641984
v 2.441337 5.650372 -13.545524
v 2.441337 5.629727 -13.532573
vn -1.0000 -0.0000 -0.0000
vn 1.0000 -0.0000 -0.0000
vn -0.0000 -0.3032 0.9529
vn -0.0000 -0.3196 -0.9475
vn -0.0000 0.4369 -0.8995
vn -0.0000 -0.8786 -0.4776
vn -0.0000 -0.5747 0.8184
vn -0.0000 -0.6196 0.7849
vn -0.0000 -0.9345 -0.3560
vn -0.0000 -0.2676 -0.9635
vn -0.0000 -0.6866 -0.7270
vn -0.0000 -0.6139 0.7894
vn -0.0000 -0.9744 -0.2249
vn -0.0000 0.0866 -0.9962
vn -0.0000 0.6549 -0.7557
vn -0.0000 -0.9774 -0.2113
vn -0.0000 -0.5735 0.8192
vn -0.0000 0.3714 0.9285
vn -0.0000 -0.3714 0.9285
vn -0.0000 -0.9285 0.3714
vn -0.0000 -0.5200 -0.8542
vn -0.0000 0.3396 -0.9406
vn -0.0000 -0.2964 -0.9551
vn -0.0000 -0.9615 -0.2747
vn -0.0000 -0.6823 0.7311
vn -0.0000 0.0624 0.9981
vn -0.0000 -0.7894 0.6139
vn -0.0000 0.9988 -0.0493
vn -0.0000 0.5777 -0.8162
vn -0.0000 0.3043 -0.9526
vn -0.0000 0.8742 -0.4856
vn -0.0000 0.7121 0.7021
vn -0.0000 0.9744 0.2249
vn -0.0000 0.9950 -0.0995
vn -0.0000 0.7255 -0.6883
vn -0.0000 0.9578 0.2873
vn -0.0000 0.2282 0.9736
vn -0.0000 0.6626 0.7490
vn -0.0000 -0.0000 1.0000
vn -0.0000 -0.0154 0.9999
vn -0.0000 0.6794 0.7338
vn -0.0000 -0.0468 0.9989
vn -0.0000 -0.5603 0.8283
vn -0.0000 0.5983 0.8013
vn -0.0000 0.0674 0.9977
vn -0.0000 -0.0499 0.9988
vn -0.0000 1.0000 -0.0000
vn -0.0000 0.8480 -0.5300
vn -0.0000 0.8944 0.4473
vn -0.0000 -0.6878 0.7259
vn -0.0000 -0.4229 -0.9062
vn -0.0000 0.7894 -0.6139
vn -0.0000 -0.9247 -0.3807
vn -0.0000 -0.5215 -0.8533
vn -0.0000 0.5547 -0.8321
vn -0.0000 -0.8321 -0.5547
vn -0.0000 -0.2983 0.9545
vn -0.0000 -0.7474 -0.6644
vn -0.0000 -0.5313 -0.8472
vn -0.0000 0.7399 -0.6727
vn -0.0000 0.6097 -0.7926
vn -0.0000 0.6189 -0.7855
vn -0.0000 0.9829 -0.1843
vn -0.0000 0.4281 0.9037
vn -0.0000 0.7855 -0.6189
vn -0.0000 0.0767 -0.9971
vn -0.0000 -0.0499 -0.9988
vn -0.0000 0.7944 -0.6074
vn -0.0000 -0.0000 -1.0000
vn -0.0000 -0.9487 -0.3162
vn -0.0000 0.2747 -0.9615
vn -0.0000 0.9252 -0.3795
vn -0.0000 -0.9751 -0.2216
vn -0.0000 -0.8595 0.5111
vn -0.0000 -0.5450 -0.8384
vn -0.0000 -0.9247 0.3807
vn -0.0000 -0.2169 -0.9762
vn -0.0000 -0.9959 0.0905
vn -0.0000 0.0971 0.9953
vn -0.0000 -0.0384 0.9993
vn -0.0000 -0.9578 0.2873
vn -0.0000 -0.0797 0.9968
vn -0.0000 -0.9978 -0.0665
vn -0.0000 -0.4819 0.8762
vn -0.0000 -0.8882 -0.4594
vn -0.0000 0.1240 -0.9923
vn -0.0000 0.7926 -0.6097
vn -0.0000 -1.0000 -0.0000
vn -0.0000 -0.1888 -0.9820
vn -0.0000 0.9899 -0.1414
vn -0.0000 0.0263 -0.9997
vn -0.0000 0.9989 -0.0476
vn -0.0000 0.1644 -0.9864
vn -0.0000 -0.9823 -0.1871
vn -0.0000 0.1521 -0.9884
vn -0.0000 -0.9988 -0.0499
vn -0.0000 0.3328 0.9430
vn -0.0000 -0.9975 0.0712
vn -0.0000 -0.6644 -0.7474
vn -0.0000 0.0487 -0.9988
vn -0.0000 0.6508 -0.7592
vn -0.0000 -0.5300 -0.8480
vn -0.0000 -0.8909 0.4542
vn -0.0000 -0.3162 -0.9487
vn -0.0000 -0.9788 0.2049
vn -0.0000 -0.0712 -0.9975
vn -0.0000 -0.6247 0.7809
vn -0.0000 -0.8321 0.5547
vn -0.0000 -0.6872 -0.7265
vn -0.0000 -0.6247 -0.7809
vn -0.0000 0.7071 -0.7071
vn -0.0000 0.8137 0.5813
vn -0.0000 0.8115 -0.5843
vn -0.0000 -0.7071 -0.7071
vn -0.0000 0.2941 -0.9558
vn -0.0000 0.1789 -0.9839
vn -0.0000 -0.7926 -0.6097
vn -0.0000 0.5547 -0.8320
vn -0.0000 -0.9156 -0.4020
vn -0.0000 -0.5314 -0.8471
vn -1.0000 0.0011 -0.0000
vn -0.0000 -0.6140 0.7893
vn -0.0000 -0.6823 0.7310
vn -0.0000 0.9744 0.2248
vn -0.0000 -0.7474 -0.6643
vn -0.0000 0.7400 -0.6727
vn -0.0000 0.7944 -0.6075
vn -0.0000 -0.9247 0.3808
vn -0.0000 0.6508 -0.7593
vt 0.000000 0.000000
s 0
f 32/1/1 20/1/1 21/1/1
f 136/1/2 151/1/2 150/1/2
f 1/1/3 132/1/3 2/1/3
f 4/1/4 133/1/4 3/1/4
f 5/1/5 134/1/5 4/1/5
f 6/1/6 135/1/6 5/1/6
f 7/1/7 136/1/7 6/1/7
f 8/1/8 137/1/8 7/1/8
f 49/1/9 139/1/9 9/1/9
f 9/1/10 140/1/10 10/1/10
f 10/1/11 141/1/11 11/1/11
f 11/1/12 142/1/12 12/1/12
f 12/1/13 143/1/13 13/1/13
f 13/1/14 144/1/14 14/1/14
f 14/1/15 145/1/15 15/1/15
f 15/1/16 146/1/16 16/1/16
f 16/1/17 147/1/17 17/1/17
f 17/1/18 148/1/18 18/1/18
f 18/1/19 149/1/19 19/1/19
f 19/1/20 150/1/20 20/1/20
f 20/1/21 151/1/21 21/1/21
f 21/1/22 152/1/22 22/1/22
f 22/1/23 153/1/23 23/1/23
f 23/1/24 154/1/24 24/1/24
f 24/1/25 155/1/25 25/1/25
f 25/1/26 156/1/26 26/1/26
f 26/1/27 138/1/27 8/1/27
f 28/1/28 157/1/28 27/1/28
f 29/1/29 158/1/29 28/1/29
f 30/1/30 159/1/30 29/1/30
f 31/1/31 160/1/31 30/1/31
f 32/1/32 161/1/32 31/1/32
f 33/1/33 162/1/33 32/1/33
f 34/1/34 163/1/34 33/1/34
f 35/1/35 164/1/35 34/1/35
f 36/1/36 165/1/36 35/1/36
f 37/1/37 166/1/37 36/1/37
f 38/1/38 167/1/38 37/1/38
f 39/1/39 168/1/39 38/1/39
f 40/1/40 169/1/40 39/1/40
f 41/1/41 170/1/41 40/1/41
f 42/1/42 171/1/42 41/1/42
f 43/1/43 172/1/43 42/1/43
f 44/1/44 173/1/44 43/1/44
f 45/1/45 174/1/45 44/1/45
f 46/1/46 175/1/46 45/1/46
f 47/1/47 176/1/47 46/1/47
f 48/1/48 177/1/48 47/1/48
f 2/1/49 178/1/49 48/1/49
f 50/1/50 179/1/50 49/1/50
f 51/1/51 180/1/51 50/1/51
f 52/1/52 181/1/52 51/1/52
f 53/1/53 182/1/53 52/1/53
f 54/1/54 183/1/54 53/1/54
f 55/1/55 184/1/55 54/1/55
f 56/1/56 185/1/56 55/1/56
f 57/1/57 186/1/57 56/1/57
f 58/1/39 187/1/39 57/1/39
f 59/1/58 188/1/58 58/1/58
f 60/1/59 189/1/59 59/1/59
f 61/1/60 190/1/60 60/1/60
f 62/1/61 191/1/61 61/1/61
f 63/1/62 192/1/62 62/1/62
f 64/1/63 193/1/63 63/1/63
f 65/1/64 194/1/64 64/1/64
f 66/1/65 195/1/65 65/1/65
f 67/1/66 196/1/66 66/1/66
f 68/1/67 197/1/67 67/1/67
f 69/1/68 198/1/68 68/1/68
f 70/1/69 199/1/69 69/1/69
f 71/1/70 200/1/70 70/1/70
f 72/1/71 201/1/71 71/1/71
f 27/1/72 202/1/72 72/1/72
f 3/1/73 203/1/73 73/1/73
f 73/1/74 204/1/74 74/1/74
f 74/1/75 205/1/75 75/1/75
f 75/1/76 206/1/76 76/1/76
f 76/1/77 207/1/77 77/1/77
f 77/1/78 208/1/78 78/1/78
f 78/1/79 209/1/79 79/1/79
f 79/1/47 210/1/47 80/1/47
f 80/1/80 211/1/80 81/1/80
f 81/1/81 212/1/81 82/1/81
f 82/1/82 213/1/82 83/1/82
f 83/1/83 214/1/83 84/1/83
f 84/1/84 215/1/84 85/1/84
f 85/1/85 216/1/85 86/1/85
f 86/1/86 217/1/86 87/1/86
f 87/1/87 218/1/87 88/1/87
f 88/1/69 219/1/69 89/1/69
f 89/1/88 220/1/88 90/1/88
f 90/1/89 221/1/89 91/1/89
f 91/1/90 222/1/90 92/1/90
f 92/1/91 223/1/91 93/1/91
f 93/1/92 224/1/92 94/1/92
f 94/1/93 225/1/93 95/1/93
f 95/1/94 226/1/94 96/1/94
f 96/1/95 227/1/95 97/1/95
f 97/1/96 228/1/96 98/1/96
f 98/1/97 229/1/97 99/1/97
f 99/1/39 230/1/39 100/1/39
f 100/1/98 231/1/98 101/1/98
f 101/1/77 232/1/77 102/1/77
f 102/1/69 233/1/69 103/1/69
f 103/1/99 234/1/99 104/1/99
f 104/1/69 235/1/69 105/1/69
f 105/1/47 236/1/47 106/1/47
f 106/1/100 237/1/100 107/1/100
f 107/1/101 238/1/101 108/1/101
f 108/1/102 239/1/102 109/1/102
f 109/1/103 240/1/103 110/1/103
f 110/1/104 241/1/104 111/1/104
f 111/1/105 242/1/105 112/1/105
f 112/1/106 243/1/106 113/1/106
f 113/1/20 244/1/20 114/1/20
f 114/1/107 245/1/107 115/1/107
f 115/1/39 246/1/39 116/1/39
f 116/1/108 247/1/108 117/1/108
f 117/1/109 248/1/109 118/1/109
f 118/1/108 249/1/108 119/1/108
f 119/1/110 250/1/110 120/1/110
f 120/1/111 251/1/111 121/1/111
f 121/1/112 252/1/112 122/1/112
f 122/1/113 253/1/113 123/1/113
f 123/1/114 254/1/114 124/1/114
f 124/1/115 255/1/115 125/1/115
f 125/1/116 256/1/116 126/1/116
f 126/1/117 257/1/117 127/1/117
f 127/1/118 258/1/118 128/1/118
f 128/1/119 259/1/119 129/1/119
f 129/1/120 260/1/120 130/1/120
f 130/1/3 131/1/3 1/1/3
f 1/1/1 2/1/1 48/1/1
f 1/1/1 48/1/1 47/1/1
f 129/1/1 130/1/1 1/1/1
f 127/1/1 128/1/1 129/1/1
f 125/1/1 126/1/1 127/1/1
f 122/1/1 123/1/1 124/1/1
f 124/1/1 125/1/1 127/1/1
f 127/1/1 129/1/1 1/1/1
f 1/1/1 47/1/1 46/1/1
f 46/1/1 45/1/1 44/1/1
f 43/1/1 42/1/1 41/1/1
f 46/1/1 44/1/1 43/1/1
f 124/1/1 127/1/1 1/1/1
f 121/1/1 122/1/1 124/1/1
f 121/1/1 124/1/1 1/1/1
f 1/1/1 46/1/1 43/1/1
f 43/1/1 41/1/1 40/1/1
f 40/1/1 39/1/1 38/1/1
f 37/1/1 36/1/1 35/1/1
f 40/1/1 38/1/1 37/1/1
f 43/1/1 40/1/1 37/1/1
f 37/1/1 35/1/1 34/1/1
f 37/1/1 34/1/1 33/1/1
f 1/1/1 43/1/1 37/1/1
f 120/1/1 121/1/1 1/1/1
f 117/1/1 118/1/1 119/1/1
f 120/1/1 1/1/1 37/1/1
f 119/1/1 120/1/1 37/1/1
f 37/1/1 33/1/1 32/1/1
f 32/1/1 31/1/1 30/1/1
f 32/1/1 30/1/1 29/1/1
f 119/1/1 37/1/1 32/1/1
f 117/1/1 119/1/1 32/1/1
f 32/1/1 29/1/1 28/1/1
f 28/1/1 27/1/1 72/1/1
f 72/1/1 71/1/1 70/1/1
f 69/1/1 68/1/1 67/1/1
f 28/1/1 72/1/1 70/1/1
f 69/1/1 67/1/1 66/1/1
f 28/1/1 70/1/1 69/1/1
f 116/1/1 117/1/1 32/1/1
f 114/1/1 115/1/1 116/1/1
f 112/1/1 113/1/1 114/1/1
f 110/1/1 111/1/1 112/1/1
f 108/1/1 109/1/1 110/1/1
f 105/1/1 106/1/1 107/1/1
f 107/1/1 108/1/1 110/1/1
f 112/1/1 114/1/1 116/1/1
f 105/1/1 107/1/1 110/1/1
f 110/1/1 112/1/1 116/1/1
f 28/1/1 69/1/1 66/1/1
f 65/1/1 64/1/1 63/1/1
f 32/1/1 28/1/1 66/1/1
f 65/1/1 63/1/1 62/1/1
f 65/1/1 62/1/1 61/1/1
f 61/1/1 60/1/1 59/1/1
f 59/1/1 58/1/1 57/1/1
f 59/1/1 57/1/1 56/1/1
f 65/1/1 61/1/1 59/1/1
f 66/1/1 65/1/1 59/1/1
f 66/1/1 59/1/1 56/1/1
f 110/1/1 116/1/1 32/1/1
f 104/1/1 105/1/1 110/1/1
f 102/1/1 103/1/1 104/1/1
f 101/1/1 102/1/1 104/1/1
f 104/1/1 110/1/1 32/1/1
f 32/1/1 66/1/1 56/1/1
f 55/1/1 54/1/1 53/1/1
f 32/1/1 56/1/1 55/1/1
f 101/1/1 104/1/1 32/1/1
f 32/1/1 55/1/1 53/1/1
f 52/1/1 51/1/1 50/1/1
f 32/1/1 53/1/1 52/1/1
f 97/1/1 98/1/1 99/1/1
f 94/1/1 95/1/1 96/1/1
f 96/1/1 97/1/1 99/1/1
f 96/1/1 99/1/1 100/1/1
f 93/1/1 94/1/1 96/1/1
f 91/1/1 92/1/1 93/1/1
f 88/1/1 89/1/1 90/1/1
f 91/1/1 93/1/1 96/1/1
f 87/1/1 88/1/1 90/1/1
f 91/1/1 96/1/1 100/1/1
f 87/1/1 90/1/1 91/1/1
f 86/1/1 87/1/1 91/1/1
f 91/1/1 100/1/1 101/1/1
f 32/1/1 52/1/1 50/1/1
f 32/1/1 50/1/1 49/1/1
f 91/1/1 101/1/1 32/1/1
f 86/1/1 91/1/1 32/1/1
f 32/1/1 49/1/1 9/1/1
f 9/1/1 10/1/1 11/1/1
f 9/1/1 11/1/1 12/1/1
f 85/1/1 86/1/1 32/1/1
f 83/1/1 84/1/1 85/1/1
f 81/1/1 82/1/1 83/1/1
f 78/1/1 79/1/1 80/1/1
f 77/1/1 78/1/1 80/1/1
f 74/1/1 75/1/1 76/1/1
f 76/1/1 77/1/1 80/1/1
f 76/1/1 80/1/1 81/1/1
f 3/1/1 73/1/1 74/1/1
f 74/1/1 76/1/1 81/1/1
f 83/1/1 85/1/1 32/1/1
f 74/1/1 81/1/1 83/1/1
f 4/1/1 3/1/1 74/1/1
f 5/1/1 4/1/1 74/1/1
f 74/1/1 83/1/1 32/1/1
f 32/1/1 9/1/1 12/1/1
f 32/1/1 12/1/1 13/1/1
f 5/1/1 74/1/1 32/1/1
f 8/1/1 7/1/1 6/1/1
f 6/1/1 5/1/1 32/1/1
f 32/1/1 13/1/1 14/1/1
f 14/1/1 15/1/1 16/1/1
f 16/1/1 17/1/1 18/1/1
f 14/1/1 16/1/1 18/1/1
f 8/1/1 6/1/1 32/1/1
f 24/1/1 25/1/1 26/1/1
f 26/1/1 8/1/1 32/1/1
f 32/1/1 14/1/1 18/1/1
f 32/1/121 18/1/121 19/1/121
f 24/1/1 26/1/1 32/1/1
f 22/1/1 23/1/1 24/1/1
f 21/1/1 22/1/1 24/1/1
f 32/1/1 19/1/1 20/1/1
f 21/1/1 24/1/1 32/1/1
f 131/1/2 260/1/2 259/1/2
f 259/1/2 258/1/2 257/1/2
f 257/1/2 256/1/2 255/1/2
f 254/1/2 253/1/2 252/1/2
f 257/1/2 255/1/2 254/1/2
f 131/1/2 259/1/2 257/1/2
f 178/1/2 132/1/2 131/1/2
f 177/1/2 178/1/2 131/1/2
f 131/1/2 257/1/2 254/1/2
f 254/1/2 252/1/2 251/1/2
f 131/1/2 254/1/2 251/1/2
f 176/1/2 177/1/2 131/1/2
f 174/1/2 175/1/2 176/1/2
f 171/1/2 172/1/2 173/1/2
f 173/1/2 174/1/2 176/1/2
f 131/1/2 251/1/2 250/1/2
f 249/1/2 248/1/2 247/1/2
f 176/1/2 131/1/2 250/1/2
f 176/1/2 250/1/2 249/1/2
f 170/1/2 171/1/2 173/1/2
f 173/1/2 176/1/2 249/1/2
f 173/1/2 249/1/2 247/1/2
f 168/1/2 169/1/2 170/1/2
f 170/1/2 173/1/2 247/1/2
f 246/1/2 245/1/2 244/1/2
f 170/1/2 247/1/2 246/1/2
f 167/1/2 168/1/2 170/1/2
f 165/1/2 166/1/2 167/1/2
f 164/1/2 165/1/2 167/1/2
f 167/1/2 170/1/2 246/1/2
f 246/1/2 244/1/2 243/1/2
f 242/1/2 241/1/2 240/1/2
f 246/1/2 243/1/2 242/1/2
f 164/1/2 167/1/2 246/1/2
f 163/1/2 164/1/2 246/1/2
f 246/1/2 242/1/2 240/1/2
f 240/1/2 239/1/2 238/1/2
f 237/1/2 236/1/2 235/1/2
f 240/1/2 238/1/2 237/1/2
f 163/1/2 246/1/2 240/1/2
f 160/1/2 161/1/2 162/1/2
f 162/1/2 163/1/2 240/1/2
f 240/1/2 237/1/2 235/1/2
f 234/1/2 233/1/2 232/1/2
f 240/1/2 235/1/2 234/1/2
f 160/1/2 162/1/2 240/1/2
f 160/1/2 240/1/2 234/1/2
f 234/1/2 232/1/2 231/1/2
f 202/1/2 157/1/2 158/1/2
f 200/1/2 201/1/2 202/1/2
f 197/1/2 198/1/2 199/1/2
f 200/1/2 202/1/2 158/1/2
f 196/1/2 197/1/2 199/1/2
f 199/1/2 200/1/2 158/1/2
f 196/1/2 199/1/2 158/1/2
f 193/1/2 194/1/2 195/1/2
f 192/1/2 193/1/2 195/1/2
f 189/1/2 190/1/2 191/1/2
f 191/1/2 192/1/2 195/1/2
f 189/1/2 191/1/2 195/1/2
f 187/1/2 188/1/2 189/1/2
f 186/1/2 187/1/2 189/1/2
f 189/1/2 195/1/2 196/1/2
f 189/1/2 196/1/2 158/1/2
f 186/1/2 189/1/2 158/1/2
f 186/1/2 158/1/2 159/1/2
f 183/1/2 184/1/2 185/1/2
f 185/1/2 186/1/2 159/1/2
f 229/1/2 228/1/2 227/1/2
f 226/1/2 225/1/2 224/1/2
f 229/1/2 227/1/2 226/1/2
f 230/1/2 229/1/2 226/1/2
f 226/1/2 224/1/2 223/1/2
f 223/1/2 222/1/2 221/1/2
f 220/1/2 219/1/2 218/1/2
f 226/1/2 223/1/2 221/1/2
f 220/1/2 218/1/2 217/1/2
f 230/1/2 226/1/2 221/1/2
f 221/1/2 220/1/2 217/1/2
f 221/1/2 217/1/2 216/1/2
f 231/1/2 230/1/2 221/1/2
f 183/1/2 185/1/2 159/1/2
f 180/1/2 181/1/2 182/1/2
f 182/1/2 183/1/2 159/1/2
f 234/1/2 231/1/2 221/1/2
f 234/1/2 221/1/2 216/1/2
f 180/1/2 182/1/2 159/1/2
f 179/1/2 180/1/2 159/1/2
f 160/1/2 234/1/2 216/1/2
f 215/1/2 214/1/2 213/1/2
f 160/1/2 216/1/2 215/1/2
f 139/1/2 179/1/2 159/1/2
f 159/1/2 160/1/2 215/1/2
f 213/1/2 212/1/2 211/1/2
f 159/1/2 215/1/2 213/1/2
f 140/1/2 139/1/2 159/1/2
f 142/1/2 141/1/2 140/1/2
f 143/1/2 142/1/2 140/1/2
f 140/1/2 159/1/2 213/1/2
f 140/1/2 213/1/2 211/1/2
f 210/1/2 209/1/2 208/1/2
f 208/1/2 207/1/2 206/1/2
f 206/1/2 205/1/2 204/1/2
f 204/1/2 203/1/2 133/1/2
f 133/1/2 134/1/2 135/1/2
f 136/1/2 137/1/2 138/1/2
f 204/1/2 133/1/2 135/1/2
f 136/1/2 138/1/2 156/1/2
f 206/1/2 204/1/2 135/1/2
f 208/1/2 206/1/2 135/1/2
f 210/1/2 208/1/2 135/1/2
f 210/1/2 135/1/2 136/1/2
f 146/1/2 145/1/2 144/1/2
f 148/1/2 147/1/2 146/1/2
f 148/1/2 146/1/2 144/1/2
f 148/1/2 144/1/2 143/1/2
f 149/1/2 148/1/2 143/1/2
f 211/1/2 210/1/2 136/1/2
f 156/1/2 155/1/2 154/1/2
f 140/1/2 211/1/2 136/1/2
f 156/1/2 154/1/2 153/1/2
f 149/1/2 143/1/2 140/1/2
f 150/1/2 149/1/2 140/1/2
f 156/1/2 153/1/2 152/1/2
f 156/1/2 152/1/2 151/1/2
f 150/1/2 140/1/2 136/1/2
f 136/1/2 156/1/2 151/1/2
f 1/1/3 131/1/3 132/1/3
f 4/1/4 134/1/4 133/1/4
f 5/1/5 135/1/5 134/1/5
f 6/1/6 136/1/6 135/1/6
f 7/1/7 137/1/7 136/1/7
f 8/1/8 138/1/8 137/1/8
f 49/1/9 179/1/9 139/1/9
f 9/1/10 139/1/10 140/1/10
f 10/1/11 140/1/11 141/1/11
f 11/1/122 141/1/122 142/1/122
f 12/1/13 142/1/13 143/1/13
f 13/1/14 143/1/14 144/1/14
f 14/1/15 144/1/15 145/1/15
f 15/1/16 145/1/16 146/1/16
f 16/1/17 146/1/17 147/1/17
f 17/1/18 147/1/18 148/1/18
f 18/1/19 148/1/19 149/1/19
f 19/1/20 149/1/20 150/1/20
f 20/1/21 150/1/21 151/1/21
f 21/1/22 151/1/22 152/1/22
f 22/1/23 152/1/23 153/1/23
f 23/1/24 153/1/24 154/1/24
f 24/1/123 154/1/123 155/1/123
f 25/1/26 155/1/26 156/1/26
f 26/1/27 156/1/27 138/1/27
f 28/1/28 158/1/28 157/1/28
f 29/1/29 159/1/29 158/1/29
f 30/1/30 160/1/30 159/1/30
f 31/1/31 161/1/31 160/1/31
f 32/1/32 162/1/32 161/1/32
f 33/1/124 163/1/124 162/1/124
f 34/1/34 164/1/34 163/1/34
f 35/1/35 165/1/35 164/1/35
f 36/1/36 166/1/36 165/1/36
f 37/1/37 167/1/37 166/1/37
f 38/1/38 168/1/38 167/1/38
f 39/1/39 169/1/39 168/1/39
f 40/1/40 170/1/40 169/1/40
f 41/1/41 171/1/41 170/1/41
f 42/1/42 172/1/42 171/1/42
f 43/1/43 173/1/43 172/1/43
f 44/1/44 174/1/44 173/1/44
f 45/1/45 175/1/45 174/1/45
f 46/1/46 176/1/46 175/1/46
f 47/1/47 177/1/47 176/1/47
f 48/1/48 178/1/48 177/1/48
f 2/1/49 132/1/49 178/1/49
f 50/1/50 180/1/50 179/1/50
f 51/1/51 181/1/51 180/1/51
f 52/1/52 182/1/52 181/1/52
f 53/1/53 183/1/53 182/1/53
f 54/1/54 184/1/54 183/1/54
f 55/1/118 185/1/118 184/1/118
f 56/1/56 186/1/56 185/1/56
f 57/1/57 187/1/57 186/1/57
f 58/1/39 188/1/39 187/1/39
f 59/1/125 189/1/125 188/1/125
f 60/1/59 190/1/59 189/1/59
f 61/1/126 191/1/126 190/1/126
f 62/1/61 192/1/61 191/1/61
f 63/1/62 193/1/62 192/1/62
f 64/1/63 194/1/63 193/1/63
f 65/1/64 195/1/64 194/1/64
f 66/1/65 196/1/65 195/1/65
f 67/1/66 197/1/66 196/1/66
f 68/1/67 198/1/67 197/1/67
f 69/1/127 199/1/127 198/1/127
f 70/1/69 200/1/69 199/1/69
f 71/1/70 201/1/70 200/1/70
f 72/1/71 202/1/71 201/1/71
f 27/1/72 157/1/72 202/1/72
f 3/1/73 133/1/73 203/1/73
f 73/1/74 203/1/74 204/1/74
f 74/1/75 204/1/75 205/1/75
f 75/1/128 205/1/128 206/1/128
f 76/1/77 206/1/77 207/1/77
f 77/1/78 207/1/78 208/1/78
f 78/1/79 208/1/79 209/1/79
f 79/1/47 209/1/47 210/1/47
f 80/1/80 210/1/80 211/1/80
f 81/1/81 211/1/81 212/1/81
f 82/1/82 212/1/82 213/1/82
f 83/1/83 213/1/83 214/1/83
f 84/1/84 214/1/84 215/1/84
f 85/1/85 215/1/85 216/1/85
f 86/1/86 216/1/86 217/1/86
f 87/1/87 217/1/87 218/1/87
f 88/1/69 218/1/69 219/1/69
f 89/1/88 219/1/88 220/1/88
f 90/1/89 220/1/89 221/1/89
f 91/1/90 221/1/90 222/1/90
f 92/1/91 222/1/91 223/1/91
f 93/1/92 223/1/92 224/1/92
f 94/1/93 224/1/93 225/1/93
f 95/1/94 225/1/94 226/1/94
f 96/1/95 226/1/95 227/1/95
f 97/1/96 227/1/96 228/1/96
f 98/1/97 228/1/97 229/1/97
f 99/1/39 229/1/39 230/1/39
f 100/1/98 230/1/98 231/1/98
f 101/1/77 231/1/77 232/1/77
f 102/1/69 232/1/69 233/1/69
f 103/1/99 233/1/99 234/1/99
f 104/1/69 234/1/69 235/1/69
f 105/1/47 235/1/47 236/1/47
f 106/1/100 236/1/100 237/1/100
f 107/1/129 237/1/129 238/1/129
f 108/1/102 238/1/102 239/1/102
f 109/1/103 239/1/103 240/1/103
f 110/1/104 240/1/104 241/1/104
f 111/1/105 241/1/105 242/1/105
f 112/1/106 242/1/106 243/1/106
f 113/1/20 243/1/20 244/1/20
f 114/1/107 244/1/107 245/1/107
f 115/1/39 245/1/39 246/1/39
f 116/1/108 246/1/108 247/1/108
f 117/1/109 247/1/109 248/1/109
f 118/1/108 248/1/108 249/1/108
f 119/1/110 249/1/110 250/1/110
f 120/1/111 250/1/111 251/1/111
f 121/1/112 251/1/112 252/1/112
f 122/1/113 252/1/113 253/1/113
f 123/1/114 253/1/114 254/1/114
f 124/1/115 254/1/115 255/1/115
f 125/1/116 255/1/116 256/1/116
f 126/1/117 256/1/117 257/1/117
f 127/1/55 257/1/55 258/1/55
f 128/1/119 258/1/119 259/1/119
f 129/1/120 259/1/120 260/1/120
f 130/1/3 260/1/3 131/1/3
