# Blender 5.2.0 LTS
# www.blender.org
mtllib Maine.mtl
o Plane.022
v 2.441337 5.975816 -14.308909
v 2.441337 5.891642 -14.271499
v 2.441337 5.838643 -14.187325
v 2.441337 5.838643 -14.143680
v 2.441337 5.826173 -14.022096
v 2.441337 5.791880 -13.972215
v 2.441337 5.695235 -13.956628
v 2.441337 5.561180 -13.909865
v 2.441337 5.361656 -13.906749
v 2.441337 5.208897 -13.825692
v 2.441337 5.205779 -13.785165
v 2.441337 5.246307 -13.732167
v 2.441337 5.296188 -13.663581
v 2.441337 5.424008 -13.598113
v 2.441337 5.698353 -13.510821
v 2.441337 6.727147 -13.183478
v 2.441337 6.010109 -14.305793
v 2.441337 6.050637 -14.449201
v 2.441337 6.346805 -14.477258
v 2.441337 6.384215 -14.442966
v 2.441337 6.452802 -14.446082
v 2.441337 6.462154 -14.489728
v 2.441337 6.418509 -14.514668
v 2.441337 6.396686 -14.608195
v 2.441337 6.393568 -14.679898
v 2.441337 6.512035 -14.689250
v 2.441337 6.521388 -14.779658
v 2.441337 6.586857 -14.785893
v 2.441337 6.577504 -14.845126
v 2.441337 6.549446 -14.876302
v 2.441337 6.561916 -14.929299
v 2.441337 6.711559 -15.200526
v 2.441337 6.798851 -15.272229
v 2.441337 6.948494 -15.353286
v 2.441337 7.032668 -15.396932
v 2.441337 7.110607 -15.359521
v 2.441337 7.210369 -15.253524
v 2.441337 7.241545 -15.200526
v 2.441337 7.251184 -15.153764
v 2.441337 7.220009 -15.091413
v 2.434676 7.261803 -15.063472
v 2.434676 7.280812 -15.047402
v 2.441337 7.366247 -15.016227
v 2.441337 7.500302 -14.966712
v 2.441337 7.525243 -14.773423
v 2.441337 8.501038 -14.461667
v 2.441337 8.656916 -14.181087
v 2.441337 8.438686 -13.959741
v 2.441337 8.429334 -13.919213
v 2.441337 8.435569 -13.856862
v 2.441337 8.550919 -13.735278
v 2.441337 8.532213 -13.672927
v 2.441337 8.133166 -13.579400
v 2.441337 8.052110 -13.507697
v 2.441337 7.880644 -13.507697
v 2.441337 7.678003 -13.510814
v 2.441337 7.593829 -13.432876
v 2.441337 7.394305 -13.442227
v 2.441337 7.288308 -13.513930
v 2.441337 7.054492 -13.339347
v 2.441337 6.823792 -13.323760
v 2.441337 6.761441 -13.326877
v 2.441337 6.761441 -13.308171
v 2.441337 6.777029 -13.283231
v 1.441337 5.975737 -14.308768
v 1.441337 5.891562 -14.271358
v 1.441337 5.838564 -14.187184
v 1.441337 5.838564 -14.143538
v 1.441337 5.826094 -14.021955
v 1.441337 5.791800 -13.972074
v 1.441337 5.695156 -13.956487
v 1.441337 5.561101 -13.909724
v 1.441337 5.361577 -13.906608
v 1.441337 5.208817 -13.825551
v 1.441337 5.205700 -13.785024
v 1.441337 5.246228 -13.732026
v 1.441337 5.296109 -13.663440
v 1.441337 5.423929 -13.597972
v 1.441337 5.698274 -13.510680
v 1.441337 6.727068 -13.183337
v 1.441337 6.010030 -14.305652
v 1.441337 6.050558 -14.449059
v 1.441337 6.346725 -14.477117
v 1.441337 6.384136 -14.442824
v 1.441337 6.452723 -14.445941
v 1.441337 6.462075 -14.489587
v 1.441337 6.418429 -14.514527
v 1.441337 6.396606 -14.608054
v 1.441337 6.393489 -14.679757
v 1.441337 6.511956 -14.689109
v 1.441337 6.521309 -14.779517
v 1.441337 6.586778 -14.785752
v 1.441337 6.577425 -14.844985
v 1.441337 6.549367 -14.876161
v 1.441337 6.561837 -14.929158
v 1.441337 6.711480 -15.200385
v 1.441337 6.798772 -15.272088
v 1.441337 6.948415 -15.353145
v 1.441337 7.032589 -15.396791
v 1.441337 7.110528 -15.359380
v 1.441337 7.210290 -15.253383
v 1.441337 7.241466 -15.200385
v 1.441337 7.251105 -15.153623
v 1.441337 7.219930 -15.091271
v 1.434676 7.261724 -15.063331
v 1.434676 7.280733 -15.047261
v 1.441337 7.366168 -15.016086
v 1.441337 7.500223 -14.966571
v 1.441337 7.525164 -14.773282
v 1.441337 8.500959 -14.461526
v 1.441337 8.656837 -14.180945
v 1.441337 8.438608 -13.959599
v 1.441337 8.429255 -13.919072
v 1.441337 8.435491 -13.856721
v 1.441337 8.550840 -13.735137
v 1.441337 8.532135 -13.672786
v 1.441337 8.133088 -13.579259
v 1.441337 8.052032 -13.507556
v 1.441337 7.880566 -13.507556
v 1.441337 7.677924 -13.510673
v 1.441337 7.593750 -13.432734
v 1.441337 7.394226 -13.442086
v 1.441337 7.288229 -13.513789
v 1.441337 7.054413 -13.339206
v 1.441337 6.823713 -13.323619
v 1.441337 6.761362 -13.326735
v 1.441337 6.761362 -13.308030
v 1.441337 6.776950 -13.283090
vn 1.0000 -0.0000 -0.0000
vn -1.0000 -0.0000 -0.0000
vn -0.0000 -0.9623 -0.2720
vn -0.0001 0.0905 -0.9959
vn -0.0001 -0.4061 -0.9138
vn -0.0000 -0.8462 -0.5328
vn 0.0001 -1.0000 -0.0000
vn 0.0001 -0.9948 -0.1020
vn -0.0000 -0.8240 -0.5665
vn -0.0001 -0.1592 -0.9872
vn -0.0001 -0.3294 -0.9442
vn -0.0001 -0.0156 -0.9999
vn -0.0001 -0.4687 -0.8833
vn 0.0001 -0.9971 -0.0767
vn 0.0001 -0.7944 0.6075
vn 0.0002 -0.8087 0.5882
vn 0.0002 -0.4559 0.8900
vn 0.0002 -0.3032 0.9529
vn -0.0001 -0.0943 -0.9955
vn -0.0002 0.6757 -0.7372
vn -0.0001 -0.0454 -0.9990
vn -0.0000 -0.9778 -0.2095
vn 0.0002 -0.4961 0.8682
vn 0.0001 -0.9738 0.2272
vn 0.0001 -0.9991 0.0434
vn -0.0001 -0.0787 -0.9969
vn 0.0001 -0.9947 -0.1029
vn -0.0001 -0.0948 -0.9955
vn 0.0001 -0.9878 0.1560
vn 0.0002 -0.7433 0.6690
vn -0.0000 -0.9734 -0.2290
vn -0.0000 -0.8756 -0.4831
vn -0.0001 -0.6347 -0.7727
vn -0.0001 -0.4763 -0.8793
vn -0.0001 -0.4603 -0.8878
vn -0.0002 0.4327 -0.9015
vn -0.0002 0.7282 -0.6854
vn -0.0001 0.8619 -0.5070
vn -0.0001 0.9794 -0.2019
vn -0.0000 0.8944 0.4472
vn -0.0002 0.5558 -0.8313
vn -0.0002 0.6456 -0.7637
vn -0.0002 0.3428 -0.9394
vn -0.0002 0.3465 -0.9381
vn -0.0001 0.9918 -0.1280
vn -0.0002 0.3043 -0.9526
vn -0.0001 0.8742 -0.4856
vn -0.0000 0.7121 0.7021
vn -0.0000 0.9744 0.2248
vn -0.0001 0.9950 -0.0995
vn -0.0002 0.7255 -0.6883
vn -0.0000 0.9578 0.2873
vn 0.0001 0.2282 0.9736
vn 0.0001 0.6626 0.7490
vn 0.0001 -0.0000 1.0000
vn 0.0001 -0.0154 0.9999
vn -0.0000 0.6794 0.7338
vn 0.0001 -0.0468 0.9989
vn 0.0002 -0.5603 0.8283
vn 0.0001 0.5983 0.8013
vn 0.0001 0.0674 0.9977
vn 0.0001 -0.0499 0.9988
vn -0.0001 1.0000 -0.0000
vn -0.0001 0.8480 -0.5300
vn -0.0000 0.8944 0.4473
vn 0.6466 0.4925 -0.5826
vn 0.0540 -0.3460 0.9367
vn 0.9995 -0.0318 0.0041
vn 0.8953 0.3214 -0.3085
vn -0.6463 -0.4926 0.5828
vn -0.9963 0.0840 -0.0174
vn -0.9897 -0.1372 0.0398
vn 0.0002 -0.7944 0.6075
vn 0.0001 -0.8087 0.5882
vn -0.0000 0.9744 0.2249
vn -0.0000 0.6626 0.7490
vn 0.0001 0.6794 0.7338
vt 0.000000 0.000000
s 0
f 28/1/1 34/1/1 45/1/1
f 104/1/2 98/1/2 92/1/2
f 17/1/3 82/1/3 18/1/3
f 1/1/4 81/1/4 17/1/4
f 2/1/5 65/1/5 1/1/5
f 3/1/6 66/1/6 2/1/6
f 4/1/7 67/1/7 3/1/7
f 5/1/8 68/1/8 4/1/8
f 6/1/9 69/1/9 5/1/9
f 7/1/10 70/1/10 6/1/10
f 8/1/11 71/1/11 7/1/11
f 9/1/12 72/1/12 8/1/12
f 10/1/13 73/1/13 9/1/13
f 11/1/14 74/1/14 10/1/14
f 12/1/15 75/1/15 11/1/15
f 13/1/16 76/1/16 12/1/16
f 13/1/17 78/1/17 77/1/17
f 14/1/18 79/1/18 78/1/18
f 15/1/18 80/1/18 79/1/18
f 18/1/19 83/1/19 19/1/19
f 20/1/20 83/1/20 84/1/20
f 20/1/21 85/1/21 21/1/21
f 21/1/22 86/1/22 22/1/22
f 22/1/23 87/1/23 23/1/23
f 23/1/24 88/1/24 24/1/24
f 24/1/25 89/1/25 25/1/25
f 25/1/26 90/1/26 26/1/26
f 26/1/27 91/1/27 27/1/27
f 27/1/28 92/1/28 28/1/28
f 28/1/29 93/1/29 29/1/29
f 29/1/30 94/1/30 30/1/30
f 30/1/31 95/1/31 31/1/31
f 31/1/32 96/1/32 32/1/32
f 32/1/33 97/1/33 33/1/33
f 33/1/34 98/1/34 34/1/34
f 34/1/35 99/1/35 35/1/35
f 35/1/36 100/1/36 36/1/36
f 37/1/37 100/1/37 101/1/37
f 38/1/38 101/1/38 102/1/38
f 39/1/39 102/1/39 103/1/39
f 40/1/40 103/1/40 104/1/40
f 41/1/41 104/1/41 105/1/41
f 42/1/42 105/1/42 106/1/42
f 42/1/43 107/1/43 43/1/43
f 43/1/44 108/1/44 44/1/44
f 45/1/45 108/1/45 109/1/45
f 45/1/46 110/1/46 46/1/46
f 47/1/47 110/1/47 111/1/47
f 48/1/48 111/1/48 112/1/48
f 49/1/49 112/1/49 113/1/49
f 50/1/50 113/1/50 114/1/50
f 51/1/51 114/1/51 115/1/51
f 52/1/52 115/1/52 116/1/52
f 53/1/53 116/1/53 117/1/53
f 54/1/54 117/1/54 118/1/54
f 55/1/55 118/1/55 119/1/55
f 56/1/56 119/1/56 120/1/56
f 57/1/57 120/1/57 121/1/57
f 58/1/58 121/1/58 122/1/58
f 58/1/59 123/1/59 59/1/59
f 60/1/60 123/1/60 124/1/60
f 61/1/61 124/1/61 125/1/61
f 62/1/62 125/1/62 126/1/62
f 63/1/63 126/1/63 127/1/63
f 64/1/64 127/1/64 128/1/64
f 16/1/65 128/1/65 80/1/65
f 64/1/1 16/1/1 15/1/1
f 15/1/1 14/1/1 13/1/1
f 12/1/1 11/1/1 10/1/1
f 15/1/1 13/1/1 12/1/1
f 63/1/1 64/1/1 15/1/1
f 60/1/1 61/1/1 62/1/1
f 62/1/1 63/1/1 15/1/1
f 15/1/1 12/1/1 10/1/1
f 10/1/1 9/1/1 8/1/1
f 8/1/1 7/1/1 6/1/1
f 15/1/1 10/1/1 8/1/1
f 60/1/1 62/1/1 15/1/1
f 57/1/1 58/1/1 59/1/1
f 59/1/1 60/1/1 15/1/1
f 15/1/1 8/1/1 6/1/1
f 15/1/1 6/1/1 5/1/1
f 56/1/1 57/1/1 59/1/1
f 59/1/1 15/1/1 5/1/1
f 4/1/1 3/1/1 2/1/1
f 59/1/1 5/1/1 4/1/1
f 54/1/1 55/1/1 56/1/1
f 56/1/1 59/1/1 4/1/1
f 4/1/1 2/1/1 1/1/1
f 17/1/1 18/1/1 19/1/1
f 4/1/1 1/1/1 17/1/1
f 54/1/1 56/1/1 4/1/1
f 51/1/1 52/1/1 53/1/1
f 53/1/1 54/1/1 4/1/1
f 4/1/1 17/1/1 19/1/1
f 4/1/1 19/1/1 20/1/1
f 51/1/1 53/1/1 4/1/1
f 50/1/1 51/1/1 4/1/1
f 4/1/1 20/1/1 21/1/1
f 22/1/1 23/1/1 24/1/1
f 50/1/1 4/1/1 21/1/1
f 22/1/1 24/1/1 25/1/1
f 50/1/1 21/1/1 22/1/1
f 49/1/1 50/1/1 22/1/1
f 22/1/1 25/1/1 26/1/1
f 26/1/1 27/1/1 28/1/1
f 29/1/1 30/1/1 31/1/1
f 22/1/1 26/1/1 28/1/1
f 29/1/1 31/1/1 32/1/1
f 49/1/1 22/1/1 28/1/1
f 28/1/1 29/1/1 32/1/1
f 32/1/1 33/1/1 34/1/1
f 34/1/1 35/1/1 36/1/1
f 36/1/1 37/1/1 38/1/1
f 38/1/1 39/1/1 40/1/1
f 40/1/66 41/1/66 42/1/66
f 42/1/67 43/1/67 44/1/67
f 45/1/1 46/1/1 47/1/1
f 42/1/68 44/1/68 45/1/68
f 36/1/1 38/1/1 40/1/1
f 40/1/69 42/1/69 45/1/69
f 45/1/1 47/1/1 48/1/1
f 48/1/1 49/1/1 28/1/1
f 28/1/1 32/1/1 34/1/1
f 34/1/1 36/1/1 40/1/1
f 45/1/1 48/1/1 28/1/1
f 34/1/1 40/1/1 45/1/1
f 79/1/2 80/1/2 128/1/2
f 79/1/2 128/1/2 127/1/2
f 77/1/2 78/1/2 79/1/2
f 74/1/2 75/1/2 76/1/2
f 76/1/2 77/1/2 79/1/2
f 79/1/2 127/1/2 126/1/2
f 126/1/2 125/1/2 124/1/2
f 123/1/2 122/1/2 121/1/2
f 126/1/2 124/1/2 123/1/2
f 76/1/2 79/1/2 126/1/2
f 73/1/2 74/1/2 76/1/2
f 70/1/2 71/1/2 72/1/2
f 72/1/2 73/1/2 76/1/2
f 76/1/2 126/1/2 123/1/2
f 123/1/2 121/1/2 120/1/2
f 120/1/2 119/1/2 118/1/2
f 117/1/2 116/1/2 115/1/2
f 120/1/2 118/1/2 117/1/2
f 76/1/2 123/1/2 120/1/2
f 70/1/2 72/1/2 76/1/2
f 70/1/2 76/1/2 120/1/2
f 120/1/2 117/1/2 115/1/2
f 120/1/2 115/1/2 114/1/2
f 69/1/2 70/1/2 120/1/2
f 66/1/2 67/1/2 68/1/2
f 68/1/2 69/1/2 120/1/2
f 120/1/2 114/1/2 113/1/2
f 112/1/2 111/1/2 110/1/2
f 120/1/2 113/1/2 112/1/2
f 66/1/2 68/1/2 120/1/2
f 81/1/2 65/1/2 66/1/2
f 83/1/2 82/1/2 81/1/2
f 84/1/2 83/1/2 81/1/2
f 81/1/2 66/1/2 120/1/2
f 120/1/2 112/1/2 110/1/2
f 109/1/2 108/1/2 107/1/2
f 120/1/2 110/1/2 109/1/2
f 84/1/2 81/1/2 120/1/2
f 85/1/2 84/1/2 120/1/2
f 120/1/2 109/1/2 107/1/2
f 106/1/70 105/1/70 104/1/70
f 120/1/71 107/1/71 106/1/71
f 86/1/2 85/1/2 120/1/2
f 88/1/2 87/1/2 86/1/2
f 90/1/2 89/1/2 88/1/2
f 92/1/2 91/1/2 90/1/2
f 95/1/2 94/1/2 93/1/2
f 96/1/2 95/1/2 93/1/2
f 98/1/2 97/1/2 96/1/2
f 100/1/2 99/1/2 98/1/2
f 102/1/2 101/1/2 100/1/2
f 104/1/2 103/1/2 102/1/2
f 120/1/72 106/1/72 104/1/72
f 88/1/2 86/1/2 120/1/2
f 90/1/2 88/1/2 120/1/2
f 104/1/2 102/1/2 100/1/2
f 90/1/2 120/1/2 104/1/2
f 96/1/2 93/1/2 92/1/2
f 92/1/2 90/1/2 104/1/2
f 104/1/2 100/1/2 98/1/2
f 98/1/2 96/1/2 92/1/2
f 17/1/3 81/1/3 82/1/3
f 1/1/4 65/1/4 81/1/4
f 2/1/5 66/1/5 65/1/5
f 3/1/6 67/1/6 66/1/6
f 4/1/7 68/1/7 67/1/7
f 5/1/8 69/1/8 68/1/8
f 6/1/9 70/1/9 69/1/9
f 7/1/10 71/1/10 70/1/10
f 8/1/11 72/1/11 71/1/11
f 9/1/12 73/1/12 72/1/12
f 10/1/13 74/1/13 73/1/13
f 11/1/14 75/1/14 74/1/14
f 12/1/73 76/1/73 75/1/73
f 13/1/74 77/1/74 76/1/74
f 13/1/17 14/1/17 78/1/17
f 14/1/18 15/1/18 79/1/18
f 15/1/18 16/1/18 80/1/18
f 18/1/19 82/1/19 83/1/19
f 20/1/20 19/1/20 83/1/20
f 20/1/21 84/1/21 85/1/21
f 21/1/22 85/1/22 86/1/22
f 22/1/23 86/1/23 87/1/23
f 23/1/24 87/1/24 88/1/24
f 24/1/25 88/1/25 89/1/25
f 25/1/26 89/1/26 90/1/26
f 26/1/27 90/1/27 91/1/27
f 27/1/28 91/1/28 92/1/28
f 28/1/29 92/1/29 93/1/29
f 29/1/30 93/1/30 94/1/30
f 30/1/31 94/1/31 95/1/31
f 31/1/32 95/1/32 96/1/32
f 32/1/33 96/1/33 97/1/33
f 33/1/34 97/1/34 98/1/34
f 34/1/35 98/1/35 99/1/35
f 35/1/36 99/1/36 100/1/36
f 37/1/37 36/1/37 100/1/37
f 38/1/38 37/1/38 101/1/38
f 39/1/39 38/1/39 102/1/39
f 40/1/40 39/1/40 103/1/40
f 41/1/41 40/1/41 104/1/41
f 42/1/42 41/1/42 105/1/42
f 42/1/43 106/1/43 107/1/43
f 43/1/44 107/1/44 108/1/44
f 45/1/45 44/1/45 108/1/45
f 45/1/46 109/1/46 110/1/46
f 47/1/47 46/1/47 110/1/47
f 48/1/48 47/1/48 111/1/48
f 49/1/75 48/1/75 112/1/75
f 50/1/50 49/1/50 113/1/50
f 51/1/51 50/1/51 114/1/51
f 52/1/52 51/1/52 115/1/52
f 53/1/53 52/1/53 116/1/53
f 54/1/76 53/1/76 117/1/76
f 55/1/55 54/1/55 118/1/55
f 56/1/56 55/1/56 119/1/56
f 57/1/77 56/1/77 120/1/77
f 58/1/58 57/1/58 121/1/58
f 58/1/59 122/1/59 123/1/59
f 60/1/60 59/1/60 123/1/60
f 61/1/61 60/1/61 124/1/61
f 62/1/62 61/1/62 125/1/62
f 63/1/63 62/1/63 126/1/63
f 64/1/64 63/1/64 127/1/64
f 16/1/65 64/1/65 128/1/65
