# Blender 5.2.0 LTS
# www.blender.org
mtllib Michigan.mtl
o Plane.030
v 1.441337 2.681820 -5.651666
v 1.441337 2.708180 -5.885980
v 1.441337 2.752114 -6.044141
v 1.441337 2.760901 -6.366323
v 1.441337 2.684749 -6.410256
v 1.441337 4.442104 -5.314839
v 1.441337 4.345449 -5.270905
v 1.441337 4.257582 -5.291408
v 1.441337 4.175572 -5.335341
v 1.441337 4.102349 -5.332412
v 1.441337 3.979334 -5.326554
v 1.441337 3.909040 -5.347056
v 1.441337 3.730375 -5.452498
v 1.441337 3.598574 -5.525722
v 1.441337 3.446270 -5.557940
v 1.441337 3.293965 -5.557940
v 1.441337 3.009859 -5.490575
v 1.441337 2.875129 -5.429067
v 1.441337 2.667175 -5.297265
v 1.441337 2.658388 -5.393920
v 1.441337 2.664246 -5.516934
v 1.441337 4.544617 -5.382205
v 1.441337 4.632484 -5.414424
v 1.441337 4.746713 -5.411494
v 1.441337 4.828722 -5.411494
v 1.441337 4.910732 -5.423209
v 1.441337 4.919518 -5.452498
v 1.441337 5.027889 -5.467143
v 1.441337 5.098184 -5.514007
v 1.441337 5.142118 -5.575515
v 1.441337 5.139189 -5.619449
v 1.441337 5.086468 -5.637023
v 1.441337 4.983955 -5.689744
v 1.441337 4.940022 -5.736608
v 1.441337 4.966382 -5.806901
v 1.441337 5.057179 -5.877194
v 1.441337 5.153833 -5.885982
v 1.441337 5.218270 -5.853763
v 1.441337 5.253417 -5.824473
v 1.441337 5.235844 -5.771752
v 1.441337 5.194839 -5.757108
v 1.441337 5.174336 -5.730748
v 1.441337 5.174336 -5.660455
v 1.441337 5.209483 -5.642880
v 1.441337 5.250488 -5.669240
v 1.441337 5.253417 -5.719031
v 1.441337 5.265133 -5.754178
v 1.441337 5.329570 -5.789325
v 1.441337 5.376432 -5.842046
v 1.441337 5.382290 -5.970918
v 1.441337 5.405722 -6.044141
v 1.441337 5.458442 -6.041211
v 1.441337 5.505304 -6.017779
v 1.441337 5.528736 -5.947486
v 1.441337 5.581456 -5.915267
v 1.441337 5.628319 -5.929912
v 1.441337 5.683969 -6.003135
v 1.441337 5.760121 -6.120292
v 1.441337 5.736690 -6.187657
v 1.441337 5.689827 -6.322389
v 1.441337 5.642964 -6.424901
v 1.441337 5.575600 -6.539128
v 1.441337 5.540452 -6.574275
v 1.441337 5.537523 -6.670930
v 1.441337 5.540452 -6.776372
v 1.441337 5.514091 -6.834950
v 1.441337 5.408650 -6.864240
v 1.441337 5.317853 -6.922818
v 1.441337 5.282706 -6.902316
v 1.441337 5.276848 -6.846667
v 1.441337 5.224128 -6.840810
v 1.441337 5.171407 -6.922820
v 1.441337 5.054250 -6.937465
v 1.441337 4.752570 -6.957967
v 1.441337 4.723281 -6.893531
v 1.441337 4.676418 -6.870099
v 1.441337 4.609054 -6.873029
v 1.441337 4.535830 -6.875958
v 1.441337 4.506541 -6.811522
v 1.441337 4.445034 -6.720725
v 1.441337 4.383527 -6.709010
v 1.441337 4.286872 -6.709010
v 1.441337 4.228293 -6.738299
v 1.441337 4.219507 -6.808593
v 1.441337 4.240009 -6.890603
v 1.441337 4.307375 -6.952111
v 1.441337 4.547546 -7.098557
v 1.441337 4.597339 -7.145421
v 1.441337 4.623699 -7.206929
v 1.441337 4.611983 -7.245006
v 1.441337 4.562191 -7.315299
v 1.441337 4.427461 -7.344588
v 1.441337 3.955903 -7.499822
v 1.441337 3.903183 -7.532041
v 1.441337 3.888538 -7.605264
v 1.441337 3.557570 -7.602334
v 1.441337 3.545854 -7.520324
v 1.441337 3.519494 -7.473460
v 1.441337 3.434555 -7.429526
v 1.441337 3.358402 -7.406095
v 1.441337 3.291037 -7.376805
v 1.441337 3.261748 -7.303582
v 1.441337 3.191454 -7.245004
v 1.441337 3.100657 -7.247933
v 1.441337 3.018647 -7.227431
v 1.441337 2.916135 -7.165923
v 1.441337 2.807764 -7.157138
v 1.441337 2.781404 -6.911107
v 1.441337 2.705252 -6.503985
v 1.441337 5.104148 -4.624719
v 1.441337 5.171439 -4.545411
v 1.441337 5.277183 -4.545411
v 1.441337 5.421378 -4.559831
v 1.441337 5.515105 -4.509362
v 1.441337 5.534331 -4.454087
v 1.441337 5.536735 -4.384393
v 1.441337 5.555961 -4.333924
v 1.441337 5.630462 -4.329118
v 1.441337 5.702559 -4.249810
v 1.441337 5.695350 -4.064759
v 1.441337 5.695350 -3.920564
v 1.441337 5.803496 -3.807611
v 1.441337 5.817916 -3.728303
v 1.441337 5.877997 -3.471154
v 1.441337 5.906837 -3.346185
v 1.441337 6.043822 -3.158731
v 1.441337 6.096694 -3.125085
v 1.441337 5.214698 -4.735269
v 1.441337 5.380523 -4.776124
v 1.441337 5.565574 -4.857835
v 1.441337 5.618445 -4.865045
v 1.441337 5.628058 -4.915513
v 1.441337 5.596816 -4.949159
v 1.441337 5.592010 -4.980401
v 1.441337 5.630462 -5.062112
v 1.441337 5.680930 -5.131806
v 1.441337 5.635268 -5.175065
v 1.441337 5.635268 -5.225533
v 1.441337 5.640075 -5.278405
v 1.441337 5.808303 -5.309648
v 1.441337 5.822722 -5.622071
v 1.441337 5.914046 -5.653314
v 1.441337 5.926063 -5.689363
v 1.441337 5.930869 -5.790299
v 1.441337 5.894820 -5.905656
v 1.441337 5.870788 -5.975350
v 1.441337 5.863578 -6.035432
v 1.441337 5.880401 -6.114739
v 1.441337 5.914046 -6.138772
v 1.441337 5.957305 -6.194047
v 1.441337 5.892417 -6.246919
v 1.441337 5.885207 -6.388711
v 1.441337 5.882804 -6.456002
v 1.441337 5.971725 -6.458405
v 1.441337 6.017386 -6.415147
v 1.441337 6.060645 -6.357469
v 1.441337 6.327406 -6.367082
v 1.441337 6.351439 -6.343049
v 1.441337 6.334616 -6.268548
v 1.441337 6.248098 -6.064271
v 1.441337 6.200033 -5.977754
v 1.441337 6.240889 -5.922479
v 1.441337 6.296164 -5.867204
v 1.441337 6.421133 -5.864800
v 1.441337 6.471601 -5.881623
v 1.441337 6.478811 -5.799912
v 1.441337 6.459585 -5.778283
v 1.441337 6.423536 -5.677346
v 1.441337 6.373068 -5.473069
v 1.441337 6.368261 -5.369729
v 1.441337 6.260115 -5.165452
v 1.441337 6.099096 -4.992417
v 1.441337 6.111113 -4.910707
v 1.441337 6.156775 -4.891480
v 1.441337 6.228872 -4.865045
v 1.441337 6.216856 -4.800157
v 1.441337 6.173597 -4.771317
v 1.441337 6.154371 -4.704026
v 1.441337 6.195227 -4.641541
v 1.441337 6.216856 -4.588670
v 1.441337 6.356245 -4.526185
v 1.441337 6.425940 -4.451684
v 1.441337 6.452375 -4.329118
v 1.441337 6.428343 -4.237794
v 1.441337 6.385084 -4.182519
v 1.441337 6.339422 -4.141664
v 1.441337 6.325003 -4.086389
v 1.441337 6.353842 -4.081582
v 1.441337 6.435553 -4.108018
v 1.441337 6.699911 -4.278649
v 1.441337 6.798445 -4.341134
v 1.441337 6.793638 -4.410829
v 1.441337 6.800848 -4.410829
v 1.441337 6.853720 -4.381989
v 1.441337 6.865736 -4.225778
v 1.441337 6.817671 -4.144067
v 1.441337 6.673475 -4.016694
v 1.441337 6.464392 -3.795594
v 1.441337 6.320196 -3.636979
v 1.441337 6.305777 -3.526429
v 1.441337 6.288954 -3.415879
v 1.441337 6.212049 -3.350991
v 2.441337 2.681820 -5.651666
v 2.441337 2.708180 -5.885980
v 2.441337 2.752114 -6.044141
v 2.441337 2.760901 -6.366323
v 2.441337 2.684749 -6.410256
v 2.441337 4.442104 -5.314839
v 2.441337 4.345449 -5.270905
v 2.441337 4.257582 -5.291408
v 2.441337 4.175572 -5.335341
v 2.441337 4.102349 -5.332412
v 2.441337 3.979334 -5.326554
v 2.441337 3.909040 -5.347056
v 2.441337 3.730375 -5.452498
v 2.441337 3.598574 -5.525722
v 2.441337 3.446270 -5.557940
v 2.441337 3.293965 -5.557940
v 2.441337 3.009859 -5.490575
v 2.441337 2.875129 -5.429067
v 2.441337 2.667175 -5.297265
v 2.441337 2.658388 -5.393920
v 2.441337 2.664246 -5.516934
v 2.441337 4.544617 -5.382205
v 2.441337 4.632484 -5.414424
v 2.441337 4.746713 -5.411494
v 2.441337 4.828722 -5.411494
v 2.441337 4.910732 -5.423209
v 2.441337 4.919518 -5.452498
v 2.441337 5.027889 -5.467143
v 2.441337 5.098184 -5.514007
v 2.441337 5.142118 -5.575515
v 2.441337 5.139189 -5.619449
v 2.441337 5.086468 -5.637023
v 2.441337 4.983955 -5.689744
v 2.441337 4.940022 -5.736608
v 2.441337 4.966382 -5.806901
v 2.441337 5.057179 -5.877194
v 2.441337 5.153833 -5.885982
v 2.441337 5.218270 -5.853763
v 2.441337 5.253417 -5.824473
v 2.441337 5.235844 -5.771752
v 2.441337 5.194839 -5.757108
v 2.441337 5.174336 -5.730748
v 2.441337 5.174336 -5.660455
v 2.441337 5.209483 -5.642880
v 2.441337 5.250488 -5.669240
v 2.441337 5.253417 -5.719031
v 2.441337 5.265133 -5.754178
v 2.441337 5.329570 -5.789325
v 2.441337 5.376432 -5.842046
v 2.441337 5.382290 -5.970918
v 2.441337 5.405722 -6.044141
v 2.441337 5.458442 -6.041211
v 2.441337 5.505304 -6.017779
v 2.441337 5.528736 -5.947486
v 2.441337 5.581456 -5.915267
v 2.441337 5.628319 -5.929912
v 2.441337 5.683969 -6.003135
v 2.441337 5.760121 -6.120292
v 2.441337 5.736690 -6.187657
v 2.441337 5.689827 -6.322389
v 2.441337 5.642964 -6.424901
v 2.441337 5.575600 -6.539128
v 2.441337 5.540452 -6.574275
v 2.441337 5.537523 -6.670930
v 2.441337 5.540452 -6.776372
v 2.441337 5.514091 -6.834950
v 2.441337 5.408650 -6.864240
v 2.441337 5.317853 -6.922818
v 2.441337 5.282706 -6.902316
v 2.441337 5.276848 -6.846667
v 2.441337 5.224128 -6.840810
v 2.441337 5.171407 -6.922820
v 2.441337 5.054250 -6.937465
v 2.441337 4.752570 -6.957967
v 2.441337 4.723281 -6.893531
v 2.441337 4.676418 -6.870099
v 2.441337 4.609054 -6.873029
v 2.441337 4.535830 -6.875958
v 2.441337 4.506541 -6.811522
v 2.441337 4.445034 -6.720725
v 2.441337 4.383527 -6.709010
v 2.441337 4.286872 -6.709010
v 2.441337 4.228293 -6.738299
v 2.441337 4.219507 -6.808593
v 2.441337 4.240009 -6.890603
v 2.441337 4.307375 -6.952111
v 2.441337 4.547546 -7.098557
v 2.441337 4.597339 -7.145421
v 2.441337 4.623699 -7.206929
v 2.441337 4.611983 -7.245006
v 2.441337 4.562191 -7.315299
v 2.441337 4.427461 -7.344588
v 2.441337 3.955903 -7.499822
v 2.441337 3.903183 -7.532041
v 2.441337 3.888538 -7.605264
v 2.441337 3.557570 -7.602334
v 2.441337 3.545854 -7.520324
v 2.441337 3.519494 -7.473460
v 2.441337 3.434555 -7.429526
v 2.441337 3.358402 -7.406095
v 2.441337 3.291037 -7.376805
v 2.441337 3.261748 -7.303582
v 2.441337 3.191454 -7.245004
v 2.441337 3.100657 -7.247933
v 2.441337 3.018647 -7.227431
v 2.441337 2.916135 -7.165923
v 2.441337 2.807764 -7.157138
v 2.441337 2.781404 -6.911107
v 2.441337 2.705252 -6.503985
v 2.441337 5.104148 -4.624719
v 2.441337 5.171439 -4.545411
v 2.441337 5.277183 -4.545411
v 2.441337 5.421378 -4.559831
v 2.441337 5.515105 -4.509362
v 2.441337 5.534331 -4.454087
v 2.441337 5.536735 -4.384393
v 2.441337 5.555961 -4.333924
v 2.441337 5.630462 -4.329118
v 2.441337 5.702559 -4.249810
v 2.441337 5.695350 -4.064759
v 2.441337 5.695350 -3.920564
v 2.441337 5.803496 -3.807611
v 2.441337 5.817916 -3.728303
v 2.441337 5.877997 -3.471154
v 2.441337 5.906837 -3.346185
v 2.441337 6.043822 -3.158731
v 2.441337 6.096694 -3.125085
v 2.441337 5.214698 -4.735269
v 2.441337 5.380523 -4.776124
v 2.441337 5.565574 -4.857835
v 2.441337 5.618445 -4.865045
v 2.441337 5.628058 -4.915513
v 2.441337 5.596816 -4.949159
v 2.441337 5.592010 -4.980401
v 2.441337 5.630462 -5.062112
v 2.441337 5.680930 -5.131806
v 2.441337 5.635268 -5.175065
v 2.441337 5.635268 -5.225533
v 2.441337 5.640075 -5.278405
v 2.441337 5.808303 -5.309648
v 2.441337 5.822722 -5.622071
v 2.441337 5.914046 -5.653314
v 2.441337 5.926063 -5.689363
v 2.441337 5.930869 -5.790299
v 2.441337 5.894820 -5.905656
v 2.441337 5.870788 -5.975350
v 2.441337 5.863578 -6.035432
v 2.441337 5.880401 -6.114739
v 2.441337 5.914046 -6.138772
v 2.441337 5.957305 -6.194047
v 2.441337 5.892417 -6.246919
v 2.441337 5.885207 -6.388711
v 2.441337 5.882804 -6.456002
v 2.441337 5.971725 -6.458405
v 2.441337 6.017386 -6.415147
v 2.441337 6.060645 -6.357469
v 2.441337 6.327406 -6.367082
v 2.441337 6.351439 -6.343049
v 2.441337 6.334616 -6.268548
v 2.441337 6.248098 -6.064271
v 2.441337 6.200033 -5.977754
v 2.441337 6.240889 -5.922479
v 2.441337 6.296164 -5.867204
v 2.441337 6.421133 -5.864800
v 2.441337 6.471601 -5.881623
v 2.441337 6.478811 -5.799912
v 2.441337 6.459585 -5.778283
v 2.441337 6.423536 -5.677346
v 2.441337 6.373068 -5.473069
v 2.441337 6.368261 -5.369729
v 2.441337 6.260115 -5.165452
v 2.441337 6.099096 -4.992417
v 2.441337 6.111113 -4.910707
v 2.441337 6.156775 -4.891480
v 2.441337 6.228872 -4.865045
v 2.441337 6.216856 -4.800157
v 2.441337 6.173597 -4.771317
v 2.441337 6.154371 -4.704026
v 2.441337 6.195227 -4.641541
v 2.441337 6.216856 -4.588670
v 2.441337 6.356245 -4.526185
v 2.441337 6.425940 -4.451684
v 2.441337 6.452375 -4.329118
v 2.441337 6.428343 -4.237794
v 2.441337 6.385084 -4.182519
v 2.441337 6.339422 -4.141664
v 2.441337 6.325003 -4.086389
v 2.441337 6.353842 -4.081582
v 2.441337 6.435553 -4.108018
v 2.441337 6.699911 -4.278649
v 2.441337 6.798445 -4.341134
v 2.441337 6.793638 -4.410829
v 2.441337 6.800848 -4.410829
v 2.441337 6.853720 -4.381989
v 2.441337 6.865736 -4.225778
v 2.441337 6.817671 -4.144067
v 2.441337 6.673475 -4.016694
v 2.441337 6.464392 -3.795594
v 2.441337 6.320196 -3.636979
v 2.441337 6.305777 -3.526429
v 2.441337 6.288954 -3.415879
v 2.441337 6.212049 -3.350991
vn -1.0000 -0.0000 -0.0000
vn 1.0000 -0.0000 -0.0000
vn -0.0000 -0.9959 0.0905
vn -0.0000 -0.9989 -0.0476
vn -0.0000 -0.9916 -0.1293
vn -0.0000 -0.9937 -0.1118
vn -0.0000 -0.9635 -0.2676
vn -0.0000 -0.9996 -0.0273
vn -0.0000 -0.4997 0.8662
vn -0.0000 -0.0000 1.0000
vn -0.0000 -0.0256 0.9997
vn -0.0000 0.3443 0.9389
vn -0.0000 0.5492 0.8357
vn -0.0000 0.4138 0.9104
vn -0.0000 -0.2272 0.9738
vn -0.0000 -0.4722 0.8815
vn -0.0000 0.0400 0.9992
vn -0.0000 0.0476 0.9989
vn -0.0000 -0.2800 0.9600
vn -0.0000 -0.5083 0.8612
vn -0.0000 -0.4856 0.8742
vn -0.0000 -0.2070 0.9783
vn -0.0000 0.2307 0.9730
vn -0.0000 0.4153 0.9097
vn -0.0000 0.5353 0.8446
vn -0.0000 0.1414 0.9900
vn -0.0000 0.9578 0.2873
vn -0.0000 0.1339 0.9910
vn -0.0000 0.5547 0.8320
vn -0.0000 0.8137 0.5812
vn -0.0000 0.9978 -0.0665
vn -0.0000 0.3162 -0.9487
vn -0.0000 0.4574 -0.8893
vn -0.0000 0.7295 -0.6839
vn -0.0000 0.9363 0.3511
vn -0.0000 0.6122 0.7907
vn -0.0000 0.0905 0.9959
vn -0.0000 -0.4472 0.8944
vn -0.0000 -0.6402 0.7682
vn -0.0000 -0.9487 -0.3162
vn -0.0000 -0.3363 -0.9417
vn -0.0000 -0.7893 -0.6139
vn -0.0000 -1.0000 -0.0000
vn -0.0000 0.5407 0.8412
vn -0.0000 0.9983 0.0587
vn -0.0000 0.9487 0.3162
vn -0.0000 0.4789 0.8779
vn -0.0000 0.7474 0.6644
vn -0.0000 0.9990 0.0454
vn -0.0000 0.9524 0.3048
vn -0.0000 -0.0555 0.9985
vn -0.0000 -0.9487 0.3162
vn -0.0000 -0.5215 0.8533
vn -0.0000 0.2983 0.9545
vn -0.0000 0.7962 0.6051
vn -0.0000 0.8384 0.5450
vn -0.0000 0.9445 -0.3285
vn -0.0000 0.9095 -0.4158
vn -0.0000 0.8614 -0.5080
vn -0.0000 0.7071 -0.7071
vn -0.0000 0.9995 -0.0303
vn -0.0000 0.9996 0.0278
vn -0.0000 0.9119 -0.4104
vn -0.0000 0.2676 -0.9635
vn -0.0000 0.5421 -0.8403
vn -0.0000 -0.5039 -0.8638
vn -0.0000 -0.9945 -0.1047
vn -0.0000 -0.1104 -0.9939
vn -0.0000 0.8412 -0.5408
vn -0.0000 0.1240 -0.9923
vn -0.0000 0.0678 -0.9977
vn -0.0000 -0.9104 -0.4138
vn -0.0000 -0.4472 -0.8944
vn -0.0000 0.0434 -0.9991
vn -0.0000 0.0400 -0.9992
vn -0.0000 -0.8279 -0.5608
vn -0.0000 -0.1871 -0.9823
vn -0.0000 -0.0000 -1.0000
vn -0.0000 0.4472 -0.8944
vn -0.0000 0.9923 -0.1240
vn -0.0000 0.9701 0.2425
vn -0.0000 0.6743 0.7385
vn -0.0000 0.5206 0.8538
vn -0.0000 0.6854 0.7282
vn -0.0000 0.9191 0.3939
vn -0.0000 0.9558 -0.2941
vn -0.0000 0.8160 -0.5780
vn -0.0000 0.2124 -0.9772
vn -0.0000 0.3127 -0.9499
vn -0.0000 0.5215 -0.8533
vn -0.0000 0.9806 -0.1961
vn -0.0000 -0.0089 -1.0000
vn -0.0000 -0.9899 -0.1414
vn -0.0000 -0.8716 -0.4903
vn -0.0000 -0.4594 -0.8882
vn -0.0000 -0.2941 -0.9558
vn -0.0000 -0.3987 -0.9171
vn -0.0000 -0.9285 -0.3714
vn -0.0000 -0.6402 -0.7682
vn -0.0000 0.0322 -0.9995
vn -0.0000 -0.2425 -0.9701
vn -0.0000 -0.5145 -0.8575
vn -0.0000 -0.0808 -0.9967
vn -0.0000 -0.9943 -0.1065
vn -0.0000 -0.9830 -0.1839
vn -0.0000 -0.9769 -0.2137
vn -0.0000 -0.7625 0.6470
vn -0.0000 0.0995 0.9950
vn -0.0000 -0.4741 0.8805
vn -0.0000 -0.9445 0.3285
vn -0.0000 -0.9994 0.0345
vn -0.0000 -0.9345 0.3560
vn -0.0000 -0.0644 0.9979
vn -0.0000 -0.7399 0.6727
vn -0.0000 -0.9992 -0.0389
vn -0.0000 -0.7223 0.6916
vn -0.0000 -0.9839 0.1789
vn -0.0000 -0.9738 0.2275
vn -0.0000 -0.9744 0.2249
vn -0.0000 -0.8074 0.5900
vn -0.0000 -0.5369 0.8437
vn -0.0000 -0.7071 -0.7071
vn -0.0000 -0.2392 -0.9710
vn -0.0000 -0.4039 -0.9148
vn -0.0000 -0.1351 -0.9908
vn -0.0000 -0.9823 -0.1871
vn -0.0000 -0.7328 0.6805
vn -0.0000 -0.9884 0.1521
vn -0.0000 -0.9048 -0.4258
vn -0.0000 -0.8099 -0.5865
vn -0.0000 -0.6877 0.7260
vn -0.0000 -0.9959 -0.0905
vn -0.0000 -0.1826 -0.9832
vn -0.0000 -0.9989 -0.0461
vn -0.0000 -0.3237 -0.9462
vn -0.0000 -0.9545 0.2983
vn -0.0000 -0.9454 0.3260
vn -0.0000 -0.9929 0.1191
vn -0.0000 -0.9782 -0.2075
vn -0.0000 -0.5812 -0.8137
vn -0.0000 -0.7875 -0.6163
vn -0.0000 -0.6317 0.7752
vn -0.0000 -0.9987 0.0508
vn -0.0000 -0.9994 0.0357
vn -0.0000 -0.0270 -0.9996
vn -0.0000 0.6877 -0.7260
vn -0.0000 0.8000 -0.6000
vn -0.0000 -0.0360 -0.9994
vn -0.0000 0.9754 0.2203
vn -0.0000 0.9208 0.3900
vn -0.0000 0.8742 0.4856
vn -0.0000 0.8042 -0.5944
vn -0.0000 0.0192 -0.9998
vn -0.0000 -0.3162 -0.9487
vn -0.0000 0.9961 -0.0879
vn -0.0000 0.9417 0.3363
vn -0.0000 0.9708 0.2398
vn -0.0000 0.9989 0.0465
vn -0.0000 0.8838 0.4679
vn -0.0000 0.7321 0.6812
vn -0.0000 0.9894 -0.1455
vn -0.0000 0.3881 -0.9216
vn -0.0000 0.3443 -0.9389
vn -0.0000 0.9833 0.1821
vn -0.0000 0.5547 0.8321
vn -0.0000 0.9615 0.2747
vn -0.0000 0.8370 -0.5472
vn -0.0000 0.9255 -0.3786
vn -0.0000 0.4091 -0.9125
vn -0.0000 0.7303 -0.6832
vn -0.0000 0.9775 -0.2108
vn -0.0000 0.9671 0.2545
vn -0.0000 0.7875 0.6163
vn -0.0000 0.6668 0.7452
vn -0.0000 0.9676 0.2524
vn -0.0000 0.1644 -0.9864
vn -0.0000 -0.3078 -0.9514
vn -0.0000 -0.5423 -0.8402
vn -0.0000 -0.5355 -0.8445
vn -0.0000 -0.9976 0.0688
vn -0.0000 0.4789 -0.8779
vn -0.0000 0.9971 -0.0767
vn -0.0000 0.8619 0.5070
vn -0.0000 0.6620 0.7495
vn -0.0000 0.7266 0.6871
vn -0.0000 0.7399 0.6727
vn -0.0000 0.9916 0.1293
vn -0.0000 0.9886 0.1504
vn -0.0000 0.6449 0.7643
vn -0.0000 0.8906 0.4548
vn -1.0000 -0.0001 -0.0000
vn -1.0000 0.0001 -0.0000
vn -1.0000 -0.0002 -0.0000
vn 1.0000 -0.0001 -0.0000
vn 1.0000 0.0001 -0.0000
vn -0.0000 0.9578 0.2874
vn -0.0000 -0.7893 -0.6140
vn -0.0000 0.4788 0.8779
vn -0.0000 -0.9900 -0.1414
vt 0.000000 0.000000
s 0
f 40/1/1 47/1/1 51/1/1
f 173/1/1 172/1/1 144/1/1
f 265/1/2 257/1/2 255/1/2
f 346/1/2 374/1/2 375/1/2
f 20/1/3 221/1/3 19/1/3
f 21/1/4 222/1/4 20/1/4
f 1/1/5 223/1/5 21/1/5
f 2/1/6 203/1/6 1/1/6
f 3/1/7 204/1/7 2/1/7
f 4/1/8 205/1/8 3/1/8
f 5/1/9 206/1/9 4/1/9
f 24/1/10 227/1/10 25/1/10
f 23/1/11 226/1/11 24/1/11
f 22/1/12 225/1/12 23/1/12
f 6/1/13 224/1/13 22/1/13
f 7/1/14 208/1/14 6/1/14
f 8/1/15 209/1/15 7/1/15
f 9/1/16 210/1/16 8/1/16
f 10/1/17 211/1/17 9/1/17
f 11/1/18 212/1/18 10/1/18
f 12/1/19 213/1/19 11/1/19
f 13/1/20 214/1/20 12/1/20
f 14/1/21 215/1/21 13/1/21
f 15/1/22 216/1/22 14/1/22
f 16/1/10 217/1/10 15/1/10
f 17/1/23 218/1/23 16/1/23
f 18/1/24 219/1/24 17/1/24
f 19/1/25 220/1/25 18/1/25
f 25/1/26 228/1/26 26/1/26
f 26/1/27 229/1/27 27/1/27
f 27/1/28 230/1/28 28/1/28
f 28/1/29 231/1/29 29/1/29
f 29/1/30 232/1/30 30/1/30
f 30/1/31 233/1/31 31/1/31
f 31/1/32 234/1/32 32/1/32
f 32/1/33 235/1/33 33/1/33
f 33/1/34 236/1/34 34/1/34
f 34/1/35 237/1/35 35/1/35
f 35/1/36 238/1/36 36/1/36
f 36/1/37 239/1/37 37/1/37
f 37/1/38 240/1/38 38/1/38
f 38/1/39 241/1/39 39/1/39
f 39/1/40 242/1/40 40/1/40
f 40/1/41 243/1/41 41/1/41
f 41/1/42 244/1/42 42/1/42
f 42/1/43 245/1/43 43/1/43
f 43/1/38 246/1/38 44/1/38
f 44/1/44 247/1/44 45/1/44
f 45/1/45 248/1/45 46/1/45
f 46/1/46 249/1/46 47/1/46
f 47/1/47 250/1/47 48/1/47
f 48/1/48 251/1/48 49/1/48
f 49/1/49 252/1/49 50/1/49
f 50/1/50 253/1/50 51/1/50
f 51/1/51 254/1/51 52/1/51
f 52/1/38 255/1/38 53/1/38
f 53/1/52 256/1/52 54/1/52
f 54/1/53 257/1/53 55/1/53
f 55/1/54 258/1/54 56/1/54
f 56/1/55 259/1/55 57/1/55
f 57/1/56 260/1/56 58/1/56
f 58/1/57 261/1/57 59/1/57
f 59/1/57 262/1/57 60/1/57
f 60/1/58 263/1/58 61/1/58
f 61/1/59 264/1/59 62/1/59
f 62/1/60 265/1/60 63/1/60
f 63/1/61 266/1/61 64/1/61
f 64/1/62 267/1/62 65/1/62
f 65/1/63 268/1/63 66/1/63
f 66/1/64 269/1/64 67/1/64
f 67/1/65 270/1/65 68/1/65
f 68/1/66 271/1/66 69/1/66
f 69/1/67 272/1/67 70/1/67
f 70/1/68 273/1/68 71/1/68
f 71/1/69 274/1/69 72/1/69
f 72/1/70 275/1/70 73/1/70
f 73/1/71 276/1/71 74/1/71
f 74/1/72 277/1/72 75/1/72
f 75/1/73 278/1/73 76/1/73
f 76/1/74 279/1/74 77/1/74
f 77/1/75 280/1/75 78/1/75
f 78/1/72 281/1/72 79/1/72
f 79/1/76 282/1/76 80/1/76
f 80/1/77 283/1/77 81/1/77
f 81/1/78 284/1/78 82/1/78
f 82/1/79 285/1/79 83/1/79
f 83/1/80 286/1/80 84/1/80
f 84/1/81 287/1/81 85/1/81
f 85/1/82 288/1/82 86/1/82
f 86/1/83 289/1/83 87/1/83
f 87/1/84 290/1/84 88/1/84
f 88/1/85 291/1/85 89/1/85
f 89/1/86 292/1/86 90/1/86
f 90/1/87 293/1/87 91/1/87
f 91/1/88 294/1/88 92/1/88
f 92/1/89 295/1/89 93/1/89
f 93/1/90 296/1/90 94/1/90
f 94/1/91 297/1/91 95/1/91
f 95/1/92 298/1/92 96/1/92
f 96/1/93 299/1/93 97/1/93
f 97/1/94 300/1/94 98/1/94
f 98/1/95 301/1/95 99/1/95
f 99/1/96 302/1/96 100/1/96
f 100/1/97 303/1/97 101/1/97
f 101/1/98 304/1/98 102/1/98
f 102/1/99 305/1/99 103/1/99
f 103/1/100 306/1/100 104/1/100
f 104/1/101 307/1/101 105/1/101
f 105/1/102 308/1/102 106/1/102
f 106/1/103 309/1/103 107/1/103
f 107/1/104 310/1/104 108/1/104
f 108/1/105 311/1/105 109/1/105
f 109/1/106 207/1/106 5/1/106
f 110/1/107 313/1/107 111/1/107
f 111/1/10 314/1/10 112/1/10
f 112/1/108 315/1/108 113/1/108
f 113/1/109 316/1/109 114/1/109
f 114/1/110 317/1/110 115/1/110
f 115/1/111 318/1/111 116/1/111
f 116/1/112 319/1/112 117/1/112
f 117/1/113 320/1/113 118/1/113
f 118/1/114 321/1/114 119/1/114
f 119/1/115 322/1/115 120/1/115
f 120/1/43 323/1/43 121/1/43
f 121/1/116 324/1/116 122/1/116
f 122/1/117 325/1/117 123/1/117
f 123/1/118 326/1/118 124/1/118
f 124/1/119 327/1/119 125/1/119
f 125/1/120 328/1/120 126/1/120
f 126/1/121 329/1/121 127/1/121
f 128/1/122 312/1/122 110/1/122
f 129/1/123 330/1/123 128/1/123
f 130/1/124 331/1/124 129/1/124
f 131/1/125 332/1/125 130/1/125
f 132/1/126 333/1/126 131/1/126
f 133/1/127 334/1/127 132/1/127
f 134/1/128 335/1/128 133/1/128
f 135/1/129 336/1/129 134/1/129
f 136/1/130 337/1/130 135/1/130
f 137/1/131 338/1/131 136/1/131
f 138/1/43 339/1/43 137/1/43
f 139/1/132 340/1/132 138/1/132
f 140/1/133 341/1/133 139/1/133
f 141/1/134 342/1/134 140/1/134
f 142/1/135 343/1/135 141/1/135
f 143/1/40 344/1/40 142/1/40
f 144/1/4 345/1/4 143/1/4
f 145/1/136 346/1/136 144/1/136
f 146/1/137 347/1/137 145/1/137
f 147/1/138 348/1/138 146/1/138
f 148/1/139 349/1/139 147/1/139
f 149/1/140 350/1/140 148/1/140
f 150/1/141 351/1/141 149/1/141
f 151/1/142 352/1/142 150/1/142
f 152/1/143 353/1/143 151/1/143
f 153/1/144 354/1/144 152/1/144
f 154/1/145 355/1/145 153/1/145
f 155/1/146 356/1/146 154/1/146
f 156/1/147 357/1/147 155/1/147
f 157/1/148 358/1/148 156/1/148
f 158/1/60 359/1/60 157/1/60
f 159/1/149 360/1/149 158/1/149
f 160/1/150 361/1/150 159/1/150
f 161/1/151 362/1/151 160/1/151
f 162/1/152 363/1/152 161/1/152
f 163/1/60 364/1/60 162/1/60
f 164/1/153 365/1/153 163/1/153
f 165/1/154 366/1/154 164/1/154
f 166/1/155 367/1/155 165/1/155
f 167/1/48 368/1/48 166/1/48
f 168/1/156 369/1/156 167/1/156
f 169/1/157 370/1/157 168/1/157
f 170/1/158 371/1/158 169/1/158
f 171/1/159 372/1/159 170/1/159
f 172/1/160 373/1/160 171/1/160
f 173/1/161 374/1/161 172/1/161
f 174/1/162 375/1/162 173/1/162
f 175/1/163 376/1/163 174/1/163
f 176/1/164 377/1/164 175/1/164
f 177/1/165 378/1/165 176/1/165
f 178/1/166 379/1/166 177/1/166
f 179/1/167 380/1/167 178/1/167
f 180/1/168 381/1/168 179/1/168
f 181/1/169 382/1/169 180/1/169
f 182/1/170 383/1/170 181/1/170
f 183/1/171 384/1/171 182/1/171
f 184/1/172 385/1/172 183/1/172
f 185/1/173 386/1/173 184/1/173
f 186/1/174 387/1/174 185/1/174
f 187/1/175 388/1/175 186/1/175
f 188/1/176 389/1/176 187/1/176
f 189/1/177 390/1/177 188/1/177
f 190/1/178 391/1/178 189/1/178
f 191/1/179 392/1/179 190/1/179
f 192/1/180 393/1/180 191/1/180
f 193/1/78 394/1/78 192/1/78
f 194/1/181 395/1/181 193/1/181
f 195/1/182 396/1/182 194/1/182
f 196/1/183 397/1/183 195/1/183
f 197/1/184 398/1/184 196/1/184
f 198/1/185 399/1/185 197/1/185
f 199/1/186 400/1/186 198/1/186
f 200/1/187 401/1/187 199/1/187
f 201/1/188 402/1/188 200/1/188
f 202/1/189 403/1/189 201/1/189
f 127/1/190 404/1/190 202/1/190
f 109/1/1 5/1/1 4/1/1
f 3/1/1 2/1/1 1/1/1
f 108/1/1 109/1/1 4/1/1
f 3/1/1 1/1/1 21/1/1
f 108/1/191 4/1/191 3/1/191
f 106/1/1 107/1/1 108/1/1
f 104/1/1 105/1/1 106/1/1
f 103/1/1 104/1/1 106/1/1
f 106/1/1 108/1/1 3/1/1
f 3/1/1 21/1/1 20/1/1
f 20/1/1 19/1/1 18/1/1
f 20/1/1 18/1/1 17/1/1
f 106/1/192 3/1/192 20/1/192
f 103/1/1 106/1/1 20/1/1
f 103/1/1 20/1/1 17/1/1
f 100/1/1 101/1/1 102/1/1
f 102/1/1 103/1/1 17/1/1
f 102/1/1 17/1/1 16/1/1
f 99/1/1 100/1/1 102/1/1
f 98/1/1 99/1/1 102/1/1
f 102/1/1 16/1/1 15/1/1
f 102/1/1 15/1/1 14/1/1
f 98/1/1 102/1/1 14/1/1
f 13/1/1 12/1/1 11/1/1
f 98/1/1 14/1/1 13/1/1
f 95/1/1 96/1/1 97/1/1
f 97/1/1 98/1/1 13/1/1
f 13/1/1 11/1/1 10/1/1
f 9/1/1 8/1/1 7/1/1
f 13/1/1 10/1/1 9/1/1
f 95/1/1 97/1/1 13/1/1
f 94/1/1 95/1/1 13/1/1
f 9/1/1 7/1/1 6/1/1
f 94/1/1 13/1/1 9/1/1
f 93/1/1 94/1/1 9/1/1
f 9/1/1 6/1/1 22/1/1
f 23/1/1 24/1/1 25/1/1
f 9/1/1 22/1/1 23/1/1
f 90/1/1 91/1/1 92/1/1
f 88/1/1 89/1/1 90/1/1
f 86/1/1 87/1/1 88/1/1
f 86/1/1 88/1/1 90/1/1
f 90/1/1 92/1/1 93/1/1
f 93/1/1 9/1/1 23/1/1
f 23/1/1 25/1/1 26/1/1
f 27/1/1 28/1/1 29/1/1
f 23/1/1 26/1/1 27/1/1
f 86/1/1 90/1/1 93/1/1
f 85/1/1 86/1/1 93/1/1
f 23/1/1 27/1/1 29/1/1
f 29/1/1 30/1/1 31/1/1
f 29/1/1 31/1/1 32/1/1
f 84/1/1 85/1/1 93/1/1
f 83/1/1 84/1/1 93/1/1
f 23/1/1 29/1/1 32/1/1
f 23/1/1 32/1/1 33/1/1
f 83/1/1 93/1/1 23/1/1
f 82/1/1 83/1/1 23/1/1
f 23/1/1 33/1/1 34/1/1
f 23/1/1 34/1/1 35/1/1
f 81/1/1 82/1/1 23/1/1
f 80/1/1 81/1/1 23/1/1
f 80/1/1 23/1/1 35/1/1
f 77/1/1 78/1/1 79/1/1
f 79/1/1 80/1/1 35/1/1
f 79/1/1 35/1/1 36/1/1
f 76/1/1 77/1/1 79/1/1
f 73/1/1 74/1/1 75/1/1
f 76/1/1 79/1/1 36/1/1
f 73/1/1 75/1/1 76/1/1
f 71/1/1 72/1/1 73/1/1
f 68/1/1 69/1/1 70/1/1
f 71/1/1 73/1/1 76/1/1
f 67/1/1 68/1/1 70/1/1
f 71/1/1 76/1/1 36/1/1
f 66/1/1 67/1/1 70/1/1
f 70/1/1 71/1/1 36/1/1
f 70/1/1 36/1/1 37/1/1
f 65/1/1 66/1/1 70/1/1
f 64/1/1 65/1/1 70/1/1
f 70/1/1 37/1/1 38/1/1
f 70/1/1 38/1/1 39/1/1
f 63/1/1 64/1/1 70/1/1
f 61/1/1 62/1/1 63/1/1
f 59/1/1 60/1/1 61/1/1
f 57/1/1 58/1/1 59/1/1
f 55/1/1 56/1/1 57/1/1
f 53/1/1 54/1/1 55/1/1
f 53/1/1 55/1/1 57/1/1
f 57/1/1 59/1/1 61/1/1
f 61/1/1 63/1/1 70/1/1
f 61/1/1 70/1/1 39/1/1
f 53/1/1 57/1/1 61/1/1
f 52/1/1 53/1/1 61/1/1
f 61/1/1 39/1/1 40/1/1
f 40/1/1 41/1/1 42/1/1
f 42/1/1 43/1/1 44/1/1
f 44/1/1 45/1/1 46/1/1
f 47/1/1 48/1/1 49/1/1
f 44/1/1 46/1/1 47/1/1
f 40/1/1 42/1/1 44/1/1
f 51/1/1 52/1/1 61/1/1
f 47/1/1 49/1/1 50/1/1
f 51/1/1 61/1/1 40/1/1
f 47/1/1 50/1/1 51/1/1
f 40/1/1 44/1/1 47/1/1
f 110/1/1 111/1/1 112/1/1
f 110/1/1 112/1/1 113/1/1
f 129/1/1 128/1/1 110/1/1
f 131/1/1 130/1/1 129/1/1
f 134/1/1 133/1/1 132/1/1
f 131/1/1 129/1/1 110/1/1
f 135/1/1 134/1/1 132/1/1
f 131/1/1 110/1/1 113/1/1
f 136/1/1 135/1/1 132/1/1
f 131/1/1 113/1/1 114/1/1
f 136/1/1 132/1/1 131/1/1
f 138/1/1 137/1/1 136/1/1
f 140/1/1 139/1/1 138/1/1
f 142/1/1 141/1/1 140/1/1
f 143/1/193 142/1/193 140/1/193
f 140/1/1 138/1/1 136/1/1
f 131/1/1 114/1/1 115/1/1
f 140/1/1 136/1/1 131/1/1
f 140/1/1 131/1/1 115/1/1
f 115/1/1 116/1/1 117/1/1
f 115/1/1 117/1/1 118/1/1
f 140/1/1 115/1/1 118/1/1
f 119/1/1 120/1/1 121/1/1
f 140/1/1 118/1/1 119/1/1
f 143/1/1 140/1/1 119/1/1
f 119/1/1 121/1/1 122/1/1
f 122/1/1 123/1/1 124/1/1
f 124/1/1 125/1/1 126/1/1
f 126/1/1 127/1/1 202/1/1
f 202/1/1 201/1/1 200/1/1
f 202/1/1 200/1/1 199/1/1
f 124/1/1 126/1/1 202/1/1
f 143/1/1 119/1/1 122/1/1
f 122/1/1 124/1/1 202/1/1
f 122/1/1 202/1/1 199/1/1
f 143/1/1 122/1/1 199/1/1
f 144/1/1 143/1/1 199/1/1
f 147/1/1 146/1/1 145/1/1
f 147/1/1 145/1/1 144/1/1
f 149/1/1 148/1/1 147/1/1
f 152/1/1 151/1/1 150/1/1
f 150/1/1 149/1/1 147/1/1
f 150/1/1 147/1/1 144/1/1
f 153/1/1 152/1/1 150/1/1
f 155/1/1 154/1/1 153/1/1
f 158/1/1 157/1/1 156/1/1
f 156/1/1 155/1/1 153/1/1
f 156/1/1 153/1/1 150/1/1
f 159/1/1 158/1/1 156/1/1
f 161/1/1 160/1/1 159/1/1
f 161/1/1 159/1/1 156/1/1
f 156/1/1 150/1/1 144/1/1
f 197/1/1 196/1/1 195/1/1
f 195/1/1 194/1/1 193/1/1
f 193/1/1 192/1/1 191/1/1
f 191/1/191 190/1/191 189/1/191
f 195/1/1 193/1/1 191/1/1
f 198/1/1 197/1/1 195/1/1
f 161/1/1 156/1/1 144/1/1
f 162/1/1 161/1/1 144/1/1
f 198/1/1 195/1/1 191/1/1
f 198/1/1 191/1/1 189/1/1
f 163/1/1 162/1/1 144/1/1
f 166/1/1 165/1/1 164/1/1
f 164/1/1 163/1/1 144/1/1
f 199/1/1 198/1/1 189/1/1
f 199/1/1 189/1/1 188/1/1
f 166/1/1 164/1/1 144/1/1
f 167/1/1 166/1/1 144/1/1
f 199/1/1 188/1/1 187/1/1
f 186/1/1 185/1/1 184/1/1
f 186/1/1 184/1/1 183/1/1
f 183/1/1 182/1/1 181/1/1
f 180/1/1 179/1/1 178/1/1
f 183/1/1 181/1/1 180/1/1
f 186/1/1 183/1/1 180/1/1
f 186/1/1 180/1/1 178/1/1
f 187/1/1 186/1/1 178/1/1
f 177/1/1 176/1/1 175/1/1
f 199/1/1 187/1/1 178/1/1
f 177/1/1 175/1/1 174/1/1
f 178/1/1 177/1/1 174/1/1
f 178/1/1 174/1/1 173/1/1
f 168/1/1 167/1/1 144/1/1
f 171/1/1 170/1/1 169/1/1
f 169/1/1 168/1/1 144/1/1
f 199/1/1 178/1/1 173/1/1
f 172/1/1 171/1/1 169/1/1
f 144/1/1 199/1/1 173/1/1
f 172/1/1 169/1/1 144/1/1
f 206/1/2 207/1/2 311/1/2
f 310/1/2 309/1/2 308/1/2
f 206/1/2 311/1/2 310/1/2
f 203/1/2 204/1/2 205/1/2
f 205/1/2 206/1/2 310/1/2
f 310/1/2 308/1/2 307/1/2
f 307/1/2 306/1/2 305/1/2
f 304/1/2 303/1/2 302/1/2
f 310/1/2 307/1/2 305/1/2
f 304/1/2 302/1/2 301/1/2
f 205/1/2 310/1/2 305/1/2
f 305/1/2 304/1/2 301/1/2
f 305/1/2 301/1/2 300/1/2
f 203/1/2 205/1/2 305/1/2
f 222/1/2 223/1/2 203/1/2
f 220/1/2 221/1/2 222/1/2
f 219/1/2 220/1/2 222/1/2
f 222/1/2 203/1/2 305/1/2
f 222/1/2 305/1/2 300/1/2
f 219/1/2 222/1/2 300/1/2
f 299/1/2 298/1/2 297/1/2
f 219/1/2 300/1/2 299/1/2
f 218/1/2 219/1/2 299/1/2
f 299/1/2 297/1/2 296/1/2
f 299/1/2 296/1/2 295/1/2
f 217/1/2 218/1/2 299/1/2
f 216/1/2 217/1/2 299/1/2
f 299/1/2 295/1/2 294/1/2
f 294/1/2 293/1/2 292/1/2
f 292/1/2 291/1/2 290/1/2
f 290/1/2 289/1/2 288/1/2
f 292/1/2 290/1/2 288/1/2
f 299/1/2 294/1/2 292/1/2
f 215/1/2 216/1/2 299/1/2
f 213/1/2 214/1/2 215/1/2
f 212/1/2 213/1/2 215/1/2
f 299/1/2 292/1/2 288/1/2
f 299/1/2 288/1/2 287/1/2
f 212/1/2 215/1/2 299/1/2
f 209/1/2 210/1/2 211/1/2
f 211/1/2 212/1/2 299/1/2
f 299/1/2 287/1/2 286/1/2
f 299/1/2 286/1/2 285/1/2
f 209/1/2 211/1/2 299/1/2
f 224/1/2 208/1/2 209/1/2
f 227/1/2 226/1/2 225/1/2
f 224/1/2 209/1/2 299/1/2
f 228/1/2 227/1/2 225/1/2
f 225/1/2 224/1/2 299/1/2
f 225/1/2 299/1/2 285/1/2
f 229/1/2 228/1/2 225/1/2
f 231/1/2 230/1/2 229/1/2
f 233/1/2 232/1/2 231/1/2
f 234/1/2 233/1/2 231/1/2
f 231/1/2 229/1/2 225/1/2
f 225/1/2 285/1/2 284/1/2
f 225/1/2 284/1/2 283/1/2
f 234/1/2 231/1/2 225/1/2
f 235/1/2 234/1/2 225/1/2
f 225/1/2 283/1/2 282/1/2
f 281/1/2 280/1/2 279/1/2
f 225/1/2 282/1/2 281/1/2
f 236/1/2 235/1/2 225/1/2
f 237/1/2 236/1/2 225/1/2
f 225/1/2 281/1/2 279/1/2
f 225/1/2 279/1/2 278/1/2
f 237/1/2 225/1/2 278/1/2
f 277/1/2 276/1/2 275/1/2
f 237/1/2 278/1/2 277/1/2
f 238/1/2 237/1/2 277/1/2
f 277/1/2 275/1/2 274/1/2
f 277/1/2 274/1/2 273/1/2
f 239/1/2 238/1/2 277/1/2
f 240/1/2 239/1/2 277/1/2
f 240/1/2 277/1/2 273/1/2
f 241/1/2 240/1/2 273/1/2
f 272/1/2 271/1/2 270/1/2
f 241/1/2 273/1/2 272/1/2
f 244/1/2 243/1/2 242/1/2
f 241/1/2 272/1/2 270/1/2
f 245/1/2 244/1/2 242/1/2
f 241/1/2 270/1/2 269/1/2
f 246/1/2 245/1/2 242/1/2
f 241/1/2 269/1/2 268/1/2
f 246/1/194 242/1/194 241/1/194
f 248/1/2 247/1/2 246/1/2
f 251/1/2 250/1/2 249/1/2
f 249/1/2 248/1/2 246/1/2
f 246/1/2 241/1/2 268/1/2
f 268/1/2 267/1/2 266/1/2
f 265/1/2 264/1/2 263/1/2
f 268/1/2 266/1/2 265/1/2
f 249/1/2 246/1/2 268/1/2
f 252/1/2 251/1/2 249/1/2
f 253/1/2 252/1/2 249/1/2
f 249/1/2 268/1/2 265/1/2
f 265/1/2 263/1/2 262/1/2
f 261/1/2 260/1/2 259/1/2
f 265/1/2 262/1/2 261/1/2
f 253/1/2 249/1/2 265/1/2
f 254/1/2 253/1/2 265/1/2
f 265/1/2 261/1/2 259/1/2
f 259/1/2 258/1/2 257/1/2
f 257/1/2 256/1/2 255/1/2
f 255/1/2 254/1/2 265/1/2
f 265/1/2 259/1/2 257/1/2
f 314/1/2 313/1/2 312/1/2
f 312/1/2 330/1/2 331/1/2
f 331/1/2 332/1/2 333/1/2
f 334/1/2 335/1/2 336/1/2
f 312/1/2 331/1/2 333/1/2
f 334/1/2 336/1/2 337/1/2
f 314/1/2 312/1/2 333/1/2
f 334/1/2 337/1/2 338/1/2
f 315/1/2 314/1/2 333/1/2
f 333/1/2 334/1/2 338/1/2
f 338/1/2 339/1/2 340/1/2
f 340/1/2 341/1/2 342/1/2
f 342/1/2 343/1/2 344/1/2
f 342/1/195 344/1/195 345/1/195
f 338/1/2 340/1/2 342/1/2
f 316/1/2 315/1/2 333/1/2
f 333/1/2 338/1/2 342/1/2
f 316/1/2 333/1/2 342/1/2
f 319/1/2 318/1/2 317/1/2
f 317/1/2 316/1/2 342/1/2
f 319/1/2 317/1/2 342/1/2
f 320/1/2 319/1/2 342/1/2
f 320/1/2 342/1/2 345/1/2
f 323/1/2 322/1/2 321/1/2
f 321/1/2 320/1/2 345/1/2
f 323/1/2 321/1/2 345/1/2
f 326/1/2 325/1/2 324/1/2
f 324/1/2 323/1/2 345/1/2
f 326/1/2 324/1/2 345/1/2
f 328/1/2 327/1/2 326/1/2
f 404/1/2 329/1/2 328/1/2
f 402/1/2 403/1/2 404/1/2
f 401/1/2 402/1/2 404/1/2
f 404/1/2 328/1/2 326/1/2
f 326/1/2 345/1/2 346/1/2
f 347/1/2 348/1/2 349/1/2
f 404/1/2 326/1/2 346/1/2
f 346/1/2 347/1/2 349/1/2
f 349/1/2 350/1/2 351/1/2
f 352/1/2 353/1/2 354/1/2
f 349/1/2 351/1/2 352/1/2
f 401/1/2 404/1/2 346/1/2
f 346/1/2 349/1/2 352/1/2
f 352/1/2 354/1/2 355/1/2
f 355/1/2 356/1/2 357/1/2
f 358/1/2 359/1/2 360/1/2
f 355/1/2 357/1/2 358/1/2
f 352/1/2 355/1/2 358/1/2
f 358/1/2 360/1/2 361/1/2
f 361/1/2 362/1/2 363/1/2
f 358/1/2 361/1/2 363/1/2
f 346/1/2 352/1/2 358/1/2
f 397/1/2 398/1/2 399/1/2
f 395/1/2 396/1/2 397/1/2
f 393/1/2 394/1/2 395/1/2
f 391/1/2 392/1/2 393/1/2
f 393/1/2 395/1/2 397/1/2
f 397/1/2 399/1/2 400/1/2
f 346/1/2 358/1/2 363/1/2
f 346/1/2 363/1/2 364/1/2
f 393/1/2 397/1/2 400/1/2
f 391/1/2 393/1/2 400/1/2
f 346/1/2 364/1/2 365/1/2
f 366/1/2 367/1/2 368/1/2
f 346/1/2 365/1/2 366/1/2
f 391/1/2 400/1/2 401/1/2
f 390/1/2 391/1/2 401/1/2
f 346/1/2 366/1/2 368/1/2
f 346/1/2 368/1/2 369/1/2
f 389/1/2 390/1/2 401/1/2
f 386/1/2 387/1/2 388/1/2
f 385/1/2 386/1/2 388/1/2
f 383/1/2 384/1/2 385/1/2
f 380/1/2 381/1/2 382/1/2
f 382/1/2 383/1/2 385/1/2
f 382/1/2 385/1/2 388/1/2
f 380/1/2 382/1/2 388/1/2
f 380/1/2 388/1/2 389/1/2
f 377/1/2 378/1/2 379/1/2
f 380/1/2 389/1/2 401/1/2
f 376/1/2 377/1/2 379/1/2
f 376/1/2 379/1/2 380/1/2
f 375/1/2 376/1/2 380/1/2
f 346/1/2 369/1/2 370/1/2
f 371/1/2 372/1/2 373/1/2
f 346/1/2 370/1/2 371/1/2
f 375/1/2 380/1/2 401/1/2
f 371/1/2 373/1/2 374/1/2
f 375/1/2 401/1/2 346/1/2
f 346/1/2 371/1/2 374/1/2
f 20/1/3 222/1/3 221/1/3
f 21/1/4 223/1/4 222/1/4
f 1/1/5 203/1/5 223/1/5
f 2/1/6 204/1/6 203/1/6
f 3/1/7 205/1/7 204/1/7
f 4/1/8 206/1/8 205/1/8
f 5/1/9 207/1/9 206/1/9
f 24/1/10 226/1/10 227/1/10
f 23/1/11 225/1/11 226/1/11
f 22/1/12 224/1/12 225/1/12
f 6/1/13 208/1/13 224/1/13
f 7/1/14 209/1/14 208/1/14
f 8/1/15 210/1/15 209/1/15
f 9/1/16 211/1/16 210/1/16
f 10/1/17 212/1/17 211/1/17
f 11/1/18 213/1/18 212/1/18
f 12/1/19 214/1/19 213/1/19
f 13/1/20 215/1/20 214/1/20
f 14/1/21 216/1/21 215/1/21
f 15/1/22 217/1/22 216/1/22
f 16/1/10 218/1/10 217/1/10
f 17/1/23 219/1/23 218/1/23
f 18/1/24 220/1/24 219/1/24
f 19/1/25 221/1/25 220/1/25
f 25/1/26 227/1/26 228/1/26
f 26/1/196 228/1/196 229/1/196
f 27/1/28 229/1/28 230/1/28
f 28/1/29 230/1/29 231/1/29
f 29/1/30 231/1/30 232/1/30
f 30/1/31 232/1/31 233/1/31
f 31/1/32 233/1/32 234/1/32
f 32/1/33 234/1/33 235/1/33
f 33/1/34 235/1/34 236/1/34
f 34/1/35 236/1/35 237/1/35
f 35/1/36 237/1/36 238/1/36
f 36/1/37 238/1/37 239/1/37
f 37/1/38 239/1/38 240/1/38
f 38/1/39 240/1/39 241/1/39
f 39/1/40 241/1/40 242/1/40
f 40/1/41 242/1/41 243/1/41
f 41/1/197 243/1/197 244/1/197
f 42/1/43 244/1/43 245/1/43
f 43/1/38 245/1/38 246/1/38
f 44/1/44 246/1/44 247/1/44
f 45/1/45 247/1/45 248/1/45
f 46/1/46 248/1/46 249/1/46
f 47/1/198 249/1/198 250/1/198
f 48/1/48 250/1/48 251/1/48
f 49/1/49 251/1/49 252/1/49
f 50/1/50 252/1/50 253/1/50
f 51/1/51 253/1/51 254/1/51
f 52/1/38 254/1/38 255/1/38
f 53/1/52 255/1/52 256/1/52
f 54/1/53 256/1/53 257/1/53
f 55/1/54 257/1/54 258/1/54
f 56/1/55 258/1/55 259/1/55
f 57/1/56 259/1/56 260/1/56
f 58/1/57 260/1/57 261/1/57
f 59/1/57 261/1/57 262/1/57
f 60/1/58 262/1/58 263/1/58
f 61/1/59 263/1/59 264/1/59
f 62/1/60 264/1/60 265/1/60
f 63/1/61 265/1/61 266/1/61
f 64/1/62 266/1/62 267/1/62
f 65/1/63 267/1/63 268/1/63
f 66/1/64 268/1/64 269/1/64
f 67/1/65 269/1/65 270/1/65
f 68/1/66 270/1/66 271/1/66
f 69/1/67 271/1/67 272/1/67
f 70/1/68 272/1/68 273/1/68
f 71/1/69 273/1/69 274/1/69
f 72/1/70 274/1/70 275/1/70
f 73/1/71 275/1/71 276/1/71
f 74/1/72 276/1/72 277/1/72
f 75/1/73 277/1/73 278/1/73
f 76/1/74 278/1/74 279/1/74
f 77/1/75 279/1/75 280/1/75
f 78/1/72 280/1/72 281/1/72
f 79/1/76 281/1/76 282/1/76
f 80/1/77 282/1/77 283/1/77
f 81/1/78 283/1/78 284/1/78
f 82/1/79 284/1/79 285/1/79
f 83/1/80 285/1/80 286/1/80
f 84/1/81 286/1/81 287/1/81
f 85/1/82 287/1/82 288/1/82
f 86/1/83 288/1/83 289/1/83
f 87/1/84 289/1/84 290/1/84
f 88/1/85 290/1/85 291/1/85
f 89/1/86 291/1/86 292/1/86
f 90/1/87 292/1/87 293/1/87
f 91/1/88 293/1/88 294/1/88
f 92/1/89 294/1/89 295/1/89
f 93/1/90 295/1/90 296/1/90
f 94/1/91 296/1/91 297/1/91
f 95/1/92 297/1/92 298/1/92
f 96/1/199 298/1/199 299/1/199
f 97/1/94 299/1/94 300/1/94
f 98/1/95 300/1/95 301/1/95
f 99/1/96 301/1/96 302/1/96
f 100/1/97 302/1/97 303/1/97
f 101/1/98 303/1/98 304/1/98
f 102/1/99 304/1/99 305/1/99
f 103/1/100 305/1/100 306/1/100
f 104/1/101 306/1/101 307/1/101
f 105/1/102 307/1/102 308/1/102
f 106/1/103 308/1/103 309/1/103
f 107/1/104 309/1/104 310/1/104
f 108/1/105 310/1/105 311/1/105
f 109/1/106 311/1/106 207/1/106
f 110/1/107 312/1/107 313/1/107
f 111/1/10 313/1/10 314/1/10
f 112/1/108 314/1/108 315/1/108
f 113/1/109 315/1/109 316/1/109
f 114/1/110 316/1/110 317/1/110
f 115/1/111 317/1/111 318/1/111
f 116/1/112 318/1/112 319/1/112
f 117/1/113 319/1/113 320/1/113
f 118/1/114 320/1/114 321/1/114
f 119/1/115 321/1/115 322/1/115
f 120/1/43 322/1/43 323/1/43
f 121/1/116 323/1/116 324/1/116
f 122/1/117 324/1/117 325/1/117
f 123/1/118 325/1/118 326/1/118
f 124/1/119 326/1/119 327/1/119
f 125/1/120 327/1/120 328/1/120
f 126/1/121 328/1/121 329/1/121
f 128/1/122 330/1/122 312/1/122
f 129/1/123 331/1/123 330/1/123
f 130/1/124 332/1/124 331/1/124
f 131/1/125 333/1/125 332/1/125
f 132/1/126 334/1/126 333/1/126
f 133/1/127 335/1/127 334/1/127
f 134/1/128 336/1/128 335/1/128
f 135/1/129 337/1/129 336/1/129
f 136/1/130 338/1/130 337/1/130
f 137/1/131 339/1/131 338/1/131
f 138/1/43 340/1/43 339/1/43
f 139/1/132 341/1/132 340/1/132
f 140/1/133 342/1/133 341/1/133
f 141/1/134 343/1/134 342/1/134
f 142/1/135 344/1/135 343/1/135
f 143/1/40 345/1/40 344/1/40
f 144/1/4 346/1/4 345/1/4
f 145/1/136 347/1/136 346/1/136
f 146/1/137 348/1/137 347/1/137
f 147/1/138 349/1/138 348/1/138
f 148/1/139 350/1/139 349/1/139
f 149/1/140 351/1/140 350/1/140
f 150/1/141 352/1/141 351/1/141
f 151/1/142 353/1/142 352/1/142
f 152/1/143 354/1/143 353/1/143
f 153/1/144 355/1/144 354/1/144
f 154/1/145 356/1/145 355/1/145
f 155/1/146 357/1/146 356/1/146
f 156/1/147 358/1/147 357/1/147
f 157/1/148 359/1/148 358/1/148
f 158/1/60 360/1/60 359/1/60
f 159/1/149 361/1/149 360/1/149
f 160/1/150 362/1/150 361/1/150
f 161/1/151 363/1/151 362/1/151
f 162/1/152 364/1/152 363/1/152
f 163/1/60 365/1/60 364/1/60
f 164/1/153 366/1/153 365/1/153
f 165/1/154 367/1/154 366/1/154
f 166/1/155 368/1/155 367/1/155
f 167/1/48 369/1/48 368/1/48
f 168/1/156 370/1/156 369/1/156
f 169/1/157 371/1/157 370/1/157
f 170/1/158 372/1/158 371/1/158
f 171/1/159 373/1/159 372/1/159
f 172/1/160 374/1/160 373/1/160
f 173/1/161 375/1/161 374/1/161
f 174/1/162 376/1/162 375/1/162
f 175/1/163 377/1/163 376/1/163
f 176/1/164 378/1/164 377/1/164
f 177/1/165 379/1/165 378/1/165
f 178/1/166 380/1/166 379/1/166
f 179/1/167 381/1/167 380/1/167
f 180/1/168 382/1/168 381/1/168
f 181/1/169 383/1/169 382/1/169
f 182/1/170 384/1/170 383/1/170
f 183/1/171 385/1/171 384/1/171
f 184/1/172 386/1/172 385/1/172
f 185/1/173 387/1/173 386/1/173
f 186/1/174 388/1/174 387/1/174
f 187/1/175 389/1/175 388/1/175
f 188/1/176 390/1/176 389/1/176
f 189/1/177 391/1/177 390/1/177
f 190/1/178 392/1/178 391/1/178
f 191/1/179 393/1/179 392/1/179
f 192/1/180 394/1/180 393/1/180
f 193/1/78 395/1/78 394/1/78
f 194/1/181 396/1/181 395/1/181
f 195/1/182 397/1/182 396/1/182
f 196/1/183 398/1/183 397/1/183
f 197/1/184 399/1/184 398/1/184
f 198/1/185 400/1/185 399/1/185
f 199/1/186 401/1/186 400/1/186
f 200/1/187 402/1/187 401/1/187
f 201/1/188 403/1/188 402/1/188
f 202/1/189 404/1/189 403/1/189
f 127/1/190 329/1/190 404/1/190
