# Blender 5.2.0 LTS
# www.blender.org
mtllib Missouri.mtl
o Plane.028
v 1.441337 1.320456 -0.424540
v 1.441337 1.248837 -0.494950
v 1.441337 -0.910948 -1.042665
v 1.441337 -0.149585 -1.034896
v 1.441337 0.452514 -0.980513
v 1.441337 0.666162 -0.751327
v 1.441337 0.720545 -0.724135
v 1.441337 0.837080 -0.786287
v 1.441337 0.914770 -0.821248
v 1.441337 0.961384 -0.794057
v 1.441337 1.027421 -0.673637
v 1.441337 1.081804 -0.529911
v 1.441337 -1.145899 -1.039237
v 1.441337 -1.532010 -1.054379
v 1.441337 -1.490371 -3.087138
v 1.441337 -1.486585 -3.609523
v 1.441337 -1.509298 -3.749583
v 1.441337 -1.615289 -3.753369
v 1.441337 -1.702353 -3.681447
v 1.441337 -1.774276 -3.639808
v 1.441337 -1.831057 -3.658734
v 1.441337 -1.812130 -3.988065
v 1.441337 -1.713056 -4.023068
v 1.441337 -1.661626 -4.033355
v 1.441337 -1.538194 -4.071071
v 1.441337 -1.428476 -4.053927
v 1.441337 -1.425048 -4.146501
v 1.441337 -1.332474 -4.149930
v 1.441337 -1.332474 -4.191073
v 1.441337 -1.322188 -4.266503
v 1.441337 -1.037608 -4.266503
v 1.441337 -1.030751 -4.252789
v 1.441337 -1.027322 -4.156787
v 1.441337 -1.003322 -4.098500
v 1.441337 -0.907319 -4.036784
v 1.441337 -0.821602 -4.040214
v 1.441337 -0.763315 -4.098500
v 1.441337 -0.499307 -3.951068
v 1.441337 -0.437591 -3.892781
v 1.441337 -0.420448 -3.800208
v 1.441337 -0.372447 -3.687062
v 1.441337 -0.238729 -3.522487
v 1.441337 -0.125583 -3.433341
v 1.441337 -0.084439 -3.481343
v 1.441337 0.038993 -3.553346
v 1.441337 0.114424 -3.597919
v 1.441337 0.289286 -3.594489
v 1.441337 0.340716 -3.580775
v 1.441337 0.375003 -3.532773
v 1.441337 0.385289 -3.261909
v 1.441337 0.532721 -3.244765
v 1.441337 0.601295 -3.186479
v 1.441337 0.759014 -2.997901
v 1.441337 1.029878 -2.792180
v 1.441337 1.088165 -2.809323
v 1.441337 1.192701 -2.804345
v 1.441337 1.287281 -2.739633
v 1.441337 1.351994 -2.729676
v 1.441337 1.416706 -2.774478
v 1.441337 1.481419 -2.774478
v 1.441337 1.526220 -2.655009
v 1.441337 1.571021 -2.575362
v 1.441337 1.561065 -2.475804
v 1.441337 1.561065 -2.331445
v 1.441337 1.541153 -2.102462
v 1.441337 1.501330 -0.390068
v 2.441337 1.320456 -0.424540
v 2.441337 1.248837 -0.494950
v 2.441337 -0.910948 -1.042665
v 2.441337 -0.149585 -1.034896
v 2.441337 0.452514 -0.980513
v 2.441337 0.666162 -0.751327
v 2.441337 0.720545 -0.724135
v 2.441337 0.837080 -0.786287
v 2.441337 0.914770 -0.821248
v 2.441337 0.961384 -0.794057
v 2.441337 1.027421 -0.673637
v 2.441337 1.081804 -0.529911
v 2.441337 -1.145899 -1.039237
v 2.441337 -1.532010 -1.054379
v 2.441337 -1.490371 -3.087138
v 2.441337 -1.486585 -3.609523
v 2.441337 -1.509298 -3.749583
v 2.441337 -1.615289 -3.753369
v 2.441337 -1.702353 -3.681447
v 2.441337 -1.774276 -3.639808
v 2.441337 -1.831057 -3.658734
v 2.441337 -1.812130 -3.988065
v 2.441337 -1.713056 -4.023068
v 2.441337 -1.661626 -4.033355
v 2.441337 -1.538194 -4.071071
v 2.441337 -1.428476 -4.053927
v 2.441337 -1.425048 -4.146501
v 2.441337 -1.332474 -4.149930
v 2.441337 -1.332474 -4.191073
v 2.441337 -1.322188 -4.266503
v 2.441337 -1.037608 -4.266503
v 2.441337 -1.030751 -4.252789
v 2.441337 -1.027322 -4.156787
v 2.441337 -1.003322 -4.098500
v 2.441337 -0.907319 -4.036784
v 2.441337 -0.821602 -4.040214
v 2.441337 -0.763315 -4.098500
v 2.441337 -0.499308 -3.951068
v 2.441337 -0.437592 -3.892781
v 2.441337 -0.420448 -3.800208
v 2.441337 -0.372447 -3.687062
v 2.441337 -0.238729 -3.522487
v 2.441337 -0.125583 -3.433341
v 2.441337 -0.084439 -3.481343
v 2.441337 0.038993 -3.553346
v 2.441337 0.114424 -3.597919
v 2.441337 0.289286 -3.594489
v 2.441337 0.340716 -3.580775
v 2.441337 0.375003 -3.532773
v 2.441337 0.385289 -3.261909
v 2.441337 0.532721 -3.244765
v 2.441337 0.601295 -3.186479
v 2.441337 0.759013 -2.997901
v 2.441337 1.029878 -2.792180
v 2.441337 1.088165 -2.809323
v 2.441337 1.192701 -2.804345
v 2.441337 1.287281 -2.739633
v 2.441337 1.351994 -2.729676
v 2.441337 1.416706 -2.774478
v 2.441337 1.481419 -2.774478
v 2.441337 1.526220 -2.655009
v 2.441337 1.571021 -2.575362
v 2.441337 1.561065 -2.475804
v 2.441337 1.561065 -2.331445
v 2.441337 1.541153 -2.102462
v 2.441337 1.501330 -0.390068
vn -1.0000 -0.0000 -0.0000
vn 1.0000 -0.0000 -0.0000
vn -0.0000 0.9962 0.0866
vn -0.0000 0.9997 0.0232
vn -0.0000 -0.1872 0.9823
vn -0.0000 -0.7011 0.7131
vn -0.0000 -0.2049 0.9788
vn -0.0000 0.0146 0.9999
vn -0.0000 -0.0102 0.9999
vn -0.0000 -0.0900 0.9959
vn -0.0000 -0.7315 0.6819
vn -0.0000 -0.4472 0.8944
vn -0.0000 0.4706 0.8824
vn -0.0000 0.4104 0.9119
vn -0.0000 -0.5039 0.8638
vn -0.0000 -0.8768 0.4808
vn -0.0000 -0.9353 0.3539
vn -0.0000 -0.0392 0.9992
vn -0.0000 -0.9998 -0.0205
vn -0.0000 -1.0000 -0.0072
vn -0.0000 -0.9871 0.1601
vn -0.0000 -0.0357 0.9994
vn -0.0000 0.6369 0.7710
vn -0.0000 0.5010 0.8654
vn -0.0000 -0.3162 0.9487
vn -0.0000 -0.9984 -0.0574
vn -0.0000 -0.3331 -0.9429
vn -0.0000 -0.1961 -0.9806
vn -0.0000 -0.2922 -0.9564
vn -0.0000 0.1544 -0.9880
vn -0.0000 -0.9993 -0.0370
vn -0.0000 -0.0370 -0.9993
vn -0.0000 -1.0000 -0.0000
vn -0.0000 -0.9908 -0.1351
vn -0.0000 -0.0000 -1.0000
vn -0.0000 0.8944 -0.4472
vn -0.0000 0.9994 -0.0357
vn -0.0000 0.9247 -0.3808
vn -0.0000 0.5408 -0.8412
vn -0.0000 -0.0400 -0.9992
vn -0.0000 -0.7071 -0.7071
vn -0.0000 0.4876 -0.8731
vn -0.0000 0.6866 -0.7270
vn -0.0000 0.9833 -0.1821
vn -0.0000 0.9206 -0.3906
vn -0.0000 0.7761 -0.6306
vn -0.0000 0.6189 -0.7855
vn -0.0000 -0.7593 -0.6508
vn -0.0000 -0.5039 -0.8638
vn -0.0000 -0.5087 -0.8609
vn -0.0000 0.0196 -0.9998
vn -0.0000 0.2576 -0.9662
vn -0.0000 0.8137 -0.5812
vn -0.0000 0.9993 -0.0379
vn -0.0000 0.1155 -0.9933
vn -0.0000 0.6476 -0.7619
vn -0.0000 0.7671 -0.6416
vn -0.0000 0.6048 -0.7964
vn -0.0000 -0.2822 -0.9594
vn -0.0000 0.0476 -0.9989
vn -0.0000 0.5647 -0.8253
vn -0.0000 0.1521 -0.9884
vn -0.0000 -0.5692 -0.8222
vn -0.0000 0.9363 -0.3511
vn -0.0000 0.8716 -0.4903
vn -0.0000 0.9950 0.0995
vn -0.0000 1.0000 -0.0000
vn 1.0000 0.0001 -0.0000
vt 0.000000 0.000000
s 0
f 2/1/1 65/1/1 61/1/1
f 124/1/2 131/1/2 132/1/2
f 65/1/3 130/1/3 64/1/3
f 66/1/4 131/1/4 65/1/4
f 1/1/5 132/1/5 66/1/5
f 2/1/6 67/1/6 1/1/6
f 12/1/7 68/1/7 2/1/7
f 13/1/8 69/1/8 3/1/8
f 3/1/9 70/1/9 4/1/9
f 4/1/10 71/1/10 5/1/10
f 5/1/11 72/1/11 6/1/11
f 6/1/12 73/1/12 7/1/12
f 7/1/13 74/1/13 8/1/13
f 8/1/14 75/1/14 9/1/14
f 9/1/15 76/1/15 10/1/15
f 10/1/16 77/1/16 11/1/16
f 11/1/17 78/1/17 12/1/17
f 14/1/18 79/1/18 13/1/18
f 15/1/19 80/1/19 14/1/19
f 16/1/20 81/1/20 15/1/20
f 17/1/21 82/1/21 16/1/21
f 18/1/22 83/1/22 17/1/22
f 19/1/23 84/1/23 18/1/23
f 20/1/24 85/1/24 19/1/24
f 21/1/25 86/1/25 20/1/25
f 22/1/26 87/1/26 21/1/26
f 23/1/27 88/1/27 22/1/27
f 24/1/28 89/1/28 23/1/28
f 25/1/29 90/1/29 24/1/29
f 26/1/30 91/1/30 25/1/30
f 27/1/31 92/1/31 26/1/31
f 28/1/32 93/1/32 27/1/32
f 29/1/33 94/1/33 28/1/33
f 30/1/34 95/1/34 29/1/34
f 31/1/35 96/1/35 30/1/35
f 32/1/36 97/1/36 31/1/36
f 33/1/37 98/1/37 32/1/37
f 34/1/38 99/1/38 33/1/38
f 35/1/39 100/1/39 34/1/39
f 36/1/40 101/1/40 35/1/40
f 37/1/41 102/1/41 36/1/41
f 38/1/42 103/1/42 37/1/42
f 39/1/43 104/1/43 38/1/43
f 40/1/44 105/1/44 39/1/44
f 41/1/45 106/1/45 40/1/45
f 42/1/46 107/1/46 41/1/46
f 43/1/47 108/1/47 42/1/47
f 44/1/48 109/1/48 43/1/48
f 45/1/49 110/1/49 44/1/49
f 45/1/50 112/1/50 111/1/50
f 47/1/51 112/1/51 46/1/51
f 48/1/52 113/1/52 47/1/52
f 49/1/53 114/1/53 48/1/53
f 50/1/54 115/1/54 49/1/54
f 51/1/55 116/1/55 50/1/55
f 52/1/56 117/1/56 51/1/56
f 52/1/57 119/1/57 118/1/57
f 54/1/58 119/1/58 53/1/58
f 55/1/59 120/1/59 54/1/59
f 56/1/60 121/1/60 55/1/60
f 57/1/61 122/1/61 56/1/61
f 58/1/62 123/1/62 57/1/62
f 59/1/63 124/1/63 58/1/63
f 60/1/35 125/1/35 59/1/35
f 61/1/64 126/1/64 60/1/64
f 62/1/65 127/1/65 61/1/65
f 63/1/66 128/1/66 62/1/66
f 64/1/67 129/1/67 63/1/67
f 33/1/1 32/1/1 31/1/1
f 31/1/1 30/1/1 29/1/1
f 28/1/1 27/1/1 26/1/1
f 31/1/1 29/1/1 28/1/1
f 33/1/1 31/1/1 28/1/1
f 26/1/1 25/1/1 24/1/1
f 33/1/1 28/1/1 26/1/1
f 34/1/1 33/1/1 26/1/1
f 26/1/1 24/1/1 23/1/1
f 23/1/1 22/1/1 21/1/1
f 21/1/1 20/1/1 19/1/1
f 21/1/1 19/1/1 18/1/1
f 26/1/1 23/1/1 21/1/1
f 35/1/1 34/1/1 26/1/1
f 38/1/1 37/1/1 36/1/1
f 38/1/1 36/1/1 35/1/1
f 40/1/1 39/1/1 38/1/1
f 41/1/1 40/1/1 38/1/1
f 38/1/1 35/1/1 26/1/1
f 26/1/1 21/1/1 18/1/1
f 26/1/1 18/1/1 17/1/1
f 41/1/1 38/1/1 26/1/1
f 42/1/1 41/1/1 26/1/1
f 26/1/1 17/1/1 16/1/1
f 15/1/1 14/1/1 13/1/1
f 26/1/1 16/1/1 15/1/1
f 43/1/1 42/1/1 26/1/1
f 45/1/1 44/1/1 43/1/1
f 47/1/1 46/1/1 45/1/1
f 49/1/1 48/1/1 47/1/1
f 52/1/1 51/1/1 50/1/1
f 50/1/1 49/1/1 47/1/1
f 47/1/1 45/1/1 43/1/1
f 43/1/1 26/1/1 15/1/1
f 15/1/1 13/1/1 3/1/1
f 15/1/1 3/1/1 4/1/1
f 50/1/1 47/1/1 43/1/1
f 43/1/1 15/1/1 4/1/1
f 5/1/1 6/1/1 7/1/1
f 43/1/1 4/1/1 5/1/1
f 52/1/1 50/1/1 43/1/1
f 53/1/1 52/1/1 43/1/1
f 43/1/1 5/1/1 7/1/1
f 43/1/1 7/1/1 8/1/1
f 54/1/1 53/1/1 43/1/1
f 56/1/1 55/1/1 54/1/1
f 57/1/1 56/1/1 54/1/1
f 54/1/1 43/1/1 8/1/1
f 54/1/1 8/1/1 9/1/1
f 57/1/1 54/1/1 9/1/1
f 57/1/1 9/1/1 10/1/1
f 60/1/1 59/1/1 58/1/1
f 58/1/1 57/1/1 10/1/1
f 11/1/1 12/1/1 2/1/1
f 58/1/1 10/1/1 11/1/1
f 61/1/1 60/1/1 58/1/1
f 63/1/1 62/1/1 61/1/1
f 65/1/1 64/1/1 63/1/1
f 1/1/1 66/1/1 65/1/1
f 58/1/1 11/1/1 2/1/1
f 2/1/1 1/1/1 65/1/1
f 65/1/1 63/1/1 61/1/1
f 61/1/1 58/1/1 2/1/1
f 97/1/2 98/1/2 99/1/2
f 96/1/2 97/1/2 99/1/2
f 94/1/68 95/1/68 96/1/68
f 92/1/2 93/1/2 94/1/2
f 90/1/2 91/1/2 92/1/2
f 88/1/2 89/1/2 90/1/2
f 86/1/2 87/1/2 88/1/2
f 84/1/2 85/1/2 86/1/2
f 84/1/2 86/1/2 88/1/2
f 88/1/2 90/1/2 92/1/2
f 94/1/2 96/1/2 99/1/2
f 84/1/2 88/1/2 92/1/2
f 92/1/2 94/1/2 99/1/2
f 92/1/2 99/1/2 100/1/2
f 83/1/2 84/1/2 92/1/2
f 82/1/2 83/1/2 92/1/2
f 92/1/2 100/1/2 101/1/2
f 102/1/2 103/1/2 104/1/2
f 82/1/2 92/1/2 101/1/2
f 101/1/2 102/1/2 104/1/2
f 104/1/2 105/1/2 106/1/2
f 104/1/2 106/1/2 107/1/2
f 82/1/2 101/1/2 104/1/2
f 79/1/2 80/1/2 81/1/2
f 81/1/2 82/1/2 104/1/2
f 81/1/2 104/1/2 107/1/2
f 69/1/2 79/1/2 81/1/2
f 70/1/2 69/1/2 81/1/2
f 81/1/2 107/1/2 108/1/2
f 109/1/2 110/1/2 111/1/2
f 81/1/2 108/1/2 109/1/2
f 71/1/2 70/1/2 81/1/2
f 73/1/2 72/1/2 71/1/2
f 74/1/2 73/1/2 71/1/2
f 71/1/2 81/1/2 109/1/2
f 109/1/2 111/1/2 112/1/2
f 112/1/2 113/1/2 114/1/2
f 114/1/2 115/1/2 116/1/2
f 116/1/2 117/1/2 118/1/2
f 116/1/2 118/1/2 119/1/2
f 112/1/2 114/1/2 116/1/2
f 71/1/2 109/1/2 112/1/2
f 75/1/2 74/1/2 71/1/2
f 75/1/2 71/1/2 112/1/2
f 116/1/2 119/1/2 120/1/2
f 75/1/2 112/1/2 116/1/2
f 76/1/2 75/1/2 116/1/2
f 120/1/2 121/1/2 122/1/2
f 76/1/2 116/1/2 120/1/2
f 68/1/2 78/1/2 77/1/2
f 77/1/2 76/1/2 120/1/2
f 120/1/2 122/1/2 123/1/2
f 124/1/2 125/1/2 126/1/2
f 77/1/2 120/1/2 123/1/2
f 124/1/2 126/1/2 127/1/2
f 77/1/2 123/1/2 124/1/2
f 132/1/2 67/1/2 68/1/2
f 68/1/2 77/1/2 124/1/2
f 124/1/2 127/1/2 128/1/2
f 129/1/2 130/1/2 131/1/2
f 124/1/2 128/1/2 129/1/2
f 132/1/2 68/1/2 124/1/2
f 124/1/2 129/1/2 131/1/2
f 65/1/3 131/1/3 130/1/3
f 66/1/4 132/1/4 131/1/4
f 1/1/5 67/1/5 132/1/5
f 2/1/6 68/1/6 67/1/6
f 12/1/7 78/1/7 68/1/7
f 13/1/8 79/1/8 69/1/8
f 3/1/9 69/1/9 70/1/9
f 4/1/10 70/1/10 71/1/10
f 5/1/11 71/1/11 72/1/11
f 6/1/12 72/1/12 73/1/12
f 7/1/13 73/1/13 74/1/13
f 8/1/14 74/1/14 75/1/14
f 9/1/15 75/1/15 76/1/15
f 10/1/16 76/1/16 77/1/16
f 11/1/17 77/1/17 78/1/17
f 14/1/18 80/1/18 79/1/18
f 15/1/19 81/1/19 80/1/19
f 16/1/20 82/1/20 81/1/20
f 17/1/21 83/1/21 82/1/21
f 18/1/22 84/1/22 83/1/22
f 19/1/23 85/1/23 84/1/23
f 20/1/24 86/1/24 85/1/24
f 21/1/25 87/1/25 86/1/25
f 22/1/26 88/1/26 87/1/26
f 23/1/27 89/1/27 88/1/27
f 24/1/28 90/1/28 89/1/28
f 25/1/29 91/1/29 90/1/29
f 26/1/30 92/1/30 91/1/30
f 27/1/31 93/1/31 92/1/31
f 28/1/32 94/1/32 93/1/32
f 29/1/33 95/1/33 94/1/33
f 30/1/34 96/1/34 95/1/34
f 31/1/35 97/1/35 96/1/35
f 32/1/36 98/1/36 97/1/36
f 33/1/37 99/1/37 98/1/37
f 34/1/38 100/1/38 99/1/38
f 35/1/39 101/1/39 100/1/39
f 36/1/40 102/1/40 101/1/40
f 37/1/41 103/1/41 102/1/41
f 38/1/42 104/1/42 103/1/42
f 39/1/43 105/1/43 104/1/43
f 40/1/44 106/1/44 105/1/44
f 41/1/45 107/1/45 106/1/45
f 42/1/46 108/1/46 107/1/46
f 43/1/47 109/1/47 108/1/47
f 44/1/48 110/1/48 109/1/48
f 45/1/49 111/1/49 110/1/49
f 45/1/50 46/1/50 112/1/50
f 47/1/51 113/1/51 112/1/51
f 48/1/52 114/1/52 113/1/52
f 49/1/53 115/1/53 114/1/53
f 50/1/54 116/1/54 115/1/54
f 51/1/55 117/1/55 116/1/55
f 52/1/56 118/1/56 117/1/56
f 52/1/57 53/1/57 119/1/57
f 54/1/58 120/1/58 119/1/58
f 55/1/59 121/1/59 120/1/59
f 56/1/60 122/1/60 121/1/60
f 57/1/61 123/1/61 122/1/61
f 58/1/62 124/1/62 123/1/62
f 59/1/63 125/1/63 124/1/63
f 60/1/35 126/1/35 125/1/35
f 61/1/64 127/1/64 126/1/64
f 62/1/65 128/1/65 127/1/65
f 63/1/66 129/1/66 128/1/66
f 64/1/67 130/1/67 129/1/67
