# Blender 5.2.0 LTS
# www.blender.org
mtllib Mississippi.mtl
o Plane.025
v 1.441336 -4.405470 -4.954139
v 1.441337 -4.100067 -5.012870
v 1.441337 -2.508452 -5.018743
v 1.441337 -2.552120 -3.776080
v 1.441337 -2.586709 -3.706903
v 1.441337 -2.661653 -3.689609
v 1.441337 -2.748126 -3.631961
v 1.441337 -2.869188 -3.516664
v 1.441337 -2.949896 -3.528193
v 1.441337 -3.013309 -3.574313
v 1.441337 -3.151666 -3.366778
v 1.441337 -3.341907 -3.372542
v 1.441337 -3.462969 -3.188067
v 1.441337 -3.843450 -3.193831
v 1.441337 -3.952982 -3.245715
v 1.441336 -6.163206 -4.331880
v 1.441336 -6.062346 -4.327495
v 1.441336 -5.943943 -4.252946
v 1.441336 -5.821156 -4.165240
v 1.441336 -5.746606 -4.191552
v 1.441336 -5.641359 -4.239791
v 1.441336 -5.579966 -4.209094
v 1.441336 -5.579966 -3.910895
v 1.441336 -5.632588 -3.823190
v 1.441336 -5.615047 -3.020686
v 1.441336 -5.351932 -3.007531
v 1.441336 -5.316849 -3.095237
v 1.441336 -5.163364 -3.099622
v 1.441336 -4.834470 -3.296960
v 1.441336 -4.602050 -3.384665
v 1.441336 -4.391557 -3.226796
v 1.441337 -4.154752 -3.239951
v 1.441336 -4.751984 -4.936519
v 1.441336 -5.386281 -5.001122
v 1.441336 -5.491426 -5.102876
v 1.441336 -5.956104 -5.119834
v 1.441336 -6.030724 -5.048606
v 1.441336 -6.034116 -4.967202
v 1.441336 -6.023940 -4.923108
v 1.441336 -5.973063 -4.814570
v 1.441336 -5.979847 -4.753518
v 1.441336 -6.020549 -4.699248
v 1.441336 -6.030724 -4.536441
v 1.441336 -6.115519 -4.424512
v 2.441336 -4.405470 -4.954139
v 2.441336 -4.100067 -5.012870
v 2.441337 -2.508452 -5.018743
v 2.441337 -2.552120 -3.776080
v 2.441337 -2.586709 -3.706903
v 2.441337 -2.661653 -3.689609
v 2.441337 -2.748126 -3.631961
v 2.441337 -2.869188 -3.516664
v 2.441336 -2.949896 -3.528193
v 2.441336 -3.013309 -3.574313
v 2.441336 -3.151666 -3.366778
v 2.441336 -3.341907 -3.372542
v 2.441336 -3.462969 -3.188067
v 2.441336 -3.843450 -3.193831
v 2.441336 -3.952982 -3.245715
v 2.441336 -6.163206 -4.331880
v 2.441336 -6.062346 -4.327495
v 2.441336 -5.943943 -4.252946
v 2.441336 -5.821156 -4.165240
v 2.441336 -5.746606 -4.191552
v 2.441336 -5.641359 -4.239791
v 2.441336 -5.579966 -4.209094
v 2.441336 -5.579966 -3.910895
v 2.441336 -5.632588 -3.823190
v 2.441336 -5.615047 -3.020686
v 2.441336 -5.351932 -3.007531
v 2.441336 -5.316849 -3.095237
v 2.441336 -5.163364 -3.099622
v 2.441336 -4.834470 -3.296960
v 2.441336 -4.602050 -3.384665
v 2.441336 -4.391557 -3.226796
v 2.441336 -4.154752 -3.239951
v 2.441336 -4.751984 -4.936519
v 2.441336 -5.386281 -5.001122
v 2.441336 -5.491426 -5.102876
v 2.441336 -5.956104 -5.119834
v 2.441336 -6.030724 -5.048606
v 2.441336 -6.034116 -4.967202
v 2.441336 -6.023940 -4.923108
v 2.441336 -5.973063 -4.814570
v 2.441336 -5.979847 -4.753518
v 2.441336 -6.020549 -4.699248
v 2.441336 -6.030724 -4.536441
v 2.441336 -6.115519 -4.424512
vn -1.0000 -0.0000 -0.0000
vn 1.0000 -0.0000 -0.0000
vn -0.0000 0.1013 -0.9949
vn -0.0000 -0.0508 -0.9987
vn -0.0000 -0.1888 -0.9820
vn -0.0000 -0.0037 -1.0000
vn -0.0000 0.9994 0.0351
vn -0.0000 0.8944 0.4472
vn -0.0000 0.2249 0.9744
vn -0.0000 0.5547 0.8321
vn -0.0000 0.6897 0.7241
vn -0.0000 -0.1414 0.9899
vn -0.0000 -0.5882 0.8087
vn -0.0000 0.8320 0.5547
vn -0.0000 -0.0303 0.9995
vn -0.0000 0.8360 0.5487
vn -0.0000 -0.0151 0.9999
vn -0.0000 -0.4281 0.9037
vn -0.0000 0.0286 0.9996
vn -0.0000 -0.0434 0.9991
vn -0.0000 -0.5328 0.8462
vn -0.0000 -0.5812 0.8137
vn -0.0000 0.3328 0.9430
vn -0.0000 0.4167 0.9091
vn -0.0000 -0.4472 0.8944
vn -0.0000 -1.0000 -0.0000
vn -0.0000 -0.8575 -0.5145
vn -0.0000 -0.9998 0.0219
vn -0.0000 -0.0499 0.9988
vn -0.0000 0.9285 0.3714
vn -0.0000 0.5145 0.8575
vn -0.0000 0.3531 0.9356
vn -0.0000 -0.6000 0.8000
vn -0.0000 0.0555 0.9985
vn -0.0000 0.6954 -0.7186
vn -0.0000 0.0365 -0.9993
vn -0.0000 -0.6905 -0.7234
vn -0.0000 -0.9991 -0.0416
vn -0.0000 -0.9744 0.2249
vn -0.0000 -0.9055 0.4244
vn -0.0000 -0.9939 -0.1104
vn -0.0000 -0.8000 -0.6000
vn -0.0000 -0.9981 -0.0624
vn -0.0000 -0.7971 -0.6039
vn -0.0000 -0.8891 -0.4577
vn -0.0000 0.8321 0.5547
vn -0.0000 -0.9744 0.2248
vt 0.000000 0.000000
s 0
f 43/1/1 18/1/1 21/1/1
f 65/1/2 61/1/2 87/1/2
f 33/1/3 78/1/3 34/1/3
f 1/1/4 77/1/4 33/1/4
f 2/1/5 45/1/5 1/1/5
f 3/1/6 46/1/6 2/1/6
f 4/1/7 47/1/7 3/1/7
f 5/1/8 48/1/8 4/1/8
f 6/1/9 49/1/9 5/1/9
f 7/1/10 50/1/10 6/1/10
f 8/1/11 51/1/11 7/1/11
f 9/1/12 52/1/12 8/1/12
f 10/1/13 53/1/13 9/1/13
f 11/1/14 54/1/14 10/1/14
f 12/1/15 55/1/15 11/1/15
f 13/1/16 56/1/16 12/1/16
f 14/1/17 57/1/17 13/1/17
f 15/1/18 58/1/18 14/1/18
f 32/1/19 59/1/19 15/1/19
f 16/1/20 61/1/20 17/1/20
f 17/1/21 62/1/21 18/1/21
f 18/1/22 63/1/22 19/1/22
f 19/1/23 64/1/23 20/1/23
f 20/1/24 65/1/24 21/1/24
f 21/1/25 66/1/25 22/1/25
f 22/1/26 67/1/26 23/1/26
f 23/1/27 68/1/27 24/1/27
f 24/1/28 69/1/28 25/1/28
f 25/1/29 70/1/29 26/1/29
f 26/1/30 71/1/30 27/1/30
f 27/1/19 72/1/19 28/1/19
f 28/1/31 73/1/31 29/1/31
f 29/1/32 74/1/32 30/1/32
f 30/1/33 75/1/33 31/1/33
f 31/1/34 76/1/34 32/1/34
f 34/1/35 79/1/35 35/1/35
f 35/1/36 80/1/36 36/1/36
f 36/1/37 81/1/37 37/1/37
f 37/1/38 82/1/38 38/1/38
f 38/1/39 83/1/39 39/1/39
f 39/1/40 84/1/40 40/1/40
f 40/1/41 85/1/41 41/1/41
f 41/1/42 86/1/42 42/1/42
f 42/1/43 87/1/43 43/1/43
f 43/1/44 88/1/44 44/1/44
f 44/1/45 60/1/45 16/1/45
f 30/1/1 31/1/1 32/1/1
f 15/1/1 14/1/1 13/1/1
f 30/1/1 32/1/1 15/1/1
f 27/1/1 28/1/1 29/1/1
f 30/1/1 15/1/1 13/1/1
f 30/1/1 13/1/1 12/1/1
f 12/1/1 11/1/1 10/1/1
f 10/1/1 9/1/1 8/1/1
f 10/1/1 8/1/1 7/1/1
f 30/1/1 12/1/1 10/1/1
f 30/1/1 10/1/1 7/1/1
f 6/1/1 5/1/1 4/1/1
f 30/1/1 7/1/1 6/1/1
f 30/1/1 6/1/1 4/1/1
f 4/1/1 3/1/1 2/1/1
f 4/1/1 2/1/1 1/1/1
f 30/1/1 4/1/1 1/1/1
f 30/1/1 1/1/1 33/1/1
f 29/1/1 30/1/1 33/1/1
f 34/1/1 35/1/1 36/1/1
f 29/1/1 33/1/1 34/1/1
f 25/1/1 26/1/1 27/1/1
f 27/1/1 29/1/1 34/1/1
f 34/1/1 36/1/1 37/1/1
f 37/1/1 38/1/1 39/1/1
f 37/1/1 39/1/1 40/1/1
f 25/1/1 27/1/1 34/1/1
f 23/1/1 24/1/1 25/1/1
f 23/1/1 25/1/1 34/1/1
f 34/1/1 37/1/1 40/1/1
f 41/1/1 42/1/1 43/1/1
f 34/1/1 40/1/1 41/1/1
f 22/1/1 23/1/1 34/1/1
f 19/1/1 20/1/1 21/1/1
f 21/1/1 22/1/1 34/1/1
f 34/1/1 41/1/1 43/1/1
f 43/1/1 44/1/1 16/1/1
f 43/1/1 16/1/1 17/1/1
f 21/1/1 34/1/1 43/1/1
f 18/1/1 19/1/1 21/1/1
f 43/1/1 17/1/1 18/1/1
f 76/1/2 75/1/2 74/1/2
f 73/1/2 72/1/2 71/1/2
f 59/1/2 76/1/2 74/1/2
f 57/1/2 58/1/2 59/1/2
f 54/1/2 55/1/2 56/1/2
f 56/1/2 57/1/2 59/1/2
f 56/1/2 59/1/2 74/1/2
f 52/1/2 53/1/2 54/1/2
f 54/1/2 56/1/2 74/1/2
f 51/1/2 52/1/2 54/1/2
f 48/1/2 49/1/2 50/1/2
f 50/1/2 51/1/2 54/1/2
f 50/1/2 54/1/2 74/1/2
f 47/1/2 48/1/2 50/1/2
f 45/1/2 46/1/2 47/1/2
f 77/1/2 45/1/2 47/1/2
f 47/1/2 50/1/2 74/1/2
f 47/1/2 74/1/2 73/1/2
f 77/1/2 47/1/2 73/1/2
f 71/1/2 70/1/2 69/1/2
f 77/1/2 73/1/2 71/1/2
f 80/1/2 79/1/2 78/1/2
f 78/1/2 77/1/2 71/1/2
f 71/1/2 69/1/2 68/1/2
f 71/1/2 68/1/2 67/1/2
f 81/1/2 80/1/2 78/1/2
f 83/1/2 82/1/2 81/1/2
f 84/1/2 83/1/2 81/1/2
f 78/1/2 71/1/2 67/1/2
f 78/1/2 67/1/2 66/1/2
f 84/1/2 81/1/2 78/1/2
f 87/1/2 86/1/2 85/1/2
f 85/1/2 84/1/2 78/1/2
f 78/1/2 66/1/2 65/1/2
f 65/1/2 64/1/2 63/1/2
f 65/1/2 63/1/2 62/1/2
f 85/1/2 78/1/2 65/1/2
f 60/1/2 88/1/2 87/1/2
f 87/1/2 85/1/2 65/1/2
f 65/1/2 62/1/2 61/1/2
f 61/1/2 60/1/2 87/1/2
f 33/1/3 77/1/3 78/1/3
f 1/1/4 45/1/4 77/1/4
f 2/1/5 46/1/5 45/1/5
f 3/1/6 47/1/6 46/1/6
f 4/1/7 48/1/7 47/1/7
f 5/1/8 49/1/8 48/1/8
f 6/1/9 50/1/9 49/1/9
f 7/1/10 51/1/10 50/1/10
f 8/1/11 52/1/11 51/1/11
f 9/1/12 53/1/12 52/1/12
f 10/1/13 54/1/13 53/1/13
f 11/1/46 55/1/46 54/1/46
f 12/1/15 56/1/15 55/1/15
f 13/1/16 57/1/16 56/1/16
f 14/1/17 58/1/17 57/1/17
f 15/1/18 59/1/18 58/1/18
f 32/1/19 76/1/19 59/1/19
f 16/1/20 60/1/20 61/1/20
f 17/1/21 61/1/21 62/1/21
f 18/1/22 62/1/22 63/1/22
f 19/1/23 63/1/23 64/1/23
f 20/1/24 64/1/24 65/1/24
f 21/1/25 65/1/25 66/1/25
f 22/1/26 66/1/26 67/1/26
f 23/1/27 67/1/27 68/1/27
f 24/1/28 68/1/28 69/1/28
f 25/1/29 69/1/29 70/1/29
f 26/1/30 70/1/30 71/1/30
f 27/1/19 71/1/19 72/1/19
f 28/1/31 72/1/31 73/1/31
f 29/1/32 73/1/32 74/1/32
f 30/1/33 74/1/33 75/1/33
f 31/1/34 75/1/34 76/1/34
f 34/1/35 78/1/35 79/1/35
f 35/1/36 79/1/36 80/1/36
f 36/1/37 80/1/37 81/1/37
f 37/1/38 81/1/38 82/1/38
f 38/1/47 82/1/47 83/1/47
f 39/1/40 83/1/40 84/1/40
f 40/1/41 84/1/41 85/1/41
f 41/1/42 85/1/42 86/1/42
f 42/1/43 86/1/43 87/1/43
f 43/1/44 87/1/44 88/1/44
f 44/1/45 88/1/45 60/1/45
