# Blender 5.2.0 LTS
# www.blender.org
mtllib Nebraska-1.mtl
o Plane.031
v 2.441337 1.975240 -0.257995
v 2.441337 1.975240 -0.257995
v 2.441337 1.975240 -0.257995
v 2.441337 1.975240 -0.257995
v 2.441337 1.823745 -0.300724
v 2.441337 1.664480 -0.331800
v 2.441337 1.975240 -0.257995
v 2.441337 1.975240 -0.177678
v 2.441337 1.942006 -0.177678
v 2.441337 1.928159 -0.246917
v 2.441337 1.872768 -0.244147
v 2.441337 1.825686 -0.161061
v 2.441337 1.858920 -0.080745
v 2.441337 1.828455 -0.053049
v 2.441337 1.828455 -0.003198
v 2.441337 1.850612 0.010650
v 2.441337 1.858920 0.254369
v 2.441337 2.163569 0.251599
v 2.441337 2.160799 0.198978
v 2.441337 2.174647 0.182362
v 2.441337 2.141412 0.129741
v 2.441337 2.152491 0.113124
v 2.441337 2.135873 0.024499
v 2.441337 2.119256 0.013421
v 2.441337 2.116487 -0.077973
v 2.441337 2.144182 -0.077973
v 2.441337 2.205112 -0.014275
v 2.441337 2.374053 -0.011505
v 2.441337 2.379592 0.052194
v 2.441337 2.645468 0.054963
v 2.441337 2.653776 0.769503
v 2.441337 2.263272 0.786119
v 2.441337 2.221729 0.705803
v 2.441337 2.135874 0.708572
v 2.441337 2.130335 0.661490
v 2.441337 2.097100 0.639334
v 2.441337 1.961393 0.631025
v 2.441337 1.942006 0.514705
v 2.441337 1.609662 0.520244
v 2.441337 1.598584 0.265447
v 2.441337 1.482264 0.257138
v 2.441337 1.473955 0.005111
v 2.441337 1.665053 -0.003198
v 2.441337 1.665053 -0.277381
v 1.441337 1.975240 -0.257995
v 1.441337 1.975240 -0.257995
v 1.441337 1.975240 -0.257995
v 1.441337 1.975240 -0.257995
v 1.441337 1.823744 -0.300724
v 1.441337 1.664479 -0.331800
v 1.441337 1.975240 -0.257995
v 1.441337 1.975240 -0.177678
v 1.441337 1.942006 -0.177678
v 1.441337 1.928158 -0.246917
v 1.441337 1.872767 -0.244147
v 1.441337 1.825686 -0.161061
v 1.441337 1.858920 -0.080745
v 1.441337 1.828455 -0.053049
v 1.441337 1.828455 -0.003198
v 1.441337 1.850611 0.010650
v 1.441337 1.858920 0.254369
v 1.441337 2.163568 0.251599
v 1.441337 2.160799 0.198978
v 1.441337 2.174646 0.182362
v 1.441337 2.141412 0.129741
v 1.441337 2.152490 0.113124
v 1.441337 2.135873 0.024499
v 1.441337 2.119256 0.013421
v 1.441337 2.116486 -0.077973
v 1.441337 2.144181 -0.077973
v 1.441337 2.205111 -0.014275
v 1.441337 2.374053 -0.011505
v 1.441337 2.379592 0.052194
v 1.441337 2.645467 0.054963
v 1.441337 2.653776 0.769503
v 1.441337 2.263272 0.786119
v 1.441337 2.221729 0.705803
v 1.441337 2.135873 0.708572
v 1.441337 2.130334 0.661490
v 1.441337 2.097100 0.639334
v 1.441337 1.961393 0.631025
v 1.441337 1.942006 0.514705
v 1.441337 1.609662 0.520244
v 1.441337 1.598584 0.265447
v 1.441337 1.482264 0.257138
v 1.441337 1.473955 0.005111
v 1.441337 1.665053 -0.003198
v 1.441337 1.665053 -0.277381
vn 1.0000 -0.0000 -0.0000
vn -1.0000 -0.0000 -0.0000
vn -0.0000 0.2715 -0.9624
vn -0.0000 0.1915 -0.9815
vn -0.0000 1.0000 -0.0000
vn -0.0000 -0.0000 1.0000
vn -0.0000 -0.9806 0.1961
vn -0.0000 0.0499 0.9988
vn -0.0000 0.8700 0.4930
vn -0.0000 0.9240 -0.3823
vn -0.0000 0.6727 0.7399
vn -0.0000 0.5300 -0.8480
vn -0.0000 0.9994 -0.0341
vn -0.0000 -0.0091 -1.0000
vn -0.0000 -0.9986 0.0526
vn -0.0000 -0.7682 -0.6402
vn -0.0000 -0.8455 0.5340
vn -0.0000 -0.8321 -0.5547
vn -0.0000 -0.9829 0.1843
vn -0.0000 -0.5547 0.8321
vn -0.0000 -0.9995 0.0303
vn -0.0000 -0.0000 -1.0000
vn -0.0000 0.7226 -0.6912
vn -0.0000 0.0164 -0.9999
vn -0.0000 0.9962 -0.0866
vn -0.0000 0.0104 -0.9999
vn -0.0000 0.9999 -0.0116
vn -0.0000 0.0425 0.9991
vn -0.0000 -0.8882 0.4594
vn -0.0000 0.0322 0.9995
vn -0.0000 -0.9931 0.1168
vn -0.0000 -0.5547 0.8320
vn -0.0000 -0.0611 0.9981
vn -0.0000 -0.9864 0.1644
vn -0.0000 0.0167 0.9999
vn -0.0000 -0.9991 0.0434
vn -0.0000 -0.0712 0.9975
vn -0.0000 -0.9995 0.0329
vn -0.0000 -0.0434 -0.9991
vn -0.0000 -1.0000 -0.0000
vn -0.0000 -0.9999 0.0105
vn 1.0000 -0.0001 -0.0000
vn 1.0000 0.0001 -0.0000
vn -0.0000 0.2715 -0.9625
vn -0.0000 0.9240 -0.3824
vn -0.0000 -0.8320 -0.5547
vn -0.0000 -0.9932 0.1168
vt 0.000000 0.000000
s 0
f 7/1/1 5/1/1 4/1/1
f 45/1/2 54/1/2 52/1/2
f 7/1/1 45/1/1 51/1/1
f 1/1/1 46/1/1 45/1/1
f 2/1/1 47/1/1 46/1/1
f 3/1/1 48/1/1 47/1/1
f 5/1/3 48/1/3 4/1/3
f 6/1/4 49/1/4 5/1/4
f 7/1/5 52/1/5 8/1/5
f 9/1/6 52/1/6 53/1/6
f 9/1/7 54/1/7 10/1/7
f 10/1/8 55/1/8 11/1/8
f 11/1/9 56/1/9 12/1/9
f 12/1/10 57/1/10 13/1/10
f 14/1/11 57/1/11 58/1/11
f 14/1/5 59/1/5 15/1/5
f 15/1/12 60/1/12 16/1/12
f 16/1/13 61/1/13 17/1/13
f 17/1/14 62/1/14 18/1/14
f 18/1/15 63/1/15 19/1/15
f 19/1/16 64/1/16 20/1/16
f 20/1/17 65/1/17 21/1/17
f 21/1/18 66/1/18 22/1/18
f 22/1/19 67/1/19 23/1/19
f 23/1/20 68/1/20 24/1/20
f 24/1/21 69/1/21 25/1/21
f 25/1/22 70/1/22 26/1/22
f 26/1/23 71/1/23 27/1/23
f 27/1/24 72/1/24 28/1/24
f 28/1/25 73/1/25 29/1/25
f 29/1/26 74/1/26 30/1/26
f 30/1/27 75/1/27 31/1/27
f 32/1/28 75/1/28 76/1/28
f 32/1/29 77/1/29 33/1/29
f 34/1/30 77/1/30 78/1/30
f 34/1/31 79/1/31 35/1/31
f 35/1/32 80/1/32 36/1/32
f 36/1/33 81/1/33 37/1/33
f 37/1/34 82/1/34 38/1/34
f 39/1/35 82/1/35 83/1/35
f 39/1/36 84/1/36 40/1/36
f 40/1/37 85/1/37 41/1/37
f 41/1/38 86/1/38 42/1/38
f 42/1/39 87/1/39 43/1/39
f 43/1/40 88/1/40 44/1/40
f 44/1/41 50/1/41 6/1/41
f 8/1/1 9/1/1 10/1/1
f 44/1/1 6/1/1 5/1/1
f 41/1/1 42/1/1 43/1/1
f 43/1/1 44/1/1 5/1/1
f 40/1/1 41/1/1 43/1/1
f 38/1/1 39/1/1 40/1/1
f 36/1/1 37/1/1 38/1/1
f 33/1/1 34/1/1 35/1/1
f 35/1/42 36/1/42 38/1/42
f 38/1/1 40/1/1 43/1/1
f 12/1/1 13/1/1 14/1/1
f 15/1/1 16/1/1 17/1/1
f 12/1/43 14/1/43 15/1/43
f 18/1/1 19/1/1 20/1/1
f 20/1/1 21/1/1 22/1/1
f 23/1/1 24/1/1 25/1/1
f 20/1/1 22/1/1 23/1/1
f 20/1/43 23/1/43 25/1/43
f 25/1/1 26/1/1 27/1/1
f 27/1/1 28/1/1 29/1/1
f 29/1/1 30/1/1 31/1/1
f 31/1/1 32/1/1 33/1/1
f 33/1/1 35/1/1 38/1/1
f 20/1/1 25/1/1 27/1/1
f 27/1/1 29/1/1 31/1/1
f 31/1/1 33/1/1 38/1/1
f 20/1/1 27/1/1 31/1/1
f 18/1/1 20/1/1 31/1/1
f 17/1/1 18/1/1 31/1/1
f 17/1/1 31/1/1 38/1/1
f 17/1/1 38/1/1 43/1/1
f 15/1/1 17/1/1 43/1/1
f 12/1/1 15/1/1 43/1/1
f 11/1/1 12/1/1 43/1/1
f 11/1/1 43/1/1 5/1/1
f 10/1/1 11/1/1 5/1/1
f 7/1/1 8/1/1 10/1/1
f 3/1/1 2/1/1 1/1/1
f 7/1/1 10/1/1 5/1/1
f 4/1/1 3/1/1 1/1/1
f 4/1/1 1/1/1 7/1/1
f 49/1/2 50/1/2 88/1/2
f 87/1/2 86/1/2 85/1/2
f 49/1/2 88/1/2 87/1/2
f 87/1/2 85/1/2 84/1/2
f 84/1/2 83/1/2 82/1/2
f 82/1/2 81/1/2 80/1/2
f 79/1/2 78/1/2 77/1/2
f 82/1/2 80/1/2 79/1/2
f 87/1/2 84/1/2 82/1/2
f 54/1/2 53/1/2 52/1/2
f 87/1/2 82/1/2 79/1/2
f 77/1/2 76/1/2 75/1/2
f 58/1/2 57/1/2 56/1/2
f 61/1/2 60/1/2 59/1/2
f 59/1/2 58/1/2 56/1/2
f 64/1/2 63/1/2 62/1/2
f 66/1/2 65/1/2 64/1/2
f 69/1/2 68/1/2 67/1/2
f 67/1/2 66/1/2 64/1/2
f 69/1/2 67/1/2 64/1/2
f 71/1/2 70/1/2 69/1/2
f 73/1/2 72/1/2 71/1/2
f 75/1/2 74/1/2 73/1/2
f 79/1/2 77/1/2 75/1/2
f 71/1/2 69/1/2 64/1/2
f 75/1/2 73/1/2 71/1/2
f 75/1/2 71/1/2 64/1/2
f 75/1/2 64/1/2 62/1/2
f 75/1/2 62/1/2 61/1/2
f 79/1/2 75/1/2 61/1/2
f 87/1/2 79/1/2 61/1/2
f 87/1/2 61/1/2 59/1/2
f 87/1/2 59/1/2 56/1/2
f 87/1/2 56/1/2 55/1/2
f 49/1/2 87/1/2 55/1/2
f 48/1/2 49/1/2 55/1/2
f 47/1/1 48/1/1 55/1/1
f 46/1/1 47/1/1 55/1/1
f 45/1/1 46/1/1 55/1/1
f 52/1/1 51/1/1 45/1/1
f 45/1/2 55/1/2 54/1/2
f 7/1/1 1/1/1 45/1/1
f 1/1/1 2/1/1 46/1/1
f 2/1/1 3/1/1 47/1/1
f 3/1/1 4/1/1 48/1/1
f 5/1/44 49/1/44 48/1/44
f 6/1/4 50/1/4 49/1/4
f 7/1/5 51/1/5 52/1/5
f 9/1/6 8/1/6 52/1/6
f 9/1/7 53/1/7 54/1/7
f 10/1/8 54/1/8 55/1/8
f 11/1/9 55/1/9 56/1/9
f 12/1/45 56/1/45 57/1/45
f 14/1/11 13/1/11 57/1/11
f 14/1/5 58/1/5 59/1/5
f 15/1/12 59/1/12 60/1/12
f 16/1/13 60/1/13 61/1/13
f 17/1/14 61/1/14 62/1/14
f 18/1/15 62/1/15 63/1/15
f 19/1/16 63/1/16 64/1/16
f 20/1/17 64/1/17 65/1/17
f 21/1/46 65/1/46 66/1/46
f 22/1/19 66/1/19 67/1/19
f 23/1/20 67/1/20 68/1/20
f 24/1/21 68/1/21 69/1/21
f 25/1/22 69/1/22 70/1/22
f 26/1/23 70/1/23 71/1/23
f 27/1/24 71/1/24 72/1/24
f 28/1/25 72/1/25 73/1/25
f 29/1/26 73/1/26 74/1/26
f 30/1/27 74/1/27 75/1/27
f 32/1/28 31/1/28 75/1/28
f 32/1/29 76/1/29 77/1/29
f 34/1/30 33/1/30 77/1/30
f 34/1/47 78/1/47 79/1/47
f 35/1/32 79/1/32 80/1/32
f 36/1/33 80/1/33 81/1/33
f 37/1/34 81/1/34 82/1/34
f 39/1/35 38/1/35 82/1/35
f 39/1/36 83/1/36 84/1/36
f 40/1/37 84/1/37 85/1/37
f 41/1/38 85/1/38 86/1/38
f 42/1/39 86/1/39 87/1/39
f 43/1/40 87/1/40 88/1/40
f 44/1/41 88/1/41 50/1/41
