# Blender 5.2.0 LTS
# www.blender.org
mtllib Nebraska-3.mtl
o Plane.010
v 2.441337 1.664479 -0.331800
v 2.441337 1.501330 -0.390068
v 2.441337 1.320456 -0.424540
v 2.441337 1.248837 -0.494950
v 2.441337 1.081804 -0.529911
v 2.441337 1.106243 0.875360
v 2.441337 1.100133 2.127884
v 2.441337 1.149012 3.233771
v 2.441337 3.488564 4.167581
v 2.441337 2.010898 4.318084
v 2.441337 1.949328 3.209834
v 2.441337 2.130620 -0.246341
v 2.441337 2.251040 -0.176419
v 2.441337 2.336499 -0.102613
v 2.441337 2.491880 -0.118152
v 2.441337 2.608415 -0.048230
v 2.441337 2.744373 0.006153
v 2.441337 2.857023 0.048882
v 2.441337 2.973558 0.044998
v 2.441337 3.039595 0.107150
v 2.441337 3.066787 0.177072
v 2.441337 3.109516 0.258646
v 2.441337 3.179437 0.363527
v 2.441337 3.218282 0.569407
v 2.441337 3.218282 0.685942
v 2.441337 3.210513 0.763632
v 2.441337 3.179437 0.845206
v 2.441337 3.152246 0.868513
v 2.441337 3.245474 0.992817
v 2.441337 3.303741 1.082161
v 2.441337 3.323164 1.256964
v 2.441337 3.459122 3.618743
v 2.441337 3.490198 4.112075
v 2.441337 2.116486 -0.077973
v 2.441337 2.144182 -0.077973
v 2.441337 2.205112 -0.014275
v 2.441337 2.374053 -0.011505
v 2.441337 2.379592 0.052194
v 2.441337 2.645467 0.054963
v 2.441337 2.653776 0.769503
v 2.441337 2.263272 0.786119
v 2.441337 2.221729 0.705803
v 2.441337 2.135874 0.708572
v 2.441337 2.130334 0.661490
v 2.441337 2.097100 0.639334
v 2.441337 1.961393 0.631025
v 2.441337 1.942006 0.514705
v 2.441337 1.609662 0.520244
v 2.441337 1.598584 0.265447
v 2.441337 1.482264 0.257138
v 2.441337 1.473955 0.005111
v 2.441337 1.665053 -0.003198
v 2.441337 1.665053 -0.277381
v 1.441337 1.664479 -0.331800
v 1.441337 1.501330 -0.390068
v 1.441337 1.320456 -0.424540
v 1.441337 1.248837 -0.494950
v 1.441337 1.081804 -0.529911
v 1.441337 1.106243 0.875360
v 1.441337 1.100133 2.127884
v 1.441337 1.149012 3.233771
v 1.441337 3.488564 4.167581
v 1.441337 2.010898 4.318084
v 1.441337 1.949328 3.209834
v 1.441337 2.130620 -0.246341
v 1.441337 2.251040 -0.176419
v 1.441337 2.336499 -0.102613
v 1.441337 2.491880 -0.118152
v 1.441337 2.608415 -0.048230
v 1.441337 2.744373 0.006153
v 1.441337 2.857023 0.048882
v 1.441337 2.973558 0.044998
v 1.441337 3.039595 0.107150
v 1.441337 3.066787 0.177072
v 1.441337 3.109516 0.258646
v 1.441337 3.179437 0.363527
v 1.441337 3.218282 0.569407
v 1.441337 3.218282 0.685942
v 1.441337 3.210513 0.763632
v 1.441337 3.179437 0.845206
v 1.441337 3.152246 0.868513
v 1.441337 3.245474 0.992817
v 1.441337 3.303741 1.082161
v 1.441337 3.323164 1.256964
v 1.441337 3.459122 3.618743
v 1.441337 3.490198 4.112075
v 1.441337 2.116486 -0.077973
v 1.441337 2.144182 -0.077973
v 1.441337 2.205112 -0.014275
v 1.441337 2.374053 -0.011505
v 1.441337 2.379592 0.052194
v 1.441337 2.645467 0.054963
v 1.441337 2.653776 0.769503
v 1.441337 2.263272 0.786119
v 1.441337 2.221729 0.705803
v 1.441337 2.135874 0.708572
v 1.441337 2.130334 0.661490
v 1.441337 2.097100 0.639334
v 1.441337 1.961393 0.631025
v 1.441337 1.942006 0.514705
v 1.441337 1.609662 0.520244
v 1.441337 1.598584 0.265447
v 1.441337 1.482264 0.257138
v 1.441337 1.473955 0.005111
v 1.441337 1.665053 -0.003198
v 1.441337 1.665053 -0.277381
vn 1.0000 -0.0000 -0.0000
vn -1.0000 -0.0000 -0.0000
vn -0.0000 0.3363 -0.9417
vn -0.0000 0.1872 -0.9823
vn -0.0000 0.7011 -0.7131
vn -0.0000 0.2049 -0.9788
vn -0.0000 -0.9998 0.0174
vn -0.0000 -1.0000 -0.0049
vn -0.0000 -0.9990 0.0442
vn -0.0000 0.1013 0.9949
vn -0.0000 -0.9985 0.0555
vn -0.0000 0.0299 0.9996
vn -0.0000 0.5021 -0.8648
vn -0.0000 0.6536 -0.7568
vn -0.0000 -0.0995 -0.9950
vn -0.0000 0.5145 -0.8575
vn -0.0000 0.3714 -0.9285
vn -0.0000 0.3547 -0.9350
vn -0.0000 -0.0333 -0.9994
vn -0.0000 0.6854 -0.7282
vn -0.0000 0.9320 -0.3624
vn -0.0000 0.8858 -0.4640
vn -0.0000 0.8320 -0.5547
vn -0.0000 0.9827 -0.1854
vn -0.0000 1.0000 -0.0000
vn -0.0000 0.9950 0.0995
vn -0.0000 0.9345 0.3560
vn -0.0000 0.6508 0.7593
vn -0.0000 0.8000 -0.6000
vn -0.0000 0.8376 -0.5463
vn -0.0000 0.9939 -0.1104
vn -0.0000 0.9983 -0.0575
vn -0.0000 0.9980 -0.0629
vn -0.0000 0.9996 0.0294
vn -0.0000 -0.0000 1.0000
vn -0.0000 -0.7226 0.6912
vn -0.0000 -0.0164 0.9999
vn -0.0000 -0.9962 0.0866
vn -0.0000 -0.0104 0.9999
vn -0.0000 -0.9999 0.0116
vn -0.0000 -0.0425 -0.9991
vn -0.0000 0.8882 -0.4594
vn -0.0000 -0.0322 -0.9995
vn -0.0000 0.9932 -0.1168
vn -0.0000 0.5547 -0.8320
vn -0.0000 0.0611 -0.9981
vn -0.0000 0.9864 -0.1644
vn -0.0000 -0.0167 -0.9999
vn -0.0000 0.9991 -0.0434
vn -0.0000 0.0712 -0.9975
vn -0.0000 0.9995 -0.0329
vn -0.0000 0.0434 0.9991
vn -0.0000 0.9999 -0.0105
vn -0.0000 -0.9965 -0.0837
vn 1.0000 0.0001 -0.0000
vn -0.0000 0.9931 -0.1168
vt 0.000000 0.000000
s 0
f 40/1/1 39/1/1 21/1/1
f 70/1/2 67/1/2 88/1/2
f 2/1/3 54/1/3 1/1/3
f 3/1/4 55/1/4 2/1/4
f 4/1/5 56/1/5 3/1/5
f 5/1/6 57/1/6 4/1/6
f 6/1/7 58/1/7 5/1/7
f 7/1/8 59/1/8 6/1/8
f 8/1/9 60/1/9 7/1/9
f 9/1/10 63/1/10 10/1/10
f 10/1/11 64/1/11 11/1/11
f 11/1/12 61/1/12 8/1/12
f 12/1/13 66/1/13 13/1/13
f 13/1/14 67/1/14 14/1/14
f 14/1/15 68/1/15 15/1/15
f 15/1/16 69/1/16 16/1/16
f 16/1/17 70/1/17 17/1/17
f 17/1/18 71/1/18 18/1/18
f 18/1/19 72/1/19 19/1/19
f 19/1/20 73/1/20 20/1/20
f 20/1/21 74/1/21 21/1/21
f 21/1/22 75/1/22 22/1/22
f 22/1/23 76/1/23 23/1/23
f 23/1/24 77/1/24 24/1/24
f 24/1/25 78/1/25 25/1/25
f 25/1/26 79/1/26 26/1/26
f 26/1/27 80/1/27 27/1/27
f 27/1/28 81/1/28 28/1/28
f 28/1/29 82/1/29 29/1/29
f 29/1/30 83/1/30 30/1/30
f 30/1/31 84/1/31 31/1/31
f 31/1/32 85/1/32 32/1/32
f 32/1/33 86/1/33 33/1/33
f 33/1/34 62/1/34 9/1/34
f 35/1/35 87/1/35 34/1/35
f 36/1/36 88/1/36 35/1/36
f 37/1/37 89/1/37 36/1/37
f 38/1/38 90/1/38 37/1/38
f 39/1/39 91/1/39 38/1/39
f 40/1/40 92/1/40 39/1/40
f 41/1/41 93/1/41 40/1/41
f 42/1/42 94/1/42 41/1/42
f 43/1/43 95/1/43 42/1/43
f 44/1/44 96/1/44 43/1/44
f 45/1/45 97/1/45 44/1/45
f 46/1/46 98/1/46 45/1/46
f 47/1/47 99/1/47 46/1/47
f 48/1/48 100/1/48 47/1/48
f 49/1/49 101/1/49 48/1/49
f 50/1/50 102/1/50 49/1/50
f 51/1/51 103/1/51 50/1/51
f 52/1/52 104/1/52 51/1/52
f 53/1/25 105/1/25 52/1/25
f 1/1/53 106/1/53 53/1/53
f 34/1/54 65/1/54 12/1/54
f 2/1/1 1/1/1 53/1/1
f 53/1/1 52/1/1 51/1/1
f 50/1/1 49/1/1 48/1/1
f 2/1/1 53/1/1 51/1/1
f 3/1/1 2/1/1 51/1/1
f 5/1/1 4/1/1 3/1/1
f 8/1/1 7/1/1 6/1/1
f 6/1/1 5/1/1 3/1/1
f 3/1/1 51/1/1 50/1/1
f 48/1/1 47/1/1 46/1/1
f 6/1/1 3/1/1 50/1/1
f 6/1/1 50/1/1 48/1/1
f 11/1/1 8/1/1 6/1/1
f 9/1/1 10/1/1 11/1/1
f 32/1/55 33/1/55 9/1/55
f 30/1/1 31/1/1 32/1/1
f 28/1/1 29/1/1 30/1/1
f 26/1/1 27/1/1 28/1/1
f 24/1/1 25/1/1 26/1/1
f 22/1/1 23/1/1 24/1/1
f 19/1/1 20/1/1 21/1/1
f 21/1/1 22/1/1 24/1/1
f 24/1/1 26/1/1 28/1/1
f 28/1/1 30/1/1 32/1/1
f 32/1/1 9/1/1 11/1/1
f 11/1/1 6/1/1 48/1/1
f 46/1/1 45/1/1 44/1/1
f 11/1/1 48/1/1 46/1/1
f 28/1/1 32/1/1 11/1/1
f 21/1/1 24/1/1 28/1/1
f 18/1/1 19/1/1 21/1/1
f 17/1/1 18/1/1 21/1/1
f 21/1/1 28/1/1 11/1/1
f 11/1/1 46/1/1 44/1/1
f 43/1/1 42/1/1 41/1/1
f 11/1/1 44/1/1 43/1/1
f 16/1/1 17/1/1 21/1/1
f 14/1/1 15/1/1 16/1/1
f 12/1/1 13/1/1 14/1/1
f 35/1/1 34/1/1 12/1/1
f 37/1/1 36/1/1 35/1/1
f 39/1/1 38/1/1 37/1/1
f 39/1/1 37/1/1 35/1/1
f 35/1/1 12/1/1 14/1/1
f 14/1/1 16/1/1 21/1/1
f 11/1/1 43/1/1 41/1/1
f 11/1/1 41/1/1 40/1/1
f 39/1/1 35/1/1 14/1/1
f 21/1/1 11/1/1 40/1/1
f 39/1/1 14/1/1 21/1/1
f 106/1/2 54/1/2 55/1/2
f 56/1/2 57/1/2 58/1/2
f 106/1/2 55/1/2 56/1/2
f 104/1/2 105/1/2 106/1/2
f 101/1/2 102/1/2 103/1/2
f 104/1/2 106/1/2 56/1/2
f 103/1/2 104/1/2 56/1/2
f 56/1/2 58/1/2 59/1/2
f 59/1/2 60/1/2 61/1/2
f 64/1/2 63/1/2 62/1/2
f 59/1/2 61/1/2 64/1/2
f 103/1/2 56/1/2 59/1/2
f 99/1/2 100/1/2 101/1/2
f 101/1/2 103/1/2 59/1/2
f 59/1/2 64/1/2 62/1/2
f 62/1/2 86/1/2 85/1/2
f 85/1/2 84/1/2 83/1/2
f 83/1/2 82/1/2 81/1/2
f 81/1/2 80/1/2 79/1/2
f 79/1/2 78/1/2 77/1/2
f 77/1/2 76/1/2 75/1/2
f 74/1/2 73/1/2 72/1/2
f 77/1/2 75/1/2 74/1/2
f 81/1/2 79/1/2 77/1/2
f 85/1/2 83/1/2 81/1/2
f 59/1/2 62/1/2 85/1/2
f 99/1/2 101/1/2 59/1/2
f 97/1/2 98/1/2 99/1/2
f 94/1/2 95/1/2 96/1/2
f 96/1/2 97/1/2 99/1/2
f 99/1/2 59/1/2 85/1/2
f 81/1/2 77/1/2 74/1/2
f 96/1/2 99/1/2 85/1/2
f 94/1/2 96/1/2 85/1/2
f 85/1/2 81/1/2 74/1/2
f 74/1/2 72/1/2 71/1/2
f 74/1/2 71/1/2 70/1/2
f 93/1/2 94/1/2 85/1/2
f 90/1/2 91/1/2 92/1/2
f 92/1/2 93/1/2 85/1/2
f 85/1/2 74/1/2 70/1/2
f 69/1/2 68/1/2 67/1/2
f 92/1/2 85/1/2 70/1/2
f 88/1/2 89/1/2 90/1/2
f 90/1/2 92/1/2 70/1/2
f 70/1/2 69/1/2 67/1/2
f 67/1/2 66/1/2 65/1/2
f 65/1/2 87/1/2 88/1/2
f 88/1/2 90/1/2 70/1/2
f 67/1/2 65/1/2 88/1/2
f 2/1/3 55/1/3 54/1/3
f 3/1/4 56/1/4 55/1/4
f 4/1/5 57/1/5 56/1/5
f 5/1/6 58/1/6 57/1/6
f 6/1/7 59/1/7 58/1/7
f 7/1/8 60/1/8 59/1/8
f 8/1/9 61/1/9 60/1/9
f 9/1/10 62/1/10 63/1/10
f 10/1/11 63/1/11 64/1/11
f 11/1/12 64/1/12 61/1/12
f 12/1/13 65/1/13 66/1/13
f 13/1/14 66/1/14 67/1/14
f 14/1/15 67/1/15 68/1/15
f 15/1/16 68/1/16 69/1/16
f 16/1/17 69/1/17 70/1/17
f 17/1/18 70/1/18 71/1/18
f 18/1/19 71/1/19 72/1/19
f 19/1/20 72/1/20 73/1/20
f 20/1/21 73/1/21 74/1/21
f 21/1/22 74/1/22 75/1/22
f 22/1/23 75/1/23 76/1/23
f 23/1/24 76/1/24 77/1/24
f 24/1/25 77/1/25 78/1/25
f 25/1/26 78/1/26 79/1/26
f 26/1/27 79/1/27 80/1/27
f 27/1/28 80/1/28 81/1/28
f 28/1/29 81/1/29 82/1/29
f 29/1/30 82/1/30 83/1/30
f 30/1/31 83/1/31 84/1/31
f 31/1/32 84/1/32 85/1/32
f 32/1/33 85/1/33 86/1/33
f 33/1/34 86/1/34 62/1/34
f 35/1/35 88/1/35 87/1/35
f 36/1/36 89/1/36 88/1/36
f 37/1/37 90/1/37 89/1/37
f 38/1/38 91/1/38 90/1/38
f 39/1/39 92/1/39 91/1/39
f 40/1/40 93/1/40 92/1/40
f 41/1/41 94/1/41 93/1/41
f 42/1/42 95/1/42 94/1/42
f 43/1/43 96/1/43 95/1/43
f 44/1/56 97/1/56 96/1/56
f 45/1/45 98/1/45 97/1/45
f 46/1/46 99/1/46 98/1/46
f 47/1/47 100/1/47 99/1/47
f 48/1/48 101/1/48 100/1/48
f 49/1/49 102/1/49 101/1/49
f 50/1/50 103/1/50 102/1/50
f 51/1/51 104/1/51 103/1/51
f 52/1/52 105/1/52 104/1/52
f 53/1/25 106/1/25 105/1/25
f 1/1/53 54/1/53 106/1/53
f 34/1/54 87/1/54 65/1/54
