# Blender 5.2.0 LTS
# www.blender.org
mtllib Nebraska.mtl
o Plane.035
v 1.441337 1.975240 -0.257995
v 1.441337 1.975240 -0.257995
v 1.441337 1.975240 -0.257995
v 1.441337 1.975240 -0.257995
v 1.441337 1.823745 -0.300724
v 1.441337 1.664479 -0.331800
v 1.441337 1.501330 -0.390068
v 1.441337 1.320456 -0.424540
v 1.441337 1.248837 -0.494950
v 1.441337 1.081804 -0.529911
v 1.441337 1.106243 0.875360
v 1.441337 1.100133 2.127884
v 1.441337 1.149012 3.233771
v 1.441337 3.488564 4.167581
v 1.441337 2.010898 4.318084
v 1.441337 1.949328 3.209834
v 1.441337 1.975240 -0.257995
v 1.441337 2.130620 -0.246341
v 1.441337 2.251040 -0.176419
v 1.441337 2.336499 -0.102613
v 1.441337 2.491880 -0.118152
v 1.441337 2.608415 -0.048230
v 1.441337 2.744373 0.006153
v 1.441337 2.857023 0.048882
v 1.441337 2.973558 0.044998
v 1.441337 3.039595 0.107150
v 1.441337 3.066787 0.177072
v 1.441337 3.109516 0.258646
v 1.441337 3.179437 0.363527
v 1.441337 3.218282 0.569407
v 1.441337 3.218282 0.685942
v 1.441337 3.210513 0.763632
v 1.441337 3.179437 0.845206
v 1.441337 3.152246 0.868513
v 1.441337 3.245474 0.992817
v 1.441337 3.303741 1.082161
v 1.441337 3.323164 1.256964
v 1.441337 3.459122 3.618743
v 1.441337 3.490198 4.112075
v 2.441337 1.975240 -0.257995
v 2.441337 1.975240 -0.257995
v 2.441337 1.975240 -0.257995
v 2.441337 1.975240 -0.257995
v 2.441337 1.823745 -0.300724
v 2.441337 1.664479 -0.331800
v 2.441337 1.501330 -0.390068
v 2.441337 1.320456 -0.424540
v 2.441337 1.248837 -0.494950
v 2.441337 1.081804 -0.529911
v 2.441337 1.106243 0.875360
v 2.441337 1.100133 2.127884
v 2.441337 1.149012 3.233771
v 2.441337 3.488564 4.167581
v 2.441337 2.010898 4.318084
v 2.441337 1.949328 3.209834
v 2.441337 1.975240 -0.257995
v 2.441337 2.130620 -0.246341
v 2.441337 2.251040 -0.176419
v 2.441337 2.336499 -0.102613
v 2.441337 2.491880 -0.118152
v 2.441337 2.608415 -0.048230
v 2.441337 2.744373 0.006153
v 2.441337 2.857023 0.048882
v 2.441337 2.973558 0.044998
v 2.441337 3.039595 0.107150
v 2.441337 3.066787 0.177072
v 2.441337 3.109516 0.258646
v 2.441337 3.179437 0.363527
v 2.441337 3.218282 0.569407
v 2.441337 3.218282 0.685942
v 2.441337 3.210513 0.763632
v 2.441337 3.179437 0.845206
v 2.441337 3.152246 0.868513
v 2.441337 3.245474 0.992817
v 2.441337 3.303741 1.082161
v 2.441337 3.323164 1.256964
v 2.441337 3.459122 3.618743
v 2.441337 3.490198 4.112075
vn 1.0000 -0.0000 -0.0000
vn -0.0000 0.0748 -0.9972
vn -0.0000 0.2715 -0.9625
vn -0.0000 0.1915 -0.9815
vn -0.0000 0.3363 -0.9417
vn -0.0000 0.1872 -0.9823
vn -0.0000 0.7011 -0.7131
vn -0.0000 0.2049 -0.9788
vn -0.0000 -0.9998 0.0174
vn -0.0000 -1.0000 -0.0049
vn -0.0000 -0.9990 0.0442
vn -0.0000 0.1013 0.9949
vn -0.0000 -0.9985 0.0555
vn -0.0000 0.0299 0.9996
vn -0.0000 0.5021 -0.8648
vn -0.0000 0.6536 -0.7568
vn -0.0000 -0.0995 -0.9950
vn -0.0000 0.5145 -0.8575
vn -0.0000 0.3714 -0.9285
vn -0.0000 0.3547 -0.9350
vn -0.0000 -0.0333 -0.9994
vn -0.0000 0.6854 -0.7282
vn -0.0000 0.9320 -0.3624
vn -0.0000 0.8858 -0.4640
vn -0.0000 0.8320 -0.5547
vn -0.0000 0.9827 -0.1854
vn -0.0000 1.0000 -0.0000
vn -0.0000 0.9950 0.0995
vn -0.0000 0.9345 0.3560
vn -0.0000 0.6508 0.7593
vn -0.0000 0.8000 -0.6000
vn -0.0000 0.8376 -0.5463
vn -0.0000 0.9939 -0.1104
vn -0.0000 0.9983 -0.0575
vn -0.0000 0.9980 -0.0629
vn -0.0000 0.9996 0.0294
vn -1.0000 -0.0000 -0.0000
vn 1.0000 0.0001 -0.0000
vn -0.0000 0.2715 -0.9624
vt 0.000000 0.000000
s 0
f 17/1/1 4/1/1 11/1/1
f 44/1/1 43/1/1 56/1/1
f 18/1/2 56/1/2 17/1/2
f 1/1/1 56/1/1 40/1/1
f 2/1/1 40/1/1 41/1/1
f 3/1/1 41/1/1 42/1/1
f 4/1/1 42/1/1 43/1/1
f 4/1/3 44/1/3 5/1/3
f 5/1/4 45/1/4 6/1/4
f 6/1/5 46/1/5 7/1/5
f 7/1/6 47/1/6 8/1/6
f 8/1/7 48/1/7 9/1/7
f 9/1/8 49/1/8 10/1/8
f 10/1/9 50/1/9 11/1/9
f 11/1/10 51/1/10 12/1/10
f 12/1/11 52/1/11 13/1/11
f 15/1/12 53/1/12 14/1/12
f 16/1/13 54/1/13 15/1/13
f 13/1/14 55/1/14 16/1/14
f 19/1/15 57/1/15 18/1/15
f 20/1/16 58/1/16 19/1/16
f 21/1/17 59/1/17 20/1/17
f 22/1/18 60/1/18 21/1/18
f 23/1/19 61/1/19 22/1/19
f 24/1/20 62/1/20 23/1/20
f 25/1/21 63/1/21 24/1/21
f 26/1/22 64/1/22 25/1/22
f 27/1/23 65/1/23 26/1/23
f 28/1/24 66/1/24 27/1/24
f 29/1/25 67/1/25 28/1/25
f 30/1/26 68/1/26 29/1/26
f 31/1/27 69/1/27 30/1/27
f 32/1/28 70/1/28 31/1/28
f 33/1/29 71/1/29 32/1/29
f 34/1/30 72/1/30 33/1/30
f 35/1/31 73/1/31 34/1/31
f 36/1/32 74/1/32 35/1/32
f 37/1/33 75/1/33 36/1/33
f 38/1/34 76/1/34 37/1/34
f 39/1/35 77/1/35 38/1/35
f 14/1/36 78/1/36 39/1/36
f 27/1/37 26/1/37 25/1/37
f 27/1/37 25/1/37 24/1/37
f 30/1/37 29/1/37 28/1/37
f 28/1/37 27/1/37 24/1/37
f 28/1/37 24/1/37 23/1/37
f 31/1/37 30/1/37 28/1/37
f 33/1/37 32/1/37 31/1/37
f 36/1/37 35/1/37 34/1/37
f 34/1/37 33/1/37 31/1/37
f 31/1/37 28/1/37 23/1/37
f 22/1/37 21/1/37 20/1/37
f 31/1/37 23/1/37 22/1/37
f 37/1/37 36/1/37 34/1/37
f 34/1/37 31/1/37 22/1/37
f 20/1/37 19/1/37 18/1/37
f 34/1/37 22/1/37 20/1/37
f 38/1/37 37/1/37 34/1/37
f 14/1/37 39/1/37 38/1/37
f 16/1/37 15/1/37 14/1/37
f 12/1/37 13/1/37 16/1/37
f 9/1/37 10/1/37 11/1/37
f 11/1/37 12/1/37 16/1/37
f 16/1/37 14/1/37 38/1/37
f 38/1/37 34/1/37 20/1/37
f 6/1/37 7/1/37 8/1/37
f 8/1/37 9/1/37 11/1/37
f 11/1/37 16/1/37 38/1/37
f 38/1/37 20/1/37 18/1/37
f 11/1/37 38/1/37 18/1/37
f 6/1/37 8/1/37 11/1/37
f 5/1/37 6/1/37 11/1/37
f 2/1/1 3/1/1 4/1/1
f 4/1/37 5/1/37 11/1/37
f 11/1/37 18/1/37 17/1/37
f 1/1/1 2/1/1 4/1/1
f 17/1/1 1/1/1 4/1/1
f 64/1/1 65/1/1 66/1/1
f 67/1/1 68/1/1 69/1/1
f 64/1/1 66/1/1 67/1/1
f 63/1/1 64/1/1 67/1/1
f 67/1/1 69/1/1 70/1/1
f 70/1/1 71/1/1 72/1/1
f 73/1/1 74/1/1 75/1/1
f 70/1/1 72/1/1 73/1/1
f 63/1/1 67/1/1 70/1/1
f 62/1/1 63/1/1 70/1/1
f 73/1/1 75/1/1 76/1/1
f 62/1/1 70/1/1 73/1/1
f 59/1/1 60/1/1 61/1/1
f 61/1/1 62/1/1 73/1/1
f 73/1/1 76/1/1 77/1/1
f 77/1/38 78/1/38 53/1/38
f 53/1/1 54/1/1 55/1/1
f 55/1/1 52/1/1 51/1/1
f 50/1/1 49/1/1 48/1/1
f 55/1/1 51/1/1 50/1/1
f 77/1/1 53/1/1 55/1/1
f 61/1/1 73/1/1 77/1/1
f 57/1/1 58/1/1 59/1/1
f 59/1/1 61/1/1 77/1/1
f 77/1/1 55/1/1 50/1/1
f 50/1/1 48/1/1 47/1/1
f 47/1/1 46/1/1 45/1/1
f 57/1/1 59/1/1 77/1/1
f 77/1/1 50/1/1 47/1/1
f 77/1/1 47/1/1 45/1/1
f 77/1/1 45/1/1 44/1/1
f 56/1/1 57/1/1 77/1/1
f 42/1/1 41/1/1 40/1/1
f 56/1/1 77/1/1 44/1/1
f 43/1/1 42/1/1 40/1/1
f 43/1/1 40/1/1 56/1/1
f 18/1/2 57/1/2 56/1/2
f 1/1/1 17/1/1 56/1/1
f 2/1/1 1/1/1 40/1/1
f 3/1/1 2/1/1 41/1/1
f 4/1/1 3/1/1 42/1/1
f 4/1/39 43/1/39 44/1/39
f 5/1/4 44/1/4 45/1/4
f 6/1/5 45/1/5 46/1/5
f 7/1/6 46/1/6 47/1/6
f 8/1/7 47/1/7 48/1/7
f 9/1/8 48/1/8 49/1/8
f 10/1/9 49/1/9 50/1/9
f 11/1/10 50/1/10 51/1/10
f 12/1/11 51/1/11 52/1/11
f 15/1/12 54/1/12 53/1/12
f 16/1/13 55/1/13 54/1/13
f 13/1/14 52/1/14 55/1/14
f 19/1/15 58/1/15 57/1/15
f 20/1/16 59/1/16 58/1/16
f 21/1/17 60/1/17 59/1/17
f 22/1/18 61/1/18 60/1/18
f 23/1/19 62/1/19 61/1/19
f 24/1/20 63/1/20 62/1/20
f 25/1/21 64/1/21 63/1/21
f 26/1/22 65/1/22 64/1/22
f 27/1/23 66/1/23 65/1/23
f 28/1/24 67/1/24 66/1/24
f 29/1/25 68/1/25 67/1/25
f 30/1/26 69/1/26 68/1/26
f 31/1/27 70/1/27 69/1/27
f 32/1/28 71/1/28 70/1/28
f 33/1/29 72/1/29 71/1/29
f 34/1/30 73/1/30 72/1/30
f 35/1/31 74/1/31 73/1/31
f 36/1/32 75/1/32 74/1/32
f 37/1/33 76/1/33 75/1/33
f 38/1/34 77/1/34 76/1/34
f 39/1/35 78/1/35 77/1/35
f 14/1/36 53/1/36 78/1/36
