# Blender 5.2.0 LTS
# www.blender.org
mtllib Nebraska-2.mtl
o Plane.035
v 2.441337 1.975240 -0.257995
v 2.441337 2.130620 -0.246341
v 2.441337 1.975240 -0.177678
v 2.441337 1.942006 -0.177678
v 2.441337 1.928158 -0.246917
v 2.441337 1.872767 -0.244147
v 2.441337 1.825686 -0.161061
v 2.441337 1.858920 -0.080745
v 2.441337 1.828455 -0.053049
v 2.441337 1.828455 -0.003198
v 2.441337 1.850611 0.010650
v 2.441337 1.858920 0.254369
v 2.441337 2.163568 0.251599
v 2.441337 2.160799 0.198978
v 2.441337 2.174646 0.182362
v 2.441337 2.141412 0.129741
v 2.441337 2.152490 0.113124
v 2.441337 2.135873 0.024499
v 2.441337 2.119256 0.013421
v 2.441337 2.116486 -0.077973
v 1.441337 1.975240 -0.257995
v 1.441337 2.130621 -0.246341
v 1.441337 1.975240 -0.177678
v 1.441337 1.942006 -0.177678
v 1.441337 1.928159 -0.246917
v 1.441337 1.872768 -0.244147
v 1.441337 1.825686 -0.161061
v 1.441337 1.858920 -0.080745
v 1.441337 1.828455 -0.053049
v 1.441337 1.828455 -0.003198
v 1.441337 1.850612 0.010650
v 1.441337 1.858920 0.254369
v 1.441337 2.163569 0.251599
v 1.441337 2.160799 0.198978
v 1.441337 2.174647 0.182362
v 1.441337 2.141412 0.129741
v 1.441337 2.152491 0.113124
v 1.441337 2.135873 0.024499
v 1.441337 2.119256 0.013421
v 1.441337 2.116487 -0.077973
vn 1.0000 -0.0000 -0.0000
vn -1.0000 -0.0000 -0.0000
vn -0.0000 0.0748 -0.9972
vn -0.0000 -1.0000 -0.0000
vn -0.0000 -0.0000 -1.0000
vn -0.0000 0.9806 -0.1961
vn -0.0000 -0.0499 -0.9988
vn -0.0000 -0.8700 -0.4930
vn -0.0000 -0.9240 0.3824
vn -0.0000 -0.6727 -0.7399
vn -0.0000 -0.5300 0.8480
vn -0.0000 -0.9994 0.0341
vn -0.0000 0.0091 1.0000
vn -0.0000 0.9986 -0.0526
vn -0.0000 0.7682 0.6402
vn -0.0000 0.8455 -0.5340
vn -0.0000 0.8320 0.5547
vn -0.0000 0.9829 -0.1843
vn -0.0000 0.5547 -0.8321
vn -0.0000 0.9995 -0.0303
vn -0.0000 0.9965 0.0837
vn -0.0000 -0.9240 0.3823
vn -0.0000 0.8321 0.5547
vt 0.000000 0.000000
s 0
f 16/1/1 11/1/1 8/1/1
f 26/1/2 28/1/2 36/1/2
f 2/1/3 21/1/3 22/1/3
f 3/1/4 21/1/4 1/1/4
f 3/1/5 24/1/5 23/1/5
f 5/1/6 24/1/6 4/1/6
f 6/1/7 25/1/7 5/1/7
f 7/1/8 26/1/8 6/1/8
f 8/1/9 27/1/9 7/1/9
f 8/1/10 29/1/10 28/1/10
f 10/1/4 29/1/4 9/1/4
f 11/1/11 30/1/11 10/1/11
f 12/1/12 31/1/12 11/1/12
f 13/1/13 32/1/13 12/1/13
f 14/1/14 33/1/14 13/1/14
f 15/1/15 34/1/15 14/1/15
f 16/1/16 35/1/16 15/1/16
f 17/1/17 36/1/17 16/1/17
f 18/1/18 37/1/18 17/1/18
f 19/1/19 38/1/19 18/1/19
f 20/1/20 39/1/20 19/1/20
f 2/1/21 40/1/21 20/1/21
f 19/1/1 18/1/1 17/1/1
f 16/1/1 15/1/1 14/1/1
f 19/1/1 17/1/1 16/1/1
f 1/1/1 2/1/1 20/1/1
f 1/1/1 20/1/1 19/1/1
f 3/1/1 1/1/1 19/1/1
f 16/1/1 14/1/1 13/1/1
f 3/1/1 19/1/1 16/1/1
f 6/1/1 5/1/1 4/1/1
f 4/1/1 3/1/1 16/1/1
f 16/1/1 13/1/1 12/1/1
f 11/1/1 10/1/1 9/1/1
f 16/1/1 12/1/1 11/1/1
f 6/1/1 4/1/1 16/1/1
f 8/1/1 7/1/1 6/1/1
f 11/1/1 9/1/1 8/1/1
f 8/1/1 6/1/1 16/1/1
f 40/1/2 22/1/2 21/1/2
f 40/1/2 21/1/2 23/1/2
f 37/1/2 38/1/2 39/1/2
f 39/1/2 40/1/2 23/1/2
f 24/1/2 25/1/2 26/1/2
f 39/1/2 23/1/2 24/1/2
f 36/1/2 37/1/2 39/1/2
f 34/1/2 35/1/2 36/1/2
f 32/1/2 33/1/2 34/1/2
f 29/1/2 30/1/2 31/1/2
f 31/1/2 32/1/2 34/1/2
f 36/1/2 39/1/2 24/1/2
f 31/1/2 34/1/2 36/1/2
f 28/1/2 29/1/2 31/1/2
f 26/1/2 27/1/2 28/1/2
f 36/1/2 24/1/2 26/1/2
f 28/1/2 31/1/2 36/1/2
f 2/1/3 1/1/3 21/1/3
f 3/1/4 23/1/4 21/1/4
f 3/1/5 4/1/5 24/1/5
f 5/1/6 25/1/6 24/1/6
f 6/1/7 26/1/7 25/1/7
f 7/1/8 27/1/8 26/1/8
f 8/1/22 28/1/22 27/1/22
f 8/1/10 9/1/10 29/1/10
f 10/1/4 30/1/4 29/1/4
f 11/1/11 31/1/11 30/1/11
f 12/1/12 32/1/12 31/1/12
f 13/1/13 33/1/13 32/1/13
f 14/1/14 34/1/14 33/1/14
f 15/1/15 35/1/15 34/1/15
f 16/1/16 36/1/16 35/1/16
f 17/1/23 37/1/23 36/1/23
f 18/1/18 38/1/18 37/1/18
f 19/1/19 39/1/19 38/1/19
f 20/1/20 40/1/20 39/1/20
f 2/1/21 22/1/21 40/1/21
