# Blender 5.2.0 LTS
# www.blender.org
mtllib New Mexico.mtl
o Plane.041
v 1.441336 -4.872547 8.050822
v 1.441336 -4.953309 7.512409
v 1.441336 -4.612314 7.494462
v 1.441336 -4.719996 6.507371
v 1.441337 -0.663952 7.485488
v 1.441337 -0.896547 5.768385
v 1.441337 -1.006004 4.584885
v 1.441337 -1.033368 3.941826
v 1.441337 -1.427254 3.928244
v 1.441337 -1.434045 3.982573
v 1.441337 -3.743030 4.125186
v 1.441336 -4.381396 4.165933
v 1.441336 -4.761700 4.240635
v 1.441336 -4.591922 6.474917
v 2.441336 -4.872547 8.050822
v 2.441336 -4.953309 7.512409
v 2.441336 -4.612314 7.494462
v 2.441336 -4.719996 6.507371
v 2.441337 -0.663952 7.485488
v 2.441337 -0.896547 5.768385
v 2.441337 -1.006004 4.584885
v 2.441337 -1.033368 3.941826
v 2.441337 -1.427254 3.928244
v 2.441337 -1.434045 3.982573
v 2.441336 -3.743030 4.125186
v 2.441336 -4.381396 4.165933
v 2.441336 -4.761700 4.240635
v 2.441336 -4.591922 6.474917
vn -1.0000 -0.0000 -0.0000
vn 1.0000 -0.0000 -0.0000
vn -0.0000 -0.9889 0.1483
vn -0.0000 -0.0526 -0.9986
vn -0.0000 -0.9941 0.1084
vn -0.0000 0.1331 0.9911
vn -0.0000 0.9909 -0.1342
vn -0.0000 0.9958 -0.0921
vn -0.0000 0.9991 -0.0425
vn -0.0000 0.0345 -0.9994
vn -0.0000 -0.9923 -0.1240
vn -0.0000 -0.0616 -0.9981
vn -0.0000 -0.0637 -0.9980
vn -0.0000 -0.1927 -0.9812
vn -0.0000 -0.9971 0.0758
vn -0.0000 -0.2456 -0.9694
vt 0.000000 0.000000
s 0
f 7/1/1 12/1/1 14/1/1
f 17/1/2 24/1/2 20/1/2
f 2/1/3 15/1/3 1/1/3
f 3/1/4 16/1/4 2/1/4
f 4/1/5 17/1/5 3/1/5
f 1/1/6 19/1/6 5/1/6
f 5/1/7 20/1/7 6/1/7
f 6/1/8 21/1/8 7/1/8
f 7/1/9 22/1/9 8/1/9
f 8/1/10 23/1/10 9/1/10
f 9/1/11 24/1/11 10/1/11
f 10/1/12 25/1/12 11/1/12
f 11/1/13 26/1/13 12/1/13
f 12/1/14 27/1/14 13/1/14
f 13/1/15 28/1/15 14/1/15
f 14/1/16 18/1/16 4/1/16
f 3/1/1 2/1/1 1/1/1
f 1/1/1 5/1/1 6/1/1
f 7/1/1 8/1/1 9/1/1
f 1/1/1 6/1/1 7/1/1
f 14/1/1 4/1/1 3/1/1
f 3/1/1 1/1/1 7/1/1
f 7/1/1 9/1/1 10/1/1
f 10/1/1 11/1/1 12/1/1
f 12/1/1 13/1/1 14/1/1
f 14/1/1 3/1/1 7/1/1
f 7/1/1 10/1/1 12/1/1
f 15/1/2 16/1/2 17/1/2
f 17/1/2 18/1/2 28/1/2
f 28/1/2 27/1/2 26/1/2
f 26/1/2 25/1/2 24/1/2
f 24/1/2 23/1/2 22/1/2
f 24/1/2 22/1/2 21/1/2
f 28/1/2 26/1/2 24/1/2
f 19/1/2 15/1/2 17/1/2
f 17/1/2 28/1/2 24/1/2
f 24/1/2 21/1/2 20/1/2
f 20/1/2 19/1/2 17/1/2
f 2/1/3 16/1/3 15/1/3
f 3/1/4 17/1/4 16/1/4
f 4/1/5 18/1/5 17/1/5
f 1/1/6 15/1/6 19/1/6
f 5/1/7 19/1/7 20/1/7
f 6/1/8 20/1/8 21/1/8
f 7/1/9 21/1/9 22/1/9
f 8/1/10 22/1/10 23/1/10
f 9/1/11 23/1/11 24/1/11
f 10/1/12 24/1/12 25/1/12
f 11/1/13 25/1/13 26/1/13
f 12/1/14 26/1/14 27/1/14
f 13/1/15 27/1/15 28/1/15
f 14/1/16 28/1/16 18/1/16
