# Blender 5.2.0 LTS
# www.blender.org
mtllib New Hampshire.mtl
o Plane.021
v 2.441337 5.071685 -13.766391
v 2.441337 4.819162 -13.516986
v 2.441337 4.700695 -12.915298
v 2.441337 4.791104 -12.893476
v 2.441337 4.869043 -12.924651
v 2.441337 4.950100 -12.934003
v 2.441337 5.021804 -12.890357
v 2.441337 5.196387 -12.871652
v 2.441337 5.495672 -12.862300
v 2.441337 5.551788 -12.921533
v 2.441337 5.685843 -12.837359
v 2.441337 5.804311 -12.849830
v 2.441337 5.953954 -12.946473
v 2.441337 6.050598 -13.049352
v 2.441337 6.134772 -13.049352
v 2.441337 6.296885 -13.002589
v 2.441337 6.371706 -12.980767
v 2.441337 6.518231 -12.980767
v 2.441337 6.711519 -13.043118
v 2.441337 6.727107 -13.114821
v 2.441337 6.727107 -13.183408
v 2.441337 5.698314 -13.510751
v 2.441337 5.423968 -13.598042
v 2.441337 5.296148 -13.663510
v 2.441337 5.246267 -13.732097
v 2.441337 5.205739 -13.785094
v 2.441337 5.208857 -13.825622
v 1.441337 5.071685 -13.766391
v 1.441337 4.819162 -13.516986
v 1.441337 4.700695 -12.915298
v 1.441337 4.791104 -12.893476
v 1.441337 4.869043 -12.924651
v 1.441337 4.950100 -12.934003
v 1.441337 5.021804 -12.890357
v 1.441337 5.196387 -12.871652
v 1.441337 5.495672 -12.862300
v 1.441337 5.551788 -12.921533
v 1.441337 5.685843 -12.837359
v 1.441337 5.804311 -12.849830
v 1.441337 5.953954 -12.946473
v 1.441337 6.050598 -13.049352
v 1.441337 6.134772 -13.049352
v 1.441337 6.296885 -13.002589
v 1.441337 6.371706 -12.980767
v 1.441337 6.518231 -12.980767
v 1.441337 6.711519 -13.043118
v 1.441337 6.727107 -13.114821
v 1.441337 6.727107 -13.183408
v 1.441337 5.698314 -13.510751
v 1.441337 5.423968 -13.598042
v 1.441337 5.296148 -13.663510
v 1.441337 5.246267 -13.732097
v 1.441337 5.205739 -13.785094
v 1.441337 5.208857 -13.825622
vn 1.0000 -0.0000 -0.0000
vn -1.0000 -0.0000 -0.0000
vn -0.0000 -0.7027 -0.7115
vn -0.0000 -0.9812 -0.1932
vn -0.0000 -0.2346 0.9721
vn -0.0000 0.3714 0.9285
vn -0.0000 0.1146 0.9934
vn -0.0000 -0.5199 0.8542
vn -0.0000 -0.1065 0.9943
vn -0.0000 -0.0312 0.9995
vn -0.0000 0.7259 0.6878
vn -0.0000 -0.5318 0.8469
vn -0.0000 0.1047 0.9945
vn -0.0000 0.5425 0.8400
vn -0.0000 0.7288 0.6847
vn -0.0000 -0.0000 1.0000
vn -0.0000 -0.2772 0.9608
vn -0.0000 -0.2800 0.9600
vn -0.0000 0.3070 0.9517
vn -0.0000 0.9772 0.2124
vn -0.0000 1.0000 -0.0000
vn -0.0000 0.3032 -0.9529
vn -0.0000 0.4559 -0.8900
vn -0.0000 0.8087 -0.5882
vn -0.0000 0.7944 -0.6075
vn -0.0000 0.9971 0.0767
vn -0.0000 -0.3964 -0.9181
vn -1.0000 0.0001 -0.0000
vt 0.000000 0.000000
s 0
f 22/1/1 19/1/1 15/1/1
f 43/1/2 46/1/2 49/1/2
f 2/1/3 28/1/3 1/1/3
f 3/1/4 29/1/4 2/1/4
f 4/1/5 30/1/5 3/1/5
f 5/1/6 31/1/6 4/1/6
f 6/1/7 32/1/7 5/1/7
f 7/1/8 33/1/8 6/1/8
f 8/1/9 34/1/9 7/1/9
f 9/1/10 35/1/10 8/1/10
f 10/1/11 36/1/11 9/1/11
f 11/1/12 37/1/12 10/1/12
f 12/1/13 38/1/13 11/1/13
f 13/1/14 39/1/14 12/1/14
f 14/1/15 40/1/15 13/1/15
f 15/1/16 41/1/16 14/1/16
f 16/1/17 42/1/17 15/1/17
f 17/1/18 43/1/18 16/1/18
f 18/1/16 44/1/16 17/1/16
f 19/1/19 45/1/19 18/1/19
f 20/1/20 46/1/20 19/1/20
f 21/1/21 47/1/21 20/1/21
f 22/1/22 48/1/22 21/1/22
f 23/1/22 49/1/22 22/1/22
f 24/1/23 50/1/23 23/1/23
f 25/1/24 51/1/24 24/1/24
f 26/1/25 52/1/25 25/1/25
f 27/1/26 53/1/26 26/1/26
f 1/1/27 54/1/27 27/1/27
f 2/1/1 1/1/1 27/1/1
f 26/1/1 25/1/1 24/1/1
f 2/1/1 27/1/1 26/1/1
f 4/1/1 3/1/1 2/1/1
f 5/1/1 4/1/1 2/1/1
f 2/1/1 26/1/1 24/1/1
f 2/1/1 24/1/1 23/1/1
f 6/1/1 5/1/1 2/1/1
f 8/1/1 7/1/1 6/1/1
f 10/1/1 9/1/1 8/1/1
f 12/1/1 11/1/1 10/1/1
f 14/1/1 13/1/1 12/1/1
f 14/1/1 12/1/1 10/1/1
f 10/1/1 8/1/1 6/1/1
f 6/1/1 2/1/1 23/1/1
f 22/1/1 21/1/1 20/1/1
f 6/1/1 23/1/1 22/1/1
f 14/1/1 10/1/1 6/1/1
f 14/1/1 6/1/1 22/1/1
f 22/1/1 20/1/1 19/1/1
f 19/1/1 18/1/1 17/1/1
f 19/1/1 17/1/1 16/1/1
f 15/1/1 14/1/1 22/1/1
f 19/1/1 16/1/1 15/1/1
f 54/1/2 28/1/2 29/1/2
f 29/1/2 30/1/2 31/1/2
f 29/1/2 31/1/2 32/1/2
f 53/1/2 54/1/2 29/1/2
f 51/1/28 52/1/28 53/1/28
f 51/1/2 53/1/2 29/1/2
f 29/1/2 32/1/2 33/1/2
f 33/1/2 34/1/2 35/1/2
f 35/1/2 36/1/2 37/1/2
f 37/1/2 38/1/2 39/1/2
f 39/1/2 40/1/2 41/1/2
f 37/1/2 39/1/2 41/1/2
f 33/1/2 35/1/2 37/1/2
f 51/1/2 29/1/2 33/1/2
f 50/1/2 51/1/2 33/1/2
f 33/1/2 37/1/2 41/1/2
f 50/1/2 33/1/2 41/1/2
f 47/1/2 48/1/2 49/1/2
f 49/1/2 50/1/2 41/1/2
f 49/1/2 41/1/2 42/1/2
f 46/1/2 47/1/2 49/1/2
f 44/1/2 45/1/2 46/1/2
f 49/1/2 42/1/2 43/1/2
f 43/1/2 44/1/2 46/1/2
f 2/1/3 29/1/3 28/1/3
f 3/1/4 30/1/4 29/1/4
f 4/1/5 31/1/5 30/1/5
f 5/1/6 32/1/6 31/1/6
f 6/1/7 33/1/7 32/1/7
f 7/1/8 34/1/8 33/1/8
f 8/1/9 35/1/9 34/1/9
f 9/1/10 36/1/10 35/1/10
f 10/1/11 37/1/11 36/1/11
f 11/1/12 38/1/12 37/1/12
f 12/1/13 39/1/13 38/1/13
f 13/1/14 40/1/14 39/1/14
f 14/1/15 41/1/15 40/1/15
f 15/1/16 42/1/16 41/1/16
f 16/1/17 43/1/17 42/1/17
f 17/1/18 44/1/18 43/1/18
f 18/1/16 45/1/16 44/1/16
f 19/1/19 46/1/19 45/1/19
f 20/1/20 47/1/20 46/1/20
f 21/1/21 48/1/21 47/1/21
f 22/1/22 49/1/22 48/1/22
f 23/1/22 50/1/22 49/1/22
f 24/1/23 51/1/23 50/1/23
f 25/1/24 52/1/24 51/1/24
f 26/1/25 53/1/25 52/1/25
f 27/1/26 54/1/26 53/1/26
f 1/1/27 28/1/27 54/1/27
