# Blender 5.2.0 LTS
# www.blender.org
mtllib North Carolina.mtl
o Plane.005
v 1.441337 -2.175909 -8.025117
v 1.441337 -0.399110 -12.184407
v 1.441337 -0.478874 -12.239102
v 1.441337 -0.567753 -12.268729
v 1.441337 -0.588264 -12.216313
v 1.441337 -0.590543 -12.109202
v 1.441337 -0.633843 -12.020324
v 1.441337 -0.759186 -11.781034
v 1.441337 -0.813881 -11.755965
v 1.441337 -0.809323 -11.815219
v 1.441337 -0.786534 -11.847125
v 1.441337 -0.759186 -11.899541
v 1.441337 -0.770581 -11.949677
v 1.441337 -0.699933 -12.022605
v 1.441337 -0.704491 -12.093253
v 1.441337 -0.736396 -12.147948
v 1.441337 -0.672585 -12.211759
v 1.441337 -0.713511 -12.261779
v 1.441337 -0.786267 -12.266326
v 1.441337 -0.927231 -12.343629
v 1.441337 -0.995440 -12.220853
v 1.441337 -1.209161 -12.170833
v 1.441337 -1.218255 -11.875262
v 1.441337 -1.259181 -11.870715
v 1.441337 -1.295559 -11.966207
v 1.441337 -1.363767 -11.966207
v 1.441337 -1.409240 -11.916186
v 1.441337 -1.481996 -11.925281
v 1.441337 -1.486543 -11.934375
v 1.441337 -1.495637 -11.988942
v 1.441337 -1.522921 -12.061698
v 1.441337 -1.577488 -12.143548
v 1.441337 -1.718452 -12.075339
v 1.441337 -1.713905 -11.966205
v 1.441337 -1.718452 -11.820693
v 1.441337 -1.741189 -11.734296
v 1.441337 -1.850323 -11.588784
v 1.441337 -2.073138 -11.356875
v 1.441337 -2.200461 -11.293214
v 1.441337 -2.332330 -11.288667
v 1.441337 -2.427823 -11.270478
v 1.441337 -2.500579 -11.029473
v 1.441337 -2.586976 -10.915792
v 1.441337 -2.251061 -7.317428
v 1.441337 -2.067141 -7.340102
v 1.441337 -2.054543 -7.438361
v 1.441337 -2.016751 -7.440881
v 1.441337 -1.903376 -7.466075
v 1.441337 -1.850467 -7.566854
v 1.441337 -1.810155 -7.637399
v 1.441337 -1.774883 -7.715503
v 1.441337 -1.764805 -7.778489
v 1.441337 -1.598520 -7.952332
v 1.441337 -1.590962 -8.068229
v 1.441337 -1.399118 -8.072743
v 1.441337 -1.342791 -8.143151
v 1.441337 -1.333403 -8.194785
v 1.441337 -1.361566 -8.218255
v 1.441337 -1.408505 -8.269889
v 1.441337 -1.403811 -8.312135
v 1.441337 -1.338097 -8.330911
v 1.441337 -1.272382 -8.401319
v 1.441337 -1.267688 -8.499890
v 1.441337 -1.220749 -8.513972
v 1.441337 -1.126870 -8.621932
v 1.441337 -1.079931 -8.650096
v 1.441337 -0.981359 -8.720504
v 1.441337 -0.277613 -12.120484
v 1.441337 -0.656602 -10.269607
v 1.441337 -0.859317 -8.758056
v 1.441337 -2.124468 -8.170087
v 1.441337 -2.049644 -8.319734
v 1.441337 -1.970144 -8.492763
v 1.441337 -1.928056 -8.642409
v 1.441337 -1.876615 -8.894938
v 1.441337 -1.871939 -9.231645
v 1.441337 -1.876615 -9.334527
v 1.441337 -1.923380 -9.381291
v 1.441337 -2.040291 -9.428056
v 1.441337 -2.077703 -9.428056
v 1.441337 -2.049644 -9.783467
v 1.441337 -2.030939 -9.956496
v 1.441337 -2.002880 -10.035996
v 1.441337 -2.002880 -10.106143
v 1.441337 -2.395702 -10.662642
v 2.441337 -2.175909 -8.025117
v 2.441337 -0.399110 -12.184407
v 2.441337 -0.478874 -12.239102
v 2.441337 -0.567753 -12.268729
v 2.441337 -0.588264 -12.216313
v 2.441337 -0.590543 -12.109202
v 2.441337 -0.633843 -12.020324
v 2.441337 -0.759186 -11.781034
v 2.441337 -0.813881 -11.755965
v 2.441337 -0.809323 -11.815219
v 2.441337 -0.786534 -11.847125
v 2.441337 -0.759186 -11.899541
v 2.441337 -0.770581 -11.949677
v 2.441337 -0.699933 -12.022605
v 2.441337 -0.704491 -12.093253
v 2.441337 -0.736396 -12.147948
v 2.441337 -0.672586 -12.211759
v 2.441337 -0.713511 -12.261779
v 2.441337 -0.786267 -12.266326
v 2.441337 -0.927231 -12.343629
v 2.441337 -0.995440 -12.220853
v 2.441337 -1.209161 -12.170833
v 2.441337 -1.218255 -11.875262
v 2.441337 -1.259181 -11.870715
v 2.441337 -1.295559 -11.966207
v 2.441337 -1.363767 -11.966207
v 2.441337 -1.409240 -11.916186
v 2.441337 -1.481996 -11.925281
v 2.441337 -1.486543 -11.934375
v 2.441337 -1.495637 -11.988942
v 2.441337 -1.522921 -12.061698
v 2.441337 -1.577488 -12.143548
v 2.441337 -1.718452 -12.075339
v 2.441337 -1.713905 -11.966205
v 2.441337 -1.718452 -11.820693
v 2.441337 -1.741189 -11.734296
v 2.441337 -1.850323 -11.588784
v 2.441337 -2.073138 -11.356875
v 2.441337 -2.200461 -11.293214
v 2.441337 -2.332330 -11.288667
v 2.441337 -2.427823 -11.270478
v 2.441337 -2.500579 -11.029473
v 2.441337 -2.586976 -10.915792
v 2.441337 -2.251061 -7.317428
v 2.441337 -2.067141 -7.340102
v 2.441337 -2.054543 -7.438361
v 2.441337 -2.016751 -7.440881
v 2.441337 -1.903376 -7.466075
v 2.441337 -1.850467 -7.566854
v 2.441337 -1.810155 -7.637399
v 2.441337 -1.774883 -7.715503
v 2.441337 -1.764805 -7.778489
v 2.441337 -1.598520 -7.952332
v 2.441337 -1.590962 -8.068229
v 2.441337 -1.399118 -8.072743
v 2.441337 -1.342791 -8.143151
v 2.441337 -1.333403 -8.194785
v 2.441337 -1.361566 -8.218255
v 2.441337 -1.408505 -8.269889
v 2.441337 -1.403811 -8.312135
v 2.441337 -1.338097 -8.330911
v 2.441337 -1.272382 -8.401319
v 2.441337 -1.267688 -8.499890
v 2.441337 -1.220749 -8.513972
v 2.441337 -1.126870 -8.621932
v 2.441337 -1.079931 -8.650096
v 2.441337 -0.981359 -8.720504
v 2.441337 -0.277613 -12.120484
v 2.441337 -0.656602 -10.269607
v 2.441337 -0.859317 -8.758056
v 2.441337 -2.124468 -8.170087
v 2.441337 -2.049644 -8.319734
v 2.441337 -1.970144 -8.492763
v 2.441337 -1.928056 -8.642409
v 2.441337 -1.876615 -8.894938
v 2.441337 -1.871939 -9.231645
v 2.441337 -1.876615 -9.334527
v 2.441337 -1.923380 -9.381291
v 2.441337 -2.040291 -9.428056
v 2.441337 -2.077703 -9.428056
v 2.441337 -2.049644 -9.783467
v 2.441337 -2.030939 -9.956496
v 2.441337 -2.002880 -10.035996
v 2.441337 -2.002880 -10.106143
v 2.441337 -2.395702 -10.662642
vn -1.0000 -0.0000 -0.0000
vn 1.0000 -0.0000 -0.0000
vn -0.0000 -0.9424 -0.3344
vn -0.0000 -0.9944 -0.1056
vn -0.0000 0.4656 -0.8850
vn -0.0000 0.5655 -0.8247
vn -0.0000 0.3162 -0.9487
vn -0.0000 -0.9312 -0.3644
vn -0.0000 -0.9998 -0.0213
vn -0.0000 -0.8990 -0.4380
vn -0.0000 -0.8858 -0.4640
vn -0.0000 -0.4167 -0.9091
vn -0.0000 0.9971 0.0767
vn -0.0000 0.8137 0.5812
vn -0.0000 0.8866 0.4626
vn -0.0000 0.9751 -0.2216
vn -0.0000 0.7182 0.6958
vn -0.0000 0.9979 -0.0644
vn -0.0000 0.8638 -0.5039
vn -0.0000 0.7071 0.7071
vn -0.0000 0.7740 -0.6332
vn -0.0000 0.0624 -0.9981
vn -0.0000 0.4808 -0.8768
vn -0.0000 -0.8742 -0.4856
vn -0.0000 -0.2279 -0.9737
vn -0.0000 -0.9995 -0.0308
vn -0.0000 -0.1104 -0.9939
vn -0.0000 0.9345 -0.3560
vn -0.0000 -0.0000 -1.0000
vn -0.0000 -0.7399 -0.6727
vn -0.0000 0.1240 -0.9923
vn -0.0000 0.8944 -0.4472
vn -0.0000 0.9864 -0.1644
vn -0.0000 0.9363 -0.3511
vn -0.0000 0.8320 -0.5547
vn -0.0000 -0.4356 -0.9002
vn -0.0000 -0.9991 0.0416
vn -0.0000 -0.9995 -0.0312
vn -0.0000 -0.9671 -0.2545
vn -0.0000 -0.8000 -0.6000
vn -0.0000 -0.7211 -0.6928
vn -0.0000 -0.4472 -0.8944
vn -0.0000 -0.0345 -0.9994
vn -0.0000 -0.1871 -0.9823
vn -0.0000 -0.9573 -0.2890
vn -0.0000 -0.7962 -0.6051
vn -0.0000 0.1224 0.9925
vn -0.0000 0.9919 0.1272
vn -0.0000 0.0665 0.9978
vn -0.0000 0.2169 0.9762
vn -0.0000 0.8854 0.4648
vn -0.0000 0.8682 0.4961
vn -0.0000 0.9114 0.4116
vn -0.0000 0.9874 0.1580
vn -0.0000 0.7226 0.6912
vn -0.0000 0.9979 0.0651
vn -0.0000 0.0235 0.9997
vn -0.0000 0.7809 0.6247
vn -0.0000 0.9839 0.1789
vn -0.0000 0.6402 -0.7682
vn -0.0000 0.7399 -0.6727
vn -0.0000 0.9939 0.1104
vn -0.0000 0.2747 0.9615
vn -0.0000 0.7311 0.6823
vn -0.0000 0.9989 0.0476
vn -0.0000 0.2874 0.9578
vn -0.0000 0.7546 0.6562
vn -0.0000 0.5145 0.8575
vn -0.0000 0.5812 0.8137
vn -0.0000 0.2941 0.9558
vn -0.0000 0.9797 0.2006
vn -0.0000 0.9911 0.1329
vn -0.0000 -0.8944 -0.4472
vn -0.0000 -0.9087 -0.4175
vn -0.0000 -0.9627 -0.2707
vn -0.0000 -0.9799 -0.1996
vn -0.0000 -0.9999 -0.0139
vn -0.0000 -0.9990 0.0454
vn -0.0000 -0.7071 0.7071
vn -0.0000 -0.3714 0.9285
vn -0.0000 -0.0000 1.0000
vn -0.0000 -0.9969 -0.0787
vn -0.0000 -0.9942 -0.1075
vn -0.0000 -0.9430 -0.3328
vn -0.0000 -1.0000 -0.0000
vn -0.0000 -0.8170 0.5767
vn -0.0000 -0.7979 0.6028
vn 1.0000 -0.0001 -0.0000
vt 0.000000 0.000000
s 0
f 83/1/1 78/1/1 77/1/1
f 162/1/2 163/1/2 168/1/2
f 71/1/3 86/1/3 1/1/3
f 1/1/4 129/1/4 44/1/4
f 68/1/5 87/1/5 2/1/5
f 2/1/6 88/1/6 3/1/6
f 3/1/7 89/1/7 4/1/7
f 4/1/8 90/1/8 5/1/8
f 5/1/9 91/1/9 6/1/9
f 6/1/10 92/1/10 7/1/10
f 7/1/11 93/1/11 8/1/11
f 8/1/12 94/1/12 9/1/12
f 9/1/13 95/1/13 10/1/13
f 10/1/14 96/1/14 11/1/14
f 11/1/15 97/1/15 12/1/15
f 12/1/16 98/1/16 13/1/16
f 13/1/17 99/1/17 14/1/17
f 14/1/18 100/1/18 15/1/18
f 15/1/19 101/1/19 16/1/19
f 16/1/20 102/1/20 17/1/20
f 17/1/21 103/1/21 18/1/21
f 18/1/22 104/1/22 19/1/22
f 19/1/23 105/1/23 20/1/23
f 20/1/24 106/1/24 21/1/24
f 21/1/25 107/1/25 22/1/25
f 22/1/26 108/1/26 23/1/26
f 23/1/27 109/1/27 24/1/27
f 24/1/28 110/1/28 25/1/28
f 25/1/29 111/1/29 26/1/29
f 26/1/30 112/1/30 27/1/30
f 27/1/31 113/1/31 28/1/31
f 28/1/32 114/1/32 29/1/32
f 29/1/33 115/1/33 30/1/33
f 30/1/34 116/1/34 31/1/34
f 31/1/35 117/1/35 32/1/35
f 32/1/36 118/1/36 33/1/36
f 33/1/37 119/1/37 34/1/37
f 34/1/38 120/1/38 35/1/38
f 35/1/39 121/1/39 36/1/39
f 36/1/40 122/1/40 37/1/40
f 37/1/41 123/1/41 38/1/41
f 38/1/42 124/1/42 39/1/42
f 39/1/43 125/1/43 40/1/43
f 40/1/44 126/1/44 41/1/44
f 41/1/45 127/1/45 42/1/45
f 42/1/46 128/1/46 43/1/46
f 44/1/47 130/1/47 45/1/47
f 45/1/48 131/1/48 46/1/48
f 46/1/49 132/1/49 47/1/49
f 47/1/50 133/1/50 48/1/50
f 48/1/51 134/1/51 49/1/51
f 49/1/52 135/1/52 50/1/52
f 50/1/53 136/1/53 51/1/53
f 51/1/54 137/1/54 52/1/54
f 52/1/55 138/1/55 53/1/55
f 53/1/56 139/1/56 54/1/56
f 54/1/57 140/1/57 55/1/57
f 55/1/58 141/1/58 56/1/58
f 56/1/59 142/1/59 57/1/59
f 57/1/60 143/1/60 58/1/60
f 58/1/61 144/1/61 59/1/61
f 59/1/62 145/1/62 60/1/62
f 60/1/63 146/1/63 61/1/63
f 61/1/64 147/1/64 62/1/64
f 62/1/65 148/1/65 63/1/65
f 63/1/66 149/1/66 64/1/66
f 64/1/67 150/1/67 65/1/67
f 65/1/68 151/1/68 66/1/68
f 66/1/69 152/1/69 67/1/69
f 67/1/70 155/1/70 70/1/70
f 69/1/71 153/1/71 68/1/71
f 70/1/72 154/1/72 69/1/72
f 72/1/73 156/1/73 71/1/73
f 73/1/74 157/1/74 72/1/74
f 74/1/75 158/1/75 73/1/75
f 75/1/76 159/1/76 74/1/76
f 76/1/77 160/1/77 75/1/77
f 77/1/78 161/1/78 76/1/78
f 78/1/79 162/1/79 77/1/79
f 79/1/80 163/1/80 78/1/80
f 80/1/81 164/1/81 79/1/81
f 81/1/82 165/1/82 80/1/82
f 82/1/83 166/1/83 81/1/83
f 83/1/84 167/1/84 82/1/84
f 84/1/85 168/1/85 83/1/85
f 85/1/86 169/1/86 84/1/86
f 43/1/87 170/1/87 85/1/87
f 69/1/1 68/1/1 2/1/1
f 2/1/1 3/1/1 4/1/1
f 4/1/1 5/1/1 6/1/1
f 2/1/1 4/1/1 6/1/1
f 67/1/1 70/1/1 69/1/1
f 69/1/1 2/1/1 6/1/1
f 69/1/1 6/1/1 7/1/1
f 66/1/1 67/1/1 69/1/1
f 63/1/1 64/1/1 65/1/1
f 65/1/1 66/1/1 69/1/1
f 69/1/1 7/1/1 8/1/1
f 69/1/1 8/1/1 9/1/1
f 63/1/1 65/1/1 69/1/1
f 61/1/1 62/1/1 63/1/1
f 60/1/1 61/1/1 63/1/1
f 63/1/1 69/1/1 9/1/1
f 10/1/1 11/1/1 12/1/1
f 63/1/1 9/1/1 10/1/1
f 60/1/1 63/1/1 10/1/1
f 10/1/1 12/1/1 13/1/1
f 13/1/1 14/1/1 15/1/1
f 16/1/1 17/1/1 18/1/1
f 13/1/1 15/1/1 16/1/1
f 10/1/1 13/1/1 16/1/1
f 16/1/1 18/1/1 19/1/1
f 19/1/1 20/1/1 21/1/1
f 21/1/1 22/1/1 23/1/1
f 24/1/1 25/1/1 26/1/1
f 19/1/1 21/1/1 23/1/1
f 24/1/1 26/1/1 27/1/1
f 16/1/1 19/1/1 23/1/1
f 24/1/1 27/1/1 28/1/1
f 10/1/1 16/1/1 23/1/1
f 10/1/1 23/1/1 24/1/1
f 60/1/1 10/1/1 24/1/1
f 60/1/1 24/1/1 28/1/1
f 59/1/1 60/1/1 28/1/1
f 29/1/1 30/1/1 31/1/1
f 59/1/1 28/1/1 29/1/1
f 56/1/1 57/1/1 58/1/1
f 59/1/1 29/1/1 31/1/1
f 56/1/1 58/1/1 59/1/1
f 54/1/1 55/1/1 56/1/1
f 52/1/1 53/1/1 54/1/1
f 50/1/1 51/1/1 52/1/1
f 47/1/1 48/1/1 49/1/1
f 49/1/1 50/1/1 52/1/1
f 54/1/1 56/1/1 59/1/1
f 47/1/1 49/1/1 52/1/1
f 54/1/1 59/1/1 31/1/1
f 47/1/1 52/1/1 54/1/1
f 44/1/1 45/1/1 46/1/1
f 46/1/1 47/1/1 54/1/1
f 54/1/1 31/1/1 32/1/1
f 32/1/1 33/1/1 34/1/1
f 32/1/1 34/1/1 35/1/1
f 44/1/1 46/1/1 54/1/1
f 71/1/1 1/1/1 44/1/1
f 72/1/1 71/1/1 44/1/1
f 54/1/1 32/1/1 35/1/1
f 54/1/1 35/1/1 36/1/1
f 72/1/1 44/1/1 54/1/1
f 73/1/1 72/1/1 54/1/1
f 54/1/1 36/1/1 37/1/1
f 54/1/1 37/1/1 38/1/1
f 74/1/1 73/1/1 54/1/1
f 75/1/1 74/1/1 54/1/1
f 54/1/1 38/1/1 39/1/1
f 39/1/1 40/1/1 41/1/1
f 42/1/1 43/1/1 85/1/1
f 39/1/1 41/1/1 42/1/1
f 76/1/1 75/1/1 54/1/1
f 77/1/1 76/1/1 54/1/1
f 39/1/1 42/1/1 85/1/1
f 39/1/1 85/1/1 84/1/1
f 81/1/1 80/1/1 79/1/1
f 83/1/1 82/1/1 81/1/1
f 54/1/1 39/1/1 84/1/1
f 83/1/1 81/1/1 79/1/1
f 54/1/1 84/1/1 83/1/1
f 77/1/1 54/1/1 83/1/1
f 83/1/1 79/1/1 78/1/1
f 154/1/2 155/1/2 152/1/2
f 152/1/2 151/1/2 150/1/2
f 150/1/2 149/1/2 148/1/2
f 148/1/2 147/1/2 146/1/2
f 148/1/2 146/1/2 145/1/2
f 154/1/2 152/1/2 150/1/2
f 154/1/2 150/1/2 148/1/2
f 87/1/2 153/1/2 154/1/2
f 89/1/2 88/1/2 87/1/2
f 91/1/2 90/1/2 89/1/2
f 91/1/2 89/1/2 87/1/2
f 87/1/2 154/1/2 148/1/2
f 87/1/2 148/1/2 145/1/2
f 92/1/2 91/1/2 87/1/2
f 93/1/2 92/1/2 87/1/2
f 93/1/2 87/1/2 145/1/2
f 94/1/2 93/1/2 145/1/2
f 95/1/2 94/1/2 145/1/2
f 97/1/2 96/1/2 95/1/2
f 100/1/2 99/1/2 98/1/2
f 98/1/2 97/1/2 95/1/2
f 101/1/2 100/1/2 98/1/2
f 103/1/2 102/1/2 101/1/2
f 106/1/2 105/1/2 104/1/2
f 104/1/2 103/1/2 101/1/2
f 101/1/2 98/1/2 95/1/2
f 104/1/2 101/1/2 95/1/2
f 107/1/2 106/1/2 104/1/2
f 108/1/2 107/1/2 104/1/2
f 104/1/2 95/1/2 145/1/2
f 108/1/2 104/1/2 145/1/2
f 111/1/2 110/1/2 109/1/2
f 109/1/2 108/1/2 145/1/2
f 109/1/88 145/1/88 144/1/88
f 112/1/2 111/1/2 109/1/2
f 113/1/2 112/1/2 109/1/2
f 113/1/2 109/1/2 144/1/2
f 116/1/2 115/1/2 114/1/2
f 114/1/88 113/1/88 144/1/88
f 143/1/2 142/1/2 141/1/2
f 116/1/2 114/1/2 144/1/2
f 144/1/2 143/1/2 141/1/2
f 141/1/2 140/1/2 139/1/2
f 139/1/2 138/1/2 137/1/2
f 137/1/2 136/1/2 135/1/2
f 134/1/2 133/1/2 132/1/2
f 137/1/2 135/1/2 134/1/2
f 144/1/2 141/1/2 139/1/2
f 137/1/2 134/1/2 132/1/2
f 116/1/2 144/1/2 139/1/2
f 139/1/2 137/1/2 132/1/2
f 131/1/2 130/1/2 129/1/2
f 139/1/2 132/1/2 131/1/2
f 117/1/2 116/1/2 139/1/2
f 119/1/2 118/1/2 117/1/2
f 120/1/2 119/1/2 117/1/2
f 139/1/2 131/1/2 129/1/2
f 129/1/2 86/1/2 156/1/2
f 129/1/2 156/1/2 157/1/2
f 120/1/2 117/1/2 139/1/2
f 121/1/2 120/1/2 139/1/2
f 139/1/2 129/1/2 157/1/2
f 139/1/2 157/1/2 158/1/2
f 122/1/2 121/1/2 139/1/2
f 123/1/2 122/1/2 139/1/2
f 139/1/2 158/1/2 159/1/2
f 139/1/2 159/1/2 160/1/2
f 124/1/2 123/1/2 139/1/2
f 126/1/2 125/1/2 124/1/2
f 170/1/2 128/1/2 127/1/2
f 127/1/2 126/1/2 124/1/2
f 139/1/2 160/1/2 161/1/2
f 139/1/2 161/1/2 162/1/2
f 170/1/2 127/1/2 124/1/2
f 169/1/2 170/1/2 124/1/2
f 164/1/2 165/1/2 166/1/2
f 166/1/2 167/1/2 168/1/2
f 169/1/2 124/1/2 139/1/2
f 164/1/2 166/1/2 168/1/2
f 168/1/2 169/1/2 139/1/2
f 168/1/2 139/1/2 162/1/2
f 163/1/2 164/1/2 168/1/2
f 71/1/3 156/1/3 86/1/3
f 1/1/4 86/1/4 129/1/4
f 68/1/5 153/1/5 87/1/5
f 2/1/6 87/1/6 88/1/6
f 3/1/7 88/1/7 89/1/7
f 4/1/8 89/1/8 90/1/8
f 5/1/9 90/1/9 91/1/9
f 6/1/10 91/1/10 92/1/10
f 7/1/11 92/1/11 93/1/11
f 8/1/12 93/1/12 94/1/12
f 9/1/13 94/1/13 95/1/13
f 10/1/14 95/1/14 96/1/14
f 11/1/15 96/1/15 97/1/15
f 12/1/16 97/1/16 98/1/16
f 13/1/17 98/1/17 99/1/17
f 14/1/18 99/1/18 100/1/18
f 15/1/19 100/1/19 101/1/19
f 16/1/20 101/1/20 102/1/20
f 17/1/21 102/1/21 103/1/21
f 18/1/22 103/1/22 104/1/22
f 19/1/23 104/1/23 105/1/23
f 20/1/24 105/1/24 106/1/24
f 21/1/25 106/1/25 107/1/25
f 22/1/26 107/1/26 108/1/26
f 23/1/27 108/1/27 109/1/27
f 24/1/28 109/1/28 110/1/28
f 25/1/29 110/1/29 111/1/29
f 26/1/30 111/1/30 112/1/30
f 27/1/31 112/1/31 113/1/31
f 28/1/32 113/1/32 114/1/32
f 29/1/33 114/1/33 115/1/33
f 30/1/34 115/1/34 116/1/34
f 31/1/35 116/1/35 117/1/35
f 32/1/36 117/1/36 118/1/36
f 33/1/37 118/1/37 119/1/37
f 34/1/38 119/1/38 120/1/38
f 35/1/39 120/1/39 121/1/39
f 36/1/40 121/1/40 122/1/40
f 37/1/41 122/1/41 123/1/41
f 38/1/42 123/1/42 124/1/42
f 39/1/43 124/1/43 125/1/43
f 40/1/44 125/1/44 126/1/44
f 41/1/45 126/1/45 127/1/45
f 42/1/46 127/1/46 128/1/46
f 44/1/47 129/1/47 130/1/47
f 45/1/48 130/1/48 131/1/48
f 46/1/49 131/1/49 132/1/49
f 47/1/50 132/1/50 133/1/50
f 48/1/51 133/1/51 134/1/51
f 49/1/52 134/1/52 135/1/52
f 50/1/53 135/1/53 136/1/53
f 51/1/54 136/1/54 137/1/54
f 52/1/55 137/1/55 138/1/55
f 53/1/56 138/1/56 139/1/56
f 54/1/57 139/1/57 140/1/57
f 55/1/58 140/1/58 141/1/58
f 56/1/59 141/1/59 142/1/59
f 57/1/60 142/1/60 143/1/60
f 58/1/61 143/1/61 144/1/61
f 59/1/62 144/1/62 145/1/62
f 60/1/63 145/1/63 146/1/63
f 61/1/64 146/1/64 147/1/64
f 62/1/65 147/1/65 148/1/65
f 63/1/66 148/1/66 149/1/66
f 64/1/67 149/1/67 150/1/67
f 65/1/68 150/1/68 151/1/68
f 66/1/69 151/1/69 152/1/69
f 67/1/70 152/1/70 155/1/70
f 69/1/71 154/1/71 153/1/71
f 70/1/72 155/1/72 154/1/72
f 72/1/73 157/1/73 156/1/73
f 73/1/74 158/1/74 157/1/74
f 74/1/75 159/1/75 158/1/75
f 75/1/76 160/1/76 159/1/76
f 76/1/77 161/1/77 160/1/77
f 77/1/78 162/1/78 161/1/78
f 78/1/79 163/1/79 162/1/79
f 79/1/80 164/1/80 163/1/80
f 80/1/81 165/1/81 164/1/81
f 81/1/82 166/1/82 165/1/82
f 82/1/83 167/1/83 166/1/83
f 83/1/84 168/1/84 167/1/84
f 84/1/85 169/1/85 168/1/85
f 85/1/86 170/1/86 169/1/86
f 43/1/87 128/1/87 170/1/87
