# Blender 5.2.0 LTS
# www.blender.org
mtllib Ohio.mtl
o Plane.016
v 2.441337 0.621867 -7.825461
v 2.441337 0.532722 -7.852891
v 2.441337 0.505292 -7.876891
v 2.441337 0.464148 -7.935178
v 2.441337 0.912748 -8.223268
v 2.441337 0.921535 -8.281846
v 2.441337 0.848312 -8.322850
v 2.441337 0.836596 -8.349210
v 2.441337 0.845383 -8.404859
v 2.441337 0.930322 -8.407788
v 2.441337 1.103129 -8.407788
v 2.441337 1.161707 -8.440007
v 2.441337 1.214428 -8.501515
v 2.441337 1.237859 -8.577668
v 2.441337 1.249575 -8.618672
v 2.441337 1.445813 -8.776834
v 2.441337 1.507320 -8.823697
v 2.441337 1.595188 -8.844199
v 2.441337 1.867579 -8.852986
v 2.441337 2.087248 -8.855916
v 2.441337 2.172187 -8.885205
v 2.441337 2.230766 -8.899850
v 2.441337 3.229530 -8.709470
v 2.441337 3.200240 -8.656749
v 2.441337 3.135804 -8.510303
v 2.441337 3.068439 -8.384358
v 2.441337 2.860485 -8.173476
v 2.441337 2.813622 -8.111968
v 2.441337 2.781404 -8.015313
v 2.441337 2.766759 -7.877654
v 2.441337 2.708181 -7.792716
v 2.441337 2.634958 -7.725350
v 2.441337 2.664247 -7.678487
v 2.441337 2.711110 -7.616979
v 2.441337 2.755044 -7.458817
v 2.441337 2.760901 -7.338731
v 2.441337 2.793120 -7.300654
v 2.441337 2.705252 -6.503985
v 2.441337 2.781404 -6.911107
v 2.441337 2.807764 -7.157138
v 2.441337 2.684749 -6.410256
v 2.441337 1.709416 -6.530343
v 2.441337 0.804377 -6.615281
v 2.441337 0.748728 -6.656285
v 2.441337 0.759014 -6.694001
v 2.441337 0.769300 -6.721431
v 2.441337 0.789872 -6.796861
v 2.441337 0.796729 -6.879149
v 2.441337 0.728155 -6.958009
v 2.441337 0.656154 -6.985438
v 2.441337 0.601295 -7.023154
v 2.441337 0.625295 -7.180873
v 2.441337 0.580723 -7.198016
v 2.441337 0.505292 -7.246018
v 2.441337 0.495006 -7.276875
v 2.441337 0.563579 -7.342021
v 2.441337 0.584152 -7.414023
v 2.441337 0.553294 -7.523740
v 2.441337 0.495006 -7.582026
v 2.441337 0.659582 -7.695172
v 2.441337 0.673297 -7.780889
v 2.441337 0.880530 -8.199836
v 2.441337 0.678434 -8.191049
v 2.441337 0.608140 -8.170547
v 2.441337 0.552490 -8.129542
v 2.441337 0.470480 -8.117827
v 2.441337 0.429475 -8.097325
v 2.441337 0.426546 -7.994813
v 2.441337 0.432404 -7.965524
v 1.441337 0.621867 -7.825461
v 1.441337 0.532722 -7.852891
v 1.441337 0.505292 -7.876891
v 1.441337 0.464148 -7.935178
v 1.441337 0.912748 -8.223268
v 1.441337 0.921535 -8.281846
v 1.441337 0.848312 -8.322850
v 1.441337 0.836596 -8.349210
v 1.441337 0.845383 -8.404859
v 1.441337 0.930322 -8.407788
v 1.441337 1.103129 -8.407788
v 1.441337 1.161707 -8.440007
v 1.441337 1.214428 -8.501515
v 1.441337 1.237859 -8.577668
v 1.441337 1.249575 -8.618672
v 1.441337 1.445813 -8.776834
v 1.441337 1.507320 -8.823697
v 1.441337 1.595188 -8.844199
v 1.441337 1.867579 -8.852986
v 1.441337 2.087248 -8.855916
v 1.441337 2.172187 -8.885205
v 1.441337 2.230766 -8.899850
v 1.441337 3.229530 -8.709470
v 1.441337 3.200240 -8.656749
v 1.441337 3.135804 -8.510303
v 1.441337 3.068439 -8.384358
v 1.441337 2.860485 -8.173476
v 1.441337 2.813622 -8.111968
v 1.441337 2.781404 -8.015313
v 1.441337 2.766759 -7.877654
v 1.441337 2.708181 -7.792716
v 1.441337 2.634958 -7.725350
v 1.441337 2.664247 -7.678487
v 1.441337 2.711110 -7.616979
v 1.441337 2.755044 -7.458817
v 1.441337 2.760901 -7.338731
v 1.441337 2.793120 -7.300654
v 1.441337 2.705252 -6.503985
v 1.441337 2.781404 -6.911107
v 1.441337 2.807764 -7.157138
v 1.441337 2.684749 -6.410256
v 1.441337 1.709416 -6.530343
v 1.441337 0.804377 -6.615281
v 1.441337 0.748728 -6.656285
v 1.441337 0.759014 -6.694001
v 1.441337 0.769300 -6.721431
v 1.441337 0.789872 -6.796861
v 1.441337 0.796729 -6.879149
v 1.441337 0.728156 -6.958009
v 1.441337 0.656154 -6.985438
v 1.441337 0.601295 -7.023154
v 1.441337 0.625296 -7.180873
v 1.441337 0.580723 -7.198016
v 1.441337 0.505292 -7.246018
v 1.441337 0.495006 -7.276875
v 1.441337 0.563580 -7.342021
v 1.441337 0.584152 -7.414023
v 1.441337 0.553294 -7.523740
v 1.441337 0.495006 -7.582026
v 1.441337 0.659582 -7.695172
v 1.441337 0.673297 -7.780889
v 1.441337 0.880530 -8.199836
v 1.441337 0.678434 -8.191049
v 1.441337 0.608140 -8.170547
v 1.441337 0.552490 -8.129542
v 1.441337 0.470480 -8.117827
v 1.441337 0.429475 -8.097325
v 1.441337 0.426546 -7.994813
v 1.441337 0.432404 -7.965524
vn 1.0000 -0.0000 -0.0000
vn -1.0000 -0.0000 -0.0000
vn -0.0000 -0.6549 0.7557
vn -0.0000 -0.2941 0.9558
vn -0.0000 -0.6585 0.7526
vn -0.0000 -0.8170 0.5767
vn -0.0000 -0.0434 -0.9991
vn -0.0000 -0.5882 -0.8087
vn -0.0000 -0.9889 -0.1483
vn -0.0000 -0.4886 0.8725
vn -0.0000 -0.9138 0.4061
vn -0.0000 -0.9878 -0.1560
vn -0.0000 -0.0345 -0.9994
vn -0.0000 -0.0000 -1.0000
vn -0.0000 -0.4819 -0.8762
vn -0.0000 -0.7593 -0.6508
vn -0.0000 -0.9558 -0.2941
vn -0.0000 -0.9615 -0.2747
vn -0.0000 -0.6275 -0.7786
vn -0.0000 -0.6060 -0.7954
vn -0.0000 -0.2272 -0.9738
vn -0.0000 -0.0322 -0.9995
vn -0.0000 -0.0133 -0.9999
vn -0.0000 -0.3260 -0.9454
vn -0.0000 -0.2425 -0.9701
vn -0.0000 0.1872 -0.9823
vn -0.0000 0.8742 0.4856
vn -0.0000 0.9153 0.4027
vn -0.0000 0.8818 0.4717
vn -0.0000 0.7120 0.7021
vn -0.0000 0.7954 0.6060
vn -0.0000 0.9487 0.3162
vn -0.0000 0.9944 0.1058
vn -0.0000 0.8232 0.5677
vn -0.0000 0.6771 0.7359
vn -0.0000 0.8480 -0.5300
vn -0.0000 0.7954 -0.6060
vn -0.0000 0.9635 -0.2676
vn -0.0000 0.9988 -0.0487
vn -0.0000 0.7634 -0.6459
vn -0.0000 0.9948 -0.1015
vn -0.0000 0.9769 0.2137
vn -0.0000 0.9830 0.1839
vn -0.0000 0.9943 0.1065
vn -0.0000 -0.1222 0.9925
vn -0.0000 -0.0934 0.9956
vn -0.0000 -0.5932 0.8051
vn -0.0000 -0.9648 -0.2631
vn -0.0000 -0.9363 -0.3511
vn -0.0000 -0.9965 -0.0830
vn -0.0000 -0.7546 0.6562
vn -0.0000 -0.3560 0.9345
vn -0.0000 -0.5665 0.8240
vn -0.0000 -0.9886 -0.1504
vn -0.0000 -0.3590 0.9333
vn -0.0000 -0.5369 0.8437
vn -0.0000 -0.9487 0.3162
vn -0.0000 -0.6888 -0.7250
vn -0.0000 -0.9627 0.2707
vn -0.0000 -0.7071 0.7071
vn -0.0000 -0.5665 -0.8240
vn -0.0000 -0.9874 -0.1580
vn -0.0000 -0.2800 -0.9600
vn -0.0000 -0.5932 -0.8051
vn -0.0000 -0.1414 -0.9900
vn -0.0000 -0.4472 -0.8944
vn -0.0000 -0.9996 -0.0286
vn -0.0000 -0.9806 0.1961
vn -0.0000 -0.6910 0.7228
vn 1.0000 0.0001 -0.0000
vn 1.0000 -0.0001 -0.0000
vt 0.000000 0.000000
s 0
f 62/1/1 5/1/1 23/1/1
f 134/1/2 137/1/2 70/1/2
f 61/1/3 70/1/3 1/1/3
f 1/1/4 71/1/4 2/1/4
f 2/1/5 72/1/5 3/1/5
f 3/1/6 73/1/6 4/1/6
f 63/1/7 131/1/7 62/1/7
f 62/1/8 74/1/8 5/1/8
f 5/1/9 75/1/9 6/1/9
f 6/1/10 76/1/10 7/1/10
f 7/1/11 77/1/11 8/1/11
f 8/1/12 78/1/12 9/1/12
f 9/1/13 79/1/13 10/1/13
f 10/1/14 80/1/14 11/1/14
f 11/1/15 81/1/15 12/1/15
f 12/1/16 82/1/16 13/1/16
f 13/1/17 83/1/17 14/1/17
f 14/1/18 84/1/18 15/1/18
f 15/1/19 85/1/19 16/1/19
f 16/1/20 86/1/20 17/1/20
f 17/1/21 87/1/21 18/1/21
f 18/1/22 88/1/22 19/1/22
f 19/1/23 89/1/23 20/1/23
f 20/1/24 90/1/24 21/1/24
f 21/1/25 91/1/25 22/1/25
f 22/1/26 92/1/26 23/1/26
f 23/1/27 93/1/27 24/1/27
f 24/1/28 94/1/28 25/1/28
f 25/1/29 95/1/29 26/1/29
f 26/1/30 96/1/30 27/1/30
f 27/1/31 97/1/31 28/1/31
f 28/1/32 98/1/32 29/1/32
f 29/1/33 99/1/33 30/1/33
f 30/1/34 100/1/34 31/1/34
f 31/1/35 101/1/35 32/1/35
f 32/1/36 102/1/36 33/1/36
f 33/1/37 103/1/37 34/1/37
f 34/1/38 104/1/38 35/1/38
f 35/1/39 105/1/39 36/1/39
f 36/1/40 106/1/40 37/1/40
f 37/1/41 109/1/41 40/1/41
f 38/1/42 110/1/42 41/1/42
f 39/1/43 107/1/43 38/1/43
f 40/1/44 108/1/44 39/1/44
f 41/1/45 111/1/45 42/1/45
f 42/1/46 112/1/46 43/1/46
f 43/1/47 113/1/47 44/1/47
f 44/1/48 114/1/48 45/1/48
f 45/1/49 115/1/49 46/1/49
f 46/1/48 116/1/48 47/1/48
f 47/1/50 117/1/50 48/1/50
f 48/1/51 118/1/51 49/1/51
f 49/1/52 119/1/52 50/1/52
f 50/1/53 120/1/53 51/1/53
f 51/1/54 121/1/54 52/1/54
f 52/1/55 122/1/55 53/1/55
f 53/1/56 123/1/56 54/1/56
f 54/1/57 124/1/57 55/1/57
f 55/1/58 125/1/58 56/1/58
f 56/1/18 126/1/18 57/1/18
f 57/1/59 127/1/59 58/1/59
f 58/1/60 128/1/60 59/1/60
f 59/1/61 129/1/61 60/1/61
f 60/1/62 130/1/62 61/1/62
f 64/1/63 132/1/63 63/1/63
f 65/1/64 133/1/64 64/1/64
f 66/1/65 134/1/65 65/1/65
f 67/1/66 135/1/66 66/1/66
f 68/1/67 136/1/67 67/1/67
f 69/1/68 137/1/68 68/1/68
f 4/1/69 138/1/69 69/1/69
f 42/1/1 43/1/1 44/1/1
f 44/1/70 45/1/70 46/1/70
f 42/1/1 44/1/1 46/1/1
f 38/1/1 41/1/1 42/1/1
f 40/1/1 39/1/1 38/1/1
f 36/1/1 37/1/1 40/1/1
f 34/1/1 35/1/1 36/1/1
f 33/1/1 34/1/1 36/1/1
f 36/1/1 40/1/1 38/1/1
f 38/1/1 42/1/1 46/1/1
f 38/1/1 46/1/1 47/1/1
f 33/1/1 36/1/1 38/1/1
f 30/1/1 31/1/1 32/1/1
f 32/1/1 33/1/1 38/1/1
f 38/1/1 47/1/1 48/1/1
f 49/1/1 50/1/1 51/1/1
f 38/1/1 48/1/1 49/1/1
f 29/1/1 30/1/1 32/1/1
f 32/1/1 38/1/1 49/1/1
f 49/1/1 51/1/1 52/1/1
f 52/1/1 53/1/1 54/1/1
f 54/1/1 55/1/1 56/1/1
f 52/1/1 54/1/1 56/1/1
f 32/1/1 49/1/1 52/1/1
f 28/1/1 29/1/1 32/1/1
f 25/1/1 26/1/1 27/1/1
f 28/1/1 32/1/1 52/1/1
f 24/1/1 25/1/1 27/1/1
f 27/1/1 28/1/1 52/1/1
f 52/1/1 56/1/1 57/1/1
f 58/1/1 59/1/1 60/1/1
f 27/1/1 52/1/1 57/1/1
f 57/1/1 58/1/1 60/1/1
f 27/1/1 57/1/1 60/1/1
f 23/1/71 24/1/71 27/1/71
f 21/1/1 22/1/1 23/1/1
f 18/1/1 19/1/1 20/1/1
f 20/1/1 21/1/1 23/1/1
f 23/1/1 27/1/1 60/1/1
f 23/1/1 60/1/1 61/1/1
f 18/1/1 20/1/1 23/1/1
f 16/1/1 17/1/1 18/1/1
f 14/1/1 15/1/1 16/1/1
f 13/1/1 14/1/1 16/1/1
f 16/1/1 18/1/1 23/1/1
f 23/1/1 61/1/1 1/1/1
f 1/1/1 2/1/1 3/1/1
f 4/1/1 69/1/1 68/1/1
f 1/1/1 3/1/1 4/1/1
f 13/1/1 16/1/1 23/1/1
f 12/1/1 13/1/1 23/1/1
f 23/1/1 1/1/1 4/1/1
f 4/1/1 68/1/1 67/1/1
f 67/1/1 66/1/1 65/1/1
f 65/1/1 64/1/1 63/1/1
f 65/1/1 63/1/1 62/1/1
f 4/1/1 67/1/1 65/1/1
f 11/1/1 12/1/1 23/1/1
f 9/1/1 10/1/1 11/1/1
f 7/1/1 8/1/1 9/1/1
f 6/1/1 7/1/1 9/1/1
f 6/1/1 9/1/1 11/1/1
f 5/1/1 6/1/1 11/1/1
f 4/1/1 65/1/1 62/1/1
f 5/1/1 11/1/1 23/1/1
f 23/1/1 4/1/1 62/1/1
f 111/1/2 110/1/2 107/1/2
f 107/1/2 108/1/2 109/1/2
f 109/1/2 106/1/2 105/1/2
f 105/1/2 104/1/2 103/1/2
f 105/1/2 103/1/2 102/1/2
f 107/1/2 109/1/2 105/1/2
f 112/1/2 111/1/2 107/1/2
f 114/1/2 113/1/2 112/1/2
f 115/1/2 114/1/2 112/1/2
f 112/1/2 107/1/2 105/1/2
f 105/1/2 102/1/2 101/1/2
f 101/1/2 100/1/2 99/1/2
f 101/1/2 99/1/2 98/1/2
f 112/1/2 105/1/2 101/1/2
f 116/1/2 115/1/2 112/1/2
f 117/1/2 116/1/2 112/1/2
f 112/1/2 101/1/2 98/1/2
f 112/1/2 98/1/2 97/1/2
f 117/1/2 112/1/2 97/1/2
f 96/1/2 95/1/2 94/1/2
f 117/1/2 97/1/2 96/1/2
f 120/1/2 119/1/2 118/1/2
f 118/1/2 117/1/2 96/1/2
f 96/1/2 94/1/2 93/1/2
f 93/1/2 92/1/2 91/1/2
f 91/1/2 90/1/2 89/1/2
f 89/1/2 88/1/2 87/1/2
f 87/1/2 86/1/2 85/1/2
f 85/1/2 84/1/2 83/1/2
f 85/1/2 83/1/2 82/1/2
f 89/1/2 87/1/2 85/1/2
f 93/1/2 91/1/2 89/1/2
f 118/1/2 96/1/2 93/1/2
f 121/1/2 120/1/2 118/1/2
f 123/1/2 122/1/2 121/1/2
f 125/1/2 124/1/2 123/1/2
f 125/1/2 123/1/2 121/1/2
f 121/1/2 118/1/2 93/1/2
f 93/1/2 89/1/2 85/1/2
f 93/1/2 85/1/2 82/1/2
f 125/1/2 121/1/2 93/1/2
f 126/1/2 125/1/2 93/1/2
f 93/1/2 82/1/2 81/1/2
f 80/1/2 79/1/2 78/1/2
f 93/1/2 81/1/2 80/1/2
f 127/1/2 126/1/2 93/1/2
f 129/1/2 128/1/2 127/1/2
f 129/1/2 127/1/2 93/1/2
f 80/1/2 78/1/2 77/1/2
f 129/1/2 93/1/2 80/1/2
f 130/1/2 129/1/2 80/1/2
f 80/1/2 77/1/2 76/1/2
f 80/1/2 76/1/2 75/1/2
f 70/1/2 130/1/2 80/1/2
f 72/1/2 71/1/2 70/1/2
f 137/1/2 138/1/2 73/1/2
f 73/1/2 72/1/2 70/1/2
f 80/1/2 75/1/2 74/1/2
f 131/1/2 132/1/2 133/1/2
f 70/1/2 80/1/2 74/1/2
f 131/1/2 133/1/2 134/1/2
f 70/1/2 74/1/2 131/1/2
f 137/1/2 73/1/2 70/1/2
f 135/1/2 136/1/2 137/1/2
f 70/1/2 131/1/2 134/1/2
f 134/1/2 135/1/2 137/1/2
f 61/1/3 130/1/3 70/1/3
f 1/1/4 70/1/4 71/1/4
f 2/1/5 71/1/5 72/1/5
f 3/1/6 72/1/6 73/1/6
f 63/1/7 132/1/7 131/1/7
f 62/1/8 131/1/8 74/1/8
f 5/1/9 74/1/9 75/1/9
f 6/1/10 75/1/10 76/1/10
f 7/1/11 76/1/11 77/1/11
f 8/1/12 77/1/12 78/1/12
f 9/1/13 78/1/13 79/1/13
f 10/1/14 79/1/14 80/1/14
f 11/1/15 80/1/15 81/1/15
f 12/1/16 81/1/16 82/1/16
f 13/1/17 82/1/17 83/1/17
f 14/1/18 83/1/18 84/1/18
f 15/1/19 84/1/19 85/1/19
f 16/1/20 85/1/20 86/1/20
f 17/1/21 86/1/21 87/1/21
f 18/1/22 87/1/22 88/1/22
f 19/1/23 88/1/23 89/1/23
f 20/1/24 89/1/24 90/1/24
f 21/1/25 90/1/25 91/1/25
f 22/1/26 91/1/26 92/1/26
f 23/1/27 92/1/27 93/1/27
f 24/1/28 93/1/28 94/1/28
f 25/1/29 94/1/29 95/1/29
f 26/1/30 95/1/30 96/1/30
f 27/1/31 96/1/31 97/1/31
f 28/1/32 97/1/32 98/1/32
f 29/1/33 98/1/33 99/1/33
f 30/1/34 99/1/34 100/1/34
f 31/1/35 100/1/35 101/1/35
f 32/1/36 101/1/36 102/1/36
f 33/1/37 102/1/37 103/1/37
f 34/1/38 103/1/38 104/1/38
f 35/1/39 104/1/39 105/1/39
f 36/1/40 105/1/40 106/1/40
f 37/1/41 106/1/41 109/1/41
f 38/1/42 107/1/42 110/1/42
f 39/1/43 108/1/43 107/1/43
f 40/1/44 109/1/44 108/1/44
f 41/1/45 110/1/45 111/1/45
f 42/1/46 111/1/46 112/1/46
f 43/1/47 112/1/47 113/1/47
f 44/1/48 113/1/48 114/1/48
f 45/1/49 114/1/49 115/1/49
f 46/1/48 115/1/48 116/1/48
f 47/1/50 116/1/50 117/1/50
f 48/1/51 117/1/51 118/1/51
f 49/1/52 118/1/52 119/1/52
f 50/1/53 119/1/53 120/1/53
f 51/1/54 120/1/54 121/1/54
f 52/1/55 121/1/55 122/1/55
f 53/1/56 122/1/56 123/1/56
f 54/1/57 123/1/57 124/1/57
f 55/1/58 124/1/58 125/1/58
f 56/1/18 125/1/18 126/1/18
f 57/1/59 126/1/59 127/1/59
f 58/1/60 127/1/60 128/1/60
f 59/1/61 128/1/61 129/1/61
f 60/1/62 129/1/62 130/1/62
f 64/1/63 133/1/63 132/1/63
f 65/1/64 134/1/64 133/1/64
f 66/1/65 135/1/65 134/1/65
f 67/1/66 136/1/66 135/1/66
f 68/1/67 137/1/67 136/1/67
f 69/1/68 138/1/68 137/1/68
f 4/1/69 73/1/69 138/1/69
