# Blender 5.2.0 LTS
# www.blender.org
mtllib Oregon.mtl
o Plane.050
v 1.441337 5.163734 15.159658
v 1.441337 5.491026 15.115694
v 1.441337 5.613150 15.091269
v 1.441337 5.686424 15.008224
v 1.441337 6.106530 14.739552
v 1.441337 6.507096 14.544155
v 1.441337 7.117715 14.319447
v 1.441337 7.718564 14.099625
v 1.441337 7.801608 13.997040
v 1.441337 7.806493 13.850492
v 1.441337 7.757644 13.821182
v 1.441337 7.733219 13.743023
v 1.441337 7.567131 13.576935
v 1.441337 7.234954 13.601359
v 1.441337 7.127485 13.459696
v 1.441337 7.137255 12.907696
v 1.441337 7.015131 12.687874
v 1.441337 7.034671 12.629254
v 1.441337 7.059095 12.546209
v 1.441337 6.956511 12.394776
v 1.441337 7.020016 12.331272
v 1.441337 7.000476 11.725538
v 1.441337 6.770884 10.665504
v 1.441337 6.707379 10.577575
v 1.441337 6.555138 10.444977
v 1.441337 6.358697 10.464621
v 1.441337 5.995281 10.729816
v 1.441337 5.877417 10.729816
v 1.441337 5.867595 10.837858
v 1.441337 5.734997 10.985189
v 1.441337 5.622044 10.990101
v 1.441337 5.461844 10.905785
v 1.441337 5.326940 10.888922
v 1.441337 5.192036 10.964806
v 1.441337 3.859854 11.318930
v 1.441337 4.247056 12.912243
v 1.441337 4.475847 13.788464
v 1.441337 4.685166 14.455366
v 1.441337 4.918826 15.156343
v 2.441337 5.163734 15.159658
v 2.441337 5.491026 15.115694
v 2.441337 5.613150 15.091269
v 2.441337 5.686424 15.008224
v 2.441337 6.106530 14.739552
v 2.441337 6.507096 14.544155
v 2.441337 7.117715 14.319447
v 2.441337 7.718564 14.099625
v 2.441337 7.801608 13.997040
v 2.441337 7.806493 13.850492
v 2.441337 7.757644 13.821182
v 2.441337 7.733219 13.743023
v 2.441337 7.567131 13.576935
v 2.441337 7.234954 13.601359
v 2.441337 7.127485 13.459696
v 2.441337 7.137255 12.907696
v 2.441337 7.015131 12.687874
v 2.441337 7.034671 12.629254
v 2.441337 7.059095 12.546209
v 2.441337 6.956511 12.394776
v 2.441337 7.020016 12.331272
v 2.441337 7.000476 11.725538
v 2.441337 6.770884 10.665504
v 2.441337 6.707379 10.577575
v 2.441337 6.555138 10.444977
v 2.441337 6.358697 10.464621
v 2.441337 5.995281 10.729816
v 2.441337 5.877417 10.729816
v 2.441337 5.867595 10.837858
v 2.441337 5.734997 10.985189
v 2.441337 5.622044 10.990101
v 2.441337 5.461844 10.905785
v 2.441337 5.326940 10.888922
v 2.441337 5.192036 10.964806
v 2.441337 3.859854 11.318930
v 2.441337 4.247056 12.912243
v 2.441337 4.475847 13.788464
v 2.441337 4.685166 14.455366
v 2.441337 4.918826 15.156343
vn -1.0000 -0.0000 -0.0000
vn 1.0000 -0.0000 -0.0000
vn -0.0000 -0.0135 0.9999
vn -0.0000 0.1331 0.9911
vn -0.0000 0.1961 0.9806
vn -0.0000 0.7498 0.6616
vn -0.0000 0.5388 0.8424
vn -0.0000 0.4384 0.8988
vn -0.0000 0.3454 0.9385
vn -0.0000 0.3436 0.9391
vn -0.0000 0.7772 0.6292
vn -0.0000 0.9994 0.0333
vn -0.0000 0.5145 -0.8575
vn -0.0000 0.9545 -0.2983
vn -0.0000 0.7071 -0.7071
vn -0.0000 -0.0733 -0.9973
vn -0.0000 0.7967 -0.6044
vn -0.0000 0.9998 0.0177
vn -0.0000 0.8742 -0.4856
vn -0.0000 0.9487 0.3162
vn -0.0000 0.9594 0.2822
vn -0.0000 0.8279 -0.5608
vn -0.0000 0.7071 0.7071
vn -0.0000 0.9995 -0.0322
vn -0.0000 0.9773 -0.2117
vn -0.0000 0.8107 -0.5855
vn -0.0000 0.6568 -0.7541
vn -0.0000 -0.0995 -0.9950
vn -0.0000 -0.5895 -0.8078
vn -0.0000 -0.0000 -1.0000
vn -0.0000 -0.9959 -0.0905
vn -0.0000 -0.7433 -0.6690
vn -0.0000 -0.0434 -0.9991
vn -0.0000 0.4657 -0.8849
vn -0.0000 0.1240 -0.9923
vn -0.0000 -0.4903 -0.8716
vn -0.0000 -0.2569 -0.9664
vn -0.0000 -0.9717 0.2361
vn -0.0000 -0.9676 0.2526
vn -0.0000 -0.9541 0.2995
vn -0.0000 -0.9487 0.3162
vt 0.000000 0.000000
s 0
f 17/1/1 20/1/1 37/1/1
f 54/1/2 53/1/2 46/1/2
f 39/1/3 40/1/3 1/1/3
f 1/1/4 41/1/4 2/1/4
f 2/1/5 42/1/5 3/1/5
f 3/1/6 43/1/6 4/1/6
f 4/1/7 44/1/7 5/1/7
f 5/1/8 45/1/8 6/1/8
f 6/1/9 46/1/9 7/1/9
f 7/1/10 47/1/10 8/1/10
f 8/1/11 48/1/11 9/1/11
f 9/1/12 49/1/12 10/1/12
f 10/1/13 50/1/13 11/1/13
f 11/1/14 51/1/14 12/1/14
f 12/1/15 52/1/15 13/1/15
f 13/1/16 53/1/16 14/1/16
f 14/1/17 54/1/17 15/1/17
f 15/1/18 55/1/18 16/1/18
f 16/1/19 56/1/19 17/1/19
f 17/1/20 57/1/20 18/1/20
f 18/1/21 58/1/21 19/1/21
f 19/1/22 59/1/22 20/1/22
f 20/1/23 60/1/23 21/1/23
f 21/1/24 61/1/24 22/1/24
f 22/1/25 62/1/25 23/1/25
f 23/1/26 63/1/26 24/1/26
f 24/1/27 64/1/27 25/1/27
f 25/1/28 65/1/28 26/1/28
f 26/1/29 66/1/29 27/1/29
f 27/1/30 67/1/30 28/1/30
f 28/1/31 68/1/31 29/1/31
f 29/1/32 69/1/32 30/1/32
f 30/1/33 70/1/33 31/1/33
f 31/1/34 71/1/34 32/1/34
f 32/1/35 72/1/35 33/1/35
f 33/1/36 73/1/36 34/1/36
f 34/1/37 74/1/37 35/1/37
f 35/1/38 75/1/38 36/1/38
f 36/1/39 76/1/39 37/1/39
f 37/1/40 77/1/40 38/1/40
f 38/1/41 78/1/41 39/1/41
f 38/1/1 39/1/1 1/1/1
f 1/1/1 2/1/1 3/1/1
f 1/1/1 3/1/1 4/1/1
f 37/1/1 38/1/1 1/1/1
f 35/1/1 36/1/1 37/1/1
f 32/1/1 33/1/1 34/1/1
f 34/1/1 35/1/1 37/1/1
f 37/1/1 1/1/1 4/1/1
f 37/1/1 4/1/1 5/1/1
f 32/1/1 34/1/1 37/1/1
f 31/1/1 32/1/1 37/1/1
f 37/1/1 5/1/1 6/1/1
f 7/1/1 8/1/1 9/1/1
f 37/1/1 6/1/1 7/1/1
f 30/1/1 31/1/1 37/1/1
f 27/1/1 28/1/1 29/1/1
f 29/1/1 30/1/1 37/1/1
f 37/1/1 7/1/1 9/1/1
f 9/1/1 10/1/1 11/1/1
f 11/1/1 12/1/1 13/1/1
f 11/1/1 13/1/1 14/1/1
f 37/1/1 9/1/1 11/1/1
f 27/1/1 29/1/1 37/1/1
f 25/1/1 26/1/1 27/1/1
f 23/1/1 24/1/1 25/1/1
f 21/1/1 22/1/1 23/1/1
f 18/1/1 19/1/1 20/1/1
f 20/1/1 21/1/1 23/1/1
f 23/1/1 25/1/1 27/1/1
f 37/1/1 11/1/1 14/1/1
f 15/1/1 16/1/1 17/1/1
f 37/1/1 14/1/1 15/1/1
f 23/1/1 27/1/1 37/1/1
f 17/1/1 18/1/1 20/1/1
f 20/1/1 23/1/1 37/1/1
f 37/1/1 15/1/1 17/1/1
f 40/1/2 78/1/2 77/1/2
f 77/1/2 76/1/2 75/1/2
f 75/1/2 74/1/2 73/1/2
f 73/1/2 72/1/2 71/1/2
f 73/1/2 71/1/2 70/1/2
f 77/1/2 75/1/2 73/1/2
f 41/1/2 40/1/2 77/1/2
f 43/1/2 42/1/2 41/1/2
f 44/1/2 43/1/2 41/1/2
f 41/1/2 77/1/2 73/1/2
f 41/1/2 73/1/2 70/1/2
f 44/1/2 41/1/2 70/1/2
f 44/1/2 70/1/2 69/1/2
f 45/1/2 44/1/2 69/1/2
f 68/1/2 67/1/2 66/1/2
f 45/1/2 69/1/2 68/1/2
f 48/1/2 47/1/2 46/1/2
f 46/1/2 45/1/2 68/1/2
f 68/1/2 66/1/2 65/1/2
f 65/1/2 64/1/2 63/1/2
f 63/1/2 62/1/2 61/1/2
f 61/1/2 60/1/2 59/1/2
f 59/1/2 58/1/2 57/1/2
f 56/1/2 55/1/2 54/1/2
f 59/1/2 57/1/2 56/1/2
f 63/1/2 61/1/2 59/1/2
f 68/1/2 65/1/2 63/1/2
f 49/1/2 48/1/2 46/1/2
f 52/1/2 51/1/2 50/1/2
f 50/1/2 49/1/2 46/1/2
f 46/1/2 68/1/2 63/1/2
f 59/1/2 56/1/2 54/1/2
f 46/1/2 63/1/2 59/1/2
f 52/1/2 50/1/2 46/1/2
f 53/1/2 52/1/2 46/1/2
f 46/1/2 59/1/2 54/1/2
f 39/1/3 78/1/3 40/1/3
f 1/1/4 40/1/4 41/1/4
f 2/1/5 41/1/5 42/1/5
f 3/1/6 42/1/6 43/1/6
f 4/1/7 43/1/7 44/1/7
f 5/1/8 44/1/8 45/1/8
f 6/1/9 45/1/9 46/1/9
f 7/1/10 46/1/10 47/1/10
f 8/1/11 47/1/11 48/1/11
f 9/1/12 48/1/12 49/1/12
f 10/1/13 49/1/13 50/1/13
f 11/1/14 50/1/14 51/1/14
f 12/1/15 51/1/15 52/1/15
f 13/1/16 52/1/16 53/1/16
f 14/1/17 53/1/17 54/1/17
f 15/1/18 54/1/18 55/1/18
f 16/1/19 55/1/19 56/1/19
f 17/1/20 56/1/20 57/1/20
f 18/1/21 57/1/21 58/1/21
f 19/1/22 58/1/22 59/1/22
f 20/1/23 59/1/23 60/1/23
f 21/1/24 60/1/24 61/1/24
f 22/1/25 61/1/25 62/1/25
f 23/1/26 62/1/26 63/1/26
f 24/1/27 63/1/27 64/1/27
f 25/1/28 64/1/28 65/1/28
f 26/1/29 65/1/29 66/1/29
f 27/1/30 66/1/30 67/1/30
f 28/1/31 67/1/31 68/1/31
f 29/1/32 68/1/32 69/1/32
f 30/1/33 69/1/33 70/1/33
f 31/1/34 70/1/34 71/1/34
f 32/1/35 71/1/35 72/1/35
f 33/1/36 72/1/36 73/1/36
f 34/1/37 73/1/37 74/1/37
f 35/1/38 74/1/38 75/1/38
f 36/1/39 75/1/39 76/1/39
f 37/1/40 76/1/40 77/1/40
f 38/1/41 77/1/41 78/1/41
