# Blender 5.2.0 LTS
# www.blender.org
mtllib South Carolina.mtl
o Plane.004
v 2.441337 -1.970144 -8.492763
v 2.441337 -2.049644 -8.319734
v 2.441337 -2.124468 -8.170087
v 2.441336 -4.145542 -9.559487
v 2.441336 -4.079783 -9.546962
v 2.441336 -3.992105 -9.531304
v 2.441336 -3.923215 -9.465545
v 2.441336 -3.819880 -9.368472
v 2.441336 -3.713413 -9.312108
v 2.441336 -3.650785 -9.255744
v 2.441336 -3.588158 -9.255744
v 2.441336 -3.494217 -9.211905
v 2.441336 -3.431589 -9.143016
v 2.441336 -3.425326 -9.092914
v 2.441336 -3.425326 -9.033418
v 2.441336 -3.428458 -8.983315
v 2.441336 -3.409669 -8.961396
v 2.441336 -3.347042 -8.948871
v 2.441336 -3.231181 -8.917558
v 2.441336 -3.146634 -8.851798
v 2.441337 -2.867942 -8.410275
v 2.441337 -2.673797 -8.328860
v 2.441337 -2.570461 -8.241181
v 2.441337 -2.554804 -8.194211
v 2.441337 -2.536016 -8.115926
v 2.441337 -2.426418 -7.975015
v 2.441337 -2.335608 -7.887336
v 2.441337 -2.175909 -8.025117
v 2.441337 -2.586976 -10.915792
v 2.441337 -2.647028 -10.832643
v 2.441337 -2.734796 -10.721778
v 2.441337 -2.877995 -10.629392
v 2.441336 -2.956525 -10.620152
v 2.441336 -3.099725 -10.597056
v 2.441336 -3.242924 -10.597056
v 2.441336 -3.344550 -10.523147
v 2.441336 -3.755672 -10.075068
v 2.441336 -3.751053 -9.913392
v 2.441336 -3.889634 -9.918012
v 2.441336 -3.982021 -9.908772
v 2.441336 -4.162175 -9.733237
v 2.441337 -1.928056 -8.642409
v 2.441337 -1.876615 -8.894938
v 2.441337 -1.871939 -9.231645
v 2.441337 -1.876615 -9.334527
v 2.441337 -1.923380 -9.381291
v 2.441337 -2.040291 -9.428056
v 2.441337 -2.077703 -9.428056
v 2.441337 -2.049644 -9.783467
v 2.441337 -2.030939 -9.956496
v 2.441337 -2.002880 -10.035996
v 2.441337 -2.002880 -10.106143
v 2.441337 -2.395702 -10.662642
v 1.441337 -1.970144 -8.492763
v 1.441337 -2.049644 -8.319734
v 1.441337 -2.124468 -8.170087
v 1.441337 -4.145542 -9.559487
v 1.441337 -4.079783 -9.546962
v 1.441337 -3.992105 -9.531304
v 1.441337 -3.923215 -9.465545
v 1.441337 -3.819880 -9.368472
v 1.441337 -3.713413 -9.312108
v 1.441337 -3.650785 -9.255744
v 1.441337 -3.588158 -9.255744
v 1.441337 -3.494217 -9.211905
v 1.441337 -3.431589 -9.143016
v 1.441337 -3.425326 -9.092914
v 1.441337 -3.425326 -9.033418
v 1.441337 -3.428458 -8.983315
v 1.441337 -3.409669 -8.961396
v 1.441337 -3.347042 -8.948871
v 1.441337 -3.231181 -8.917558
v 1.441337 -3.146634 -8.851798
v 1.441337 -2.867942 -8.410275
v 1.441337 -2.673797 -8.328860
v 1.441337 -2.570461 -8.241181
v 1.441337 -2.554804 -8.194211
v 1.441337 -2.536016 -8.115926
v 1.441337 -2.426418 -7.975015
v 1.441337 -2.335608 -7.887336
v 1.441337 -2.175909 -8.025117
v 1.441337 -2.586976 -10.915792
v 1.441337 -2.647028 -10.832643
v 1.441337 -2.734796 -10.721778
v 1.441337 -2.877995 -10.629392
v 1.441337 -2.956525 -10.620152
v 1.441337 -3.099725 -10.597056
v 1.441337 -3.242924 -10.597056
v 1.441337 -3.344550 -10.523147
v 1.441337 -3.755672 -10.075068
v 1.441337 -3.751053 -9.913392
v 1.441337 -3.889634 -9.918012
v 1.441337 -3.982021 -9.908772
v 1.441337 -4.162175 -9.733237
v 1.441337 -1.928056 -8.642409
v 1.441337 -1.876615 -8.894938
v 1.441337 -1.871939 -9.231645
v 1.441337 -1.876615 -9.334527
v 1.441337 -1.923380 -9.381291
v 1.441337 -2.040291 -9.428056
v 1.441337 -2.077703 -9.428056
v 1.441337 -2.049644 -9.783467
v 1.441337 -2.030939 -9.956496
v 1.441337 -2.002880 -10.035996
v 1.441337 -2.002880 -10.106143
v 1.441337 -2.395702 -10.662642
vn 1.0000 -0.0000 -0.0000
vn -1.0000 -0.0000 -0.0000
vn -0.0000 0.9990 -0.0454
vn -0.0000 0.9999 0.0139
vn -0.0000 0.9799 0.1996
vn -0.0000 0.9627 0.2707
vn -0.0000 0.9087 0.4175
vn -0.0000 0.8944 0.4472
vn -0.0000 0.9424 0.3344
vn -0.0000 -0.9954 0.0953
vn -0.0000 -0.1871 0.9823
vn -0.0000 -0.1758 0.9844
vn -0.0000 -0.6905 0.7234
vn -0.0000 -0.6847 0.7288
vn -0.0000 -0.4679 0.8838
vn -0.0000 -0.6690 0.7433
vn -0.0000 -0.0000 1.0000
vn -0.0000 -0.4229 0.9062
vn -0.0000 -0.7399 0.6727
vn -0.0000 -0.9923 0.1240
vn -0.0000 -1.0000 -0.0000
vn -0.0000 -0.9981 -0.0624
vn -0.0000 -0.7592 0.6508
vn -0.0000 -0.1961 0.9806
vn -0.0000 -0.2609 0.9654
vn -0.0000 -0.6139 0.7893
vn -0.0000 -0.8456 0.5338
vn -0.0000 -0.3867 0.9222
vn -0.0000 -0.6470 0.7625
vn -0.0000 -0.9487 0.3162
vn -0.0000 -0.9724 0.2334
vn -0.0000 -0.7894 0.6139
vn -0.0000 -0.6946 0.7194
vn -0.0000 0.6532 0.7572
vn -0.0000 -0.8107 -0.5855
vn -0.0000 -0.7840 -0.6207
vn -0.0000 -0.5421 -0.8403
vn -0.0000 -0.1168 -0.9931
vn -0.0000 -0.1592 -0.9872
vn -0.0000 -0.0000 -1.0000
vn -0.0000 -0.5882 -0.8087
vn -0.0000 -0.7368 -0.6761
vn -0.0000 -0.9996 0.0286
vn -0.0000 0.0333 -0.9994
vn -0.0000 -0.0995 -0.9950
vn -0.0000 -0.6979 -0.7162
vn -0.0000 0.7071 -0.7071
vn -0.0000 0.3714 -0.9285
vn -0.0000 0.9969 0.0787
vn -0.0000 0.9942 0.1075
vn -0.0000 0.9430 0.3328
vn -0.0000 1.0000 -0.0000
vn -0.0000 0.8170 -0.5767
vn -0.0000 0.7979 -0.6028
vn -1.0000 0.0003 -0.0000
vt 0.000000 0.000000
s 0
f 48/1/1 42/1/1 3/1/1
f 76/1/2 80/1/2 98/1/2
f 45/1/3 97/1/3 44/1/3
f 44/1/4 96/1/4 43/1/4
f 43/1/5 95/1/5 42/1/5
f 42/1/6 54/1/6 1/1/6
f 1/1/7 55/1/7 2/1/7
f 2/1/8 56/1/8 3/1/8
f 3/1/9 81/1/9 28/1/9
f 4/1/10 94/1/10 41/1/10
f 5/1/11 57/1/11 4/1/11
f 6/1/12 58/1/12 5/1/12
f 7/1/13 59/1/13 6/1/13
f 8/1/14 60/1/14 7/1/14
f 9/1/15 61/1/15 8/1/15
f 10/1/16 62/1/16 9/1/16
f 11/1/17 63/1/17 10/1/17
f 12/1/18 64/1/18 11/1/18
f 13/1/19 65/1/19 12/1/19
f 14/1/20 66/1/20 13/1/20
f 15/1/21 67/1/21 14/1/21
f 16/1/22 68/1/22 15/1/22
f 17/1/23 69/1/23 16/1/23
f 18/1/24 70/1/24 17/1/24
f 19/1/25 71/1/25 18/1/25
f 20/1/26 72/1/26 19/1/26
f 21/1/27 73/1/27 20/1/27
f 22/1/28 74/1/28 21/1/28
f 23/1/29 75/1/29 22/1/29
f 24/1/30 76/1/30 23/1/30
f 25/1/31 77/1/31 24/1/31
f 26/1/32 78/1/32 25/1/32
f 27/1/33 79/1/33 26/1/33
f 28/1/34 80/1/34 27/1/34
f 30/1/35 82/1/35 29/1/35
f 31/1/36 83/1/36 30/1/36
f 32/1/37 84/1/37 31/1/37
f 33/1/38 85/1/38 32/1/38
f 34/1/39 86/1/39 33/1/39
f 35/1/40 87/1/40 34/1/40
f 36/1/41 88/1/41 35/1/41
f 37/1/42 89/1/42 36/1/42
f 38/1/43 90/1/43 37/1/43
f 39/1/44 91/1/44 38/1/44
f 40/1/45 92/1/45 39/1/45
f 41/1/46 93/1/46 40/1/46
f 46/1/47 98/1/47 45/1/47
f 47/1/48 99/1/48 46/1/48
f 48/1/40 100/1/40 47/1/40
f 49/1/49 101/1/49 48/1/49
f 50/1/50 102/1/50 49/1/50
f 51/1/51 103/1/51 50/1/51
f 52/1/52 104/1/52 51/1/52
f 53/1/53 105/1/53 52/1/53
f 29/1/54 106/1/54 53/1/54
f 41/1/1 40/1/1 39/1/1
f 38/1/1 37/1/1 36/1/1
f 41/1/1 39/1/1 38/1/1
f 5/1/1 4/1/1 41/1/1
f 8/1/1 7/1/1 6/1/1
f 6/1/1 5/1/1 41/1/1
f 38/1/1 36/1/1 35/1/1
f 6/1/1 41/1/1 38/1/1
f 9/1/1 8/1/1 6/1/1
f 11/1/1 10/1/1 9/1/1
f 11/1/1 9/1/1 6/1/1
f 6/1/1 38/1/1 35/1/1
f 34/1/1 33/1/1 32/1/1
f 6/1/1 35/1/1 34/1/1
f 12/1/1 11/1/1 6/1/1
f 12/1/1 6/1/1 34/1/1
f 12/1/1 34/1/1 32/1/1
f 13/1/1 12/1/1 32/1/1
f 13/1/1 32/1/1 31/1/1
f 14/1/1 13/1/1 31/1/1
f 30/1/1 29/1/1 53/1/1
f 14/1/1 31/1/1 30/1/1
f 17/1/1 16/1/1 15/1/1
f 15/1/1 14/1/1 30/1/1
f 30/1/1 53/1/1 52/1/1
f 52/1/1 51/1/1 50/1/1
f 30/1/1 52/1/1 50/1/1
f 17/1/1 15/1/1 30/1/1
f 18/1/1 17/1/1 30/1/1
f 30/1/1 50/1/1 49/1/1
f 48/1/1 47/1/1 46/1/1
f 30/1/1 49/1/1 48/1/1
f 19/1/1 18/1/1 30/1/1
f 22/1/1 21/1/1 20/1/1
f 20/1/1 19/1/1 30/1/1
f 48/1/1 46/1/1 45/1/1
f 20/1/1 30/1/1 48/1/1
f 23/1/1 22/1/1 20/1/1
f 26/1/1 25/1/1 24/1/1
f 23/1/1 20/1/1 48/1/1
f 26/1/1 24/1/1 23/1/1
f 28/1/1 27/1/1 26/1/1
f 1/1/1 2/1/1 3/1/1
f 3/1/1 28/1/1 26/1/1
f 26/1/1 23/1/1 48/1/1
f 48/1/1 45/1/1 44/1/1
f 44/1/1 43/1/1 42/1/1
f 42/1/1 1/1/1 3/1/1
f 3/1/1 26/1/1 48/1/1
f 48/1/1 44/1/1 42/1/1
f 92/1/2 93/1/2 94/1/2
f 94/1/2 57/1/2 58/1/2
f 59/1/55 60/1/55 61/1/55
f 94/1/2 58/1/2 59/1/2
f 91/1/2 92/1/2 94/1/2
f 89/1/2 90/1/2 91/1/2
f 87/1/2 88/1/2 89/1/2
f 85/1/2 86/1/2 87/1/2
f 85/1/2 87/1/2 89/1/2
f 91/1/2 94/1/2 59/1/2
f 85/1/2 89/1/2 91/1/2
f 84/1/2 85/1/2 91/1/2
f 91/1/2 59/1/2 61/1/2
f 62/1/2 63/1/2 64/1/2
f 91/1/2 61/1/2 62/1/2
f 84/1/2 91/1/2 62/1/2
f 84/1/2 62/1/2 64/1/2
f 106/1/2 82/1/2 83/1/2
f 83/1/2 84/1/2 64/1/2
f 83/1/2 64/1/2 65/1/2
f 105/1/2 106/1/2 83/1/2
f 103/1/2 104/1/2 105/1/2
f 103/1/2 105/1/2 83/1/2
f 83/1/2 65/1/2 66/1/2
f 83/1/2 66/1/2 67/1/2
f 102/1/2 103/1/2 83/1/2
f 99/1/2 100/1/2 101/1/2
f 101/1/2 102/1/2 83/1/2
f 83/1/2 67/1/2 68/1/2
f 68/1/2 69/1/2 70/1/2
f 68/1/2 70/1/2 71/1/2
f 101/1/2 83/1/2 68/1/2
f 98/1/2 99/1/2 101/1/2
f 96/1/2 97/1/2 98/1/2
f 54/1/2 95/1/2 96/1/2
f 56/1/2 55/1/2 54/1/2
f 80/1/2 81/1/2 56/1/2
f 78/1/2 79/1/2 80/1/2
f 77/1/2 78/1/2 80/1/2
f 80/1/2 56/1/2 54/1/2
f 54/1/2 96/1/2 98/1/2
f 98/1/2 101/1/2 68/1/2
f 68/1/2 71/1/2 72/1/2
f 73/1/2 74/1/2 75/1/2
f 98/1/2 68/1/2 72/1/2
f 73/1/2 75/1/2 76/1/2
f 98/1/2 72/1/2 73/1/2
f 80/1/2 54/1/2 98/1/2
f 76/1/2 77/1/2 80/1/2
f 98/1/2 73/1/2 76/1/2
f 45/1/3 98/1/3 97/1/3
f 44/1/4 97/1/4 96/1/4
f 43/1/5 96/1/5 95/1/5
f 42/1/6 95/1/6 54/1/6
f 1/1/7 54/1/7 55/1/7
f 2/1/8 55/1/8 56/1/8
f 3/1/9 56/1/9 81/1/9
f 4/1/10 57/1/10 94/1/10
f 5/1/11 58/1/11 57/1/11
f 6/1/12 59/1/12 58/1/12
f 7/1/13 60/1/13 59/1/13
f 8/1/14 61/1/14 60/1/14
f 9/1/15 62/1/15 61/1/15
f 10/1/16 63/1/16 62/1/16
f 11/1/17 64/1/17 63/1/17
f 12/1/18 65/1/18 64/1/18
f 13/1/19 66/1/19 65/1/19
f 14/1/20 67/1/20 66/1/20
f 15/1/21 68/1/21 67/1/21
f 16/1/22 69/1/22 68/1/22
f 17/1/23 70/1/23 69/1/23
f 18/1/24 71/1/24 70/1/24
f 19/1/25 72/1/25 71/1/25
f 20/1/26 73/1/26 72/1/26
f 21/1/27 74/1/27 73/1/27
f 22/1/28 75/1/28 74/1/28
f 23/1/29 76/1/29 75/1/29
f 24/1/30 77/1/30 76/1/30
f 25/1/31 78/1/31 77/1/31
f 26/1/32 79/1/32 78/1/32
f 27/1/33 80/1/33 79/1/33
f 28/1/34 81/1/34 80/1/34
f 30/1/35 83/1/35 82/1/35
f 31/1/36 84/1/36 83/1/36
f 32/1/37 85/1/37 84/1/37
f 33/1/38 86/1/38 85/1/38
f 34/1/39 87/1/39 86/1/39
f 35/1/40 88/1/40 87/1/40
f 36/1/41 89/1/41 88/1/41
f 37/1/42 90/1/42 89/1/42
f 38/1/43 91/1/43 90/1/43
f 39/1/44 92/1/44 91/1/44
f 40/1/45 93/1/45 92/1/45
f 41/1/46 94/1/46 93/1/46
f 46/1/47 99/1/47 98/1/47
f 47/1/48 100/1/48 99/1/48
f 48/1/40 101/1/40 100/1/40
f 49/1/49 102/1/49 101/1/49
f 50/1/50 103/1/50 102/1/50
f 51/1/51 104/1/51 103/1/51
f 52/1/52 105/1/52 104/1/52
f 53/1/53 106/1/53 105/1/53
f 29/1/54 82/1/54 106/1/54
