# Blender 5.2.0 LTS
# www.blender.org
mtllib South Dakota.mtl
o Plane.036
v 1.441337 3.459122 3.618743
v 1.441337 3.323164 1.256964
v 1.441337 3.303741 1.082161
v 1.441337 3.245474 0.992817
v 1.441337 3.152246 0.868513
v 1.441337 3.179437 0.845206
v 1.441337 3.210513 0.763632
v 1.441337 3.218282 0.685942
v 1.441337 3.218282 0.569407
v 1.441337 3.179437 0.363527
v 1.441337 3.109516 0.258646
v 1.441337 3.066787 0.177072
v 1.441337 3.039595 0.107150
v 1.441337 5.708601 3.968326
v 1.441337 4.959390 4.030760
v 1.441337 3.488564 4.167581
v 1.441337 3.490198 4.112075
v 1.441337 3.194975 0.091612
v 1.441337 3.280435 0.021690
v 1.441337 3.408623 0.013922
v 1.441337 3.478544 0.033344
v 1.441337 3.517389 0.103266
v 1.441337 3.591195 0.134342
v 1.441337 3.641693 0.134342
v 1.441337 3.680538 0.103266
v 1.441337 3.738806 0.010037
v 1.441337 5.067307 0.025576
v 1.441337 5.249879 0.196494
v 1.441337 5.288724 0.200378
v 1.441337 5.409143 0.103266
v 1.441337 5.525679 0.095497
v 1.441337 5.584074 2.165718
v 1.441337 5.688828 3.696434
v 2.441337 3.459122 3.618743
v 2.441337 3.323164 1.256964
v 2.441337 3.303741 1.082161
v 2.441337 3.245474 0.992817
v 2.441337 3.152246 0.868513
v 2.441337 3.179437 0.845206
v 2.441337 3.210513 0.763632
v 2.441337 3.218282 0.685942
v 2.441337 3.218282 0.569407
v 2.441337 3.179437 0.363527
v 2.441337 3.109516 0.258646
v 2.441337 3.066787 0.177072
v 2.441337 3.039595 0.107150
v 2.441337 5.708601 3.968326
v 2.441337 4.959390 4.030760
v 2.441337 3.488564 4.167581
v 2.441337 3.490198 4.112075
v 2.441337 3.194975 0.091612
v 2.441337 3.280435 0.021690
v 2.441337 3.408623 0.013922
v 2.441337 3.478544 0.033344
v 2.441337 3.517389 0.103266
v 2.441337 3.591195 0.134342
v 2.441337 3.641693 0.134342
v 2.441337 3.680538 0.103266
v 2.441337 3.738806 0.010037
v 2.441337 5.067307 0.025576
v 2.441337 5.249879 0.196494
v 2.441337 5.288724 0.200378
v 2.441337 5.409143 0.103266
v 2.441337 5.525679 0.095497
v 2.441337 5.584074 2.165718
v 2.441337 5.688828 3.696434
vn -1.0000 -0.0000 -0.0000
vn 1.0000 -0.0000 -0.0000
vn -0.0000 -0.0995 -0.9950
vn -0.0000 -0.9996 -0.0294
vn -0.0000 -0.9980 0.0629
vn -0.0000 -0.9983 0.0575
vn -0.0000 -0.9939 0.1104
vn -0.0000 -0.8376 0.5463
vn -0.0000 -0.8000 0.6000
vn -0.0000 -0.6508 -0.7593
vn -0.0000 -0.9345 -0.3560
vn -0.0000 -0.9950 -0.0995
vn -0.0000 -1.0000 -0.0000
vn -0.0000 -0.9827 0.1854
vn -0.0000 -0.8320 0.5547
vn -0.0000 -0.8858 0.4640
vn -0.0000 -0.9320 0.3624
vn -0.0000 0.0830 0.9965
vn -0.0000 0.0926 0.9957
vn -0.0000 -0.6332 -0.7740
vn -0.0000 -0.0605 -0.9982
vn -0.0000 0.2676 -0.9635
vn -0.0000 0.8742 -0.4856
vn -0.0000 0.3881 -0.9216
vn -0.0000 -0.0000 -1.0000
vn -0.0000 -0.6247 -0.7809
vn -0.0000 -0.8480 -0.5300
vn -0.0000 0.0117 -0.9999
vn -0.0000 0.6834 -0.7300
vn -0.0000 0.0995 -0.9950
vn -0.0000 -0.6278 -0.7784
vn -0.0000 -0.0665 -0.9978
vn -0.0000 0.9996 -0.0282
vn -0.0000 0.9977 -0.0683
vn -0.0000 0.9974 -0.0725
vn -1.0000 -0.0001 -0.0000
vt 0.000000 0.000000
s 0
f 18/1/1 9/1/1 3/1/1
f 42/1/2 43/1/2 55/1/2
f 18/1/3 46/1/3 13/1/3
f 17/1/4 49/1/4 16/1/4
f 1/1/5 50/1/5 17/1/5
f 2/1/6 34/1/6 1/1/6
f 3/1/7 35/1/7 2/1/7
f 4/1/8 36/1/8 3/1/8
f 5/1/9 37/1/9 4/1/9
f 6/1/10 38/1/10 5/1/10
f 7/1/11 39/1/11 6/1/11
f 8/1/12 40/1/12 7/1/12
f 9/1/13 41/1/13 8/1/13
f 10/1/14 42/1/14 9/1/14
f 11/1/15 43/1/15 10/1/15
f 12/1/16 44/1/16 11/1/16
f 13/1/17 45/1/17 12/1/17
f 15/1/18 47/1/18 14/1/18
f 16/1/19 48/1/19 15/1/19
f 19/1/20 51/1/20 18/1/20
f 20/1/21 52/1/21 19/1/21
f 21/1/22 53/1/22 20/1/22
f 22/1/23 54/1/23 21/1/23
f 23/1/24 55/1/24 22/1/24
f 24/1/25 56/1/25 23/1/25
f 25/1/26 57/1/26 24/1/26
f 26/1/27 58/1/27 25/1/27
f 27/1/28 59/1/28 26/1/28
f 28/1/29 60/1/29 27/1/29
f 29/1/30 61/1/30 28/1/30
f 30/1/31 62/1/31 29/1/31
f 31/1/32 63/1/32 30/1/32
f 32/1/33 64/1/33 31/1/33
f 33/1/34 65/1/34 32/1/34
f 14/1/35 66/1/35 33/1/35
f 31/1/1 30/1/1 29/1/1
f 28/1/1 27/1/1 26/1/1
f 32/1/1 31/1/1 29/1/1
f 28/1/1 26/1/1 25/1/1
f 32/1/1 29/1/1 28/1/1
f 15/1/1 14/1/1 33/1/1
f 33/1/1 32/1/1 28/1/1
f 28/1/1 25/1/1 24/1/1
f 28/1/1 24/1/1 23/1/1
f 15/1/1 33/1/1 28/1/1
f 17/1/1 16/1/1 15/1/1
f 2/1/36 1/1/36 17/1/36
f 2/1/1 17/1/1 15/1/1
f 15/1/1 28/1/1 23/1/1
f 22/1/1 21/1/1 20/1/1
f 15/1/1 23/1/1 22/1/1
f 3/1/1 2/1/1 15/1/1
f 6/1/1 5/1/1 4/1/1
f 3/1/1 15/1/1 22/1/1
f 6/1/1 4/1/1 3/1/1
f 7/1/1 6/1/1 3/1/1
f 3/1/1 22/1/1 20/1/1
f 20/1/1 19/1/1 18/1/1
f 18/1/1 13/1/1 12/1/1
f 12/1/1 11/1/1 10/1/1
f 18/1/1 12/1/1 10/1/1
f 3/1/1 20/1/1 18/1/1
f 8/1/1 7/1/1 3/1/1
f 18/1/1 10/1/1 9/1/1
f 9/1/1 8/1/1 3/1/1
f 62/1/2 63/1/2 64/1/2
f 62/1/2 64/1/2 65/1/2
f 59/1/2 60/1/2 61/1/2
f 61/1/2 62/1/2 65/1/2
f 66/1/2 47/1/2 48/1/2
f 61/1/2 65/1/2 66/1/2
f 58/1/2 59/1/2 61/1/2
f 57/1/2 58/1/2 61/1/2
f 61/1/2 66/1/2 48/1/2
f 48/1/2 49/1/2 50/1/2
f 50/1/2 34/1/2 35/1/2
f 48/1/2 50/1/2 35/1/2
f 57/1/2 61/1/2 48/1/2
f 56/1/2 57/1/2 48/1/2
f 48/1/2 35/1/2 36/1/2
f 37/1/2 38/1/2 39/1/2
f 56/1/2 48/1/2 36/1/2
f 36/1/2 37/1/2 39/1/2
f 36/1/2 39/1/2 40/1/2
f 55/1/2 56/1/2 36/1/2
f 53/1/2 54/1/2 55/1/2
f 51/1/2 52/1/2 53/1/2
f 45/1/2 46/1/2 51/1/2
f 43/1/2 44/1/2 45/1/2
f 43/1/2 45/1/2 51/1/2
f 51/1/2 53/1/2 55/1/2
f 55/1/2 36/1/2 40/1/2
f 55/1/2 40/1/2 41/1/2
f 43/1/2 51/1/2 55/1/2
f 55/1/2 41/1/2 42/1/2
f 18/1/3 51/1/3 46/1/3
f 17/1/4 50/1/4 49/1/4
f 1/1/5 34/1/5 50/1/5
f 2/1/6 35/1/6 34/1/6
f 3/1/7 36/1/7 35/1/7
f 4/1/8 37/1/8 36/1/8
f 5/1/9 38/1/9 37/1/9
f 6/1/10 39/1/10 38/1/10
f 7/1/11 40/1/11 39/1/11
f 8/1/12 41/1/12 40/1/12
f 9/1/13 42/1/13 41/1/13
f 10/1/14 43/1/14 42/1/14
f 11/1/15 44/1/15 43/1/15
f 12/1/16 45/1/16 44/1/16
f 13/1/17 46/1/17 45/1/17
f 15/1/18 48/1/18 47/1/18
f 16/1/19 49/1/19 48/1/19
f 19/1/20 52/1/20 51/1/20
f 20/1/21 53/1/21 52/1/21
f 21/1/22 54/1/22 53/1/22
f 22/1/23 55/1/23 54/1/23
f 23/1/24 56/1/24 55/1/24
f 24/1/25 57/1/25 56/1/25
f 25/1/26 58/1/26 57/1/26
f 26/1/27 59/1/27 58/1/27
f 27/1/28 60/1/28 59/1/28
f 28/1/29 61/1/29 60/1/29
f 29/1/30 62/1/30 61/1/30
f 30/1/31 63/1/31 62/1/31
f 31/1/32 64/1/32 63/1/32
f 32/1/33 65/1/33 64/1/33
f 33/1/34 66/1/34 65/1/34
f 14/1/35 47/1/35 66/1/35
