# Blender 5.2.0 LTS
# www.blender.org
mtllib Virginia.mtl
o Plane.009
v 2.441337 -0.975892 -7.691741
v 2.441337 -0.859318 -8.758056
v 2.441337 -0.794173 -7.938605
v 2.441337 -0.657026 -7.945462
v 2.441337 -0.273015 -8.398046
v 2.441337 0.877601 -11.237138
v 2.441337 0.889316 -11.128768
v 2.441337 0.927392 -11.029185
v 2.441337 0.942037 -10.999896
v 2.441337 1.009402 -10.994039
v 2.441337 1.170493 -11.131698
v 2.441337 1.226143 -11.117053
v 2.441337 1.355016 -11.032115
v 2.441337 1.355016 -11.002826
v 2.441337 1.366731 -10.920815
v 2.441337 1.366731 -10.847592
v 2.441337 1.375518 -10.780227
v 2.441337 1.507320 -10.780227
v 2.441337 1.557112 -10.704074
v 2.441337 1.571756 -10.622064
v 2.441337 1.451670 -10.598632
v 2.441337 1.451670 -10.525409
v 2.441337 1.571756 -10.352603
v 2.441337 1.568827 -10.294024
v 2.441337 1.401879 -10.282310
v 2.441337 1.246645 -10.206157
v 2.441337 1.035763 -10.045066
v 2.441337 1.021118 -9.942554
v 2.441337 0.877601 -9.924979
v 2.441337 0.725297 -9.837111
v 2.441337 0.731154 -9.796107
v 2.441337 0.780946 -9.734599
v 2.441337 0.789733 -9.699452
v 2.441337 0.760444 -9.605727
v 2.441337 0.520272 -9.588153
v 2.441337 0.171729 -9.427062
v 2.441337 -0.039153 -9.409488
v 2.441337 -0.127021 -9.324550
v 2.441337 -0.144595 -9.148814
v 2.441337 -0.285183 -9.043372
v 2.441337 -0.299828 -8.820773
v 2.441337 -0.416985 -8.665540
v 2.441337 -0.396482 -8.516164
v 2.441337 -0.656602 -10.269607
v 2.441337 -0.277613 -12.120484
v 2.441337 -0.014544 -11.981723
v 2.441337 -0.014544 -11.903668
v 2.441337 -0.034780 -11.834287
v 2.441337 -0.138851 -11.805379
v 2.441337 -0.081034 -11.764907
v 2.441337 -0.075252 -11.692636
v 2.441337 0.144454 -11.504729
v 2.441337 0.173363 -11.530747
v 2.441337 0.167581 -11.588565
v 2.441337 0.040383 -11.692636
v 2.441337 0.037492 -11.727326
v 2.441337 0.031710 -11.788035
v 2.441337 0.124218 -11.811162
v 2.441337 0.167581 -11.764909
v 2.441337 0.216726 -11.666619
v 2.441337 0.242744 -11.678184
v 2.441337 0.335252 -11.707091
v 2.441337 0.346815 -11.747563
v 2.441337 0.410414 -11.747563
v 2.441337 0.482686 -11.695527
v 2.441337 0.592539 -11.666619
v 2.441337 0.696611 -11.657947
v 2.441337 0.722628 -11.568330
v 2.441337 0.774664 -11.435349
v 2.441337 0.846936 -11.293696
v 1.441337 0.819022 -12.200747
v 1.441337 0.819022 -12.121667
v 1.441337 0.801449 -12.019155
v 1.441337 0.772160 -11.978150
v 1.441337 0.676761 -11.978150
v 1.441337 0.581362 -11.929006
v 1.441337 0.318293 -11.902987
v 1.441337 0.208440 -11.914552
v 1.441337 0.165077 -11.940570
v 1.441337 0.165077 -12.007060
v 1.441337 0.217112 -12.056205
v 1.441337 0.318293 -12.079331
v 1.441337 0.558235 -12.079331
v 1.441337 0.760596 -12.177621
v 1.441337 -0.975892 -7.691741
v 1.441337 -0.859317 -8.758056
v 1.441337 -0.794173 -7.938605
v 1.441337 -0.657026 -7.945462
v 1.441337 -0.273015 -8.398046
v 1.441337 0.877601 -11.237138
v 1.441337 0.889317 -11.128768
v 1.441337 0.927393 -11.029185
v 1.441337 0.942037 -10.999896
v 1.441337 1.009403 -10.994039
v 1.441337 1.170494 -11.131698
v 1.441337 1.226143 -11.117053
v 1.441337 1.355016 -11.032115
v 1.441337 1.355016 -11.002826
v 1.441337 1.366732 -10.920815
v 1.441337 1.366732 -10.847592
v 1.441337 1.375518 -10.780227
v 1.441337 1.507320 -10.780227
v 1.441337 1.557112 -10.704074
v 1.441337 1.571757 -10.622064
v 1.441337 1.451671 -10.598632
v 1.441337 1.451671 -10.525409
v 1.441337 1.571757 -10.352603
v 1.441337 1.568828 -10.294024
v 1.441337 1.401879 -10.282310
v 1.441337 1.246646 -10.206157
v 1.441337 1.035763 -10.045066
v 1.441337 1.021118 -9.942554
v 1.441337 0.877601 -9.924979
v 1.441337 0.725297 -9.837111
v 1.441337 0.731155 -9.796107
v 1.441337 0.780947 -9.734599
v 1.441337 0.789733 -9.699452
v 1.441337 0.760444 -9.605727
v 1.441337 0.520272 -9.588153
v 1.441337 0.171730 -9.427062
v 1.441337 -0.039153 -9.409488
v 1.441337 -0.127021 -9.324550
v 1.441337 -0.144594 -9.148814
v 1.441337 -0.285183 -9.043372
v 1.441337 -0.299827 -8.820773
v 1.441337 -0.416985 -8.665540
v 1.441337 -0.396482 -8.516164
v 1.441337 -0.656602 -10.269607
v 1.441337 -0.277613 -12.120484
v 1.441337 -0.014543 -11.981723
v 1.441337 -0.014543 -11.903668
v 1.441337 -0.034779 -11.834287
v 1.441337 -0.138851 -11.805379
v 1.441337 -0.081033 -11.764907
v 1.441337 -0.075252 -11.692636
v 1.441337 0.144455 -11.504729
v 1.441337 0.173363 -11.530747
v 1.441337 0.167582 -11.588565
v 1.441337 0.040383 -11.692636
v 1.441337 0.037492 -11.727326
v 1.441337 0.031711 -11.788035
v 1.441337 0.124219 -11.811162
v 1.441337 0.167582 -11.764909
v 1.441337 0.216726 -11.666619
v 1.441337 0.242744 -11.678184
v 1.441337 0.335252 -11.707091
v 1.441337 0.346816 -11.747563
v 1.441337 0.410415 -11.747563
v 1.441337 0.482687 -11.695527
v 1.441337 0.592540 -11.666619
v 1.441337 0.696611 -11.657947
v 1.441337 0.722629 -11.568330
v 1.441337 0.774665 -11.435349
v 1.441337 0.846936 -11.293696
v 2.441337 0.819022 -12.200747
v 2.441337 0.819022 -12.121667
v 2.441337 0.801449 -12.019155
v 2.441337 0.772160 -11.978150
v 2.441337 0.676761 -11.978150
v 2.441337 0.581362 -11.929006
v 2.441337 0.318293 -11.902987
v 2.441337 0.208440 -11.914552
v 2.441337 0.165077 -11.940570
v 2.441337 0.165077 -12.007060
v 2.441337 0.217112 -12.056205
v 2.441337 0.318293 -12.079331
v 2.441337 0.558235 -12.079331
v 2.441337 0.760596 -12.177621
vn 1.0000 -0.0000 -0.0000
vn -1.0000 -0.0000 -0.0000
vn -0.0000 -0.9941 -0.1087
vn -0.0000 0.8053 0.5928
vn -0.0000 0.0499 0.9988
vn -0.0000 0.7625 0.6470
vn -0.0000 0.9942 -0.1075
vn -0.0000 0.9341 -0.3571
vn -0.0000 0.8944 -0.4472
vn -0.0000 0.0866 -0.9962
vn -0.0000 -0.6497 -0.7602
vn -0.0000 0.2545 -0.9671
vn -0.0000 0.5503 -0.8350
vn -0.0000 1.0000 -0.0000
vn -0.0000 0.9899 -0.1414
vn -0.0000 0.9916 -0.1293
vn -0.0000 -0.0000 -1.0000
vn -0.0000 0.8370 -0.5472
vn -0.0000 0.9844 -0.1758
vn -0.0000 0.1915 0.9815
vn -0.0000 0.8212 -0.5707
vn -0.0000 0.9988 0.0499
vn -0.0000 0.0700 0.9975
vn -0.0000 0.4404 0.8978
vn -0.0000 0.6070 0.7947
vn -0.0000 0.9899 0.1414
vn -0.0000 0.1215 0.9926
vn -0.0000 0.4997 0.8662
vn -0.0000 0.7772 -0.6292
vn -0.0000 0.9701 -0.2425
vn -0.0000 0.9545 0.2983
vn -0.0000 0.0730 0.9973
vn -0.0000 0.4195 0.9077
vn -0.0000 0.0830 0.9965
vn -0.0000 0.6950 0.7190
vn -0.0000 0.9950 0.0995
vn -0.0000 0.6000 0.8000
vn -0.0000 0.9978 0.0656
vn -0.0000 0.7982 0.6024
vn -0.0000 0.9907 -0.1360
vn -0.0000 0.6913 -0.7226
vn -0.0000 -0.9911 -0.1329
vn -0.0000 -0.9797 -0.2006
vn -0.0000 0.4665 -0.8845
vn -0.0000 0.9600 0.2800
vn -0.0000 0.2676 0.9635
vn -0.0000 0.5735 -0.8192
vn -0.0000 0.9968 -0.0797
vn -0.0000 0.6500 -0.7600
vn -0.0000 -0.6690 -0.7433
vn -0.0000 -0.9950 0.0995
vn -0.0000 -0.6332 0.7740
vn -0.0000 -0.9965 0.0830
vn -0.0000 -0.9955 0.0948
vn -0.0000 -0.2425 -0.9701
vn -0.0000 0.7295 -0.6839
vn -0.0000 -0.4062 -0.9138
vn -0.0000 -0.2983 -0.9545
vn -0.0000 -0.9615 -0.2747
vn -0.0000 0.5843 -0.8115
vn -0.0000 0.0830 -0.9965
vn -0.0000 0.9603 -0.2788
vn -0.0000 0.9312 -0.3644
vn -0.0000 0.8908 -0.4545
vn -0.0000 0.8791 -0.4766
vn -0.0000 0.9856 0.1690
vn -0.0000 0.8137 0.5812
vn -0.0000 -0.0000 1.0000
vn -0.0000 0.4580 0.8890
vn -0.0000 0.0984 0.9951
vn -0.0000 -0.1047 0.9945
vn -0.0000 -0.5145 0.8575
vn -0.0000 -1.0000 -0.0000
vn -0.0000 -0.6866 -0.7270
vn -0.0000 -0.2228 -0.9749
vn -0.0000 -0.4369 -0.8995
vn -0.0000 -0.3680 -0.9298
vn 1.0000 0.0004 -0.0000
vn -1.0000 -0.0002 -0.0000
vt 0.000000 0.000000
s 0
f 60/1/1 69/1/1 7/1/1
f 80/1/2 78/1/2 75/1/2
f 91/1/2 149/1/2 146/1/2
f 161/1/1 163/1/1 167/1/1
f 1/1/3 86/1/3 2/1/3
f 3/1/4 85/1/4 1/1/4
f 4/1/5 87/1/5 3/1/5
f 5/1/6 88/1/6 4/1/6
f 6/1/7 91/1/7 7/1/7
f 7/1/8 92/1/8 8/1/8
f 8/1/9 93/1/9 9/1/9
f 9/1/10 94/1/10 10/1/10
f 11/1/11 94/1/11 95/1/11
f 12/1/12 95/1/12 96/1/12
f 12/1/13 97/1/13 13/1/13
f 13/1/14 98/1/14 14/1/14
f 14/1/15 99/1/15 15/1/15
f 16/1/16 101/1/16 17/1/16
f 17/1/17 102/1/17 18/1/17
f 18/1/18 103/1/18 19/1/18
f 19/1/19 104/1/19 20/1/19
f 15/1/14 100/1/14 16/1/14
f 20/1/20 105/1/20 21/1/20
f 21/1/14 106/1/14 22/1/14
f 22/1/21 107/1/21 23/1/21
f 23/1/22 108/1/22 24/1/22
f 24/1/23 109/1/23 25/1/23
f 25/1/24 110/1/24 26/1/24
f 26/1/25 111/1/25 27/1/25
f 27/1/26 112/1/26 28/1/26
f 28/1/27 113/1/27 29/1/27
f 29/1/28 114/1/28 30/1/28
f 30/1/15 115/1/15 31/1/15
f 31/1/29 116/1/29 32/1/29
f 32/1/30 117/1/30 33/1/30
f 33/1/31 118/1/31 34/1/31
f 34/1/32 119/1/32 35/1/32
f 35/1/33 120/1/33 36/1/33
f 36/1/34 121/1/34 37/1/34
f 37/1/35 122/1/35 38/1/35
f 38/1/36 123/1/36 39/1/36
f 39/1/37 124/1/37 40/1/37
f 40/1/38 125/1/38 41/1/38
f 41/1/39 126/1/39 42/1/39
f 42/1/40 127/1/40 43/1/40
f 43/1/41 89/1/41 5/1/41
f 2/1/42 128/1/42 44/1/42
f 44/1/43 129/1/43 45/1/43
f 45/1/44 130/1/44 46/1/44
f 46/1/14 131/1/14 47/1/14
f 47/1/45 132/1/45 48/1/45
f 48/1/46 133/1/46 49/1/46
f 50/1/47 133/1/47 134/1/47
f 50/1/48 135/1/48 51/1/48
f 51/1/49 136/1/49 52/1/49
f 52/1/50 137/1/50 53/1/50
f 53/1/51 138/1/51 54/1/51
f 54/1/52 139/1/52 55/1/52
f 55/1/53 140/1/53 56/1/53
f 56/1/54 141/1/54 57/1/54
f 58/1/55 141/1/55 142/1/55
f 58/1/56 143/1/56 59/1/56
f 59/1/9 144/1/9 60/1/9
f 60/1/57 145/1/57 61/1/57
f 62/1/58 145/1/58 146/1/58
f 62/1/59 147/1/59 63/1/59
f 63/1/17 148/1/17 64/1/17
f 64/1/60 149/1/60 65/1/60
f 65/1/12 150/1/12 66/1/12
f 66/1/61 151/1/61 67/1/61
f 67/1/62 152/1/62 68/1/62
f 68/1/63 153/1/63 69/1/63
f 70/1/64 153/1/64 154/1/64
f 70/1/65 90/1/65 6/1/65
f 72/1/14 155/1/14 71/1/14
f 73/1/66 156/1/66 72/1/66
f 74/1/67 157/1/67 73/1/67
f 75/1/68 158/1/68 74/1/68
f 76/1/69 159/1/69 75/1/69
f 76/1/70 161/1/70 160/1/70
f 78/1/71 161/1/71 77/1/71
f 79/1/72 162/1/72 78/1/72
f 80/1/73 163/1/73 79/1/73
f 81/1/74 164/1/74 80/1/74
f 82/1/75 165/1/75 81/1/75
f 83/1/17 166/1/17 82/1/17
f 84/1/76 167/1/76 83/1/76
f 71/1/77 168/1/77 84/1/77
f 3/1/1 1/1/1 2/1/1
f 2/1/1 44/1/1 45/1/1
f 45/1/1 46/1/1 47/1/1
f 47/1/1 48/1/1 49/1/1
f 49/1/1 50/1/1 51/1/1
f 45/1/1 47/1/1 49/1/1
f 3/1/1 2/1/1 45/1/1
f 5/1/1 4/1/1 3/1/1
f 43/1/1 5/1/1 3/1/1
f 3/1/1 45/1/1 49/1/1
f 3/1/1 49/1/1 51/1/1
f 42/1/1 43/1/1 3/1/1
f 40/1/1 41/1/1 42/1/1
f 38/1/1 39/1/1 40/1/1
f 35/1/1 36/1/1 37/1/1
f 33/1/1 34/1/1 35/1/1
f 31/1/1 32/1/1 33/1/1
f 31/1/1 33/1/1 35/1/1
f 31/1/1 35/1/1 37/1/1
f 30/1/1 31/1/1 37/1/1
f 29/1/1 30/1/1 37/1/1
f 27/1/1 28/1/1 29/1/1
f 26/1/78 27/1/78 29/1/78
f 26/1/1 29/1/1 37/1/1
f 23/1/1 24/1/1 25/1/1
f 22/1/1 23/1/1 25/1/1
f 19/1/1 20/1/1 21/1/1
f 21/1/1 22/1/1 25/1/1
f 21/1/1 25/1/1 26/1/1
f 18/1/1 19/1/1 21/1/1
f 17/1/1 18/1/1 21/1/1
f 21/1/1 26/1/1 37/1/1
f 17/1/1 21/1/1 37/1/1
f 14/1/1 15/1/1 16/1/1
f 16/1/1 17/1/1 37/1/1
f 16/1/1 37/1/1 38/1/1
f 12/1/1 13/1/1 14/1/1
f 14/1/1 16/1/1 38/1/1
f 40/1/1 42/1/1 3/1/1
f 12/1/1 14/1/1 38/1/1
f 40/1/1 3/1/1 51/1/1
f 11/1/1 12/1/1 38/1/1
f 38/1/1 40/1/1 51/1/1
f 38/1/1 51/1/1 52/1/1
f 10/1/1 11/1/1 38/1/1
f 9/1/1 10/1/1 38/1/1
f 38/1/1 52/1/1 53/1/1
f 54/1/1 55/1/1 56/1/1
f 9/1/1 38/1/1 53/1/1
f 54/1/1 56/1/1 57/1/1
f 9/1/1 53/1/1 54/1/1
f 8/1/1 9/1/1 54/1/1
f 54/1/1 57/1/1 58/1/1
f 58/1/1 59/1/1 60/1/1
f 60/1/1 61/1/1 62/1/1
f 62/1/1 63/1/1 64/1/1
f 62/1/1 64/1/1 65/1/1
f 54/1/1 58/1/1 60/1/1
f 60/1/1 62/1/1 65/1/1
f 66/1/1 67/1/1 68/1/1
f 60/1/1 65/1/1 66/1/1
f 8/1/1 54/1/1 60/1/1
f 70/1/1 6/1/1 7/1/1
f 7/1/1 8/1/1 60/1/1
f 60/1/1 66/1/1 68/1/1
f 69/1/1 70/1/1 7/1/1
f 60/1/1 68/1/1 69/1/1
f 72/1/2 71/1/2 84/1/2
f 83/1/2 82/1/2 81/1/2
f 72/1/2 84/1/2 83/1/2
f 74/1/2 73/1/2 72/1/2
f 77/1/2 76/1/2 75/1/2
f 75/1/2 74/1/2 72/1/2
f 83/1/2 81/1/2 80/1/2
f 75/1/2 72/1/2 83/1/2
f 78/1/2 77/1/2 75/1/2
f 80/1/2 79/1/2 78/1/2
f 75/1/2 83/1/2 80/1/2
f 86/1/2 85/1/2 87/1/2
f 87/1/2 88/1/2 89/1/2
f 87/1/2 89/1/2 127/1/2
f 128/1/2 86/1/2 87/1/2
f 131/1/2 130/1/2 129/1/2
f 133/1/2 132/1/2 131/1/2
f 135/1/2 134/1/2 133/1/2
f 133/1/2 131/1/2 129/1/2
f 129/1/2 128/1/2 87/1/2
f 87/1/2 127/1/2 126/1/2
f 126/1/2 125/1/2 124/1/2
f 124/1/2 123/1/2 122/1/2
f 121/1/2 120/1/2 119/1/2
f 119/1/2 118/1/2 117/1/2
f 117/1/2 116/1/2 115/1/2
f 119/1/2 117/1/2 115/1/2
f 121/1/2 119/1/2 115/1/2
f 121/1/2 115/1/2 114/1/2
f 121/1/2 114/1/2 113/1/2
f 113/1/2 112/1/2 111/1/2
f 113/1/79 111/1/79 110/1/79
f 121/1/2 113/1/2 110/1/2
f 109/1/2 108/1/2 107/1/2
f 109/1/2 107/1/2 106/1/2
f 105/1/2 104/1/2 103/1/2
f 109/1/2 106/1/2 105/1/2
f 110/1/2 109/1/2 105/1/2
f 105/1/2 103/1/2 102/1/2
f 105/1/2 102/1/2 101/1/2
f 121/1/2 110/1/2 105/1/2
f 121/1/2 105/1/2 101/1/2
f 100/1/2 99/1/2 98/1/2
f 121/1/2 101/1/2 100/1/2
f 122/1/2 121/1/2 100/1/2
f 98/1/2 97/1/2 96/1/2
f 122/1/2 100/1/2 98/1/2
f 87/1/2 126/1/2 124/1/2
f 122/1/2 98/1/2 96/1/2
f 129/1/2 87/1/2 124/1/2
f 122/1/2 96/1/2 95/1/2
f 129/1/2 124/1/2 122/1/2
f 133/1/2 129/1/2 122/1/2
f 122/1/2 95/1/2 94/1/2
f 122/1/2 94/1/2 93/1/2
f 135/1/2 133/1/2 122/1/2
f 136/1/2 135/1/2 122/1/2
f 122/1/2 93/1/2 92/1/2
f 91/1/2 90/1/2 154/1/2
f 122/1/2 92/1/2 91/1/2
f 137/1/2 136/1/2 122/1/2
f 140/1/2 139/1/2 138/1/2
f 137/1/2 122/1/2 91/1/2
f 141/1/2 140/1/2 138/1/2
f 138/1/2 137/1/2 91/1/2
f 91/1/2 154/1/2 153/1/2
f 152/1/2 151/1/2 150/1/2
f 91/1/2 153/1/2 152/1/2
f 141/1/2 138/1/2 91/1/2
f 143/1/2 142/1/2 141/1/2
f 146/1/2 145/1/2 144/1/2
f 144/1/2 143/1/2 141/1/2
f 91/1/2 152/1/2 150/1/2
f 149/1/2 148/1/2 147/1/2
f 91/1/2 150/1/2 149/1/2
f 144/1/2 141/1/2 91/1/2
f 149/1/2 147/1/2 146/1/2
f 146/1/2 144/1/2 91/1/2
f 168/1/1 155/1/1 156/1/1
f 156/1/1 157/1/1 158/1/1
f 159/1/1 160/1/1 161/1/1
f 156/1/1 158/1/1 159/1/1
f 167/1/1 168/1/1 156/1/1
f 165/1/1 166/1/1 167/1/1
f 163/1/1 164/1/1 165/1/1
f 161/1/1 162/1/1 163/1/1
f 156/1/1 159/1/1 161/1/1
f 163/1/1 165/1/1 167/1/1
f 167/1/1 156/1/1 161/1/1
f 1/1/3 85/1/3 86/1/3
f 3/1/4 87/1/4 85/1/4
f 4/1/5 88/1/5 87/1/5
f 5/1/6 89/1/6 88/1/6
f 6/1/7 90/1/7 91/1/7
f 7/1/8 91/1/8 92/1/8
f 8/1/9 92/1/9 93/1/9
f 9/1/10 93/1/10 94/1/10
f 11/1/11 10/1/11 94/1/11
f 12/1/12 11/1/12 95/1/12
f 12/1/13 96/1/13 97/1/13
f 13/1/14 97/1/14 98/1/14
f 14/1/15 98/1/15 99/1/15
f 16/1/16 100/1/16 101/1/16
f 17/1/17 101/1/17 102/1/17
f 18/1/18 102/1/18 103/1/18
f 19/1/19 103/1/19 104/1/19
f 15/1/14 99/1/14 100/1/14
f 20/1/20 104/1/20 105/1/20
f 21/1/14 105/1/14 106/1/14
f 22/1/21 106/1/21 107/1/21
f 23/1/22 107/1/22 108/1/22
f 24/1/23 108/1/23 109/1/23
f 25/1/24 109/1/24 110/1/24
f 26/1/25 110/1/25 111/1/25
f 27/1/26 111/1/26 112/1/26
f 28/1/27 112/1/27 113/1/27
f 29/1/28 113/1/28 114/1/28
f 30/1/15 114/1/15 115/1/15
f 31/1/29 115/1/29 116/1/29
f 32/1/30 116/1/30 117/1/30
f 33/1/31 117/1/31 118/1/31
f 34/1/32 118/1/32 119/1/32
f 35/1/33 119/1/33 120/1/33
f 36/1/34 120/1/34 121/1/34
f 37/1/35 121/1/35 122/1/35
f 38/1/36 122/1/36 123/1/36
f 39/1/37 123/1/37 124/1/37
f 40/1/38 124/1/38 125/1/38
f 41/1/39 125/1/39 126/1/39
f 42/1/40 126/1/40 127/1/40
f 43/1/41 127/1/41 89/1/41
f 2/1/42 86/1/42 128/1/42
f 44/1/43 128/1/43 129/1/43
f 45/1/44 129/1/44 130/1/44
f 46/1/14 130/1/14 131/1/14
f 47/1/45 131/1/45 132/1/45
f 48/1/46 132/1/46 133/1/46
f 50/1/47 49/1/47 133/1/47
f 50/1/48 134/1/48 135/1/48
f 51/1/49 135/1/49 136/1/49
f 52/1/50 136/1/50 137/1/50
f 53/1/51 137/1/51 138/1/51
f 54/1/52 138/1/52 139/1/52
f 55/1/53 139/1/53 140/1/53
f 56/1/54 140/1/54 141/1/54
f 58/1/55 57/1/55 141/1/55
f 58/1/56 142/1/56 143/1/56
f 59/1/9 143/1/9 144/1/9
f 60/1/57 144/1/57 145/1/57
f 62/1/58 61/1/58 145/1/58
f 62/1/59 146/1/59 147/1/59
f 63/1/17 147/1/17 148/1/17
f 64/1/60 148/1/60 149/1/60
f 65/1/12 149/1/12 150/1/12
f 66/1/61 150/1/61 151/1/61
f 67/1/62 151/1/62 152/1/62
f 68/1/63 152/1/63 153/1/63
f 70/1/64 69/1/64 153/1/64
f 70/1/65 154/1/65 90/1/65
f 72/1/14 156/1/14 155/1/14
f 73/1/66 157/1/66 156/1/66
f 74/1/67 158/1/67 157/1/67
f 75/1/68 159/1/68 158/1/68
f 76/1/69 160/1/69 159/1/69
f 76/1/70 77/1/70 161/1/70
f 78/1/71 162/1/71 161/1/71
f 79/1/72 163/1/72 162/1/72
f 80/1/73 164/1/73 163/1/73
f 81/1/74 165/1/74 164/1/74
f 82/1/75 166/1/75 165/1/75
f 83/1/17 167/1/17 166/1/17
f 84/1/76 168/1/76 167/1/76
f 71/1/77 155/1/77 168/1/77
