# Blender 5.2.0 LTS
# www.blender.org
mtllib Washington DC.mtl
o Plane.015
v 1.441337 1.366732 -10.847592
v 1.441337 1.428239 -10.853450
v 1.441337 1.410665 -10.920815
v 1.441337 1.366732 -10.920815
v 2.441337 1.366732 -10.847592
v 2.441337 1.428239 -10.853450
v 2.441337 1.410665 -10.920815
v 2.441337 1.366732 -10.920815
vn -1.0000 -0.0000 -0.0000
vn 1.0000 -0.0000 -0.0000
vn -0.0000 -1.0000 -0.0000
vn -0.0000 0.0948 0.9955
vn -0.0000 0.9676 -0.2524
vn -0.0000 -0.0000 -1.0000
vt 0.000000 0.000000
s 0
f 1/1/1 3/1/1 4/1/1
f 7/1/2 5/1/2 8/1/2
f 4/1/3 5/1/3 1/1/3
f 1/1/4 6/1/4 2/1/4
f 2/1/5 7/1/5 3/1/5
f 3/1/6 8/1/6 4/1/6
f 1/1/1 2/1/1 3/1/1
f 7/1/2 6/1/2 5/1/2
f 4/1/3 8/1/3 5/1/3
f 1/1/4 5/1/4 6/1/4
f 2/1/5 6/1/5 7/1/5
f 3/1/6 7/1/6 8/1/6
