# Blender 5.2.0 LTS
# www.blender.org
mtllib West Virginia.mtl
o Plane.008
v 1.441337 -0.396482 -8.516164
v 1.441337 -0.416985 -8.665540
v 1.441337 -0.299828 -8.820773
v 1.441337 -0.273015 -8.398046
v 1.441337 -0.125582 -8.264327
v 1.441337 0.062994 -8.116895
v 1.441337 0.131568 -8.086038
v 1.441337 0.179569 -8.007178
v 1.441337 0.189855 -7.972892
v 1.441337 0.344145 -7.942035
v 1.441337 0.464148 -7.935178
v 1.441337 2.230766 -8.899850
v 1.441337 2.172187 -8.885205
v 1.441337 2.087248 -8.855916
v 1.441337 1.867579 -8.852986
v 1.441337 1.595188 -8.844199
v 1.441337 1.507321 -8.823697
v 1.441337 1.445813 -8.776834
v 1.441337 1.249575 -8.618672
v 1.441337 1.237859 -8.577668
v 1.441337 1.214428 -8.501515
v 1.441337 1.161707 -8.440007
v 1.441337 1.103129 -8.407788
v 1.441337 0.930322 -8.407788
v 1.441337 0.845383 -8.404859
v 1.441337 0.836596 -8.349210
v 1.441337 0.848312 -8.322850
v 1.441337 0.921535 -8.281846
v 1.441337 0.912748 -8.223268
v 1.441337 0.880530 -8.199836
v 1.441337 0.678434 -8.191049
v 1.441337 0.608140 -8.170547
v 1.441337 0.552490 -8.129542
v 1.441337 0.470480 -8.117827
v 1.441337 0.429475 -8.097325
v 1.441337 0.426546 -7.994813
v 1.441337 0.432404 -7.965524
v 1.441337 1.574686 -9.046296
v 1.441337 1.665482 -9.561788
v 1.441337 1.571757 -10.622064
v 1.441337 1.762137 -10.387750
v 1.441337 1.762137 -10.291095
v 1.441337 1.677198 -10.232516
v 1.441337 1.633264 -10.121217
v 1.441337 1.633264 -9.980628
v 1.441337 1.513178 -9.965983
v 1.441337 1.504391 -9.854684
v 1.441337 1.340371 -9.714095
v 1.441337 1.340371 -9.661374
v 1.441337 1.451671 -10.598632
v 1.441337 1.451671 -10.525409
v 1.441337 1.571757 -10.352603
v 1.441337 1.568828 -10.294024
v 1.441337 1.401879 -10.282310
v 1.441337 1.246646 -10.206157
v 1.441337 1.035763 -10.045066
v 1.441337 1.021118 -9.942554
v 1.441337 0.877601 -9.924979
v 1.441337 0.725297 -9.837111
v 1.441337 0.731155 -9.796107
v 1.441337 0.780946 -9.734599
v 1.441337 0.789733 -9.699452
v 1.441337 0.760444 -9.605727
v 1.441337 0.520272 -9.588153
v 1.441337 0.171730 -9.427062
v 1.441337 -0.039153 -9.409488
v 1.441337 -0.127021 -9.324550
v 1.441337 -0.144594 -9.148814
v 1.441337 -0.285183 -9.043372
v 2.441337 -0.396482 -8.516164
v 2.441337 -0.416985 -8.665540
v 2.441337 -0.299828 -8.820773
v 2.441337 -0.273015 -8.398046
v 2.441337 -0.125583 -8.264327
v 2.441337 0.062994 -8.116895
v 2.441337 0.131567 -8.086038
v 2.441337 0.179569 -8.007178
v 2.441337 0.189855 -7.972892
v 2.441337 0.344145 -7.942035
v 2.441337 0.464148 -7.935178
v 2.441337 2.230766 -8.899850
v 2.441337 2.172187 -8.885205
v 2.441337 2.087248 -8.855916
v 2.441337 1.867579 -8.852986
v 2.441337 1.595188 -8.844199
v 2.441337 1.507320 -8.823697
v 2.441337 1.445813 -8.776834
v 2.441337 1.249575 -8.618672
v 2.441337 1.237859 -8.577668
v 2.441337 1.214428 -8.501515
v 2.441337 1.161707 -8.440007
v 2.441337 1.103128 -8.407788
v 2.441337 0.930322 -8.407788
v 2.441337 0.845383 -8.404859
v 2.441337 0.836596 -8.349210
v 2.441337 0.848312 -8.322850
v 2.441337 0.921535 -8.281846
v 2.441337 0.912748 -8.223268
v 2.441337 0.880530 -8.199836
v 2.441337 0.678434 -8.191049
v 2.441337 0.608140 -8.170547
v 2.441337 0.552490 -8.129542
v 2.441337 0.470480 -8.117827
v 2.441337 0.429475 -8.097325
v 2.441337 0.426546 -7.994813
v 2.441337 0.432404 -7.965524
v 2.441337 1.574685 -9.046296
v 2.441337 1.665482 -9.561788
v 2.441337 1.571756 -10.622064
v 2.441337 1.762137 -10.387750
v 2.441337 1.762137 -10.291095
v 2.441337 1.677198 -10.232516
v 2.441337 1.633264 -10.121217
v 2.441337 1.633264 -9.980628
v 2.441337 1.513178 -9.965983
v 2.441337 1.504391 -9.854684
v 2.441337 1.340371 -9.714095
v 2.441337 1.340371 -9.661374
v 2.441337 1.451670 -10.598632
v 2.441337 1.451670 -10.525409
v 2.441337 1.571756 -10.352603
v 2.441337 1.568827 -10.294024
v 2.441337 1.401879 -10.282310
v 2.441337 1.246645 -10.206157
v 2.441337 1.035763 -10.045066
v 2.441337 1.021118 -9.942554
v 2.441337 0.877601 -9.924979
v 2.441337 0.725297 -9.837111
v 2.441337 0.731155 -9.796107
v 2.441337 0.780946 -9.734599
v 2.441337 0.789733 -9.699452
v 2.441337 0.760444 -9.605727
v 2.441337 0.520272 -9.588153
v 2.441337 0.171729 -9.427062
v 2.441337 -0.039153 -9.409488
v 2.441337 -0.127021 -9.324550
v 2.441337 -0.144595 -9.148814
v 2.441337 -0.285183 -9.043372
vn -1.0000 -0.0000 -0.0000
vn 1.0000 -0.0000 -0.0000
vn -0.0000 -0.6913 0.7226
vn -0.0000 -0.6718 0.7407
vn -0.0000 -0.6159 0.7878
vn -0.0000 -0.4104 0.9119
vn -0.0000 -0.8542 0.5199
vn -0.0000 -0.9578 0.2873
vn -0.0000 -0.1961 0.9806
vn -0.0000 -0.0570 0.9984
vn -0.0000 0.2425 0.9701
vn -0.0000 0.3260 0.9454
vn -0.0000 0.0133 0.9999
vn -0.0000 0.0322 0.9995
vn -0.0000 0.2272 0.9738
vn -0.0000 0.6060 0.7954
vn -0.0000 0.6275 0.7786
vn -0.0000 0.9615 0.2747
vn -0.0000 0.9558 0.2941
vn -0.0000 0.7593 0.6508
vn -0.0000 0.4819 0.8762
vn -0.0000 -0.0000 1.0000
vn -0.0000 0.0345 0.9994
vn -0.0000 0.9878 0.1560
vn -0.0000 0.9138 -0.4061
vn -0.0000 0.4886 -0.8725
vn -0.0000 0.9889 0.1483
vn -0.0000 0.5882 0.8087
vn -0.0000 0.0434 0.9991
vn -0.0000 0.2800 0.9600
vn -0.0000 0.5932 0.8051
vn -0.0000 0.1414 0.9900
vn -0.0000 0.4472 0.8944
vn -0.0000 0.9996 0.0286
vn -0.0000 0.9806 -0.1961
vn -0.0000 0.6910 -0.7228
vn -0.0000 0.2179 -0.9760
vn -0.0000 0.9848 0.1735
vn -0.0000 0.7761 -0.6306
vn -0.0000 1.0000 -0.0000
vn -0.0000 0.5677 0.8232
vn -0.0000 0.9302 0.3672
vn -0.0000 0.1211 0.9926
vn -0.0000 0.9969 0.0787
vn -0.0000 0.6508 0.7593
vn -0.0000 0.2929 -0.9561
vn -0.0000 -0.1915 -0.9815
vn -0.0000 -1.0000 -0.0000
vn -0.0000 -0.8212 0.5707
vn -0.0000 -0.9988 -0.0499
vn -0.0000 -0.0700 -0.9975
vn -0.0000 -0.4404 -0.8978
vn -0.0000 -0.6070 -0.7947
vn -0.0000 -0.9899 -0.1414
vn -0.0000 -0.1215 -0.9926
vn -0.0000 -0.4997 -0.8662
vn -0.0000 -0.9899 0.1414
vn -0.0000 -0.7772 0.6292
vn -0.0000 -0.9701 0.2425
vn -0.0000 -0.9545 -0.2983
vn -0.0000 -0.0730 -0.9973
vn -0.0000 -0.4195 -0.9077
vn -0.0000 -0.0830 -0.9965
vn -0.0000 -0.6950 -0.7190
vn -0.0000 -0.9950 -0.0995
vn -0.0000 -0.6000 -0.8000
vn -0.0000 -0.9978 -0.0656
vn -0.0000 -0.7982 -0.6024
vn -0.0000 -0.9907 0.1360
vt 0.000000 0.000000
s 0
f 17/1/1 16/1/1 38/1/1
f 107/1/2 85/1/2 86/1/2
f 1/1/3 73/1/3 4/1/3
f 4/1/4 74/1/4 5/1/4
f 5/1/5 75/1/5 6/1/5
f 6/1/6 76/1/6 7/1/6
f 7/1/7 77/1/7 8/1/7
f 8/1/8 78/1/8 9/1/8
f 9/1/9 79/1/9 10/1/9
f 10/1/10 80/1/10 11/1/10
f 13/1/11 81/1/11 12/1/11
f 14/1/12 82/1/12 13/1/12
f 15/1/13 83/1/13 14/1/13
f 16/1/14 84/1/14 15/1/14
f 17/1/15 85/1/15 16/1/15
f 18/1/16 86/1/16 17/1/16
f 19/1/17 87/1/17 18/1/17
f 20/1/18 88/1/18 19/1/18
f 21/1/19 89/1/19 20/1/19
f 22/1/20 90/1/20 21/1/20
f 23/1/21 91/1/21 22/1/21
f 24/1/22 92/1/22 23/1/22
f 25/1/23 93/1/23 24/1/23
f 26/1/24 94/1/24 25/1/24
f 27/1/25 95/1/25 26/1/25
f 27/1/26 97/1/26 96/1/26
f 29/1/27 97/1/27 28/1/27
f 30/1/28 98/1/28 29/1/28
f 31/1/29 99/1/29 30/1/29
f 32/1/30 100/1/30 31/1/30
f 33/1/31 101/1/31 32/1/31
f 34/1/32 102/1/32 33/1/32
f 35/1/33 103/1/33 34/1/33
f 36/1/34 104/1/34 35/1/34
f 37/1/35 105/1/35 36/1/35
f 11/1/36 106/1/36 37/1/36
f 38/1/37 81/1/37 107/1/37
f 38/1/38 108/1/38 39/1/38
f 41/1/39 109/1/39 40/1/39
f 42/1/40 110/1/40 41/1/40
f 43/1/41 111/1/41 42/1/41
f 44/1/42 112/1/42 43/1/42
f 45/1/40 113/1/40 44/1/40
f 46/1/43 114/1/43 45/1/43
f 47/1/44 115/1/44 46/1/44
f 48/1/45 116/1/45 47/1/45
f 49/1/40 117/1/40 48/1/40
f 39/1/46 118/1/46 49/1/46
f 40/1/47 119/1/47 50/1/47
f 50/1/48 120/1/48 51/1/48
f 51/1/49 121/1/49 52/1/49
f 52/1/50 122/1/50 53/1/50
f 54/1/51 122/1/51 123/1/51
f 54/1/52 124/1/52 55/1/52
f 55/1/53 125/1/53 56/1/53
f 56/1/54 126/1/54 57/1/54
f 57/1/55 127/1/55 58/1/55
f 58/1/56 128/1/56 59/1/56
f 59/1/57 129/1/57 60/1/57
f 60/1/58 130/1/58 61/1/58
f 61/1/59 131/1/59 62/1/59
f 62/1/60 132/1/60 63/1/60
f 63/1/61 133/1/61 64/1/61
f 64/1/62 134/1/62 65/1/62
f 65/1/63 135/1/63 66/1/63
f 66/1/64 136/1/64 67/1/64
f 67/1/65 137/1/65 68/1/65
f 68/1/66 138/1/66 69/1/66
f 69/1/67 72/1/67 3/1/67
f 3/1/68 71/1/68 2/1/68
f 2/1/69 70/1/69 1/1/69
f 4/1/1 5/1/1 6/1/1
f 4/1/1 6/1/1 7/1/1
f 2/1/1 1/1/1 4/1/1
f 68/1/1 69/1/1 3/1/1
f 3/1/1 2/1/1 4/1/1
f 3/1/1 4/1/1 7/1/1
f 66/1/1 67/1/1 68/1/1
f 68/1/1 3/1/1 7/1/1
f 8/1/1 9/1/1 10/1/1
f 68/1/1 7/1/1 8/1/1
f 65/1/1 66/1/1 68/1/1
f 63/1/1 64/1/1 65/1/1
f 63/1/1 65/1/1 68/1/1
f 68/1/1 8/1/1 10/1/1
f 10/1/1 11/1/1 37/1/1
f 10/1/1 37/1/1 36/1/1
f 63/1/1 68/1/1 10/1/1
f 62/1/1 63/1/1 10/1/1
f 10/1/1 36/1/1 35/1/1
f 34/1/1 33/1/1 32/1/1
f 62/1/1 10/1/1 35/1/1
f 62/1/1 35/1/1 34/1/1
f 59/1/1 60/1/1 61/1/1
f 62/1/1 34/1/1 32/1/1
f 58/1/1 59/1/1 61/1/1
f 62/1/1 32/1/1 31/1/1
f 58/1/1 61/1/1 62/1/1
f 55/1/1 56/1/1 57/1/1
f 57/1/1 58/1/1 62/1/1
f 31/1/1 30/1/1 29/1/1
f 29/1/1 28/1/1 27/1/1
f 31/1/1 29/1/1 27/1/1
f 57/1/1 62/1/1 31/1/1
f 54/1/1 55/1/1 57/1/1
f 53/1/1 54/1/1 57/1/1
f 31/1/1 27/1/1 26/1/1
f 31/1/1 26/1/1 25/1/1
f 53/1/1 57/1/1 31/1/1
f 50/1/1 51/1/1 52/1/1
f 40/1/1 50/1/1 52/1/1
f 42/1/1 41/1/1 40/1/1
f 43/1/1 42/1/1 40/1/1
f 43/1/1 40/1/1 52/1/1
f 46/1/1 45/1/1 44/1/1
f 44/1/1 43/1/1 52/1/1
f 44/1/1 52/1/1 53/1/1
f 48/1/1 47/1/1 46/1/1
f 46/1/1 44/1/1 53/1/1
f 24/1/1 23/1/1 22/1/1
f 22/1/1 21/1/1 20/1/1
f 22/1/1 20/1/1 19/1/1
f 25/1/1 24/1/1 22/1/1
f 48/1/1 46/1/1 53/1/1
f 38/1/1 39/1/1 49/1/1
f 48/1/1 53/1/1 31/1/1
f 49/1/1 48/1/1 31/1/1
f 25/1/1 22/1/1 19/1/1
f 49/1/1 31/1/1 25/1/1
f 13/1/1 12/1/1 38/1/1
f 38/1/1 49/1/1 25/1/1
f 25/1/1 19/1/1 18/1/1
f 25/1/1 18/1/1 17/1/1
f 14/1/1 13/1/1 38/1/1
f 15/1/1 14/1/1 38/1/1
f 38/1/1 25/1/1 17/1/1
f 16/1/1 15/1/1 38/1/1
f 75/1/2 74/1/2 73/1/2
f 73/1/2 70/1/2 71/1/2
f 72/1/2 138/1/2 137/1/2
f 73/1/2 71/1/2 72/1/2
f 76/1/2 75/1/2 73/1/2
f 79/1/2 78/1/2 77/1/2
f 76/1/2 73/1/2 72/1/2
f 79/1/2 77/1/2 76/1/2
f 106/1/2 80/1/2 79/1/2
f 105/1/2 106/1/2 79/1/2
f 79/1/2 76/1/2 72/1/2
f 137/1/2 136/1/2 135/1/2
f 79/1/2 72/1/2 137/1/2
f 104/1/2 105/1/2 79/1/2
f 101/1/2 102/1/2 103/1/2
f 104/1/2 79/1/2 137/1/2
f 103/1/2 104/1/2 137/1/2
f 137/1/2 135/1/2 134/1/2
f 134/1/2 133/1/2 132/1/2
f 137/1/2 134/1/2 132/1/2
f 101/1/2 103/1/2 137/1/2
f 98/1/2 99/1/2 100/1/2
f 100/1/2 101/1/2 137/1/2
f 100/1/2 137/1/2 132/1/2
f 97/1/2 98/1/2 100/1/2
f 96/1/2 97/1/2 100/1/2
f 100/1/2 132/1/2 131/1/2
f 130/1/2 129/1/2 128/1/2
f 130/1/2 128/1/2 127/1/2
f 126/1/2 125/1/2 124/1/2
f 130/1/2 127/1/2 126/1/2
f 131/1/2 130/1/2 126/1/2
f 126/1/2 124/1/2 123/1/2
f 126/1/2 123/1/2 122/1/2
f 100/1/2 131/1/2 126/1/2
f 95/1/2 96/1/2 100/1/2
f 94/1/2 95/1/2 100/1/2
f 100/1/2 126/1/2 122/1/2
f 121/1/2 120/1/2 119/1/2
f 121/1/2 119/1/2 109/1/2
f 109/1/2 110/1/2 111/1/2
f 109/1/2 111/1/2 112/1/2
f 121/1/2 109/1/2 112/1/2
f 113/1/2 114/1/2 115/1/2
f 121/1/2 112/1/2 113/1/2
f 122/1/2 121/1/2 113/1/2
f 115/1/2 116/1/2 117/1/2
f 122/1/2 113/1/2 115/1/2
f 91/1/2 92/1/2 93/1/2
f 89/1/2 90/1/2 91/1/2
f 88/1/2 89/1/2 91/1/2
f 91/1/2 93/1/2 94/1/2
f 122/1/2 115/1/2 117/1/2
f 118/1/2 108/1/2 107/1/2
f 100/1/2 122/1/2 117/1/2
f 100/1/2 117/1/2 118/1/2
f 88/1/2 91/1/2 94/1/2
f 94/1/2 100/1/2 118/1/2
f 107/1/2 81/1/2 82/1/2
f 94/1/2 118/1/2 107/1/2
f 87/1/2 88/1/2 94/1/2
f 86/1/2 87/1/2 94/1/2
f 107/1/2 82/1/2 83/1/2
f 107/1/2 83/1/2 84/1/2
f 86/1/2 94/1/2 107/1/2
f 107/1/2 84/1/2 85/1/2
f 1/1/3 70/1/3 73/1/3
f 4/1/4 73/1/4 74/1/4
f 5/1/5 74/1/5 75/1/5
f 6/1/6 75/1/6 76/1/6
f 7/1/7 76/1/7 77/1/7
f 8/1/8 77/1/8 78/1/8
f 9/1/9 78/1/9 79/1/9
f 10/1/10 79/1/10 80/1/10
f 13/1/11 82/1/11 81/1/11
f 14/1/12 83/1/12 82/1/12
f 15/1/13 84/1/13 83/1/13
f 16/1/14 85/1/14 84/1/14
f 17/1/15 86/1/15 85/1/15
f 18/1/16 87/1/16 86/1/16
f 19/1/17 88/1/17 87/1/17
f 20/1/18 89/1/18 88/1/18
f 21/1/19 90/1/19 89/1/19
f 22/1/20 91/1/20 90/1/20
f 23/1/21 92/1/21 91/1/21
f 24/1/22 93/1/22 92/1/22
f 25/1/23 94/1/23 93/1/23
f 26/1/24 95/1/24 94/1/24
f 27/1/25 96/1/25 95/1/25
f 27/1/26 28/1/26 97/1/26
f 29/1/27 98/1/27 97/1/27
f 30/1/28 99/1/28 98/1/28
f 31/1/29 100/1/29 99/1/29
f 32/1/30 101/1/30 100/1/30
f 33/1/31 102/1/31 101/1/31
f 34/1/32 103/1/32 102/1/32
f 35/1/33 104/1/33 103/1/33
f 36/1/34 105/1/34 104/1/34
f 37/1/35 106/1/35 105/1/35
f 11/1/36 80/1/36 106/1/36
f 38/1/37 12/1/37 81/1/37
f 38/1/38 107/1/38 108/1/38
f 41/1/39 110/1/39 109/1/39
f 42/1/40 111/1/40 110/1/40
f 43/1/41 112/1/41 111/1/41
f 44/1/42 113/1/42 112/1/42
f 45/1/40 114/1/40 113/1/40
f 46/1/43 115/1/43 114/1/43
f 47/1/44 116/1/44 115/1/44
f 48/1/45 117/1/45 116/1/45
f 49/1/40 118/1/40 117/1/40
f 39/1/46 108/1/46 118/1/46
f 40/1/47 109/1/47 119/1/47
f 50/1/48 119/1/48 120/1/48
f 51/1/49 120/1/49 121/1/49
f 52/1/50 121/1/50 122/1/50
f 54/1/51 53/1/51 122/1/51
f 54/1/52 123/1/52 124/1/52
f 55/1/53 124/1/53 125/1/53
f 56/1/54 125/1/54 126/1/54
f 57/1/55 126/1/55 127/1/55
f 58/1/56 127/1/56 128/1/56
f 59/1/57 128/1/57 129/1/57
f 60/1/58 129/1/58 130/1/58
f 61/1/59 130/1/59 131/1/59
f 62/1/60 131/1/60 132/1/60
f 63/1/61 132/1/61 133/1/61
f 64/1/62 133/1/62 134/1/62
f 65/1/63 134/1/63 135/1/63
f 66/1/64 135/1/64 136/1/64
f 67/1/65 136/1/65 137/1/65
f 68/1/66 137/1/66 138/1/66
f 69/1/67 138/1/67 72/1/67
f 3/1/68 72/1/68 71/1/68
f 2/1/69 71/1/69 70/1/69
