# Blender 5.2.0 LTS
# www.blender.org
mtllib Wyoming.mtl
o Plane.043
v 1.441337 5.431422 7.683879
v 1.441337 5.424581 7.622310
v 1.441337 5.253554 6.466173
v 1.441337 4.959390 4.030760
v 1.441337 3.488564 4.167581
v 1.441337 2.010898 4.318084
v 1.441337 2.307886 7.068197
v 1.441337 2.506277 8.155924
v 1.441337 3.245110 8.053308
v 1.441337 5.052365 7.768469
v 2.441337 5.431422 7.683879
v 2.441337 5.424581 7.622310
v 2.441337 5.253554 6.466173
v 2.441337 4.959390 4.030760
v 2.441337 3.488564 4.167581
v 2.441337 2.010898 4.318084
v 2.441337 2.307886 7.068197
v 2.441337 2.506277 8.155924
v 2.441337 3.245110 8.053308
v 2.441337 5.052365 7.768469
vn -1.0000 -0.0000 -0.0000
vn 1.0000 -0.0000 -0.0000
vn -0.0000 0.2178 0.9760
vn -0.0000 0.9939 -0.1104
vn -0.0000 0.9892 -0.1463
vn -0.0000 0.9928 -0.1199
vn -0.0000 -0.0926 -0.9957
vn -0.0000 -0.1013 -0.9949
vn -0.0000 -0.9942 0.1074
vn -0.0000 -0.9838 0.1794
vn -0.0000 0.1376 0.9905
vn -0.0000 0.1557 0.9878
vt 0.000000 0.000000
s 0
f 3/1/1 7/1/1 9/1/1
f 17/1/2 13/1/2 11/1/2
f 10/1/3 11/1/3 1/1/3
f 1/1/4 12/1/4 2/1/4
f 2/1/5 13/1/5 3/1/5
f 3/1/6 14/1/6 4/1/6
f 4/1/7 15/1/7 5/1/7
f 5/1/8 16/1/8 6/1/8
f 6/1/9 17/1/9 7/1/9
f 7/1/10 18/1/10 8/1/10
f 8/1/11 19/1/11 9/1/11
f 9/1/12 20/1/12 10/1/12
f 9/1/1 10/1/1 1/1/1
f 1/1/1 2/1/1 3/1/1
f 3/1/1 4/1/1 5/1/1
f 5/1/1 6/1/1 7/1/1
f 7/1/1 8/1/1 9/1/1
f 9/1/1 1/1/1 3/1/1
f 3/1/1 5/1/1 7/1/1
f 11/1/2 20/1/2 19/1/2
f 19/1/2 18/1/2 17/1/2
f 17/1/2 16/1/2 15/1/2
f 15/1/2 14/1/2 13/1/2
f 13/1/2 12/1/2 11/1/2
f 11/1/2 19/1/2 17/1/2
f 17/1/2 15/1/2 13/1/2
f 10/1/3 20/1/3 11/1/3
f 1/1/4 11/1/4 12/1/4
f 2/1/5 12/1/5 13/1/5
f 3/1/6 13/1/6 14/1/6
f 4/1/7 14/1/7 15/1/7
f 5/1/8 15/1/8 16/1/8
f 6/1/9 16/1/9 17/1/9
f 7/1/10 17/1/10 18/1/10
f 8/1/11 18/1/11 19/1/11
f 9/1/12 19/1/12 20/1/12
