# Blender 5.2.0 LTS
# www.blender.org
mtllib Alaska.mtl
o Plane.052
v 1.441336 -8.554007 10.761425
v 1.441336 -5.784708 10.749934
v 1.441336 -8.652605 10.749594
v 1.441336 -8.739371 10.682547
v 1.441336 -8.727539 10.658883
v 1.441336 -8.660492 10.572117
v 1.441336 -8.644716 10.516902
v 1.441336 -9.078547 10.173780
v 1.441336 -9.070660 10.055463
v 1.441336 -8.944454 10.023911
v 1.441336 -8.845856 9.885875
v 1.441336 -9.153481 9.558529
v 1.441336 -9.717463 9.223295
v 1.441336 -9.816061 8.876230
v 1.441336 -9.879164 8.856510
v 1.441336 -10.060584 8.793407
v 1.441336 -10.273556 8.848623
v 1.441336 -10.273556 8.892006
v 1.441336 -10.139462 9.022156
v 1.441336 -10.139462 9.073426
v 1.441336 -10.092135 9.136529
v 1.441336 -10.131575 9.168080
v 1.441336 -10.190734 9.136529
v 1.441336 -10.238061 9.101034
v 1.441336 -10.340603 9.116810
v 1.441336 -10.352435 9.258791
v 1.441336 -10.383986 9.306118
v 1.441336 -10.249893 9.384996
v 1.441336 -10.103968 9.377108
v 1.441336 -9.938323 9.495426
v 1.441336 -10.017201 9.578248
v 1.441336 -9.737183 9.806995
v 1.441336 -9.713519 9.858267
v 1.441336 -9.524211 9.905594
v 1.441336 -9.508435 9.929257
v 1.441336 -9.425612 9.992360
v 1.441336 -9.291519 10.016024
v 1.441336 -9.023333 10.465631
v 1.441336 -9.027277 10.560285
v 1.441336 -8.960230 10.568172
v 1.441336 -8.920791 10.560285
v 1.441336 -8.908958 10.591836
v 1.441336 -8.912903 10.674658
v 1.441336 -8.794585 10.903406
v 1.441336 -8.786697 11.155817
v 1.441336 -8.751202 11.258359
v 1.441336 -8.613164 11.463443
v 1.441336 -8.542173 11.522602
v 1.441336 -8.451463 11.546266
v 1.441336 -8.439631 11.562041
v 1.441336 -8.459351 11.609368
v 1.441336 -8.510622 11.664583
v 1.441336 -8.514566 11.822340
v 1.441336 -8.727538 11.822340
v 1.441336 -8.727538 12.027424
v 1.441336 -8.747258 12.102358
v 1.441336 -8.814305 12.149685
v 1.441336 -8.901072 12.279835
v 1.441336 -8.905016 12.366601
v 1.441336 -8.893184 12.484919
v 1.441336 -8.861632 12.496751
v 1.441336 -8.853745 12.469143
v 1.441336 -8.841912 12.366601
v 1.441336 -8.802473 12.327162
v 1.441336 -8.782753 12.386321
v 1.441336 -8.766977 12.433648
v 1.441336 -8.699930 12.449424
v 1.441336 -8.664434 12.429704
v 1.441336 -8.624995 12.370545
v 1.441336 -8.593444 12.338994
v 1.441336 -8.498790 12.319274
v 1.441336 -8.431743 12.275891
v 1.441336 -8.415967 12.236452
v 1.441336 -8.400191 12.133910
v 1.441336 -8.415967 12.082639
v 1.441336 -8.376528 12.051087
v 1.441336 -8.305537 12.090527
v 1.441336 -8.266098 12.161517
v 1.441336 -8.285818 12.228564
v 1.441336 -8.368641 12.338994
v 1.441336 -8.542173 12.520414
v 1.441336 -8.695987 12.551966
v 1.441336 -8.751202 12.583517
v 1.441336 -8.763034 12.713667
v 1.441336 -8.782754 12.784657
v 1.441336 -8.822193 12.828040
v 1.441336 -8.885296 12.816209
v 1.441336 -8.912904 12.717610
v 1.441336 -8.995727 12.725498
v 1.441336 -9.082493 12.796489
v 1.441336 -9.319128 13.151442
v 1.441336 -9.465054 13.392021
v 1.441336 -9.468998 13.522171
v 1.441336 -9.488718 13.660208
v 1.441336 -9.536045 13.699647
v 1.441336 -9.626756 13.703591
v 1.441336 -9.658307 13.810077
v 1.441336 -9.662251 14.070375
v 1.441336 -9.689859 14.216301
v 1.441336 -9.756907 14.523927
v 1.441336 -9.823954 14.669852
v 1.441336 -9.816066 14.748731
v 1.441336 -9.768739 14.807890
v 1.441336 -9.792402 14.882824
v 1.441336 -9.788458 14.965647
v 1.441336 -9.756907 14.993254
v 1.441336 -9.693804 14.934095
v 1.441336 -9.662252 14.807889
v 1.441336 -9.638589 14.543647
v 1.441336 -9.599150 14.421385
v 1.441336 -9.524215 14.334619
v 1.441336 -9.500551 14.228132
v 1.441336 -9.532103 14.149254
v 1.441336 -9.512383 14.058544
v 1.441336 -9.413784 13.908675
v 1.441336 -9.374345 13.790358
v 1.441336 -9.405896 13.743031
v 1.441336 -9.358569 13.683871
v 1.441336 -9.299410 13.672040
v 1.441336 -9.228419 13.534002
v 1.441336 -9.121933 13.459067
v 1.441336 -8.881353 13.344694
v 1.441336 -8.830082 13.411740
v 1.441336 -8.818250 13.494563
v 1.441336 -8.834025 13.541890
v 1.441336 -8.901073 13.612881
v 1.441336 -8.810362 13.679928
v 1.441336 -8.739371 13.743031
v 1.441336 -8.695988 13.857404
v 1.441336 -8.715708 13.892900
v 1.441336 -8.747259 13.948114
v 1.441336 -8.739371 13.995441
v 1.441336 -8.617109 14.026993
v 1.441336 -8.309484 13.975721
v 1.441336 -8.270044 14.078263
v 1.441336 -8.246381 14.176862
v 1.441336 -8.096512 14.322787
v 1.441336 -7.986082 14.354339
v 1.441336 -7.899316 14.310955
v 1.441336 -7.788886 14.279404
v 1.441336 -7.686344 14.350394
v 1.441336 -7.603522 14.342506
v 1.441336 -7.457597 14.216301
v 1.441336 -7.367277 14.059223
v 1.441336 -7.312300 14.031734
v 1.441336 -7.245542 13.992464
v 1.441336 -7.245542 13.917852
v 1.441336 -7.276957 13.874656
v 1.441336 -7.335861 13.847167
v 1.441336 -7.331934 13.745066
v 1.441336 -7.316226 13.709723
v 1.441336 -7.253395 13.682235
v 1.441336 -7.218052 13.646892
v 1.441336 -7.245541 13.544791
v 1.441336 -7.276957 13.485887
v 1.441336 -7.273029 13.446617
v 1.441336 -7.229833 13.426982
v 1.441336 -7.108097 13.375932
v 1.441336 -7.013850 13.360224
v 1.441336 -6.919603 13.348443
v 1.441336 -6.892115 13.372005
v 1.441336 -6.899969 13.478033
v 1.441336 -6.907823 13.552645
v 1.441336 -6.884261 13.650819
v 1.441336 -6.868553 13.843240
v 1.441336 -6.829284 13.972830
v 1.441336 -6.727182 14.090638
v 1.441336 -6.672205 14.094565
v 1.441336 -6.605447 14.051369
v 1.441336 -6.554397 14.031734
v 1.441336 -6.475857 14.039588
v 1.441336 -6.365902 14.133835
v 1.441336 -6.334487 14.133835
v 1.441336 -6.283436 14.071004
v 1.441336 -6.279510 13.929633
v 1.441336 -6.279510 13.796117
v 1.441336 -6.291290 13.780409
v 1.441336 -6.252021 13.701869
v 1.441336 -6.224532 13.686162
v 1.441336 -6.189189 13.627257
v 1.441336 -6.216678 13.533010
v 1.441336 -6.304440 13.483405
v 1.441336 -6.338782 13.548273
v 1.441336 -6.357862 13.586432
v 1.441336 -6.415098 13.574984
v 1.441336 -6.453256 13.449063
v 1.441336 -6.499045 13.304063
v 1.441336 -6.495230 13.243011
v 1.441336 -6.369578 13.258717
v 1.441336 -6.212515 13.313689
v 1.441336 -6.141836 13.388294
v 1.441336 -6.090791 13.439340
v 1.441336 -5.972994 13.443267
v 1.441336 -5.851270 13.482533
v 1.441336 -5.764885 13.541431
v 1.441336 -5.647087 13.612110
v 1.441336 -5.599968 13.612110
v 1.441336 -5.564629 13.572844
v 1.441336 -5.517509 13.513945
v 1.441336 -5.513583 13.443267
v 1.441336 -5.556775 13.376514
v 1.441336 -5.580335 13.309763
v 1.441336 -5.537143 13.215525
v 1.441336 -5.368299 13.007416
v 1.441336 -5.242648 12.897471
v 1.441336 -5.234796 12.830719
v 1.441336 -5.219089 12.716848
v 1.441336 -5.171969 12.630464
v 1.441336 -5.195529 12.563711
v 1.441336 -5.230868 12.489106
v 1.441336 -5.203382 12.441987
v 1.441336 -5.097364 12.335970
v 1.441336 -5.089512 12.300631
v 1.441336 -5.097364 12.226025
v 1.441336 -5.136630 12.174979
v 1.441336 -5.179823 12.167127
v 1.441336 -5.238722 12.155347
v 1.441336 -5.266208 12.120008
v 1.441336 -5.270135 12.006136
v 1.441336 -5.305474 11.927605
v 1.441336 -5.372226 11.923677
v 1.441336 -5.411491 11.888339
v 1.441336 -5.423271 11.754835
v 1.441336 -5.438978 11.601698
v 1.441336 -5.497877 11.495680
v 1.441336 -5.588188 11.397515
v 1.441336 -5.615675 11.358250
v 1.441336 -5.639235 11.228672
v 1.441336 -5.686354 11.150141
v 1.441336 -5.666720 11.087315
v 1.441336 -5.627455 11.040195
v 1.441336 -5.623528 10.953812
v 2.441336 -8.554007 10.761425
v 2.441336 -5.784708 10.749934
v 2.441336 -8.652605 10.749594
v 2.441336 -8.739371 10.682547
v 2.441336 -8.727539 10.658883
v 2.441336 -8.660492 10.572117
v 2.441336 -8.644716 10.516902
v 2.441336 -9.078547 10.173780
v 2.441336 -9.070660 10.055463
v 2.441336 -8.944454 10.023911
v 2.441336 -8.845856 9.885875
v 2.441336 -9.153481 9.558529
v 2.441336 -9.717463 9.223295
v 2.441336 -9.816061 8.876230
v 2.441336 -9.879164 8.856510
v 2.441336 -10.060584 8.793407
v 2.441336 -10.273556 8.848623
v 2.441336 -10.273556 8.892006
v 2.441336 -10.139462 9.022156
v 2.441336 -10.139462 9.073426
v 2.441336 -10.092135 9.136529
v 2.441336 -10.131575 9.168080
v 2.441336 -10.190734 9.136529
v 2.441336 -10.238061 9.101034
v 2.441336 -10.340603 9.116810
v 2.441336 -10.352435 9.258791
v 2.441336 -10.383986 9.306118
v 2.441336 -10.249893 9.384996
v 2.441336 -10.103968 9.377108
v 2.441336 -9.938323 9.495426
v 2.441336 -10.017201 9.578248
v 2.441336 -9.737183 9.806995
v 2.441336 -9.713519 9.858267
v 2.441336 -9.524211 9.905594
v 2.441336 -9.508435 9.929257
v 2.441336 -9.425612 9.992360
v 2.441336 -9.291519 10.016024
v 2.441336 -9.023333 10.465631
v 2.441336 -9.027277 10.560285
v 2.441336 -8.960230 10.568172
v 2.441336 -8.920791 10.560285
v 2.441336 -8.908958 10.591836
v 2.441336 -8.912903 10.674658
v 2.441336 -8.794585 10.903406
v 2.441336 -8.786697 11.155817
v 2.441336 -8.751202 11.258359
v 2.441336 -8.613164 11.463443
v 2.441336 -8.542173 11.522602
v 2.441336 -8.451463 11.546266
v 2.441336 -8.439631 11.562041
v 2.441336 -8.459351 11.609368
v 2.441336 -8.510622 11.664583
v 2.441336 -8.514566 11.822340
v 2.441336 -8.727538 11.822340
v 2.441336 -8.727538 12.027424
v 2.441336 -8.747258 12.102358
v 2.441336 -8.814305 12.149685
v 2.441336 -8.901072 12.279835
v 2.441336 -8.905016 12.366601
v 2.441336 -8.893184 12.484919
v 2.441336 -8.861632 12.496751
v 2.441336 -8.853745 12.469143
v 2.441336 -8.841912 12.366601
v 2.441336 -8.802473 12.327162
v 2.441336 -8.782753 12.386321
v 2.441336 -8.766977 12.433648
v 2.441336 -8.699930 12.449424
v 2.441336 -8.664434 12.429704
v 2.441336 -8.624995 12.370545
v 2.441336 -8.593444 12.338994
v 2.441336 -8.498790 12.319274
v 2.441336 -8.431743 12.275891
v 2.441336 -8.415967 12.236452
v 2.441336 -8.400191 12.133910
v 2.441336 -8.415967 12.082639
v 2.441336 -8.376528 12.051087
v 2.441336 -8.305537 12.090527
v 2.441336 -8.266098 12.161517
v 2.441336 -8.285818 12.228564
v 2.441336 -8.368641 12.338994
v 2.441336 -8.542173 12.520414
v 2.441336 -8.695987 12.551966
v 2.441336 -8.751202 12.583517
v 2.441336 -8.763034 12.713667
v 2.441336 -8.782754 12.784657
v 2.441336 -8.822193 12.828040
v 2.441336 -8.885296 12.816209
v 2.441336 -8.912904 12.717610
v 2.441336 -8.995727 12.725498
v 2.441336 -9.082493 12.796489
v 2.441336 -9.319128 13.151442
v 2.441336 -9.465054 13.392021
v 2.441336 -9.468998 13.522171
v 2.441336 -9.488718 13.660208
v 2.441336 -9.536045 13.699647
v 2.441336 -9.626756 13.703591
v 2.441336 -9.658307 13.810077
v 2.441336 -9.662251 14.070375
v 2.441336 -9.689859 14.216301
v 2.441336 -9.756907 14.523927
v 2.441336 -9.823954 14.669852
v 2.441336 -9.816066 14.748731
v 2.441336 -9.768739 14.807890
v 2.441336 -9.792402 14.882824
v 2.441336 -9.788458 14.965647
v 2.441336 -9.756907 14.993254
v 2.441336 -9.693804 14.934095
v 2.441336 -9.662252 14.807889
v 2.441336 -9.638589 14.543647
v 2.441336 -9.599150 14.421385
v 2.441336 -9.524215 14.334619
v 2.441336 -9.500551 14.228132
v 2.441336 -9.532103 14.149254
v 2.441336 -9.512383 14.058544
v 2.441336 -9.413784 13.908675
v 2.441336 -9.374345 13.790358
v 2.441336 -9.405896 13.743031
v 2.441336 -9.358569 13.683871
v 2.441336 -9.299410 13.672040
v 2.441336 -9.228419 13.534002
v 2.441336 -9.121933 13.459067
v 2.441336 -8.881353 13.344694
v 2.441336 -8.830082 13.411740
v 2.441336 -8.818250 13.494563
v 2.441336 -8.834025 13.541890
v 2.441336 -8.901073 13.612881
v 2.441336 -8.810362 13.679928
v 2.441336 -8.739371 13.743031
v 2.441336 -8.695988 13.857404
v 2.441336 -8.715708 13.892900
v 2.441336 -8.747259 13.948114
v 2.441336 -8.739371 13.995441
v 2.441336 -8.617109 14.026993
v 2.441336 -8.309484 13.975721
v 2.441336 -8.270044 14.078263
v 2.441336 -8.246381 14.176862
v 2.441336 -8.096512 14.322787
v 2.441336 -7.986082 14.354339
v 2.441336 -7.899316 14.310955
v 2.441336 -7.788886 14.279404
v 2.441336 -7.686344 14.350394
v 2.441336 -7.603522 14.342506
v 2.441336 -7.457597 14.216301
v 2.441336 -7.367277 14.059223
v 2.441336 -7.312300 14.031734
v 2.441336 -7.245542 13.992464
v 2.441336 -7.245542 13.917852
v 2.441336 -7.276957 13.874656
v 2.441336 -7.335861 13.847167
v 2.441336 -7.331934 13.745066
v 2.441336 -7.316226 13.709723
v 2.441336 -7.253395 13.682235
v 2.441336 -7.218052 13.646892
v 2.441336 -7.245541 13.544791
v 2.441336 -7.276957 13.485887
v 2.441336 -7.273029 13.446617
v 2.441336 -7.229833 13.426982
v 2.441336 -7.108097 13.375932
v 2.441336 -7.013850 13.360224
v 2.441336 -6.919603 13.348443
v 2.441336 -6.892115 13.372005
v 2.441336 -6.899969 13.478033
v 2.441336 -6.907823 13.552645
v 2.441336 -6.884261 13.650819
v 2.441336 -6.868553 13.843240
v 2.441336 -6.829284 13.972830
v 2.441336 -6.727182 14.090638
v 2.441336 -6.672205 14.094565
v 2.441336 -6.605447 14.051369
v 2.441336 -6.554397 14.031734
v 2.441336 -6.475857 14.039588
v 2.441336 -6.365902 14.133835
v 2.441336 -6.334487 14.133835
v 2.441336 -6.283436 14.071004
v 2.441336 -6.279510 13.929633
v 2.441336 -6.279510 13.796117
v 2.441336 -6.291290 13.780409
v 2.441336 -6.252021 13.701869
v 2.441336 -6.224532 13.686162
v 2.441336 -6.189189 13.627257
v 2.441336 -6.216678 13.533010
v 2.441336 -6.304440 13.483405
v 2.441336 -6.338782 13.548273
v 2.441336 -6.357862 13.586432
v 2.441336 -6.415098 13.574984
v 2.441336 -6.453256 13.449063
v 2.441336 -6.499045 13.304063
v 2.441336 -6.495230 13.243011
v 2.441336 -6.369578 13.258717
v 2.441336 -6.212515 13.313689
v 2.441336 -6.141836 13.388294
v 2.441336 -6.090791 13.439340
v 2.441336 -5.972994 13.443267
v 2.441336 -5.851270 13.482533
v 2.441336 -5.764885 13.541431
v 2.441336 -5.647087 13.612110
v 2.441336 -5.599968 13.612110
v 2.441336 -5.564629 13.572844
v 2.441336 -5.517509 13.513945
v 2.441336 -5.513583 13.443267
v 2.441336 -5.556775 13.376514
v 2.441336 -5.580335 13.309763
v 2.441336 -5.537143 13.215525
v 2.441336 -5.368299 13.007416
v 2.441336 -5.242648 12.897471
v 2.441336 -5.234796 12.830719
v 2.441336 -5.219089 12.716848
v 2.441336 -5.171969 12.630464
v 2.441336 -5.195529 12.563711
v 2.441336 -5.230868 12.489106
v 2.441336 -5.203382 12.441987
v 2.441336 -5.097364 12.335970
v 2.441336 -5.089512 12.300631
v 2.441336 -5.097364 12.226025
v 2.441336 -5.136630 12.174979
v 2.441336 -5.179823 12.167127
v 2.441336 -5.238722 12.155347
v 2.441336 -5.266208 12.120008
v 2.441336 -5.270135 12.006136
v 2.441336 -5.305474 11.927605
v 2.441336 -5.372226 11.923677
v 2.441336 -5.411491 11.888339
v 2.441336 -5.423271 11.754835
v 2.441336 -5.438978 11.601698
v 2.441336 -5.497877 11.495680
v 2.441336 -5.588188 11.397515
v 2.441336 -5.615675 11.358250
v 2.441336 -5.639235 11.228672
v 2.441336 -5.686354 11.150141
v 2.441336 -5.666720 11.087315
v 2.441336 -5.627455 11.040195
v 2.441336 -5.623528 10.953812
vn -1.0000 -0.0000 -0.0000
vn 1.0000 -0.0000 -0.0000
vn -0.0000 0.1191 -0.9929
vn -0.0000 -0.0041 -1.0000
vn -0.0000 0.6115 -0.7913
vn -0.0000 0.8944 0.4472
vn -0.0000 0.7913 0.6115
vn -0.0000 0.9615 0.2747
vn -0.0000 0.6203 -0.7843
vn -0.0000 0.9978 0.0665
vn -0.0000 0.2425 0.9701
vn -0.0000 0.8137 0.5812
vn -0.0000 0.7287 -0.6848
vn -0.0000 0.5110 -0.8596
vn -0.0000 0.9619 -0.2733
vn -0.0000 0.2983 -0.9545
vn -0.0000 0.3285 -0.9445
vn -0.0000 -0.2510 -0.9680
vn -0.0000 -1.0000 -0.0000
vn -0.0000 -0.6965 0.7176
vn -0.0000 -0.8000 0.6000
vn -0.0000 -0.6247 -0.7809
vn -0.0000 0.4706 -0.8824
vn -0.0000 0.6000 -0.8000
vn -0.0000 -0.1521 -0.9884
vn -0.0000 -0.9965 -0.0831
vn -0.0000 -0.8321 -0.5547
vn -0.0000 -0.5070 0.8619
vn -0.0000 0.0540 0.9985
vn -0.0000 -0.5812 0.8137
vn -0.0000 -0.7241 -0.6897
vn -0.0000 -0.6326 0.7744
vn -0.0000 -0.9080 0.4190
vn -0.0000 -0.2425 0.9701
vn -0.0000 -0.8321 0.5547
vn -0.0000 -0.6060 0.7954
vn -0.0000 -0.1738 0.9848
vn -0.0000 -0.8588 0.5123
vn -0.0000 -0.9991 -0.0416
vn -0.0000 -0.1168 0.9932
vn -0.0000 0.1961 0.9806
vn -0.0000 -0.9363 0.3511
vn -0.0000 -0.9989 -0.0476
vn -0.0000 -0.8882 0.4594
vn -0.0000 -0.9995 0.0312
vn -0.0000 -0.9450 0.3271
vn -0.0000 -0.8296 0.5584
vn -0.0000 -0.6402 0.7682
vn -0.0000 -0.2524 0.9676
vn -0.0000 -0.9231 -0.3846
vn -0.0000 -0.7328 -0.6805
vn -0.0000 -0.9997 -0.0250
vn -0.0000 -0.0000 -1.0000
vn -0.0000 -0.9671 -0.2545
vn -0.0000 -0.5767 -0.8170
vn -0.0000 -0.8320 -0.5547
vn -0.0000 -0.9990 -0.0454
vn -0.0000 -0.9950 0.0995
vn -0.0000 -0.3511 0.9363
vn -0.0000 0.9934 0.1146
vn -0.0000 0.7071 0.7071
vn -0.0000 -0.9487 0.3162
vn -0.0000 -0.2290 0.9734
vn -0.0000 0.4856 0.8742
vn -0.0000 0.8320 0.5547
vn -0.0000 0.2040 0.9790
vn -0.0000 0.5432 0.8396
vn -0.0000 0.9285 0.3714
vn -0.0000 0.9884 0.1521
vn -0.0000 0.9558 -0.2941
vn -0.0000 0.6247 0.7809
vn -0.0000 -0.4856 0.8742
vn -0.0000 -0.8742 0.4856
vn -0.0000 -0.9594 -0.2822
vn -0.0000 -0.8000 -0.6000
vn -0.0000 -0.7226 -0.6912
vn -0.0000 -0.2009 -0.9796
vn -0.0000 -0.4961 -0.8682
vn -0.0000 -0.9959 -0.0905
vn -0.0000 -0.9635 -0.2676
vn -0.0000 -0.7399 -0.6727
vn -0.0000 0.1843 -0.9829
vn -0.0000 0.9630 -0.2696
vn -0.0000 -0.0948 -0.9955
vn -0.0000 -0.6332 -0.7740
vn -0.0000 -0.8550 -0.5186
vn -0.0000 -0.9995 -0.0303
vn -0.0000 -0.9899 -0.1414
vn -0.0000 -0.6402 -0.7682
vn -0.0000 -0.0434 -0.9991
vn -0.0000 -0.9588 -0.2841
vn -0.0000 -0.9999 -0.0152
vn -0.0000 -0.9826 -0.1859
vn -0.0000 -0.9771 -0.2130
vn -0.0000 -0.9087 -0.4175
vn -0.0000 -0.7809 0.6247
vn -0.0000 -0.9536 -0.3011
vn -0.0000 -0.9989 0.0476
vn -0.0000 -0.6585 0.7526
vn -0.0000 0.6839 0.7295
vn -0.0000 0.9701 0.2425
vn -0.0000 0.9960 0.0892
vn -0.0000 0.9517 0.3070
vn -0.0000 0.7568 0.6536
vn -0.0000 0.9762 0.2169
vn -0.0000 0.9285 -0.3714
vn -0.0000 0.9772 0.2124
vn -0.0000 0.8354 0.5496
vn -0.0000 0.9487 0.3162
vn -0.0000 0.8321 -0.5547
vn -0.0000 0.7809 0.6247
vn -0.0000 0.8893 0.4574
vn -0.0000 0.5755 0.8178
vn -0.0000 0.4294 0.9031
vn -0.0000 -0.7944 0.6075
vn -0.0000 -0.9899 0.1414
vn -0.0000 -0.9487 -0.3162
vn -0.0000 -0.7270 -0.6866
vn -0.0000 -0.5944 0.8042
vn -0.0000 -0.6644 0.7474
vn -0.0000 -0.9350 0.3547
vn -0.0000 -0.8742 -0.4857
vn -0.0000 -0.8682 -0.4961
vn -0.0000 -0.9864 0.1644
vn -0.0000 -0.2499 0.9683
vn -0.0000 0.1644 0.9864
vn -0.0000 -0.9333 0.3590
vn -0.0000 -0.9724 0.2334
vn -0.0000 -0.6976 0.7165
vn -0.0000 -0.2747 0.9615
vn -0.0000 0.4472 0.8944
vn -0.0000 0.2747 0.9615
vn -0.0000 -0.5692 0.8222
vn -0.0000 0.0948 0.9955
vn -0.0000 0.6542 0.7564
vn -0.0000 0.8669 0.4985
vn -0.0000 0.5070 0.8619
vn -0.0000 1.0000 -0.0000
vn -0.0000 0.8087 -0.5882
vn -0.0000 0.4229 -0.9062
vn -0.0000 0.9993 0.0384
vn -0.0000 0.9138 0.4061
vn -0.0000 0.4008 0.9162
vn -0.0000 0.9656 -0.2600
vn -0.0000 0.8824 -0.4706
vn -0.0000 0.9950 0.0995
vn -0.0000 0.4138 0.9104
vn -0.0000 0.3867 0.9222
vn -0.0000 0.1240 0.9923
vn -0.0000 -0.6508 0.7593
vn -0.0000 -0.9973 -0.0739
vn -0.0000 -0.9945 -0.1047
vn -0.0000 -0.9967 0.0814
vn -0.0000 -0.9570 0.2900
vn -0.0000 -0.7557 0.6549
vn -0.0000 -0.0712 0.9975
vn -0.0000 0.5433 0.8396
vn -0.0000 0.3590 0.9333
vn -0.0000 -0.0995 0.9950
vn -0.0000 -0.0000 1.0000
vn -0.0000 0.7761 0.6306
vn -0.0000 0.9996 0.0278
vn -0.0000 0.8000 -0.6000
vn -0.0000 0.4961 0.8682
vn -0.0000 0.8575 0.5145
vn -0.0000 0.9600 -0.2800
vn -0.0000 0.4921 -0.8706
vn -0.0000 -0.8838 -0.4679
vn -0.0000 -0.8944 -0.4472
vn -0.0000 0.1961 -0.9806
vn -0.0000 0.9570 -0.2900
vn -0.0000 0.9536 -0.3011
vn -0.0000 0.9981 0.0624
vn -0.0000 -0.1240 0.9923
vn -0.0000 -0.3304 0.9439
vn -0.0000 -0.7260 0.6877
vn -0.0000 -0.7071 0.7071
vn -0.0000 -0.0333 0.9994
vn -0.0000 -0.3070 0.9517
vn -0.0000 -0.5633 0.8262
vn -0.0000 -0.5145 0.8575
vn -0.0000 0.7433 0.6690
vn -0.0000 0.9985 0.0555
vn -0.0000 0.8396 -0.5432
vn -0.0000 0.9430 -0.3328
vn -0.0000 0.9091 0.4167
vn -0.0000 0.7766 0.6300
vn -0.0000 0.6585 0.7526
vn -0.0000 0.9932 0.1168
vn -0.0000 0.9906 0.1366
vn -0.0000 0.8779 0.4789
vn -0.0000 0.9037 -0.4281
vn -0.0000 0.8638 0.5039
vn -0.0000 0.9945 -0.1047
vn -0.0000 0.7926 -0.6097
vn -0.0000 0.1789 -0.9839
vn -0.0000 0.7893 -0.6140
vn -0.0000 0.9994 -0.0345
vn -0.0000 0.9119 -0.4104
vn -0.0000 0.0587 -0.9983
vn -0.0000 0.6690 -0.7433
vn -0.0000 0.9961 -0.0879
vn -0.0000 0.9948 -0.1020
vn -0.0000 0.8742 -0.4856
vn -0.0000 0.7359 -0.6771
vn -0.0000 0.8192 -0.5735
vn -0.0000 0.9839 -0.1789
vn -0.0000 0.8575 -0.5145
vn -0.0000 0.9545 0.2983
vn -0.0000 0.7682 0.6402
vn -0.0000 0.9990 0.0454
vn -0.0000 0.7845 -0.6202
vn -1.0000 -0.0001 -0.0000
vn -1.0000 0.0001 -0.0000
vn -1.0000 -0.0004 -0.0000
vn -1.0000 0.0010 -0.0000
vn 1.0000 0.0001 -0.0000
vn 1.0000 0.0005 -0.0000
vn 1.0000 0.0004 -0.0000
vn 1.0000 -0.0002 -0.0000
vn -0.0000 0.6114 -0.7913
vn -0.0000 0.8944 0.4473
vn -0.0000 -0.9965 -0.0830
vn -0.0000 -0.9080 0.4191
vn -0.0000 -0.9363 0.3512
vn -0.0000 0.9615 0.2748
vn -0.0000 0.8321 0.5547
vn -0.0000 -0.8742 0.4857
vn -0.0000 0.8893 0.4573
vn -0.0000 -0.9900 0.1414
vn -0.0000 0.8396 -0.5433
vn -0.0000 0.7894 -0.6139
vt 0.000000 0.000000
s 0
f 103/1/1 106/1/1 109/1/1
f 341/1/2 339/1/2 335/1/2
f 1/1/3 235/1/3 3/1/3
f 2/1/4 233/1/4 1/1/4
f 3/1/5 236/1/5 4/1/5
f 4/1/6 237/1/6 5/1/6
f 5/1/7 238/1/7 6/1/7
f 6/1/8 239/1/8 7/1/8
f 7/1/9 240/1/9 8/1/9
f 8/1/10 241/1/10 9/1/10
f 9/1/11 242/1/11 10/1/11
f 10/1/12 243/1/12 11/1/12
f 11/1/13 244/1/13 12/1/13
f 12/1/14 245/1/14 13/1/14
f 13/1/15 246/1/15 14/1/15
f 14/1/16 247/1/16 15/1/16
f 15/1/17 248/1/17 16/1/17
f 16/1/18 249/1/18 17/1/18
f 17/1/19 250/1/19 18/1/19
f 18/1/20 251/1/20 19/1/20
f 19/1/19 252/1/19 20/1/19
f 20/1/21 253/1/21 21/1/21
f 21/1/22 254/1/22 22/1/22
f 22/1/23 255/1/23 23/1/23
f 23/1/24 256/1/24 24/1/24
f 24/1/25 257/1/25 25/1/25
f 25/1/26 258/1/26 26/1/26
f 26/1/27 259/1/27 27/1/27
f 27/1/28 260/1/28 28/1/28
f 28/1/29 261/1/29 29/1/29
f 29/1/30 262/1/30 30/1/30
f 30/1/31 263/1/31 31/1/31
f 31/1/32 264/1/32 32/1/32
f 32/1/33 265/1/33 33/1/33
f 33/1/34 266/1/34 34/1/34
f 34/1/35 267/1/35 35/1/35
f 35/1/36 268/1/36 36/1/36
f 36/1/37 269/1/37 37/1/37
f 37/1/38 270/1/38 38/1/38
f 38/1/39 271/1/39 39/1/39
f 39/1/40 272/1/40 40/1/40
f 40/1/41 273/1/41 41/1/41
f 41/1/42 274/1/42 42/1/42
f 42/1/43 275/1/43 43/1/43
f 43/1/44 276/1/44 44/1/44
f 44/1/45 277/1/45 45/1/45
f 45/1/46 278/1/46 46/1/46
f 46/1/47 279/1/47 47/1/47
f 47/1/48 280/1/48 48/1/48
f 48/1/49 281/1/49 49/1/49
f 49/1/21 282/1/21 50/1/21
f 50/1/50 283/1/50 51/1/50
f 51/1/51 284/1/51 52/1/51
f 52/1/52 285/1/52 53/1/52
f 53/1/53 286/1/53 54/1/53
f 54/1/19 287/1/19 55/1/19
f 55/1/54 288/1/54 56/1/54
f 56/1/55 289/1/55 57/1/55
f 57/1/56 290/1/56 58/1/56
f 58/1/57 291/1/57 59/1/57
f 59/1/58 292/1/58 60/1/58
f 60/1/59 293/1/59 61/1/59
f 61/1/8 294/1/8 62/1/8
f 62/1/60 295/1/60 63/1/60
f 63/1/61 296/1/61 64/1/61
f 64/1/62 297/1/62 65/1/62
f 65/1/62 298/1/62 66/1/62
f 66/1/63 299/1/63 67/1/63
f 67/1/64 300/1/64 68/1/64
f 68/1/65 301/1/65 69/1/65
f 69/1/61 302/1/61 70/1/61
f 70/1/66 303/1/66 71/1/66
f 71/1/67 304/1/67 72/1/67
f 72/1/68 305/1/68 73/1/68
f 73/1/69 306/1/69 74/1/69
f 74/1/70 307/1/70 75/1/70
f 75/1/71 308/1/71 76/1/71
f 76/1/72 309/1/72 77/1/72
f 77/1/73 310/1/73 78/1/73
f 78/1/74 311/1/74 79/1/74
f 79/1/75 312/1/75 80/1/75
f 80/1/76 313/1/76 81/1/76
f 81/1/77 314/1/77 82/1/77
f 82/1/78 315/1/78 83/1/78
f 83/1/79 316/1/79 84/1/79
f 84/1/80 317/1/80 85/1/80
f 85/1/81 318/1/81 86/1/81
f 86/1/82 319/1/82 87/1/82
f 87/1/83 320/1/83 88/1/83
f 88/1/84 321/1/84 89/1/84
f 89/1/85 322/1/85 90/1/85
f 90/1/27 323/1/27 91/1/27
f 91/1/86 324/1/86 92/1/86
f 92/1/87 325/1/87 93/1/87
f 93/1/88 326/1/88 94/1/88
f 94/1/89 327/1/89 95/1/89
f 95/1/90 328/1/90 96/1/90
f 96/1/91 329/1/91 97/1/91
f 97/1/92 330/1/92 98/1/92
f 98/1/93 331/1/93 99/1/93
f 99/1/94 332/1/94 100/1/94
f 100/1/95 333/1/95 101/1/95
f 101/1/58 334/1/58 102/1/58
f 102/1/96 335/1/96 103/1/96
f 103/1/97 336/1/97 104/1/97
f 104/1/98 337/1/98 105/1/98
f 105/1/99 338/1/99 106/1/99
f 106/1/100 339/1/100 107/1/100
f 107/1/101 340/1/101 108/1/101
f 108/1/102 341/1/102 109/1/102
f 109/1/103 342/1/103 110/1/103
f 110/1/104 343/1/104 111/1/104
f 111/1/105 344/1/105 112/1/105
f 112/1/106 345/1/106 113/1/106
f 113/1/107 346/1/107 114/1/107
f 114/1/108 347/1/108 115/1/108
f 115/1/109 348/1/109 116/1/109
f 116/1/110 349/1/110 117/1/110
f 117/1/111 350/1/111 118/1/111
f 118/1/41 351/1/41 119/1/41
f 119/1/112 352/1/112 120/1/112
f 120/1/113 353/1/113 121/1/113
f 121/1/114 354/1/114 122/1/114
f 122/1/115 355/1/115 123/1/115
f 123/1/116 356/1/116 124/1/116
f 124/1/117 357/1/117 125/1/117
f 125/1/118 358/1/118 126/1/118
f 126/1/119 359/1/119 127/1/119
f 127/1/120 360/1/120 128/1/120
f 128/1/121 361/1/121 129/1/121
f 129/1/122 362/1/122 130/1/122
f 130/1/123 363/1/123 131/1/123
f 131/1/124 364/1/124 132/1/124
f 132/1/125 365/1/125 133/1/125
f 133/1/126 366/1/126 134/1/126
f 134/1/127 367/1/127 135/1/127
f 135/1/128 368/1/128 136/1/128
f 136/1/129 369/1/129 137/1/129
f 137/1/130 370/1/130 138/1/130
f 138/1/131 371/1/131 139/1/131
f 139/1/132 372/1/132 140/1/132
f 140/1/133 373/1/133 141/1/133
f 141/1/134 374/1/134 142/1/134
f 142/1/135 375/1/135 143/1/135
f 143/1/136 376/1/136 144/1/136
f 144/1/131 377/1/131 145/1/131
f 145/1/137 378/1/137 146/1/137
f 146/1/138 379/1/138 147/1/138
f 147/1/139 380/1/139 148/1/139
f 148/1/140 381/1/140 149/1/140
f 149/1/141 382/1/141 150/1/141
f 150/1/142 383/1/142 151/1/142
f 151/1/143 384/1/143 152/1/143
f 152/1/61 385/1/61 153/1/61
f 153/1/144 386/1/144 154/1/144
f 154/1/145 387/1/145 155/1/145
f 155/1/146 388/1/146 156/1/146
f 156/1/147 389/1/147 157/1/147
f 157/1/148 390/1/148 158/1/148
f 158/1/126 391/1/126 159/1/126
f 159/1/149 392/1/149 160/1/149
f 160/1/150 393/1/150 161/1/150
f 161/1/151 394/1/151 162/1/151
f 162/1/152 395/1/152 163/1/152
f 163/1/128 396/1/128 164/1/128
f 164/1/153 397/1/153 165/1/153
f 165/1/154 398/1/154 166/1/154
f 166/1/155 399/1/155 167/1/155
f 167/1/156 400/1/156 168/1/156
f 168/1/157 401/1/157 169/1/157
f 169/1/158 402/1/158 170/1/158
f 170/1/159 403/1/159 171/1/159
f 171/1/150 404/1/150 172/1/150
f 172/1/160 405/1/160 173/1/160
f 173/1/161 406/1/161 174/1/161
f 174/1/162 407/1/162 175/1/162
f 175/1/138 408/1/138 176/1/138
f 176/1/163 409/1/163 177/1/163
f 177/1/6 410/1/6 178/1/6
f 178/1/164 411/1/164 179/1/164
f 179/1/165 412/1/165 180/1/165
f 180/1/166 413/1/166 181/1/166
f 181/1/167 414/1/167 182/1/167
f 182/1/168 415/1/168 183/1/168
f 183/1/169 416/1/169 184/1/169
f 184/1/170 417/1/170 185/1/170
f 185/1/171 418/1/171 186/1/171
f 186/1/172 419/1/172 187/1/172
f 187/1/173 420/1/173 188/1/173
f 188/1/174 421/1/174 189/1/174
f 189/1/175 422/1/175 190/1/175
f 190/1/176 423/1/176 191/1/176
f 191/1/177 424/1/177 192/1/177
f 192/1/178 425/1/178 193/1/178
f 193/1/179 426/1/179 194/1/179
f 194/1/180 427/1/180 195/1/180
f 195/1/181 428/1/181 196/1/181
f 196/1/160 429/1/160 197/1/160
f 197/1/182 430/1/182 198/1/182
f 198/1/111 431/1/111 199/1/111
f 199/1/183 432/1/183 200/1/183
f 200/1/184 433/1/184 201/1/184
f 201/1/185 434/1/185 202/1/185
f 202/1/186 435/1/186 203/1/186
f 203/1/187 436/1/187 204/1/187
f 204/1/188 437/1/188 205/1/188
f 205/1/189 438/1/189 206/1/189
f 206/1/190 439/1/190 207/1/190
f 207/1/191 440/1/191 208/1/191
f 208/1/185 441/1/185 209/1/185
f 209/1/192 442/1/192 210/1/192
f 210/1/193 443/1/193 211/1/193
f 211/1/61 444/1/61 212/1/61
f 212/1/105 445/1/105 213/1/105
f 213/1/194 446/1/194 214/1/194
f 214/1/195 447/1/195 215/1/195
f 215/1/196 448/1/196 216/1/196
f 216/1/170 449/1/170 217/1/170
f 217/1/197 450/1/197 218/1/197
f 218/1/198 451/1/198 219/1/198
f 219/1/199 452/1/199 220/1/199
f 220/1/200 453/1/200 221/1/200
f 221/1/201 454/1/201 222/1/201
f 222/1/202 455/1/202 223/1/202
f 223/1/203 456/1/203 224/1/203
f 224/1/204 457/1/204 225/1/204
f 225/1/205 458/1/205 226/1/205
f 226/1/206 459/1/206 227/1/206
f 227/1/207 460/1/207 228/1/207
f 228/1/208 461/1/208 229/1/208
f 229/1/209 462/1/209 230/1/209
f 230/1/210 463/1/210 231/1/210
f 231/1/211 464/1/211 232/1/211
f 232/1/212 234/1/212 2/1/212
f 5/1/1 6/1/1 7/1/1
f 5/1/1 7/1/1 8/1/1
f 4/1/1 5/1/1 8/1/1
f 9/1/1 10/1/1 11/1/1
f 9/1/1 11/1/1 12/1/1
f 13/1/1 14/1/1 15/1/1
f 9/1/1 12/1/1 13/1/1
f 8/1/1 9/1/1 13/1/1
f 13/1/1 15/1/1 16/1/1
f 16/1/1 17/1/1 18/1/1
f 19/1/1 20/1/1 21/1/1
f 16/1/1 18/1/1 19/1/1
f 8/1/1 13/1/1 16/1/1
f 4/1/1 8/1/1 16/1/1
f 16/1/1 19/1/1 21/1/1
f 232/1/1 2/1/1 1/1/1
f 230/1/1 231/1/1 232/1/1
f 227/1/1 228/1/1 229/1/1
f 230/1/1 232/1/1 1/1/1
f 229/1/1 230/1/1 1/1/1
f 229/1/1 1/1/1 3/1/1
f 227/1/1 229/1/1 3/1/1
f 226/1/1 227/1/1 3/1/1
f 224/1/1 225/1/1 226/1/1
f 222/1/1 223/1/1 224/1/1
f 219/1/1 220/1/1 221/1/1
f 222/1/1 224/1/1 226/1/1
f 218/1/1 219/1/1 221/1/1
f 222/1/1 226/1/1 3/1/1
f 218/1/1 221/1/1 222/1/1
f 218/1/1 222/1/1 3/1/1
f 217/1/1 218/1/1 3/1/1
f 214/1/1 215/1/1 216/1/1
f 214/1/1 216/1/1 217/1/1
f 212/1/1 213/1/1 214/1/1
f 211/1/1 212/1/1 214/1/1
f 214/1/1 217/1/1 3/1/1
f 211/1/1 214/1/1 3/1/1
f 208/1/1 209/1/1 210/1/1
f 210/1/1 211/1/1 3/1/1
f 208/1/1 210/1/1 3/1/1
f 207/1/1 208/1/1 3/1/1
f 206/1/1 207/1/1 3/1/1
f 204/1/1 205/1/1 206/1/1
f 203/1/1 204/1/1 206/1/1
f 203/1/1 206/1/1 3/1/1
f 202/1/1 203/1/1 3/1/1
f 202/1/1 3/1/1 4/1/1
f 199/1/1 200/1/1 201/1/1
f 201/1/1 202/1/1 4/1/1
f 23/1/1 24/1/1 25/1/1
f 26/1/1 27/1/1 28/1/1
f 23/1/1 25/1/1 26/1/1
f 22/1/1 23/1/1 26/1/1
f 26/1/1 28/1/1 29/1/1
f 30/1/1 31/1/1 32/1/1
f 22/1/1 26/1/1 29/1/1
f 22/1/1 29/1/1 30/1/1
f 21/1/1 22/1/1 30/1/1
f 32/1/1 33/1/1 34/1/1
f 21/1/1 30/1/1 32/1/1
f 199/1/1 201/1/1 4/1/1
f 197/1/213 198/1/213 199/1/213
f 195/1/1 196/1/1 197/1/1
f 194/1/1 195/1/1 197/1/1
f 197/1/1 199/1/1 4/1/1
f 16/1/1 21/1/1 32/1/1
f 34/1/1 35/1/1 36/1/1
f 16/1/1 32/1/1 34/1/1
f 194/1/1 197/1/1 4/1/1
f 16/1/1 34/1/1 36/1/1
f 16/1/1 36/1/1 37/1/1
f 193/1/1 194/1/1 4/1/1
f 4/1/1 16/1/1 37/1/1
f 38/1/1 39/1/1 40/1/1
f 4/1/1 37/1/1 38/1/1
f 192/1/1 193/1/1 4/1/1
f 190/1/214 191/1/214 192/1/214
f 190/1/1 192/1/1 4/1/1
f 38/1/1 40/1/1 41/1/1
f 42/1/1 43/1/1 44/1/1
f 4/1/1 38/1/1 41/1/1
f 4/1/1 41/1/1 42/1/1
f 189/1/1 190/1/1 4/1/1
f 188/1/1 189/1/1 4/1/1
f 4/1/1 42/1/1 44/1/1
f 44/1/1 45/1/1 46/1/1
f 46/1/1 47/1/1 48/1/1
f 46/1/1 48/1/1 49/1/1
f 4/1/1 44/1/1 46/1/1
f 187/1/1 188/1/1 4/1/1
f 185/1/1 186/1/1 187/1/1
f 182/1/215 183/1/215 184/1/215
f 185/1/1 187/1/1 4/1/1
f 181/1/1 182/1/1 184/1/1
f 180/1/1 181/1/1 184/1/1
f 178/1/1 179/1/1 180/1/1
f 175/1/1 176/1/1 177/1/1
f 178/1/1 180/1/1 184/1/1
f 174/1/1 175/1/1 177/1/1
f 177/1/1 178/1/1 184/1/1
f 177/1/1 184/1/1 185/1/1
f 173/1/1 174/1/1 177/1/1
f 171/1/1 172/1/1 173/1/1
f 171/1/1 173/1/1 177/1/1
f 177/1/1 185/1/1 4/1/1
f 4/1/1 46/1/1 49/1/1
f 4/1/1 49/1/1 50/1/1
f 170/1/1 171/1/1 177/1/1
f 167/1/1 168/1/1 169/1/1
f 169/1/1 170/1/1 177/1/1
f 177/1/1 4/1/1 50/1/1
f 51/1/1 52/1/1 53/1/1
f 177/1/1 50/1/1 51/1/1
f 167/1/1 169/1/1 177/1/1
f 165/1/1 166/1/1 167/1/1
f 162/1/1 163/1/1 164/1/1
f 164/1/1 165/1/1 167/1/1
f 177/1/1 51/1/1 53/1/1
f 53/1/1 54/1/1 55/1/1
f 56/1/1 57/1/1 58/1/1
f 53/1/1 55/1/1 56/1/1
f 164/1/1 167/1/1 177/1/1
f 161/1/1 162/1/1 164/1/1
f 161/1/1 164/1/1 177/1/1
f 56/1/1 58/1/1 59/1/1
f 59/1/1 60/1/1 61/1/1
f 61/1/1 62/1/1 63/1/1
f 59/1/1 61/1/1 63/1/1
f 53/1/1 56/1/1 59/1/1
f 161/1/1 177/1/1 53/1/1
f 160/1/1 161/1/1 53/1/1
f 53/1/1 59/1/1 63/1/1
f 53/1/1 63/1/1 64/1/1
f 159/1/1 160/1/1 53/1/1
f 158/1/1 159/1/1 53/1/1
f 53/1/1 64/1/1 65/1/1
f 65/1/1 66/1/1 67/1/1
f 67/1/1 68/1/1 69/1/1
f 70/1/1 71/1/1 72/1/1
f 65/1/1 67/1/1 69/1/1
f 70/1/1 72/1/1 73/1/1
f 65/1/1 69/1/1 70/1/1
f 157/1/1 158/1/1 53/1/1
f 53/1/1 65/1/1 70/1/1
f 70/1/1 73/1/1 74/1/1
f 70/1/1 74/1/1 75/1/1
f 153/1/1 154/1/1 155/1/1
f 151/1/1 152/1/1 153/1/1
f 151/1/1 153/1/1 155/1/1
f 151/1/214 155/1/214 156/1/214
f 150/1/1 151/1/1 156/1/1
f 53/1/1 70/1/1 75/1/1
f 53/1/1 75/1/1 76/1/1
f 147/1/1 148/1/1 149/1/1
f 145/1/1 146/1/1 147/1/1
f 142/1/1 143/1/1 144/1/1
f 144/1/1 145/1/1 147/1/1
f 144/1/1 147/1/1 149/1/1
f 141/1/1 142/1/1 144/1/1
f 140/1/1 141/1/1 144/1/1
f 144/1/1 149/1/1 150/1/1
f 140/1/1 144/1/1 150/1/1
f 137/1/1 138/1/1 139/1/1
f 139/1/1 140/1/1 150/1/1
f 139/1/1 150/1/1 156/1/1
f 136/1/1 137/1/1 139/1/1
f 135/1/1 136/1/1 139/1/1
f 135/1/1 139/1/1 156/1/1
f 132/1/1 133/1/1 134/1/1
f 134/1/1 135/1/1 156/1/1
f 53/1/1 76/1/1 77/1/1
f 157/1/1 53/1/1 77/1/1
f 132/1/1 134/1/1 156/1/1
f 156/1/1 157/1/1 77/1/1
f 156/1/1 77/1/1 78/1/1
f 131/1/1 132/1/1 156/1/1
f 130/1/1 131/1/1 156/1/1
f 156/1/1 78/1/1 79/1/1
f 156/1/1 79/1/1 80/1/1
f 129/1/1 130/1/1 156/1/1
f 128/1/1 129/1/1 156/1/1
f 156/1/1 80/1/1 81/1/1
f 81/1/1 82/1/1 83/1/1
f 81/1/1 83/1/1 84/1/1
f 128/1/1 156/1/1 81/1/1
f 125/1/1 126/1/1 127/1/1
f 127/1/1 128/1/1 81/1/1
f 81/1/1 84/1/1 85/1/1
f 81/1/216 85/1/216 86/1/216
f 124/1/1 125/1/1 127/1/1
f 124/1/1 127/1/1 81/1/1
f 124/1/1 81/1/1 86/1/1
f 123/1/1 124/1/1 86/1/1
f 87/1/1 88/1/1 89/1/1
f 123/1/1 86/1/1 87/1/1
f 122/1/1 123/1/1 87/1/1
f 87/1/1 89/1/1 90/1/1
f 90/1/1 91/1/1 92/1/1
f 90/1/1 92/1/1 93/1/1
f 122/1/1 87/1/1 90/1/1
f 121/1/1 122/1/1 90/1/1
f 90/1/1 93/1/1 94/1/1
f 95/1/1 96/1/1 97/1/1
f 121/1/1 90/1/1 94/1/1
f 94/1/214 95/1/214 97/1/214
f 94/1/1 97/1/1 98/1/1
f 120/1/1 121/1/1 94/1/1
f 118/1/1 119/1/1 120/1/1
f 115/1/1 116/1/1 117/1/1
f 118/1/1 120/1/1 94/1/1
f 114/1/1 115/1/1 117/1/1
f 117/1/1 118/1/1 94/1/1
f 94/1/1 98/1/1 99/1/1
f 100/1/1 101/1/1 102/1/1
f 94/1/1 99/1/1 100/1/1
f 114/1/1 117/1/1 94/1/1
f 111/1/1 112/1/1 113/1/1
f 113/1/1 114/1/1 94/1/1
f 94/1/1 100/1/1 102/1/1
f 103/1/1 104/1/1 105/1/1
f 94/1/1 102/1/1 103/1/1
f 110/1/1 111/1/1 113/1/1
f 113/1/1 94/1/1 103/1/1
f 103/1/1 105/1/1 106/1/1
f 106/1/1 107/1/1 108/1/1
f 109/1/1 110/1/1 113/1/1
f 106/1/1 108/1/1 109/1/1
f 109/1/1 113/1/1 103/1/1
f 233/1/2 234/1/2 464/1/2
f 464/1/2 463/1/2 462/1/2
f 461/1/2 460/1/2 459/1/2
f 233/1/2 464/1/2 462/1/2
f 233/1/2 462/1/2 461/1/2
f 235/1/2 233/1/2 461/1/2
f 235/1/2 461/1/2 459/1/2
f 235/1/2 459/1/2 458/1/2
f 458/1/2 457/1/2 456/1/2
f 456/1/2 455/1/2 454/1/2
f 453/1/2 452/1/2 451/1/2
f 458/1/2 456/1/2 454/1/2
f 453/1/2 451/1/2 450/1/2
f 235/1/2 458/1/2 454/1/2
f 454/1/2 453/1/2 450/1/2
f 235/1/2 454/1/2 450/1/2
f 235/1/2 450/1/2 449/1/2
f 448/1/2 447/1/2 446/1/2
f 449/1/2 448/1/2 446/1/2
f 446/1/2 445/1/2 444/1/2
f 446/1/2 444/1/2 443/1/2
f 235/1/2 449/1/2 446/1/2
f 235/1/2 446/1/2 443/1/2
f 442/1/2 441/1/2 440/1/2
f 235/1/2 443/1/2 442/1/2
f 235/1/2 442/1/2 440/1/2
f 235/1/2 440/1/2 439/1/2
f 235/1/2 439/1/2 438/1/2
f 438/1/2 437/1/2 436/1/2
f 438/1/2 436/1/2 435/1/2
f 235/1/2 438/1/2 435/1/2
f 235/1/2 435/1/2 434/1/2
f 236/1/2 235/1/2 434/1/2
f 433/1/2 432/1/2 431/1/2
f 236/1/2 434/1/2 433/1/2
f 239/1/2 238/1/2 237/1/2
f 236/1/2 433/1/2 431/1/2
f 240/1/2 239/1/2 237/1/2
f 236/1/2 431/1/2 430/1/2
f 240/1/2 237/1/2 236/1/2
f 243/1/2 242/1/2 241/1/2
f 244/1/2 243/1/2 241/1/2
f 247/1/2 246/1/2 245/1/2
f 245/1/2 244/1/2 241/1/2
f 245/1/2 241/1/2 240/1/2
f 248/1/2 247/1/2 245/1/2
f 250/1/2 249/1/2 248/1/2
f 253/1/2 252/1/2 251/1/2
f 251/1/2 250/1/2 248/1/2
f 248/1/2 245/1/2 240/1/2
f 236/1/2 430/1/2 429/1/2
f 248/1/2 240/1/2 236/1/2
f 253/1/2 251/1/2 248/1/2
f 236/1/2 429/1/2 428/1/2
f 428/1/217 427/1/217 426/1/217
f 425/1/2 424/1/2 423/1/2
f 236/1/2 428/1/2 426/1/2
f 426/1/218 425/1/218 423/1/218
f 426/1/2 423/1/2 422/1/2
f 236/1/2 426/1/2 422/1/2
f 236/1/2 422/1/2 421/1/2
f 257/1/2 256/1/2 255/1/2
f 260/1/2 259/1/2 258/1/2
f 258/1/2 257/1/2 255/1/2
f 258/1/2 255/1/2 254/1/2
f 261/1/2 260/1/2 258/1/2
f 264/1/2 263/1/2 262/1/2
f 261/1/2 258/1/2 254/1/2
f 262/1/2 261/1/2 254/1/2
f 262/1/2 254/1/2 253/1/2
f 266/1/2 265/1/2 264/1/2
f 264/1/2 262/1/2 253/1/2
f 236/1/2 421/1/2 420/1/2
f 419/1/2 418/1/2 417/1/2
f 236/1/2 420/1/2 419/1/2
f 264/1/2 253/1/2 248/1/2
f 268/1/2 267/1/2 266/1/2
f 266/1/2 264/1/2 248/1/2
f 236/1/2 419/1/2 417/1/2
f 268/1/2 266/1/2 248/1/2
f 269/1/2 268/1/2 248/1/2
f 269/1/2 248/1/2 236/1/2
f 272/1/2 271/1/2 270/1/2
f 270/1/2 269/1/2 236/1/2
f 273/1/2 272/1/2 270/1/2
f 276/1/2 275/1/2 274/1/2
f 273/1/2 270/1/2 236/1/2
f 274/1/2 273/1/2 236/1/2
f 274/1/2 236/1/2 417/1/2
f 278/1/2 277/1/2 276/1/2
f 276/1/2 274/1/2 417/1/2
f 416/1/219 415/1/219 414/1/219
f 416/1/2 414/1/2 413/1/2
f 413/1/2 412/1/2 411/1/2
f 413/1/2 411/1/2 410/1/2
f 416/1/2 413/1/2 410/1/2
f 409/1/2 408/1/2 407/1/2
f 416/1/2 410/1/2 409/1/2
f 417/1/2 416/1/2 409/1/2
f 409/1/2 407/1/2 406/1/2
f 406/1/2 405/1/2 404/1/2
f 406/1/2 404/1/2 403/1/2
f 417/1/2 409/1/2 406/1/2
f 279/1/2 278/1/2 276/1/2
f 281/1/2 280/1/2 279/1/2
f 281/1/2 279/1/2 276/1/2
f 276/1/2 417/1/2 406/1/2
f 281/1/2 276/1/2 406/1/2
f 282/1/220 281/1/220 406/1/220
f 285/1/2 284/1/2 283/1/2
f 287/1/2 286/1/2 285/1/2
f 290/1/2 289/1/2 288/1/2
f 288/1/2 287/1/2 285/1/2
f 285/1/2 283/1/2 282/1/2
f 401/1/2 400/1/2 399/1/2
f 399/1/2 398/1/2 397/1/2
f 396/1/2 395/1/2 394/1/2
f 399/1/2 397/1/2 396/1/2
f 402/1/2 401/1/2 399/1/2
f 402/1/2 399/1/2 396/1/2
f 396/1/2 394/1/2 393/1/2
f 402/1/2 396/1/2 393/1/2
f 403/1/2 402/1/2 393/1/2
f 406/1/2 403/1/2 393/1/2
f 291/1/2 290/1/2 288/1/2
f 293/1/2 292/1/2 291/1/2
f 295/1/2 294/1/2 293/1/2
f 295/1/2 293/1/2 291/1/2
f 291/1/2 288/1/2 285/1/2
f 282/1/2 406/1/2 393/1/2
f 282/1/2 393/1/2 392/1/2
f 295/1/2 291/1/2 285/1/2
f 285/1/2 282/1/2 392/1/2
f 285/1/2 392/1/2 391/1/2
f 296/1/2 295/1/2 285/1/2
f 299/1/2 298/1/2 297/1/2
f 297/1/2 296/1/2 285/1/2
f 285/1/2 391/1/2 390/1/2
f 285/1/2 390/1/2 389/1/2
f 299/1/2 297/1/2 285/1/2
f 301/1/2 300/1/2 299/1/2
f 304/1/2 303/1/2 302/1/2
f 301/1/2 299/1/2 285/1/2
f 305/1/2 304/1/2 302/1/2
f 302/1/2 301/1/2 285/1/2
f 387/1/2 386/1/2 385/1/2
f 385/1/2 384/1/2 383/1/2
f 387/1/2 385/1/2 383/1/2
f 388/1/2 387/1/2 383/1/2
f 388/1/2 383/1/2 382/1/2
f 305/1/2 302/1/2 285/1/2
f 307/1/2 306/1/2 305/1/2
f 307/1/2 305/1/2 285/1/2
f 381/1/2 380/1/2 379/1/2
f 379/1/2 378/1/2 377/1/2
f 376/1/2 375/1/2 374/1/2
f 379/1/2 377/1/2 376/1/2
f 381/1/2 379/1/2 376/1/2
f 376/1/2 374/1/2 373/1/2
f 376/1/2 373/1/2 372/1/2
f 382/1/2 381/1/2 376/1/2
f 382/1/2 376/1/2 372/1/2
f 371/1/2 370/1/2 369/1/2
f 382/1/2 372/1/2 371/1/2
f 388/1/2 382/1/2 371/1/2
f 371/1/2 369/1/2 368/1/2
f 371/1/2 368/1/2 367/1/2
f 388/1/2 371/1/2 367/1/2
f 366/1/2 365/1/2 364/1/2
f 388/1/2 367/1/2 366/1/2
f 308/1/2 307/1/2 285/1/2
f 309/1/2 308/1/2 285/1/2
f 388/1/2 366/1/2 364/1/2
f 364/1/2 363/1/2 362/1/2
f 364/1/2 362/1/2 361/1/2
f 389/1/2 388/1/2 364/1/2
f 309/1/2 285/1/2 389/1/2
f 310/1/2 309/1/2 389/1/2
f 389/1/2 364/1/2 361/1/2
f 389/1/2 361/1/2 360/1/2
f 311/1/2 310/1/2 389/1/2
f 312/1/2 311/1/2 389/1/2
f 389/1/2 360/1/2 359/1/2
f 359/1/2 358/1/2 357/1/2
f 359/1/2 357/1/2 356/1/2
f 312/1/2 389/1/2 359/1/2
f 315/1/2 314/1/2 313/1/2
f 313/1/2 312/1/2 359/1/2
f 313/1/2 359/1/2 356/1/2
f 316/1/2 315/1/2 313/1/2
f 317/1/2 316/1/2 313/1/2
f 313/1/2 356/1/2 355/1/2
f 313/1/2 355/1/2 354/1/2
f 318/1/2 317/1/2 313/1/2
f 321/1/2 320/1/2 319/1/2
f 318/1/2 313/1/2 354/1/2
f 322/1/2 321/1/2 319/1/2
f 319/1/2 318/1/2 354/1/2
f 319/1/2 354/1/2 353/1/2
f 323/1/2 322/1/2 319/1/2
f 325/1/2 324/1/2 323/1/2
f 326/1/2 325/1/2 323/1/2
f 323/1/2 319/1/2 353/1/2
f 352/1/2 351/1/2 350/1/2
f 323/1/2 353/1/2 352/1/2
f 326/1/2 323/1/2 352/1/2
f 326/1/2 352/1/2 350/1/2
f 329/1/2 328/1/2 327/1/2
f 327/1/2 326/1/2 350/1/2
f 349/1/2 348/1/2 347/1/2
f 327/1/2 350/1/2 349/1/2
f 330/1/2 329/1/2 327/1/2
f 331/1/2 330/1/2 327/1/2
f 327/1/2 349/1/2 347/1/2
f 327/1/2 347/1/2 346/1/2
f 332/1/2 331/1/2 327/1/2
f 334/1/2 333/1/2 332/1/2
f 337/1/2 336/1/2 335/1/2
f 335/1/2 334/1/2 332/1/2
f 332/1/2 327/1/2 346/1/2
f 345/1/2 344/1/2 343/1/2
f 332/1/2 346/1/2 345/1/2
f 338/1/2 337/1/2 335/1/2
f 335/1/2 332/1/2 345/1/2
f 345/1/2 343/1/2 342/1/2
f 341/1/2 340/1/2 339/1/2
f 345/1/2 342/1/2 341/1/2
f 339/1/2 338/1/2 335/1/2
f 335/1/2 345/1/2 341/1/2
f 1/1/3 233/1/3 235/1/3
f 2/1/4 234/1/4 233/1/4
f 3/1/221 235/1/221 236/1/221
f 4/1/222 236/1/222 237/1/222
f 5/1/7 237/1/7 238/1/7
f 6/1/8 238/1/8 239/1/8
f 7/1/9 239/1/9 240/1/9
f 8/1/10 240/1/10 241/1/10
f 9/1/11 241/1/11 242/1/11
f 10/1/12 242/1/12 243/1/12
f 11/1/13 243/1/13 244/1/13
f 12/1/14 244/1/14 245/1/14
f 13/1/15 245/1/15 246/1/15
f 14/1/16 246/1/16 247/1/16
f 15/1/17 247/1/17 248/1/17
f 16/1/18 248/1/18 249/1/18
f 17/1/19 249/1/19 250/1/19
f 18/1/20 250/1/20 251/1/20
f 19/1/19 251/1/19 252/1/19
f 20/1/21 252/1/21 253/1/21
f 21/1/22 253/1/22 254/1/22
f 22/1/23 254/1/23 255/1/23
f 23/1/24 255/1/24 256/1/24
f 24/1/25 256/1/25 257/1/25
f 25/1/223 257/1/223 258/1/223
f 26/1/27 258/1/27 259/1/27
f 27/1/28 259/1/28 260/1/28
f 28/1/29 260/1/29 261/1/29
f 29/1/30 261/1/30 262/1/30
f 30/1/31 262/1/31 263/1/31
f 31/1/32 263/1/32 264/1/32
f 32/1/224 264/1/224 265/1/224
f 33/1/34 265/1/34 266/1/34
f 34/1/35 266/1/35 267/1/35
f 35/1/36 267/1/36 268/1/36
f 36/1/37 268/1/37 269/1/37
f 37/1/38 269/1/38 270/1/38
f 38/1/39 270/1/39 271/1/39
f 39/1/40 271/1/40 272/1/40
f 40/1/41 272/1/41 273/1/41
f 41/1/225 273/1/225 274/1/225
f 42/1/43 274/1/43 275/1/43
f 43/1/44 275/1/44 276/1/44
f 44/1/45 276/1/45 277/1/45
f 45/1/46 277/1/46 278/1/46
f 46/1/47 278/1/47 279/1/47
f 47/1/48 279/1/48 280/1/48
f 48/1/49 280/1/49 281/1/49
f 49/1/21 281/1/21 282/1/21
f 50/1/50 282/1/50 283/1/50
f 51/1/51 283/1/51 284/1/51
f 52/1/52 284/1/52 285/1/52
f 53/1/53 285/1/53 286/1/53
f 54/1/19 286/1/19 287/1/19
f 55/1/54 287/1/54 288/1/54
f 56/1/55 288/1/55 289/1/55
f 57/1/27 289/1/27 290/1/27
f 58/1/57 290/1/57 291/1/57
f 59/1/58 291/1/58 292/1/58
f 60/1/59 292/1/59 293/1/59
f 61/1/226 293/1/226 294/1/226
f 62/1/60 294/1/60 295/1/60
f 63/1/61 295/1/61 296/1/61
f 64/1/62 296/1/62 297/1/62
f 65/1/62 297/1/62 298/1/62
f 66/1/63 298/1/63 299/1/63
f 67/1/64 299/1/64 300/1/64
f 68/1/227 300/1/227 301/1/227
f 69/1/61 301/1/61 302/1/61
f 70/1/66 302/1/66 303/1/66
f 71/1/67 303/1/67 304/1/67
f 72/1/68 304/1/68 305/1/68
f 73/1/69 305/1/69 306/1/69
f 74/1/70 306/1/70 307/1/70
f 75/1/71 307/1/71 308/1/71
f 76/1/72 308/1/72 309/1/72
f 77/1/228 309/1/228 310/1/228
f 78/1/74 310/1/74 311/1/74
f 79/1/75 311/1/75 312/1/75
f 80/1/76 312/1/76 313/1/76
f 81/1/77 313/1/77 314/1/77
f 82/1/78 314/1/78 315/1/78
f 83/1/79 315/1/79 316/1/79
f 84/1/80 316/1/80 317/1/80
f 85/1/81 317/1/81 318/1/81
f 86/1/82 318/1/82 319/1/82
f 87/1/83 319/1/83 320/1/83
f 88/1/84 320/1/84 321/1/84
f 89/1/85 321/1/85 322/1/85
f 90/1/27 322/1/27 323/1/27
f 91/1/86 323/1/86 324/1/86
f 92/1/87 324/1/87 325/1/87
f 93/1/88 325/1/88 326/1/88
f 94/1/89 326/1/89 327/1/89
f 95/1/90 327/1/90 328/1/90
f 96/1/91 328/1/91 329/1/91
f 97/1/92 329/1/92 330/1/92
f 98/1/93 330/1/93 331/1/93
f 99/1/94 331/1/94 332/1/94
f 100/1/95 332/1/95 333/1/95
f 101/1/58 333/1/58 334/1/58
f 102/1/96 334/1/96 335/1/96
f 103/1/97 335/1/97 336/1/97
f 104/1/98 336/1/98 337/1/98
f 105/1/99 337/1/99 338/1/99
f 106/1/100 338/1/100 339/1/100
f 107/1/101 339/1/101 340/1/101
f 108/1/102 340/1/102 341/1/102
f 109/1/103 341/1/103 342/1/103
f 110/1/104 342/1/104 343/1/104
f 111/1/105 343/1/105 344/1/105
f 112/1/106 344/1/106 345/1/106
f 113/1/107 345/1/107 346/1/107
f 114/1/108 346/1/108 347/1/108
f 115/1/109 347/1/109 348/1/109
f 116/1/110 348/1/110 349/1/110
f 117/1/111 349/1/111 350/1/111
f 118/1/41 350/1/41 351/1/41
f 119/1/229 351/1/229 352/1/229
f 120/1/113 352/1/113 353/1/113
f 121/1/114 353/1/114 354/1/114
f 122/1/115 354/1/115 355/1/115
f 123/1/230 355/1/230 356/1/230
f 124/1/117 356/1/117 357/1/117
f 125/1/118 357/1/118 358/1/118
f 126/1/119 358/1/119 359/1/119
f 127/1/120 359/1/120 360/1/120
f 128/1/121 360/1/121 361/1/121
f 129/1/122 361/1/122 362/1/122
f 130/1/123 362/1/123 363/1/123
f 131/1/124 363/1/124 364/1/124
f 132/1/125 364/1/125 365/1/125
f 133/1/126 365/1/126 366/1/126
f 134/1/127 366/1/127 367/1/127
f 135/1/128 367/1/128 368/1/128
f 136/1/129 368/1/129 369/1/129
f 137/1/130 369/1/130 370/1/130
f 138/1/131 370/1/131 371/1/131
f 139/1/132 371/1/132 372/1/132
f 140/1/133 372/1/133 373/1/133
f 141/1/134 373/1/134 374/1/134
f 142/1/135 374/1/135 375/1/135
f 143/1/136 375/1/136 376/1/136
f 144/1/131 376/1/131 377/1/131
f 145/1/137 377/1/137 378/1/137
f 146/1/138 378/1/138 379/1/138
f 147/1/139 379/1/139 380/1/139
f 148/1/140 380/1/140 381/1/140
f 149/1/141 381/1/141 382/1/141
f 150/1/142 382/1/142 383/1/142
f 151/1/143 383/1/143 384/1/143
f 152/1/61 384/1/61 385/1/61
f 153/1/144 385/1/144 386/1/144
f 154/1/145 386/1/145 387/1/145
f 155/1/146 387/1/146 388/1/146
f 156/1/147 388/1/147 389/1/147
f 157/1/148 389/1/148 390/1/148
f 158/1/126 390/1/126 391/1/126
f 159/1/149 391/1/149 392/1/149
f 160/1/150 392/1/150 393/1/150
f 161/1/151 393/1/151 394/1/151
f 162/1/152 394/1/152 395/1/152
f 163/1/128 395/1/128 396/1/128
f 164/1/153 396/1/153 397/1/153
f 165/1/154 397/1/154 398/1/154
f 166/1/155 398/1/155 399/1/155
f 167/1/156 399/1/156 400/1/156
f 168/1/157 400/1/157 401/1/157
f 169/1/158 401/1/158 402/1/158
f 170/1/159 402/1/159 403/1/159
f 171/1/150 403/1/150 404/1/150
f 172/1/160 404/1/160 405/1/160
f 173/1/161 405/1/161 406/1/161
f 174/1/162 406/1/162 407/1/162
f 175/1/138 407/1/138 408/1/138
f 176/1/163 408/1/163 409/1/163
f 177/1/6 409/1/6 410/1/6
f 178/1/164 410/1/164 411/1/164
f 179/1/165 411/1/165 412/1/165
f 180/1/166 412/1/166 413/1/166
f 181/1/167 413/1/167 414/1/167
f 182/1/168 414/1/168 415/1/168
f 183/1/169 415/1/169 416/1/169
f 184/1/170 416/1/170 417/1/170
f 185/1/171 417/1/171 418/1/171
f 186/1/172 418/1/172 419/1/172
f 187/1/173 419/1/173 420/1/173
f 188/1/174 420/1/174 421/1/174
f 189/1/175 421/1/175 422/1/175
f 190/1/176 422/1/176 423/1/176
f 191/1/177 423/1/177 424/1/177
f 192/1/178 424/1/178 425/1/178
f 193/1/179 425/1/179 426/1/179
f 194/1/180 426/1/180 427/1/180
f 195/1/181 427/1/181 428/1/181
f 196/1/160 428/1/160 429/1/160
f 197/1/182 429/1/182 430/1/182
f 198/1/111 430/1/111 431/1/111
f 199/1/183 431/1/183 432/1/183
f 200/1/231 432/1/231 433/1/231
f 201/1/185 433/1/185 434/1/185
f 202/1/186 434/1/186 435/1/186
f 203/1/187 435/1/187 436/1/187
f 204/1/188 436/1/188 437/1/188
f 205/1/189 437/1/189 438/1/189
f 206/1/190 438/1/190 439/1/190
f 207/1/191 439/1/191 440/1/191
f 208/1/185 440/1/185 441/1/185
f 209/1/192 441/1/192 442/1/192
f 210/1/193 442/1/193 443/1/193
f 211/1/61 443/1/61 444/1/61
f 212/1/105 444/1/105 445/1/105
f 213/1/194 445/1/194 446/1/194
f 214/1/195 446/1/195 447/1/195
f 215/1/196 447/1/196 448/1/196
f 216/1/170 448/1/170 449/1/170
f 217/1/232 449/1/232 450/1/232
f 218/1/198 450/1/198 451/1/198
f 219/1/199 451/1/199 452/1/199
f 220/1/200 452/1/200 453/1/200
f 221/1/201 453/1/201 454/1/201
f 222/1/202 454/1/202 455/1/202
f 223/1/203 455/1/203 456/1/203
f 224/1/204 456/1/204 457/1/204
f 225/1/205 457/1/205 458/1/205
f 226/1/206 458/1/206 459/1/206
f 227/1/207 459/1/207 460/1/207
f 228/1/208 460/1/208 461/1/208
f 229/1/209 461/1/209 462/1/209
f 230/1/210 462/1/210 463/1/210
f 231/1/211 463/1/211 464/1/211
f 232/1/212 464/1/212 234/1/212
