# Blender 5.2.0 LTS
# www.blender.org
mtllib Arizona.mtl
o Plane.048
v 1.441337 -1.502434 10.971508
v 1.441337 -0.761583 10.954279
v 1.441337 -0.750097 10.764759
v 1.441337 -0.853472 10.632669
v 1.441337 -0.841986 10.523552
v 1.441337 -0.187280 10.391462
v 1.441337 -0.417001 9.093536
v 1.441337 -0.663952 7.485488
v 1.441336 -4.872547 8.050822
v 1.441336 -4.693076 9.325067
v 1.441337 -3.427805 11.478719
v 1.441337 -3.250791 11.478719
v 1.441337 -3.247771 11.282394
v 1.441337 -3.202465 11.255212
v 1.441337 -3.057487 11.252192
v 1.441337 -2.948754 11.366965
v 1.441337 -2.788674 11.363945
v 1.441337 -2.634635 11.131376
v 1.441337 -2.438311 11.134397
v 1.441337 -2.332598 11.086071
v 1.441337 -2.223865 10.956195
v 1.441337 -2.193661 10.841421
v 1.441337 -2.054724 10.838401
v 1.441337 -2.054724 10.935053
v 1.441337 -2.003378 10.944114
v 1.441337 -1.794972 11.037745
v 1.441337 -1.592608 11.040766
v 2.441337 -1.502434 10.971508
v 2.441337 -0.761583 10.954279
v 2.441337 -0.750097 10.764759
v 2.441337 -0.853472 10.632669
v 2.441337 -0.841986 10.523552
v 2.441337 -0.187280 10.391462
v 2.441337 -0.417001 9.093536
v 2.441337 -0.663952 7.485488
v 2.441336 -4.872547 8.050822
v 2.441336 -4.693076 9.325067
v 2.441336 -3.427805 11.478719
v 2.441336 -3.250791 11.478719
v 2.441336 -3.247771 11.282394
v 2.441336 -3.202465 11.255212
v 2.441336 -3.057487 11.252192
v 2.441336 -2.948754 11.366965
v 2.441337 -2.788674 11.363945
v 2.441337 -2.634635 11.131376
v 2.441337 -2.438311 11.134397
v 2.441337 -2.332598 11.086071
v 2.441337 -2.223865 10.956195
v 2.441337 -2.193661 10.841421
v 2.441337 -2.054724 10.838401
v 2.441337 -2.054724 10.935053
v 2.441337 -2.003378 10.944114
v 2.441337 -1.794972 11.037745
v 2.441337 -1.592608 11.040766
vn -1.0000 -0.0000 -0.0000
vn 1.0000 -0.0000 -0.0000
vn -0.0000 0.6091 0.7931
vn -0.0000 0.0232 0.9997
vn -0.0000 0.9982 0.0605
vn -0.0000 0.7875 -0.6163
vn -0.0000 0.9945 0.1047
vn -0.0000 0.1978 0.9802
vn -0.0000 0.9847 -0.1743
vn -0.0000 0.9884 -0.1518
vn -0.0000 -0.1331 -0.9911
vn -0.0000 -0.9902 0.1395
vn -0.0000 -0.8622 0.5065
vn -0.0000 -0.0000 1.0000
vn -0.0000 0.9999 0.0154
vn -0.0000 0.5145 0.8575
vn -0.0000 0.0208 0.9998
vn -0.0000 -0.7260 0.6877
vn -0.0000 0.0189 0.9998
vn -0.0000 0.8337 0.5522
vn -0.0000 -0.0154 0.9999
vn -0.0000 0.4158 0.9095
vn -0.0000 0.7668 0.6419
vn -0.0000 0.9671 0.2545
vn -0.0000 0.0217 0.9998
vn -0.0000 -1.0000 -0.0000
vn -0.0000 -0.1738 0.9848
vn -0.0000 -0.4098 0.9122
vn -0.0000 -0.0149 0.9999
vt 0.000000 0.000000
s 0
f 7/1/1 9/1/1 14/1/1
f 49/1/2 41/1/2 37/1/2
f 27/1/3 28/1/3 1/1/3
f 1/1/4 29/1/4 2/1/4
f 2/1/5 30/1/5 3/1/5
f 3/1/6 31/1/6 4/1/6
f 4/1/7 32/1/7 5/1/7
f 5/1/8 33/1/8 6/1/8
f 6/1/9 34/1/9 7/1/9
f 7/1/10 35/1/10 8/1/10
f 8/1/11 36/1/11 9/1/11
f 9/1/12 37/1/12 10/1/12
f 10/1/13 38/1/13 11/1/13
f 11/1/14 39/1/14 12/1/14
f 12/1/15 40/1/15 13/1/15
f 13/1/16 41/1/16 14/1/16
f 14/1/17 42/1/17 15/1/17
f 15/1/18 43/1/18 16/1/18
f 16/1/19 44/1/19 17/1/19
f 17/1/20 45/1/20 18/1/20
f 18/1/21 46/1/21 19/1/21
f 19/1/22 47/1/22 20/1/22
f 20/1/23 48/1/23 21/1/23
f 21/1/24 49/1/24 22/1/24
f 22/1/25 50/1/25 23/1/25
f 23/1/26 51/1/26 24/1/26
f 24/1/27 52/1/27 25/1/27
f 25/1/28 53/1/28 26/1/28
f 26/1/29 54/1/29 27/1/29
f 26/1/1 27/1/1 1/1/1
f 1/1/1 2/1/1 3/1/1
f 1/1/1 3/1/1 4/1/1
f 25/1/1 26/1/1 1/1/1
f 23/1/1 24/1/1 25/1/1
f 20/1/1 21/1/1 22/1/1
f 23/1/1 25/1/1 1/1/1
f 19/1/1 20/1/1 22/1/1
f 23/1/1 1/1/1 4/1/1
f 18/1/1 19/1/1 22/1/1
f 22/1/1 23/1/1 4/1/1
f 5/1/1 6/1/1 7/1/1
f 22/1/1 4/1/1 5/1/1
f 16/1/1 17/1/1 18/1/1
f 22/1/1 5/1/1 7/1/1
f 15/1/1 16/1/1 18/1/1
f 18/1/1 22/1/1 7/1/1
f 7/1/1 8/1/1 9/1/1
f 9/1/1 10/1/1 11/1/1
f 11/1/1 12/1/1 13/1/1
f 14/1/1 15/1/1 18/1/1
f 9/1/1 11/1/1 13/1/1
f 14/1/1 18/1/1 7/1/1
f 9/1/1 13/1/1 14/1/1
f 28/1/2 54/1/2 53/1/2
f 52/1/2 51/1/2 50/1/2
f 28/1/2 53/1/2 52/1/2
f 30/1/2 29/1/2 28/1/2
f 31/1/2 30/1/2 28/1/2
f 28/1/2 52/1/2 50/1/2
f 49/1/2 48/1/2 47/1/2
f 31/1/2 28/1/2 50/1/2
f 49/1/2 47/1/2 46/1/2
f 31/1/2 50/1/2 49/1/2
f 34/1/2 33/1/2 32/1/2
f 32/1/2 31/1/2 49/1/2
f 49/1/2 46/1/2 45/1/2
f 45/1/2 44/1/2 43/1/2
f 45/1/2 43/1/2 42/1/2
f 34/1/2 32/1/2 49/1/2
f 49/1/2 45/1/2 42/1/2
f 49/1/2 42/1/2 41/1/2
f 35/1/2 34/1/2 49/1/2
f 37/1/2 36/1/2 35/1/2
f 39/1/2 38/1/2 37/1/2
f 40/1/2 39/1/2 37/1/2
f 37/1/2 35/1/2 49/1/2
f 41/1/2 40/1/2 37/1/2
f 27/1/3 54/1/3 28/1/3
f 1/1/4 28/1/4 29/1/4
f 2/1/5 29/1/5 30/1/5
f 3/1/6 30/1/6 31/1/6
f 4/1/7 31/1/7 32/1/7
f 5/1/8 32/1/8 33/1/8
f 6/1/9 33/1/9 34/1/9
f 7/1/10 34/1/10 35/1/10
f 8/1/11 35/1/11 36/1/11
f 9/1/12 36/1/12 37/1/12
f 10/1/13 37/1/13 38/1/13
f 11/1/14 38/1/14 39/1/14
f 12/1/15 39/1/15 40/1/15
f 13/1/16 40/1/16 41/1/16
f 14/1/17 41/1/17 42/1/17
f 15/1/18 42/1/18 43/1/18
f 16/1/19 43/1/19 44/1/19
f 17/1/20 44/1/20 45/1/20
f 18/1/21 45/1/21 46/1/21
f 19/1/22 46/1/22 47/1/22
f 20/1/23 47/1/23 48/1/23
f 21/1/24 48/1/24 49/1/24
f 22/1/25 49/1/25 50/1/25
f 23/1/26 50/1/26 51/1/26
f 24/1/27 51/1/27 52/1/27
f 25/1/28 52/1/28 53/1/28
f 26/1/29 53/1/29 54/1/29
