# Blender 5.2.0 LTS
# www.blender.org
mtllib Arkansas.mtl
o Plane.027
v 1.441337 -3.715883 -1.159224
v 1.441337 -3.754034 -1.171940
v 1.441337 -3.766750 -1.422036
v 1.441337 -4.145982 -1.420063
v 1.441337 -4.154752 -3.239951
v 1.441337 -3.952982 -3.245715
v 1.441337 -3.843450 -3.193831
v 1.441337 -3.462969 -3.188067
v 1.441337 -3.341907 -3.372542
v 1.441337 -3.151666 -3.366778
v 1.441337 -3.013309 -3.574313
v 1.441337 -2.949896 -3.528193
v 1.441337 -2.869188 -3.516664
v 1.441337 -2.748126 -3.631961
v 1.441337 -2.661653 -3.689609
v 1.441337 -2.586709 -3.706903
v 1.441337 -2.552120 -3.776080
v 1.441337 -2.494472 -3.810670
v 1.441337 -2.367645 -3.804906
v 1.441337 -2.304231 -3.776082
v 1.441337 -2.239879 -3.749585
v 1.441337 -2.220952 -3.776082
v 1.441337 -2.217167 -3.859361
v 1.441337 -2.039253 -3.893430
v 1.441337 -1.849984 -3.991851
v 1.441337 -1.812130 -3.988065
v 1.441337 -1.831057 -3.658734
v 1.441337 -1.774276 -3.639808
v 1.441337 -1.702353 -3.681447
v 1.441337 -1.615289 -3.753369
v 1.441337 -1.509298 -3.749583
v 1.441337 -1.486585 -3.609523
v 1.441337 -1.490371 -3.087138
v 1.441337 -1.532010 -1.054379
v 1.441337 -1.630431 -1.058164
v 1.441337 -2.262592 -1.133872
v 1.441337 -3.526915 -1.164155
v 2.441336 -3.715883 -1.159224
v 2.441336 -3.754034 -1.171940
v 2.441336 -3.766750 -1.422036
v 2.441336 -4.145982 -1.420063
v 2.441336 -4.154752 -3.239951
v 2.441336 -3.952982 -3.245715
v 2.441336 -3.843450 -3.193831
v 2.441336 -3.462969 -3.188067
v 2.441336 -3.341907 -3.372542
v 2.441336 -3.151666 -3.366778
v 2.441336 -3.013309 -3.574313
v 2.441336 -2.949896 -3.528193
v 2.441337 -2.869188 -3.516664
v 2.441337 -2.748126 -3.631961
v 2.441337 -2.661653 -3.689609
v 2.441337 -2.586709 -3.706903
v 2.441337 -2.552120 -3.776080
v 2.441337 -2.494472 -3.810670
v 2.441337 -2.367645 -3.804906
v 2.441337 -2.304231 -3.776082
v 2.441337 -2.239879 -3.749585
v 2.441337 -2.220952 -3.776082
v 2.441337 -2.217167 -3.859361
v 2.441337 -2.039253 -3.893430
v 2.441337 -1.849984 -3.991851
v 2.441337 -1.812130 -3.988065
v 2.441337 -1.831057 -3.658734
v 2.441337 -1.774276 -3.639808
v 2.441337 -1.702353 -3.681447
v 2.441337 -1.615289 -3.753369
v 2.441337 -1.509298 -3.749583
v 2.441337 -1.486585 -3.609523
v 2.441337 -1.490371 -3.087138
v 2.441337 -1.532010 -1.054379
v 2.441337 -1.630431 -1.058164
v 2.441337 -2.262592 -1.133872
v 2.441336 -3.526915 -1.164155
vn -1.0000 -0.0000 -0.0000
vn 1.0000 -0.0000 -0.0000
vn -0.0000 -0.3162 0.9487
vn -0.0000 -0.9987 0.0508
vn -0.0000 0.0052 1.0000
vn -0.0000 -1.0000 0.0048
vn -0.0000 -0.0286 -0.9996
vn -0.0000 0.4281 -0.9037
vn -0.0000 0.0151 -0.9999
vn -0.0000 -0.8360 -0.5487
vn -0.0000 0.0303 -0.9995
vn -0.0000 -0.8321 -0.5547
vn -0.0000 0.5882 -0.8087
vn -0.0000 0.1414 -0.9899
vn -0.0000 -0.6897 -0.7241
vn -0.0000 -0.5547 -0.8321
vn -0.0000 -0.2249 -0.9744
vn -0.0000 -0.8944 -0.4472
vn -0.0000 -0.5145 -0.8575
vn -0.0000 0.0454 -0.9990
vn -0.0000 0.4138 -0.9104
vn -0.0000 0.3807 -0.9247
vn -0.0000 -0.8137 -0.5813
vn -0.0000 -0.9990 -0.0454
vn -0.0000 -0.1881 -0.9822
vn -0.0000 -0.4614 -0.8872
vn -0.0000 0.0995 -0.9950
vn -0.0000 0.9984 0.0574
vn -0.0000 0.3162 -0.9487
vn -0.0000 -0.5010 -0.8654
vn -0.0000 -0.6369 -0.7710
vn -0.0000 0.0357 -0.9994
vn -0.0000 0.9871 -0.1601
vn -0.0000 1.0000 0.0072
vn -0.0000 0.9998 0.0205
vn -0.0000 -0.0384 0.9993
vn -0.0000 -0.1189 0.9929
vn -0.0000 -0.0239 0.9997
vn -0.0000 0.0261 0.9997
vt 0.000000 0.000000
s 0
f 12/1/1 10/1/1 3/1/1
f 40/1/2 53/1/2 58/1/2
f 2/1/3 38/1/3 1/1/3
f 3/1/4 39/1/4 2/1/4
f 4/1/5 40/1/5 3/1/5
f 5/1/6 41/1/6 4/1/6
f 6/1/7 42/1/7 5/1/7
f 7/1/8 43/1/8 6/1/8
f 8/1/9 44/1/9 7/1/9
f 9/1/10 45/1/10 8/1/10
f 10/1/11 46/1/11 9/1/11
f 11/1/12 47/1/12 10/1/12
f 12/1/13 48/1/13 11/1/13
f 13/1/14 49/1/14 12/1/14
f 14/1/15 50/1/15 13/1/15
f 15/1/16 51/1/16 14/1/16
f 16/1/17 52/1/17 15/1/17
f 17/1/18 53/1/18 16/1/18
f 18/1/19 54/1/19 17/1/19
f 19/1/20 55/1/20 18/1/20
f 20/1/21 56/1/21 19/1/21
f 21/1/22 57/1/22 20/1/22
f 22/1/23 58/1/23 21/1/23
f 23/1/24 59/1/24 22/1/24
f 24/1/25 60/1/25 23/1/25
f 25/1/26 61/1/26 24/1/26
f 26/1/27 62/1/27 25/1/27
f 27/1/28 63/1/28 26/1/28
f 28/1/29 64/1/29 27/1/29
f 29/1/30 65/1/30 28/1/30
f 30/1/31 66/1/31 29/1/31
f 31/1/32 67/1/32 30/1/32
f 32/1/33 68/1/33 31/1/33
f 33/1/34 69/1/34 32/1/34
f 34/1/35 70/1/35 33/1/35
f 35/1/36 71/1/36 34/1/36
f 36/1/37 72/1/37 35/1/37
f 37/1/38 73/1/38 36/1/38
f 1/1/39 74/1/39 37/1/39
f 34/1/1 33/1/1 32/1/1
f 32/1/1 31/1/1 30/1/1
f 32/1/1 30/1/1 29/1/1
f 35/1/1 34/1/1 32/1/1
f 36/1/1 35/1/1 32/1/1
f 32/1/1 29/1/1 28/1/1
f 27/1/1 26/1/1 25/1/1
f 36/1/1 32/1/1 28/1/1
f 27/1/1 25/1/1 24/1/1
f 36/1/1 28/1/1 27/1/1
f 2/1/1 1/1/1 37/1/1
f 37/1/1 36/1/1 27/1/1
f 27/1/1 24/1/1 23/1/1
f 27/1/1 23/1/1 22/1/1
f 2/1/1 37/1/1 27/1/1
f 5/1/1 4/1/1 3/1/1
f 3/1/1 2/1/1 27/1/1
f 27/1/1 22/1/1 21/1/1
f 20/1/1 19/1/1 18/1/1
f 3/1/1 27/1/1 21/1/1
f 21/1/1 20/1/1 18/1/1
f 18/1/1 17/1/1 16/1/1
f 16/1/1 15/1/1 14/1/1
f 16/1/1 14/1/1 13/1/1
f 21/1/1 18/1/1 16/1/1
f 6/1/1 5/1/1 3/1/1
f 7/1/1 6/1/1 3/1/1
f 3/1/1 21/1/1 16/1/1
f 3/1/1 16/1/1 13/1/1
f 8/1/1 7/1/1 3/1/1
f 10/1/1 9/1/1 8/1/1
f 12/1/1 11/1/1 10/1/1
f 3/1/1 13/1/1 12/1/1
f 10/1/1 8/1/1 3/1/1
f 69/1/2 70/1/2 71/1/2
f 71/1/2 72/1/2 73/1/2
f 74/1/2 38/1/2 39/1/2
f 69/1/2 71/1/2 73/1/2
f 73/1/2 74/1/2 39/1/2
f 40/1/2 41/1/2 42/1/2
f 73/1/2 39/1/2 40/1/2
f 68/1/2 69/1/2 73/1/2
f 66/1/2 67/1/2 68/1/2
f 65/1/2 66/1/2 68/1/2
f 68/1/2 73/1/2 40/1/2
f 40/1/2 42/1/2 43/1/2
f 40/1/2 43/1/2 44/1/2
f 65/1/2 68/1/2 40/1/2
f 62/1/2 63/1/2 64/1/2
f 64/1/2 65/1/2 40/1/2
f 40/1/2 44/1/2 45/1/2
f 45/1/2 46/1/2 47/1/2
f 47/1/2 48/1/2 49/1/2
f 50/1/2 51/1/2 52/1/2
f 47/1/2 49/1/2 50/1/2
f 40/1/2 45/1/2 47/1/2
f 62/1/2 64/1/2 40/1/2
f 59/1/2 60/1/2 61/1/2
f 61/1/2 62/1/2 40/1/2
f 40/1/2 47/1/2 50/1/2
f 50/1/2 52/1/2 53/1/2
f 53/1/2 54/1/2 55/1/2
f 55/1/2 56/1/2 57/1/2
f 58/1/2 59/1/2 61/1/2
f 55/1/2 57/1/2 58/1/2
f 40/1/2 50/1/2 53/1/2
f 53/1/2 55/1/2 58/1/2
f 58/1/2 61/1/2 40/1/2
f 2/1/3 39/1/3 38/1/3
f 3/1/4 40/1/4 39/1/4
f 4/1/5 41/1/5 40/1/5
f 5/1/6 42/1/6 41/1/6
f 6/1/7 43/1/7 42/1/7
f 7/1/8 44/1/8 43/1/8
f 8/1/9 45/1/9 44/1/9
f 9/1/10 46/1/10 45/1/10
f 10/1/11 47/1/11 46/1/11
f 11/1/12 48/1/12 47/1/12
f 12/1/13 49/1/13 48/1/13
f 13/1/14 50/1/14 49/1/14
f 14/1/15 51/1/15 50/1/15
f 15/1/16 52/1/16 51/1/16
f 16/1/17 53/1/17 52/1/17
f 17/1/18 54/1/18 53/1/18
f 18/1/19 55/1/19 54/1/19
f 19/1/20 56/1/20 55/1/20
f 20/1/21 57/1/21 56/1/21
f 21/1/22 58/1/22 57/1/22
f 22/1/23 59/1/23 58/1/23
f 23/1/24 60/1/24 59/1/24
f 24/1/25 61/1/25 60/1/25
f 25/1/26 62/1/26 61/1/26
f 26/1/27 63/1/27 62/1/27
f 27/1/28 64/1/28 63/1/28
f 28/1/29 65/1/29 64/1/29
f 29/1/30 66/1/30 65/1/30
f 30/1/31 67/1/31 66/1/31
f 31/1/32 68/1/32 67/1/32
f 32/1/33 69/1/33 68/1/33
f 33/1/34 70/1/34 69/1/34
f 34/1/35 71/1/35 70/1/35
f 35/1/36 72/1/36 71/1/36
f 36/1/37 73/1/37 72/1/37
f 37/1/38 74/1/38 73/1/38
f 1/1/39 38/1/39 74/1/39
