# Blender 5.2.0 LTS
# www.blender.org
mtllib California.mtl
o Plane.049
v 1.441337 0.167757 14.898345
v 1.441337 -0.056166 14.815591
v 1.441337 -0.177864 14.805855
v 1.441337 -0.757144 14.586800
v 1.441337 -0.693861 14.499177
v 1.441337 -1.112500 14.640347
v 1.441337 -0.917784 14.596535
v 1.441337 0.299190 14.942156
v 1.441337 0.372209 15.029778
v 1.441337 0.527982 15.039514
v 1.441337 0.605868 14.981099
v 1.441337 0.683754 14.888609
v 1.441337 0.747037 14.874005
v 1.441337 0.844395 14.874005
v 1.441337 0.912545 14.985967
v 1.441337 0.927149 15.044382
v 1.441337 0.961224 15.093060
v 1.441337 1.068318 15.102797
v 1.441337 1.097525 15.166080
v 1.441337 1.160808 15.205023
v 1.441337 1.331185 15.175815
v 1.441337 1.521033 15.136871
v 1.441337 1.521033 15.093060
v 1.441337 1.462618 15.058986
v 1.441337 1.350656 15.049250
v 1.441337 1.287373 14.966496
v 1.441337 1.331185 14.922685
v 1.441337 1.438278 14.893476
v 1.441337 1.530768 14.947023
v 1.441337 1.550240 14.971363
v 1.441337 1.589183 14.995703
v 1.441337 1.686541 14.927552
v 1.441337 1.710881 14.898345
v 1.441337 1.793635 14.927552
v 1.441337 1.793635 15.024910
v 1.441337 1.715749 15.058986
v 1.441337 1.594051 15.078457
v 1.441337 1.589183 15.136872
v 1.441337 1.803371 15.268305
v 1.441337 1.866654 15.312117
v 1.441337 1.973748 15.258570
v 1.441337 2.066238 15.253701
v 1.441337 2.577367 15.550643
v 1.441337 2.679593 15.550643
v 1.441337 2.801290 15.492229
v 1.441337 2.957063 15.487360
v 1.441337 3.098232 15.346191
v 1.441337 3.224797 15.394871
v 1.441337 3.390306 15.438682
v 1.441337 3.653172 15.584719
v 1.441337 3.804077 15.594454
v 1.441337 3.930642 15.453285
v 1.441337 4.052340 15.346191
v 1.441337 4.183773 15.287777
v 1.441337 4.349281 15.190418
v 1.441337 4.427168 15.151476
v 1.441337 4.918826 15.156343
v 1.441337 4.685166 14.455366
v 1.441337 4.475847 13.788464
v 1.441337 4.247056 12.912243
v 1.441337 2.209509 13.388862
v 1.441337 1.923538 13.382904
v 1.441337 -1.514078 11.095132
v 1.441337 -1.592608 11.040766
v 1.441337 -1.794972 11.037745
v 1.441337 -2.003378 10.944114
v 1.441337 -2.054724 10.935053
v 1.441337 -2.054724 10.838401
v 1.441337 -2.193661 10.841421
v 1.441337 -2.223865 10.956195
v 1.441337 -2.332598 11.086071
v 1.441337 -2.438311 11.134397
v 1.441337 -2.634635 11.131376
v 1.441337 -2.788674 11.363945
v 1.441337 -2.948754 11.366965
v 1.441337 -3.057487 11.252192
v 1.441337 -3.202465 11.255212
v 1.441337 -3.247771 11.282394
v 1.441337 -3.250791 11.478719
v 1.441337 -3.217567 11.521004
v 1.441337 -3.087691 12.925477
v 1.441337 -2.556106 12.943599
v 1.441337 -2.045663 13.300003
v 1.441337 -2.048684 13.454041
v 1.441337 -1.782891 13.457062
v 1.441337 -1.758728 13.713794
v 1.441337 -1.704361 13.849710
v 1.441337 -1.323795 14.052075
v 1.441337 -1.308693 14.233297
v 1.441337 -1.196939 14.387336
v 1.441337 -1.169755 14.622925
v 2.441337 0.167757 14.898345
v 2.441337 -0.056166 14.815591
v 2.441337 -0.177864 14.805855
v 2.441337 -0.757144 14.586800
v 2.441337 -0.693861 14.499177
v 2.441337 -1.112500 14.640347
v 2.441337 -0.917784 14.596535
v 2.441337 0.299190 14.942156
v 2.441337 0.372209 15.029778
v 2.441337 0.527981 15.039514
v 2.441337 0.605868 14.981099
v 2.441337 0.683754 14.888609
v 2.441337 0.747037 14.874005
v 2.441337 0.844395 14.874005
v 2.441337 0.912545 14.985967
v 2.441337 0.927149 15.044382
v 2.441337 0.961224 15.093060
v 2.441337 1.068318 15.102797
v 2.441337 1.097525 15.166080
v 2.441337 1.160808 15.205023
v 2.441337 1.331185 15.175815
v 2.441337 1.521033 15.136871
v 2.441337 1.521033 15.093060
v 2.441337 1.462618 15.058986
v 2.441337 1.350656 15.049250
v 2.441337 1.287373 14.966496
v 2.441337 1.331185 14.922685
v 2.441337 1.438278 14.893476
v 2.441337 1.530768 14.947023
v 2.441337 1.550240 14.971363
v 2.441337 1.589183 14.995703
v 2.441337 1.686541 14.927552
v 2.441337 1.710881 14.898345
v 2.441337 1.793635 14.927552
v 2.441337 1.793635 15.024910
v 2.441337 1.715749 15.058986
v 2.441337 1.594051 15.078457
v 2.441337 1.589183 15.136872
v 2.441337 1.803371 15.268305
v 2.441337 1.866654 15.312117
v 2.441337 1.973748 15.258570
v 2.441337 2.066238 15.253701
v 2.441337 2.577367 15.550643
v 2.441337 2.679593 15.550643
v 2.441337 2.801290 15.492229
v 2.441337 2.957063 15.487360
v 2.441337 3.098232 15.346191
v 2.441337 3.224797 15.394871
v 2.441337 3.390306 15.438682
v 2.441337 3.653172 15.584719
v 2.441337 3.804077 15.594454
v 2.441337 3.930642 15.453285
v 2.441337 4.052340 15.346191
v 2.441337 4.183773 15.287777
v 2.441337 4.349281 15.190418
v 2.441337 4.427168 15.151476
v 2.441337 4.918826 15.156343
v 2.441337 4.685166 14.455366
v 2.441337 4.475847 13.788464
v 2.441337 4.247056 12.912243
v 2.441337 2.209509 13.388862
v 2.441337 1.923538 13.382904
v 2.441337 -1.514078 11.095132
v 2.441337 -1.592608 11.040766
v 2.441337 -1.794972 11.037745
v 2.441337 -2.003378 10.944114
v 2.441337 -2.054724 10.935053
v 2.441337 -2.054724 10.838401
v 2.441337 -2.193661 10.841421
v 2.441337 -2.223865 10.956195
v 2.441337 -2.332598 11.086071
v 2.441337 -2.438311 11.134397
v 2.441337 -2.634635 11.131376
v 2.441337 -2.788674 11.363945
v 2.441336 -2.948754 11.366965
v 2.441336 -3.057487 11.252192
v 2.441336 -3.202465 11.255212
v 2.441336 -3.247771 11.282394
v 2.441336 -3.250791 11.478719
v 2.441336 -3.217567 11.521004
v 2.441336 -3.087691 12.925477
v 2.441337 -2.556106 12.943599
v 2.441337 -2.045663 13.300003
v 2.441337 -2.048684 13.454041
v 2.441337 -1.782891 13.457062
v 2.441337 -1.758728 13.713794
v 2.441337 -1.704361 13.849710
v 2.441337 -1.323795 14.052075
v 2.441337 -1.308693 14.233297
v 2.441337 -1.196939 14.387336
v 2.441337 -1.169755 14.622925
vn -1.0000 -0.0000 -0.0000
vn 1.0000 -0.0000 -0.0000
vn -0.0000 -0.7682 0.6402
vn -0.0000 -0.3162 0.9487
vn -0.0000 -0.3467 0.9380
vn -0.0000 -0.0797 0.9968
vn -0.0000 0.8107 0.5855
vn -0.0000 0.0605 0.9982
vn -0.0000 0.2195 0.9756
vn -0.0000 -0.5109 0.8596
vn -0.0000 -0.0624 0.9981
vn -0.0000 0.6000 0.8000
vn -0.0000 0.7649 0.6441
vn -0.0000 0.2249 0.9744
vn -0.0000 -0.0000 1.0000
vn -0.0000 -0.8542 0.5199
vn -0.0000 -0.9701 0.2425
vn -0.0000 -0.8192 0.5735
vn -0.0000 -0.0905 0.9959
vn -0.0000 -0.9080 0.4191
vn -0.0000 -0.5241 0.8517
vn -0.0000 0.1690 0.9856
vn -0.0000 0.2009 0.9796
vn -0.0000 1.0000 -0.0000
vn -0.0000 0.5039 -0.8638
vn -0.0000 0.0866 -0.9962
vn -0.0000 0.7944 -0.6075
vn -0.0000 0.7071 0.7071
vn -0.0000 0.2631 0.9648
vn -0.0000 -0.5010 0.8654
vn -0.0000 -0.7809 0.6247
vn -0.0000 -0.5300 0.8480
vn -0.0000 0.5735 0.8192
vn -0.0000 0.7682 0.6402
vn -0.0000 -0.3328 0.9430
vn -0.0000 -1.0000 -0.0000
vn -0.0000 -0.4008 -0.9162
vn -0.0000 -0.1580 -0.9874
vn -0.0000 -0.9965 -0.0830
vn -0.0000 -0.5230 0.8523
vn -0.0000 -0.5692 0.8222
vn -0.0000 0.4472 0.8944
vn -0.0000 0.0526 0.9986
vn -0.0000 -0.5023 0.8647
vn -0.0000 0.4327 0.9015
vn -0.0000 0.0312 0.9995
vn -0.0000 -0.3590 0.9333
vn -0.0000 -0.2559 0.9667
vn -0.0000 -0.4856 0.8742
vn -0.0000 -0.0644 0.9979
vn -0.0000 0.7446 0.6675
vn -0.0000 0.6606 0.7507
vn -0.0000 0.4061 0.9138
vn -0.0000 0.5070 0.8619
vn -0.0000 -0.0099 1.0000
vn -0.0000 0.9487 -0.3162
vn -0.0000 0.9541 -0.2995
vn -0.0000 0.9676 -0.2526
vn -0.0000 -0.2278 -0.9737
vn -0.0000 0.0208 -0.9998
vn -0.0000 0.5540 -0.8325
vn -0.0000 0.5692 -0.8222
vn -0.0000 0.0149 -0.9999
vn -0.0000 0.4098 -0.9122
vn -0.0000 0.1738 -0.9848
vn -0.0000 -0.0217 -0.9998
vn -0.0000 -0.9671 -0.2545
vn -0.0000 -0.7668 -0.6419
vn -0.0000 -0.4158 -0.9095
vn -0.0000 0.0154 -0.9999
vn -0.0000 -0.8337 -0.5522
vn -0.0000 -0.0189 -0.9998
vn -0.0000 0.7260 -0.6877
vn -0.0000 -0.0208 -0.9998
vn -0.0000 -0.5145 -0.8575
vn -0.0000 -0.9999 -0.0154
vn -0.0000 -0.7863 0.6178
vn -0.0000 -0.9958 0.0921
vn -0.0000 -0.0341 0.9994
vn -0.0000 -0.5725 0.8199
vn -0.0000 -0.9998 -0.0196
vn -0.0000 -0.0114 0.9999
vn -0.0000 -0.9956 0.0937
vn -0.0000 -0.9285 0.3714
vn -0.0000 -0.4695 0.8829
vn -0.0000 -0.9965 0.0830
vn -0.0000 -0.8094 0.5872
vn -0.0000 -0.9934 0.1146
vn -0.0000 -0.2911 0.9567
vn 1.0000 0.0001 -0.0000
vt 0.000000 0.000000
s 0
f 36/1/1 47/1/1 52/1/1
f 143/1/2 138/1/2 127/1/2
f 8/1/3 100/1/3 9/1/3
f 1/1/4 99/1/4 8/1/4
f 2/1/5 92/1/5 1/1/5
f 3/1/6 93/1/6 2/1/6
f 4/1/7 96/1/7 5/1/7
f 7/1/8 95/1/8 4/1/8
f 6/1/9 98/1/9 7/1/9
f 5/1/10 94/1/10 3/1/10
f 9/1/11 101/1/11 10/1/11
f 10/1/12 102/1/12 11/1/12
f 11/1/13 103/1/13 12/1/13
f 12/1/14 104/1/14 13/1/14
f 13/1/15 105/1/15 14/1/15
f 14/1/16 106/1/16 15/1/16
f 15/1/17 107/1/17 16/1/17
f 16/1/18 108/1/18 17/1/18
f 17/1/19 109/1/19 18/1/19
f 18/1/20 110/1/20 19/1/20
f 19/1/21 111/1/21 20/1/21
f 20/1/22 112/1/22 21/1/22
f 21/1/23 113/1/23 22/1/23
f 22/1/24 114/1/24 23/1/24
f 23/1/25 115/1/25 24/1/25
f 24/1/26 116/1/26 25/1/26
f 25/1/27 117/1/27 26/1/27
f 26/1/28 118/1/28 27/1/28
f 27/1/29 119/1/29 28/1/29
f 28/1/30 120/1/30 29/1/30
f 29/1/31 121/1/31 30/1/31
f 30/1/32 122/1/32 31/1/32
f 31/1/33 123/1/33 32/1/33
f 32/1/34 124/1/34 33/1/34
f 33/1/35 125/1/35 34/1/35
f 34/1/36 126/1/36 35/1/36
f 35/1/37 127/1/37 36/1/37
f 36/1/38 128/1/38 37/1/38
f 37/1/39 129/1/39 38/1/39
f 38/1/40 130/1/40 39/1/40
f 39/1/41 131/1/41 40/1/41
f 40/1/42 132/1/42 41/1/42
f 41/1/43 133/1/43 42/1/43
f 42/1/44 134/1/44 43/1/44
f 43/1/15 135/1/15 44/1/15
f 44/1/45 136/1/45 45/1/45
f 45/1/46 137/1/46 46/1/46
f 46/1/28 138/1/28 47/1/28
f 47/1/47 139/1/47 48/1/47
f 48/1/48 140/1/48 49/1/48
f 49/1/49 141/1/49 50/1/49
f 50/1/50 142/1/50 51/1/50
f 51/1/51 143/1/51 52/1/51
f 52/1/52 144/1/52 53/1/52
f 53/1/53 145/1/53 54/1/53
f 54/1/54 146/1/54 55/1/54
f 55/1/42 147/1/42 56/1/42
f 56/1/55 148/1/55 57/1/55
f 57/1/56 149/1/56 58/1/56
f 58/1/57 150/1/57 59/1/57
f 59/1/58 151/1/58 60/1/58
f 60/1/59 152/1/59 61/1/59
f 61/1/60 153/1/60 62/1/60
f 62/1/61 154/1/61 63/1/61
f 63/1/62 155/1/62 64/1/62
f 64/1/63 156/1/63 65/1/63
f 65/1/64 157/1/64 66/1/64
f 66/1/65 158/1/65 67/1/65
f 67/1/24 159/1/24 68/1/24
f 68/1/66 160/1/66 69/1/66
f 69/1/67 161/1/67 70/1/67
f 70/1/68 162/1/68 71/1/68
f 71/1/69 163/1/69 72/1/69
f 72/1/70 164/1/70 73/1/70
f 73/1/71 165/1/71 74/1/71
f 74/1/72 166/1/72 75/1/72
f 75/1/73 167/1/73 76/1/73
f 76/1/74 168/1/74 77/1/74
f 77/1/75 169/1/75 78/1/75
f 78/1/76 170/1/76 79/1/76
f 79/1/77 171/1/77 80/1/77
f 80/1/78 172/1/78 81/1/78
f 81/1/79 173/1/79 82/1/79
f 82/1/80 174/1/80 83/1/80
f 83/1/81 175/1/81 84/1/81
f 84/1/82 176/1/82 85/1/82
f 85/1/83 177/1/83 86/1/83
f 86/1/84 178/1/84 87/1/84
f 87/1/85 179/1/85 88/1/85
f 88/1/86 180/1/86 89/1/86
f 89/1/87 181/1/87 90/1/87
f 90/1/88 182/1/88 91/1/88
f 91/1/89 97/1/89 6/1/89
f 5/1/1 3/1/1 2/1/1
f 2/1/1 1/1/1 8/1/1
f 8/1/1 9/1/1 10/1/1
f 10/1/1 11/1/1 12/1/1
f 8/1/1 10/1/1 12/1/1
f 5/1/1 2/1/1 8/1/1
f 7/1/1 4/1/1 5/1/1
f 91/1/1 6/1/1 7/1/1
f 88/1/1 89/1/1 90/1/1
f 90/1/1 91/1/1 7/1/1
f 5/1/1 8/1/1 12/1/1
f 90/1/1 7/1/1 5/1/1
f 86/1/1 87/1/1 88/1/1
f 88/1/1 90/1/1 5/1/1
f 5/1/1 12/1/1 13/1/1
f 5/1/1 13/1/1 14/1/1
f 86/1/1 88/1/1 5/1/1
f 83/1/1 84/1/1 85/1/1
f 85/1/1 86/1/1 5/1/1
f 85/1/1 5/1/1 14/1/1
f 82/1/1 83/1/1 85/1/1
f 80/1/1 81/1/1 82/1/1
f 78/1/1 79/1/1 80/1/1
f 76/1/1 77/1/1 78/1/1
f 75/1/1 76/1/1 78/1/1
f 78/1/1 80/1/1 82/1/1
f 82/1/1 85/1/1 14/1/1
f 15/1/1 16/1/1 17/1/1
f 78/1/1 82/1/1 14/1/1
f 15/1/1 17/1/1 18/1/1
f 75/1/1 78/1/1 14/1/1
f 14/1/1 15/1/1 18/1/1
f 18/1/1 19/1/1 20/1/1
f 20/1/1 21/1/1 22/1/1
f 22/1/1 23/1/1 24/1/1
f 22/1/1 24/1/1 25/1/1
f 18/1/1 20/1/1 22/1/1
f 74/1/1 75/1/1 14/1/1
f 14/1/1 18/1/1 22/1/1
f 14/1/1 22/1/1 25/1/1
f 73/1/1 74/1/1 14/1/1
f 72/1/1 73/1/1 14/1/1
f 14/1/1 25/1/1 26/1/1
f 14/1/1 26/1/1 27/1/1
f 71/1/1 72/1/1 14/1/1
f 68/1/1 69/1/1 70/1/1
f 70/1/1 71/1/1 14/1/1
f 14/1/1 27/1/1 28/1/1
f 29/1/1 30/1/1 31/1/1
f 70/1/1 14/1/1 28/1/1
f 29/1/1 31/1/1 32/1/1
f 70/1/1 28/1/1 29/1/1
f 67/1/1 68/1/1 70/1/1
f 65/1/1 66/1/1 67/1/1
f 63/1/1 64/1/1 65/1/1
f 62/1/1 63/1/1 65/1/1
f 65/1/1 67/1/1 70/1/1
f 70/1/1 29/1/1 32/1/1
f 70/1/1 32/1/1 33/1/1
f 62/1/1 65/1/1 70/1/1
f 59/1/1 60/1/1 61/1/1
f 62/1/1 70/1/1 33/1/1
f 59/1/1 61/1/1 62/1/1
f 56/1/1 57/1/1 58/1/1
f 58/1/1 59/1/1 62/1/1
f 62/1/1 33/1/1 34/1/1
f 62/1/1 34/1/1 35/1/1
f 56/1/1 58/1/1 62/1/1
f 53/1/1 54/1/1 55/1/1
f 55/1/1 56/1/1 62/1/1
f 55/1/1 62/1/1 35/1/1
f 53/1/1 55/1/1 35/1/1
f 36/1/1 37/1/1 38/1/1
f 53/1/1 35/1/1 36/1/1
f 50/1/1 51/1/1 52/1/1
f 52/1/1 53/1/1 36/1/1
f 36/1/1 38/1/1 39/1/1
f 39/1/1 40/1/1 41/1/1
f 42/1/1 43/1/1 44/1/1
f 36/1/1 39/1/1 41/1/1
f 42/1/1 44/1/1 45/1/1
f 36/1/1 41/1/1 42/1/1
f 49/1/1 50/1/1 52/1/1
f 47/1/1 48/1/1 49/1/1
f 45/1/1 46/1/1 47/1/1
f 36/1/1 42/1/1 45/1/1
f 47/1/1 49/1/1 52/1/1
f 36/1/1 45/1/1 47/1/1
f 96/1/2 95/1/2 98/1/2
f 98/1/2 97/1/2 182/1/2
f 181/1/2 180/1/2 179/1/2
f 98/1/2 182/1/2 181/1/2
f 93/1/2 94/1/2 96/1/2
f 96/1/2 98/1/2 181/1/2
f 179/1/2 178/1/2 177/1/2
f 96/1/2 181/1/2 179/1/2
f 92/1/2 93/1/2 96/1/2
f 101/1/2 100/1/2 99/1/2
f 99/1/2 92/1/2 96/1/2
f 96/1/2 179/1/2 177/1/2
f 176/1/2 175/1/2 174/1/2
f 96/1/2 177/1/2 176/1/2
f 101/1/90 99/1/90 96/1/90
f 103/1/2 102/1/2 101/1/2
f 103/1/2 101/1/2 96/1/2
f 176/1/2 174/1/2 173/1/2
f 103/1/2 96/1/2 176/1/2
f 104/1/2 103/1/2 176/1/2
f 173/1/2 172/1/2 171/1/2
f 104/1/2 176/1/2 173/1/2
f 105/1/2 104/1/2 173/1/2
f 171/1/2 170/1/2 169/1/2
f 105/1/2 173/1/2 171/1/2
f 108/1/2 107/1/2 106/1/2
f 105/1/2 171/1/2 169/1/2
f 109/1/2 108/1/2 106/1/2
f 105/1/2 169/1/2 168/1/2
f 109/1/2 106/1/2 105/1/2
f 111/1/2 110/1/2 109/1/2
f 113/1/2 112/1/2 111/1/2
f 115/1/2 114/1/2 113/1/2
f 116/1/2 115/1/2 113/1/2
f 113/1/2 111/1/2 109/1/2
f 113/1/2 109/1/2 105/1/2
f 116/1/2 113/1/2 105/1/2
f 168/1/2 167/1/2 166/1/2
f 165/1/2 164/1/2 163/1/2
f 105/1/2 168/1/2 166/1/2
f 165/1/2 163/1/2 162/1/2
f 105/1/2 166/1/2 165/1/2
f 117/1/2 116/1/2 105/1/2
f 118/1/2 117/1/2 105/1/2
f 105/1/2 165/1/2 162/1/2
f 161/1/2 160/1/2 159/1/2
f 105/1/2 162/1/2 161/1/2
f 119/1/2 118/1/2 105/1/2
f 122/1/2 121/1/2 120/1/2
f 119/1/2 105/1/2 161/1/2
f 123/1/2 122/1/2 120/1/2
f 120/1/2 119/1/2 161/1/2
f 161/1/2 159/1/2 158/1/2
f 158/1/2 157/1/2 156/1/2
f 156/1/2 155/1/2 154/1/2
f 156/1/2 154/1/2 153/1/2
f 161/1/2 158/1/2 156/1/2
f 123/1/2 120/1/2 161/1/2
f 124/1/2 123/1/2 161/1/2
f 161/1/2 156/1/2 153/1/2
f 152/1/2 151/1/2 150/1/2
f 124/1/2 161/1/2 153/1/2
f 153/1/2 152/1/2 150/1/2
f 149/1/2 148/1/2 147/1/2
f 153/1/2 150/1/2 149/1/2
f 125/1/2 124/1/2 153/1/2
f 126/1/2 125/1/2 153/1/2
f 153/1/2 149/1/2 147/1/2
f 146/1/2 145/1/2 144/1/2
f 153/1/2 147/1/2 146/1/2
f 126/1/2 153/1/2 146/1/2
f 126/1/2 146/1/2 144/1/2
f 129/1/2 128/1/2 127/1/2
f 127/1/2 126/1/2 144/1/2
f 143/1/2 142/1/2 141/1/2
f 127/1/2 144/1/2 143/1/2
f 130/1/2 129/1/2 127/1/2
f 132/1/2 131/1/2 130/1/2
f 135/1/2 134/1/2 133/1/2
f 132/1/2 130/1/2 127/1/2
f 136/1/2 135/1/2 133/1/2
f 133/1/2 132/1/2 127/1/2
f 143/1/2 141/1/2 140/1/2
f 140/1/2 139/1/2 138/1/2
f 138/1/2 137/1/2 136/1/2
f 136/1/2 133/1/2 127/1/2
f 143/1/2 140/1/2 138/1/2
f 138/1/2 136/1/2 127/1/2
f 8/1/3 99/1/3 100/1/3
f 1/1/4 92/1/4 99/1/4
f 2/1/5 93/1/5 92/1/5
f 3/1/6 94/1/6 93/1/6
f 4/1/7 95/1/7 96/1/7
f 7/1/8 98/1/8 95/1/8
f 6/1/9 97/1/9 98/1/9
f 5/1/10 96/1/10 94/1/10
f 9/1/11 100/1/11 101/1/11
f 10/1/12 101/1/12 102/1/12
f 11/1/13 102/1/13 103/1/13
f 12/1/14 103/1/14 104/1/14
f 13/1/15 104/1/15 105/1/15
f 14/1/16 105/1/16 106/1/16
f 15/1/17 106/1/17 107/1/17
f 16/1/18 107/1/18 108/1/18
f 17/1/19 108/1/19 109/1/19
f 18/1/20 109/1/20 110/1/20
f 19/1/21 110/1/21 111/1/21
f 20/1/22 111/1/22 112/1/22
f 21/1/23 112/1/23 113/1/23
f 22/1/24 113/1/24 114/1/24
f 23/1/25 114/1/25 115/1/25
f 24/1/26 115/1/26 116/1/26
f 25/1/27 116/1/27 117/1/27
f 26/1/28 117/1/28 118/1/28
f 27/1/29 118/1/29 119/1/29
f 28/1/30 119/1/30 120/1/30
f 29/1/31 120/1/31 121/1/31
f 30/1/32 121/1/32 122/1/32
f 31/1/33 122/1/33 123/1/33
f 32/1/34 123/1/34 124/1/34
f 33/1/35 124/1/35 125/1/35
f 34/1/36 125/1/36 126/1/36
f 35/1/37 126/1/37 127/1/37
f 36/1/38 127/1/38 128/1/38
f 37/1/39 128/1/39 129/1/39
f 38/1/40 129/1/40 130/1/40
f 39/1/41 130/1/41 131/1/41
f 40/1/42 131/1/42 132/1/42
f 41/1/43 132/1/43 133/1/43
f 42/1/44 133/1/44 134/1/44
f 43/1/15 134/1/15 135/1/15
f 44/1/45 135/1/45 136/1/45
f 45/1/46 136/1/46 137/1/46
f 46/1/28 137/1/28 138/1/28
f 47/1/47 138/1/47 139/1/47
f 48/1/48 139/1/48 140/1/48
f 49/1/49 140/1/49 141/1/49
f 50/1/50 141/1/50 142/1/50
f 51/1/51 142/1/51 143/1/51
f 52/1/52 143/1/52 144/1/52
f 53/1/53 144/1/53 145/1/53
f 54/1/54 145/1/54 146/1/54
f 55/1/42 146/1/42 147/1/42
f 56/1/55 147/1/55 148/1/55
f 57/1/56 148/1/56 149/1/56
f 58/1/57 149/1/57 150/1/57
f 59/1/58 150/1/58 151/1/58
f 60/1/59 151/1/59 152/1/59
f 61/1/60 152/1/60 153/1/60
f 62/1/61 153/1/61 154/1/61
f 63/1/62 154/1/62 155/1/62
f 64/1/63 155/1/63 156/1/63
f 65/1/64 156/1/64 157/1/64
f 66/1/65 157/1/65 158/1/65
f 67/1/24 158/1/24 159/1/24
f 68/1/66 159/1/66 160/1/66
f 69/1/67 160/1/67 161/1/67
f 70/1/68 161/1/68 162/1/68
f 71/1/69 162/1/69 163/1/69
f 72/1/70 163/1/70 164/1/70
f 73/1/71 164/1/71 165/1/71
f 74/1/72 165/1/72 166/1/72
f 75/1/73 166/1/73 167/1/73
f 76/1/74 167/1/74 168/1/74
f 77/1/75 168/1/75 169/1/75
f 78/1/76 169/1/76 170/1/76
f 79/1/77 170/1/77 171/1/77
f 80/1/78 171/1/78 172/1/78
f 81/1/79 172/1/79 173/1/79
f 82/1/80 173/1/80 174/1/80
f 83/1/81 174/1/81 175/1/81
f 84/1/82 175/1/82 176/1/82
f 85/1/83 176/1/83 177/1/83
f 86/1/84 177/1/84 178/1/84
f 87/1/85 178/1/85 179/1/85
f 88/1/86 179/1/86 180/1/86
f 89/1/87 180/1/87 181/1/87
f 90/1/88 181/1/88 182/1/88
f 91/1/89 182/1/89 97/1/89
