# Blender 5.2.0 LTS
# www.blender.org
mtllib Florida.mtl
o Plane.003
v 2.441336 -5.223066 -9.542399
v 2.441336 -5.233285 -9.314174
v 2.441336 -5.185596 -9.307361
v 2.441336 -5.202628 -9.137042
v 2.441336 -5.529638 -9.157479
v 2.441336 -5.539858 -9.085946
v 2.441336 -5.389977 -9.041663
v 2.441336 -5.461512 -7.321450
v 2.441336 -5.318444 -7.243104
v 2.441336 -5.504993 -5.564160
v 2.441336 -5.589788 -5.564160
v 2.441336 -5.664408 -5.676089
v 2.441336 -5.732244 -5.733750
v 2.441336 -5.806864 -5.740535
v 2.441336 -5.959496 -5.740535
v 2.441336 -5.926015 -5.945600
v 2.441336 -5.846500 -6.179959
v 2.441336 -5.829761 -6.338990
v 2.441336 -5.884166 -6.665421
v 2.441336 -5.992976 -6.920707
v 2.441336 -6.072491 -7.008592
v 2.441336 -6.164561 -7.100661
v 2.441336 -6.223151 -7.129956
v 2.441336 -6.260816 -7.222026
v 2.441336 -6.260816 -7.351762
v 2.441336 -6.244076 -7.431277
v 2.441336 -6.189671 -7.548457
v 2.441336 -5.992975 -7.682378
v 2.441336 -5.930201 -7.782819
v 2.441336 -5.900906 -7.895814
v 2.441336 -5.938570 -8.059030
v 2.441336 -6.076675 -8.280835
v 2.441336 -6.139451 -8.314315
v 2.441336 -6.265001 -8.372905
v 2.441336 -6.315221 -8.393830
v 2.441336 -6.331961 -8.460790
v 2.441336 -6.336146 -8.527749
v 2.441336 -6.444957 -8.577970
v 2.441336 -6.486807 -8.670039
v 2.441336 -6.503547 -8.845809
v 2.441336 -6.528657 -8.862550
v 2.441336 -6.591432 -8.896029
v 2.441336 -6.729537 -8.996470
v 2.441336 -6.947158 -8.988101
v 2.441336 -7.018303 -9.009027
v 2.441336 -7.168963 -8.979732
v 2.441336 -7.194074 -8.950437
v 2.441336 -7.298698 -8.967177
v 2.441336 -7.474469 -8.967177
v 2.441336 -7.533059 -8.983918
v 2.441336 -7.549799 -9.013213
v 2.441336 -7.533059 -9.101098
v 2.441336 -7.470284 -9.101098
v 2.441336 -7.411694 -9.096913
v 2.441336 -7.374029 -9.038323
v 2.441336 -7.357289 -9.009028
v 2.441336 -7.332179 -9.050878
v 2.441336 -7.315439 -9.205724
v 2.441336 -7.374029 -9.251760
v 2.441336 -7.449359 -9.239205
v 2.441336 -7.637685 -9.117841
v 2.441336 -7.692090 -9.101100
v 2.441336 -7.779975 -9.151320
v 2.441336 -8.190106 -9.414975
v 2.441336 -8.185921 -9.473565
v 2.441336 -8.152441 -9.486119
v 2.441336 -8.089665 -9.481935
v 2.441336 -7.980855 -9.515414
v 2.441336 -7.989225 -9.578189
v 2.441336 -8.043631 -9.582374
v 2.441336 -8.181736 -9.569819
v 2.441336 -8.236140 -9.569819
v 2.441336 -8.324025 -9.640965
v 2.441336 -8.386800 -9.774886
v 2.441336 -8.478870 -9.779071
v 2.441336 -8.591866 -9.787440
v 2.441336 -8.671381 -9.825105
v 2.441336 -8.746711 -9.908805
v 2.441336 -8.746711 -10.042726
v 2.441336 -8.755081 -10.105500
v 2.441336 -8.817856 -10.226865
v 2.441336 -8.935036 -10.277085
v 2.441336 -9.027106 -10.306380
v 2.441336 -9.119177 -10.314750
v 2.441336 -9.207062 -10.318934
v 2.441336 -9.257282 -10.373340
v 2.441336 -9.253098 -10.436114
v 2.441336 -9.186137 -10.586774
v 2.441336 -9.181952 -10.683028
v 2.441336 -9.169397 -10.779283
v 2.441336 -9.068957 -10.862983
v 2.441336 -8.993628 -10.913203
v 2.441336 -8.960148 -10.917388
v 2.441336 -8.930853 -10.875539
v 2.441336 -8.893188 -10.862985
v 2.441336 -8.788563 -10.875539
v 2.441336 -8.688123 -10.934129
v 2.441336 -8.587683 -10.946683
v 2.441336 -8.349137 -10.934129
v 2.441336 -7.901341 -10.896464
v 2.441336 -6.955530 -10.360784
v 2.441336 -6.892755 -10.323119
v 2.441336 -6.783944 -10.339860
v 2.441336 -6.725354 -10.385896
v 2.441336 -6.666764 -10.348231
v 2.441336 -6.382184 -10.084577
v 2.441336 -6.269189 -9.975766
v 2.441336 -6.051568 -9.816735
v 2.441336 -5.821393 -9.678630
v 2.441336 -5.574477 -9.590745
v 2.441336 -5.369412 -9.557265
v 1.441336 -5.223066 -9.542399
v 1.441336 -5.233285 -9.314174
v 1.441336 -5.185596 -9.307361
v 1.441336 -5.202628 -9.137042
v 1.441336 -5.529638 -9.157479
v 1.441336 -5.539858 -9.085946
v 1.441336 -5.389977 -9.041663
v 1.441336 -5.461512 -7.321450
v 1.441336 -5.318444 -7.243104
v 1.441336 -5.504993 -5.564160
v 1.441336 -5.589788 -5.564160
v 1.441336 -5.664408 -5.676089
v 1.441336 -5.732244 -5.733750
v 1.441336 -5.806864 -5.740535
v 1.441336 -5.959496 -5.740535
v 1.441336 -5.926015 -5.945600
v 1.441336 -5.846500 -6.179959
v 1.441336 -5.829761 -6.338990
v 1.441336 -5.884166 -6.665421
v 1.441336 -5.992976 -6.920707
v 1.441336 -6.072491 -7.008592
v 1.441336 -6.164561 -7.100661
v 1.441336 -6.223151 -7.129956
v 1.441336 -6.260816 -7.222026
v 1.441336 -6.260816 -7.351762
v 1.441336 -6.244076 -7.431277
v 1.441336 -6.189671 -7.548457
v 1.441336 -5.992975 -7.682378
v 1.441336 -5.930201 -7.782819
v 1.441336 -5.900906 -7.895814
v 1.441336 -5.938570 -8.059030
v 1.441336 -6.076675 -8.280835
v 1.441336 -6.139451 -8.314315
v 1.441336 -6.265001 -8.372905
v 1.441336 -6.315221 -8.393830
v 1.441336 -6.331961 -8.460790
v 1.441336 -6.336146 -8.527749
v 1.441336 -6.444957 -8.577970
v 1.441336 -6.486807 -8.670039
v 1.441336 -6.503547 -8.845809
v 1.441336 -6.528657 -8.862550
v 1.441336 -6.591432 -8.896029
v 1.441336 -6.729537 -8.996470
v 1.441336 -6.947158 -8.988101
v 1.441336 -7.018303 -9.009027
v 1.441336 -7.168963 -8.979732
v 1.441336 -7.194074 -8.950437
v 1.441336 -7.298698 -8.967177
v 1.441336 -7.474469 -8.967177
v 1.441336 -7.533059 -8.983918
v 1.441336 -7.549799 -9.013213
v 1.441336 -7.533059 -9.101098
v 1.441336 -7.470284 -9.101098
v 1.441336 -7.411694 -9.096913
v 1.441336 -7.374029 -9.038323
v 1.441336 -7.357289 -9.009028
v 1.441336 -7.332179 -9.050878
v 1.441336 -7.315439 -9.205724
v 1.441336 -7.374029 -9.251760
v 1.441336 -7.449359 -9.239205
v 1.441336 -7.637685 -9.117841
v 1.441336 -7.692090 -9.101100
v 1.441336 -7.779975 -9.151320
v 1.441336 -8.190106 -9.414975
v 1.441336 -8.185921 -9.473565
v 1.441336 -8.152441 -9.486119
v 1.441336 -8.089665 -9.481935
v 1.441336 -7.980855 -9.515414
v 1.441336 -7.989225 -9.578189
v 1.441336 -8.043631 -9.582374
v 1.441336 -8.181736 -9.569819
v 1.441336 -8.236140 -9.569819
v 1.441336 -8.324025 -9.640965
v 1.441336 -8.386800 -9.774886
v 1.441336 -8.478870 -9.779071
v 1.441336 -8.591866 -9.787440
v 1.441336 -8.671381 -9.825105
v 1.441336 -8.746711 -9.908805
v 1.441336 -8.746711 -10.042726
v 1.441336 -8.755081 -10.105500
v 1.441336 -8.817856 -10.226865
v 1.441336 -8.935036 -10.277085
v 1.441336 -9.027106 -10.306380
v 1.441336 -9.119177 -10.314750
v 1.441336 -9.207062 -10.318934
v 1.441336 -9.257282 -10.373340
v 1.441336 -9.253098 -10.436114
v 1.441336 -9.186137 -10.586774
v 1.441336 -9.181952 -10.683028
v 1.441336 -9.169397 -10.779283
v 1.441336 -9.068957 -10.862983
v 1.441336 -8.993628 -10.913203
v 1.441336 -8.960148 -10.917388
v 1.441336 -8.930853 -10.875539
v 1.441336 -8.893188 -10.862985
v 1.441336 -8.788563 -10.875539
v 1.441336 -8.688123 -10.934129
v 1.441336 -8.587683 -10.946683
v 1.441336 -8.349137 -10.934129
v 1.441336 -7.901341 -10.896464
v 1.441336 -6.955530 -10.360784
v 1.441336 -6.892755 -10.323119
v 1.441336 -6.783944 -10.339860
v 1.441336 -6.725354 -10.385896
v 1.441336 -6.666764 -10.348231
v 1.441336 -6.382184 -10.084577
v 1.441336 -6.269189 -9.975766
v 1.441336 -6.051568 -9.816735
v 1.441336 -5.821393 -9.678630
v 1.441336 -5.574477 -9.590745
v 1.441336 -5.369412 -9.557265
vn 1.0000 -0.0000 -0.0000
vn -1.0000 -0.0000 -0.0000
vn -0.0000 -0.9470 -0.3213
vn -0.0000 -0.9869 -0.1611
vn -0.0000 0.9990 0.0447
vn -0.0000 0.1414 -0.9899
vn -0.0000 0.9950 0.0995
vn -0.0000 -0.0624 0.9981
vn -0.0000 0.9900 0.1414
vn -0.0000 0.2833 -0.9590
vn -0.0000 0.9991 0.0415
vn -0.0000 0.4803 -0.8771
vn -0.0000 0.9939 0.1104
vn -0.0000 -0.0000 1.0000
vn -0.0000 -0.8321 0.5547
vn -0.0000 -0.6477 0.7619
vn -0.0000 -0.0905 0.9959
vn -0.0000 -0.9945 -0.1047
vn -0.0000 -0.9864 0.1644
vn -0.0000 -0.9199 0.3921
vn -0.0000 -0.7415 0.6709
vn -0.0000 -0.7071 0.7071
vn -0.0000 -0.4472 0.8944
vn -0.0000 -0.9255 0.3786
vn -0.0000 -1.0000 -0.0000
vn -0.0000 -0.9786 -0.2060
vn -0.0000 -0.9070 -0.4211
vn -0.0000 -0.5628 -0.8266
vn -0.0000 -0.8480 -0.5300
vn -0.0000 -0.9680 -0.2510
vn -0.0000 -0.9744 0.2249
vn -0.0000 -0.8489 0.5286
vn -0.0000 -0.4706 0.8824
vn -0.0000 -0.4229 0.9062
vn -0.0000 -0.3846 0.9231
vn -0.0000 -0.9701 0.2425
vn -0.0000 -0.9981 0.0624
vn -0.0000 -0.4191 0.9080
vn -0.0000 -0.9104 0.4138
vn -0.0000 -0.9955 0.0948
vn -0.0000 -0.5547 0.8320
vn -0.0000 -0.5882 0.8087
vn -0.0000 0.0384 0.9993
vn -0.0000 -0.2822 0.9594
vn -0.0000 0.1909 0.9816
vn -0.0000 0.7593 0.6508
vn -0.0000 -0.1580 0.9874
vn -0.0000 -0.2747 0.9615
vn -0.0000 -0.8682 0.4961
vn -0.0000 -0.9823 -0.1871
vn -0.0000 -0.0000 -1.0000
vn -0.0000 0.0712 -0.9975
vn -0.0000 0.8412 -0.5408
vn -0.0000 0.8682 -0.4961
vn -0.0000 -0.8575 -0.5145
vn -0.0000 -0.9942 -0.1075
vn -0.0000 -0.6178 0.7863
vn -0.0000 0.1644 0.9864
vn -0.0000 0.5417 0.8406
vn -0.0000 0.2941 0.9558
vn -0.0000 -0.4961 0.8682
vn -0.0000 -0.5408 0.8412
vn -0.0000 -0.9975 -0.0712
vn -0.0000 -0.3511 -0.9363
vn -0.0000 0.0665 -0.9978
vn -0.0000 -0.2941 -0.9558
vn -0.0000 -0.9912 0.1322
vn -0.0000 -0.0767 0.9971
vn -0.0000 0.0905 0.9959
vn -0.0000 -0.6292 0.7772
vn -0.0000 -0.9055 0.4244
vn -0.0000 -0.0454 0.9990
vn -0.0000 -0.0739 0.9973
vn -0.0000 -0.4281 0.9037
vn -0.0000 -0.7433 0.6690
vn -0.0000 -0.8882 0.4594
vn -0.0000 -0.3939 0.9191
vn -0.0000 -0.3032 0.9529
vn -0.0000 -0.0476 0.9989
vn -0.0000 -0.7348 0.6783
vn -0.0000 -0.9978 -0.0665
vn -0.0000 -0.9138 -0.4061
vn -0.0000 -0.9991 -0.0434
vn -0.0000 -0.9916 -0.1294
vn -0.0000 -0.6402 -0.7682
vn -0.0000 -0.5547 -0.8321
vn -0.0000 -0.1240 -0.9923
vn -0.0000 0.8192 -0.5735
vn -0.0000 0.3162 -0.9487
vn -0.0000 -0.1191 -0.9929
vn -0.0000 -0.5039 -0.8638
vn -0.0000 0.0526 -0.9986
vn -0.0000 0.0838 -0.9965
vn -0.0000 0.4928 -0.8701
vn -0.0000 0.5145 -0.8575
vn -0.0000 -0.1521 -0.9884
vn -0.0000 -0.6178 -0.7863
vn -0.0000 0.5408 -0.8412
vn -0.0000 0.6796 -0.7336
vn -0.0000 0.6936 -0.7203
vn -0.0000 0.5900 -0.8074
vn -0.0000 0.3353 -0.9421
vn -0.0000 0.1611 -0.9869
vn -0.0000 0.1011 -0.9949
vn 1.0000 0.0001 -0.0000
vn -1.0000 0.0001 -0.0000
vn -0.0000 0.9899 0.1414
vn -0.0000 -0.8320 0.5547
vn -0.0000 -0.6476 0.7619
vn -0.0000 -0.9975 -0.0713
vn -0.0000 -0.9916 -0.1293
vn -0.0000 -0.5547 -0.8320
vt 0.000000 0.000000
s 0
f 59/1/1 60/1/1 69/1/1
f 180/1/2 171/1/2 170/1/2
f 16/1/3 128/1/3 17/1/3
f 15/1/4 127/1/4 16/1/4
f 1/1/5 113/1/5 2/1/5
f 2/1/6 114/1/6 3/1/6
f 3/1/7 115/1/7 4/1/7
f 4/1/8 116/1/8 5/1/8
f 5/1/9 117/1/9 6/1/9
f 6/1/10 118/1/10 7/1/10
f 7/1/11 119/1/11 8/1/11
f 8/1/12 120/1/12 9/1/12
f 9/1/13 121/1/13 10/1/13
f 10/1/14 122/1/14 11/1/14
f 11/1/15 123/1/15 12/1/15
f 12/1/16 124/1/16 13/1/16
f 13/1/17 125/1/17 14/1/17
f 14/1/14 126/1/14 15/1/14
f 17/1/18 129/1/18 18/1/18
f 18/1/19 130/1/19 19/1/19
f 19/1/20 131/1/20 20/1/20
f 20/1/21 132/1/21 21/1/21
f 21/1/22 133/1/22 22/1/22
f 22/1/23 134/1/23 23/1/23
f 23/1/24 135/1/24 24/1/24
f 24/1/25 136/1/25 25/1/25
f 25/1/26 137/1/26 26/1/26
f 26/1/27 138/1/27 27/1/27
f 27/1/28 139/1/28 28/1/28
f 28/1/29 140/1/29 29/1/29
f 29/1/30 141/1/30 30/1/30
f 30/1/31 142/1/31 31/1/31
f 31/1/32 143/1/32 32/1/32
f 32/1/33 144/1/33 33/1/33
f 33/1/34 145/1/34 34/1/34
f 34/1/35 146/1/35 35/1/35
f 35/1/36 147/1/36 36/1/36
f 36/1/37 148/1/37 37/1/37
f 37/1/38 149/1/38 38/1/38
f 38/1/39 150/1/39 39/1/39
f 39/1/40 151/1/40 40/1/40
f 40/1/41 152/1/41 41/1/41
f 41/1/33 153/1/33 42/1/33
f 42/1/42 154/1/42 43/1/42
f 43/1/43 155/1/43 44/1/43
f 44/1/44 156/1/44 45/1/44
f 45/1/45 157/1/45 46/1/45
f 46/1/46 158/1/46 47/1/46
f 47/1/47 159/1/47 48/1/47
f 48/1/14 160/1/14 49/1/14
f 49/1/48 161/1/48 50/1/48
f 50/1/49 162/1/49 51/1/49
f 51/1/50 163/1/50 52/1/50
f 52/1/51 164/1/51 53/1/51
f 53/1/52 165/1/52 54/1/52
f 54/1/53 166/1/53 55/1/53
f 55/1/54 167/1/54 56/1/54
f 56/1/55 168/1/55 57/1/55
f 57/1/56 169/1/56 58/1/56
f 58/1/57 170/1/57 59/1/57
f 59/1/58 171/1/58 60/1/58
f 60/1/59 172/1/59 61/1/59
f 61/1/60 173/1/60 62/1/60
f 62/1/61 174/1/61 63/1/61
f 63/1/62 175/1/62 64/1/62
f 64/1/63 176/1/63 65/1/63
f 65/1/64 177/1/64 66/1/64
f 66/1/65 178/1/65 67/1/65
f 67/1/66 179/1/66 68/1/66
f 68/1/67 180/1/67 69/1/67
f 69/1/68 181/1/68 70/1/68
f 70/1/69 182/1/69 71/1/69
f 71/1/14 183/1/14 72/1/14
f 72/1/70 184/1/70 73/1/70
f 73/1/71 185/1/71 74/1/71
f 74/1/72 186/1/72 75/1/72
f 75/1/73 187/1/73 76/1/73
f 76/1/74 188/1/74 77/1/74
f 77/1/75 189/1/75 78/1/75
f 78/1/25 190/1/25 79/1/25
f 79/1/67 191/1/67 80/1/67
f 80/1/76 192/1/76 81/1/76
f 81/1/77 193/1/77 82/1/77
f 82/1/78 194/1/78 83/1/78
f 83/1/17 195/1/17 84/1/17
f 84/1/79 196/1/79 85/1/79
f 85/1/80 197/1/80 86/1/80
f 86/1/81 198/1/81 87/1/81
f 87/1/82 199/1/82 88/1/82
f 88/1/83 200/1/83 89/1/83
f 89/1/84 201/1/84 90/1/84
f 90/1/85 202/1/85 91/1/85
f 91/1/86 203/1/86 92/1/86
f 92/1/87 204/1/87 93/1/87
f 93/1/88 205/1/88 94/1/88
f 94/1/89 206/1/89 95/1/89
f 95/1/90 207/1/90 96/1/90
f 96/1/91 208/1/91 97/1/91
f 97/1/87 209/1/87 98/1/87
f 98/1/92 210/1/92 99/1/92
f 99/1/93 211/1/93 100/1/93
f 100/1/94 212/1/94 101/1/94
f 101/1/95 213/1/95 102/1/95
f 102/1/96 214/1/96 103/1/96
f 103/1/97 215/1/97 104/1/97
f 104/1/98 216/1/98 105/1/98
f 105/1/99 217/1/99 106/1/99
f 106/1/100 218/1/100 107/1/100
f 107/1/101 219/1/101 108/1/101
f 108/1/95 220/1/95 109/1/95
f 109/1/102 221/1/102 110/1/102
f 110/1/103 222/1/103 111/1/103
f 111/1/104 112/1/104 1/1/104
f 14/1/1 15/1/1 16/1/1
f 14/1/1 16/1/1 17/1/1
f 13/1/1 14/1/1 17/1/1
f 13/1/1 17/1/1 18/1/1
f 10/1/1 11/1/1 12/1/1
f 12/1/1 13/1/1 18/1/1
f 12/1/1 18/1/1 19/1/1
f 9/1/1 10/1/1 12/1/1
f 6/1/1 7/1/1 8/1/1
f 8/1/1 9/1/1 12/1/1
f 8/1/1 12/1/1 19/1/1
f 6/1/1 8/1/1 19/1/1
f 6/1/1 19/1/1 20/1/1
f 3/1/1 4/1/1 5/1/1
f 5/1/1 6/1/1 20/1/1
f 5/1/1 20/1/1 21/1/1
f 2/1/1 3/1/1 5/1/1
f 111/1/1 1/1/1 2/1/1
f 110/1/1 111/1/1 2/1/1
f 110/1/1 2/1/1 5/1/1
f 109/1/1 110/1/1 5/1/1
f 22/1/1 23/1/1 24/1/1
f 24/1/1 25/1/1 26/1/1
f 26/1/1 27/1/1 28/1/1
f 24/1/1 26/1/1 28/1/1
f 21/1/1 22/1/1 24/1/1
f 108/1/1 109/1/1 5/1/1
f 105/1/1 106/1/1 107/1/1
f 107/1/1 108/1/1 5/1/1
f 21/1/1 24/1/1 28/1/1
f 21/1/1 28/1/1 29/1/1
f 105/1/1 107/1/1 5/1/1
f 103/1/1 104/1/1 105/1/1
f 100/1/105 101/1/105 102/1/105
f 102/1/1 103/1/1 105/1/1
f 5/1/1 21/1/1 29/1/1
f 5/1/1 29/1/1 30/1/1
f 102/1/1 105/1/1 5/1/1
f 99/1/1 100/1/1 102/1/1
f 97/1/1 98/1/1 99/1/1
f 96/1/1 97/1/1 99/1/1
f 99/1/1 102/1/1 5/1/1
f 5/1/1 30/1/1 31/1/1
f 5/1/1 31/1/1 32/1/1
f 96/1/1 99/1/1 5/1/1
f 95/1/1 96/1/1 5/1/1
f 5/1/1 32/1/1 33/1/1
f 34/1/1 35/1/1 36/1/1
f 5/1/1 33/1/1 34/1/1
f 94/1/1 95/1/1 5/1/1
f 92/1/1 93/1/1 94/1/1
f 90/1/1 91/1/1 92/1/1
f 88/1/1 89/1/1 90/1/1
f 86/1/1 87/1/1 88/1/1
f 84/1/1 85/1/1 86/1/1
f 83/1/1 84/1/1 86/1/1
f 88/1/1 90/1/1 92/1/1
f 83/1/1 86/1/1 88/1/1
f 82/1/1 83/1/1 88/1/1
f 88/1/1 92/1/1 94/1/1
f 5/1/1 34/1/1 36/1/1
f 37/1/1 38/1/1 39/1/1
f 5/1/1 36/1/1 37/1/1
f 88/1/1 94/1/1 5/1/1
f 81/1/1 82/1/1 88/1/1
f 81/1/1 88/1/1 5/1/1
f 5/1/1 37/1/1 39/1/1
f 5/1/1 39/1/1 40/1/1
f 80/1/1 81/1/1 5/1/1
f 77/1/1 78/1/1 79/1/1
f 79/1/1 80/1/1 5/1/1
f 5/1/1 40/1/1 41/1/1
f 41/1/1 42/1/1 43/1/1
f 43/1/1 44/1/1 45/1/1
f 46/1/1 47/1/1 48/1/1
f 45/1/1 46/1/1 48/1/1
f 48/1/1 49/1/1 50/1/1
f 50/1/1 51/1/1 52/1/1
f 52/1/1 53/1/1 54/1/1
f 54/1/105 55/1/105 56/1/105
f 52/1/1 54/1/1 56/1/1
f 48/1/1 50/1/1 52/1/1
f 48/1/1 52/1/1 56/1/1
f 48/1/1 56/1/1 57/1/1
f 45/1/1 48/1/1 57/1/1
f 45/1/1 57/1/1 58/1/1
f 5/1/1 41/1/1 43/1/1
f 43/1/1 45/1/1 58/1/1
f 43/1/1 58/1/1 59/1/1
f 79/1/1 5/1/1 43/1/1
f 76/1/1 77/1/1 79/1/1
f 74/1/1 75/1/1 76/1/1
f 72/1/1 73/1/1 74/1/1
f 70/1/1 71/1/1 72/1/1
f 70/1/1 72/1/1 74/1/1
f 74/1/1 76/1/1 79/1/1
f 79/1/1 43/1/1 59/1/1
f 60/1/1 61/1/1 62/1/1
f 70/1/1 74/1/1 79/1/1
f 69/1/1 70/1/1 79/1/1
f 60/1/1 62/1/1 63/1/1
f 63/1/1 64/1/1 65/1/1
f 65/1/1 66/1/1 67/1/1
f 63/1/1 65/1/1 67/1/1
f 60/1/1 63/1/1 67/1/1
f 60/1/1 67/1/1 68/1/1
f 69/1/1 79/1/1 59/1/1
f 60/1/1 68/1/1 69/1/1
f 127/1/2 126/1/2 125/1/2
f 127/1/2 125/1/2 124/1/2
f 128/1/2 127/1/2 124/1/2
f 123/1/2 122/1/2 121/1/2
f 128/1/2 124/1/2 123/1/2
f 129/1/2 128/1/2 123/1/2
f 123/1/2 121/1/2 120/1/2
f 119/1/2 118/1/2 117/1/2
f 123/1/2 120/1/2 119/1/2
f 130/1/2 129/1/2 123/1/2
f 130/1/2 123/1/2 119/1/2
f 130/1/2 119/1/2 117/1/2
f 131/1/2 130/1/2 117/1/2
f 116/1/2 115/1/2 114/1/2
f 131/1/2 117/1/2 116/1/2
f 132/1/2 131/1/2 116/1/2
f 116/1/2 114/1/2 113/1/2
f 113/1/2 112/1/2 222/1/2
f 113/1/2 222/1/2 221/1/2
f 116/1/2 113/1/2 221/1/2
f 116/1/2 221/1/2 220/1/2
f 135/1/2 134/1/2 133/1/2
f 137/1/2 136/1/2 135/1/2
f 139/1/2 138/1/2 137/1/2
f 139/1/2 137/1/2 135/1/2
f 135/1/2 133/1/2 132/1/2
f 116/1/2 220/1/2 219/1/2
f 218/1/2 217/1/2 216/1/2
f 116/1/2 219/1/2 218/1/2
f 139/1/2 135/1/2 132/1/2
f 140/1/2 139/1/2 132/1/2
f 116/1/2 218/1/2 216/1/2
f 216/1/2 215/1/2 214/1/2
f 213/1/2 212/1/2 211/1/2
f 216/1/2 214/1/2 213/1/2
f 140/1/2 132/1/2 116/1/2
f 141/1/2 140/1/2 116/1/2
f 116/1/2 216/1/2 213/1/2
f 213/1/2 211/1/2 210/1/2
f 210/1/2 209/1/2 208/1/2
f 210/1/2 208/1/2 207/1/2
f 116/1/2 213/1/2 210/1/2
f 142/1/2 141/1/2 116/1/2
f 143/1/2 142/1/2 116/1/2
f 116/1/2 210/1/2 207/1/2
f 116/1/2 207/1/2 206/1/2
f 144/1/2 143/1/2 116/1/2
f 147/1/2 146/1/2 145/1/2
f 145/1/2 144/1/2 116/1/2
f 116/1/2 206/1/2 205/1/2
f 205/1/2 204/1/2 203/1/2
f 203/1/2 202/1/2 201/1/2
f 201/1/2 200/1/2 199/1/2
f 199/1/2 198/1/2 197/1/2
f 197/1/2 196/1/2 195/1/2
f 197/1/2 195/1/2 194/1/2
f 203/1/2 201/1/2 199/1/2
f 199/1/2 197/1/2 194/1/2
f 199/1/2 194/1/2 193/1/2
f 205/1/2 203/1/2 199/1/2
f 147/1/2 145/1/2 116/1/2
f 150/1/2 149/1/2 148/1/2
f 148/1/2 147/1/2 116/1/2
f 116/1/2 205/1/2 199/1/2
f 199/1/2 193/1/2 192/1/2
f 116/1/2 199/1/2 192/1/2
f 150/1/2 148/1/2 116/1/2
f 151/1/2 150/1/2 116/1/2
f 116/1/2 192/1/2 191/1/2
f 190/1/2 189/1/2 188/1/2
f 116/1/2 191/1/2 190/1/2
f 152/1/2 151/1/2 116/1/2
f 154/1/2 153/1/2 152/1/2
f 156/1/2 155/1/2 154/1/2
f 159/1/2 158/1/2 157/1/2
f 159/1/2 157/1/2 156/1/2
f 161/1/2 160/1/2 159/1/2
f 163/1/2 162/1/2 161/1/2
f 165/1/2 164/1/2 163/1/2
f 167/1/106 166/1/106 165/1/106
f 167/1/2 165/1/2 163/1/2
f 163/1/2 161/1/2 159/1/2
f 167/1/2 163/1/2 159/1/2
f 168/1/2 167/1/2 159/1/2
f 168/1/2 159/1/2 156/1/2
f 169/1/2 168/1/2 156/1/2
f 154/1/2 152/1/2 116/1/2
f 169/1/2 156/1/2 154/1/2
f 170/1/2 169/1/2 154/1/2
f 154/1/2 116/1/2 190/1/2
f 190/1/2 188/1/2 187/1/2
f 187/1/2 186/1/2 185/1/2
f 185/1/2 184/1/2 183/1/2
f 183/1/2 182/1/2 181/1/2
f 185/1/2 183/1/2 181/1/2
f 190/1/2 187/1/2 185/1/2
f 170/1/2 154/1/2 190/1/2
f 173/1/2 172/1/2 171/1/2
f 190/1/2 185/1/2 181/1/2
f 190/1/2 181/1/2 180/1/2
f 174/1/2 173/1/2 171/1/2
f 176/1/2 175/1/2 174/1/2
f 178/1/2 177/1/2 176/1/2
f 178/1/2 176/1/2 174/1/2
f 178/1/2 174/1/2 171/1/2
f 179/1/2 178/1/2 171/1/2
f 170/1/2 190/1/2 180/1/2
f 180/1/2 179/1/2 171/1/2
f 16/1/3 127/1/3 128/1/3
f 15/1/4 126/1/4 127/1/4
f 1/1/5 112/1/5 113/1/5
f 2/1/6 113/1/6 114/1/6
f 3/1/7 114/1/7 115/1/7
f 4/1/8 115/1/8 116/1/8
f 5/1/107 116/1/107 117/1/107
f 6/1/10 117/1/10 118/1/10
f 7/1/11 118/1/11 119/1/11
f 8/1/12 119/1/12 120/1/12
f 9/1/13 120/1/13 121/1/13
f 10/1/14 121/1/14 122/1/14
f 11/1/108 122/1/108 123/1/108
f 12/1/109 123/1/109 124/1/109
f 13/1/17 124/1/17 125/1/17
f 14/1/14 125/1/14 126/1/14
f 17/1/18 128/1/18 129/1/18
f 18/1/19 129/1/19 130/1/19
f 19/1/20 130/1/20 131/1/20
f 20/1/21 131/1/21 132/1/21
f 21/1/22 132/1/22 133/1/22
f 22/1/23 133/1/23 134/1/23
f 23/1/24 134/1/24 135/1/24
f 24/1/25 135/1/25 136/1/25
f 25/1/26 136/1/26 137/1/26
f 26/1/27 137/1/27 138/1/27
f 27/1/28 138/1/28 139/1/28
f 28/1/29 139/1/29 140/1/29
f 29/1/30 140/1/30 141/1/30
f 30/1/31 141/1/31 142/1/31
f 31/1/32 142/1/32 143/1/32
f 32/1/33 143/1/33 144/1/33
f 33/1/34 144/1/34 145/1/34
f 34/1/35 145/1/35 146/1/35
f 35/1/36 146/1/36 147/1/36
f 36/1/37 147/1/37 148/1/37
f 37/1/38 148/1/38 149/1/38
f 38/1/39 149/1/39 150/1/39
f 39/1/40 150/1/40 151/1/40
f 40/1/41 151/1/41 152/1/41
f 41/1/33 152/1/33 153/1/33
f 42/1/42 153/1/42 154/1/42
f 43/1/43 154/1/43 155/1/43
f 44/1/44 155/1/44 156/1/44
f 45/1/45 156/1/45 157/1/45
f 46/1/46 157/1/46 158/1/46
f 47/1/47 158/1/47 159/1/47
f 48/1/14 159/1/14 160/1/14
f 49/1/48 160/1/48 161/1/48
f 50/1/49 161/1/49 162/1/49
f 51/1/50 162/1/50 163/1/50
f 52/1/51 163/1/51 164/1/51
f 53/1/52 164/1/52 165/1/52
f 54/1/53 165/1/53 166/1/53
f 55/1/54 166/1/54 167/1/54
f 56/1/55 167/1/55 168/1/55
f 57/1/56 168/1/56 169/1/56
f 58/1/57 169/1/57 170/1/57
f 59/1/58 170/1/58 171/1/58
f 60/1/59 171/1/59 172/1/59
f 61/1/60 172/1/60 173/1/60
f 62/1/61 173/1/61 174/1/61
f 63/1/62 174/1/62 175/1/62
f 64/1/110 175/1/110 176/1/110
f 65/1/64 176/1/64 177/1/64
f 66/1/65 177/1/65 178/1/65
f 67/1/66 178/1/66 179/1/66
f 68/1/67 179/1/67 180/1/67
f 69/1/68 180/1/68 181/1/68
f 70/1/69 181/1/69 182/1/69
f 71/1/14 182/1/14 183/1/14
f 72/1/70 183/1/70 184/1/70
f 73/1/71 184/1/71 185/1/71
f 74/1/72 185/1/72 186/1/72
f 75/1/73 186/1/73 187/1/73
f 76/1/74 187/1/74 188/1/74
f 77/1/75 188/1/75 189/1/75
f 78/1/25 189/1/25 190/1/25
f 79/1/67 190/1/67 191/1/67
f 80/1/76 191/1/76 192/1/76
f 81/1/77 192/1/77 193/1/77
f 82/1/78 193/1/78 194/1/78
f 83/1/17 194/1/17 195/1/17
f 84/1/79 195/1/79 196/1/79
f 85/1/80 196/1/80 197/1/80
f 86/1/81 197/1/81 198/1/81
f 87/1/82 198/1/82 199/1/82
f 88/1/83 199/1/83 200/1/83
f 89/1/111 200/1/111 201/1/111
f 90/1/85 201/1/85 202/1/85
f 91/1/112 202/1/112 203/1/112
f 92/1/87 203/1/87 204/1/87
f 93/1/88 204/1/88 205/1/88
f 94/1/89 205/1/89 206/1/89
f 95/1/90 206/1/90 207/1/90
f 96/1/91 207/1/91 208/1/91
f 97/1/87 208/1/87 209/1/87
f 98/1/92 209/1/92 210/1/92
f 99/1/93 210/1/93 211/1/93
f 100/1/94 211/1/94 212/1/94
f 101/1/95 212/1/95 213/1/95
f 102/1/96 213/1/96 214/1/96
f 103/1/97 214/1/97 215/1/97
f 104/1/98 215/1/98 216/1/98
f 105/1/99 216/1/99 217/1/99
f 106/1/100 217/1/100 218/1/100
f 107/1/101 218/1/101 219/1/101
f 108/1/95 219/1/95 220/1/95
f 109/1/102 220/1/102 221/1/102
f 110/1/103 221/1/103 222/1/103
f 111/1/104 222/1/104 112/1/104
