# Blender 5.2.0 LTS
# www.blender.org
mtllib Georgia.mtl
o Plane.002
v 1.441337 -4.145542 -9.559487
v 1.441337 -4.079783 -9.546962
v 1.441337 -3.992105 -9.531304
v 1.441337 -3.923215 -9.465545
v 1.441337 -3.819880 -9.368472
v 1.441337 -3.713413 -9.312108
v 1.441337 -3.650785 -9.255744
v 1.441337 -3.588158 -9.255744
v 1.441337 -3.494217 -9.211905
v 1.441337 -3.431589 -9.143016
v 1.441337 -3.425326 -9.092914
v 1.441337 -3.425326 -9.033418
v 1.441337 -3.428458 -8.983315
v 1.441337 -3.409669 -8.961396
v 1.441337 -3.347042 -8.948871
v 1.441337 -3.231181 -8.917558
v 1.441337 -3.146634 -8.851798
v 1.441337 -2.867942 -8.410275
v 1.441337 -2.673797 -8.328860
v 1.441337 -2.570461 -8.241181
v 1.441337 -2.554804 -8.194211
v 1.441337 -2.536016 -8.115926
v 1.441337 -2.426418 -7.975015
v 1.441337 -2.335608 -7.887336
v 1.441337 -2.175909 -8.025117
v 1.441337 -4.162175 -9.733237
v 1.441336 -4.517866 -9.585418
v 1.441336 -4.725737 -9.525367
v 1.441336 -4.936932 -9.481084
v 1.441336 -5.018684 -9.487897
v 1.441336 -5.223066 -9.542399
v 1.441336 -5.233285 -9.314174
v 1.441336 -5.185596 -9.307361
v 1.441336 -5.202628 -9.137042
v 1.441336 -5.529638 -9.157479
v 1.441336 -5.539858 -9.085946
v 1.441336 -5.389977 -9.041663
v 1.441336 -5.461512 -7.321450
v 1.441337 -2.469327 -6.554568
v 1.441337 -3.693769 -6.886966
v 1.441337 -3.880318 -6.910708
v 1.441337 -4.212715 -7.093865
v 1.441336 -4.307686 -7.178660
v 1.441336 -4.426399 -7.185445
v 1.441336 -4.579030 -7.070123
v 1.441336 -4.670609 -7.066731
v 1.441336 -5.192947 -7.226146
v 1.441336 -5.318444 -7.243104
v 1.441337 -2.382073 -6.523797
v 1.441337 -2.251061 -7.317428
v 2.441336 -4.145542 -9.559487
v 2.441336 -4.079783 -9.546962
v 2.441336 -3.992105 -9.531304
v 2.441336 -3.923215 -9.465545
v 2.441336 -3.819880 -9.368472
v 2.441336 -3.713413 -9.312108
v 2.441336 -3.650785 -9.255744
v 2.441336 -3.588158 -9.255744
v 2.441336 -3.494217 -9.211905
v 2.441336 -3.431589 -9.143016
v 2.441336 -3.425326 -9.092914
v 2.441336 -3.425326 -9.033418
v 2.441336 -3.428458 -8.983315
v 2.441336 -3.409669 -8.961396
v 2.441336 -3.347042 -8.948871
v 2.441336 -3.231181 -8.917558
v 2.441336 -3.146634 -8.851798
v 2.441337 -2.867942 -8.410275
v 2.441337 -2.673797 -8.328860
v 2.441337 -2.570461 -8.241181
v 2.441337 -2.554804 -8.194211
v 2.441337 -2.536016 -8.115926
v 2.441337 -2.426418 -7.975015
v 2.441337 -2.335608 -7.887336
v 2.441337 -2.175909 -8.025117
v 2.441336 -4.162175 -9.733237
v 2.441336 -4.517866 -9.585418
v 2.441336 -4.725737 -9.525367
v 2.441336 -4.936932 -9.481084
v 2.441336 -5.018684 -9.487897
v 2.441336 -5.223066 -9.542399
v 2.441336 -5.233285 -9.314174
v 2.441336 -5.185596 -9.307361
v 2.441336 -5.202628 -9.137042
v 2.441336 -5.529638 -9.157479
v 2.441336 -5.539858 -9.085946
v 2.441336 -5.389977 -9.041663
v 2.441336 -5.461512 -7.321450
v 2.441337 -2.469327 -6.554568
v 2.441336 -3.693769 -6.886966
v 2.441336 -3.880318 -6.910708
v 2.441336 -4.212715 -7.093865
v 2.441336 -4.307686 -7.178660
v 2.441336 -4.426399 -7.185445
v 2.441336 -4.579030 -7.070123
v 2.441336 -4.670609 -7.066731
v 2.441336 -5.192947 -7.226146
v 2.441336 -5.318444 -7.243104
v 2.441337 -2.382073 -6.523797
v 2.441337 -2.251061 -7.317428
vn -1.0000 -0.0000 -0.0000
vn 1.0000 -0.0000 -0.0000
vn -0.0000 0.9954 -0.0953
vn -0.0000 0.1871 -0.9823
vn -0.0000 0.1758 -0.9844
vn -0.0000 0.6905 -0.7234
vn -0.0000 0.6847 -0.7288
vn -0.0000 0.4679 -0.8838
vn -0.0000 0.6690 -0.7433
vn -0.0000 -0.0000 -1.0000
vn -0.0000 0.4229 -0.9062
vn -0.0000 0.7399 -0.6727
vn -0.0000 0.9923 -0.1240
vn -0.0000 1.0000 -0.0000
vn -0.0000 0.9981 0.0624
vn -0.0000 0.7592 -0.6508
vn -0.0000 0.1961 -0.9806
vn -0.0000 0.2609 -0.9654
vn -0.0000 0.6139 -0.7893
vn -0.0000 0.8456 -0.5338
vn -0.0000 0.3867 -0.9222
vn -0.0000 0.6470 -0.7625
vn -0.0000 0.9487 -0.3162
vn -0.0000 0.9724 -0.2334
vn -0.0000 0.7894 -0.6139
vn -0.0000 0.6946 -0.7194
vn -0.0000 -0.6532 -0.7572
vn -0.0000 0.9944 0.1056
vn -0.0000 -0.3838 -0.9234
vn -0.0000 -0.2775 -0.9607
vn -0.0000 -0.2052 -0.9787
vn -0.0000 0.0830 -0.9965
vn -0.0000 0.2577 -0.9662
vn -0.0000 -0.9990 -0.0447
vn -0.0000 -0.1414 0.9899
vn -0.0000 -0.9950 -0.0995
vn -0.0000 0.0624 -0.9981
vn -0.0000 -0.9900 -0.1414
vn -0.0000 -0.2833 0.9590
vn -0.0000 -0.9991 -0.0415
vn -0.0000 -0.4803 0.8771
vn -0.0000 -0.3326 0.9431
vn -0.0000 -0.2620 0.9651
vn -0.0000 -0.1263 0.9920
vn -0.0000 -0.4826 0.8758
vn -0.0000 -0.6660 0.7459
vn -0.0000 -0.0571 0.9984
vn -0.0000 0.6028 0.7979
vn -0.0000 0.0370 0.9993
vn -0.0000 -0.2919 0.9564
vn -0.0000 -0.1339 0.9910
vn -0.0000 0.9866 0.1629
vn 1.0000 -0.0002 -0.0000
vn -0.0000 -0.9899 -0.1414
vt 0.000000 0.000000
s 0
f 39/1/1 18/1/1 14/1/1
f 94/1/2 98/1/2 87/1/2
f 1/1/3 76/1/3 26/1/3
f 2/1/4 51/1/4 1/1/4
f 3/1/5 52/1/5 2/1/5
f 4/1/6 53/1/6 3/1/6
f 5/1/7 54/1/7 4/1/7
f 6/1/8 55/1/8 5/1/8
f 7/1/9 56/1/9 6/1/9
f 8/1/10 57/1/10 7/1/10
f 9/1/11 58/1/11 8/1/11
f 10/1/12 59/1/12 9/1/12
f 11/1/13 60/1/13 10/1/13
f 12/1/14 61/1/14 11/1/14
f 13/1/15 62/1/15 12/1/15
f 14/1/16 63/1/16 13/1/16
f 15/1/17 64/1/17 14/1/17
f 16/1/18 65/1/18 15/1/18
f 17/1/19 66/1/19 16/1/19
f 18/1/20 67/1/20 17/1/20
f 19/1/21 68/1/21 18/1/21
f 20/1/22 69/1/22 19/1/22
f 21/1/23 70/1/23 20/1/23
f 22/1/24 71/1/24 21/1/24
f 23/1/25 72/1/25 22/1/25
f 24/1/26 73/1/26 23/1/26
f 25/1/27 74/1/27 24/1/27
f 50/1/28 75/1/28 25/1/28
f 26/1/29 77/1/29 27/1/29
f 27/1/30 78/1/30 28/1/30
f 28/1/31 79/1/31 29/1/31
f 29/1/32 80/1/32 30/1/32
f 30/1/33 81/1/33 31/1/33
f 31/1/34 82/1/34 32/1/34
f 32/1/35 83/1/35 33/1/35
f 33/1/36 84/1/36 34/1/36
f 34/1/37 85/1/37 35/1/37
f 35/1/38 86/1/38 36/1/38
f 36/1/39 87/1/39 37/1/39
f 37/1/40 88/1/40 38/1/40
f 38/1/41 98/1/41 48/1/41
f 39/1/42 99/1/42 49/1/42
f 40/1/43 89/1/43 39/1/43
f 41/1/44 90/1/44 40/1/44
f 42/1/45 91/1/45 41/1/45
f 43/1/46 92/1/46 42/1/46
f 44/1/47 93/1/47 43/1/47
f 45/1/48 94/1/48 44/1/48
f 46/1/49 95/1/49 45/1/49
f 47/1/50 96/1/50 46/1/50
f 48/1/51 97/1/51 47/1/51
f 49/1/52 100/1/52 50/1/52
f 30/1/1 31/1/1 32/1/1
f 30/1/1 32/1/1 33/1/1
f 29/1/1 30/1/1 33/1/1
f 34/1/1 35/1/1 36/1/1
f 29/1/1 33/1/1 34/1/1
f 28/1/1 29/1/1 34/1/1
f 34/1/1 36/1/1 37/1/1
f 37/1/1 38/1/1 48/1/1
f 47/1/1 46/1/1 45/1/1
f 37/1/1 48/1/1 47/1/1
f 27/1/1 28/1/1 34/1/1
f 34/1/1 37/1/1 47/1/1
f 47/1/1 45/1/1 44/1/1
f 43/1/1 42/1/1 41/1/1
f 34/1/1 47/1/1 44/1/1
f 43/1/1 41/1/1 40/1/1
f 34/1/1 44/1/1 43/1/1
f 26/1/1 27/1/1 34/1/1
f 1/1/1 26/1/1 34/1/1
f 34/1/1 43/1/1 40/1/1
f 39/1/1 49/1/1 50/1/1
f 34/1/1 40/1/1 39/1/1
f 2/1/1 1/1/1 34/1/1
f 4/1/1 3/1/1 2/1/1
f 7/1/1 6/1/1 5/1/1
f 5/1/1 4/1/1 2/1/1
f 2/1/1 34/1/1 39/1/1
f 39/1/1 50/1/1 25/1/1
f 39/1/1 25/1/1 24/1/1
f 5/1/1 2/1/1 39/1/1
f 9/1/1 8/1/1 7/1/1
f 7/1/1 5/1/1 39/1/1
f 39/1/1 24/1/1 23/1/1
f 22/1/1 21/1/1 20/1/1
f 39/1/1 23/1/1 22/1/1
f 10/1/1 9/1/1 7/1/1
f 12/1/1 11/1/1 10/1/1
f 13/1/1 12/1/1 10/1/1
f 39/1/1 22/1/1 20/1/1
f 20/1/1 19/1/1 18/1/1
f 18/1/1 17/1/1 16/1/1
f 16/1/1 15/1/1 14/1/1
f 13/1/1 10/1/1 7/1/1
f 18/1/1 16/1/1 14/1/1
f 13/1/1 7/1/1 39/1/1
f 14/1/1 13/1/1 39/1/1
f 39/1/1 20/1/1 18/1/1
f 77/1/2 76/1/2 51/1/2
f 52/1/2 53/1/2 54/1/2
f 77/1/2 51/1/2 52/1/2
f 78/1/2 77/1/2 52/1/2
f 52/1/2 54/1/2 55/1/2
f 55/1/2 56/1/2 57/1/2
f 57/1/2 58/1/2 59/1/2
f 59/1/2 60/1/2 61/1/2
f 61/1/53 62/1/53 63/1/53
f 64/1/2 65/1/2 66/1/2
f 59/1/2 61/1/2 63/1/2
f 64/1/2 66/1/2 67/1/2
f 57/1/2 59/1/2 63/1/2
f 64/1/2 67/1/2 68/1/2
f 55/1/2 57/1/2 63/1/2
f 55/1/2 63/1/2 64/1/2
f 78/1/2 52/1/2 55/1/2
f 79/1/2 78/1/2 55/1/2
f 55/1/2 64/1/2 68/1/2
f 68/1/2 69/1/2 70/1/2
f 70/1/2 71/1/2 72/1/2
f 68/1/2 70/1/2 72/1/2
f 79/1/2 55/1/2 68/1/2
f 82/1/2 81/1/2 80/1/2
f 80/1/2 79/1/2 68/1/2
f 68/1/2 72/1/2 73/1/2
f 74/1/2 75/1/2 100/1/2
f 80/1/2 68/1/2 73/1/2
f 73/1/2 74/1/2 100/1/2
f 100/1/2 99/1/2 89/1/2
f 90/1/2 91/1/2 92/1/2
f 100/1/2 89/1/2 90/1/2
f 80/1/2 73/1/2 100/1/2
f 83/1/2 82/1/2 80/1/2
f 86/1/2 85/1/2 84/1/2
f 84/1/2 83/1/2 80/1/2
f 80/1/2 100/1/2 90/1/2
f 90/1/2 92/1/2 93/1/2
f 94/1/2 95/1/2 96/1/2
f 80/1/2 90/1/2 93/1/2
f 94/1/2 96/1/2 97/1/2
f 80/1/2 93/1/2 94/1/2
f 87/1/2 86/1/2 84/1/2
f 84/1/2 80/1/2 94/1/2
f 94/1/2 97/1/2 98/1/2
f 98/1/2 88/1/2 87/1/2
f 87/1/2 84/1/2 94/1/2
f 1/1/3 51/1/3 76/1/3
f 2/1/4 52/1/4 51/1/4
f 3/1/5 53/1/5 52/1/5
f 4/1/6 54/1/6 53/1/6
f 5/1/7 55/1/7 54/1/7
f 6/1/8 56/1/8 55/1/8
f 7/1/9 57/1/9 56/1/9
f 8/1/10 58/1/10 57/1/10
f 9/1/11 59/1/11 58/1/11
f 10/1/12 60/1/12 59/1/12
f 11/1/13 61/1/13 60/1/13
f 12/1/14 62/1/14 61/1/14
f 13/1/15 63/1/15 62/1/15
f 14/1/16 64/1/16 63/1/16
f 15/1/17 65/1/17 64/1/17
f 16/1/18 66/1/18 65/1/18
f 17/1/19 67/1/19 66/1/19
f 18/1/20 68/1/20 67/1/20
f 19/1/21 69/1/21 68/1/21
f 20/1/22 70/1/22 69/1/22
f 21/1/23 71/1/23 70/1/23
f 22/1/24 72/1/24 71/1/24
f 23/1/25 73/1/25 72/1/25
f 24/1/26 74/1/26 73/1/26
f 25/1/27 75/1/27 74/1/27
f 50/1/28 100/1/28 75/1/28
f 26/1/29 76/1/29 77/1/29
f 27/1/30 77/1/30 78/1/30
f 28/1/31 78/1/31 79/1/31
f 29/1/32 79/1/32 80/1/32
f 30/1/33 80/1/33 81/1/33
f 31/1/34 81/1/34 82/1/34
f 32/1/35 82/1/35 83/1/35
f 33/1/36 83/1/36 84/1/36
f 34/1/37 84/1/37 85/1/37
f 35/1/54 85/1/54 86/1/54
f 36/1/39 86/1/39 87/1/39
f 37/1/40 87/1/40 88/1/40
f 38/1/41 88/1/41 98/1/41
f 39/1/42 89/1/42 99/1/42
f 40/1/43 90/1/43 89/1/43
f 41/1/44 91/1/44 90/1/44
f 42/1/45 92/1/45 91/1/45
f 43/1/46 93/1/46 92/1/46
f 44/1/47 94/1/47 93/1/47
f 45/1/48 95/1/48 94/1/48
f 46/1/49 96/1/49 95/1/49
f 47/1/50 97/1/50 96/1/50
f 48/1/51 98/1/51 97/1/51
f 49/1/52 99/1/52 100/1/52
