# Blender 5.2.0 LTS
# www.blender.org
mtllib Illinois.mtl
o Plane.029
v 1.441337 0.340716 -3.580775
v 1.441337 0.289286 -3.594489
v 1.441337 0.114424 -3.597919
v 1.441337 0.038993 -3.553346
v 1.441337 -0.084439 -3.481343
v 1.441337 -0.125583 -3.433341
v 1.441337 -0.238729 -3.522487
v 1.441337 -0.372447 -3.687062
v 1.441337 -0.420448 -3.800208
v 1.441337 -0.437591 -3.892781
v 1.441337 -0.499308 -3.951068
v 1.441337 -0.763315 -4.098500
v 1.441337 -0.821602 -4.040214
v 1.441337 -0.907319 -4.036784
v 1.441337 -1.003322 -4.098500
v 1.441337 -1.027322 -4.156787
v 1.441337 -1.030751 -4.252789
v 1.441337 -1.037608 -4.266503
v 1.441337 -0.297016 -4.873382
v 1.441337 -0.396447 -4.863095
v 1.441337 -0.519879 -4.811666
v 1.441337 -0.585024 -4.808236
v 1.441337 -0.633025 -4.883666
v 1.441337 -0.660455 -4.791093
v 1.441337 -0.667312 -4.701947
v 1.441337 -0.718742 -4.619658
v 1.441337 -0.787315 -4.588801
v 1.441337 -0.838745 -4.626517
v 1.441337 -0.869603 -4.674520
v 1.441337 -0.910747 -4.684806
v 1.441337 -0.979321 -4.643662
v 1.441337 -0.893604 -4.458514
v 1.441337 -0.879889 -4.379655
v 1.441337 -0.917605 -4.304225
v 1.441337 -0.962177 -4.273368
v 1.441337 1.416706 -2.774478
v 1.441337 1.351994 -2.729676
v 1.441337 1.287281 -2.739633
v 1.441337 1.192701 -2.804345
v 1.441337 1.088165 -2.809323
v 1.441337 1.029878 -2.792180
v 1.441337 0.759013 -2.997901
v 1.441337 0.601295 -3.186479
v 1.441337 0.532721 -3.244765
v 1.441337 0.385289 -3.261909
v 1.441337 0.375003 -3.532773
v 1.441337 1.481419 -2.774478
v 1.441337 -0.091296 -4.880239
v 1.441337 0.004707 -4.911096
v 1.441337 0.275571 -5.085958
v 1.441337 0.361288 -5.109958
v 1.441337 0.508721 -5.089387
v 1.441337 1.808186 -5.020812
v 1.441337 1.938475 -4.986526
v 1.441337 2.257341 -4.945382
v 1.441337 2.356773 -4.869952
v 1.441337 2.535063 -4.917954
v 1.441337 2.572779 -4.962527
v 1.441337 2.713354 -4.856238
v 1.441337 2.871073 -4.787665
v 1.441337 2.963647 -4.725949
v 1.441337 3.076793 -4.712235
v 1.441337 3.138509 -4.688235
v 1.441337 3.049364 -3.176192
v 1.441337 2.949534 -3.180730
v 1.441337 2.827017 -3.344087
v 1.441337 2.754414 -3.403077
v 1.441337 2.622821 -3.412152
v 1.441337 2.409549 -3.353162
v 1.441337 2.355097 -3.316861
v 1.441337 2.277956 -3.226108
v 1.441337 2.250730 -3.094514
v 1.441337 2.218966 -3.012836
v 1.441337 2.196278 -2.962920
v 1.441337 2.100986 -2.971995
v 1.441337 1.969393 -3.049136
v 1.441337 1.846875 -3.030986
v 1.441337 1.760659 -2.967458
v 1.441337 1.674443 -2.962920
v 1.441337 1.633603 -2.931157
v 1.441337 1.629066 -2.885779
v 1.441337 1.619990 -2.840402
v 1.441337 1.542850 -2.826789
v 2.441337 0.340716 -3.580775
v 2.441337 0.289286 -3.594489
v 2.441337 0.114424 -3.597919
v 2.441337 0.038993 -3.553346
v 2.441337 -0.084439 -3.481343
v 2.441337 -0.125583 -3.433341
v 2.441337 -0.238729 -3.522487
v 2.441337 -0.372447 -3.687062
v 2.441337 -0.420448 -3.800208
v 2.441337 -0.437592 -3.892781
v 2.441337 -0.499308 -3.951068
v 2.441337 -0.763315 -4.098500
v 2.441337 -0.821602 -4.040214
v 2.441337 -0.907319 -4.036784
v 2.441337 -1.003322 -4.098500
v 2.441337 -1.027322 -4.156787
v 2.441337 -1.030751 -4.252789
v 2.441337 -1.037608 -4.266503
v 2.441337 -0.297016 -4.873382
v 2.441337 -0.396447 -4.863095
v 2.441337 -0.519879 -4.811666
v 2.441337 -0.585024 -4.808236
v 2.441337 -0.633026 -4.883666
v 2.441337 -0.660455 -4.791093
v 2.441337 -0.667312 -4.701947
v 2.441337 -0.718742 -4.619658
v 2.441337 -0.787315 -4.588801
v 2.441337 -0.838745 -4.626517
v 2.441337 -0.869603 -4.674520
v 2.441337 -0.910747 -4.684806
v 2.441337 -0.979321 -4.643662
v 2.441337 -0.893604 -4.458514
v 2.441337 -0.879889 -4.379655
v 2.441337 -0.917605 -4.304225
v 2.441337 -0.962177 -4.273368
v 2.441337 1.416706 -2.774478
v 2.441337 1.351994 -2.729676
v 2.441337 1.287281 -2.739633
v 2.441337 1.192701 -2.804345
v 2.441337 1.088165 -2.809323
v 2.441337 1.029878 -2.792180
v 2.441337 0.759013 -2.997901
v 2.441337 0.601295 -3.186479
v 2.441337 0.532721 -3.244765
v 2.441337 0.385289 -3.261909
v 2.441337 0.375003 -3.532773
v 2.441337 1.481419 -2.774478
v 2.441337 -0.091296 -4.880239
v 2.441337 0.004707 -4.911096
v 2.441337 0.275571 -5.085958
v 2.441337 0.361288 -5.109958
v 2.441337 0.508721 -5.089387
v 2.441337 1.808186 -5.020812
v 2.441337 1.938475 -4.986526
v 2.441337 2.257341 -4.945382
v 2.441337 2.356773 -4.869952
v 2.441337 2.535063 -4.917954
v 2.441337 2.572779 -4.962527
v 2.441337 2.713354 -4.856238
v 2.441337 2.871073 -4.787665
v 2.441337 2.963647 -4.725949
v 2.441337 3.076793 -4.712235
v 2.441337 3.138509 -4.688235
v 2.441337 3.049364 -3.176192
v 2.441337 2.949534 -3.180730
v 2.441337 2.827017 -3.344087
v 2.441337 2.754414 -3.403077
v 2.441337 2.622821 -3.412152
v 2.441337 2.409549 -3.353162
v 2.441337 2.355097 -3.316861
v 2.441337 2.277956 -3.226108
v 2.441337 2.250730 -3.094514
v 2.441337 2.218966 -3.012836
v 2.441337 2.196278 -2.962920
v 2.441337 2.100986 -2.971995
v 2.441337 1.969393 -3.049136
v 2.441337 1.846875 -3.030986
v 2.441337 1.760659 -2.967458
v 2.441337 1.674443 -2.962920
v 2.441337 1.633603 -2.931157
v 2.441337 1.629066 -2.885779
v 2.441337 1.619990 -2.840402
v 2.441337 1.542850 -2.826789
vn -1.0000 -0.0000 -0.0000
vn 1.0000 -0.0000 -0.0000
vn -0.0000 -0.2576 0.9662
vn -0.0000 -0.0196 0.9998
vn -0.0000 0.5087 0.8609
vn -0.0000 0.5039 0.8638
vn -0.0000 0.7593 0.6508
vn -0.0000 -0.6189 0.7855
vn -0.0000 -0.7761 0.6306
vn -0.0000 -0.9206 0.3906
vn -0.0000 -0.9833 0.1821
vn -0.0000 -0.6866 0.7270
vn -0.0000 -0.4876 0.8731
vn -0.0000 0.7071 0.7071
vn -0.0000 0.0400 0.9992
vn -0.0000 -0.5408 0.8412
vn -0.0000 -0.9247 0.3808
vn -0.0000 -0.9994 0.0357
vn -0.0000 -0.8944 0.4472
vn -0.0000 -0.1029 -0.9947
vn -0.0000 -0.3846 -0.9231
vn -0.0000 -0.0526 -0.9986
vn -0.0000 0.8437 -0.5369
vn -0.0000 -0.9588 -0.2841
vn -0.0000 -0.9971 -0.0767
vn -0.0000 -0.8480 -0.5300
vn -0.0000 -0.4104 -0.9119
vn -0.0000 0.5914 -0.8064
vn -0.0000 0.8412 -0.5407
vn -0.0000 0.2425 -0.9701
vn -0.0000 -0.5145 -0.8575
vn -0.0000 -0.9075 0.4201
vn -0.0000 -0.9852 0.1713
vn -0.0000 -0.8944 -0.4472
vn -0.0000 -0.5692 -0.8222
vn -0.0000 -0.0906 -0.9959
vn -0.0000 -0.0333 -0.9994
vn -0.0000 -0.3060 -0.9520
vn -0.0000 -0.2696 -0.9630
vn -0.0000 -0.5424 -0.8401
vn -0.0000 -0.0000 1.0000
vn -0.0000 0.5692 0.8222
vn -0.0000 -0.1521 0.9884
vn -0.0000 -0.5647 0.8253
vn -0.0000 -0.0476 0.9989
vn -0.0000 0.2822 0.9594
vn -0.0000 -0.6048 0.7964
vn -0.0000 -0.7671 0.6416
vn -0.0000 -0.6476 0.7619
vn -0.0000 -0.1155 0.9933
vn -0.0000 -0.9993 0.0379
vn -0.0000 -0.8137 0.5812
vn -0.0000 0.1382 -0.9904
vn -0.0000 0.0527 -0.9986
vn -0.0000 0.2545 -0.9671
vn -0.0000 0.1280 -0.9918
vn -0.0000 0.6044 -0.7967
vn -0.0000 -0.2600 -0.9656
vn -0.0000 -0.7634 -0.6459
vn -0.0000 0.6031 -0.7977
vn -0.0000 0.3987 -0.9171
vn -0.0000 0.5547 -0.8321
vn -0.0000 0.1203 -0.9927
vn -0.0000 0.3624 -0.9320
vn -0.0000 0.9983 0.0589
vn -0.0000 -0.0454 0.9990
vn -0.0000 -0.8000 0.6000
vn -0.0000 -0.6306 0.7761
vn -0.0000 -0.0688 0.9976
vn -0.0000 0.2666 0.9638
vn -0.0000 0.5547 0.8321
vn -0.0000 0.7619 0.6476
vn -0.0000 0.9793 0.2026
vn -0.0000 0.9320 0.3624
vn -0.0000 0.9104 0.4138
vn -0.0000 -0.0948 0.9955
vn -0.0000 -0.5057 0.8627
vn -0.0000 0.1465 0.9892
vn -0.0000 0.5932 0.8051
vn -0.0000 0.0526 0.9986
vn -0.0000 0.6139 0.7894
vn -0.0000 0.9950 0.0995
vn -0.0000 0.9806 0.1961
vn -0.0000 0.1738 0.9848
vn -0.0000 0.6483 0.7614
vn 1.0000 -0.0004 -0.0000
vn -0.0000 0.8412 -0.5408
vt 0.000000 0.000000
s 0
f 46/1/1 43/1/1 79/1/1
f 162/1/2 126/1/2 129/1/2
f 2/1/3 84/1/3 1/1/3
f 3/1/4 85/1/4 2/1/4
f 4/1/5 86/1/5 3/1/5
f 5/1/6 87/1/6 4/1/6
f 6/1/7 88/1/7 5/1/7
f 7/1/8 89/1/8 6/1/8
f 8/1/9 90/1/9 7/1/9
f 9/1/10 91/1/10 8/1/10
f 10/1/11 92/1/11 9/1/11
f 11/1/12 93/1/12 10/1/12
f 12/1/13 94/1/13 11/1/13
f 13/1/14 95/1/14 12/1/14
f 14/1/15 96/1/15 13/1/15
f 15/1/16 97/1/16 14/1/16
f 16/1/17 98/1/17 15/1/17
f 17/1/18 99/1/18 16/1/18
f 18/1/19 100/1/19 17/1/19
f 19/1/20 103/1/20 20/1/20
f 20/1/21 104/1/21 21/1/21
f 21/1/22 105/1/22 22/1/22
f 22/1/23 106/1/23 23/1/23
f 23/1/24 107/1/24 24/1/24
f 24/1/25 108/1/25 25/1/25
f 25/1/26 109/1/26 26/1/26
f 26/1/27 110/1/27 27/1/27
f 27/1/28 111/1/28 28/1/28
f 28/1/29 112/1/29 29/1/29
f 29/1/30 113/1/30 30/1/30
f 30/1/31 114/1/31 31/1/31
f 31/1/32 115/1/32 32/1/32
f 32/1/33 116/1/33 33/1/33
f 33/1/34 117/1/34 34/1/34
f 34/1/35 118/1/35 35/1/35
f 35/1/36 101/1/36 18/1/36
f 48/1/37 102/1/37 19/1/37
f 49/1/38 131/1/38 48/1/38
f 51/1/39 133/1/39 50/1/39
f 50/1/40 132/1/40 49/1/40
f 36/1/41 130/1/41 47/1/41
f 37/1/42 119/1/42 36/1/42
f 38/1/43 120/1/43 37/1/43
f 39/1/44 121/1/44 38/1/44
f 40/1/45 122/1/45 39/1/45
f 41/1/46 123/1/46 40/1/46
f 42/1/47 124/1/47 41/1/47
f 43/1/48 125/1/48 42/1/48
f 44/1/49 126/1/49 43/1/49
f 45/1/50 127/1/50 44/1/50
f 46/1/51 128/1/51 45/1/51
f 1/1/52 129/1/52 46/1/52
f 52/1/53 134/1/53 51/1/53
f 53/1/54 135/1/54 52/1/54
f 54/1/55 136/1/55 53/1/55
f 55/1/56 137/1/56 54/1/56
f 56/1/57 138/1/57 55/1/57
f 57/1/58 139/1/58 56/1/58
f 58/1/59 140/1/59 57/1/59
f 59/1/60 141/1/60 58/1/60
f 60/1/61 142/1/61 59/1/61
f 61/1/62 143/1/62 60/1/62
f 62/1/63 144/1/63 61/1/63
f 63/1/64 145/1/64 62/1/64
f 64/1/65 146/1/65 63/1/65
f 65/1/66 147/1/66 64/1/66
f 66/1/67 148/1/67 65/1/67
f 67/1/68 149/1/68 66/1/68
f 68/1/69 150/1/69 67/1/69
f 69/1/70 151/1/70 68/1/70
f 70/1/71 152/1/71 69/1/71
f 71/1/72 153/1/72 70/1/72
f 72/1/73 154/1/73 71/1/73
f 73/1/74 155/1/74 72/1/74
f 74/1/75 156/1/75 73/1/75
f 75/1/76 157/1/76 74/1/76
f 76/1/77 158/1/77 75/1/77
f 77/1/78 159/1/78 76/1/78
f 78/1/79 160/1/79 77/1/79
f 79/1/80 161/1/80 78/1/80
f 80/1/81 162/1/81 79/1/81
f 81/1/82 163/1/82 80/1/82
f 82/1/83 164/1/83 81/1/83
f 83/1/84 165/1/84 82/1/84
f 47/1/85 166/1/85 83/1/85
f 19/1/1 20/1/1 21/1/1
f 22/1/1 23/1/1 24/1/1
f 48/1/1 19/1/1 21/1/1
f 21/1/1 22/1/1 24/1/1
f 21/1/1 24/1/1 25/1/1
f 48/1/1 21/1/1 25/1/1
f 48/1/1 25/1/1 26/1/1
f 51/1/1 50/1/1 49/1/1
f 49/1/1 48/1/1 26/1/1
f 49/1/1 26/1/1 27/1/1
f 52/1/1 51/1/1 49/1/1
f 54/1/1 53/1/1 52/1/1
f 56/1/1 55/1/1 54/1/1
f 59/1/1 58/1/1 57/1/1
f 56/1/1 54/1/1 52/1/1
f 59/1/1 57/1/1 56/1/1
f 61/1/1 60/1/1 59/1/1
f 63/1/1 62/1/1 61/1/1
f 65/1/1 64/1/1 63/1/1
f 66/1/1 65/1/1 63/1/1
f 61/1/1 59/1/1 56/1/1
f 66/1/1 63/1/1 61/1/1
f 67/1/1 66/1/1 61/1/1
f 61/1/1 56/1/1 52/1/1
f 52/1/1 49/1/1 27/1/1
f 28/1/1 29/1/1 30/1/1
f 61/1/1 52/1/1 27/1/1
f 28/1/1 30/1/1 31/1/1
f 67/1/1 61/1/1 27/1/1
f 27/1/1 28/1/1 31/1/1
f 27/1/1 31/1/1 32/1/1
f 68/1/1 67/1/1 27/1/1
f 69/1/1 68/1/1 27/1/1
f 27/1/1 32/1/1 33/1/1
f 69/1/1 27/1/1 33/1/1
f 70/1/1 69/1/1 33/1/1
f 70/1/1 33/1/1 34/1/1
f 73/1/1 72/1/1 71/1/1
f 71/1/1 70/1/1 34/1/1
f 35/1/1 18/1/1 17/1/1
f 71/1/1 34/1/1 35/1/1
f 74/1/1 73/1/1 71/1/1
f 76/1/1 75/1/1 74/1/1
f 79/1/1 78/1/1 77/1/1
f 76/1/1 74/1/1 71/1/1
f 77/1/1 76/1/1 71/1/1
f 71/1/1 35/1/1 17/1/1
f 17/1/1 16/1/1 15/1/1
f 15/1/1 14/1/1 13/1/1
f 15/1/1 13/1/1 12/1/1
f 77/1/1 71/1/1 17/1/1
f 79/1/1 77/1/1 17/1/1
f 17/1/1 15/1/1 12/1/1
f 17/1/1 12/1/1 11/1/1
f 82/1/1 81/1/1 80/1/1
f 36/1/1 47/1/1 83/1/1
f 83/1/1 82/1/1 80/1/1
f 10/1/1 9/1/1 8/1/1
f 8/1/1 7/1/1 6/1/1
f 5/1/1 4/1/1 3/1/1
f 8/1/1 6/1/1 5/1/1
f 10/1/1 8/1/1 5/1/1
f 10/1/1 5/1/1 3/1/1
f 11/1/1 10/1/1 3/1/1
f 11/1/1 3/1/1 2/1/1
f 36/1/1 83/1/1 80/1/1
f 38/1/1 37/1/1 36/1/1
f 39/1/1 38/1/1 36/1/1
f 36/1/1 80/1/1 79/1/1
f 17/1/1 11/1/1 2/1/1
f 17/1/1 2/1/1 1/1/1
f 39/1/1 36/1/1 79/1/1
f 42/1/1 41/1/1 40/1/1
f 40/1/1 39/1/1 79/1/1
f 79/1/1 17/1/1 1/1/1
f 46/1/1 45/1/1 44/1/1
f 79/1/1 1/1/1 46/1/1
f 42/1/1 40/1/1 79/1/1
f 46/1/1 44/1/1 43/1/1
f 43/1/1 42/1/1 79/1/1
f 104/1/2 103/1/2 102/1/2
f 104/1/2 102/1/2 131/1/2
f 107/1/2 106/1/2 105/1/2
f 107/1/2 105/1/2 104/1/2
f 108/1/2 107/1/2 104/1/2
f 108/1/2 104/1/2 131/1/2
f 109/1/2 108/1/2 131/1/2
f 132/1/2 133/1/2 134/1/2
f 109/1/2 131/1/2 132/1/2
f 110/1/2 109/1/2 132/1/2
f 132/1/2 134/1/2 135/1/2
f 135/1/2 136/1/2 137/1/2
f 137/1/2 138/1/2 139/1/2
f 140/1/2 141/1/2 142/1/2
f 135/1/2 137/1/2 139/1/2
f 139/1/2 140/1/2 142/1/2
f 142/1/2 143/1/2 144/1/2
f 144/1/2 145/1/2 146/1/2
f 146/1/2 147/1/2 148/1/2
f 146/1/2 148/1/2 149/1/2
f 139/1/2 142/1/2 144/1/2
f 144/1/2 146/1/2 149/1/2
f 144/1/2 149/1/2 150/1/2
f 135/1/2 139/1/2 144/1/2
f 110/1/2 132/1/2 135/1/2
f 113/1/2 112/1/2 111/1/2
f 110/1/2 135/1/2 144/1/2
f 114/1/2 113/1/2 111/1/2
f 110/1/2 144/1/2 150/1/2
f 114/1/2 111/1/2 110/1/2
f 115/1/2 114/1/2 110/1/2
f 110/1/2 150/1/2 151/1/2
f 110/1/2 151/1/2 152/1/2
f 116/1/2 115/1/2 110/1/2
f 116/1/2 110/1/2 152/1/2
f 116/1/2 152/1/2 153/1/2
f 117/1/2 116/1/2 153/1/2
f 154/1/2 155/1/2 156/1/2
f 117/1/2 153/1/2 154/1/2
f 100/1/2 101/1/2 118/1/2
f 118/1/2 117/1/2 154/1/2
f 154/1/2 156/1/2 157/1/2
f 157/1/2 158/1/2 159/1/2
f 160/1/2 161/1/2 162/1/2
f 154/1/2 157/1/2 159/1/2
f 154/1/2 159/1/2 160/1/2
f 100/1/2 118/1/2 154/1/2
f 98/1/2 99/1/2 100/1/2
f 96/1/2 97/1/2 98/1/2
f 95/1/2 96/1/2 98/1/2
f 100/1/2 154/1/2 160/1/2
f 100/1/2 160/1/2 162/1/2
f 95/1/2 98/1/2 100/1/2
f 94/1/2 95/1/2 100/1/2
f 163/1/2 164/1/2 165/1/2
f 166/1/2 130/1/2 119/1/2
f 163/1/2 165/1/2 166/1/2
f 91/1/2 92/1/2 93/1/2
f 89/1/2 90/1/2 91/1/2
f 86/1/86 87/1/86 88/1/86
f 88/1/2 89/1/2 91/1/2
f 88/1/2 91/1/2 93/1/2
f 86/1/2 88/1/2 93/1/2
f 86/1/2 93/1/2 94/1/2
f 85/1/2 86/1/2 94/1/2
f 163/1/2 166/1/2 119/1/2
f 119/1/2 120/1/2 121/1/2
f 119/1/2 121/1/2 122/1/2
f 162/1/2 163/1/2 119/1/2
f 85/1/2 94/1/2 100/1/2
f 84/1/2 85/1/2 100/1/2
f 162/1/2 119/1/2 122/1/2
f 123/1/2 124/1/2 125/1/2
f 162/1/2 122/1/2 123/1/2
f 84/1/2 100/1/2 162/1/2
f 127/1/2 128/1/2 129/1/2
f 129/1/2 84/1/2 162/1/2
f 162/1/2 123/1/2 125/1/2
f 126/1/2 127/1/2 129/1/2
f 162/1/2 125/1/2 126/1/2
f 2/1/3 85/1/3 84/1/3
f 3/1/4 86/1/4 85/1/4
f 4/1/5 87/1/5 86/1/5
f 5/1/6 88/1/6 87/1/6
f 6/1/7 89/1/7 88/1/7
f 7/1/8 90/1/8 89/1/8
f 8/1/9 91/1/9 90/1/9
f 9/1/10 92/1/10 91/1/10
f 10/1/11 93/1/11 92/1/11
f 11/1/12 94/1/12 93/1/12
f 12/1/13 95/1/13 94/1/13
f 13/1/14 96/1/14 95/1/14
f 14/1/15 97/1/15 96/1/15
f 15/1/16 98/1/16 97/1/16
f 16/1/17 99/1/17 98/1/17
f 17/1/18 100/1/18 99/1/18
f 18/1/19 101/1/19 100/1/19
f 19/1/20 102/1/20 103/1/20
f 20/1/21 103/1/21 104/1/21
f 21/1/22 104/1/22 105/1/22
f 22/1/23 105/1/23 106/1/23
f 23/1/24 106/1/24 107/1/24
f 24/1/25 107/1/25 108/1/25
f 25/1/26 108/1/26 109/1/26
f 26/1/27 109/1/27 110/1/27
f 27/1/28 110/1/28 111/1/28
f 28/1/87 111/1/87 112/1/87
f 29/1/30 112/1/30 113/1/30
f 30/1/31 113/1/31 114/1/31
f 31/1/32 114/1/32 115/1/32
f 32/1/33 115/1/33 116/1/33
f 33/1/34 116/1/34 117/1/34
f 34/1/35 117/1/35 118/1/35
f 35/1/36 118/1/36 101/1/36
f 48/1/37 131/1/37 102/1/37
f 49/1/38 132/1/38 131/1/38
f 51/1/39 134/1/39 133/1/39
f 50/1/40 133/1/40 132/1/40
f 36/1/41 119/1/41 130/1/41
f 37/1/42 120/1/42 119/1/42
f 38/1/43 121/1/43 120/1/43
f 39/1/44 122/1/44 121/1/44
f 40/1/45 123/1/45 122/1/45
f 41/1/46 124/1/46 123/1/46
f 42/1/47 125/1/47 124/1/47
f 43/1/48 126/1/48 125/1/48
f 44/1/49 127/1/49 126/1/49
f 45/1/50 128/1/50 127/1/50
f 46/1/51 129/1/51 128/1/51
f 1/1/52 84/1/52 129/1/52
f 52/1/53 135/1/53 134/1/53
f 53/1/54 136/1/54 135/1/54
f 54/1/55 137/1/55 136/1/55
f 55/1/56 138/1/56 137/1/56
f 56/1/57 139/1/57 138/1/57
f 57/1/58 140/1/58 139/1/58
f 58/1/59 141/1/59 140/1/59
f 59/1/60 142/1/60 141/1/60
f 60/1/61 143/1/61 142/1/61
f 61/1/62 144/1/62 143/1/62
f 62/1/63 145/1/63 144/1/63
f 63/1/64 146/1/64 145/1/64
f 64/1/65 147/1/65 146/1/65
f 65/1/66 148/1/66 147/1/66
f 66/1/67 149/1/67 148/1/67
f 67/1/68 150/1/68 149/1/68
f 68/1/69 151/1/69 150/1/69
f 69/1/70 152/1/70 151/1/70
f 70/1/71 153/1/71 152/1/71
f 71/1/72 154/1/72 153/1/72
f 72/1/73 155/1/73 154/1/73
f 73/1/74 156/1/74 155/1/74
f 74/1/75 157/1/75 156/1/75
f 75/1/76 158/1/76 157/1/76
f 76/1/77 159/1/77 158/1/77
f 77/1/78 160/1/78 159/1/78
f 78/1/79 161/1/79 160/1/79
f 79/1/80 162/1/80 161/1/80
f 80/1/81 163/1/81 162/1/81
f 81/1/82 164/1/82 163/1/82
f 82/1/83 165/1/83 164/1/83
f 83/1/84 166/1/84 165/1/84
f 47/1/85 130/1/85 166/1/85
