# Blender 5.2.0 LTS
# www.blender.org
mtllib Indiana.mtl
o Plane.017
v 1.441337 2.544160 -5.019017
v 1.441337 2.544160 -5.133245
v 1.441337 2.602739 -5.206468
v 1.441337 2.667175 -5.297265
v 1.441337 2.658388 -5.393920
v 1.441337 2.664246 -5.516934
v 1.441337 2.681820 -5.651666
v 1.441337 2.708180 -5.885980
v 1.441337 2.752114 -6.044141
v 1.441337 2.760901 -6.366323
v 1.441337 2.684749 -6.410256
v 1.441337 1.709416 -6.530343
v 1.441337 0.804377 -6.615281
v 1.441337 2.572779 -4.962527
v 1.441337 2.535063 -4.917954
v 1.441337 2.356773 -4.869952
v 1.441337 2.257341 -4.945382
v 1.441337 1.938475 -4.986526
v 1.441337 1.808186 -5.020812
v 1.441337 0.508721 -5.089387
v 1.441337 0.361288 -5.109958
v 1.441337 0.275571 -5.085958
v 1.441337 0.004707 -4.911096
v 1.441337 -0.091296 -4.880239
v 1.441337 -0.297016 -4.873382
v 1.441337 -0.290159 -5.195676
v 1.441337 -0.307302 -5.349965
v 1.441337 -0.338160 -5.421968
v 1.441337 -0.262729 -5.463111
v 1.441337 -0.183870 -5.541970
v 1.441337 -0.221585 -5.586543
v 1.441337 -0.245586 -5.620830
v 1.441337 -0.303873 -5.672259
v 1.441337 -0.303873 -5.730546
v 1.441337 -0.146155 -5.737403
v 1.441337 -0.129011 -5.788833
v 1.441337 -0.057009 -5.864263
v 1.441337 -0.111868 -5.901978
v 1.441337 -0.108439 -5.991124
v 1.441337 -0.101582 -6.073413
v 1.441337 -0.012437 -6.083699
v 1.441337 0.086995 -6.141986
v 1.441337 0.327001 -6.357991
v 1.441337 0.402432 -6.357991
v 1.441337 0.429861 -6.371705
v 1.441337 0.453862 -6.443707
v 1.441337 0.474434 -6.498567
v 1.441337 0.529293 -6.570569
v 1.441337 0.570437 -6.649428
v 1.441337 0.748728 -6.656285
v 2.441337 2.544160 -5.019017
v 2.441337 2.544160 -5.133245
v 2.441337 2.602739 -5.206468
v 2.441337 2.667175 -5.297265
v 2.441337 2.658388 -5.393920
v 2.441337 2.664246 -5.516934
v 2.441337 2.681820 -5.651666
v 2.441337 2.708180 -5.885980
v 2.441337 2.752114 -6.044141
v 2.441337 2.760901 -6.366323
v 2.441337 2.684749 -6.410256
v 2.441337 1.709416 -6.530343
v 2.441337 0.804377 -6.615281
v 2.441337 2.572779 -4.962527
v 2.441337 2.535063 -4.917954
v 2.441337 2.356773 -4.869952
v 2.441337 2.257341 -4.945382
v 2.441337 1.938475 -4.986526
v 2.441337 1.808186 -5.020812
v 2.441337 0.508721 -5.089387
v 2.441337 0.361288 -5.109958
v 2.441337 0.275571 -5.085958
v 2.441337 0.004707 -4.911096
v 2.441337 -0.091296 -4.880239
v 2.441337 -0.297016 -4.873382
v 2.441337 -0.290159 -5.195676
v 2.441337 -0.307302 -5.349965
v 2.441337 -0.338160 -5.421968
v 2.441337 -0.262729 -5.463111
v 2.441337 -0.183870 -5.541970
v 2.441337 -0.221585 -5.586543
v 2.441337 -0.245586 -5.620830
v 2.441337 -0.303873 -5.672259
v 2.441337 -0.303873 -5.730546
v 2.441337 -0.146155 -5.737403
v 2.441337 -0.129011 -5.788833
v 2.441337 -0.057009 -5.864263
v 2.441337 -0.111868 -5.901978
v 2.441337 -0.108439 -5.991124
v 2.441337 -0.101582 -6.073413
v 2.441337 -0.012437 -6.083699
v 2.441337 0.086995 -6.141986
v 2.441337 0.327002 -6.357991
v 2.441337 0.402432 -6.357991
v 2.441337 0.429862 -6.371705
v 2.441337 0.453862 -6.443707
v 2.441337 0.474434 -6.498567
v 2.441337 0.529293 -6.570569
v 2.441337 0.570437 -6.649428
v 2.441337 0.748728 -6.656285
vn -1.0000 -0.0000 -0.0000
vn 1.0000 -0.0000 -0.0000
vn -0.0000 0.8921 -0.4519
vn -0.0000 1.0000 -0.0000
vn -0.0000 0.7809 0.6247
vn -0.0000 0.8155 0.5787
vn -0.0000 0.9959 -0.0905
vn -0.0000 0.9989 0.0476
vn -0.0000 0.9916 0.1293
vn -0.0000 0.9937 0.1118
vn -0.0000 0.9635 0.2676
vn -0.0000 0.9996 0.0273
vn -0.0000 0.4997 -0.8662
vn -0.0000 0.1222 -0.9925
vn -0.0000 0.0934 -0.9956
vn -0.0000 0.5932 -0.8051
vn -0.0000 0.7634 0.6459
vn -0.0000 0.2600 0.9656
vn -0.0000 -0.6044 0.7967
vn -0.0000 -0.1280 0.9918
vn -0.0000 -0.2545 0.9671
vn -0.0000 -0.0527 0.9986
vn -0.0000 -0.1382 0.9904
vn -0.0000 0.2696 0.9630
vn -0.0000 0.5424 0.8401
vn -0.0000 0.3060 0.9520
vn -0.0000 0.0333 0.9994
vn -0.0000 -0.9998 -0.0213
vn -0.0000 -0.9939 0.1104
vn -0.0000 -0.9191 0.3939
vn -0.0000 -0.4788 -0.8779
vn -0.0000 -0.7071 -0.7071
vn -0.0000 -0.7634 0.6459
vn -0.0000 -0.8192 0.5735
vn -0.0000 -0.6616 0.7498
vn -0.0000 -1.0000 -0.0000
vn -0.0000 -0.0434 -0.9991
vn -0.0000 -0.9487 -0.3162
vn -0.0000 -0.7234 -0.6905
vn -0.0000 -0.5665 0.8240
vn -0.0000 -0.9993 -0.0384
vn -0.0000 -0.9965 -0.0830
vn -0.0000 -0.1146 -0.9934
vn -0.0000 -0.5057 -0.8627
vn -0.0000 -0.6690 -0.7433
vn -0.0000 -0.0000 -1.0000
vn -0.0000 -0.4472 -0.8944
vn -0.0000 -0.9363 -0.3511
vn -0.0000 -0.7954 -0.6060
vn -0.0000 -0.8866 -0.4626
vn -0.0000 -0.0384 -0.9993
vn -1.0000 -0.0001 -0.0000
vn 1.0000 0.0001 -0.0000
vt 0.000000 0.000000
s 0
f 26/1/1 21/1/1 2/1/1
f 71/1/2 72/1/2 76/1/2
f 14/1/3 51/1/3 1/1/3
f 1/1/4 52/1/4 2/1/4
f 2/1/5 53/1/5 3/1/5
f 3/1/6 54/1/6 4/1/6
f 4/1/7 55/1/7 5/1/7
f 5/1/8 56/1/8 6/1/8
f 6/1/9 57/1/9 7/1/9
f 7/1/10 58/1/10 8/1/10
f 8/1/11 59/1/11 9/1/11
f 9/1/12 60/1/12 10/1/12
f 10/1/13 61/1/13 11/1/13
f 11/1/14 62/1/14 12/1/14
f 12/1/15 63/1/15 13/1/15
f 13/1/16 100/1/16 50/1/16
f 15/1/17 64/1/17 14/1/17
f 16/1/18 65/1/18 15/1/18
f 17/1/19 66/1/19 16/1/19
f 18/1/20 67/1/20 17/1/20
f 19/1/21 68/1/21 18/1/21
f 20/1/22 69/1/22 19/1/22
f 21/1/23 70/1/23 20/1/23
f 22/1/24 71/1/24 21/1/24
f 23/1/25 72/1/25 22/1/25
f 24/1/26 73/1/26 23/1/26
f 25/1/27 74/1/27 24/1/27
f 26/1/28 75/1/28 25/1/28
f 27/1/29 76/1/29 26/1/29
f 28/1/30 77/1/30 27/1/30
f 29/1/31 78/1/31 28/1/31
f 30/1/32 79/1/32 29/1/32
f 31/1/33 80/1/33 30/1/33
f 32/1/34 81/1/34 31/1/34
f 33/1/35 82/1/35 32/1/35
f 34/1/36 83/1/36 33/1/36
f 35/1/37 84/1/37 34/1/37
f 36/1/38 85/1/38 35/1/38
f 37/1/39 86/1/39 36/1/39
f 38/1/40 87/1/40 37/1/40
f 39/1/41 88/1/41 38/1/41
f 40/1/42 89/1/42 39/1/42
f 41/1/43 90/1/43 40/1/43
f 42/1/44 91/1/44 41/1/44
f 43/1/45 92/1/45 42/1/45
f 44/1/46 93/1/46 43/1/46
f 45/1/47 94/1/47 44/1/47
f 46/1/38 95/1/38 45/1/38
f 47/1/48 96/1/48 46/1/48
f 48/1/49 97/1/49 47/1/49
f 49/1/50 98/1/50 48/1/50
f 50/1/51 99/1/51 49/1/51
f 50/1/1 49/1/1 48/1/1
f 48/1/1 47/1/1 46/1/1
f 48/1/1 46/1/1 45/1/1
f 13/1/1 50/1/1 48/1/1
f 11/1/1 12/1/1 13/1/1
f 9/1/1 10/1/1 11/1/1
f 6/1/1 7/1/1 8/1/1
f 8/1/1 9/1/1 11/1/1
f 11/1/1 13/1/1 48/1/1
f 11/1/1 48/1/1 45/1/1
f 6/1/1 8/1/1 11/1/1
f 3/1/1 4/1/1 5/1/1
f 5/1/1 6/1/1 11/1/1
f 11/1/1 45/1/1 44/1/1
f 44/1/1 43/1/1 42/1/1
f 41/1/1 40/1/1 39/1/1
f 11/1/1 44/1/1 42/1/1
f 42/1/1 41/1/1 39/1/1
f 39/1/1 38/1/1 37/1/1
f 37/1/1 36/1/1 35/1/1
f 35/1/1 34/1/1 33/1/1
f 32/1/52 31/1/52 30/1/52
f 35/1/1 33/1/1 32/1/1
f 42/1/1 39/1/1 37/1/1
f 35/1/1 32/1/1 30/1/1
f 11/1/1 42/1/1 37/1/1
f 37/1/1 35/1/1 30/1/1
f 29/1/1 28/1/1 27/1/1
f 11/1/1 37/1/1 30/1/1
f 30/1/1 29/1/1 27/1/1
f 26/1/1 25/1/1 24/1/1
f 30/1/1 27/1/1 26/1/1
f 5/1/1 11/1/1 30/1/1
f 2/1/1 3/1/1 5/1/1
f 15/1/1 14/1/1 1/1/1
f 2/1/1 5/1/1 30/1/1
f 15/1/1 1/1/1 2/1/1
f 17/1/1 16/1/1 15/1/1
f 19/1/1 18/1/1 17/1/1
f 21/1/1 20/1/1 19/1/1
f 24/1/1 23/1/1 22/1/1
f 26/1/1 24/1/1 22/1/1
f 2/1/1 30/1/1 26/1/1
f 17/1/1 15/1/1 2/1/1
f 19/1/1 17/1/1 2/1/1
f 26/1/1 22/1/1 21/1/1
f 21/1/1 19/1/1 2/1/1
f 98/1/2 99/1/2 100/1/2
f 63/1/2 62/1/2 61/1/2
f 98/1/2 100/1/2 63/1/2
f 96/1/2 97/1/2 98/1/2
f 95/1/2 96/1/2 98/1/2
f 98/1/2 63/1/2 61/1/2
f 61/1/2 60/1/2 59/1/2
f 58/1/53 57/1/53 56/1/53
f 61/1/2 59/1/2 58/1/2
f 95/1/2 98/1/2 61/1/2
f 92/1/2 93/1/2 94/1/2
f 94/1/2 95/1/2 61/1/2
f 61/1/2 58/1/2 56/1/2
f 55/1/2 54/1/2 53/1/2
f 61/1/2 56/1/2 55/1/2
f 92/1/2 94/1/2 61/1/2
f 89/1/2 90/1/2 91/1/2
f 91/1/2 92/1/2 61/1/2
f 61/1/2 55/1/2 53/1/2
f 61/1/2 53/1/2 52/1/2
f 89/1/2 91/1/2 61/1/2
f 87/1/2 88/1/2 89/1/2
f 85/1/2 86/1/2 87/1/2
f 83/1/2 84/1/2 85/1/2
f 80/1/53 81/1/53 82/1/53
f 82/1/2 83/1/2 85/1/2
f 87/1/2 89/1/2 61/1/2
f 80/1/2 82/1/2 85/1/2
f 85/1/2 87/1/2 61/1/2
f 85/1/2 61/1/2 52/1/2
f 80/1/2 85/1/2 52/1/2
f 51/1/2 64/1/2 65/1/2
f 80/1/2 52/1/2 51/1/2
f 77/1/2 78/1/2 79/1/2
f 79/1/2 80/1/2 51/1/2
f 51/1/2 65/1/2 66/1/2
f 67/1/2 68/1/2 69/1/2
f 51/1/2 66/1/2 67/1/2
f 77/1/2 79/1/2 51/1/2
f 74/1/2 75/1/2 76/1/2
f 76/1/2 77/1/2 51/1/2
f 51/1/2 67/1/2 69/1/2
f 69/1/2 70/1/2 71/1/2
f 72/1/2 73/1/2 74/1/2
f 51/1/2 69/1/2 71/1/2
f 72/1/2 74/1/2 76/1/2
f 76/1/2 51/1/2 71/1/2
f 14/1/3 64/1/3 51/1/3
f 1/1/4 51/1/4 52/1/4
f 2/1/5 52/1/5 53/1/5
f 3/1/6 53/1/6 54/1/6
f 4/1/7 54/1/7 55/1/7
f 5/1/8 55/1/8 56/1/8
f 6/1/9 56/1/9 57/1/9
f 7/1/10 57/1/10 58/1/10
f 8/1/11 58/1/11 59/1/11
f 9/1/12 59/1/12 60/1/12
f 10/1/13 60/1/13 61/1/13
f 11/1/14 61/1/14 62/1/14
f 12/1/15 62/1/15 63/1/15
f 13/1/16 63/1/16 100/1/16
f 15/1/17 65/1/17 64/1/17
f 16/1/18 66/1/18 65/1/18
f 17/1/19 67/1/19 66/1/19
f 18/1/20 68/1/20 67/1/20
f 19/1/21 69/1/21 68/1/21
f 20/1/22 70/1/22 69/1/22
f 21/1/23 71/1/23 70/1/23
f 22/1/24 72/1/24 71/1/24
f 23/1/25 73/1/25 72/1/25
f 24/1/26 74/1/26 73/1/26
f 25/1/27 75/1/27 74/1/27
f 26/1/28 76/1/28 75/1/28
f 27/1/29 77/1/29 76/1/29
f 28/1/30 78/1/30 77/1/30
f 29/1/31 79/1/31 78/1/31
f 30/1/32 80/1/32 79/1/32
f 31/1/33 81/1/33 80/1/33
f 32/1/34 82/1/34 81/1/34
f 33/1/35 83/1/35 82/1/35
f 34/1/36 84/1/36 83/1/36
f 35/1/37 85/1/37 84/1/37
f 36/1/38 86/1/38 85/1/38
f 37/1/39 87/1/39 86/1/39
f 38/1/40 88/1/40 87/1/40
f 39/1/41 89/1/41 88/1/41
f 40/1/42 90/1/42 89/1/42
f 41/1/43 91/1/43 90/1/43
f 42/1/44 92/1/44 91/1/44
f 43/1/45 93/1/45 92/1/45
f 44/1/46 94/1/46 93/1/46
f 45/1/47 95/1/47 94/1/47
f 46/1/38 96/1/38 95/1/38
f 47/1/48 97/1/48 96/1/48
f 48/1/49 98/1/49 97/1/49
f 49/1/50 99/1/50 98/1/50
f 50/1/51 100/1/51 99/1/51
