# Blender 5.2.0 LTS
# www.blender.org
mtllib Maryland.mtl
o Plane.011
v 1.441337 1.580544 -11.571033
v 1.441337 1.472173 -11.571033
v 1.441337 1.404808 -11.553458
v 1.441337 1.372590 -11.503667
v 1.441337 1.337443 -11.500737
v 1.441337 1.270077 -11.571031
v 1.441337 1.229072 -11.594462
v 1.441337 1.120702 -11.582747
v 1.441337 1.062124 -11.579818
v 1.441337 0.974256 -11.644254
v 1.441337 0.950824 -11.717477
v 1.441337 0.953753 -11.740909
v 1.441337 0.983042 -11.761411
v 1.441337 0.988900 -11.819989
v 1.441337 0.944966 -11.840491
v 1.441337 0.871743 -11.913714
v 1.441337 0.839525 -11.934216
v 1.441337 0.772160 -11.978150
v 1.441337 0.801449 -12.019155
v 1.441337 0.819023 -12.121667
v 1.441337 0.819023 -12.200747
v 1.441337 0.880530 -12.238824
v 1.441337 0.965469 -12.235894
v 1.441337 1.088484 -12.276898
v 1.441337 1.167565 -12.303258
v 1.441337 1.232001 -12.276898
v 1.441337 1.202712 -11.893209
v 1.441337 1.747492 -11.726260
v 1.441337 2.069675 -11.647180
v 1.441337 2.060888 -11.597388
v 1.441337 2.028670 -11.518308
v 1.441337 1.929086 -11.029178
v 1.441337 1.839149 -10.470061
v 1.441337 1.773853 -10.162217
v 1.441337 1.665483 -9.561788
v 1.441337 1.226143 -11.117053
v 1.441337 1.170494 -11.131698
v 1.441337 1.009403 -10.994039
v 1.441337 0.942037 -10.999896
v 1.441337 0.927393 -11.029185
v 1.441337 0.889317 -11.128768
v 1.441337 0.877601 -11.237138
v 1.441337 0.889317 -11.380654
v 1.441337 0.889317 -11.489024
v 1.441337 0.942037 -11.500739
v 1.441337 1.044550 -11.491952
v 1.441337 1.205641 -11.354293
v 1.441337 1.273006 -11.363080
v 1.441337 1.419453 -11.368937
v 1.441337 1.513178 -11.392369
v 1.441337 1.601046 -11.366010
v 1.441337 1.685985 -11.401156
v 1.441337 1.823645 -11.530028
v 1.441337 1.841218 -11.573962
v 1.441337 1.832432 -11.588607
v 1.441337 1.800214 -11.579820
v 1.441337 1.680127 -11.430444
v 1.441337 1.615691 -11.445088
v 1.441337 1.589330 -11.489022
v 1.441337 1.355016 -11.032115
v 1.441337 1.355016 -11.002826
v 1.441337 1.366732 -10.920815
v 1.441337 1.410666 -10.920815
v 1.441337 1.428239 -10.853450
v 1.441337 1.366732 -10.847592
v 1.441337 1.375519 -10.780227
v 1.441337 1.507320 -10.780227
v 1.441337 1.557112 -10.704074
v 1.441337 1.571757 -10.622064
v 1.441337 1.762137 -10.387750
v 1.441337 1.762137 -10.291095
v 1.441337 1.677198 -10.232516
v 1.441337 1.633264 -10.121217
v 1.441337 1.633264 -9.980628
v 1.441337 1.513178 -9.965983
v 1.441337 1.504391 -9.854684
v 1.441337 1.340371 -9.714095
v 1.441337 1.340371 -9.661374
v 2.441337 1.580543 -11.571033
v 2.441337 1.472173 -11.571033
v 2.441337 1.404807 -11.553458
v 2.441337 1.372589 -11.503667
v 2.441337 1.337442 -11.500737
v 2.441337 1.270077 -11.571031
v 2.441337 1.229072 -11.594462
v 2.441337 1.120702 -11.582747
v 2.441337 1.062123 -11.579818
v 2.441337 0.974255 -11.644254
v 2.441337 0.950824 -11.717477
v 2.441337 0.953753 -11.740909
v 2.441337 0.983042 -11.761411
v 2.441337 0.988900 -11.819989
v 2.441337 0.944966 -11.840491
v 2.441337 0.871743 -11.913714
v 2.441337 0.839525 -11.934216
v 2.441337 0.772159 -11.978150
v 2.441337 0.801448 -12.019155
v 2.441337 0.819022 -12.121667
v 2.441337 0.819022 -12.200747
v 2.441337 0.880530 -12.238824
v 2.441337 0.965468 -12.235894
v 2.441337 1.088483 -12.276898
v 2.441337 1.167564 -12.303258
v 2.441337 1.232001 -12.276898
v 2.441337 1.202712 -11.893209
v 2.441337 1.747492 -11.726260
v 2.441337 2.069674 -11.647180
v 2.441337 2.060888 -11.597388
v 2.441337 2.028669 -11.518308
v 2.441337 1.929086 -11.029178
v 2.441337 1.839149 -10.470061
v 2.441337 1.773852 -10.162217
v 2.441337 1.665482 -9.561788
v 2.441337 1.226143 -11.117053
v 2.441337 1.170493 -11.131698
v 2.441337 1.009402 -10.994039
v 2.441337 0.942037 -10.999896
v 2.441337 0.927392 -11.029185
v 2.441337 0.889316 -11.128768
v 2.441337 0.877601 -11.237138
v 2.441337 0.889316 -11.380654
v 2.441337 0.889316 -11.489024
v 2.441337 0.942037 -11.500739
v 2.441337 1.044549 -11.491952
v 2.441337 1.205640 -11.354293
v 2.441337 1.273006 -11.363080
v 2.441337 1.419452 -11.368937
v 2.441337 1.513178 -11.392369
v 2.441337 1.601046 -11.366010
v 2.441337 1.685984 -11.401156
v 2.441337 1.823644 -11.530028
v 2.441337 1.841218 -11.573962
v 2.441337 1.832431 -11.588607
v 2.441337 1.800213 -11.579820
v 2.441337 1.680127 -11.430444
v 2.441337 1.615690 -11.445088
v 2.441337 1.589330 -11.489022
v 2.441337 1.355016 -11.032115
v 2.441337 1.355016 -11.002826
v 2.441337 1.366731 -10.920815
v 2.441337 1.410665 -10.920815
v 2.441337 1.428239 -10.853450
v 2.441337 1.366731 -10.847592
v 2.441337 1.375518 -10.780227
v 2.441337 1.507320 -10.780227
v 2.441337 1.557112 -10.704074
v 2.441337 1.571756 -10.622064
v 2.441337 1.762136 -10.387750
v 2.441337 1.762136 -10.291095
v 2.441337 1.677198 -10.232516
v 2.441337 1.633264 -10.121217
v 2.441337 1.633264 -9.980628
v 2.441337 1.513178 -9.965983
v 2.441337 1.504391 -9.854684
v 2.441337 1.340371 -9.714095
v 2.441337 1.340371 -9.661374
vn -1.0000 -0.0000 -0.0000
vn 1.0000 -0.0000 -0.0000
vn -0.0000 -0.8575 0.5145
vn -0.0000 -0.9943 0.1065
vn -0.0000 -0.0000 1.0000
vn -0.0000 0.2524 0.9676
vn -0.0000 0.8396 0.5433
vn -0.0000 0.0831 0.9965
vn -0.0000 -0.7220 0.6919
vn -0.0000 -0.4961 0.8682
vn -0.0000 0.1075 0.9942
vn -0.0000 0.0500 0.9988
vn -0.0000 -0.5914 0.8064
vn -0.0000 -0.9524 0.3048
vn -0.0000 -0.9923 -0.1240
vn -0.0000 -0.5735 -0.8192
vn -0.0000 -0.9950 -0.0995
vn -0.0000 -0.4229 0.9062
vn -0.0000 -0.7071 0.7071
vn -0.0000 -0.5369 0.8437
vn -0.0000 -0.5463 0.8376
vn -0.0000 -0.8137 -0.5812
vn -0.0000 -0.9856 -0.1690
vn -0.0000 -1.0000 -0.0000
vn -0.0000 -0.5264 -0.8503
vn -0.0000 0.0345 -0.9994
vn -0.0000 -0.3162 -0.9487
vn -0.0000 0.3786 -0.9256
vn -0.0000 0.9971 0.0761
vn -0.0000 0.2930 -0.9561
vn -0.0000 0.2384 -0.9712
vn -0.0000 0.9848 0.1738
vn -0.0000 0.9261 0.3773
vn -0.0000 0.9799 0.1995
vn -0.0000 0.9873 0.1588
vn -0.0000 0.9782 0.2075
vn -0.0000 0.9841 0.1776
vn -0.0000 -0.9916 0.1293
vn -0.0000 -0.0948 -0.9955
vn -0.0000 -0.9676 0.2524
vn -0.0000 -0.9899 0.1414
vn -0.0000 -0.5503 0.8350
vn -0.0000 -0.2545 0.9671
vn -0.0000 0.6497 0.7602
vn -0.0000 -0.0866 0.9962
vn -0.0000 -0.8944 0.4472
vn -0.0000 -0.9341 0.3571
vn -0.0000 -0.9942 0.1075
vn -0.0000 -0.9967 -0.0814
vn -0.0000 -0.2169 -0.9762
vn -0.0000 0.0854 -0.9963
vn -0.0000 0.6497 -0.7602
vn -0.0000 -0.1293 -0.9916
vn -0.0000 -0.0400 -0.9992
vn -0.0000 -0.2425 -0.9701
vn -0.0000 0.2873 -0.9578
vn -0.0000 -0.3823 -0.9240
vn -0.0000 -0.6834 -0.7300
vn -0.0000 -0.9285 -0.3714
vn -0.0000 0.2631 0.9648
vn -0.0000 0.7794 0.6266
vn -0.0000 -0.2216 0.9751
vn -0.0000 -0.8370 0.5472
vn -0.0000 -0.9844 0.1758
vn -0.0000 -0.7761 0.6306
vn -0.0000 -0.5677 -0.8232
vn -0.0000 -0.9302 -0.3672
vn -0.0000 -0.1211 -0.9926
vn -0.0000 -0.9969 -0.0787
vn -0.0000 -0.6508 -0.7593
vn -0.0000 -0.2929 0.9561
vn -1.0000 -0.0003 -0.0000
vn -0.9999 0.0156 -0.0000
vn -1.0000 -0.0002 -0.0000
vt 0.000000 0.000000
s 0
f 49/1/1 47/1/1 40/1/1
f 134/1/2 79/1/2 97/1/2
f 59/1/3 136/1/3 58/1/3
f 1/1/4 137/1/4 59/1/4
f 2/1/5 79/1/5 1/1/5
f 3/1/6 80/1/6 2/1/6
f 4/1/7 81/1/7 3/1/7
f 5/1/8 82/1/8 4/1/8
f 6/1/9 83/1/9 5/1/9
f 7/1/10 84/1/10 6/1/10
f 8/1/11 85/1/11 7/1/11
f 9/1/12 86/1/12 8/1/12
f 10/1/13 87/1/13 9/1/13
f 11/1/14 88/1/14 10/1/14
f 12/1/15 89/1/15 11/1/15
f 13/1/16 90/1/16 12/1/16
f 14/1/17 91/1/17 13/1/17
f 15/1/18 92/1/18 14/1/18
f 16/1/19 93/1/19 15/1/19
f 17/1/20 94/1/20 16/1/20
f 18/1/21 95/1/21 17/1/21
f 19/1/22 96/1/22 18/1/22
f 20/1/23 97/1/23 19/1/23
f 21/1/24 98/1/24 20/1/24
f 22/1/25 99/1/25 21/1/25
f 22/1/26 101/1/26 100/1/26
f 23/1/27 102/1/27 101/1/27
f 25/1/27 102/1/27 24/1/27
f 26/1/28 103/1/28 25/1/28
f 27/1/29 104/1/29 26/1/29
f 27/1/30 106/1/30 105/1/30
f 28/1/31 107/1/31 106/1/31
f 30/1/32 107/1/32 29/1/32
f 31/1/33 108/1/33 30/1/33
f 32/1/34 109/1/34 31/1/34
f 33/1/35 110/1/35 32/1/35
f 34/1/36 111/1/36 33/1/36
f 35/1/37 112/1/37 34/1/37
f 66/1/5 145/1/5 67/1/5
f 65/1/38 144/1/38 66/1/38
f 65/1/39 142/1/39 143/1/39
f 63/1/40 142/1/40 64/1/40
f 62/1/5 141/1/5 63/1/5
f 61/1/41 140/1/41 62/1/41
f 60/1/24 139/1/24 61/1/24
f 36/1/42 138/1/42 60/1/42
f 37/1/43 114/1/43 36/1/43
f 38/1/44 115/1/44 37/1/44
f 39/1/45 116/1/45 38/1/45
f 40/1/46 117/1/46 39/1/46
f 41/1/47 118/1/47 40/1/47
f 42/1/48 119/1/48 41/1/48
f 43/1/49 120/1/49 42/1/49
f 44/1/24 121/1/24 43/1/24
f 44/1/50 123/1/50 122/1/50
f 45/1/51 124/1/51 123/1/51
f 46/1/52 125/1/52 124/1/52
f 47/1/53 126/1/53 125/1/53
f 49/1/54 126/1/54 48/1/54
f 49/1/55 128/1/55 127/1/55
f 51/1/56 128/1/56 50/1/56
f 52/1/57 129/1/57 51/1/57
f 52/1/58 131/1/58 130/1/58
f 54/1/59 131/1/59 53/1/59
f 55/1/3 132/1/3 54/1/3
f 56/1/60 133/1/60 55/1/60
f 57/1/61 134/1/61 56/1/61
f 58/1/62 135/1/62 57/1/62
f 67/1/63 146/1/63 68/1/63
f 68/1/64 147/1/64 69/1/64
f 69/1/65 148/1/65 70/1/65
f 70/1/24 149/1/24 71/1/24
f 71/1/66 150/1/66 72/1/66
f 72/1/67 151/1/67 73/1/67
f 73/1/24 152/1/24 74/1/24
f 75/1/68 152/1/68 153/1/68
f 75/1/69 154/1/69 76/1/69
f 77/1/70 154/1/70 155/1/70
f 77/1/24 156/1/24 78/1/24
f 78/1/71 113/1/71 35/1/71
f 34/1/1 33/1/1 32/1/1
f 31/1/1 30/1/1 29/1/1
f 35/1/72 34/1/72 32/1/72
f 31/1/1 29/1/1 28/1/1
f 31/1/1 28/1/1 27/1/1
f 27/1/1 26/1/1 25/1/1
f 25/1/73 24/1/73 23/1/73
f 23/1/1 22/1/1 21/1/1
f 23/1/1 21/1/1 20/1/1
f 27/1/1 25/1/1 23/1/1
f 77/1/1 78/1/1 35/1/1
f 74/1/1 75/1/1 76/1/1
f 76/1/1 77/1/1 35/1/1
f 74/1/1 76/1/1 35/1/1
f 72/1/1 73/1/1 74/1/1
f 71/1/1 72/1/1 74/1/1
f 27/1/1 23/1/1 20/1/1
f 19/1/1 18/1/1 17/1/1
f 27/1/1 20/1/1 19/1/1
f 71/1/1 74/1/1 35/1/1
f 68/1/1 69/1/1 70/1/1
f 71/1/1 35/1/1 32/1/1
f 70/1/1 71/1/1 32/1/1
f 31/1/1 27/1/1 19/1/1
f 19/1/1 17/1/1 16/1/1
f 16/1/1 15/1/1 14/1/1
f 13/1/1 12/1/1 11/1/1
f 19/1/1 16/1/1 14/1/1
f 13/1/1 11/1/1 10/1/1
f 14/1/74 13/1/74 10/1/74
f 10/1/1 9/1/1 8/1/1
f 10/1/1 8/1/1 7/1/1
f 14/1/1 10/1/1 7/1/1
f 6/1/1 5/1/1 4/1/1
f 14/1/1 7/1/1 6/1/1
f 70/1/1 32/1/1 31/1/1
f 68/1/1 70/1/1 31/1/1
f 19/1/1 14/1/1 6/1/1
f 6/1/1 4/1/1 3/1/1
f 6/1/1 3/1/1 2/1/1
f 67/1/1 68/1/1 31/1/1
f 65/1/1 66/1/1 67/1/1
f 64/1/1 65/1/1 67/1/1
f 19/1/1 6/1/1 2/1/1
f 1/1/1 59/1/1 58/1/1
f 19/1/1 2/1/1 1/1/1
f 64/1/1 67/1/1 31/1/1
f 61/1/1 62/1/1 63/1/1
f 63/1/1 64/1/1 31/1/1
f 1/1/1 58/1/1 57/1/1
f 1/1/1 57/1/1 56/1/1
f 61/1/1 63/1/1 31/1/1
f 60/1/1 61/1/1 31/1/1
f 19/1/1 1/1/1 56/1/1
f 19/1/1 56/1/1 55/1/1
f 36/1/1 60/1/1 31/1/1
f 39/1/1 38/1/1 37/1/1
f 37/1/1 36/1/1 31/1/1
f 31/1/1 19/1/1 55/1/1
f 31/1/1 55/1/1 54/1/1
f 40/1/1 39/1/1 37/1/1
f 31/1/1 54/1/1 53/1/1
f 31/1/1 53/1/1 52/1/1
f 40/1/1 37/1/1 31/1/1
f 42/1/1 41/1/1 40/1/1
f 45/1/1 44/1/1 43/1/1
f 43/1/1 42/1/1 40/1/1
f 40/1/1 31/1/1 52/1/1
f 51/1/1 50/1/1 49/1/1
f 40/1/1 52/1/1 51/1/1
f 45/1/1 43/1/1 40/1/1
f 47/1/1 46/1/1 45/1/1
f 49/1/1 48/1/1 47/1/1
f 40/1/1 51/1/1 49/1/1
f 47/1/1 45/1/1 40/1/1
f 113/1/2 156/1/2 155/1/2
f 154/1/2 153/1/2 152/1/2
f 113/1/2 155/1/2 154/1/2
f 110/1/2 111/1/2 112/1/2
f 113/1/2 154/1/2 152/1/2
f 152/1/2 151/1/2 150/1/2
f 152/1/2 150/1/2 149/1/2
f 112/1/2 113/1/2 152/1/2
f 112/1/2 152/1/2 149/1/2
f 148/1/2 147/1/2 146/1/2
f 112/1/2 149/1/2 148/1/2
f 110/1/2 112/1/2 148/1/2
f 110/1/2 148/1/2 146/1/2
f 107/1/2 108/1/2 109/1/2
f 109/1/2 110/1/2 146/1/2
f 145/1/2 144/1/2 143/1/2
f 109/1/2 146/1/2 145/1/2
f 106/1/2 107/1/2 109/1/2
f 103/1/2 104/1/2 105/1/2
f 105/1/2 106/1/2 109/1/2
f 145/1/2 143/1/2 142/1/2
f 141/1/2 140/1/2 139/1/2
f 145/1/2 142/1/2 141/1/2
f 102/1/2 103/1/2 105/1/2
f 99/1/2 100/1/2 101/1/2
f 101/1/2 102/1/2 105/1/2
f 109/1/2 145/1/2 141/1/2
f 141/1/2 139/1/2 138/1/2
f 109/1/2 141/1/2 138/1/2
f 99/1/2 101/1/2 105/1/2
f 109/1/2 138/1/2 114/1/2
f 115/1/2 116/1/2 117/1/2
f 109/1/2 114/1/2 115/1/2
f 98/1/2 99/1/2 105/1/2
f 115/1/2 117/1/2 118/1/2
f 118/1/2 119/1/2 120/1/2
f 121/1/2 122/1/2 123/1/2
f 118/1/2 120/1/2 121/1/2
f 109/1/2 115/1/2 118/1/2
f 97/1/2 98/1/2 105/1/2
f 118/1/2 121/1/2 123/1/2
f 123/1/2 124/1/2 125/1/2
f 125/1/2 126/1/2 127/1/2
f 127/1/2 128/1/2 129/1/2
f 125/1/2 127/1/2 129/1/2
f 118/1/2 123/1/2 125/1/2
f 97/1/2 105/1/2 109/1/2
f 95/1/2 96/1/2 97/1/2
f 92/1/2 93/1/2 94/1/2
f 94/1/2 95/1/2 97/1/2
f 118/1/2 125/1/2 129/1/2
f 118/1/2 129/1/2 130/1/2
f 92/1/2 94/1/2 97/1/2
f 89/1/2 90/1/2 91/1/2
f 88/1/2 89/1/2 91/1/2
f 86/1/2 87/1/2 88/1/2
f 85/1/2 86/1/2 88/1/2
f 88/1/2 91/1/2 92/1/2
f 109/1/2 118/1/2 130/1/2
f 109/1/2 130/1/2 131/1/2
f 85/1/2 88/1/2 92/1/2
f 82/1/2 83/1/2 84/1/2
f 84/1/2 85/1/2 92/1/2
f 109/1/2 131/1/2 132/1/2
f 109/1/2 132/1/2 133/1/2
f 84/1/2 92/1/2 97/1/2
f 81/1/2 82/1/2 84/1/2
f 80/1/2 81/1/2 84/1/2
f 97/1/2 109/1/2 133/1/2
f 134/1/2 135/1/2 136/1/2
f 97/1/2 133/1/2 134/1/2
f 80/1/2 84/1/2 97/1/2
f 136/1/2 137/1/2 79/1/2
f 79/1/2 80/1/2 97/1/2
f 134/1/2 136/1/2 79/1/2
f 59/1/3 137/1/3 136/1/3
f 1/1/4 79/1/4 137/1/4
f 2/1/5 80/1/5 79/1/5
f 3/1/6 81/1/6 80/1/6
f 4/1/7 82/1/7 81/1/7
f 5/1/8 83/1/8 82/1/8
f 6/1/9 84/1/9 83/1/9
f 7/1/10 85/1/10 84/1/10
f 8/1/11 86/1/11 85/1/11
f 9/1/12 87/1/12 86/1/12
f 10/1/13 88/1/13 87/1/13
f 11/1/14 89/1/14 88/1/14
f 12/1/15 90/1/15 89/1/15
f 13/1/16 91/1/16 90/1/16
f 14/1/17 92/1/17 91/1/17
f 15/1/18 93/1/18 92/1/18
f 16/1/19 94/1/19 93/1/19
f 17/1/20 95/1/20 94/1/20
f 18/1/21 96/1/21 95/1/21
f 19/1/22 97/1/22 96/1/22
f 20/1/23 98/1/23 97/1/23
f 21/1/24 99/1/24 98/1/24
f 22/1/25 100/1/25 99/1/25
f 22/1/26 23/1/26 101/1/26
f 23/1/27 24/1/27 102/1/27
f 25/1/27 103/1/27 102/1/27
f 26/1/28 104/1/28 103/1/28
f 27/1/29 105/1/29 104/1/29
f 27/1/30 28/1/30 106/1/30
f 28/1/31 29/1/31 107/1/31
f 30/1/32 108/1/32 107/1/32
f 31/1/33 109/1/33 108/1/33
f 32/1/34 110/1/34 109/1/34
f 33/1/35 111/1/35 110/1/35
f 34/1/36 112/1/36 111/1/36
f 35/1/37 113/1/37 112/1/37
f 66/1/5 144/1/5 145/1/5
f 65/1/38 143/1/38 144/1/38
f 65/1/39 64/1/39 142/1/39
f 63/1/40 141/1/40 142/1/40
f 62/1/5 140/1/5 141/1/5
f 61/1/41 139/1/41 140/1/41
f 60/1/24 138/1/24 139/1/24
f 36/1/42 114/1/42 138/1/42
f 37/1/43 115/1/43 114/1/43
f 38/1/44 116/1/44 115/1/44
f 39/1/45 117/1/45 116/1/45
f 40/1/46 118/1/46 117/1/46
f 41/1/47 119/1/47 118/1/47
f 42/1/48 120/1/48 119/1/48
f 43/1/49 121/1/49 120/1/49
f 44/1/24 122/1/24 121/1/24
f 44/1/50 45/1/50 123/1/50
f 45/1/51 46/1/51 124/1/51
f 46/1/52 47/1/52 125/1/52
f 47/1/53 48/1/53 126/1/53
f 49/1/54 127/1/54 126/1/54
f 49/1/55 50/1/55 128/1/55
f 51/1/56 129/1/56 128/1/56
f 52/1/57 130/1/57 129/1/57
f 52/1/58 53/1/58 131/1/58
f 54/1/59 132/1/59 131/1/59
f 55/1/3 133/1/3 132/1/3
f 56/1/60 134/1/60 133/1/60
f 57/1/61 135/1/61 134/1/61
f 58/1/62 136/1/62 135/1/62
f 67/1/63 145/1/63 146/1/63
f 68/1/64 146/1/64 147/1/64
f 69/1/65 147/1/65 148/1/65
f 70/1/24 148/1/24 149/1/24
f 71/1/66 149/1/66 150/1/66
f 72/1/67 150/1/67 151/1/67
f 73/1/24 151/1/24 152/1/24
f 75/1/68 74/1/68 152/1/68
f 75/1/69 153/1/69 154/1/69
f 77/1/70 76/1/70 154/1/70
f 77/1/24 155/1/24 156/1/24
f 78/1/71 156/1/71 113/1/71
