# Blender 5.2.0 LTS
# www.blender.org
mtllib Minnesota.mtl
o Plane.033
v 1.441337 7.605207 -1.034401
v 1.441337 7.537143 -1.097929
v 1.441337 7.514454 -1.197759
v 1.441337 7.500841 -1.302126
v 1.441337 7.414625 -1.356578
v 1.441337 7.423700 -1.470020
v 1.441337 7.487227 -1.488171
v 1.441337 7.596132 -1.578924
v 1.441337 7.373786 -2.005467
v 1.441337 7.378324 -2.223277
v 1.441337 7.287569 -2.236890
v 1.441337 7.178664 -2.559066
v 1.441337 7.196815 -2.636207
v 1.441337 7.278494 -2.736035
v 1.441337 7.278494 -2.822251
v 1.441337 7.192278 -2.876704
v 1.441337 7.174127 -2.931157
v 1.441337 7.237655 -3.158042
v 1.441337 7.246730 -3.239720
v 1.441337 7.169589 -3.239720
v 1.441337 7.165051 -3.271483
v 1.441337 7.169589 -3.316861
v 1.441337 7.160514 -3.416690
v 1.441337 7.124212 -3.439378
v 1.441337 7.096986 -3.394000
v 1.441337 7.060684 -3.230643
v 1.441337 6.756660 -2.736035
v 1.441337 6.643217 -2.636207
v 1.441337 6.570614 -2.636207
v 1.441337 6.193985 -2.282266
v 1.441337 6.134995 -2.186975
v 1.441337 6.085080 -2.159748
v 1.441337 5.803743 -2.150672
v 1.441337 5.626774 -2.114371
v 1.441337 5.513331 -1.932863
v 1.441337 5.349975 -1.819421
v 1.441337 5.300059 -1.833034
v 1.441337 5.241070 -1.951014
v 1.441337 5.073174 -1.960089
v 1.441337 5.000571 -1.873873
v 1.441337 4.946119 -1.869335
v 1.441337 4.868979 -1.901099
v 1.441337 4.782763 -1.910174
v 1.441337 4.682933 -1.910174
v 1.441337 4.583104 -1.996390
v 1.441337 4.524114 -2.127983
v 1.441337 4.415209 -2.323104
v 1.441337 4.115722 -2.699733
v 1.441337 4.006817 -2.785949
v 1.441337 3.911525 -2.795024
v 1.441337 3.730017 -1.705976
v 1.441337 3.775394 -2.722421
v 1.441337 3.779932 -2.795024
v 1.441337 7.648817 -0.852891
v 1.441337 7.980557 -0.833377
v 1.441337 8.054711 -0.790445
v 1.441337 8.085934 -0.649943
v 1.441337 7.808833 -0.591401
v 1.441337 7.804931 0.388209
v 1.441337 7.656623 0.384307
v 1.441337 7.625400 0.341375
v 1.441337 7.566857 0.329667
v 1.441337 7.516121 0.396015
v 1.441337 7.391231 0.399918
v 1.441337 7.188283 0.376501
v 1.441337 7.063393 0.306251
v 1.441337 6.938502 0.271125
v 1.441337 6.556026 0.193069
v 1.441337 6.150131 0.204777
v 1.441337 5.783265 0.083789
v 1.441337 5.525679 0.095497
v 1.441337 5.409143 0.103266
v 1.441337 5.288724 0.200378
v 1.441337 5.249879 0.196494
v 1.441337 5.067307 0.025576
v 1.441337 3.738806 0.010037
v 2.441337 7.605207 -1.034401
v 2.441337 7.537143 -1.097929
v 2.441337 7.514454 -1.197759
v 2.441337 7.500841 -1.302126
v 2.441337 7.414625 -1.356578
v 2.441337 7.423700 -1.470020
v 2.441337 7.487227 -1.488171
v 2.441337 7.596132 -1.578924
v 2.441337 7.373786 -2.005467
v 2.441337 7.378324 -2.223277
v 2.441337 7.287569 -2.236890
v 2.441337 7.178664 -2.559066
v 2.441337 7.196815 -2.636207
v 2.441337 7.278494 -2.736035
v 2.441337 7.278494 -2.822251
v 2.441337 7.192278 -2.876704
v 2.441337 7.174127 -2.931157
v 2.441337 7.237655 -3.158042
v 2.441337 7.246730 -3.239720
v 2.441337 7.169589 -3.239720
v 2.441337 7.165051 -3.271483
v 2.441337 7.169589 -3.316861
v 2.441337 7.160514 -3.416690
v 2.441337 7.124212 -3.439378
v 2.441337 7.096986 -3.394000
v 2.441337 7.060684 -3.230643
v 2.441337 6.756660 -2.736035
v 2.441337 6.643217 -2.636207
v 2.441337 6.570614 -2.636207
v 2.441337 6.193985 -2.282266
v 2.441337 6.134995 -2.186975
v 2.441337 6.085080 -2.159748
v 2.441337 5.803743 -2.150672
v 2.441337 5.626774 -2.114371
v 2.441337 5.513331 -1.932863
v 2.441337 5.349975 -1.819421
v 2.441337 5.300059 -1.833034
v 2.441337 5.241070 -1.951014
v 2.441337 5.073174 -1.960089
v 2.441337 5.000571 -1.873873
v 2.441337 4.946119 -1.869335
v 2.441337 4.868979 -1.901099
v 2.441337 4.782763 -1.910174
v 2.441337 4.682933 -1.910174
v 2.441337 4.583104 -1.996390
v 2.441337 4.524114 -2.127983
v 2.441337 4.415209 -2.323104
v 2.441337 4.115722 -2.699733
v 2.441337 4.006817 -2.785949
v 2.441337 3.911525 -2.795024
v 2.441337 3.730017 -1.705976
v 2.441337 3.775394 -2.722421
v 2.441337 3.779932 -2.795024
v 2.441337 7.648817 -0.852891
v 2.441337 7.980557 -0.833377
v 2.441337 8.054711 -0.790445
v 2.441337 8.085934 -0.649943
v 2.441337 7.808833 -0.591401
v 2.441337 7.804931 0.388209
v 2.441337 7.656623 0.384307
v 2.441337 7.625400 0.341375
v 2.441337 7.566857 0.329667
v 2.441337 7.516121 0.396015
v 2.441337 7.391231 0.399918
v 2.441337 7.188283 0.376501
v 2.441337 7.063393 0.306251
v 2.441337 6.938502 0.271125
v 2.441337 6.556026 0.193069
v 2.441337 6.150131 0.204777
v 2.441337 5.783265 0.083789
v 2.441337 5.525679 0.095497
v 2.441337 5.409143 0.103266
v 2.441337 5.288724 0.200378
v 2.441337 5.249879 0.196494
v 2.441337 5.067307 0.025576
v 2.441337 3.738806 0.010037
vn -1.0000 -0.0000 -0.0000
vn 1.0000 -0.0000 -0.0000
vn -0.0000 0.9723 -0.2336
vn -0.0000 0.6823 -0.7311
vn -0.0000 0.9751 -0.2216
vn -0.0000 0.9916 -0.1293
vn -0.0000 0.5340 -0.8455
vn -0.0000 0.9968 0.0797
vn -0.0000 0.2747 0.9615
vn -0.0000 0.6402 0.7682
vn -0.0000 0.8868 -0.4622
vn -0.0000 0.9998 0.0208
vn -0.0000 0.1483 -0.9889
vn -0.0000 0.9473 -0.3202
vn -0.0000 0.9734 0.2290
vn -0.0000 0.7740 0.6332
vn -0.0000 1.0000 -0.0000
vn -0.0000 0.9487 -0.3162
vn -0.0000 0.9630 0.2696
vn -0.0000 0.9939 0.1104
vn -0.0000 -0.0000 -1.0000
vn -0.0000 0.9899 -0.1414
vn -0.0000 0.9950 0.0995
vn -0.0000 0.9959 -0.0905
vn -0.0000 0.5300 -0.8480
vn -0.0000 -0.8575 -0.5145
vn -0.0000 -0.9762 -0.2169
vn -0.0000 -0.8519 -0.5237
vn -0.0000 -0.6606 -0.7507
vn -0.0000 -0.6848 -0.7287
vn -0.0000 -0.8503 -0.5264
vn -0.0000 -0.4789 -0.8779
vn -0.0000 -0.0322 -0.9995
vn -0.0000 -0.2009 -0.9796
vn -0.0000 -0.8480 -0.5300
vn -0.0000 -0.5704 -0.8214
vn -0.0000 0.2631 -0.9648
vn -0.0000 0.8944 -0.4472
vn -0.0000 0.0540 -0.9985
vn -0.0000 -0.7649 -0.6441
vn -0.0000 -0.0830 -0.9965
vn -0.0000 0.3808 -0.9247
vn -0.0000 0.1047 -0.9945
vn -0.0000 0.6536 -0.7568
vn -0.0000 0.9125 -0.4091
vn -0.0000 0.8732 -0.4874
vn -0.0000 0.7827 -0.6224
vn -0.0000 0.6207 -0.7840
vn -0.0000 0.0948 -0.9955
vn -0.0000 -1.0000 0.0051
vn -0.0000 -0.9990 -0.0446
vn -0.0000 -0.9981 -0.0624
vn -0.0000 0.0587 -0.9983
vn -0.0000 0.5010 -0.8654
vn -0.0000 0.9762 -0.2169
vn -0.0000 0.2067 0.9784
vn -0.0000 1.0000 0.0040
vn -0.0000 -0.0263 0.9997
vn -0.0000 -0.8087 0.5882
vn -0.0000 -0.1961 0.9806
vn -0.0000 0.7944 0.6074
vn -0.0000 0.0312 0.9995
vn -0.0000 -0.1146 0.9934
vn -0.0000 -0.4903 0.8716
vn -0.0000 -0.2707 0.9627
vn -0.0000 -0.2000 0.9798
vn -0.0000 0.0288 0.9996
vn -0.0000 -0.3132 0.9497
vn -0.0000 0.0454 0.9990
vn -0.0000 0.0665 0.9978
vn -0.0000 0.6278 0.7784
vn -0.0000 -0.0995 0.9950
vn -0.0000 -0.6834 0.7300
vn -0.0000 -0.0117 0.9999
vn -1.0000 -0.0002 -0.0000
vn 1.0000 -0.0001 -0.0000
vn -0.0000 0.6823 -0.7310
vn -0.0000 0.7944 0.6075
vt 0.000000 0.000000
s 0
f 17/1/1 20/1/1 26/1/1
f 102/1/2 93/1/2 89/1/2
f 54/1/3 77/1/3 1/1/3
f 1/1/4 78/1/4 2/1/4
f 2/1/5 79/1/5 3/1/5
f 3/1/6 80/1/6 4/1/6
f 4/1/7 81/1/7 5/1/7
f 5/1/8 82/1/8 6/1/8
f 6/1/9 83/1/9 7/1/9
f 7/1/10 84/1/10 8/1/10
f 8/1/11 85/1/11 9/1/11
f 9/1/12 86/1/12 10/1/12
f 10/1/13 87/1/13 11/1/13
f 11/1/14 88/1/14 12/1/14
f 12/1/15 89/1/15 13/1/15
f 13/1/16 90/1/16 14/1/16
f 14/1/17 91/1/17 15/1/17
f 15/1/7 92/1/7 16/1/7
f 16/1/18 93/1/18 17/1/18
f 17/1/19 94/1/19 18/1/19
f 18/1/20 95/1/20 19/1/20
f 19/1/21 96/1/21 20/1/21
f 20/1/22 97/1/22 21/1/22
f 21/1/23 98/1/23 22/1/23
f 22/1/24 99/1/24 23/1/24
f 23/1/25 100/1/25 24/1/25
f 24/1/26 101/1/26 25/1/26
f 25/1/27 102/1/27 26/1/27
f 26/1/28 103/1/28 27/1/28
f 27/1/29 104/1/29 28/1/29
f 28/1/21 105/1/21 29/1/21
f 29/1/30 106/1/30 30/1/30
f 30/1/31 107/1/31 31/1/31
f 31/1/32 108/1/32 32/1/32
f 32/1/33 109/1/33 33/1/33
f 33/1/34 110/1/34 34/1/34
f 34/1/35 111/1/35 35/1/35
f 35/1/36 112/1/36 36/1/36
f 36/1/37 113/1/37 37/1/37
f 37/1/38 114/1/38 38/1/38
f 38/1/39 115/1/39 39/1/39
f 39/1/40 116/1/40 40/1/40
f 40/1/41 117/1/41 41/1/41
f 41/1/42 118/1/42 42/1/42
f 42/1/43 119/1/43 43/1/43
f 43/1/21 120/1/21 44/1/21
f 44/1/44 121/1/44 45/1/44
f 45/1/45 122/1/45 46/1/45
f 46/1/46 123/1/46 47/1/46
f 47/1/47 124/1/47 48/1/47
f 48/1/48 125/1/48 49/1/48
f 49/1/49 126/1/49 50/1/49
f 50/1/21 129/1/21 53/1/21
f 51/1/50 152/1/50 76/1/50
f 52/1/51 127/1/51 51/1/51
f 53/1/52 128/1/52 52/1/52
f 55/1/53 130/1/53 54/1/53
f 56/1/54 131/1/54 55/1/54
f 57/1/55 132/1/55 56/1/55
f 58/1/56 133/1/56 57/1/56
f 59/1/57 134/1/57 58/1/57
f 60/1/58 135/1/58 59/1/58
f 61/1/59 136/1/59 60/1/59
f 62/1/60 137/1/60 61/1/60
f 63/1/61 138/1/61 62/1/61
f 64/1/62 139/1/62 63/1/62
f 65/1/63 140/1/63 64/1/63
f 66/1/64 141/1/64 65/1/64
f 67/1/65 142/1/65 66/1/65
f 68/1/66 143/1/66 67/1/66
f 69/1/67 144/1/67 68/1/67
f 70/1/68 145/1/68 69/1/68
f 71/1/69 146/1/69 70/1/69
f 72/1/70 147/1/70 71/1/70
f 73/1/71 148/1/71 72/1/71
f 74/1/72 149/1/72 73/1/72
f 75/1/73 150/1/73 74/1/73
f 76/1/74 151/1/74 75/1/74
f 75/1/1 74/1/1 73/1/1
f 75/1/1 73/1/1 72/1/1
f 51/1/1 76/1/1 75/1/1
f 53/1/75 52/1/75 51/1/75
f 49/1/1 50/1/1 53/1/1
f 47/1/1 48/1/1 49/1/1
f 45/1/1 46/1/1 47/1/1
f 42/1/1 43/1/1 44/1/1
f 45/1/1 47/1/1 49/1/1
f 41/1/1 42/1/1 44/1/1
f 45/1/1 49/1/1 53/1/1
f 45/1/1 53/1/1 51/1/1
f 51/1/1 75/1/1 72/1/1
f 51/1/1 72/1/1 71/1/1
f 44/1/1 45/1/1 51/1/1
f 41/1/1 44/1/1 51/1/1
f 51/1/1 71/1/1 70/1/1
f 70/1/1 69/1/1 68/1/1
f 51/1/1 70/1/1 68/1/1
f 40/1/1 41/1/1 51/1/1
f 38/1/1 39/1/1 40/1/1
f 37/1/1 38/1/1 40/1/1
f 40/1/1 51/1/1 68/1/1
f 40/1/1 68/1/1 67/1/1
f 36/1/1 37/1/1 40/1/1
f 33/1/1 34/1/1 35/1/1
f 36/1/1 40/1/1 67/1/1
f 32/1/1 33/1/1 35/1/1
f 35/1/1 36/1/1 67/1/1
f 66/1/1 65/1/1 64/1/1
f 35/1/1 67/1/1 66/1/1
f 32/1/1 35/1/1 66/1/1
f 66/1/1 64/1/1 63/1/1
f 66/1/1 63/1/1 62/1/1
f 31/1/1 32/1/1 66/1/1
f 29/1/1 30/1/1 31/1/1
f 28/1/1 29/1/1 31/1/1
f 31/1/1 66/1/1 62/1/1
f 61/1/1 60/1/1 59/1/1
f 31/1/1 62/1/1 61/1/1
f 27/1/1 28/1/1 31/1/1
f 24/1/1 25/1/1 26/1/1
f 27/1/1 31/1/1 61/1/1
f 23/1/1 24/1/1 26/1/1
f 26/1/1 27/1/1 61/1/1
f 61/1/1 59/1/1 58/1/1
f 58/1/1 57/1/1 56/1/1
f 56/1/1 55/1/1 54/1/1
f 54/1/1 1/1/1 2/1/1
f 3/1/1 4/1/1 5/1/1
f 2/1/1 3/1/1 5/1/1
f 6/1/1 7/1/1 8/1/1
f 54/1/1 2/1/1 5/1/1
f 6/1/1 8/1/1 9/1/1
f 5/1/1 6/1/1 9/1/1
f 9/1/1 10/1/1 11/1/1
f 5/1/1 9/1/1 11/1/1
f 58/1/1 56/1/1 54/1/1
f 5/1/1 11/1/1 12/1/1
f 61/1/1 58/1/1 54/1/1
f 61/1/1 54/1/1 5/1/1
f 22/1/1 23/1/1 26/1/1
f 21/1/1 22/1/1 26/1/1
f 61/1/1 5/1/1 12/1/1
f 13/1/1 14/1/1 15/1/1
f 26/1/1 61/1/1 12/1/1
f 13/1/1 15/1/1 16/1/1
f 26/1/1 12/1/1 13/1/1
f 20/1/1 21/1/1 26/1/1
f 18/1/1 19/1/1 20/1/1
f 13/1/1 16/1/1 17/1/1
f 17/1/1 18/1/1 20/1/1
f 26/1/1 13/1/1 17/1/1
f 151/1/2 152/1/2 127/1/2
f 127/1/76 128/1/76 129/1/76
f 129/1/2 126/1/2 125/1/2
f 125/1/2 124/1/2 123/1/2
f 123/1/2 122/1/2 121/1/2
f 120/1/2 119/1/2 118/1/2
f 125/1/2 123/1/2 121/1/2
f 120/1/2 118/1/2 117/1/2
f 129/1/2 125/1/2 121/1/2
f 127/1/2 129/1/2 121/1/2
f 150/1/2 151/1/2 127/1/2
f 148/1/2 149/1/2 150/1/2
f 148/1/2 150/1/2 127/1/2
f 127/1/2 121/1/2 120/1/2
f 127/1/2 120/1/2 117/1/2
f 147/1/2 148/1/2 127/1/2
f 144/1/2 145/1/2 146/1/2
f 146/1/2 147/1/2 127/1/2
f 127/1/2 117/1/2 116/1/2
f 116/1/2 115/1/2 114/1/2
f 116/1/2 114/1/2 113/1/2
f 146/1/2 127/1/2 116/1/2
f 144/1/2 146/1/2 116/1/2
f 116/1/2 113/1/2 112/1/2
f 111/1/2 110/1/2 109/1/2
f 144/1/2 116/1/2 112/1/2
f 111/1/2 109/1/2 108/1/2
f 144/1/2 112/1/2 111/1/2
f 143/1/2 144/1/2 111/1/2
f 143/1/2 111/1/2 108/1/2
f 140/1/2 141/1/2 142/1/2
f 142/1/2 143/1/2 108/1/2
f 107/1/2 106/1/2 105/1/2
f 142/1/2 108/1/2 107/1/2
f 139/1/2 140/1/2 142/1/2
f 138/1/2 139/1/2 142/1/2
f 142/1/2 107/1/2 105/1/2
f 142/1/2 105/1/2 104/1/2
f 138/1/2 142/1/2 104/1/2
f 138/1/2 104/1/2 103/1/2
f 135/1/2 136/1/2 137/1/2
f 137/1/2 138/1/2 103/1/2
f 102/1/2 101/1/2 100/1/2
f 137/1/2 103/1/2 102/1/2
f 134/1/2 135/1/2 137/1/2
f 132/1/2 133/1/2 134/1/2
f 130/1/2 131/1/2 132/1/2
f 78/1/2 77/1/2 130/1/2
f 81/1/2 80/1/2 79/1/2
f 81/1/2 79/1/2 78/1/2
f 84/1/2 83/1/2 82/1/2
f 81/1/2 78/1/2 130/1/2
f 85/1/2 84/1/2 82/1/2
f 85/1/2 82/1/2 81/1/2
f 87/1/2 86/1/2 85/1/2
f 87/1/2 85/1/2 81/1/2
f 130/1/2 132/1/2 134/1/2
f 88/1/2 87/1/2 81/1/2
f 130/1/2 134/1/2 137/1/2
f 81/1/2 130/1/2 137/1/2
f 102/1/2 100/1/2 99/1/2
f 99/1/2 98/1/2 97/1/2
f 96/1/2 95/1/2 94/1/2
f 102/1/2 99/1/2 97/1/2
f 96/1/2 94/1/2 93/1/2
f 102/1/2 97/1/2 96/1/2
f 88/1/2 81/1/2 137/1/2
f 91/1/2 90/1/2 89/1/2
f 88/1/2 137/1/2 102/1/2
f 92/1/2 91/1/2 89/1/2
f 89/1/2 88/1/2 102/1/2
f 102/1/2 96/1/2 93/1/2
f 93/1/2 92/1/2 89/1/2
f 54/1/3 130/1/3 77/1/3
f 1/1/77 77/1/77 78/1/77
f 2/1/5 78/1/5 79/1/5
f 3/1/6 79/1/6 80/1/6
f 4/1/7 80/1/7 81/1/7
f 5/1/8 81/1/8 82/1/8
f 6/1/9 82/1/9 83/1/9
f 7/1/10 83/1/10 84/1/10
f 8/1/11 84/1/11 85/1/11
f 9/1/12 85/1/12 86/1/12
f 10/1/13 86/1/13 87/1/13
f 11/1/14 87/1/14 88/1/14
f 12/1/15 88/1/15 89/1/15
f 13/1/16 89/1/16 90/1/16
f 14/1/17 90/1/17 91/1/17
f 15/1/7 91/1/7 92/1/7
f 16/1/18 92/1/18 93/1/18
f 17/1/19 93/1/19 94/1/19
f 18/1/20 94/1/20 95/1/20
f 19/1/21 95/1/21 96/1/21
f 20/1/22 96/1/22 97/1/22
f 21/1/23 97/1/23 98/1/23
f 22/1/24 98/1/24 99/1/24
f 23/1/25 99/1/25 100/1/25
f 24/1/26 100/1/26 101/1/26
f 25/1/27 101/1/27 102/1/27
f 26/1/28 102/1/28 103/1/28
f 27/1/29 103/1/29 104/1/29
f 28/1/21 104/1/21 105/1/21
f 29/1/30 105/1/30 106/1/30
f 30/1/31 106/1/31 107/1/31
f 31/1/32 107/1/32 108/1/32
f 32/1/33 108/1/33 109/1/33
f 33/1/34 109/1/34 110/1/34
f 34/1/35 110/1/35 111/1/35
f 35/1/36 111/1/36 112/1/36
f 36/1/37 112/1/37 113/1/37
f 37/1/38 113/1/38 114/1/38
f 38/1/39 114/1/39 115/1/39
f 39/1/40 115/1/40 116/1/40
f 40/1/41 116/1/41 117/1/41
f 41/1/42 117/1/42 118/1/42
f 42/1/43 118/1/43 119/1/43
f 43/1/21 119/1/21 120/1/21
f 44/1/44 120/1/44 121/1/44
f 45/1/45 121/1/45 122/1/45
f 46/1/46 122/1/46 123/1/46
f 47/1/47 123/1/47 124/1/47
f 48/1/48 124/1/48 125/1/48
f 49/1/49 125/1/49 126/1/49
f 50/1/21 126/1/21 129/1/21
f 51/1/50 127/1/50 152/1/50
f 52/1/51 128/1/51 127/1/51
f 53/1/52 129/1/52 128/1/52
f 55/1/53 131/1/53 130/1/53
f 56/1/54 132/1/54 131/1/54
f 57/1/55 133/1/55 132/1/55
f 58/1/56 134/1/56 133/1/56
f 59/1/57 135/1/57 134/1/57
f 60/1/58 136/1/58 135/1/58
f 61/1/59 137/1/59 136/1/59
f 62/1/60 138/1/60 137/1/60
f 63/1/78 139/1/78 138/1/78
f 64/1/62 140/1/62 139/1/62
f 65/1/63 141/1/63 140/1/63
f 66/1/64 142/1/64 141/1/64
f 67/1/65 143/1/65 142/1/65
f 68/1/66 144/1/66 143/1/66
f 69/1/67 145/1/67 144/1/67
f 70/1/68 146/1/68 145/1/68
f 71/1/69 147/1/69 146/1/69
f 72/1/70 148/1/70 147/1/70
f 73/1/71 149/1/71 148/1/71
f 74/1/72 150/1/72 149/1/72
f 75/1/73 151/1/73 150/1/73
f 76/1/74 152/1/74 151/1/74
