# Blender 5.2.0 LTS
# www.blender.org
mtllib Montana.mtl
o Plane.044
v 1.441337 8.426237 9.688680
v 1.441337 8.833852 9.698502
v 1.441337 5.424581 7.622310
v 1.441337 5.253554 6.466173
v 1.441337 4.959390 4.030760
v 1.441337 5.052365 7.768469
v 1.441337 5.263539 7.891244
v 1.441337 5.273361 7.969821
v 1.441337 5.204607 8.072952
v 1.441337 5.214429 8.411813
v 1.441337 5.258628 8.593521
v 1.441337 5.170230 8.735941
v 1.441337 5.175140 8.780140
v 1.441337 5.243895 8.804695
v 1.441337 5.455069 8.799784
v 1.441337 5.622044 8.991314
v 1.441337 5.725175 8.976581
v 1.441337 5.936349 9.089535
v 1.441337 5.990370 9.079712
v 1.441337 6.054214 9.045336
v 1.441337 6.137701 9.045336
v 1.441337 6.201544 9.138645
v 1.441337 6.191722 9.177933
v 1.441337 6.098413 9.335085
v 1.441337 6.324320 9.448039
v 1.441337 6.348875 9.394018
v 1.441337 6.510939 9.325264
v 1.441337 6.776134 9.202488
v 1.441337 7.006951 9.187756
v 1.441337 7.036418 9.315441
v 1.441337 7.139549 9.457861
v 1.441337 7.512787 9.595369
v 1.441337 7.674850 9.772167
v 1.441337 7.998978 9.767256
v 1.441337 8.107020 9.821278
v 1.441337 8.224885 9.816366
v 1.441337 5.431422 7.683879
v 1.441337 5.708601 3.968326
v 1.441337 7.925020 3.781023
v 1.441337 8.052691 5.167162
v 1.441337 8.262435 6.635375
v 1.441337 8.599851 8.650748
v 1.441337 8.791357 9.526205
v 2.441337 8.426237 9.688680
v 2.441337 8.833852 9.698502
v 2.441337 5.424581 7.622310
v 2.441337 5.253554 6.466173
v 2.441337 4.959390 4.030760
v 2.441337 5.052365 7.768469
v 2.441337 5.263539 7.891244
v 2.441337 5.273361 7.969821
v 2.441337 5.204607 8.072952
v 2.441337 5.214429 8.411813
v 2.441337 5.258628 8.593521
v 2.441337 5.170230 8.735941
v 2.441337 5.175140 8.780140
v 2.441337 5.243895 8.804695
v 2.441337 5.455069 8.799784
v 2.441337 5.622044 8.991314
v 2.441337 5.725175 8.976581
v 2.441337 5.936349 9.089535
v 2.441337 5.990370 9.079712
v 2.441337 6.054214 9.045336
v 2.441337 6.137701 9.045336
v 2.441337 6.201544 9.138645
v 2.441337 6.191722 9.177933
v 2.441337 6.098413 9.335085
v 2.441337 6.324320 9.448039
v 2.441337 6.348875 9.394018
v 2.441337 6.510939 9.325264
v 2.441337 6.776134 9.202488
v 2.441337 7.006951 9.187756
v 2.441337 7.036418 9.315441
v 2.441337 7.139549 9.457861
v 2.441337 7.512787 9.595369
v 2.441337 7.674850 9.772167
v 2.441337 7.998978 9.767256
v 2.441337 8.107020 9.821278
v 2.441337 8.224885 9.816366
v 2.441337 5.431422 7.683879
v 2.441337 5.708601 3.968326
v 2.441337 7.925020 3.781023
v 2.441337 8.052691 5.167162
v 2.441337 8.262435 6.635375
v 2.441337 8.599851 8.650748
v 2.441337 8.791357 9.526205
vn -1.0000 -0.0000 -0.0000
vn 1.0000 -0.0000 -0.0000
vn -0.0000 0.0416 0.9991
vn -0.0000 0.5355 0.8445
vn -0.0000 -0.0241 0.9997
vn -0.0000 -0.0830 -0.9965
vn -0.0000 -0.2178 -0.9760
vn -0.0000 -0.9939 0.1104
vn -0.0000 -0.9892 0.1463
vn -0.0000 -0.9928 0.1199
vn -0.0000 -0.5026 0.8645
vn -0.0000 -0.9923 0.1240
vn -0.0000 -0.8321 -0.5547
vn -0.0000 -0.9996 0.0290
vn -0.0000 -0.9717 0.2364
vn -0.0000 -0.8496 -0.5274
vn -0.0000 -0.3363 0.9417
vn -0.0000 0.0232 0.9997
vn -0.0000 -0.7538 0.6571
vn -0.0000 0.1414 0.9899
vn -0.0000 -0.4717 0.8818
vn -0.0000 0.1789 0.9839
vn -0.0000 0.4741 0.8805
vn -0.0000 -0.0000 1.0000
vn -0.0000 -0.8253 0.5647
vn -0.0000 -0.9701 -0.2425
vn -0.0000 -0.8599 -0.5105
vn -0.0000 -0.4472 0.8944
vn -0.0000 0.9104 0.4138
vn -0.0000 0.3905 0.9206
vn -0.0000 0.4201 0.9075
vn -0.0000 0.0637 0.9980
vn -0.0000 -0.9744 0.2249
vn -0.0000 -0.8099 0.5865
vn -0.0000 -0.3457 0.9383
vn -0.0000 -0.7372 0.6757
vn -0.0000 0.0151 0.9999
vn -0.0000 -0.0842 -0.9964
vn -0.0000 0.9958 -0.0917
vn -0.0000 0.9899 -0.1414
vn -0.0000 0.9863 -0.1651
vn -0.0000 0.9769 -0.2137
vn -0.0000 0.9709 -0.2395
vt 0.000000 0.000000
s 0
f 15/1/1 21/1/1 28/1/1
f 61/1/2 58/1/2 83/1/2
f 35/1/3 79/1/3 36/1/3
f 36/1/4 44/1/4 1/1/4
f 1/1/5 45/1/5 2/1/5
f 38/1/6 48/1/6 5/1/6
f 37/1/7 49/1/7 6/1/7
f 3/1/8 80/1/8 37/1/8
f 4/1/9 46/1/9 3/1/9
f 5/1/10 47/1/10 4/1/10
f 6/1/11 50/1/11 7/1/11
f 7/1/12 51/1/12 8/1/12
f 8/1/13 52/1/13 9/1/13
f 9/1/14 53/1/14 10/1/14
f 10/1/15 54/1/15 11/1/15
f 11/1/16 55/1/16 12/1/16
f 12/1/8 56/1/8 13/1/8
f 13/1/17 57/1/17 14/1/17
f 14/1/18 58/1/18 15/1/18
f 15/1/19 59/1/19 16/1/19
f 16/1/20 60/1/20 17/1/20
f 17/1/21 61/1/21 18/1/21
f 18/1/22 62/1/22 19/1/22
f 19/1/23 63/1/23 20/1/23
f 20/1/24 64/1/24 21/1/24
f 21/1/25 65/1/25 22/1/25
f 22/1/26 66/1/26 23/1/26
f 23/1/27 67/1/27 24/1/27
f 24/1/28 68/1/28 25/1/28
f 25/1/29 69/1/29 26/1/29
f 26/1/30 70/1/30 27/1/30
f 27/1/31 71/1/31 28/1/31
f 28/1/32 72/1/32 29/1/32
f 29/1/33 73/1/33 30/1/33
f 30/1/34 74/1/34 31/1/34
f 31/1/35 75/1/35 32/1/35
f 32/1/36 76/1/36 33/1/36
f 33/1/37 77/1/37 34/1/37
f 34/1/28 78/1/28 35/1/28
f 39/1/38 81/1/38 38/1/38
f 40/1/39 82/1/39 39/1/39
f 41/1/40 83/1/40 40/1/40
f 42/1/41 84/1/41 41/1/41
f 43/1/42 85/1/42 42/1/42
f 2/1/43 86/1/43 43/1/43
f 1/1/1 2/1/1 43/1/1
f 1/1/1 43/1/1 42/1/1
f 35/1/1 36/1/1 1/1/1
f 32/1/1 33/1/1 34/1/1
f 34/1/1 35/1/1 1/1/1
f 1/1/1 42/1/1 41/1/1
f 40/1/1 39/1/1 38/1/1
f 1/1/1 41/1/1 40/1/1
f 32/1/1 34/1/1 1/1/1
f 30/1/1 31/1/1 32/1/1
f 29/1/1 30/1/1 32/1/1
f 32/1/1 1/1/1 40/1/1
f 40/1/1 38/1/1 5/1/1
f 5/1/1 4/1/1 3/1/1
f 37/1/1 6/1/1 7/1/1
f 40/1/1 5/1/1 3/1/1
f 37/1/1 7/1/1 8/1/1
f 40/1/1 3/1/1 37/1/1
f 29/1/1 32/1/1 40/1/1
f 26/1/1 27/1/1 28/1/1
f 28/1/1 29/1/1 40/1/1
f 40/1/1 37/1/1 8/1/1
f 8/1/1 9/1/1 10/1/1
f 11/1/1 12/1/1 13/1/1
f 8/1/1 10/1/1 11/1/1
f 28/1/1 40/1/1 8/1/1
f 24/1/1 25/1/1 26/1/1
f 28/1/1 8/1/1 11/1/1
f 11/1/1 13/1/1 14/1/1
f 15/1/1 16/1/1 17/1/1
f 11/1/1 14/1/1 15/1/1
f 24/1/1 26/1/1 28/1/1
f 23/1/1 24/1/1 28/1/1
f 28/1/1 11/1/1 15/1/1
f 15/1/1 17/1/1 18/1/1
f 18/1/1 19/1/1 20/1/1
f 15/1/1 18/1/1 20/1/1
f 22/1/1 23/1/1 28/1/1
f 15/1/1 20/1/1 21/1/1
f 21/1/1 22/1/1 28/1/1
f 86/1/2 45/1/2 44/1/2
f 44/1/2 79/1/2 78/1/2
f 77/1/2 76/1/2 75/1/2
f 44/1/2 78/1/2 77/1/2
f 85/1/2 86/1/2 44/1/2
f 84/1/2 85/1/2 44/1/2
f 44/1/2 77/1/2 75/1/2
f 75/1/2 74/1/2 73/1/2
f 75/1/2 73/1/2 72/1/2
f 84/1/2 44/1/2 75/1/2
f 81/1/2 82/1/2 83/1/2
f 83/1/2 84/1/2 75/1/2
f 83/1/2 75/1/2 72/1/2
f 48/1/2 81/1/2 83/1/2
f 46/1/2 47/1/2 48/1/2
f 50/1/2 49/1/2 80/1/2
f 46/1/2 48/1/2 83/1/2
f 51/1/2 50/1/2 80/1/2
f 80/1/2 46/1/2 83/1/2
f 83/1/2 72/1/2 71/1/2
f 71/1/2 70/1/2 69/1/2
f 69/1/2 68/1/2 67/1/2
f 69/1/2 67/1/2 66/1/2
f 83/1/2 71/1/2 69/1/2
f 51/1/2 80/1/2 83/1/2
f 53/1/2 52/1/2 51/1/2
f 56/1/2 55/1/2 54/1/2
f 54/1/2 53/1/2 51/1/2
f 83/1/2 69/1/2 66/1/2
f 83/1/2 66/1/2 65/1/2
f 54/1/2 51/1/2 83/1/2
f 57/1/2 56/1/2 54/1/2
f 60/1/2 59/1/2 58/1/2
f 58/1/2 57/1/2 54/1/2
f 83/1/2 65/1/2 64/1/2
f 63/1/2 62/1/2 61/1/2
f 83/1/2 64/1/2 63/1/2
f 58/1/2 54/1/2 83/1/2
f 61/1/2 60/1/2 58/1/2
f 83/1/2 63/1/2 61/1/2
f 35/1/3 78/1/3 79/1/3
f 36/1/4 79/1/4 44/1/4
f 1/1/5 44/1/5 45/1/5
f 38/1/6 81/1/6 48/1/6
f 37/1/7 80/1/7 49/1/7
f 3/1/8 46/1/8 80/1/8
f 4/1/9 47/1/9 46/1/9
f 5/1/10 48/1/10 47/1/10
f 6/1/11 49/1/11 50/1/11
f 7/1/12 50/1/12 51/1/12
f 8/1/13 51/1/13 52/1/13
f 9/1/14 52/1/14 53/1/14
f 10/1/15 53/1/15 54/1/15
f 11/1/16 54/1/16 55/1/16
f 12/1/8 55/1/8 56/1/8
f 13/1/17 56/1/17 57/1/17
f 14/1/18 57/1/18 58/1/18
f 15/1/19 58/1/19 59/1/19
f 16/1/20 59/1/20 60/1/20
f 17/1/21 60/1/21 61/1/21
f 18/1/22 61/1/22 62/1/22
f 19/1/23 62/1/23 63/1/23
f 20/1/24 63/1/24 64/1/24
f 21/1/25 64/1/25 65/1/25
f 22/1/26 65/1/26 66/1/26
f 23/1/27 66/1/27 67/1/27
f 24/1/28 67/1/28 68/1/28
f 25/1/29 68/1/29 69/1/29
f 26/1/30 69/1/30 70/1/30
f 27/1/31 70/1/31 71/1/31
f 28/1/32 71/1/32 72/1/32
f 29/1/33 72/1/33 73/1/33
f 30/1/34 73/1/34 74/1/34
f 31/1/35 74/1/35 75/1/35
f 32/1/36 75/1/36 76/1/36
f 33/1/37 76/1/37 77/1/37
f 34/1/28 77/1/28 78/1/28
f 39/1/38 82/1/38 81/1/38
f 40/1/39 83/1/39 82/1/39
f 41/1/40 84/1/40 83/1/40
f 42/1/41 85/1/41 84/1/41
f 43/1/42 86/1/42 85/1/42
f 2/1/43 45/1/43 86/1/43
