# Blender 5.2.0 LTS
# www.blender.org
mtllib Nevada.mtl
o Plane.047
v 1.441337 -1.592608 11.040766
v 1.441337 -1.514078 11.095132
v 1.441337 1.923538 13.382904
v 1.441337 2.209509 13.388862
v 1.441337 4.247056 12.912243
v 1.441337 -0.841986 10.523552
v 1.441337 -0.187280 10.391462
v 1.441337 -0.853472 10.632669
v 1.441337 -0.750097 10.764759
v 1.441337 -0.761583 10.954279
v 1.441337 -1.502434 10.971508
v 1.441337 3.505730 9.691645
v 1.441337 3.859854 11.318930
v 2.441337 -1.592608 11.040766
v 2.441337 -1.514078 11.095132
v 2.441337 1.923538 13.382904
v 2.441337 2.209509 13.388862
v 2.441337 4.247056 12.912243
v 2.441337 -0.841986 10.523552
v 2.441337 -0.187280 10.391462
v 2.441337 -0.853472 10.632669
v 2.441337 -0.750097 10.764759
v 2.441337 -0.761583 10.954279
v 2.441337 -1.502434 10.971508
v 2.441337 3.505730 9.691645
v 2.441337 3.859854 11.318930
vn -1.0000 -0.0000 -0.0000
vn 1.0000 -0.0000 -0.0000
vn -0.0000 -0.9945 -0.1047
vn -0.0000 -0.1978 -0.9802
vn -0.0000 -0.5692 0.8222
vn -0.0000 -0.5540 0.8325
vn -0.0000 -0.0208 0.9998
vn -0.0000 0.2278 0.9737
vn -0.0000 -0.6091 -0.7931
vn -0.0000 -0.0232 -0.9997
vn -0.0000 -0.9982 -0.0605
vn -0.0000 -0.7875 0.6163
vn -0.0000 -0.1862 -0.9825
vn -0.0000 0.9771 -0.2126
vn -0.0000 0.9717 -0.2361
vt 0.000000 0.000000
s 0
f 10/1/1 2/1/1 4/1/1
f 23/1/2 20/1/2 26/1/2
f 6/1/3 21/1/3 8/1/3
f 7/1/4 19/1/4 6/1/4
f 1/1/5 15/1/5 2/1/5
f 2/1/6 16/1/6 3/1/6
f 3/1/7 17/1/7 4/1/7
f 4/1/8 18/1/8 5/1/8
f 11/1/9 14/1/9 1/1/9
f 10/1/10 24/1/10 11/1/10
f 9/1/11 23/1/11 10/1/11
f 9/1/12 21/1/12 22/1/12
f 12/1/13 20/1/13 7/1/13
f 13/1/14 25/1/14 12/1/14
f 5/1/15 26/1/15 13/1/15
f 4/1/1 5/1/1 13/1/1
f 13/1/1 12/1/1 7/1/1
f 7/1/1 6/1/1 8/1/1
f 7/1/1 8/1/1 9/1/1
f 4/1/1 13/1/1 7/1/1
f 2/1/1 3/1/1 4/1/1
f 11/1/1 1/1/1 2/1/1
f 7/1/1 9/1/1 10/1/1
f 10/1/1 11/1/1 2/1/1
f 4/1/1 7/1/1 10/1/1
f 26/1/2 18/1/2 17/1/2
f 17/1/2 16/1/2 15/1/2
f 15/1/2 14/1/2 24/1/2
f 15/1/2 24/1/2 23/1/2
f 26/1/2 17/1/2 15/1/2
f 20/1/2 25/1/2 26/1/2
f 21/1/2 19/1/2 20/1/2
f 22/1/2 21/1/2 20/1/2
f 26/1/2 15/1/2 23/1/2
f 23/1/2 22/1/2 20/1/2
f 6/1/3 19/1/3 21/1/3
f 7/1/4 20/1/4 19/1/4
f 1/1/5 14/1/5 15/1/5
f 2/1/6 15/1/6 16/1/6
f 3/1/7 16/1/7 17/1/7
f 4/1/8 17/1/8 18/1/8
f 11/1/9 24/1/9 14/1/9
f 10/1/10 23/1/10 24/1/10
f 9/1/11 22/1/11 23/1/11
f 9/1/12 8/1/12 21/1/12
f 12/1/13 25/1/13 20/1/13
f 13/1/14 26/1/14 25/1/14
f 5/1/15 18/1/15 26/1/15
