# Blender 5.2.0 LTS
# www.blender.org
mtllib New Jersey.mtl
o Plane.013
v 1.441337 2.213423 -11.936566
v 1.441337 2.305727 -12.016049
v 1.441337 2.392903 -12.075021
v 1.441337 2.513411 -12.146813
v 1.441337 2.572383 -12.144250
v 1.441337 2.700583 -11.959641
v 1.441337 2.769810 -11.900670
v 1.441337 2.836474 -11.864774
v 1.441337 2.841602 -11.808366
v 1.441337 2.915958 -11.813495
v 1.441337 2.918522 -11.841699
v 1.441337 2.959546 -11.857083
v 1.441337 3.085182 -11.849391
v 1.441337 3.326198 -11.910928
v 1.441337 3.362094 -11.908364
v 1.441337 3.423630 -11.923749
v 1.441337 3.421066 -11.972465
v 1.441337 3.231330 -12.485265
v 1.441337 3.190306 -12.492957
v 1.441337 2.939034 -12.477572
v 1.441337 2.923650 -12.451932
v 1.441337 2.887754 -12.418599
v 1.441337 2.826218 -12.403214
v 1.441337 2.780066 -12.585258
v 1.441337 2.113427 -12.585258
v 1.441337 1.826189 -12.358565
v 1.441337 1.678346 -12.365605
v 1.441337 1.629065 -12.355750
v 1.441337 1.624841 -12.255780
v 1.441337 1.810701 -12.262820
v 1.441337 1.807885 -12.085408
v 1.441337 1.872654 -11.954461
v 1.441337 1.920527 -11.896731
v 1.441337 2.162708 -11.846042
v 1.441337 2.112019 -11.847449
v 1.441337 2.076818 -11.831962
v 1.441337 2.003601 -11.796762
v 2.441337 2.213423 -11.936566
v 2.441337 2.305727 -12.016049
v 2.441337 2.392903 -12.075021
v 2.441337 2.513411 -12.146813
v 2.441337 2.572383 -12.144250
v 2.441337 2.700583 -11.959641
v 2.441337 2.769810 -11.900670
v 2.441337 2.836474 -11.864774
v 2.441337 2.841602 -11.808366
v 2.441337 2.915958 -11.813495
v 2.441337 2.918522 -11.841699
v 2.441337 2.959546 -11.857083
v 2.441337 3.085182 -11.849391
v 2.441337 3.326198 -11.910928
v 2.441337 3.362094 -11.908364
v 2.441337 3.423630 -11.923749
v 2.441337 3.421066 -11.972465
v 2.441337 3.231330 -12.485265
v 2.441337 3.190306 -12.492957
v 2.441337 2.939034 -12.477572
v 2.441337 2.923650 -12.451932
v 2.441337 2.887754 -12.418599
v 2.441337 2.826218 -12.403214
v 2.441337 2.780066 -12.585258
v 2.441337 2.113427 -12.585258
v 2.441337 1.826189 -12.358565
v 2.441337 1.678346 -12.365605
v 2.441337 1.629065 -12.355750
v 2.441337 1.624841 -12.255780
v 2.441337 1.810701 -12.262820
v 2.441337 1.807885 -12.085408
v 2.441337 1.872654 -11.954461
v 2.441337 1.920527 -11.896731
v 2.441337 2.162708 -11.846042
v 2.441337 2.112019 -11.847449
v 2.441337 2.076818 -11.831962
v 2.441337 2.003601 -11.796762
vn -1.0000 -0.0000 -0.0000
vn 1.0000 -0.0000 -0.0000
vn -0.0000 0.8724 0.4888
vn -0.0000 0.6525 0.7578
vn -0.0000 0.5603 0.8283
vn -0.0000 0.5118 0.8591
vn -0.0000 -0.0434 0.9991
vn -0.0000 -0.8214 0.5704
vn -0.0000 -0.6485 0.7612
vn -0.0000 -0.4741 0.8805
vn -0.0000 -0.9959 0.0905
vn -0.0000 0.0688 0.9976
vn -0.0000 0.9959 0.0905
vn -0.0000 0.3511 0.9363
vn -0.0000 -0.0611 0.9981
vn -0.0000 0.2474 0.9689
vn -0.0000 -0.0712 0.9975
vn -0.0000 0.2425 0.9701
vn -0.0000 0.9986 -0.0526
vn -0.0000 0.9379 -0.3470
vn -0.0000 0.1843 -0.9829
vn -0.0000 -0.0611 -0.9981
vn -0.0000 -0.8575 -0.5145
vn -0.0000 -0.6805 -0.7328
vn -0.0000 -0.2425 -0.9701
vn -0.0000 0.9693 -0.2457
vn -0.0000 -0.0000 -1.0000
vn -0.0000 -0.6195 -0.7850
vn -0.0000 0.0476 -0.9989
vn -0.0000 -0.1961 -0.9806
vn -0.0000 -0.9991 -0.0422
vn -0.0000 0.0379 0.9993
vn -0.0000 -0.9999 -0.0159
vn -0.0000 -0.8963 0.4434
vn -0.0000 -0.7698 0.6383
vn -0.0000 -0.7691 0.6391
vn -0.0000 -0.0278 0.9996
vn -0.0000 0.4027 0.9153
vn -0.0000 0.4333 0.9013
vt 0.000000 0.000000
s 0
f 14/1/1 18/1/1 21/1/1
f 54/1/2 49/1/2 45/1/2
f 34/1/3 38/1/3 1/1/3
f 1/1/4 39/1/4 2/1/4
f 2/1/5 40/1/5 3/1/5
f 3/1/6 41/1/6 4/1/6
f 4/1/7 42/1/7 5/1/7
f 5/1/8 43/1/8 6/1/8
f 6/1/9 44/1/9 7/1/9
f 7/1/10 45/1/10 8/1/10
f 8/1/11 46/1/11 9/1/11
f 9/1/12 47/1/12 10/1/12
f 10/1/13 48/1/13 11/1/13
f 11/1/14 49/1/14 12/1/14
f 12/1/15 50/1/15 13/1/15
f 13/1/16 51/1/16 14/1/16
f 14/1/17 52/1/17 15/1/17
f 15/1/18 53/1/18 16/1/18
f 16/1/19 54/1/19 17/1/19
f 17/1/20 55/1/20 18/1/20
f 18/1/21 56/1/21 19/1/21
f 19/1/22 57/1/22 20/1/22
f 20/1/23 58/1/23 21/1/23
f 21/1/24 59/1/24 22/1/24
f 22/1/25 60/1/25 23/1/25
f 23/1/26 61/1/26 24/1/26
f 24/1/27 62/1/27 25/1/27
f 25/1/28 63/1/28 26/1/28
f 26/1/29 64/1/29 27/1/29
f 27/1/30 65/1/30 28/1/30
f 28/1/31 66/1/31 29/1/31
f 29/1/32 67/1/32 30/1/32
f 30/1/33 68/1/33 31/1/33
f 31/1/34 69/1/34 32/1/34
f 32/1/35 70/1/35 33/1/35
f 33/1/36 74/1/36 37/1/36
f 35/1/37 71/1/37 34/1/37
f 36/1/38 72/1/38 35/1/38
f 37/1/39 73/1/39 36/1/39
f 35/1/1 34/1/1 1/1/1
f 36/1/1 35/1/1 1/1/1
f 33/1/1 37/1/1 36/1/1
f 31/1/1 32/1/1 33/1/1
f 28/1/1 29/1/1 30/1/1
f 30/1/1 31/1/1 33/1/1
f 33/1/1 36/1/1 1/1/1
f 33/1/1 1/1/1 2/1/1
f 27/1/1 28/1/1 30/1/1
f 30/1/1 33/1/1 2/1/1
f 30/1/1 2/1/1 3/1/1
f 26/1/1 27/1/1 30/1/1
f 24/1/1 25/1/1 26/1/1
f 23/1/1 24/1/1 26/1/1
f 26/1/1 30/1/1 3/1/1
f 26/1/1 3/1/1 4/1/1
f 23/1/1 26/1/1 4/1/1
f 5/1/1 6/1/1 7/1/1
f 23/1/1 4/1/1 5/1/1
f 22/1/1 23/1/1 5/1/1
f 5/1/1 7/1/1 8/1/1
f 8/1/1 9/1/1 10/1/1
f 8/1/1 10/1/1 11/1/1
f 22/1/1 5/1/1 8/1/1
f 19/1/1 20/1/1 21/1/1
f 21/1/1 22/1/1 8/1/1
f 8/1/1 11/1/1 12/1/1
f 12/1/1 13/1/1 14/1/1
f 14/1/1 15/1/1 16/1/1
f 16/1/1 17/1/1 18/1/1
f 18/1/1 19/1/1 21/1/1
f 21/1/1 8/1/1 12/1/1
f 14/1/1 16/1/1 18/1/1
f 21/1/1 12/1/1 14/1/1
f 73/1/2 74/1/2 70/1/2
f 70/1/2 69/1/2 68/1/2
f 67/1/2 66/1/2 65/1/2
f 70/1/2 68/1/2 67/1/2
f 72/1/2 73/1/2 70/1/2
f 38/1/2 71/1/2 72/1/2
f 38/1/2 72/1/2 70/1/2
f 67/1/2 65/1/2 64/1/2
f 38/1/2 70/1/2 67/1/2
f 39/1/2 38/1/2 67/1/2
f 67/1/2 64/1/2 63/1/2
f 63/1/2 62/1/2 61/1/2
f 63/1/2 61/1/2 60/1/2
f 39/1/2 67/1/2 63/1/2
f 40/1/2 39/1/2 63/1/2
f 40/1/2 63/1/2 60/1/2
f 41/1/2 40/1/2 60/1/2
f 41/1/2 60/1/2 59/1/2
f 44/1/2 43/1/2 42/1/2
f 42/1/2 41/1/2 59/1/2
f 58/1/2 57/1/2 56/1/2
f 44/1/2 42/1/2 59/1/2
f 59/1/2 58/1/2 56/1/2
f 56/1/2 55/1/2 54/1/2
f 54/1/2 53/1/2 52/1/2
f 51/1/2 50/1/2 49/1/2
f 54/1/2 52/1/2 51/1/2
f 59/1/2 56/1/2 54/1/2
f 45/1/2 44/1/2 59/1/2
f 47/1/2 46/1/2 45/1/2
f 48/1/2 47/1/2 45/1/2
f 45/1/2 59/1/2 54/1/2
f 54/1/2 51/1/2 49/1/2
f 49/1/2 48/1/2 45/1/2
f 34/1/3 71/1/3 38/1/3
f 1/1/4 38/1/4 39/1/4
f 2/1/5 39/1/5 40/1/5
f 3/1/6 40/1/6 41/1/6
f 4/1/7 41/1/7 42/1/7
f 5/1/8 42/1/8 43/1/8
f 6/1/9 43/1/9 44/1/9
f 7/1/10 44/1/10 45/1/10
f 8/1/11 45/1/11 46/1/11
f 9/1/12 46/1/12 47/1/12
f 10/1/13 47/1/13 48/1/13
f 11/1/14 48/1/14 49/1/14
f 12/1/15 49/1/15 50/1/15
f 13/1/16 50/1/16 51/1/16
f 14/1/17 51/1/17 52/1/17
f 15/1/18 52/1/18 53/1/18
f 16/1/19 53/1/19 54/1/19
f 17/1/20 54/1/20 55/1/20
f 18/1/21 55/1/21 56/1/21
f 19/1/22 56/1/22 57/1/22
f 20/1/23 57/1/23 58/1/23
f 21/1/24 58/1/24 59/1/24
f 22/1/25 59/1/25 60/1/25
f 23/1/26 60/1/26 61/1/26
f 24/1/27 61/1/27 62/1/27
f 25/1/28 62/1/28 63/1/28
f 26/1/29 63/1/29 64/1/29
f 27/1/30 64/1/30 65/1/30
f 28/1/31 65/1/31 66/1/31
f 29/1/32 66/1/32 67/1/32
f 30/1/33 67/1/33 68/1/33
f 31/1/34 68/1/34 69/1/34
f 32/1/35 69/1/35 70/1/35
f 33/1/36 70/1/36 74/1/36
f 35/1/37 72/1/37 71/1/37
f 36/1/38 73/1/38 72/1/38
f 37/1/39 74/1/39 73/1/39
