# Blender 5.2.0 LTS
# www.blender.org
mtllib New York.mtl
o Plane.018
v 1.441337 3.372151 -9.153020
v 1.441337 3.790032 -11.363547
v 1.441337 3.783976 -11.569459
v 1.441337 3.665879 -11.696639
v 1.441337 3.568979 -11.745090
v 1.441337 3.496305 -11.823821
v 1.441337 3.478136 -11.893468
v 1.441337 3.423630 -11.923749
v 1.441337 3.421066 -11.972465
v 1.441337 3.231330 -12.485265
v 1.441337 3.190306 -12.492957
v 1.441337 2.939034 -12.477572
v 1.441337 3.846031 -9.415486
v 1.441337 3.731825 -9.378778
v 1.441337 3.642091 -9.256413
v 1.441337 3.499332 -9.113654
v 1.441337 5.110465 -10.806363
v 1.441337 5.024810 -10.794127
v 1.441337 4.992179 -10.826758
v 1.441337 4.926918 -10.871625
v 1.441337 4.820869 -10.838994
v 1.441337 4.812712 -10.785970
v 1.441337 4.808633 -10.716630
v 1.441337 4.641401 -10.577950
v 1.441337 4.567983 -10.529004
v 1.441337 4.559825 -10.341378
v 1.441337 4.461933 -10.251645
v 1.441337 4.461933 -10.186383
v 1.441337 4.490484 -10.112964
v 1.441337 4.523115 -9.953889
v 1.441337 4.494563 -9.843760
v 1.441337 4.474170 -9.701001
v 1.441337 4.461933 -9.533771
v 1.441337 4.408908 -9.464431
v 1.441337 4.380357 -9.362460
v 1.441337 4.335489 -9.362460
v 1.441337 4.200889 -9.370618
v 1.441337 4.160100 -9.423642
v 1.441337 4.045894 -9.529691
v 1.441337 3.956159 -9.525613
v 1.441337 3.919450 -9.419564
v 1.441337 5.139016 -10.818599
v 1.441337 5.163489 -10.741101
v 1.441337 5.216514 -10.716628
v 1.441337 5.281716 -10.671184
v 1.441337 5.368652 -10.710700
v 1.441337 5.510911 -10.864814
v 1.441337 5.546476 -10.908282
v 1.441337 5.617606 -10.900378
v 1.441337 6.022650 -11.275784
v 1.441337 6.089828 -11.388406
v 1.441337 6.243196 -12.066947
v 1.441337 5.933738 -12.129338
v 1.441337 5.858656 -12.206395
v 1.441337 5.504984 -12.196517
v 1.441337 5.335063 -12.311114
v 1.441337 5.271837 -12.243936
v 1.441337 5.222442 -12.239984
v 1.441337 5.196755 -12.297282
v 1.441337 5.198731 -12.358533
v 1.441337 4.967561 -12.465228
v 1.441337 4.622756 -12.469487
v 1.441337 4.064713 -12.510015
v 1.441337 3.787251 -12.591071
v 1.441337 3.335205 -12.578601
v 1.441337 3.154387 -12.584836
v 1.441337 3.151269 -12.634717
v 1.441337 3.288442 -12.734479
v 1.441337 3.275972 -12.912179
v 1.441337 3.322735 -12.999471
v 1.441337 3.447437 -13.233287
v 1.441337 3.519141 -13.292520
v 1.441337 3.556552 -13.320577
v 1.441337 3.509789 -13.420339
v 1.441337 3.466143 -13.445279
v 1.441337 3.394439 -13.429692
v 1.441337 3.188680 -13.105466
v 1.441337 3.039037 -12.852944
v 1.441337 2.933040 -12.631598
v 2.441337 3.372151 -9.153020
v 2.441337 3.790032 -11.363547
v 2.441337 3.783976 -11.569459
v 2.441337 3.665879 -11.696639
v 2.441337 3.568979 -11.745090
v 2.441337 3.496305 -11.823821
v 2.441337 3.478136 -11.893468
v 2.441337 3.423630 -11.923749
v 2.441337 3.421066 -11.972465
v 2.441337 3.231330 -12.485265
v 2.441337 3.190306 -12.492957
v 2.441337 2.939034 -12.477572
v 2.441337 3.846031 -9.415486
v 2.441337 3.731825 -9.378778
v 2.441337 3.642091 -9.256413
v 2.441337 3.499332 -9.113654
v 2.441337 5.110465 -10.806363
v 2.441337 5.024810 -10.794127
v 2.441337 4.992179 -10.826758
v 2.441337 4.926918 -10.871625
v 2.441337 4.820869 -10.838994
v 2.441337 4.812712 -10.785970
v 2.441337 4.808633 -10.716630
v 2.441337 4.641401 -10.577950
v 2.441337 4.567983 -10.529004
v 2.441337 4.559825 -10.341378
v 2.441337 4.461933 -10.251645
v 2.441337 4.461933 -10.186383
v 2.441337 4.490484 -10.112964
v 2.441337 4.523115 -9.953889
v 2.441337 4.494563 -9.843760
v 2.441337 4.474170 -9.701001
v 2.441337 4.461933 -9.533771
v 2.441337 4.408908 -9.464431
v 2.441337 4.380357 -9.362460
v 2.441337 4.335489 -9.362460
v 2.441337 4.200889 -9.370618
v 2.441337 4.160100 -9.423642
v 2.441337 4.045894 -9.529691
v 2.441337 3.956159 -9.525613
v 2.441337 3.919450 -9.419564
v 2.441337 5.139016 -10.818599
v 2.441337 5.163489 -10.741101
v 2.441337 5.216514 -10.716628
v 2.441337 5.281716 -10.671184
v 2.441337 5.368652 -10.710700
v 2.441337 5.510911 -10.864814
v 2.441337 5.546476 -10.908282
v 2.441337 5.617606 -10.900378
v 2.441337 6.022650 -11.275784
v 2.441337 6.089828 -11.388406
v 2.441337 6.243196 -12.066947
v 2.441337 5.933738 -12.129338
v 2.441337 5.858656 -12.206395
v 2.441337 5.504984 -12.196517
v 2.441337 5.335063 -12.311114
v 2.441337 5.271837 -12.243936
v 2.441337 5.222442 -12.239984
v 2.441337 5.196755 -12.297282
v 2.441337 5.198731 -12.358533
v 2.441337 4.967561 -12.465228
v 2.441337 4.622756 -12.469487
v 2.441337 4.064713 -12.510015
v 2.441337 3.787251 -12.591071
v 2.441337 3.335205 -12.578601
v 2.441337 3.154387 -12.584836
v 2.441337 3.151269 -12.634717
v 2.441337 3.288442 -12.734479
v 2.441337 3.275972 -12.912179
v 2.441337 3.322735 -12.999471
v 2.441337 3.447437 -13.233287
v 2.441337 3.519141 -13.292520
v 2.441337 3.556552 -13.320577
v 2.441337 3.509789 -13.420339
v 2.441337 3.466143 -13.445279
v 2.441337 3.394439 -13.429692
v 2.441337 3.188680 -13.105466
v 2.441337 3.039037 -12.852944
v 2.441337 2.933040 -12.631598
vn -1.0000 -0.0000 -0.0000
vn 1.0000 -0.0000 -0.0000
vn -0.0000 0.7071 0.7071
vn -0.0000 -0.2957 0.9553
vn -0.0000 -0.9826 -0.1858
vn -0.0000 -0.9996 0.0294
vn -0.0000 -0.7328 0.6805
vn -0.0000 -0.4472 0.8944
vn -0.0000 -0.7348 0.6783
vn -0.0000 -0.9676 0.2524
vn -0.0000 -0.4856 0.8742
vn -0.0000 -0.9986 0.0526
vn -0.0000 -0.9379 0.3470
vn -0.0000 -0.1843 0.9829
vn -0.0000 0.0611 0.9981
vn -0.0000 -0.7926 0.6097
vn -0.0000 -0.6804 0.7328
vn -0.0000 0.0454 0.9990
vn -0.0000 0.9450 0.3271
vn -0.0000 0.0555 0.9985
vn -0.0000 0.3060 0.9520
vn -0.0000 0.8064 0.5914
vn -0.0000 0.7740 0.6332
vn -0.0000 0.7348 0.6783
vn -0.0000 0.4138 0.9104
vn -0.0000 -0.5718 0.8204
vn -0.0000 -0.4191 0.9080
vn -0.0000 -0.9536 0.3011
vn -0.0000 0.3939 0.9192
vn -0.0000 0.1414 0.9900
vn -0.0000 -0.7071 0.7071
vn -0.0000 -0.5665 0.8240
vn -0.0000 0.2941 0.9558
vn -0.0000 0.9884 0.1521
vn -0.0000 0.9983 0.0587
vn -0.0000 0.6383 0.7698
vn -0.0000 0.5547 0.8320
vn -0.0000 0.9991 0.0434
vn -0.0000 0.6757 0.7372
vn -0.0000 1.0000 -0.0000
vn -0.0000 0.9320 -0.3624
vn -0.0000 0.9796 -0.2009
vn -0.0000 0.9680 0.2510
vn -0.0000 0.9899 0.1414
vn -0.0000 0.9973 0.0730
vn -0.0000 0.7944 0.6074
vn -0.0000 0.9630 0.2696
vn -0.0000 -0.0000 1.0000
vn -0.0000 -0.0605 0.9982
vn -0.0000 -0.1104 0.9939
vn -0.0000 0.6798 0.7334
vn -0.0000 0.8588 0.5123
vn -0.0000 0.9754 0.2205
vn -0.0000 0.1976 -0.9803
vn -0.0000 0.7162 -0.6979
vn -0.0000 -0.0279 -0.9996
vn -0.0000 0.5591 -0.8291
vn -0.0000 -0.7282 -0.6854
vn -0.0000 -0.0798 -0.9968
vn -0.0000 0.9125 -0.4091
vn -0.0000 0.9995 0.0322
vn -0.0000 0.4191 -0.9080
vn -0.0000 0.0124 -0.9999
vn -0.0000 0.0724 -0.9974
vn -0.0000 0.2804 -0.9599
vn -0.0000 -0.0276 -0.9996
vn -0.0000 0.0345 -0.9994
vn -0.0000 0.9981 -0.0624
vn -0.0000 0.5882 0.8087
vn -0.0000 0.9975 -0.0700
vn -0.0000 0.8815 0.4722
vn -0.0000 0.8824 0.4706
vn -0.0000 0.6369 0.7710
vn -0.0000 0.6000 0.8000
vn -0.0000 0.9055 -0.4244
vn -0.0000 0.4961 -0.8682
vn -0.0000 -0.2124 -0.9772
vn -0.0000 -0.8443 -0.5358
vn -0.0000 -0.8603 -0.5098
vn -0.0000 -0.9019 -0.4319
vn -0.0000 -0.9992 0.0389
vn -1.0000 0.0012 -0.0000
vn 1.0000 0.0006 -0.0000
vn -0.0000 -0.6805 0.7328
vn -0.0000 0.9900 0.1414
vn -0.0000 0.7944 0.6075
vt 0.000000 0.000000
s 0
f 2/1/1 28/1/1 27/1/1
f 127/1/2 121/1/2 98/1/2
f 16/1/3 94/1/3 15/1/3
f 1/1/4 95/1/4 16/1/4
f 2/1/5 80/1/5 1/1/5
f 3/1/6 81/1/6 2/1/6
f 4/1/7 82/1/7 3/1/7
f 5/1/8 83/1/8 4/1/8
f 6/1/9 84/1/9 5/1/9
f 7/1/10 85/1/10 6/1/10
f 8/1/11 86/1/11 7/1/11
f 9/1/12 87/1/12 8/1/12
f 10/1/13 88/1/13 9/1/13
f 11/1/14 89/1/14 10/1/14
f 12/1/15 90/1/15 11/1/15
f 38/1/16 116/1/16 37/1/16
f 39/1/17 117/1/17 38/1/17
f 40/1/18 118/1/18 39/1/18
f 41/1/19 119/1/19 40/1/19
f 13/1/20 120/1/20 41/1/20
f 14/1/21 92/1/21 13/1/21
f 15/1/22 93/1/22 14/1/22
f 47/1/23 127/1/23 48/1/23
f 46/1/24 126/1/24 47/1/24
f 45/1/25 125/1/25 46/1/25
f 44/1/26 124/1/26 45/1/26
f 43/1/27 123/1/27 44/1/27
f 42/1/28 122/1/28 43/1/28
f 17/1/29 121/1/29 42/1/29
f 18/1/30 96/1/30 17/1/30
f 19/1/31 97/1/31 18/1/31
f 20/1/32 98/1/32 19/1/32
f 21/1/33 99/1/33 20/1/33
f 22/1/34 100/1/34 21/1/34
f 23/1/35 101/1/35 22/1/35
f 24/1/36 102/1/36 23/1/36
f 25/1/37 103/1/37 24/1/37
f 26/1/38 104/1/38 25/1/38
f 27/1/39 105/1/39 26/1/39
f 28/1/40 106/1/40 27/1/40
f 29/1/41 107/1/41 28/1/41
f 30/1/42 108/1/42 29/1/42
f 31/1/43 109/1/43 30/1/43
f 32/1/44 110/1/44 31/1/44
f 33/1/45 111/1/45 32/1/45
f 34/1/46 112/1/46 33/1/46
f 35/1/47 113/1/47 34/1/47
f 36/1/48 114/1/48 35/1/48
f 37/1/49 115/1/49 36/1/49
f 48/1/50 128/1/50 49/1/50
f 49/1/51 129/1/51 50/1/51
f 50/1/52 130/1/52 51/1/52
f 51/1/53 131/1/53 52/1/53
f 52/1/54 132/1/54 53/1/54
f 53/1/55 133/1/55 54/1/55
f 54/1/56 134/1/56 55/1/56
f 55/1/57 135/1/57 56/1/57
f 56/1/58 136/1/58 57/1/58
f 57/1/59 137/1/59 58/1/59
f 58/1/60 138/1/60 59/1/60
f 59/1/61 139/1/61 60/1/61
f 60/1/62 140/1/62 61/1/62
f 61/1/63 141/1/63 62/1/63
f 62/1/64 142/1/64 63/1/64
f 63/1/65 143/1/65 64/1/65
f 64/1/66 144/1/66 65/1/66
f 65/1/67 145/1/67 66/1/67
f 66/1/68 146/1/68 67/1/68
f 67/1/69 147/1/69 68/1/69
f 68/1/70 148/1/70 69/1/70
f 69/1/71 149/1/71 70/1/71
f 70/1/72 150/1/72 71/1/72
f 71/1/73 151/1/73 72/1/73
f 72/1/74 152/1/74 73/1/74
f 73/1/75 153/1/75 74/1/75
f 74/1/76 154/1/76 75/1/76
f 75/1/77 155/1/77 76/1/77
f 76/1/78 156/1/78 77/1/78
f 77/1/79 157/1/79 78/1/79
f 78/1/80 158/1/80 79/1/80
f 79/1/81 91/1/81 12/1/81
f 79/1/1 12/1/1 11/1/1
f 79/1/1 11/1/1 10/1/1
f 77/1/1 78/1/1 79/1/1
f 75/1/1 76/1/1 77/1/1
f 73/1/1 74/1/1 75/1/1
f 72/1/1 73/1/1 75/1/1
f 75/1/1 77/1/1 79/1/1
f 71/1/1 72/1/1 75/1/1
f 69/1/82 70/1/82 71/1/82
f 67/1/1 68/1/1 69/1/1
f 69/1/1 71/1/1 75/1/1
f 9/1/1 8/1/1 7/1/1
f 7/1/1 6/1/1 5/1/1
f 7/1/1 5/1/1 4/1/1
f 10/1/1 9/1/1 7/1/1
f 69/1/1 75/1/1 79/1/1
f 67/1/1 69/1/1 79/1/1
f 10/1/1 7/1/1 4/1/1
f 66/1/1 67/1/1 79/1/1
f 63/1/1 64/1/1 65/1/1
f 66/1/1 79/1/1 10/1/1
f 63/1/1 65/1/1 66/1/1
f 60/1/1 61/1/1 62/1/1
f 63/1/1 66/1/1 10/1/1
f 60/1/1 62/1/1 63/1/1
f 59/1/1 60/1/1 63/1/1
f 63/1/1 10/1/1 4/1/1
f 63/1/1 4/1/1 3/1/1
f 58/1/1 59/1/1 63/1/1
f 55/1/1 56/1/1 57/1/1
f 58/1/1 63/1/1 3/1/1
f 55/1/1 57/1/1 58/1/1
f 53/1/1 54/1/1 55/1/1
f 51/1/1 52/1/1 53/1/1
f 49/1/1 50/1/1 51/1/1
f 46/1/1 47/1/1 48/1/1
f 48/1/1 49/1/1 51/1/1
f 51/1/1 53/1/1 55/1/1
f 55/1/1 58/1/1 3/1/1
f 2/1/1 1/1/1 16/1/1
f 55/1/1 3/1/1 2/1/1
f 48/1/1 51/1/1 55/1/1
f 45/1/1 46/1/1 48/1/1
f 42/1/1 43/1/1 44/1/1
f 44/1/1 45/1/1 48/1/1
f 48/1/1 55/1/1 2/1/1
f 2/1/1 16/1/1 15/1/1
f 2/1/1 15/1/1 14/1/1
f 42/1/1 44/1/1 48/1/1
f 18/1/1 17/1/1 42/1/1
f 19/1/1 18/1/1 42/1/1
f 42/1/1 48/1/1 2/1/1
f 2/1/1 14/1/1 13/1/1
f 13/1/1 41/1/1 40/1/1
f 2/1/1 13/1/1 40/1/1
f 20/1/1 19/1/1 42/1/1
f 20/1/1 42/1/1 2/1/1
f 2/1/1 40/1/1 39/1/1
f 38/1/1 37/1/1 36/1/1
f 2/1/1 39/1/1 38/1/1
f 21/1/1 20/1/1 2/1/1
f 24/1/1 23/1/1 22/1/1
f 22/1/1 21/1/1 2/1/1
f 2/1/1 38/1/1 36/1/1
f 36/1/1 35/1/1 34/1/1
f 34/1/1 33/1/1 32/1/1
f 31/1/1 30/1/1 29/1/1
f 34/1/1 32/1/1 31/1/1
f 2/1/1 36/1/1 34/1/1
f 24/1/1 22/1/1 2/1/1
f 27/1/1 26/1/1 25/1/1
f 25/1/1 24/1/1 2/1/1
f 2/1/1 34/1/1 31/1/1
f 31/1/1 29/1/1 28/1/1
f 27/1/1 25/1/1 2/1/1
f 2/1/1 31/1/1 28/1/1
f 90/1/2 91/1/2 158/1/2
f 158/1/2 157/1/2 156/1/2
f 156/1/2 155/1/2 154/1/2
f 154/1/2 153/1/2 152/1/2
f 154/1/2 152/1/2 151/1/2
f 158/1/2 156/1/2 154/1/2
f 89/1/2 90/1/2 158/1/2
f 86/1/2 87/1/2 88/1/2
f 86/1/2 88/1/2 89/1/2
f 84/1/2 85/1/2 86/1/2
f 83/1/2 84/1/2 86/1/2
f 83/1/2 86/1/2 89/1/2
f 82/1/2 83/1/2 89/1/2
f 154/1/2 151/1/2 150/1/2
f 150/1/83 149/1/83 148/1/83
f 148/1/2 147/1/2 146/1/2
f 154/1/2 150/1/2 148/1/2
f 95/1/2 80/1/2 81/1/2
f 93/1/2 94/1/2 95/1/2
f 119/1/2 120/1/2 92/1/2
f 93/1/2 95/1/2 81/1/2
f 119/1/2 92/1/2 93/1/2
f 119/1/2 93/1/2 81/1/2
f 119/1/2 81/1/2 82/1/2
f 118/1/2 119/1/2 82/1/2
f 117/1/2 118/1/2 82/1/2
f 115/1/2 116/1/2 117/1/2
f 113/1/2 114/1/2 115/1/2
f 111/1/2 112/1/2 113/1/2
f 108/1/2 109/1/2 110/1/2
f 110/1/2 111/1/2 113/1/2
f 113/1/2 115/1/2 117/1/2
f 113/1/2 117/1/2 82/1/2
f 108/1/2 110/1/2 113/1/2
f 107/1/2 108/1/2 113/1/2
f 107/1/2 113/1/2 82/1/2
f 104/1/2 105/1/2 106/1/2
f 106/1/2 107/1/2 82/1/2
f 104/1/2 106/1/2 82/1/2
f 102/1/2 103/1/2 104/1/2
f 101/1/2 102/1/2 104/1/2
f 104/1/2 82/1/2 89/1/2
f 158/1/2 154/1/2 148/1/2
f 158/1/2 148/1/2 146/1/2
f 101/1/2 104/1/2 89/1/2
f 158/1/2 146/1/2 145/1/2
f 144/1/2 143/1/2 142/1/2
f 89/1/2 158/1/2 145/1/2
f 145/1/2 144/1/2 142/1/2
f 141/1/2 140/1/2 139/1/2
f 89/1/2 145/1/2 142/1/2
f 142/1/2 141/1/2 139/1/2
f 142/1/2 139/1/2 138/1/2
f 101/1/2 89/1/2 142/1/2
f 100/1/2 101/1/2 142/1/2
f 142/1/2 138/1/2 137/1/2
f 136/1/2 135/1/2 134/1/2
f 100/1/2 142/1/2 137/1/2
f 137/1/2 136/1/2 134/1/2
f 134/1/2 133/1/2 132/1/2
f 132/1/2 131/1/2 130/1/2
f 130/1/2 129/1/2 128/1/2
f 127/1/2 126/1/2 125/1/2
f 130/1/2 128/1/2 127/1/2
f 134/1/2 132/1/2 130/1/2
f 100/1/2 137/1/2 134/1/2
f 99/1/2 100/1/2 134/1/2
f 134/1/2 130/1/2 127/1/2
f 127/1/2 125/1/2 124/1/2
f 123/1/2 122/1/2 121/1/2
f 127/1/2 124/1/2 123/1/2
f 99/1/2 134/1/2 127/1/2
f 96/1/2 97/1/2 98/1/2
f 98/1/2 99/1/2 127/1/2
f 127/1/2 123/1/2 121/1/2
f 121/1/2 96/1/2 98/1/2
f 16/1/3 95/1/3 94/1/3
f 1/1/4 80/1/4 95/1/4
f 2/1/5 81/1/5 80/1/5
f 3/1/6 82/1/6 81/1/6
f 4/1/7 83/1/7 82/1/7
f 5/1/8 84/1/8 83/1/8
f 6/1/9 85/1/9 84/1/9
f 7/1/10 86/1/10 85/1/10
f 8/1/11 87/1/11 86/1/11
f 9/1/12 88/1/12 87/1/12
f 10/1/13 89/1/13 88/1/13
f 11/1/14 90/1/14 89/1/14
f 12/1/15 91/1/15 90/1/15
f 38/1/16 117/1/16 116/1/16
f 39/1/84 118/1/84 117/1/84
f 40/1/18 119/1/18 118/1/18
f 41/1/19 120/1/19 119/1/19
f 13/1/20 92/1/20 120/1/20
f 14/1/21 93/1/21 92/1/21
f 15/1/22 94/1/22 93/1/22
f 47/1/23 126/1/23 127/1/23
f 46/1/24 125/1/24 126/1/24
f 45/1/25 124/1/25 125/1/25
f 44/1/26 123/1/26 124/1/26
f 43/1/27 122/1/27 123/1/27
f 42/1/28 121/1/28 122/1/28
f 17/1/29 96/1/29 121/1/29
f 18/1/30 97/1/30 96/1/30
f 19/1/31 98/1/31 97/1/31
f 20/1/32 99/1/32 98/1/32
f 21/1/33 100/1/33 99/1/33
f 22/1/34 101/1/34 100/1/34
f 23/1/35 102/1/35 101/1/35
f 24/1/36 103/1/36 102/1/36
f 25/1/37 104/1/37 103/1/37
f 26/1/38 105/1/38 104/1/38
f 27/1/39 106/1/39 105/1/39
f 28/1/40 107/1/40 106/1/40
f 29/1/41 108/1/41 107/1/41
f 30/1/42 109/1/42 108/1/42
f 31/1/43 110/1/43 109/1/43
f 32/1/85 111/1/85 110/1/85
f 33/1/45 112/1/45 111/1/45
f 34/1/86 113/1/86 112/1/86
f 35/1/47 114/1/47 113/1/47
f 36/1/48 115/1/48 114/1/48
f 37/1/49 116/1/49 115/1/49
f 48/1/50 127/1/50 128/1/50
f 49/1/51 128/1/51 129/1/51
f 50/1/52 129/1/52 130/1/52
f 51/1/53 130/1/53 131/1/53
f 52/1/54 131/1/54 132/1/54
f 53/1/55 132/1/55 133/1/55
f 54/1/56 133/1/56 134/1/56
f 55/1/57 134/1/57 135/1/57
f 56/1/58 135/1/58 136/1/58
f 57/1/59 136/1/59 137/1/59
f 58/1/60 137/1/60 138/1/60
f 59/1/61 138/1/61 139/1/61
f 60/1/62 139/1/62 140/1/62
f 61/1/63 140/1/63 141/1/63
f 62/1/64 141/1/64 142/1/64
f 63/1/65 142/1/65 143/1/65
f 64/1/66 143/1/66 144/1/66
f 65/1/67 144/1/67 145/1/67
f 66/1/68 145/1/68 146/1/68
f 67/1/69 146/1/69 147/1/69
f 68/1/70 147/1/70 148/1/70
f 69/1/71 148/1/71 149/1/71
f 70/1/72 149/1/72 150/1/72
f 71/1/73 150/1/73 151/1/73
f 72/1/74 151/1/74 152/1/74
f 73/1/75 152/1/75 153/1/75
f 74/1/76 153/1/76 154/1/76
f 75/1/77 154/1/77 155/1/77
f 76/1/78 155/1/78 156/1/78
f 77/1/79 156/1/79 157/1/79
f 78/1/80 157/1/80 158/1/80
f 79/1/81 158/1/81 91/1/81
