# Blender 5.2.0 LTS
# www.blender.org
mtllib North Dakota.mtl
o Plane.037
v 1.441337 5.708601 3.968326
v 1.441337 7.925020 3.781023
v 1.441337 5.525679 0.095497
v 1.441337 5.584074 2.165718
v 1.441337 5.688828 3.696434
v 1.441337 5.783265 0.083789
v 1.441337 6.150131 0.204777
v 1.441337 6.556026 0.193069
v 1.441337 6.938502 0.271125
v 1.441337 7.063393 0.306251
v 1.441337 7.188283 0.376501
v 1.441337 7.391231 0.399918
v 1.441337 7.516121 0.396015
v 1.441337 7.566857 0.329667
v 1.441337 7.625400 0.341375
v 1.441337 7.656623 0.384307
v 1.441337 7.804931 0.388209
v 1.441337 7.801028 1.664434
v 1.441337 7.808834 2.484029
v 1.441337 7.847862 2.991397
v 1.441337 7.902502 3.635364
v 2.441337 5.708601 3.968326
v 2.441337 7.925020 3.781023
v 2.441337 5.525679 0.095497
v 2.441337 5.584074 2.165718
v 2.441337 5.688828 3.696434
v 2.441337 5.783265 0.083789
v 2.441337 6.150131 0.204777
v 2.441337 6.556026 0.193069
v 2.441337 6.938502 0.271125
v 2.441337 7.063393 0.306251
v 2.441337 7.188283 0.376501
v 2.441337 7.391231 0.399918
v 2.441337 7.516121 0.396015
v 2.441337 7.566857 0.329667
v 2.441337 7.625400 0.341375
v 2.441337 7.656623 0.384307
v 2.441337 7.804931 0.388209
v 2.441337 7.801028 1.664434
v 2.441337 7.808834 2.484029
v 2.441337 7.847862 2.991397
v 2.441337 7.902502 3.635364
vn -1.0000 -0.0000 -0.0000
vn 1.0000 -0.0000 -0.0000
vn -0.0000 0.0842 0.9964
vn -0.0000 -0.9996 0.0282
vn -0.0000 -0.9977 0.0683
vn -0.0000 -0.9974 0.0725
vn -0.0000 -0.0454 -0.9990
vn -0.0000 0.3132 -0.9497
vn -0.0000 -0.0288 -0.9996
vn -0.0000 0.2000 -0.9798
vn -0.0000 0.2707 -0.9627
vn -0.0000 0.4903 -0.8716
vn -0.0000 0.1146 -0.9934
vn -0.0000 -0.0312 -0.9995
vn -0.0000 -0.7944 -0.6075
vn -0.0000 0.1961 -0.9806
vn -0.0000 0.8087 -0.5882
vn -0.0000 0.0263 -0.9997
vn -0.0000 1.0000 0.0031
vn -0.0000 1.0000 -0.0095
vn -0.0000 0.9971 -0.0767
vn -0.0000 0.9964 -0.0845
vn -0.0000 0.9883 -0.1528
vn -1.0000 0.0001 -0.0000
vn -0.0000 -0.7944 -0.6074
vt 0.000000 0.000000
s 0
f 7/1/1 4/1/1 1/1/1
f 22/1/2 25/1/2 28/1/2
f 1/1/3 23/1/3 2/1/3
f 3/1/4 25/1/4 4/1/4
f 4/1/5 26/1/5 5/1/5
f 5/1/6 22/1/6 1/1/6
f 6/1/7 24/1/7 3/1/7
f 7/1/8 27/1/8 6/1/8
f 8/1/9 28/1/9 7/1/9
f 9/1/10 29/1/10 8/1/10
f 10/1/11 30/1/11 9/1/11
f 11/1/12 31/1/12 10/1/12
f 12/1/13 32/1/13 11/1/13
f 13/1/14 33/1/14 12/1/14
f 14/1/15 34/1/15 13/1/15
f 15/1/16 35/1/16 14/1/16
f 16/1/17 36/1/17 15/1/17
f 17/1/18 37/1/18 16/1/18
f 18/1/19 38/1/19 17/1/19
f 19/1/20 39/1/20 18/1/20
f 20/1/21 40/1/21 19/1/21
f 21/1/22 41/1/22 20/1/22
f 2/1/23 42/1/23 21/1/23
f 18/1/1 17/1/1 16/1/1
f 16/1/1 15/1/1 14/1/1
f 16/1/1 14/1/1 13/1/1
f 19/1/1 18/1/1 16/1/1
f 19/1/1 16/1/1 13/1/1
f 19/1/1 13/1/1 12/1/1
f 20/1/1 19/1/1 12/1/1
f 11/1/1 10/1/1 9/1/1
f 20/1/1 12/1/1 11/1/1
f 1/1/1 2/1/1 21/1/1
f 21/1/1 20/1/1 11/1/1
f 11/1/1 9/1/1 8/1/1
f 7/1/1 6/1/1 3/1/1
f 11/1/1 8/1/1 7/1/1
f 1/1/1 21/1/1 11/1/1
f 4/1/24 5/1/24 1/1/24
f 7/1/1 3/1/1 4/1/1
f 1/1/1 11/1/1 7/1/1
f 37/1/2 38/1/2 39/1/2
f 37/1/2 39/1/2 40/1/2
f 35/1/2 36/1/2 37/1/2
f 34/1/2 35/1/2 37/1/2
f 34/1/2 37/1/2 40/1/2
f 33/1/2 34/1/2 40/1/2
f 33/1/2 40/1/2 41/1/2
f 30/1/2 31/1/2 32/1/2
f 32/1/2 33/1/2 41/1/2
f 42/1/2 23/1/2 22/1/2
f 32/1/2 41/1/2 42/1/2
f 29/1/2 30/1/2 32/1/2
f 24/1/2 27/1/2 28/1/2
f 28/1/2 29/1/2 32/1/2
f 32/1/2 42/1/2 22/1/2
f 22/1/2 26/1/2 25/1/2
f 25/1/2 24/1/2 28/1/2
f 28/1/2 32/1/2 22/1/2
f 1/1/3 22/1/3 23/1/3
f 3/1/4 24/1/4 25/1/4
f 4/1/5 25/1/5 26/1/5
f 5/1/6 26/1/6 22/1/6
f 6/1/7 27/1/7 24/1/7
f 7/1/8 28/1/8 27/1/8
f 8/1/9 29/1/9 28/1/9
f 9/1/10 30/1/10 29/1/10
f 10/1/11 31/1/11 30/1/11
f 11/1/12 32/1/12 31/1/12
f 12/1/13 33/1/13 32/1/13
f 13/1/14 34/1/14 33/1/14
f 14/1/25 35/1/25 34/1/25
f 15/1/16 36/1/16 35/1/16
f 16/1/17 37/1/17 36/1/17
f 17/1/18 38/1/18 37/1/18
f 18/1/19 39/1/19 38/1/19
f 19/1/20 40/1/20 39/1/20
f 20/1/21 41/1/21 40/1/21
f 21/1/22 42/1/22 41/1/22
f 2/1/23 23/1/23 42/1/23
