# Blender 5.2.0 LTS
# www.blender.org
mtllib Oklahoma.mtl
o Plane.039
v 1.441337 -3.118196 2.045399
v 1.441337 -3.135152 2.015726
v 1.441337 -3.063090 1.969098
v 1.441337 -3.130913 1.947904
v 1.441337 -3.130913 1.863125
v 1.441337 -3.067329 1.799541
v 1.441337 -3.097001 1.765630
v 1.441337 -2.931684 2.257344
v 1.441337 -1.486632 2.184013
v 1.441337 -1.427254 3.928244
v 1.441337 -1.040209 3.326132
v 1.441337 -1.033368 3.941826
v 1.441337 -3.499699 0.332875
v 1.441337 -3.448832 0.358309
v 1.441337 -3.652300 0.464282
v 1.441337 -3.660778 0.515149
v 1.441337 -3.474265 0.794918
v 1.441337 -3.478504 0.811873
v 1.441337 -3.537849 0.883935
v 1.441337 -3.529371 1.002625
v 1.441337 -3.436115 1.036536
v 1.441337 -3.347098 1.108598
v 1.441337 -3.325903 1.223048
v 1.441337 -3.368292 1.303588
v 1.441337 -3.258080 1.583356
v 1.441337 -3.202974 1.740196
v 1.441337 -3.554805 0.286247
v 1.441337 -3.609910 0.036151
v 1.441337 -3.652300 -0.001999
v 1.441337 -3.639583 -0.065582
v 1.441337 -3.525132 -0.273289
v 1.441337 -3.537849 -0.502191
v 1.441337 -3.588716 -0.574252
v 1.441337 -3.478504 -0.705659
v 1.441337 -3.614150 -0.849782
v 1.441337 -3.656539 -0.981189
v 1.441337 -3.715883 -1.159224
v 1.441337 -1.532010 -1.054379
v 1.441337 -1.630431 -1.058164
v 1.441337 -2.262592 -1.133872
v 1.441337 -3.526915 -1.164155
v 1.441337 -1.145900 -1.039237
v 1.441337 -1.153470 1.050303
v 1.441337 -1.047479 3.158771
v 2.441336 -3.118196 2.045399
v 2.441336 -3.135151 2.015726
v 2.441336 -3.063090 1.969098
v 2.441336 -3.130912 1.947904
v 2.441336 -3.130912 1.863125
v 2.441336 -3.067328 1.799541
v 2.441336 -3.097001 1.765630
v 2.441336 -2.931683 2.257344
v 2.441337 -1.486632 2.184013
v 2.441337 -1.427254 3.928244
v 2.441337 -1.040209 3.326132
v 2.441337 -1.033368 3.941826
v 2.441336 -3.499698 0.332875
v 2.441336 -3.448831 0.358309
v 2.441336 -3.652299 0.464282
v 2.441336 -3.660777 0.515149
v 2.441336 -3.474265 0.794918
v 2.441336 -3.478504 0.811873
v 2.441336 -3.537848 0.883935
v 2.441336 -3.529371 1.002625
v 2.441336 -3.436114 1.036536
v 2.441336 -3.347097 1.108598
v 2.441336 -3.325902 1.223048
v 2.441336 -3.368292 1.303588
v 2.441336 -3.258080 1.583356
v 2.441336 -3.202974 1.740196
v 2.441336 -3.554804 0.286247
v 2.441336 -3.609910 0.036151
v 2.441336 -3.652299 -0.001999
v 2.441336 -3.639582 -0.065582
v 2.441336 -3.525132 -0.273289
v 2.441336 -3.537848 -0.502191
v 2.441336 -3.588716 -0.574252
v 2.441336 -3.478504 -0.705659
v 2.441336 -3.614149 -0.849782
v 2.441336 -3.656538 -0.981189
v 2.441336 -3.715883 -1.159224
v 2.441337 -1.532010 -1.054379
v 2.441337 -1.630430 -1.058164
v 2.441337 -2.262592 -1.133872
v 2.441336 -3.526915 -1.164155
v 2.441337 -1.145899 -1.039237
v 2.441337 -1.153470 1.050303
v 2.441337 -1.047479 3.158771
vn -1.0000 -0.0000 -0.0000
vn 1.0000 -0.0000 -0.0000
vn -0.0000 -0.8682 0.4961
vn -0.0000 -0.5433 -0.8396
vn -0.0000 -0.2983 0.9545
vn -0.0000 -1.0000 -0.0000
vn -0.0000 -0.7071 -0.7071
vn -0.0000 -0.7526 0.6585
vn -0.0000 -0.2334 0.9724
vn -0.0000 -0.9435 0.3315
vn -0.0000 -0.7507 0.6606
vn -0.0000 0.0507 0.9987
vn -0.0000 -0.9994 0.0340
vn -0.0000 -0.0345 0.9994
vn -0.0000 0.9999 -0.0111
vn -0.0000 -0.6690 0.7433
vn -0.0000 -0.9766 0.2152
vn -0.0000 -0.6459 0.7634
vn -0.0000 -0.4472 0.8944
vn -0.0000 -0.4619 -0.8869
vn -0.0000 -0.9864 -0.1644
vn -0.0000 -0.8321 0.5547
vn -0.0000 -0.9701 -0.2425
vn -0.0000 -0.7719 -0.6357
vn -0.0000 -0.9975 0.0712
vn -0.0000 -0.3417 0.9398
vn -0.0000 -0.6292 0.7772
vn -0.0000 -0.9833 0.1821
vn -0.0000 -0.8849 -0.4657
vn -0.0000 -0.9304 0.3665
vn -0.0000 -0.9806 -0.1961
vn -0.0000 -0.8758 -0.4826
vn -0.0000 -0.9985 0.0555
vn -0.0000 -0.8170 0.5767
vn -0.0000 -0.7662 -0.6426
vn -0.0000 -0.7282 0.6854
vn -0.0000 -0.9517 0.3070
vn -0.0000 -0.9487 0.3162
vn -0.0000 0.0384 -0.9993
vn -0.0000 0.1189 -0.9929
vn -0.0000 0.0239 -0.9997
vn -0.0000 -0.0261 -0.9997
vn -0.0000 0.0392 -0.9992
vn -0.0000 1.0000 0.0036
vn -0.0000 0.9987 -0.0502
vn -0.0000 0.9991 -0.0434
vn -1.0000 -0.0002 -0.0000
vn 1.0000 -0.0001 -0.0000
vt 0.000000 0.000000
s 0
f 18/1/1 22/1/1 9/1/1
f 66/1/2 65/1/2 58/1/2
f 2/1/3 45/1/3 1/1/3
f 3/1/4 46/1/4 2/1/4
f 4/1/5 47/1/5 3/1/5
f 5/1/6 48/1/6 4/1/6
f 6/1/7 49/1/7 5/1/7
f 7/1/8 50/1/8 6/1/8
f 7/1/9 70/1/9 51/1/9
f 25/1/10 70/1/10 26/1/10
f 1/1/11 52/1/11 8/1/11
f 9/1/12 52/1/12 53/1/12
f 9/1/13 54/1/13 10/1/13
f 12/1/14 54/1/14 56/1/14
f 12/1/15 55/1/15 11/1/15
f 29/1/16 72/1/16 28/1/16
f 28/1/17 71/1/17 27/1/17
f 13/1/18 71/1/18 57/1/18
f 14/1/19 57/1/19 58/1/19
f 14/1/20 59/1/20 15/1/20
f 15/1/21 60/1/21 16/1/21
f 16/1/22 61/1/22 17/1/22
f 17/1/23 62/1/23 18/1/23
f 18/1/24 63/1/24 19/1/24
f 19/1/25 64/1/25 20/1/25
f 20/1/26 65/1/26 21/1/26
f 22/1/27 65/1/27 66/1/27
f 22/1/28 67/1/28 23/1/28
f 23/1/29 68/1/29 24/1/29
f 24/1/30 69/1/30 25/1/30
f 30/1/31 73/1/31 29/1/31
f 31/1/32 74/1/32 30/1/32
f 32/1/33 75/1/33 31/1/33
f 33/1/34 76/1/34 32/1/34
f 34/1/35 77/1/35 33/1/35
f 35/1/36 78/1/36 34/1/36
f 35/1/37 80/1/37 79/1/37
f 37/1/38 80/1/38 36/1/38
f 38/1/39 83/1/39 39/1/39
f 39/1/40 84/1/40 40/1/40
f 40/1/41 85/1/41 41/1/41
f 41/1/42 81/1/42 37/1/42
f 42/1/43 82/1/43 38/1/43
f 43/1/44 86/1/44 42/1/44
f 44/1/45 87/1/45 43/1/45
f 11/1/46 88/1/46 44/1/46
f 10/1/1 12/1/1 11/1/1
f 11/1/47 44/1/47 43/1/47
f 43/1/1 42/1/1 38/1/1
f 39/1/1 40/1/1 41/1/1
f 43/1/1 38/1/1 39/1/1
f 10/1/1 11/1/1 43/1/1
f 1/1/1 8/1/1 9/1/1
f 9/1/1 10/1/1 43/1/1
f 43/1/1 39/1/1 41/1/1
f 41/1/1 37/1/1 36/1/1
f 36/1/1 35/1/1 34/1/1
f 34/1/1 33/1/1 32/1/1
f 31/1/1 30/1/1 29/1/1
f 34/1/1 32/1/1 31/1/1
f 41/1/1 36/1/1 34/1/1
f 9/1/1 43/1/1 41/1/1
f 2/1/1 1/1/1 9/1/1
f 5/1/1 4/1/1 3/1/1
f 3/1/1 2/1/1 9/1/1
f 9/1/1 41/1/1 34/1/1
f 31/1/1 29/1/1 28/1/1
f 9/1/1 34/1/1 31/1/1
f 5/1/1 3/1/1 9/1/1
f 6/1/1 5/1/1 9/1/1
f 9/1/1 31/1/1 28/1/1
f 28/1/1 27/1/1 13/1/1
f 14/1/1 15/1/1 16/1/1
f 28/1/1 13/1/1 14/1/1
f 7/1/1 6/1/1 9/1/1
f 25/1/1 26/1/1 7/1/1
f 23/1/1 24/1/1 25/1/1
f 22/1/1 23/1/1 25/1/1
f 25/1/1 7/1/1 9/1/1
f 9/1/1 28/1/1 14/1/1
f 14/1/1 16/1/1 17/1/1
f 18/1/1 19/1/1 20/1/1
f 9/1/1 14/1/1 17/1/1
f 18/1/1 20/1/1 21/1/1
f 9/1/1 17/1/1 18/1/1
f 22/1/1 25/1/1 9/1/1
f 18/1/1 21/1/1 22/1/1
f 55/1/2 56/1/2 54/1/2
f 53/1/2 52/1/2 45/1/2
f 55/1/2 54/1/2 53/1/2
f 87/1/48 88/1/48 55/1/48
f 82/1/2 86/1/2 87/1/2
f 85/1/2 84/1/2 83/1/2
f 83/1/2 82/1/2 87/1/2
f 87/1/2 55/1/2 53/1/2
f 53/1/2 45/1/2 46/1/2
f 47/1/2 48/1/2 49/1/2
f 53/1/2 46/1/2 47/1/2
f 83/1/2 87/1/2 53/1/2
f 81/1/2 85/1/2 83/1/2
f 78/1/2 79/1/2 80/1/2
f 80/1/2 81/1/2 83/1/2
f 83/1/2 53/1/2 47/1/2
f 47/1/2 49/1/2 50/1/2
f 51/1/2 70/1/2 69/1/2
f 83/1/2 47/1/2 50/1/2
f 51/1/2 69/1/2 68/1/2
f 83/1/2 50/1/2 51/1/2
f 78/1/2 80/1/2 83/1/2
f 76/1/2 77/1/2 78/1/2
f 73/1/2 74/1/2 75/1/2
f 75/1/2 76/1/2 78/1/2
f 78/1/2 83/1/2 51/1/2
f 51/1/2 68/1/2 67/1/2
f 51/1/2 67/1/2 66/1/2
f 75/1/2 78/1/2 51/1/2
f 72/1/2 73/1/2 75/1/2
f 57/1/2 71/1/2 72/1/2
f 60/1/2 59/1/2 58/1/2
f 58/1/2 57/1/2 72/1/2
f 75/1/2 51/1/2 66/1/2
f 65/1/2 64/1/2 63/1/2
f 58/1/2 72/1/2 75/1/2
f 61/1/2 60/1/2 58/1/2
f 65/1/2 63/1/2 62/1/2
f 65/1/2 62/1/2 61/1/2
f 58/1/2 75/1/2 66/1/2
f 65/1/2 61/1/2 58/1/2
f 2/1/3 46/1/3 45/1/3
f 3/1/4 47/1/4 46/1/4
f 4/1/5 48/1/5 47/1/5
f 5/1/6 49/1/6 48/1/6
f 6/1/7 50/1/7 49/1/7
f 7/1/8 51/1/8 50/1/8
f 7/1/9 26/1/9 70/1/9
f 25/1/10 69/1/10 70/1/10
f 1/1/11 45/1/11 52/1/11
f 9/1/12 8/1/12 52/1/12
f 9/1/13 53/1/13 54/1/13
f 12/1/14 10/1/14 54/1/14
f 12/1/15 56/1/15 55/1/15
f 29/1/16 73/1/16 72/1/16
f 28/1/17 72/1/17 71/1/17
f 13/1/18 27/1/18 71/1/18
f 14/1/19 13/1/19 57/1/19
f 14/1/20 58/1/20 59/1/20
f 15/1/21 59/1/21 60/1/21
f 16/1/22 60/1/22 61/1/22
f 17/1/23 61/1/23 62/1/23
f 18/1/24 62/1/24 63/1/24
f 19/1/25 63/1/25 64/1/25
f 20/1/26 64/1/26 65/1/26
f 22/1/27 21/1/27 65/1/27
f 22/1/28 66/1/28 67/1/28
f 23/1/29 67/1/29 68/1/29
f 24/1/30 68/1/30 69/1/30
f 30/1/31 74/1/31 73/1/31
f 31/1/32 75/1/32 74/1/32
f 32/1/33 76/1/33 75/1/33
f 33/1/34 77/1/34 76/1/34
f 34/1/35 78/1/35 77/1/35
f 35/1/36 79/1/36 78/1/36
f 35/1/37 36/1/37 80/1/37
f 37/1/38 81/1/38 80/1/38
f 38/1/39 82/1/39 83/1/39
f 39/1/40 83/1/40 84/1/40
f 40/1/41 84/1/41 85/1/41
f 41/1/42 85/1/42 81/1/42
f 42/1/43 86/1/43 82/1/43
f 43/1/44 87/1/44 86/1/44
f 44/1/45 88/1/45 87/1/45
f 11/1/46 55/1/46 88/1/46
