# Blender 5.2.0 LTS
# www.blender.org
mtllib Pennsylvania.mtl
o Plane.014
v 2.441337 3.290392 -8.832038
v 2.441337 3.396376 -8.950135
v 2.441337 3.435742 -9.025838
v 2.441337 3.499332 -9.113654
v 2.441337 3.372151 -9.153020
v 2.441337 3.790032 -11.363547
v 2.441337 3.783975 -11.569459
v 2.441337 3.665879 -11.696639
v 2.441337 3.568979 -11.745090
v 2.441337 3.496304 -11.823821
v 2.441337 3.478136 -11.893468
v 2.441337 2.213423 -11.936566
v 2.441337 2.305727 -12.016049
v 2.441337 2.392903 -12.075021
v 2.441337 2.513411 -12.146813
v 2.441337 2.572382 -12.144250
v 2.441337 2.700582 -11.959641
v 2.441337 2.769810 -11.900670
v 2.441337 2.836474 -11.864774
v 2.441337 2.841602 -11.808366
v 2.441337 2.915958 -11.813495
v 2.441337 2.918522 -11.841699
v 2.441337 2.959546 -11.857083
v 2.441337 3.085182 -11.849391
v 2.441337 3.326198 -11.910928
v 2.441337 3.362094 -11.908364
v 2.441337 3.423630 -11.923749
v 2.441337 2.086674 -11.678487
v 2.441337 2.121875 -11.703832
v 2.441337 2.173972 -11.765784
v 2.441337 2.186644 -11.819289
v 2.441337 2.162708 -11.846042
v 2.441337 2.069674 -11.647180
v 2.441337 2.060888 -11.597388
v 2.441337 2.028669 -11.518308
v 2.441337 1.929086 -11.029178
v 2.441337 1.839149 -10.470061
v 2.441337 1.773852 -10.162217
v 2.441337 1.665482 -9.561788
v 2.441337 1.574685 -9.046296
v 2.441337 2.230765 -8.899850
v 2.441337 3.229529 -8.709470
v 1.441337 3.290392 -8.832038
v 1.441337 3.396377 -8.950135
v 1.441337 3.435742 -9.025838
v 1.441337 3.499333 -9.113654
v 1.441337 3.372152 -9.153020
v 1.441337 3.790032 -11.363547
v 1.441337 3.783976 -11.569459
v 1.441337 3.665879 -11.696639
v 1.441337 3.568980 -11.745090
v 1.441337 3.496305 -11.823821
v 1.441337 3.478136 -11.893468
v 1.441337 2.213423 -11.936566
v 1.441337 2.305727 -12.016049
v 1.441337 2.392903 -12.075021
v 1.441337 2.513411 -12.146813
v 1.441337 2.572383 -12.144250
v 1.441337 2.700583 -11.959641
v 1.441337 2.769811 -11.900670
v 1.441337 2.836475 -11.864774
v 1.441337 2.841603 -11.808366
v 1.441337 2.915958 -11.813495
v 1.441337 2.918522 -11.841699
v 1.441337 2.959546 -11.857083
v 1.441337 3.085182 -11.849391
v 1.441337 3.326198 -11.910928
v 1.441337 3.362094 -11.908364
v 1.441337 3.423630 -11.923749
v 1.441337 2.086675 -11.678487
v 1.441337 2.121875 -11.703832
v 1.441337 2.173972 -11.765784
v 1.441337 2.186645 -11.819289
v 1.441337 2.162708 -11.846042
v 1.441337 2.069675 -11.647180
v 1.441337 2.060888 -11.597388
v 1.441337 2.028670 -11.518308
v 1.441337 1.929086 -11.029178
v 1.441337 1.839149 -10.470061
v 1.441337 1.773853 -10.162217
v 1.441337 1.665482 -9.561788
v 1.441337 1.574686 -9.046296
v 1.441337 2.230766 -8.899850
v 1.441337 3.229530 -8.709470
vn 1.0000 -0.0000 -0.0000
vn -1.0000 -0.0000 -0.0000
vn -0.0000 0.8957 0.4447
vn -0.0000 0.7442 0.6679
vn -0.0000 0.8872 0.4614
vn -0.0000 0.8099 0.5865
vn -0.0000 0.2957 -0.9553
vn -0.0000 0.9826 0.1858
vn -0.0000 0.9996 -0.0294
vn -0.0000 0.7328 -0.6805
vn -0.0000 0.4472 -0.8944
vn -0.0000 0.7348 -0.6783
vn -0.0000 0.9676 -0.2524
vn -0.0000 0.4856 -0.8742
vn -0.0000 -0.8724 -0.4888
vn -0.0000 -0.6525 -0.7578
vn -0.0000 -0.5603 -0.8283
vn -0.0000 -0.5118 -0.8591
vn -0.0000 0.0434 -0.9991
vn -0.0000 0.8214 -0.5704
vn -0.0000 0.6485 -0.7612
vn -0.0000 0.4741 -0.8805
vn -0.0000 0.9959 -0.0905
vn -0.0000 -0.0688 -0.9976
vn -0.0000 -0.9959 -0.0905
vn -0.0000 -0.3511 -0.9363
vn -0.0000 0.0611 -0.9981
vn -0.0000 -0.2474 -0.9689
vn -0.0000 0.0712 -0.9975
vn -0.0000 -0.2425 -0.9701
vn -0.0000 -0.8788 -0.4772
vn -0.0000 -0.5843 -0.8115
vn -0.0000 -0.7654 -0.6436
vn -0.0000 -0.9731 -0.2305
vn -0.0000 -0.7452 0.6668
vn -0.0000 -0.9848 -0.1738
vn -0.0000 -0.9261 -0.3773
vn -0.0000 -0.9799 -0.1995
vn -0.0000 -0.9873 -0.1588
vn -0.0000 -0.9782 -0.2075
vn -0.0000 -0.9841 -0.1776
vn -0.0000 -0.9848 -0.1735
vn -0.0000 -0.2179 0.9760
vn -0.0000 -0.1872 0.9823
vn 1.0000 0.0002 -0.0000
vn -1.0000 0.0001 -0.0000
vt 0.000000 0.000000
s 0
f 30/1/1 17/1/1 20/1/1
f 62/1/2 55/1/2 72/1/2
f 1/1/3 84/1/3 42/1/3
f 2/1/4 43/1/4 1/1/4
f 3/1/5 44/1/5 2/1/5
f 4/1/6 45/1/6 3/1/6
f 4/1/7 47/1/7 46/1/7
f 6/1/8 47/1/8 5/1/8
f 7/1/9 48/1/9 6/1/9
f 7/1/10 50/1/10 49/1/10
f 9/1/11 50/1/11 8/1/11
f 9/1/12 52/1/12 51/1/12
f 11/1/13 52/1/13 10/1/13
f 27/1/14 53/1/14 11/1/14
f 32/1/15 54/1/15 12/1/15
f 12/1/16 55/1/16 13/1/16
f 14/1/17 55/1/17 56/1/17
f 14/1/18 57/1/18 15/1/18
f 15/1/19 58/1/19 16/1/19
f 16/1/20 59/1/20 17/1/20
f 17/1/21 60/1/21 18/1/21
f 18/1/22 61/1/22 19/1/22
f 19/1/23 62/1/23 20/1/23
f 21/1/24 62/1/24 63/1/24
f 21/1/25 64/1/25 22/1/25
f 22/1/26 65/1/26 23/1/26
f 24/1/27 65/1/27 66/1/27
f 25/1/28 66/1/28 67/1/28
f 25/1/29 68/1/29 26/1/29
f 26/1/30 69/1/30 27/1/30
f 33/1/31 70/1/31 28/1/31
f 28/1/32 71/1/32 29/1/32
f 29/1/33 72/1/33 30/1/33
f 30/1/34 73/1/34 31/1/34
f 31/1/35 74/1/35 32/1/35
f 34/1/36 75/1/36 33/1/36
f 35/1/37 76/1/37 34/1/37
f 36/1/38 77/1/38 35/1/38
f 37/1/39 78/1/39 36/1/39
f 38/1/40 79/1/40 37/1/40
f 39/1/41 80/1/41 38/1/41
f 40/1/42 81/1/42 39/1/42
f 41/1/43 82/1/43 40/1/43
f 42/1/44 83/1/44 41/1/44
f 42/1/1 41/1/1 40/1/1
f 40/1/45 39/1/45 38/1/45
f 37/1/1 36/1/1 35/1/1
f 40/1/1 38/1/1 37/1/1
f 1/1/1 42/1/1 40/1/1
f 3/1/1 2/1/1 1/1/1
f 5/1/1 4/1/1 3/1/1
f 7/1/1 6/1/1 5/1/1
f 9/1/1 8/1/1 7/1/1
f 27/1/1 11/1/1 10/1/1
f 9/1/1 7/1/1 5/1/1
f 26/1/1 27/1/1 10/1/1
f 10/1/1 9/1/1 5/1/1
f 5/1/1 3/1/1 1/1/1
f 1/1/1 40/1/1 37/1/1
f 37/1/1 35/1/1 34/1/1
f 34/1/1 33/1/1 28/1/1
f 34/1/1 28/1/1 29/1/1
f 1/1/1 37/1/1 34/1/1
f 10/1/1 5/1/1 1/1/1
f 25/1/1 26/1/1 10/1/1
f 22/1/1 23/1/1 24/1/1
f 24/1/1 25/1/1 10/1/1
f 10/1/1 1/1/1 34/1/1
f 34/1/1 29/1/1 30/1/1
f 31/1/1 32/1/1 12/1/1
f 10/1/1 34/1/1 30/1/1
f 31/1/1 12/1/1 13/1/1
f 22/1/1 24/1/1 10/1/1
f 21/1/1 22/1/1 10/1/1
f 30/1/1 31/1/1 13/1/1
f 13/1/1 14/1/1 15/1/1
f 15/1/1 16/1/1 17/1/1
f 18/1/1 19/1/1 20/1/1
f 13/1/1 15/1/1 17/1/1
f 17/1/1 18/1/1 20/1/1
f 20/1/1 21/1/1 10/1/1
f 30/1/1 13/1/1 17/1/1
f 20/1/1 10/1/1 30/1/1
f 82/1/2 83/1/2 84/1/2
f 43/1/2 44/1/2 45/1/2
f 82/1/2 84/1/2 43/1/2
f 80/1/46 81/1/46 82/1/46
f 77/1/2 78/1/2 79/1/2
f 79/1/2 80/1/2 82/1/2
f 82/1/2 43/1/2 45/1/2
f 45/1/2 46/1/2 47/1/2
f 47/1/2 48/1/2 49/1/2
f 49/1/2 50/1/2 51/1/2
f 52/1/2 53/1/2 69/1/2
f 47/1/2 49/1/2 51/1/2
f 52/1/2 69/1/2 68/1/2
f 47/1/2 51/1/2 52/1/2
f 82/1/2 45/1/2 47/1/2
f 76/1/2 77/1/2 79/1/2
f 79/1/2 82/1/2 47/1/2
f 47/1/2 52/1/2 68/1/2
f 68/1/2 67/1/2 66/1/2
f 66/1/2 65/1/2 64/1/2
f 66/1/2 64/1/2 63/1/2
f 47/1/2 68/1/2 66/1/2
f 76/1/2 79/1/2 47/1/2
f 70/1/2 75/1/2 76/1/2
f 71/1/2 70/1/2 76/1/2
f 76/1/2 47/1/2 66/1/2
f 76/1/2 66/1/2 63/1/2
f 72/1/2 71/1/2 76/1/2
f 54/1/2 74/1/2 73/1/2
f 55/1/2 54/1/2 73/1/2
f 57/1/2 56/1/2 55/1/2
f 59/1/2 58/1/2 57/1/2
f 62/1/2 61/1/2 60/1/2
f 59/1/2 57/1/2 55/1/2
f 62/1/2 60/1/2 59/1/2
f 76/1/2 63/1/2 62/1/2
f 55/1/2 73/1/2 72/1/2
f 72/1/2 76/1/2 62/1/2
f 62/1/2 59/1/2 55/1/2
f 1/1/3 43/1/3 84/1/3
f 2/1/4 44/1/4 43/1/4
f 3/1/5 45/1/5 44/1/5
f 4/1/6 46/1/6 45/1/6
f 4/1/7 5/1/7 47/1/7
f 6/1/8 48/1/8 47/1/8
f 7/1/9 49/1/9 48/1/9
f 7/1/10 8/1/10 50/1/10
f 9/1/11 51/1/11 50/1/11
f 9/1/12 10/1/12 52/1/12
f 11/1/13 53/1/13 52/1/13
f 27/1/14 69/1/14 53/1/14
f 32/1/15 74/1/15 54/1/15
f 12/1/16 54/1/16 55/1/16
f 14/1/17 13/1/17 55/1/17
f 14/1/18 56/1/18 57/1/18
f 15/1/19 57/1/19 58/1/19
f 16/1/20 58/1/20 59/1/20
f 17/1/21 59/1/21 60/1/21
f 18/1/22 60/1/22 61/1/22
f 19/1/23 61/1/23 62/1/23
f 21/1/24 20/1/24 62/1/24
f 21/1/25 63/1/25 64/1/25
f 22/1/26 64/1/26 65/1/26
f 24/1/27 23/1/27 65/1/27
f 25/1/28 24/1/28 66/1/28
f 25/1/29 67/1/29 68/1/29
f 26/1/30 68/1/30 69/1/30
f 33/1/31 75/1/31 70/1/31
f 28/1/32 70/1/32 71/1/32
f 29/1/33 71/1/33 72/1/33
f 30/1/34 72/1/34 73/1/34
f 31/1/35 73/1/35 74/1/35
f 34/1/36 76/1/36 75/1/36
f 35/1/37 77/1/37 76/1/37
f 36/1/38 78/1/38 77/1/38
f 37/1/39 79/1/39 78/1/39
f 38/1/40 80/1/40 79/1/40
f 39/1/41 81/1/41 80/1/41
f 40/1/42 82/1/42 81/1/42
f 41/1/43 83/1/43 82/1/43
f 42/1/44 84/1/44 83/1/44
