# Blender 5.2.0 LTS
# www.blender.org
mtllib Rhode Island.mtl
o Plane.024
v 1.441337 3.784134 -13.622983
v 1.441337 3.815309 -13.704040
v 1.441337 3.958717 -13.894210
v 1.441337 4.236179 -13.713391
v 1.441337 4.304766 -13.713391
v 1.441337 4.348412 -13.669745
v 1.441337 4.307883 -13.622983
v 1.441337 4.258002 -13.410989
v 1.441337 4.127065 -13.504516
v 1.441337 3.924423 -13.504516
v 1.441337 3.821544 -13.541926
v 1.441337 3.765428 -13.563748
v 2.441337 3.784134 -13.622983
v 2.441337 3.815309 -13.704040
v 2.441337 3.958717 -13.894210
v 2.441337 4.236179 -13.713391
v 2.441337 4.304766 -13.713391
v 2.441337 4.348412 -13.669745
v 2.441337 4.307883 -13.622983
v 2.441337 4.258002 -13.410989
v 2.441337 4.127065 -13.504516
v 2.441337 3.924423 -13.504516
v 2.441337 3.821544 -13.541926
v 2.441337 3.765428 -13.563748
vn -1.0000 -0.0000 -0.0000
vn 1.0000 -0.0000 -0.0000
vn -0.0000 -0.9536 -0.3011
vn -0.0000 -0.9333 -0.3590
vn -0.0000 -0.7984 -0.6021
vn -0.0000 0.5460 -0.8378
vn -0.0000 -0.0000 -1.0000
vn -0.0000 0.7071 -0.7071
vn -0.0000 0.7557 0.6549
vn -0.0000 0.9734 0.2290
vn -0.0000 -0.5812 0.8137
vn -0.0000 -0.0000 1.0000
vn -0.0000 -0.3417 0.9398
vn -0.0000 -0.3624 0.9320
vt 0.000000 0.000000
s 0
f 11/1/1 7/1/1 2/1/1
f 13/1/2 18/1/2 21/1/2
f 1/1/3 24/1/3 12/1/3
f 2/1/4 13/1/4 1/1/4
f 3/1/5 14/1/5 2/1/5
f 4/1/6 15/1/6 3/1/6
f 5/1/7 16/1/7 4/1/7
f 6/1/8 17/1/8 5/1/8
f 7/1/9 18/1/9 6/1/9
f 8/1/10 19/1/10 7/1/10
f 9/1/11 20/1/11 8/1/11
f 10/1/12 21/1/12 9/1/12
f 11/1/13 22/1/13 10/1/13
f 12/1/14 23/1/14 11/1/14
f 1/1/1 12/1/1 11/1/1
f 11/1/1 10/1/1 9/1/1
f 9/1/1 8/1/1 7/1/1
f 7/1/1 6/1/1 5/1/1
f 4/1/1 3/1/1 2/1/1
f 7/1/1 5/1/1 4/1/1
f 11/1/1 9/1/1 7/1/1
f 2/1/1 1/1/1 11/1/1
f 7/1/1 4/1/1 2/1/1
f 23/1/2 24/1/2 13/1/2
f 13/1/2 14/1/2 15/1/2
f 16/1/2 17/1/2 18/1/2
f 13/1/2 15/1/2 16/1/2
f 22/1/2 23/1/2 13/1/2
f 19/1/2 20/1/2 21/1/2
f 21/1/2 22/1/2 13/1/2
f 13/1/2 16/1/2 18/1/2
f 18/1/2 19/1/2 21/1/2
f 1/1/3 13/1/3 24/1/3
f 2/1/4 14/1/4 13/1/4
f 3/1/5 15/1/5 14/1/5
f 4/1/6 16/1/6 15/1/6
f 5/1/7 17/1/7 16/1/7
f 6/1/8 18/1/8 17/1/8
f 7/1/9 19/1/9 18/1/9
f 8/1/10 20/1/10 19/1/10
f 9/1/11 21/1/11 20/1/11
f 10/1/12 22/1/12 21/1/12
f 11/1/13 23/1/13 22/1/13
f 12/1/14 24/1/14 23/1/14
