# Blender 5.2.0 LTS
# www.blender.org
mtllib Tennessee.mtl
o Plane.006
v 1.441337 -0.975892 -7.691741
v 1.441337 -1.147325 -6.193414
v 1.441337 -1.226185 -4.955665
v 1.441337 -1.377046 -4.948808
v 1.441337 -1.380475 -4.609370
v 1.441337 -1.421619 -4.472224
v 1.441337 -1.713056 -4.023068
v 1.441337 -1.661626 -4.033355
v 1.441337 -1.538194 -4.071071
v 1.441337 -1.428476 -4.053927
v 1.441337 -1.425048 -4.146501
v 1.441337 -1.812129 -3.988065
v 1.441337 -1.849983 -3.991851
v 1.441337 -2.039253 -3.893430
v 1.441337 -2.217167 -3.859361
v 1.441337 -2.220952 -3.776082
v 1.441337 -2.239879 -3.749585
v 1.441337 -2.304231 -3.776082
v 1.441337 -2.367644 -3.804906
v 1.441337 -2.494471 -3.810670
v 1.441337 -2.552120 -3.776080
v 1.441337 -1.342790 -8.143151
v 1.441337 -1.333403 -8.194785
v 1.441337 -1.361566 -8.218255
v 1.441337 -1.408505 -8.269889
v 1.441337 -1.403811 -8.312135
v 1.441337 -1.338096 -8.330911
v 1.441337 -1.272382 -8.401319
v 1.441337 -1.267688 -8.499890
v 1.441337 -1.220749 -8.513972
v 1.441337 -1.126870 -8.621932
v 1.441337 -1.079931 -8.650096
v 1.441337 -0.981359 -8.720504
v 1.441337 -0.859317 -8.758056
v 1.441337 -1.399117 -8.072743
v 1.441337 -1.590962 -8.068229
v 1.441337 -1.598520 -7.952332
v 1.441337 -1.764805 -7.778489
v 1.441337 -1.774883 -7.715503
v 1.441337 -1.810155 -7.637399
v 1.441337 -1.850466 -7.566854
v 1.441337 -1.903375 -7.466075
v 1.441337 -2.016751 -7.440881
v 1.441337 -2.054543 -7.438361
v 1.441337 -2.067141 -7.340102
v 1.441337 -2.251061 -7.317428
v 1.441337 -2.382073 -6.523797
v 1.441337 -2.508452 -5.018743
v 2.441337 -0.975892 -7.691741
v 2.441337 -1.147326 -6.193414
v 2.441337 -1.226185 -4.955665
v 2.441337 -1.377047 -4.948808
v 2.441337 -1.380475 -4.609370
v 2.441337 -1.421619 -4.472224
v 2.441337 -1.713056 -4.023068
v 2.441337 -1.661626 -4.033355
v 2.441337 -1.538194 -4.071071
v 2.441337 -1.428477 -4.053927
v 2.441337 -1.425048 -4.146501
v 2.441337 -1.812130 -3.988065
v 2.441337 -1.849984 -3.991851
v 2.441337 -2.039254 -3.893430
v 2.441337 -2.217167 -3.859361
v 2.441337 -2.220953 -3.776082
v 2.441337 -2.239880 -3.749585
v 2.441337 -2.304231 -3.776082
v 2.441337 -2.367645 -3.804906
v 2.441337 -2.494472 -3.810670
v 2.441337 -2.552120 -3.776080
v 2.441337 -1.342791 -8.143151
v 2.441337 -1.333403 -8.194785
v 2.441337 -1.361566 -8.218255
v 2.441337 -1.408506 -8.269889
v 2.441337 -1.403812 -8.312135
v 2.441337 -1.338097 -8.330911
v 2.441337 -1.272382 -8.401319
v 2.441337 -1.267688 -8.499890
v 2.441337 -1.220749 -8.513972
v 2.441337 -1.126871 -8.621932
v 2.441337 -1.079931 -8.650096
v 2.441337 -0.981359 -8.720504
v 2.441337 -0.859318 -8.758056
v 2.441337 -1.399118 -8.072743
v 2.441337 -1.590962 -8.068229
v 2.441337 -1.598521 -7.952332
v 2.441337 -1.764805 -7.778489
v 2.441337 -1.774883 -7.715503
v 2.441337 -1.810156 -7.637399
v 2.441337 -1.850467 -7.566854
v 2.441337 -1.903376 -7.466075
v 2.441337 -2.016752 -7.440881
v 2.441337 -2.054543 -7.438361
v 2.441337 -2.067141 -7.340102
v 2.441337 -2.251061 -7.317428
v 2.441337 -2.382074 -6.523797
v 2.441337 -2.508452 -5.018743
vn -1.0000 -0.0000 -0.0000
vn 1.0000 -0.0000 -0.0000
vn -0.0000 -0.5812 -0.8137
vn -0.0000 -0.2941 -0.9558
vn -0.0000 0.9941 0.1087
vn -0.0000 0.9935 0.1137
vn -0.0000 0.9980 0.0636
vn -0.0000 0.0454 0.9990
vn -0.0000 0.9999 0.0101
vn -0.0000 0.9578 0.2873
vn -0.0000 0.9999 0.0105
vn -0.0000 0.3331 0.9429
vn -0.0000 0.1961 0.9806
vn -0.0000 0.2922 0.9564
vn -0.0000 -0.1544 0.9880
vn -0.0000 0.9993 0.0370
vn -0.0000 -0.0995 0.9950
vn -0.0000 0.4614 0.8872
vn -0.0000 0.1881 0.9822
vn -0.0000 0.9990 0.0454
vn -0.0000 0.8137 0.5813
vn -0.0000 -0.3807 0.9247
vn -0.0000 -0.4138 0.9104
vn -0.0000 -0.0454 0.9990
vn -0.0000 0.5145 0.8575
vn -0.0000 -0.9874 -0.1580
vn -0.0000 -0.7226 -0.6912
vn -0.0000 -0.9979 -0.0651
vn -0.0000 -0.0235 -0.9997
vn -0.0000 -0.7809 -0.6247
vn -0.0000 -0.9839 -0.1789
vn -0.0000 -0.6402 0.7682
vn -0.0000 -0.7399 0.6727
vn -0.0000 -0.9939 -0.1104
vn -0.0000 -0.2747 -0.9615
vn -0.0000 -0.7311 -0.6823
vn -0.0000 -0.9989 -0.0476
vn -0.0000 -0.2874 -0.9578
vn -0.0000 -0.7546 -0.6562
vn -0.0000 -0.5145 -0.8575
vn -0.0000 -0.9114 -0.4116
vn -0.0000 -0.8682 -0.4961
vn -0.0000 -0.8854 -0.4648
vn -0.0000 -0.2169 -0.9762
vn -0.0000 -0.0665 -0.9978
vn -0.0000 -0.9919 -0.1272
vn -0.0000 -0.1224 -0.9925
vn -0.0000 -0.9866 -0.1629
vn -0.0000 -0.9965 -0.0837
vn -0.0000 -0.9994 -0.0351
vn 1.0000 -0.0001 -0.0000
vt 0.000000 0.000000
s 0
f 4/1/1 34/1/1 23/1/1
f 71/1/2 82/1/2 52/1/2
f 33/1/3 80/1/3 32/1/3
f 33/1/4 82/1/4 81/1/4
f 1/1/5 82/1/5 34/1/5
f 2/1/6 49/1/6 1/1/6
f 3/1/7 50/1/7 2/1/7
f 4/1/8 51/1/8 3/1/8
f 5/1/9 52/1/9 4/1/9
f 6/1/10 53/1/10 5/1/10
f 11/1/11 54/1/11 6/1/11
f 12/1/12 55/1/12 7/1/12
f 7/1/13 56/1/13 8/1/13
f 8/1/14 57/1/14 9/1/14
f 9/1/15 58/1/15 10/1/15
f 10/1/16 59/1/16 11/1/16
f 13/1/17 60/1/17 12/1/17
f 14/1/18 61/1/18 13/1/18
f 15/1/19 62/1/19 14/1/19
f 16/1/20 63/1/20 15/1/20
f 17/1/21 64/1/21 16/1/21
f 18/1/22 65/1/22 17/1/22
f 19/1/23 66/1/23 18/1/23
f 20/1/24 67/1/24 19/1/24
f 21/1/25 68/1/25 20/1/25
f 39/1/26 86/1/26 87/1/26
f 38/1/27 85/1/27 86/1/27
f 36/1/28 85/1/28 37/1/28
f 36/1/29 83/1/29 84/1/29
f 35/1/30 70/1/30 83/1/30
f 23/1/31 70/1/31 22/1/31
f 24/1/32 71/1/32 23/1/32
f 25/1/33 72/1/33 24/1/33
f 26/1/34 73/1/34 25/1/34
f 27/1/35 74/1/35 26/1/35
f 28/1/36 75/1/36 27/1/36
f 29/1/37 76/1/37 28/1/37
f 30/1/38 77/1/38 29/1/38
f 31/1/39 78/1/39 30/1/39
f 32/1/40 79/1/40 31/1/40
f 39/1/41 88/1/41 40/1/41
f 40/1/42 89/1/42 41/1/42
f 41/1/43 90/1/43 42/1/43
f 42/1/44 91/1/44 43/1/44
f 43/1/45 92/1/45 44/1/45
f 44/1/46 93/1/46 45/1/46
f 46/1/47 93/1/47 94/1/47
f 47/1/48 94/1/48 95/1/48
f 48/1/49 95/1/49 96/1/49
f 48/1/50 69/1/50 21/1/50
f 47/1/1 48/1/1 21/1/1
f 47/1/1 21/1/1 20/1/1
f 45/1/1 46/1/1 47/1/1
f 43/1/1 44/1/1 45/1/1
f 40/1/1 41/1/1 42/1/1
f 42/1/1 43/1/1 45/1/1
f 45/1/1 47/1/1 20/1/1
f 19/1/1 18/1/1 17/1/1
f 45/1/1 20/1/1 19/1/1
f 42/1/1 45/1/1 19/1/1
f 19/1/1 17/1/1 16/1/1
f 15/1/1 14/1/1 13/1/1
f 19/1/1 16/1/1 15/1/1
f 40/1/1 42/1/1 19/1/1
f 37/1/1 38/1/1 39/1/1
f 39/1/1 40/1/1 19/1/1
f 39/1/1 19/1/1 15/1/1
f 35/1/1 36/1/1 37/1/1
f 37/1/1 39/1/1 15/1/1
f 13/1/1 12/1/1 7/1/1
f 37/1/1 15/1/1 13/1/1
f 35/1/1 37/1/1 13/1/1
f 7/1/1 8/1/1 9/1/1
f 35/1/1 13/1/1 7/1/1
f 22/1/1 35/1/1 7/1/1
f 9/1/1 10/1/1 11/1/1
f 22/1/1 7/1/1 9/1/1
f 25/1/1 24/1/1 23/1/1
f 23/1/1 22/1/1 9/1/1
f 9/1/1 11/1/1 6/1/1
f 6/1/1 5/1/1 4/1/1
f 4/1/1 3/1/1 2/1/1
f 2/1/1 1/1/1 34/1/1
f 34/1/1 33/1/1 32/1/1
f 32/1/1 31/1/1 30/1/1
f 30/1/1 29/1/1 28/1/1
f 27/1/1 26/1/1 25/1/1
f 32/1/1 30/1/1 28/1/1
f 27/1/1 25/1/1 23/1/1
f 34/1/1 32/1/1 28/1/1
f 28/1/1 27/1/1 23/1/1
f 23/1/1 9/1/1 6/1/1
f 4/1/1 2/1/1 34/1/1
f 23/1/1 6/1/1 4/1/1
f 34/1/1 28/1/1 23/1/1
f 69/1/2 96/1/2 95/1/2
f 95/1/2 94/1/2 93/1/2
f 93/1/2 92/1/2 91/1/2
f 90/1/51 89/1/51 88/1/51
f 93/1/2 91/1/2 90/1/2
f 69/1/2 95/1/2 93/1/2
f 68/1/2 69/1/2 93/1/2
f 68/1/2 93/1/2 90/1/2
f 65/1/51 66/1/51 67/1/51
f 67/1/2 68/1/2 90/1/2
f 67/1/2 90/1/2 88/1/2
f 64/1/2 65/1/2 67/1/2
f 61/1/2 62/1/2 63/1/2
f 63/1/2 64/1/2 67/1/2
f 67/1/2 88/1/2 87/1/2
f 87/1/2 86/1/2 85/1/2
f 85/1/2 84/1/2 83/1/2
f 87/1/2 85/1/2 83/1/2
f 63/1/2 67/1/2 87/1/2
f 55/1/2 60/1/2 61/1/2
f 61/1/2 63/1/2 87/1/2
f 61/1/2 87/1/2 83/1/2
f 57/1/2 56/1/2 55/1/2
f 55/1/2 61/1/2 83/1/2
f 55/1/2 83/1/2 70/1/2
f 59/1/2 58/1/2 57/1/2
f 57/1/2 55/1/2 70/1/2
f 71/1/2 72/1/2 73/1/2
f 57/1/2 70/1/2 71/1/2
f 54/1/2 59/1/2 57/1/2
f 52/1/2 53/1/2 54/1/2
f 50/1/2 51/1/2 52/1/2
f 82/1/51 49/1/51 50/1/51
f 80/1/2 81/1/2 82/1/2
f 78/1/2 79/1/2 80/1/2
f 76/1/2 77/1/2 78/1/2
f 73/1/2 74/1/2 75/1/2
f 76/1/2 78/1/2 80/1/2
f 71/1/2 73/1/2 75/1/2
f 76/1/2 80/1/2 82/1/2
f 71/1/2 75/1/2 76/1/2
f 54/1/2 57/1/2 71/1/2
f 82/1/2 50/1/2 52/1/2
f 52/1/2 54/1/2 71/1/2
f 71/1/2 76/1/2 82/1/2
f 33/1/3 81/1/3 80/1/3
f 33/1/4 34/1/4 82/1/4
f 1/1/5 49/1/5 82/1/5
f 2/1/6 50/1/6 49/1/6
f 3/1/7 51/1/7 50/1/7
f 4/1/8 52/1/8 51/1/8
f 5/1/9 53/1/9 52/1/9
f 6/1/10 54/1/10 53/1/10
f 11/1/11 59/1/11 54/1/11
f 12/1/12 60/1/12 55/1/12
f 7/1/13 55/1/13 56/1/13
f 8/1/14 56/1/14 57/1/14
f 9/1/15 57/1/15 58/1/15
f 10/1/16 58/1/16 59/1/16
f 13/1/17 61/1/17 60/1/17
f 14/1/18 62/1/18 61/1/18
f 15/1/19 63/1/19 62/1/19
f 16/1/20 64/1/20 63/1/20
f 17/1/21 65/1/21 64/1/21
f 18/1/22 66/1/22 65/1/22
f 19/1/23 67/1/23 66/1/23
f 20/1/24 68/1/24 67/1/24
f 21/1/25 69/1/25 68/1/25
f 39/1/26 38/1/26 86/1/26
f 38/1/27 37/1/27 85/1/27
f 36/1/28 84/1/28 85/1/28
f 36/1/29 35/1/29 83/1/29
f 35/1/30 22/1/30 70/1/30
f 23/1/31 71/1/31 70/1/31
f 24/1/32 72/1/32 71/1/32
f 25/1/33 73/1/33 72/1/33
f 26/1/34 74/1/34 73/1/34
f 27/1/35 75/1/35 74/1/35
f 28/1/36 76/1/36 75/1/36
f 29/1/37 77/1/37 76/1/37
f 30/1/38 78/1/38 77/1/38
f 31/1/39 79/1/39 78/1/39
f 32/1/40 80/1/40 79/1/40
f 39/1/41 87/1/41 88/1/41
f 40/1/42 88/1/42 89/1/42
f 41/1/43 89/1/43 90/1/43
f 42/1/44 90/1/44 91/1/44
f 43/1/45 91/1/45 92/1/45
f 44/1/46 92/1/46 93/1/46
f 46/1/47 45/1/47 93/1/47
f 47/1/48 46/1/48 94/1/48
f 48/1/49 47/1/49 95/1/49
f 48/1/50 96/1/50 69/1/50
