# Blender 5.2.0 LTS
# www.blender.org
mtllib Texas.mtl
o Plane.040
v 2.441336 -3.715883 -1.159224
v 2.441336 -3.656538 -0.981189
v 2.441336 -3.614149 -0.849782
v 2.441336 -3.478504 -0.705659
v 2.441336 -3.588716 -0.574252
v 2.441336 -3.537849 -0.502191
v 2.441336 -3.525132 -0.273289
v 2.441336 -3.639583 -0.065582
v 2.441336 -3.652299 -0.001999
v 2.441336 -3.609910 0.036151
v 2.441336 -3.554804 0.286247
v 2.441336 -3.499698 0.332875
v 2.441336 -3.448831 0.358309
v 2.441336 -3.652299 0.464282
v 2.441336 -3.660777 0.515149
v 2.441336 -3.474265 0.794918
v 2.441336 -3.478504 0.811873
v 2.441336 -3.537849 0.883935
v 2.441336 -3.529371 1.002625
v 2.441336 -3.436115 1.036536
v 2.441336 -3.347097 1.108598
v 2.441336 -3.325903 1.223048
v 2.441336 -3.368292 1.303588
v 2.441336 -3.258080 1.583356
v 2.441336 -3.202974 1.740196
v 2.441336 -3.097001 1.765630
v 2.441336 -3.067329 1.799541
v 2.441336 -3.130913 1.863125
v 2.441336 -3.130913 1.947904
v 2.441336 -3.063090 1.969098
v 2.441336 -3.135151 2.015726
v 2.441336 -3.118196 2.045399
v 2.441336 -2.931684 2.257344
v 2.441337 -1.486632 2.184013
v 2.441336 -4.591922 6.474917
v 2.441336 -4.761700 4.240635
v 2.441336 -4.381396 4.165933
v 2.441336 -3.743030 4.125186
v 2.441337 -1.434045 3.982573
v 2.441337 -1.427254 3.928244
v 2.441336 -4.719996 6.507371
v 2.441336 -3.754034 -1.171940
v 2.441336 -3.766750 -1.422036
v 2.441336 -4.145982 -1.420063
v 2.441336 -4.788329 -1.409320
v 2.441336 -4.923975 -1.434753
v 2.441336 -5.055381 -1.578876
v 2.441336 -5.118965 -1.587355
v 2.441336 -5.275805 -1.595833
v 2.441336 -5.360583 -1.718761
v 2.441336 -5.513184 -1.761150
v 2.441336 -5.691218 -1.790823
v 2.441336 -5.865014 -1.756911
v 2.441336 -5.962509 -1.684850
v 2.441336 -6.000659 -1.655177
v 2.441336 -6.623780 -1.617027
v 2.441336 -6.759425 -1.277914
v 2.441336 -6.899309 -1.040535
v 2.441336 -7.085822 -0.811633
v 2.441336 -7.246901 -0.616643
v 2.441336 -7.386785 -0.459803
v 2.441336 -7.446130 -0.315680
v 2.441336 -7.573298 -0.069822
v 2.441336 -7.789482 0.282008
v 2.441336 -7.903933 0.417653
v 2.441336 -8.039578 0.506670
v 2.441336 -8.200657 0.599926
v 2.441336 -8.365974 0.676227
v 2.441336 -8.628787 0.756766
v 2.441336 -8.828016 0.769483
v 2.441336 -9.056918 0.731333
v 2.441336 -9.188325 0.676227
v 2.441336 -9.294298 0.676227
v 2.441336 -9.383315 0.633838
v 2.441336 -9.468094 0.642316
v 2.441336 -9.544394 0.718616
v 2.441336 -9.455378 0.858500
v 2.441336 -9.391794 0.866979
v 2.441336 -9.370600 1.061969
v 2.441336 -9.345166 1.252720
v 2.441336 -9.268866 1.401082
v 2.441336 -9.217999 1.511293
v 2.441336 -9.196804 1.697805
v 2.441336 -9.103548 1.863123
v 2.441336 -8.976380 1.956379
v 2.441336 -8.828018 1.964857
v 2.441336 -8.734762 1.973335
v 2.441336 -8.641506 2.070830
v 2.441336 -8.497383 2.070830
v 2.441336 -8.446516 2.096264
v 2.441336 -8.421082 2.138653
v 2.441336 -8.323587 2.104741
v 2.441336 -8.234571 2.045396
v 2.441336 -8.170987 2.125936
v 2.441336 -8.154031 2.214952
v 2.441336 -7.819157 2.486243
v 2.441336 -7.747095 2.482004
v 2.441336 -7.725901 2.579499
v 2.441336 -7.696228 2.651561
v 2.441336 -7.501238 2.655800
v 2.441336 -7.412221 2.689712
v 2.441336 -7.242664 2.757534
v 2.441336 -7.149408 2.808401
v 2.441336 -7.051913 2.808401
v 2.441336 -6.933224 2.880463
v 2.441336 -6.530526 3.211098
v 2.441336 -6.496615 3.448477
v 2.441336 -6.466943 3.630750
v 2.441336 -6.471182 3.766395
v 2.441336 -6.373687 3.846934
v 2.441336 -6.386403 3.885084
v 2.441336 -6.458465 3.961385
v 2.441336 -6.479659 4.143659
v 2.441336 -6.594110 4.190287
v 2.441336 -6.873878 4.351365
v 2.441336 -6.984091 4.410710
v 2.441336 -7.047674 4.465816
v 2.441336 -7.022241 4.533639
v 2.441336 -6.933224 4.660807
v 2.441336 -6.878118 4.796452
v 2.441336 -6.806056 4.826124
v 2.441336 -6.750951 4.876991
v 2.441336 -6.712800 5.004159
v 2.441336 -6.628022 5.135566
v 2.441336 -6.441509 5.355989
v 2.441336 -6.318581 5.381423
v 2.441336 -6.085441 5.398378
v 2.441336 -5.962512 5.411095
v 2.441336 -5.839583 5.449245
v 2.441336 -5.678504 5.534023
v 2.441336 -5.555575 5.631518
v 2.441336 -5.530142 5.724774
v 2.441336 -5.441125 5.818030
v 2.441336 -5.284285 5.919765
v 2.441336 -5.106251 6.093560
v 2.441336 -5.029950 6.220728
v 2.441336 -5.004517 6.263117
v 2.441336 -4.834960 6.263117
v 2.441336 -4.762898 6.356373
v 2.441336 -4.741704 6.432674
v 1.441337 -3.715883 -1.159224
v 1.441337 -3.656538 -0.981189
v 1.441337 -3.614149 -0.849782
v 1.441337 -3.478504 -0.705659
v 1.441337 -3.588716 -0.574252
v 1.441337 -3.537849 -0.502191
v 1.441337 -3.525132 -0.273289
v 1.441337 -3.639583 -0.065582
v 1.441337 -3.652299 -0.001999
v 1.441337 -3.609910 0.036151
v 1.441337 -3.554804 0.286247
v 1.441337 -3.499698 0.332875
v 1.441337 -3.448831 0.358309
v 1.441337 -3.652299 0.464282
v 1.441337 -3.660777 0.515149
v 1.441337 -3.474265 0.794918
v 1.441337 -3.478504 0.811873
v 1.441337 -3.537849 0.883935
v 1.441337 -3.529371 1.002625
v 1.441337 -3.436115 1.036536
v 1.441337 -3.347097 1.108598
v 1.441337 -3.325903 1.223048
v 1.441337 -3.368292 1.303588
v 1.441337 -3.258080 1.583356
v 1.441337 -3.202974 1.740196
v 1.441337 -3.097001 1.765630
v 1.441337 -3.067329 1.799541
v 1.441337 -3.130913 1.863125
v 1.441337 -3.130913 1.947904
v 1.441337 -3.063090 1.969098
v 1.441337 -3.135151 2.015726
v 1.441337 -3.118196 2.045399
v 1.441337 -2.931684 2.257344
v 1.441337 -1.486632 2.184013
v 1.441336 -4.591922 6.474917
v 1.441336 -4.761700 4.240635
v 1.441336 -4.381396 4.165933
v 1.441337 -3.743030 4.125186
v 1.441337 -1.434045 3.982573
v 1.441337 -1.427254 3.928244
v 1.441336 -4.719996 6.507371
v 1.441337 -3.754034 -1.171940
v 1.441337 -3.766750 -1.422036
v 1.441337 -4.145982 -1.420063
v 1.441336 -4.788329 -1.409320
v 1.441336 -4.923975 -1.434753
v 1.441336 -5.055381 -1.578876
v 1.441336 -5.118965 -1.587355
v 1.441336 -5.275805 -1.595833
v 1.441336 -5.360583 -1.718761
v 1.441336 -5.513184 -1.761150
v 1.441336 -5.691218 -1.790823
v 1.441336 -5.865014 -1.756911
v 1.441336 -5.962509 -1.684850
v 1.441336 -6.000659 -1.655177
v 1.441336 -6.623780 -1.617027
v 1.441336 -6.759425 -1.277914
v 1.441336 -6.899309 -1.040535
v 1.441336 -7.085822 -0.811633
v 1.441336 -7.246901 -0.616643
v 1.441336 -7.386785 -0.459803
v 1.441336 -7.446130 -0.315680
v 1.441336 -7.573298 -0.069822
v 1.441336 -7.789482 0.282008
v 1.441336 -7.903933 0.417653
v 1.441336 -8.039578 0.506670
v 1.441336 -8.200657 0.599926
v 1.441336 -8.365974 0.676227
v 1.441336 -8.628787 0.756766
v 1.441336 -8.828016 0.769483
v 1.441336 -9.056918 0.731333
v 1.441336 -9.188325 0.676227
v 1.441336 -9.294298 0.676227
v 1.441336 -9.383315 0.633838
v 1.441336 -9.468094 0.642316
v 1.441336 -9.544394 0.718616
v 1.441336 -9.455378 0.858500
v 1.441336 -9.391794 0.866979
v 1.441336 -9.370600 1.061969
v 1.441336 -9.345166 1.252720
v 1.441336 -9.268866 1.401082
v 1.441336 -9.217999 1.511293
v 1.441336 -9.196804 1.697805
v 1.441336 -9.103548 1.863123
v 1.441336 -8.976380 1.956379
v 1.441336 -8.828018 1.964857
v 1.441336 -8.734762 1.973335
v 1.441336 -8.641506 2.070830
v 1.441336 -8.497383 2.070830
v 1.441336 -8.446516 2.096264
v 1.441336 -8.421082 2.138653
v 1.441336 -8.323587 2.104741
v 1.441336 -8.234571 2.045396
v 1.441336 -8.170987 2.125936
v 1.441336 -8.154031 2.214952
v 1.441336 -7.819157 2.486243
v 1.441336 -7.747095 2.482004
v 1.441336 -7.725901 2.579499
v 1.441336 -7.696228 2.651561
v 1.441336 -7.501238 2.655800
v 1.441336 -7.412221 2.689712
v 1.441336 -7.242664 2.757534
v 1.441336 -7.149408 2.808401
v 1.441336 -7.051913 2.808401
v 1.441336 -6.933224 2.880463
v 1.441336 -6.530526 3.211098
v 1.441336 -6.496615 3.448477
v 1.441336 -6.466943 3.630750
v 1.441336 -6.471182 3.766395
v 1.441336 -6.373687 3.846934
v 1.441336 -6.386403 3.885084
v 1.441336 -6.458465 3.961385
v 1.441336 -6.479659 4.143659
v 1.441336 -6.594110 4.190287
v 1.441336 -6.873878 4.351365
v 1.441336 -6.984091 4.410710
v 1.441336 -7.047674 4.465816
v 1.441336 -7.022241 4.533639
v 1.441336 -6.933224 4.660807
v 1.441336 -6.878118 4.796452
v 1.441336 -6.806056 4.826124
v 1.441336 -6.750951 4.876991
v 1.441336 -6.712800 5.004159
v 1.441336 -6.628022 5.135566
v 1.441336 -6.441509 5.355989
v 1.441336 -6.318581 5.381423
v 1.441336 -6.085441 5.398378
v 1.441336 -5.962512 5.411095
v 1.441336 -5.839583 5.449245
v 1.441336 -5.678504 5.534023
v 1.441336 -5.555575 5.631518
v 1.441336 -5.530142 5.724774
v 1.441336 -5.441125 5.818030
v 1.441336 -5.284285 5.919765
v 1.441336 -5.106251 6.093560
v 1.441336 -5.029950 6.220728
v 1.441336 -5.004517 6.263117
v 1.441336 -4.834960 6.263117
v 1.441336 -4.762898 6.356373
v 1.441336 -4.741704 6.432674
vn 1.0000 -0.0000 -0.0000
vn -1.0000 -0.0000 -0.0000
vn -0.0000 0.9987 -0.0508
vn -0.0000 0.3162 -0.9487
vn -0.0000 0.9487 -0.3162
vn -0.0000 0.9517 -0.3070
vn -0.0000 0.7282 -0.6854
vn -0.0000 0.7662 0.6426
vn -0.0000 0.8170 -0.5767
vn -0.0000 0.9985 -0.0555
vn -0.0000 0.8758 0.4826
vn -0.0000 0.9806 0.1961
vn -0.0000 0.6690 -0.7433
vn -0.0000 0.9766 -0.2152
vn -0.0000 0.6459 -0.7634
vn -0.0000 0.4472 -0.8944
vn -0.0000 0.4619 0.8869
vn -0.0000 0.9864 0.1644
vn -0.0000 0.8321 -0.5547
vn -0.0000 0.9701 0.2425
vn -0.0000 0.7719 0.6357
vn -0.0000 0.9975 -0.0712
vn -0.0000 0.3417 -0.9398
vn -0.0000 0.6292 -0.7772
vn -0.0000 0.9833 -0.1821
vn -0.0000 0.8849 0.4657
vn -0.0000 0.9304 -0.3665
vn -0.0000 0.9435 -0.3315
vn -0.0000 0.2334 -0.9724
vn -0.0000 0.7526 -0.6585
vn -0.0000 0.7071 0.7071
vn -0.0000 1.0000 -0.0000
vn -0.0000 0.2983 -0.9545
vn -0.0000 0.5433 0.8396
vn -0.0000 0.8682 -0.4961
vn -0.0000 0.7507 -0.6606
vn -0.0000 -0.0507 -0.9987
vn -0.0000 0.9994 -0.0340
vn -0.0000 0.2456 0.9694
vn -0.0000 0.9971 -0.0758
vn -0.0000 0.1927 0.9812
vn -0.0000 0.0637 0.9980
vn -0.0000 0.0616 0.9981
vn -0.0000 0.9923 0.1240
vn -0.0000 -0.0167 -0.9999
vn -0.0000 0.1843 -0.9829
vn -0.0000 0.7390 -0.6738
vn -0.0000 0.1322 -0.9912
vn -0.0000 0.0540 -0.9985
vn -0.0000 0.8232 -0.5677
vn -0.0000 0.2676 -0.9635
vn -0.0000 0.1644 -0.9864
vn -0.0000 -0.1915 -0.9815
vn -0.0000 -0.5944 -0.8042
vn -0.0000 -0.6139 -0.7893
vn -0.0000 -0.0611 -0.9981
vn -0.0000 -0.9285 -0.3714
vn -0.0000 -0.8615 -0.5077
vn -0.0000 -0.7752 -0.6317
vn -0.0000 -0.7710 -0.6369
vn -0.0000 -0.7463 -0.6656
vn -0.0000 -0.9247 -0.3808
vn -0.0000 -0.8882 -0.4594
vn -0.0000 -0.8520 -0.5235
vn -0.0000 -0.7643 -0.6449
vn -0.0000 -0.5487 -0.8360
vn -0.0000 -0.5010 -0.8654
vn -0.0000 -0.4191 -0.9080
vn -0.0000 -0.2930 -0.9561
vn -0.0000 -0.0637 -0.9980
vn -0.0000 0.3867 -0.9222
vn -0.0000 -0.0000 -1.0000
vn -0.0000 0.4299 -0.9029
vn -0.0000 -0.0995 -0.9950
vn -0.0000 -0.7071 -0.7071
vn -0.0000 -0.8437 0.5369
vn -0.0000 -0.1322 0.9912
vn -0.0000 -0.9941 0.1081
vn -0.0000 -0.9912 0.1322
vn -0.0000 -0.8893 0.4574
vn -0.0000 -0.9080 0.4191
vn -0.0000 -0.9936 0.1129
vn -0.0000 -0.8710 0.4913
vn -0.0000 -0.5914 0.8064
vn -0.0000 -0.0571 0.9984
vn -0.0000 -0.0905 0.9959
vn -0.0000 -0.7226 0.6912
vn -0.0000 -0.0000 1.0000
vn -0.0000 -0.4472 0.8944
vn -0.0000 -0.8575 0.5145
vn -0.0000 0.3285 0.9445
vn -0.0000 0.5547 0.8321
vn -0.0000 -0.7849 0.6196
vn -0.0000 -0.9823 0.1871
vn -0.0000 -0.6295 0.7770
vn -0.0000 0.0587 0.9983
vn -0.0000 -0.9772 0.2124
vn -0.0000 -0.9247 0.3808
vn -0.0000 -0.0217 0.9998
vn -0.0000 -0.3560 0.9345
vn -0.0000 -0.3714 0.9285
vn -0.0000 -0.4789 0.8779
vn -0.0000 -0.5190 0.8548
vn -0.0000 -0.6346 0.7729
vn -0.0000 -0.9899 0.1414
vn -0.0000 -0.9870 0.1607
vn -0.0000 -0.9995 -0.0312
vn -0.0000 -0.6369 0.7710
vn -0.0000 -0.9487 -0.3162
vn -0.0000 -0.7270 -0.6866
vn -0.0000 -0.9933 -0.1155
vn -0.0000 -0.3773 -0.9261
vn -0.0000 -0.4990 -0.8666
vn -0.0000 -0.4741 -0.8805
vn -0.0000 -0.6549 -0.7557
vn -0.0000 -0.9363 0.3511
vn -0.0000 -0.8192 0.5735
vn -0.0000 -0.9265 0.3764
vn -0.0000 -0.3808 0.9247
vn -0.0000 -0.6783 0.7348
vn -0.0000 -0.9578 0.2873
vn -0.0000 -0.8403 0.5421
vn -0.0000 -0.7634 0.6459
vn -0.0000 -0.2026 0.9793
vn -0.0000 -0.0725 0.9974
vn -0.0000 -0.1029 0.9947
vn -0.0000 -0.2964 0.9551
vn -0.0000 -0.4657 0.8849
vn -0.0000 -0.6214 0.7835
vn -0.0000 -0.9648 0.2631
vn -0.0000 -0.7234 0.6905
vn -0.0000 -0.5442 0.8390
vn -0.0000 -0.6985 0.7156
vn -0.0000 -0.7913 0.6114
vn -0.0000 -0.9635 0.2676
vn -0.0000 -0.9603 0.2790
vn -0.0000 -0.0052 -1.0000
vn 1.0000 0.0001 -0.0000
vn -1.0000 0.0001 -0.0000
vn -0.0000 -0.6139 -0.7894
vn -0.0000 -0.9247 -0.3807
vn -0.0000 -0.8893 0.4573
vn -0.0000 0.5547 0.8320
vn -0.0000 -0.9578 0.2874
vn -0.0000 -0.9603 0.2791
vt 0.000000 0.000000
s 0
f 106/1/1 105/1/1 65/1/1
f 245/1/2 246/1/2 176/1/2
f 43/1/3 182/1/3 42/1/3
f 42/1/4 141/1/4 1/1/4
f 1/1/5 142/1/5 2/1/5
f 2/1/6 143/1/6 3/1/6
f 3/1/7 144/1/7 4/1/7
f 4/1/8 145/1/8 5/1/8
f 5/1/9 146/1/9 6/1/9
f 6/1/10 147/1/10 7/1/10
f 7/1/11 148/1/11 8/1/11
f 8/1/12 149/1/12 9/1/12
f 9/1/13 150/1/13 10/1/13
f 10/1/14 151/1/14 11/1/14
f 11/1/15 152/1/15 12/1/15
f 12/1/16 153/1/16 13/1/16
f 13/1/17 154/1/17 14/1/17
f 14/1/18 155/1/18 15/1/18
f 15/1/19 156/1/19 16/1/19
f 16/1/20 157/1/20 17/1/20
f 17/1/21 158/1/21 18/1/21
f 18/1/22 159/1/22 19/1/22
f 19/1/23 160/1/23 20/1/23
f 20/1/24 161/1/24 21/1/24
f 21/1/25 162/1/25 22/1/25
f 22/1/26 163/1/26 23/1/26
f 23/1/27 164/1/27 24/1/27
f 24/1/28 165/1/28 25/1/28
f 25/1/29 166/1/29 26/1/29
f 26/1/30 167/1/30 27/1/30
f 27/1/31 168/1/31 28/1/31
f 28/1/32 169/1/32 29/1/32
f 29/1/33 170/1/33 30/1/33
f 30/1/34 171/1/34 31/1/34
f 31/1/35 172/1/35 32/1/35
f 32/1/36 173/1/36 33/1/36
f 33/1/37 174/1/37 34/1/37
f 34/1/38 180/1/38 40/1/38
f 35/1/39 181/1/39 41/1/39
f 36/1/40 175/1/40 35/1/40
f 37/1/41 176/1/41 36/1/41
f 38/1/42 177/1/42 37/1/42
f 39/1/43 178/1/43 38/1/43
f 40/1/44 179/1/44 39/1/44
f 45/1/45 184/1/45 44/1/45
f 46/1/46 185/1/46 45/1/46
f 47/1/47 186/1/47 46/1/47
f 48/1/48 187/1/48 47/1/48
f 49/1/49 188/1/49 48/1/49
f 50/1/50 189/1/50 49/1/50
f 51/1/51 190/1/51 50/1/51
f 52/1/52 191/1/52 51/1/52
f 53/1/53 192/1/53 52/1/53
f 54/1/54 193/1/54 53/1/54
f 55/1/55 194/1/55 54/1/55
f 56/1/56 195/1/56 55/1/56
f 57/1/57 196/1/57 56/1/57
f 58/1/58 197/1/58 57/1/58
f 59/1/59 198/1/59 58/1/59
f 60/1/60 199/1/60 59/1/60
f 61/1/61 200/1/61 60/1/61
f 62/1/62 201/1/62 61/1/62
f 63/1/63 202/1/63 62/1/63
f 64/1/64 203/1/64 63/1/64
f 65/1/65 204/1/65 64/1/65
f 66/1/66 205/1/66 65/1/66
f 67/1/67 206/1/67 66/1/67
f 68/1/68 207/1/68 67/1/68
f 69/1/69 208/1/69 68/1/69
f 70/1/70 209/1/70 69/1/70
f 71/1/52 210/1/52 70/1/52
f 72/1/71 211/1/71 71/1/71
f 73/1/72 212/1/72 72/1/72
f 74/1/73 213/1/73 73/1/73
f 75/1/74 214/1/74 74/1/74
f 76/1/75 215/1/75 75/1/75
f 77/1/76 216/1/76 76/1/76
f 78/1/77 217/1/77 77/1/77
f 79/1/78 218/1/78 78/1/78
f 80/1/79 219/1/79 79/1/79
f 81/1/80 220/1/80 80/1/80
f 82/1/81 221/1/81 81/1/81
f 83/1/82 222/1/82 82/1/82
f 84/1/83 223/1/83 83/1/83
f 85/1/84 224/1/84 84/1/84
f 86/1/85 225/1/85 85/1/85
f 87/1/86 226/1/86 86/1/86
f 88/1/87 227/1/87 87/1/87
f 89/1/88 228/1/88 88/1/88
f 90/1/89 229/1/89 89/1/89
f 91/1/90 230/1/90 90/1/90
f 92/1/91 231/1/91 91/1/91
f 93/1/92 232/1/92 92/1/92
f 94/1/93 233/1/93 93/1/93
f 95/1/94 234/1/94 94/1/94
f 96/1/95 235/1/95 95/1/95
f 97/1/96 236/1/96 96/1/96
f 98/1/97 237/1/97 97/1/97
f 99/1/98 238/1/98 98/1/98
f 100/1/99 239/1/99 99/1/99
f 101/1/100 240/1/100 100/1/100
f 102/1/101 241/1/101 101/1/101
f 103/1/102 242/1/102 102/1/102
f 104/1/88 243/1/88 103/1/88
f 105/1/103 244/1/103 104/1/103
f 106/1/104 245/1/104 105/1/104
f 107/1/105 246/1/105 106/1/105
f 108/1/106 247/1/106 107/1/106
f 109/1/107 248/1/107 108/1/107
f 110/1/108 249/1/108 109/1/108
f 111/1/109 250/1/109 110/1/109
f 112/1/110 251/1/110 111/1/110
f 113/1/111 252/1/111 112/1/111
f 114/1/112 253/1/112 113/1/112
f 115/1/113 254/1/113 114/1/113
f 116/1/114 255/1/114 115/1/114
f 117/1/115 256/1/115 116/1/115
f 118/1/116 257/1/116 117/1/116
f 119/1/117 258/1/117 118/1/117
f 120/1/118 259/1/118 119/1/118
f 121/1/119 260/1/119 120/1/119
f 122/1/120 261/1/120 121/1/120
f 123/1/121 262/1/121 122/1/121
f 124/1/122 263/1/122 123/1/122
f 125/1/123 264/1/123 124/1/123
f 126/1/124 265/1/124 125/1/124
f 127/1/125 266/1/125 126/1/125
f 128/1/126 267/1/126 127/1/126
f 129/1/127 268/1/127 128/1/127
f 130/1/128 269/1/128 129/1/128
f 131/1/129 270/1/129 130/1/129
f 132/1/130 271/1/130 131/1/130
f 133/1/131 272/1/131 132/1/131
f 134/1/132 273/1/132 133/1/132
f 135/1/133 274/1/133 134/1/133
f 136/1/90 275/1/90 135/1/90
f 137/1/90 276/1/90 136/1/90
f 138/1/88 277/1/88 137/1/88
f 139/1/134 278/1/134 138/1/134
f 140/1/135 279/1/135 139/1/135
f 41/1/136 280/1/136 140/1/136
f 44/1/137 183/1/137 43/1/137
f 40/1/1 39/1/1 38/1/1
f 40/1/1 38/1/1 37/1/1
f 33/1/1 34/1/1 40/1/1
f 33/1/1 40/1/1 37/1/1
f 36/1/1 35/1/1 41/1/1
f 33/1/1 37/1/1 36/1/1
f 32/1/1 33/1/1 36/1/1
f 36/1/1 41/1/1 140/1/1
f 36/1/1 140/1/1 139/1/1
f 31/1/1 32/1/1 36/1/1
f 29/1/1 30/1/1 31/1/1
f 26/1/1 27/1/1 28/1/1
f 28/1/1 29/1/1 31/1/1
f 36/1/1 139/1/1 138/1/1
f 28/1/1 31/1/1 36/1/1
f 25/1/1 26/1/1 28/1/1
f 23/1/1 24/1/1 25/1/1
f 21/1/1 22/1/1 23/1/1
f 19/1/1 20/1/1 21/1/1
f 16/1/1 17/1/1 18/1/1
f 19/1/1 21/1/1 23/1/1
f 15/1/1 16/1/1 18/1/1
f 19/1/1 23/1/1 25/1/1
f 15/1/1 18/1/1 19/1/1
f 12/1/1 13/1/1 14/1/1
f 11/1/1 12/1/1 14/1/1
f 9/1/1 10/1/1 11/1/1
f 6/1/1 7/1/1 8/1/1
f 9/1/1 11/1/1 14/1/1
f 5/1/1 6/1/1 8/1/1
f 9/1/1 14/1/1 15/1/1
f 5/1/1 8/1/1 9/1/1
f 3/1/1 4/1/1 5/1/1
f 1/1/1 2/1/1 3/1/1
f 44/1/1 43/1/1 42/1/1
f 42/1/1 1/1/1 3/1/1
f 3/1/1 5/1/1 9/1/1
f 42/1/1 3/1/1 9/1/1
f 45/1/1 44/1/1 42/1/1
f 48/1/1 47/1/1 46/1/1
f 46/1/1 45/1/1 42/1/1
f 42/1/1 9/1/1 15/1/1
f 46/1/1 42/1/1 15/1/1
f 49/1/1 48/1/1 46/1/1
f 51/1/1 50/1/1 49/1/1
f 53/1/1 52/1/1 51/1/1
f 55/1/1 54/1/1 53/1/1
f 57/1/1 56/1/1 55/1/1
f 58/1/1 57/1/1 55/1/1
f 55/1/1 53/1/1 51/1/1
f 49/1/1 46/1/1 15/1/1
f 55/1/1 51/1/1 49/1/1
f 59/1/1 58/1/1 55/1/1
f 62/1/1 61/1/1 60/1/1
f 60/1/1 59/1/1 55/1/1
f 55/1/1 49/1/1 15/1/1
f 55/1/1 15/1/1 19/1/1
f 62/1/1 60/1/1 55/1/1
f 63/1/1 62/1/1 55/1/1
f 55/1/1 19/1/1 25/1/1
f 25/1/1 28/1/1 36/1/1
f 36/1/1 138/1/1 137/1/1
f 36/1/1 137/1/1 136/1/1
f 55/1/1 25/1/1 36/1/1
f 64/1/1 63/1/1 55/1/1
f 65/1/1 64/1/1 55/1/1
f 55/1/1 36/1/1 136/1/1
f 55/1/1 136/1/1 135/1/1
f 65/1/1 55/1/1 135/1/1
f 134/1/1 133/1/1 132/1/1
f 73/1/1 72/1/1 71/1/1
f 75/1/1 74/1/1 73/1/1
f 77/1/1 76/1/1 75/1/1
f 80/1/138 79/1/138 78/1/138
f 78/1/1 77/1/1 75/1/1
f 75/1/1 73/1/1 71/1/1
f 78/1/1 75/1/1 71/1/1
f 81/1/1 80/1/1 78/1/1
f 84/1/1 83/1/1 82/1/1
f 82/1/1 81/1/1 78/1/1
f 78/1/1 71/1/1 70/1/1
f 78/1/1 70/1/1 69/1/1
f 84/1/1 82/1/1 78/1/1
f 86/1/1 85/1/1 84/1/1
f 89/1/1 88/1/1 87/1/1
f 87/1/1 86/1/1 84/1/1
f 84/1/1 78/1/1 69/1/1
f 84/1/1 69/1/1 68/1/1
f 87/1/1 84/1/1 68/1/1
f 87/1/1 68/1/1 67/1/1
f 89/1/1 87/1/1 67/1/1
f 89/1/1 67/1/1 66/1/1
f 92/1/1 91/1/1 90/1/1
f 90/1/1 89/1/1 66/1/1
f 134/1/1 132/1/1 131/1/1
f 135/1/1 134/1/1 131/1/1
f 90/1/1 66/1/1 65/1/1
f 93/1/1 92/1/1 90/1/1
f 96/1/1 95/1/1 94/1/1
f 93/1/1 90/1/1 65/1/1
f 96/1/1 94/1/1 93/1/1
f 99/1/1 98/1/1 97/1/1
f 97/1/1 96/1/1 93/1/1
f 127/1/1 126/1/1 125/1/1
f 125/1/1 124/1/1 123/1/1
f 125/1/1 123/1/1 122/1/1
f 128/1/1 127/1/1 125/1/1
f 128/1/1 125/1/1 122/1/1
f 121/1/1 120/1/1 119/1/1
f 128/1/1 122/1/1 121/1/1
f 129/1/1 128/1/1 121/1/1
f 121/1/1 119/1/1 118/1/1
f 118/1/1 117/1/1 116/1/1
f 115/1/1 114/1/1 113/1/1
f 118/1/1 116/1/1 115/1/1
f 129/1/1 121/1/1 118/1/1
f 130/1/1 129/1/1 118/1/1
f 118/1/1 115/1/1 113/1/1
f 113/1/1 112/1/1 111/1/1
f 110/1/1 109/1/1 108/1/1
f 110/1/1 108/1/1 107/1/1
f 110/1/1 107/1/1 106/1/1
f 104/1/1 103/1/1 102/1/1
f 104/1/1 102/1/1 101/1/1
f 104/1/1 101/1/1 100/1/1
f 100/1/1 99/1/1 97/1/1
f 97/1/1 93/1/1 65/1/1
f 130/1/1 118/1/1 113/1/1
f 130/1/1 113/1/1 111/1/1
f 131/1/1 130/1/1 111/1/1
f 131/1/1 111/1/1 110/1/1
f 100/1/1 97/1/1 65/1/1
f 104/1/1 100/1/1 65/1/1
f 135/1/1 131/1/1 110/1/1
f 135/1/1 110/1/1 106/1/1
f 105/1/1 104/1/1 65/1/1
f 65/1/1 135/1/1 106/1/1
f 178/1/2 179/1/2 180/1/2
f 180/1/2 174/1/2 173/1/2
f 178/1/2 180/1/2 173/1/2
f 177/1/2 178/1/2 173/1/2
f 177/1/2 173/1/2 172/1/2
f 181/1/2 175/1/2 176/1/2
f 176/1/2 177/1/2 172/1/2
f 171/1/2 170/1/2 169/1/2
f 176/1/2 172/1/2 171/1/2
f 280/1/2 181/1/2 176/1/2
f 279/1/2 280/1/2 176/1/2
f 176/1/2 171/1/2 169/1/2
f 168/1/2 167/1/2 166/1/2
f 176/1/2 169/1/2 168/1/2
f 278/1/2 279/1/2 176/1/2
f 276/1/2 277/1/2 278/1/2
f 275/1/2 276/1/2 278/1/2
f 176/1/2 168/1/2 166/1/2
f 275/1/2 278/1/2 176/1/2
f 272/1/2 273/1/2 274/1/2
f 274/1/2 275/1/2 176/1/2
f 176/1/2 166/1/2 165/1/2
f 165/1/2 164/1/2 163/1/2
f 163/1/2 162/1/2 161/1/2
f 161/1/2 160/1/2 159/1/2
f 158/1/2 157/1/2 156/1/2
f 163/1/2 161/1/2 159/1/2
f 158/1/2 156/1/2 155/1/2
f 165/1/2 163/1/2 159/1/2
f 159/1/2 158/1/2 155/1/2
f 154/1/2 153/1/2 152/1/2
f 154/1/2 152/1/2 151/1/2
f 151/1/2 150/1/2 149/1/2
f 148/1/2 147/1/2 146/1/2
f 154/1/2 151/1/2 149/1/2
f 148/1/2 146/1/2 145/1/2
f 155/1/2 154/1/2 149/1/2
f 149/1/2 148/1/2 145/1/2
f 145/1/2 144/1/2 143/1/2
f 143/1/2 142/1/2 141/1/2
f 182/1/2 183/1/2 184/1/2
f 143/1/2 141/1/2 182/1/2
f 149/1/2 145/1/2 143/1/2
f 149/1/2 143/1/2 182/1/2
f 182/1/2 184/1/2 185/1/2
f 186/1/2 187/1/2 188/1/2
f 182/1/2 185/1/2 186/1/2
f 155/1/2 149/1/2 182/1/2
f 176/1/2 165/1/2 159/1/2
f 155/1/2 182/1/2 186/1/2
f 176/1/2 159/1/2 155/1/2
f 272/1/2 274/1/2 176/1/2
f 271/1/2 272/1/2 176/1/2
f 176/1/2 155/1/2 186/1/2
f 186/1/2 188/1/2 189/1/2
f 189/1/2 190/1/2 191/1/2
f 191/1/2 192/1/2 193/1/2
f 193/1/139 194/1/139 195/1/139
f 195/1/2 196/1/2 197/1/2
f 195/1/2 197/1/2 198/1/2
f 191/1/2 193/1/2 195/1/2
f 176/1/2 186/1/2 189/1/2
f 189/1/2 191/1/2 195/1/2
f 195/1/2 198/1/2 199/1/2
f 200/1/2 201/1/2 202/1/2
f 195/1/2 199/1/2 200/1/2
f 176/1/2 189/1/2 195/1/2
f 270/1/2 271/1/2 176/1/2
f 269/1/2 270/1/2 176/1/2
f 176/1/2 195/1/2 200/1/2
f 200/1/2 202/1/2 203/1/2
f 176/1/2 200/1/2 203/1/2
f 268/1/2 269/1/2 176/1/2
f 265/1/2 266/1/2 267/1/2
f 267/1/2 268/1/2 176/1/2
f 176/1/2 203/1/2 204/1/2
f 176/1/2 204/1/2 205/1/2
f 265/1/2 267/1/2 176/1/2
f 263/1/2 264/1/2 265/1/2
f 262/1/2 263/1/2 265/1/2
f 176/1/2 205/1/2 206/1/2
f 176/1/2 206/1/2 207/1/2
f 262/1/2 265/1/2 176/1/2
f 259/1/2 260/1/2 261/1/2
f 261/1/2 262/1/2 176/1/2
f 176/1/2 207/1/2 208/1/2
f 176/1/2 208/1/2 209/1/2
f 259/1/2 261/1/2 176/1/2
f 257/1/2 258/1/2 259/1/2
f 255/1/2 256/1/2 257/1/2
f 253/1/2 254/1/2 255/1/2
f 251/1/2 252/1/2 253/1/2
f 248/1/2 249/1/2 250/1/2
f 247/1/2 248/1/2 250/1/2
f 246/1/2 247/1/2 250/1/2
f 242/1/2 243/1/2 244/1/2
f 241/1/2 242/1/2 244/1/2
f 240/1/2 241/1/2 244/1/2
f 238/1/2 239/1/2 240/1/2
f 235/1/2 236/1/2 237/1/2
f 237/1/2 238/1/2 240/1/2
f 237/1/2 240/1/2 244/1/2
f 234/1/2 235/1/2 237/1/2
f 231/1/2 232/1/2 233/1/2
f 233/1/2 234/1/2 237/1/2
f 233/1/2 237/1/2 244/1/2
f 230/1/2 231/1/2 233/1/2
f 227/1/2 228/1/2 229/1/2
f 229/1/2 230/1/2 233/1/2
f 233/1/2 244/1/2 245/1/2
f 227/1/2 229/1/2 233/1/2
f 224/1/2 225/1/2 226/1/2
f 224/1/2 226/1/2 227/1/2
f 222/1/2 223/1/2 224/1/2
f 219/1/2 220/1/2 221/1/2
f 222/1/2 224/1/2 227/1/2
f 219/1/2 221/1/2 222/1/2
f 216/1/2 217/1/2 218/1/2
f 218/1/2 219/1/2 222/1/2
f 222/1/2 227/1/2 233/1/2
f 218/1/2 222/1/2 233/1/2
f 215/1/2 216/1/2 218/1/2
f 213/1/2 214/1/2 215/1/2
f 211/1/2 212/1/2 213/1/2
f 176/1/2 209/1/2 210/1/2
f 211/1/2 213/1/2 215/1/2
f 176/1/2 210/1/2 211/1/2
f 257/1/2 259/1/2 176/1/2
f 253/1/2 255/1/2 257/1/2
f 253/1/2 257/1/2 176/1/2
f 176/1/2 211/1/2 215/1/2
f 215/1/2 218/1/2 233/1/2
f 215/1/2 233/1/2 245/1/2
f 251/1/2 253/1/2 176/1/2
f 250/1/2 251/1/2 176/1/2
f 176/1/2 215/1/2 245/1/2
f 246/1/2 250/1/2 176/1/2
f 43/1/3 183/1/3 182/1/3
f 42/1/4 182/1/4 141/1/4
f 1/1/5 141/1/5 142/1/5
f 2/1/6 142/1/6 143/1/6
f 3/1/7 143/1/7 144/1/7
f 4/1/8 144/1/8 145/1/8
f 5/1/9 145/1/9 146/1/9
f 6/1/10 146/1/10 147/1/10
f 7/1/11 147/1/11 148/1/11
f 8/1/12 148/1/12 149/1/12
f 9/1/13 149/1/13 150/1/13
f 10/1/14 150/1/14 151/1/14
f 11/1/15 151/1/15 152/1/15
f 12/1/16 152/1/16 153/1/16
f 13/1/17 153/1/17 154/1/17
f 14/1/18 154/1/18 155/1/18
f 15/1/19 155/1/19 156/1/19
f 16/1/20 156/1/20 157/1/20
f 17/1/21 157/1/21 158/1/21
f 18/1/22 158/1/22 159/1/22
f 19/1/23 159/1/23 160/1/23
f 20/1/24 160/1/24 161/1/24
f 21/1/25 161/1/25 162/1/25
f 22/1/26 162/1/26 163/1/26
f 23/1/27 163/1/27 164/1/27
f 24/1/28 164/1/28 165/1/28
f 25/1/29 165/1/29 166/1/29
f 26/1/30 166/1/30 167/1/30
f 27/1/31 167/1/31 168/1/31
f 28/1/32 168/1/32 169/1/32
f 29/1/33 169/1/33 170/1/33
f 30/1/34 170/1/34 171/1/34
f 31/1/35 171/1/35 172/1/35
f 32/1/36 172/1/36 173/1/36
f 33/1/37 173/1/37 174/1/37
f 34/1/38 174/1/38 180/1/38
f 35/1/39 175/1/39 181/1/39
f 36/1/40 176/1/40 175/1/40
f 37/1/41 177/1/41 176/1/41
f 38/1/42 178/1/42 177/1/42
f 39/1/43 179/1/43 178/1/43
f 40/1/44 180/1/44 179/1/44
f 45/1/45 185/1/45 184/1/45
f 46/1/46 186/1/46 185/1/46
f 47/1/47 187/1/47 186/1/47
f 48/1/48 188/1/48 187/1/48
f 49/1/49 189/1/49 188/1/49
f 50/1/50 190/1/50 189/1/50
f 51/1/51 191/1/51 190/1/51
f 52/1/52 192/1/52 191/1/52
f 53/1/53 193/1/53 192/1/53
f 54/1/54 194/1/54 193/1/54
f 55/1/140 195/1/140 194/1/140
f 56/1/56 196/1/56 195/1/56
f 57/1/57 197/1/57 196/1/57
f 58/1/58 198/1/58 197/1/58
f 59/1/59 199/1/59 198/1/59
f 60/1/60 200/1/60 199/1/60
f 61/1/61 201/1/61 200/1/61
f 62/1/141 202/1/141 201/1/141
f 63/1/63 203/1/63 202/1/63
f 64/1/64 204/1/64 203/1/64
f 65/1/65 205/1/65 204/1/65
f 66/1/66 206/1/66 205/1/66
f 67/1/67 207/1/67 206/1/67
f 68/1/68 208/1/68 207/1/68
f 69/1/69 209/1/69 208/1/69
f 70/1/70 210/1/70 209/1/70
f 71/1/52 211/1/52 210/1/52
f 72/1/71 212/1/71 211/1/71
f 73/1/72 213/1/72 212/1/72
f 74/1/73 214/1/73 213/1/73
f 75/1/74 215/1/74 214/1/74
f 76/1/75 216/1/75 215/1/75
f 77/1/76 217/1/76 216/1/76
f 78/1/77 218/1/77 217/1/77
f 79/1/78 219/1/78 218/1/78
f 80/1/79 220/1/79 219/1/79
f 81/1/142 221/1/142 220/1/142
f 82/1/81 222/1/81 221/1/81
f 83/1/82 223/1/82 222/1/82
f 84/1/83 224/1/83 223/1/83
f 85/1/84 225/1/84 224/1/84
f 86/1/85 226/1/85 225/1/85
f 87/1/86 227/1/86 226/1/86
f 88/1/87 228/1/87 227/1/87
f 89/1/88 229/1/88 228/1/88
f 90/1/89 230/1/89 229/1/89
f 91/1/90 231/1/90 230/1/90
f 92/1/91 232/1/91 231/1/91
f 93/1/143 233/1/143 232/1/143
f 94/1/93 234/1/93 233/1/93
f 95/1/94 235/1/94 234/1/94
f 96/1/95 236/1/95 235/1/95
f 97/1/96 237/1/96 236/1/96
f 98/1/97 238/1/97 237/1/97
f 99/1/98 239/1/98 238/1/98
f 100/1/99 240/1/99 239/1/99
f 101/1/100 241/1/100 240/1/100
f 102/1/101 242/1/101 241/1/101
f 103/1/102 243/1/102 242/1/102
f 104/1/88 244/1/88 243/1/88
f 105/1/103 245/1/103 244/1/103
f 106/1/104 246/1/104 245/1/104
f 107/1/105 247/1/105 246/1/105
f 108/1/106 248/1/106 247/1/106
f 109/1/107 249/1/107 248/1/107
f 110/1/108 250/1/108 249/1/108
f 111/1/109 251/1/109 250/1/109
f 112/1/110 252/1/110 251/1/110
f 113/1/111 253/1/111 252/1/111
f 114/1/112 254/1/112 253/1/112
f 115/1/113 255/1/113 254/1/113
f 116/1/114 256/1/114 255/1/114
f 117/1/115 257/1/115 256/1/115
f 118/1/116 258/1/116 257/1/116
f 119/1/117 259/1/117 258/1/117
f 120/1/118 260/1/118 259/1/118
f 121/1/119 261/1/119 260/1/119
f 122/1/120 262/1/120 261/1/120
f 123/1/144 263/1/144 262/1/144
f 124/1/122 264/1/122 263/1/122
f 125/1/123 265/1/123 264/1/123
f 126/1/124 266/1/124 265/1/124
f 127/1/125 267/1/125 266/1/125
f 128/1/126 268/1/126 267/1/126
f 129/1/127 269/1/127 268/1/127
f 130/1/128 270/1/128 269/1/128
f 131/1/129 271/1/129 270/1/129
f 132/1/130 272/1/130 271/1/130
f 133/1/131 273/1/131 272/1/131
f 134/1/132 274/1/132 273/1/132
f 135/1/133 275/1/133 274/1/133
f 136/1/90 276/1/90 275/1/90
f 137/1/90 277/1/90 276/1/90
f 138/1/88 278/1/88 277/1/88
f 139/1/134 279/1/134 278/1/134
f 140/1/135 280/1/135 279/1/135
f 41/1/145 181/1/145 280/1/145
f 44/1/137 184/1/137 183/1/137
