# Blender 5.2.0 LTS
# www.blender.org
mtllib Washington.mtl
o Plane.051
v 1.441337 9.008187 10.465221
v 1.441337 9.223125 11.305432
v 1.441337 9.682311 12.932121
v 1.441337 9.657887 12.937006
v 1.441337 9.359904 12.819767
v 1.441337 9.271976 12.819767
v 1.441337 9.159621 12.897926
v 1.441337 8.910489 12.873502
v 1.441337 8.822560 12.897926
v 1.441337 8.959339 12.966315
v 1.441337 9.037498 13.137289
v 1.441337 9.091233 13.293608
v 1.441337 9.096118 13.405961
v 1.441337 9.252437 13.718598
v 1.441337 9.477144 13.992155
v 1.441337 9.144968 14.094739
v 1.441337 9.017960 13.972615
v 1.441337 8.465961 13.972615
v 1.441337 8.426881 13.909111
v 1.441337 8.363377 13.894456
v 1.441337 8.334067 14.055659
v 1.441337 8.290103 14.065430
v 1.441337 8.187519 13.957960
v 1.441337 8.138670 13.957960
v 1.441337 8.021431 14.099625
v 1.441337 7.962811 14.104509
v 1.441337 7.865112 14.041005
v 1.441337 7.801608 13.997040
v 1.441337 7.806493 13.850492
v 1.441337 7.757644 13.821182
v 1.441337 7.733219 13.743023
v 1.441337 7.567131 13.576935
v 1.441337 7.234954 13.601359
v 1.441337 7.127485 13.459696
v 1.441337 7.137255 12.907696
v 1.441337 7.015131 12.687874
v 1.441337 7.034671 12.629254
v 1.441337 7.059095 12.546209
v 1.441337 6.956511 12.394776
v 1.441337 7.020016 12.331272
v 1.441337 7.000476 11.725538
v 1.441337 6.770884 10.665504
v 1.441337 8.941895 10.160138
v 1.441337 7.159193 10.567753
v 1.441337 6.707379 10.577575
v 2.441337 9.008187 10.465221
v 2.441337 9.223125 11.305432
v 2.441337 9.682311 12.932121
v 2.441337 9.657887 12.937006
v 2.441337 9.359904 12.819767
v 2.441337 9.271976 12.819767
v 2.441337 9.159621 12.897926
v 2.441337 8.910489 12.873502
v 2.441337 8.822560 12.897926
v 2.441337 8.959339 12.966315
v 2.441337 9.037498 13.137289
v 2.441337 9.091233 13.293608
v 2.441337 9.096118 13.405961
v 2.441337 9.252437 13.718598
v 2.441337 9.477144 13.992155
v 2.441337 9.144968 14.094739
v 2.441337 9.017960 13.972615
v 2.441337 8.465961 13.972615
v 2.441337 8.426881 13.909111
v 2.441337 8.363377 13.894456
v 2.441337 8.334067 14.055659
v 2.441337 8.290103 14.065430
v 2.441337 8.187519 13.957960
v 2.441337 8.138670 13.957960
v 2.441337 8.021431 14.099625
v 2.441337 7.962811 14.104509
v 2.441337 7.865112 14.041005
v 2.441337 7.801608 13.997040
v 2.441337 7.806493 13.850492
v 2.441337 7.757644 13.821182
v 2.441337 7.733219 13.743023
v 2.441337 7.567131 13.576935
v 2.441337 7.234954 13.601359
v 2.441337 7.127485 13.459696
v 2.441337 7.137255 12.907696
v 2.441337 7.015131 12.687874
v 2.441337 7.034671 12.629254
v 2.441337 7.059095 12.546209
v 2.441337 6.956511 12.394776
v 2.441337 7.020016 12.331272
v 2.441337 7.000476 11.725538
v 2.441337 6.770884 10.665504
v 2.441337 8.941895 10.160138
v 2.441337 7.159193 10.567753
v 2.441337 6.707379 10.577575
vn -1.0000 -0.0000 -0.0000
vn 1.0000 -0.0000 -0.0000
vn -0.0000 0.9772 -0.2123
vn -0.0000 0.9688 -0.2478
vn -0.0000 0.9624 -0.2717
vn -0.0000 0.1961 0.9806
vn -0.0000 -0.3661 0.9306
vn -0.0000 -0.0000 1.0000
vn -0.0000 0.5711 0.8209
vn -0.0000 -0.0976 0.9952
vn -0.0000 0.2676 0.9635
vn -0.0000 0.4472 -0.8944
vn -0.0000 0.9095 -0.4158
vn -0.0000 0.9457 -0.3251
vn -0.0000 0.9991 -0.0434
vn -0.0000 0.8944 -0.4472
vn -0.0000 0.7727 -0.6347
vn -0.0000 0.2951 0.9555
vn -0.0000 -0.6931 0.7208
vn -0.0000 -0.8517 0.5241
vn -0.0000 -0.2249 0.9744
vn -0.0000 0.9839 0.1789
vn -0.0000 0.2169 0.9762
vn -0.0000 -0.7234 0.6905
vn -0.0000 0.7704 0.6376
vn -0.0000 0.0830 0.9965
vn -0.0000 -0.5450 0.8384
vn -0.0000 -0.5692 0.8222
vn -0.0000 -0.9994 -0.0333
vn -0.0000 -0.5145 0.8575
vn -0.0000 -0.9545 0.2983
vn -0.0000 -0.7071 0.7071
vn -0.0000 0.0733 0.9973
vn -0.0000 -0.7967 0.6044
vn -0.0000 -0.9998 -0.0177
vn -0.0000 -0.8742 0.4856
vn -0.0000 -0.9487 -0.3162
vn -0.0000 -0.9594 -0.2822
vn -0.0000 -0.8279 0.5608
vn -0.0000 -0.7071 -0.7071
vn -0.0000 -0.9995 0.0322
vn -0.0000 -0.9773 0.2117
vn -0.0000 -0.8107 0.5855
vn -0.0000 -0.2229 -0.9748
vn -0.0000 -0.0217 -0.9998
vt 0.000000 0.000000
s 0
f 44/1/1 20/1/1 17/1/1
f 89/1/2 65/1/2 68/1/2
f 1/1/3 88/1/3 43/1/3
f 2/1/4 46/1/4 1/1/4
f 3/1/5 47/1/5 2/1/5
f 4/1/6 48/1/6 3/1/6
f 5/1/7 49/1/7 4/1/7
f 6/1/8 50/1/8 5/1/8
f 7/1/9 51/1/9 6/1/9
f 8/1/10 52/1/10 7/1/10
f 9/1/11 53/1/11 8/1/11
f 10/1/12 54/1/12 9/1/12
f 11/1/13 55/1/13 10/1/13
f 12/1/14 56/1/14 11/1/14
f 13/1/15 57/1/15 12/1/15
f 14/1/16 58/1/16 13/1/16
f 15/1/17 59/1/17 14/1/17
f 16/1/18 60/1/18 15/1/18
f 17/1/19 61/1/19 16/1/19
f 18/1/8 62/1/8 17/1/8
f 19/1/20 63/1/20 18/1/20
f 20/1/21 64/1/21 19/1/21
f 21/1/22 65/1/22 20/1/22
f 22/1/23 66/1/23 21/1/23
f 23/1/24 67/1/24 22/1/24
f 24/1/8 68/1/8 23/1/8
f 25/1/25 69/1/25 24/1/25
f 26/1/26 70/1/26 25/1/26
f 27/1/27 71/1/27 26/1/27
f 28/1/28 72/1/28 27/1/28
f 29/1/29 73/1/29 28/1/29
f 30/1/30 74/1/30 29/1/30
f 31/1/31 75/1/31 30/1/31
f 32/1/32 76/1/32 31/1/32
f 33/1/33 77/1/33 32/1/33
f 34/1/34 78/1/34 33/1/34
f 35/1/35 79/1/35 34/1/35
f 36/1/36 80/1/36 35/1/36
f 37/1/37 81/1/37 36/1/37
f 38/1/38 82/1/38 37/1/38
f 39/1/39 83/1/39 38/1/39
f 40/1/40 84/1/40 39/1/40
f 41/1/41 85/1/41 40/1/41
f 42/1/42 86/1/42 41/1/42
f 45/1/43 87/1/43 42/1/43
f 43/1/44 89/1/44 44/1/44
f 44/1/45 90/1/45 45/1/45
f 44/1/1 45/1/1 42/1/1
f 44/1/1 42/1/1 41/1/1
f 1/1/1 43/1/1 44/1/1
f 4/1/1 3/1/1 2/1/1
f 2/1/1 1/1/1 44/1/1
f 44/1/1 41/1/1 40/1/1
f 40/1/1 39/1/1 38/1/1
f 37/1/1 36/1/1 35/1/1
f 44/1/1 40/1/1 38/1/1
f 38/1/1 37/1/1 35/1/1
f 35/1/1 34/1/1 33/1/1
f 35/1/1 33/1/1 32/1/1
f 44/1/1 38/1/1 35/1/1
f 4/1/1 2/1/1 44/1/1
f 5/1/1 4/1/1 44/1/1
f 44/1/1 35/1/1 32/1/1
f 31/1/1 30/1/1 29/1/1
f 44/1/1 32/1/1 31/1/1
f 6/1/1 5/1/1 44/1/1
f 8/1/1 7/1/1 6/1/1
f 11/1/1 10/1/1 9/1/1
f 8/1/1 6/1/1 44/1/1
f 12/1/1 11/1/1 9/1/1
f 9/1/1 8/1/1 44/1/1
f 44/1/1 31/1/1 29/1/1
f 29/1/1 28/1/1 27/1/1
f 27/1/1 26/1/1 25/1/1
f 27/1/1 25/1/1 24/1/1
f 44/1/1 29/1/1 27/1/1
f 12/1/1 9/1/1 44/1/1
f 13/1/1 12/1/1 44/1/1
f 44/1/1 27/1/1 24/1/1
f 23/1/1 22/1/1 21/1/1
f 44/1/1 24/1/1 23/1/1
f 14/1/1 13/1/1 44/1/1
f 16/1/1 15/1/1 14/1/1
f 19/1/1 18/1/1 17/1/1
f 17/1/1 16/1/1 14/1/1
f 44/1/1 23/1/1 21/1/1
f 20/1/1 19/1/1 17/1/1
f 44/1/1 21/1/1 20/1/1
f 17/1/1 14/1/1 44/1/1
f 89/1/2 88/1/2 46/1/2
f 47/1/2 48/1/2 49/1/2
f 89/1/2 46/1/2 47/1/2
f 87/1/2 90/1/2 89/1/2
f 86/1/2 87/1/2 89/1/2
f 89/1/2 47/1/2 49/1/2
f 89/1/2 49/1/2 50/1/2
f 85/1/2 86/1/2 89/1/2
f 83/1/2 84/1/2 85/1/2
f 80/1/2 81/1/2 82/1/2
f 83/1/2 85/1/2 89/1/2
f 80/1/2 82/1/2 83/1/2
f 78/1/2 79/1/2 80/1/2
f 77/1/2 78/1/2 80/1/2
f 80/1/2 83/1/2 89/1/2
f 89/1/2 50/1/2 51/1/2
f 51/1/2 52/1/2 53/1/2
f 54/1/2 55/1/2 56/1/2
f 89/1/2 51/1/2 53/1/2
f 54/1/2 56/1/2 57/1/2
f 89/1/2 53/1/2 54/1/2
f 77/1/2 80/1/2 89/1/2
f 74/1/2 75/1/2 76/1/2
f 76/1/2 77/1/2 89/1/2
f 89/1/2 54/1/2 57/1/2
f 89/1/2 57/1/2 58/1/2
f 74/1/2 76/1/2 89/1/2
f 72/1/2 73/1/2 74/1/2
f 70/1/2 71/1/2 72/1/2
f 69/1/2 70/1/2 72/1/2
f 72/1/2 74/1/2 89/1/2
f 89/1/2 58/1/2 59/1/2
f 59/1/2 60/1/2 61/1/2
f 62/1/2 63/1/2 64/1/2
f 59/1/2 61/1/2 62/1/2
f 69/1/2 72/1/2 89/1/2
f 66/1/2 67/1/2 68/1/2
f 68/1/2 69/1/2 89/1/2
f 89/1/2 59/1/2 62/1/2
f 62/1/2 64/1/2 65/1/2
f 65/1/2 66/1/2 68/1/2
f 89/1/2 62/1/2 65/1/2
f 1/1/3 46/1/3 88/1/3
f 2/1/4 47/1/4 46/1/4
f 3/1/5 48/1/5 47/1/5
f 4/1/6 49/1/6 48/1/6
f 5/1/7 50/1/7 49/1/7
f 6/1/8 51/1/8 50/1/8
f 7/1/9 52/1/9 51/1/9
f 8/1/10 53/1/10 52/1/10
f 9/1/11 54/1/11 53/1/11
f 10/1/12 55/1/12 54/1/12
f 11/1/13 56/1/13 55/1/13
f 12/1/14 57/1/14 56/1/14
f 13/1/15 58/1/15 57/1/15
f 14/1/16 59/1/16 58/1/16
f 15/1/17 60/1/17 59/1/17
f 16/1/18 61/1/18 60/1/18
f 17/1/19 62/1/19 61/1/19
f 18/1/8 63/1/8 62/1/8
f 19/1/20 64/1/20 63/1/20
f 20/1/21 65/1/21 64/1/21
f 21/1/22 66/1/22 65/1/22
f 22/1/23 67/1/23 66/1/23
f 23/1/24 68/1/24 67/1/24
f 24/1/8 69/1/8 68/1/8
f 25/1/25 70/1/25 69/1/25
f 26/1/26 71/1/26 70/1/26
f 27/1/27 72/1/27 71/1/27
f 28/1/28 73/1/28 72/1/28
f 29/1/29 74/1/29 73/1/29
f 30/1/30 75/1/30 74/1/30
f 31/1/31 76/1/31 75/1/31
f 32/1/32 77/1/32 76/1/32
f 33/1/33 78/1/33 77/1/33
f 34/1/34 79/1/34 78/1/34
f 35/1/35 80/1/35 79/1/35
f 36/1/36 81/1/36 80/1/36
f 37/1/37 82/1/37 81/1/37
f 38/1/38 83/1/38 82/1/38
f 39/1/39 84/1/39 83/1/39
f 40/1/40 85/1/40 84/1/40
f 41/1/41 86/1/41 85/1/41
f 42/1/42 87/1/42 86/1/42
f 45/1/43 90/1/43 87/1/43
f 43/1/44 88/1/44 89/1/44
f 44/1/45 89/1/45 90/1/45
