# Blender 5.2.0 LTS
# www.blender.org
mtllib Wisconsin.mtl
o Plane.032
v 1.441337 6.159179 -2.399301
v 1.441337 6.163985 -2.476205
v 1.441337 6.202437 -2.567529
v 1.441337 6.214454 -2.694901
v 1.441337 3.138509 -4.688235
v 1.441337 3.049364 -3.176192
v 1.441337 3.117429 -3.135352
v 1.441337 3.158268 -3.049136
v 1.441337 3.167344 -2.990146
v 1.441337 3.176419 -2.926618
v 1.441337 3.294399 -2.876702
v 1.441337 3.380615 -2.849477
v 1.441337 3.516746 -2.890317
v 1.441337 3.580274 -2.917542
v 1.441337 3.702791 -2.835864
v 1.441337 3.779932 -2.795024
v 1.441337 3.911525 -2.795024
v 1.441337 4.006817 -2.785949
v 1.441337 4.115722 -2.699733
v 1.441337 4.415209 -2.323104
v 1.441337 4.524114 -2.127983
v 1.441337 4.583104 -1.996390
v 1.441337 4.682933 -1.910174
v 1.441337 4.782763 -1.910174
v 1.441337 4.868979 -1.901099
v 1.441337 4.946119 -1.869335
v 1.441337 5.000571 -1.873873
v 1.441337 5.073174 -1.960089
v 1.441337 5.241070 -1.951014
v 1.441337 5.300059 -1.833034
v 1.441337 5.349975 -1.819421
v 1.441337 5.513331 -1.932863
v 1.441337 5.626774 -2.114371
v 1.441337 5.803743 -2.150672
v 1.441337 6.085080 -2.159748
v 1.441337 6.134995 -2.186975
v 1.441337 3.484169 -4.660947
v 1.441337 3.579681 -4.633658
v 1.441337 3.702481 -4.610917
v 1.441337 3.861666 -4.660947
v 1.441337 4.180037 -4.670043
v 1.441337 4.311934 -4.670043
v 1.441337 4.407446 -4.783748
v 1.441337 4.525698 -4.733718
v 1.441337 4.625757 -4.724622
v 1.441337 5.148139 -4.930276
v 1.441337 5.237154 -4.958983
v 1.441337 5.275654 -4.935950
v 1.441337 5.230206 -4.865506
v 1.441337 5.087048 -4.751887
v 1.441337 4.748466 -4.581460
v 1.441337 4.683578 -4.504556
v 1.441337 4.678771 -4.439668
v 1.441337 4.734046 -4.430055
v 1.441337 4.885451 -4.533395
v 1.441337 5.048873 -4.607896
v 1.441337 5.104148 -4.624719
v 1.441337 5.171439 -4.545411
v 1.441337 5.277183 -4.545411
v 1.441337 5.421378 -4.559831
v 1.441337 5.515105 -4.509362
v 1.441337 5.534331 -4.454087
v 1.441337 5.536735 -4.384393
v 1.441337 5.555961 -4.333924
v 1.441337 5.630462 -4.329118
v 1.441337 5.702559 -4.249810
v 1.441337 5.695350 -4.064759
v 1.441337 5.695350 -3.920564
v 1.441337 5.803496 -3.807611
v 1.441337 5.817916 -3.728303
v 1.441337 5.877997 -3.471154
v 1.441337 5.906837 -3.346185
v 1.441337 6.043822 -3.158731
v 1.441337 6.096694 -3.125085
v 1.441337 6.115920 -2.783822
v 1.441337 6.224067 -2.877549
v 1.441337 6.260116 -2.901582
v 1.441337 6.339423 -2.899179
v 1.441337 6.341826 -2.817468
v 2.441337 6.159179 -2.399301
v 2.441337 6.163985 -2.476205
v 2.441337 6.202437 -2.567529
v 2.441337 6.214454 -2.694901
v 2.441337 3.138509 -4.688235
v 2.441337 3.049364 -3.176192
v 2.441337 3.117429 -3.135352
v 2.441337 3.158268 -3.049136
v 2.441337 3.167344 -2.990146
v 2.441337 3.176419 -2.926618
v 2.441337 3.294399 -2.876702
v 2.441337 3.380615 -2.849477
v 2.441337 3.516746 -2.890317
v 2.441337 3.580274 -2.917542
v 2.441337 3.702791 -2.835864
v 2.441337 3.779932 -2.795024
v 2.441337 3.911525 -2.795024
v 2.441337 4.006817 -2.785949
v 2.441337 4.115722 -2.699733
v 2.441337 4.415209 -2.323104
v 2.441337 4.524114 -2.127983
v 2.441337 4.583104 -1.996390
v 2.441337 4.682933 -1.910174
v 2.441337 4.782763 -1.910174
v 2.441337 4.868979 -1.901099
v 2.441337 4.946119 -1.869335
v 2.441337 5.000571 -1.873873
v 2.441337 5.073174 -1.960089
v 2.441337 5.241070 -1.951014
v 2.441337 5.300059 -1.833034
v 2.441337 5.349975 -1.819421
v 2.441337 5.513331 -1.932863
v 2.441337 5.626774 -2.114371
v 2.441337 5.803743 -2.150672
v 2.441337 6.085080 -2.159748
v 2.441337 6.134995 -2.186975
v 2.441337 3.484169 -4.660947
v 2.441337 3.579681 -4.633658
v 2.441337 3.702481 -4.610917
v 2.441337 3.861666 -4.660947
v 2.441337 4.180037 -4.670043
v 2.441337 4.311934 -4.670043
v 2.441337 4.407446 -4.783748
v 2.441337 4.525698 -4.733718
v 2.441337 4.625757 -4.724622
v 2.441337 5.148139 -4.930276
v 2.441337 5.237154 -4.958983
v 2.441337 5.275654 -4.935950
v 2.441337 5.230206 -4.865506
v 2.441337 5.087048 -4.751887
v 2.441337 4.748466 -4.581460
v 2.441337 4.683578 -4.504556
v 2.441337 4.678771 -4.439668
v 2.441337 4.734046 -4.430055
v 2.441337 4.885451 -4.533395
v 2.441337 5.048873 -4.607896
v 2.441337 5.104148 -4.624719
v 2.441337 5.171439 -4.545411
v 2.441337 5.277183 -4.545411
v 2.441337 5.421378 -4.559831
v 2.441337 5.515105 -4.509362
v 2.441337 5.534331 -4.454087
v 2.441337 5.536735 -4.384393
v 2.441337 5.555961 -4.333924
v 2.441337 5.630462 -4.329118
v 2.441337 5.702559 -4.249810
v 2.441337 5.695350 -4.064759
v 2.441337 5.695350 -3.920564
v 2.441337 5.803496 -3.807611
v 2.441337 5.817916 -3.728303
v 2.441337 5.877997 -3.471154
v 2.441337 5.906837 -3.346185
v 2.441337 6.043822 -3.158731
v 2.441337 6.096694 -3.125085
v 2.441337 6.115920 -2.783822
v 2.441337 6.224067 -2.877549
v 2.441337 6.260116 -2.901582
v 2.441337 6.339423 -2.899179
v 2.441337 6.341826 -2.817468
vn -1.0000 -0.0000 -0.0000
vn 1.0000 -0.0000 -0.0000
vn -0.0000 0.9936 0.1132
vn -0.0000 0.9981 0.0624
vn -0.0000 0.9216 0.3881
vn -0.0000 -0.9983 -0.0589
vn -0.0000 -0.5145 0.8575
vn -0.0000 -0.9037 0.4281
vn -0.0000 -0.9884 0.1521
vn -0.0000 -0.9900 0.1414
vn -0.0000 -0.3896 0.9210
vn -0.0000 -0.3011 0.9536
vn -0.0000 0.2874 0.9578
vn -0.0000 0.3939 0.9191
vn -0.0000 -0.5547 0.8321
vn -0.0000 -0.4679 0.8838
vn -0.0000 -0.0000 1.0000
vn -0.0000 -0.0948 0.9955
vn -0.0000 -0.6207 0.7840
vn -0.0000 -0.7827 0.6224
vn -0.0000 -0.8732 0.4874
vn -0.0000 -0.9125 0.4091
vn -0.0000 -0.6536 0.7568
vn -0.0000 -0.1047 0.9945
vn -0.0000 -0.3808 0.9247
vn -0.0000 0.0830 0.9965
vn -0.0000 0.7649 0.6441
vn -0.0000 -0.0540 0.9985
vn -0.0000 -0.8944 0.4472
vn -0.0000 -0.2631 0.9648
vn -0.0000 0.5704 0.8214
vn -0.0000 0.8480 0.5300
vn -0.0000 0.2009 0.9796
vn -0.0000 0.0322 0.9995
vn -0.0000 0.4789 0.8779
vn -0.0000 0.0787 -0.9969
vn -0.0000 0.2747 -0.9615
vn -0.0000 0.1821 -0.9833
vn -0.0000 -0.2998 -0.9540
vn -0.0000 -0.0286 -0.9996
vn -0.0000 -0.0000 -1.0000
vn -0.0000 -0.7657 -0.6432
vn -0.0000 0.3896 -0.9210
vn -0.0000 0.0905 -0.9959
vn -0.0000 -0.3663 -0.9305
vn -0.0000 -0.3069 -0.9517
vn -0.0000 0.5134 -0.8581
vn -0.0000 0.8403 0.5421
vn -0.0000 0.6217 0.7833
vn -0.0000 0.4496 0.8932
vn -0.0000 0.7643 0.6449
vn -0.0000 0.9973 0.0739
vn -0.0000 0.1713 -0.9852
vn -0.0000 -0.5637 -0.8259
vn -0.0000 -0.4148 -0.9099
vn -0.0000 -0.2912 -0.9567
vn -0.0000 0.7625 -0.6470
vn -0.0000 -0.0995 -0.9950
vn -0.0000 0.4741 -0.8805
vn -0.0000 0.9445 -0.3285
vn -0.0000 0.9994 -0.0345
vn -0.0000 0.9345 -0.3560
vn -0.0000 0.0644 -0.9979
vn -0.0000 0.7399 -0.6727
vn -0.0000 0.9992 0.0389
vn -0.0000 1.0000 -0.0000
vn -0.0000 0.7223 -0.6916
vn -0.0000 0.9839 -0.1789
vn -0.0000 0.9738 -0.2275
vn -0.0000 0.9744 -0.2249
vn -0.0000 0.8074 -0.5900
vn -0.0000 0.5369 -0.8437
vn -0.0000 0.9984 -0.0562
vn -0.0000 -0.6549 -0.7557
vn -0.0000 -0.5547 -0.8321
vn -0.0000 0.0303 -0.9995
vn -0.0000 0.9996 -0.0294
vn -0.0000 0.6934 0.7206
vn -0.0000 0.9956 0.0939
vn -0.0000 -0.9899 0.1414
vt 0.000000 0.000000
s 0
f 51/1/1 45/1/1 42/1/1
f 124/1/2 128/1/2 130/1/2
f 36/1/3 80/1/3 1/1/3
f 1/1/4 81/1/4 2/1/4
f 2/1/5 82/1/5 3/1/5
f 5/1/6 85/1/6 6/1/6
f 6/1/7 86/1/7 7/1/7
f 7/1/8 87/1/8 8/1/8
f 8/1/9 88/1/9 9/1/9
f 9/1/10 89/1/10 10/1/10
f 10/1/11 90/1/11 11/1/11
f 11/1/12 91/1/12 12/1/12
f 12/1/13 92/1/13 13/1/13
f 13/1/14 93/1/14 14/1/14
f 14/1/15 94/1/15 15/1/15
f 15/1/16 95/1/16 16/1/16
f 16/1/17 96/1/17 17/1/17
f 17/1/18 97/1/18 18/1/18
f 18/1/19 98/1/19 19/1/19
f 19/1/20 99/1/20 20/1/20
f 20/1/21 100/1/21 21/1/21
f 21/1/22 101/1/22 22/1/22
f 22/1/23 102/1/23 23/1/23
f 23/1/17 103/1/17 24/1/17
f 24/1/24 104/1/24 25/1/24
f 25/1/25 105/1/25 26/1/25
f 26/1/26 106/1/26 27/1/26
f 27/1/27 107/1/27 28/1/27
f 28/1/28 108/1/28 29/1/28
f 29/1/29 109/1/29 30/1/29
f 30/1/30 110/1/30 31/1/30
f 31/1/31 111/1/31 32/1/31
f 32/1/32 112/1/32 33/1/32
f 33/1/33 113/1/33 34/1/33
f 34/1/34 114/1/34 35/1/34
f 35/1/35 115/1/35 36/1/35
f 37/1/36 84/1/36 5/1/36
f 38/1/37 116/1/37 37/1/37
f 39/1/38 117/1/38 38/1/38
f 40/1/39 118/1/39 39/1/39
f 41/1/40 119/1/40 40/1/40
f 42/1/41 120/1/41 41/1/41
f 43/1/42 121/1/42 42/1/42
f 44/1/43 122/1/43 43/1/43
f 45/1/44 123/1/44 44/1/44
f 46/1/45 124/1/45 45/1/45
f 47/1/46 125/1/46 46/1/46
f 48/1/47 126/1/47 47/1/47
f 49/1/48 127/1/48 48/1/48
f 50/1/49 128/1/49 49/1/49
f 51/1/50 129/1/50 50/1/50
f 52/1/51 130/1/51 51/1/51
f 53/1/52 131/1/52 52/1/52
f 54/1/53 132/1/53 53/1/53
f 55/1/54 133/1/54 54/1/54
f 56/1/55 134/1/55 55/1/55
f 57/1/56 135/1/56 56/1/56
f 58/1/57 136/1/57 57/1/57
f 59/1/41 137/1/41 58/1/41
f 60/1/58 138/1/58 59/1/58
f 61/1/59 139/1/59 60/1/59
f 62/1/60 140/1/60 61/1/60
f 63/1/61 141/1/61 62/1/61
f 64/1/62 142/1/62 63/1/62
f 65/1/63 143/1/63 64/1/63
f 66/1/64 144/1/64 65/1/64
f 67/1/65 145/1/65 66/1/65
f 68/1/66 146/1/66 67/1/66
f 69/1/67 147/1/67 68/1/67
f 70/1/68 148/1/68 69/1/68
f 71/1/69 149/1/69 70/1/69
f 72/1/70 150/1/70 71/1/70
f 73/1/71 151/1/71 72/1/71
f 74/1/72 152/1/72 73/1/72
f 75/1/73 153/1/73 74/1/73
f 76/1/74 154/1/74 75/1/74
f 77/1/75 155/1/75 76/1/75
f 78/1/76 156/1/76 77/1/76
f 79/1/77 157/1/77 78/1/77
f 4/1/78 158/1/78 79/1/78
f 3/1/79 83/1/79 4/1/79
f 35/1/1 36/1/1 1/1/1
f 2/1/1 3/1/1 4/1/1
f 35/1/1 1/1/1 2/1/1
f 34/1/1 35/1/1 2/1/1
f 4/1/1 79/1/1 78/1/1
f 34/1/1 2/1/1 4/1/1
f 31/1/1 32/1/1 33/1/1
f 33/1/1 34/1/1 4/1/1
f 4/1/1 78/1/1 77/1/1
f 77/1/1 76/1/1 75/1/1
f 75/1/1 74/1/1 73/1/1
f 72/1/1 71/1/1 70/1/1
f 75/1/1 73/1/1 72/1/1
f 4/1/1 77/1/1 75/1/1
f 30/1/1 31/1/1 33/1/1
f 33/1/1 4/1/1 75/1/1
f 33/1/1 75/1/1 72/1/1
f 29/1/1 30/1/1 33/1/1
f 26/1/1 27/1/1 28/1/1
f 28/1/1 29/1/1 33/1/1
f 33/1/1 72/1/1 70/1/1
f 70/1/1 69/1/1 68/1/1
f 67/1/1 66/1/1 65/1/1
f 33/1/1 70/1/1 68/1/1
f 68/1/1 67/1/1 65/1/1
f 68/1/1 65/1/1 64/1/1
f 28/1/1 33/1/1 68/1/1
f 25/1/1 26/1/1 28/1/1
f 22/1/1 23/1/1 24/1/1
f 24/1/1 25/1/1 28/1/1
f 28/1/1 68/1/1 64/1/1
f 63/1/1 62/1/1 61/1/1
f 28/1/1 64/1/1 63/1/1
f 22/1/1 24/1/1 28/1/1
f 21/1/1 22/1/1 28/1/1
f 28/1/1 63/1/1 61/1/1
f 61/1/1 60/1/1 59/1/1
f 58/1/1 57/1/1 56/1/1
f 61/1/1 59/1/1 58/1/1
f 21/1/1 28/1/1 61/1/1
f 20/1/1 21/1/1 61/1/1
f 58/1/1 56/1/1 55/1/1
f 20/1/1 61/1/1 58/1/1
f 19/1/1 20/1/1 58/1/1
f 58/1/1 55/1/1 54/1/1
f 19/1/1 58/1/1 54/1/1
f 18/1/1 19/1/1 54/1/1
f 18/1/1 54/1/1 53/1/1
f 15/1/1 16/1/1 17/1/1
f 17/1/1 18/1/1 53/1/1
f 17/1/1 53/1/1 52/1/1
f 14/1/1 15/1/1 17/1/1
f 12/1/1 13/1/1 14/1/1
f 10/1/1 11/1/1 12/1/1
f 9/1/1 10/1/1 12/1/1
f 14/1/1 17/1/1 52/1/1
f 9/1/1 12/1/1 14/1/1
f 8/1/1 9/1/1 14/1/1
f 8/1/1 14/1/1 52/1/1
f 5/1/1 6/1/1 7/1/1
f 7/1/1 8/1/1 52/1/1
f 51/1/1 50/1/1 49/1/1
f 7/1/1 52/1/1 51/1/1
f 37/1/1 5/1/1 7/1/1
f 38/1/1 37/1/1 7/1/1
f 51/1/1 49/1/1 48/1/1
f 39/1/1 38/1/1 7/1/1
f 41/1/1 40/1/1 39/1/1
f 44/1/1 43/1/1 42/1/1
f 42/1/1 41/1/1 39/1/1
f 39/1/1 7/1/1 51/1/1
f 51/1/1 48/1/1 47/1/1
f 47/1/1 46/1/1 45/1/1
f 45/1/1 44/1/1 42/1/1
f 42/1/1 39/1/1 51/1/1
f 51/1/1 47/1/1 45/1/1
f 80/1/2 115/1/2 114/1/2
f 80/1/2 114/1/2 113/1/2
f 83/1/2 82/1/2 81/1/2
f 81/1/2 80/1/2 113/1/2
f 112/1/2 111/1/2 110/1/2
f 81/1/2 113/1/2 112/1/2
f 157/1/2 158/1/2 83/1/2
f 83/1/2 81/1/2 112/1/2
f 112/1/2 110/1/2 109/1/2
f 112/1/2 109/1/2 108/1/2
f 157/1/2 83/1/2 112/1/2
f 155/1/2 156/1/2 157/1/2
f 152/1/2 153/1/2 154/1/2
f 154/1/2 155/1/2 157/1/2
f 157/1/2 112/1/2 108/1/2
f 107/1/2 106/1/2 105/1/2
f 157/1/2 108/1/2 107/1/2
f 151/1/2 152/1/2 154/1/2
f 154/1/2 157/1/2 107/1/2
f 107/1/2 105/1/2 104/1/2
f 103/1/2 102/1/2 101/1/2
f 107/1/2 104/1/2 103/1/2
f 151/1/2 154/1/2 107/1/2
f 149/1/2 150/1/2 151/1/2
f 147/1/2 148/1/2 149/1/2
f 144/1/2 145/1/2 146/1/2
f 147/1/2 149/1/2 151/1/2
f 144/1/2 146/1/2 147/1/2
f 143/1/2 144/1/2 147/1/2
f 147/1/2 151/1/2 107/1/2
f 107/1/2 103/1/2 101/1/2
f 107/1/2 101/1/2 100/1/2
f 143/1/2 147/1/2 107/1/2
f 140/1/2 141/1/2 142/1/2
f 142/1/2 143/1/2 107/1/2
f 107/1/2 100/1/2 99/1/2
f 107/1/2 99/1/2 98/1/2
f 140/1/2 142/1/2 107/1/2
f 138/1/2 139/1/2 140/1/2
f 135/1/2 136/1/2 137/1/2
f 137/1/2 138/1/2 140/1/2
f 140/1/2 107/1/2 98/1/2
f 140/1/2 98/1/2 97/1/2
f 134/1/2 135/1/2 137/1/2
f 137/1/2 140/1/2 97/1/2
f 96/1/2 95/1/2 94/1/2
f 137/1/2 97/1/2 96/1/2
f 133/1/2 134/1/2 137/1/2
f 133/1/2 137/1/2 96/1/2
f 96/1/2 94/1/2 93/1/2
f 93/1/2 92/1/2 91/1/2
f 91/1/2 90/1/2 89/1/2
f 91/1/2 89/1/2 88/1/2
f 133/1/2 96/1/2 93/1/2
f 93/1/2 91/1/2 88/1/2
f 93/1/2 88/1/2 87/1/2
f 132/1/2 133/1/2 93/1/2
f 131/1/2 132/1/2 93/1/2
f 93/1/2 87/1/2 86/1/2
f 86/1/2 85/1/2 84/1/2
f 84/1/2 116/1/2 117/1/2
f 118/1/2 119/1/2 120/1/2
f 84/1/2 117/1/2 118/1/2
f 93/1/2 86/1/2 84/1/2
f 93/1/2 84/1/2 118/1/2
f 118/1/2 120/1/2 121/1/2
f 121/1/2 122/1/2 123/1/2
f 124/1/2 125/1/2 126/1/2
f 121/1/2 123/1/2 124/1/2
f 93/1/2 118/1/2 121/1/2
f 131/1/2 93/1/2 121/1/2
f 124/1/2 126/1/2 127/1/2
f 131/1/2 121/1/2 124/1/2
f 128/1/2 129/1/2 130/1/2
f 130/1/2 131/1/2 124/1/2
f 124/1/2 127/1/2 128/1/2
f 36/1/3 115/1/3 80/1/3
f 1/1/4 80/1/4 81/1/4
f 2/1/5 81/1/5 82/1/5
f 5/1/6 84/1/6 85/1/6
f 6/1/7 85/1/7 86/1/7
f 7/1/8 86/1/8 87/1/8
f 8/1/9 87/1/9 88/1/9
f 9/1/80 88/1/80 89/1/80
f 10/1/11 89/1/11 90/1/11
f 11/1/12 90/1/12 91/1/12
f 12/1/13 91/1/13 92/1/13
f 13/1/14 92/1/14 93/1/14
f 14/1/15 93/1/15 94/1/15
f 15/1/16 94/1/16 95/1/16
f 16/1/17 95/1/17 96/1/17
f 17/1/18 96/1/18 97/1/18
f 18/1/19 97/1/19 98/1/19
f 19/1/20 98/1/20 99/1/20
f 20/1/21 99/1/21 100/1/21
f 21/1/22 100/1/22 101/1/22
f 22/1/23 101/1/23 102/1/23
f 23/1/17 102/1/17 103/1/17
f 24/1/24 103/1/24 104/1/24
f 25/1/25 104/1/25 105/1/25
f 26/1/26 105/1/26 106/1/26
f 27/1/27 106/1/27 107/1/27
f 28/1/28 107/1/28 108/1/28
f 29/1/29 108/1/29 109/1/29
f 30/1/30 109/1/30 110/1/30
f 31/1/31 110/1/31 111/1/31
f 32/1/32 111/1/32 112/1/32
f 33/1/33 112/1/33 113/1/33
f 34/1/34 113/1/34 114/1/34
f 35/1/35 114/1/35 115/1/35
f 37/1/36 116/1/36 84/1/36
f 38/1/37 117/1/37 116/1/37
f 39/1/38 118/1/38 117/1/38
f 40/1/39 119/1/39 118/1/39
f 41/1/40 120/1/40 119/1/40
f 42/1/41 121/1/41 120/1/41
f 43/1/42 122/1/42 121/1/42
f 44/1/43 123/1/43 122/1/43
f 45/1/44 124/1/44 123/1/44
f 46/1/45 125/1/45 124/1/45
f 47/1/46 126/1/46 125/1/46
f 48/1/47 127/1/47 126/1/47
f 49/1/48 128/1/48 127/1/48
f 50/1/49 129/1/49 128/1/49
f 51/1/50 130/1/50 129/1/50
f 52/1/51 131/1/51 130/1/51
f 53/1/52 132/1/52 131/1/52
f 54/1/53 133/1/53 132/1/53
f 55/1/54 134/1/54 133/1/54
f 56/1/55 135/1/55 134/1/55
f 57/1/56 136/1/56 135/1/56
f 58/1/57 137/1/57 136/1/57
f 59/1/41 138/1/41 137/1/41
f 60/1/58 139/1/58 138/1/58
f 61/1/59 140/1/59 139/1/59
f 62/1/60 141/1/60 140/1/60
f 63/1/61 142/1/61 141/1/61
f 64/1/62 143/1/62 142/1/62
f 65/1/63 144/1/63 143/1/63
f 66/1/64 145/1/64 144/1/64
f 67/1/65 146/1/65 145/1/65
f 68/1/66 147/1/66 146/1/66
f 69/1/67 148/1/67 147/1/67
f 70/1/68 149/1/68 148/1/68
f 71/1/69 150/1/69 149/1/69
f 72/1/70 151/1/70 150/1/70
f 73/1/71 152/1/71 151/1/71
f 74/1/72 153/1/72 152/1/72
f 75/1/73 154/1/73 153/1/73
f 76/1/74 155/1/74 154/1/74
f 77/1/75 156/1/75 155/1/75
f 78/1/76 157/1/76 156/1/76
f 79/1/77 158/1/77 157/1/77
f 4/1/78 83/1/78 158/1/78
f 3/1/79 82/1/79 83/1/79
